<?xml version="1.0" encoding="UTF-8"?>
<svg width="1064px" height="827px" viewBox="0 0 1064 827" version="1.1" xmlns="http://www.w3.org/2000/svg" xmlns:xlink="http://www.w3.org/1999/xlink">
    <!-- Generator: Sketch 53.2 (72643) - https://sketchapp.com -->
    <title>1</title>
    <desc>Created with Sketch.</desc>
    <g id="Page-4" stroke="none" stroke-width="1" fill="none" fill-rule="evenodd">
        <g id="ct/1-" transform="translate(0.000000, -25.000000)">
            <g id="1">
                <g id="губы" transform="translate(244.000000, 304.000000)">
                    <polyline id="Path-19-Copy" stroke="#D548AF" stroke-width="20" stroke-linecap="round" stroke-linejoin="round" transform="translate(284.000000, 302.500000) scale(-1, 1) translate(-284.000000, -302.500000) " points="296 226 296 362.756128 272 379"></polyline>
                    <polyline id="Path-19-Copy-2" stroke="#D548AF" stroke-width="20" stroke-linecap="round" stroke-linejoin="round" points="159 226 159 362.756128 135 379"></polyline>
                    <g id="lips">
                        <path d="M215,240 C55.4692235,240 21.7355894,142.124709 2.99760377,103.580875 C-15.7403819,65.0370423 57.5273173,43.5322037 107.271096,13.0520181 C140.433615,-7.26810554 176.34325,-3.86158661 215,23.2715749 C253.65675,-3.86158661 289.566385,-7.26810554 322.728904,13.0520181 C372.472683,43.5322037 445.740382,65.0370423 427.002396,103.580875 C408.264411,142.124709 374.530776,240 215,240 Z" id="Combined-Shape" fill="#FF6DAB"></path>
                        <path d="M215.495341,134 C169.031385,134 130.869565,113.512304 130.869565,100.512962 C130.869565,87.5136197 169.031385,97.9896497 215.495341,97.9896497 C261.959297,97.9896497 299.130435,87.5136197 299.130435,100.512962 C299.130435,113.512304 261.959297,134 215.495341,134 Z M26.173913,107 C16.8811218,107 9.34782609,100.284271 9.34782609,92 C9.34782609,83.7157288 16.8811218,77 26.173913,77 C35.4667043,77 43,83.7157288 43,92 C43,100.284271 35.4667043,107 26.173913,107 Z M403.826087,107 C394.533296,107 387,100.284271 387,92 C387,83.7157288 394.533296,77 403.826087,77 C413.118878,77 420.652174,83.7157288 420.652174,92 C420.652174,100.284271 413.118878,107 403.826087,107 Z" id="Combined-Shape" fill="#F55898"></path>
                        <path d="M215,94 C237.185693,94 283.573632,116.04272 301.379385,116.813123 C350.660624,118.945376 376.398012,105.239102 389.054112,105.619551 C397.491511,105.873184 402.415503,110 403.826087,118" id="Path-16" stroke="#C33F9F" stroke-width="16" stroke-linecap="round" stroke-linejoin="round" transform="translate(309.413043, 106.000000) scale(1, -1) translate(-309.413043, -106.000000) "></path>
                        <path d="M26.173913,94 C48.3596063,94 94.7475451,116.04272 112.553298,116.813123 C161.834537,118.945376 187.571925,105.239102 200.228025,105.619551 C208.665424,105.873184 213.589416,110 215,118" id="Path-16-Copy" stroke="#C33F9F" stroke-width="16" stroke-linecap="round" stroke-linejoin="round" transform="translate(120.586957, 106.000000) scale(-1, -1) translate(-120.586957, -106.000000) "></path>
                        <path d="M276.251107,177.566945 C247.577304,185.786099 220.527957,177.259309 215.834701,158.521826 C211.141444,139.784343 234.702654,150.689644 263.376457,142.470489 C292.05026,134.251335 314.97847,110.020152 319.671727,128.757635 C324.364984,147.495118 304.92491,169.34779 276.251107,177.566945 Z M201.674564,160.671613 C212.447881,183.142103 182.502047,182.226699 177.80879,163.489216 C173.115534,144.751733 190.901246,138.201124 201.674564,160.671613 Z M289.562135,18.1685046 C312.750515,24.8152989 300.890099,58.9816485 277.701719,52.3348542 C254.513339,45.68806 234.799905,57.1404791 239.34544,38.992764 C243.890975,20.8450489 266.373756,11.5217104 289.562135,18.1685046 Z" id="Combined-Shape" fill="#FF80B9"></path>
                    </g>
                </g>
                <g id="ухо" transform="translate(0.000000, 243.000000)">
                    <polyline id="Path-19-Copy" stroke="#D548AF" stroke-width="20" stroke-linecap="round" stroke-linejoin="round" transform="translate(176.193297, 377.500000) scale(-1, 1) translate(-176.193297, -377.500000) " points="188.193297 316 188.193297 422.756128 164.193297 439"></polyline>
                    <polyline id="Path-19-Copy-2" stroke="#D548AF" stroke-width="20" stroke-linecap="round" stroke-linejoin="round" points="115 287 115 423.070771 91 439.314644"></polyline>
                    <path d="M194.193297,173.185356 C187.465916,129.874638 220.487589,90.7601278 189.193297,53.6853565 C157.899004,16.6105852 80.4918972,-44.9436259 24.0297745,53.6853565 C-32.4323483,152.314339 24.1081903,256.477931 84.3511023,289.653206 C156.265215,329.255715 127.600474,338.143213 174.303667,343.308294 C294.123161,356.559579 200.920677,216.496075 194.193297,173.185356 Z" id="Path-21" fill="#FFD1A5"></path>
                    <circle id="Oval" fill="#FFC28D" cx="195" cy="303" r="7"></circle>
                    <path d="M168.677263,264.62687 C152.047408,282.522384 117.897943,237.08612 126.729443,209.171439 C129.929364,199.057102 136.957463,190.685356 139.198708,190.685356 C146.085293,190.685356 151.667973,201.332939 151.667973,214.467398 C151.667973,227.601857 185.307118,246.731357 168.677263,264.62687 Z M113.295122,76.2513748 C117.412669,62.7834852 132.738863,55.5307831 147.527134,60.0520112 C162.315405,64.5732394 170.965735,79.1563006 166.848188,92.6241902 C162.730641,106.09208 147.404448,113.344782 132.616177,108.823554 C117.827906,104.302326 109.177575,89.7192644 113.295122,76.2513748 Z" id="Combined-Shape" fill="#FFC28D"></path>
                    <path d="M120.315753,174.357196 C170.343416,127.604919 184.872545,94.2455495 163.903138,74.2790866 C132.449028,44.3293924 61.2971895,38.4297461 46.9347244,116.30799 C41.4020757,146.307921 44.2437681,176.933419 55.4598015,208.184484" id="Path-22" stroke="#F2AF7C" stroke-width="16" stroke-linecap="round" stroke-linejoin="round"></path>
                    <path d="M131.74076,208.184484 C145.565956,185.590362 156.113107,178.058988 163.382213,185.590362 C174.285872,196.887423 145.549744,222.411387 166.110531,234.862766 C186.671317,247.314145 182.697012,280.350822 157.052578,271.675494 C131.408144,263.000165 52.5481383,203.019861 98.4025222,148.306622" id="Path-23" stroke="#F2AF7C" stroke-width="16" stroke-linecap="round" stroke-linejoin="round"></path>
                    <ellipse id="Oval" fill="#F2AF7C" transform="translate(152.429976, 199.569684) rotate(-15.000000) translate(-152.429976, -199.569684) " cx="152.429976" cy="199.569684" rx="13.5" ry="13"></ellipse>
                    <path d="M168.786912,85.6853565 C138.545616,113.447134 119.01441,117.792184 110.193297,98.7205067" id="Path-24" stroke="#F2AF7C" stroke-width="16" stroke-linecap="round" stroke-linejoin="round"></path>
                    <path d="M44.7321799,69.6495849 C33.6395328,80.7529287 22.4456455,60.3398347 47.0478289,37.1264336 C71.6500124,13.9130326 100.828084,16.4111582 103.741962,27.1297283 C105.385895,33.1768604 101.541441,34.5199865 79.991061,43.4241483 C58.4406807,52.3283101 55.8248271,58.5462411 44.7321799,69.6495849 Z M108.300745,122.29368 C115.658633,130.941263 97.6513358,135.973584 82.4685831,116.959301 C67.2858304,97.9450181 88.1009691,80.5458638 92.2066651,95.8660659 C96.312361,111.186268 100.942857,113.646098 108.300745,122.29368 Z" id="Combined-Shape" fill="#FFDBB8"></path>
                </g>
                <g id="рука" transform="translate(22.000000, 0.000000)">
                    <polyline id="Path-19-Copy" stroke="#D548AF" stroke-width="20" stroke-linecap="round" stroke-linejoin="round" transform="translate(922.914611, 604.058651) scale(-1, 1) translate(-922.914611, -604.058651) " points="934.914611 527.558651 934.914611 664.314779 910.914611 680.558651"></polyline>
                    <polyline id="Path-19-Copy-2" stroke="#D548AF" stroke-width="20" stroke-linecap="round" stroke-linejoin="round" points="818 528 818 664.756128 794 681"></polyline>
                    <g id="Group-16" transform="translate(817.934942, 294.833125) rotate(-11.000000) translate(-817.934942, -294.833125) translate(666.934942, 23.833125)">
                        <path d="M193,246.069475 C195.691659,246.163118 198.359389,246.350902 201,246.629634 L201,58.5 C201,42.2075999 214.2076,29 230.5,29 C246.7924,29 260,42.2075999 260,58.5 L260,271.086055 C285.618533,291.801673 302,323.487788 302,359 L302,429 C302,491.408177 251.408177,542 189,542 L113,542 C50.5918233,542 7.64279739e-15,491.408177 0,429 L0,359 C-4.24236386e-16,355.535847 0.155880384,352.108102 0.461009468,348.723396 C0.158088518,347.028025 2.18290146e-16,345.282474 0,343.5 L0,143.5 C-1.99524357e-15,127.2076 13.2075999,114 29.5,114 C45.7924001,114 59,127.2076 59,143.5 L59,259.713303 C61.6062505,258.292813 64.2746226,256.971952 67,255.755836 L67,58.5 C67,42.2075999 80.2075999,29 96.5,29 C112.7924,29 126,42.2075999 126,58.5 L126,246 L134,246 L134,29.5 C134,13.2075999 147.2076,2.99286535e-15 163.5,0 C179.7924,-2.99286535e-15 193,13.2075999 193,29.5 L193,246.069475 Z" id="Combined-Shape" fill="#FFD1A5"></path>
                        <path d="M88.0650576,106.666875 L104.673701,106.666875 L88.0650576,106.666875 Z M88.0650576,177.666875 L104.673701,177.666875 L88.0650576,177.666875 Z M26.0650576,183.666875 L33.8808898,183.666875 L26.0650576,183.666875 Z M26.0650576,254.666875 L33.8808898,254.666875 L26.0650576,254.666875 Z M222.065058,106.666875 L238.673701,106.666875 L222.065058,106.666875 Z M222.065058,177.666875 L238.673701,177.666875 L222.065058,177.666875 Z M155.065058,88.666875 L171.673701,88.666875 L155.065058,88.666875 Z M155.065058,161.666875 L171.673701,161.666875 L155.065058,161.666875 Z" id="Combined-Shape" stroke="#F7B685" stroke-width="16" stroke-linecap="round" stroke-linejoin="round"></path>
                    </g>
                    <ellipse id="Oval" fill="#FFC28D" cx="885.5" cy="346.5" rx="76.5" ry="69.5"></ellipse>
                    <g id="карандаш" transform="translate(0.000000, 157.588995)">
                        <path d="M696.545,577.411005 C671.67404,620.41405 618.926257,630.995665 538.30165,609.155852 C407.464229,573.714255 388.403318,589.201191 322.055703,635.193882 C225.347521,702.232758 117.995621,708.092192 0,652.772184" id="Path-20" stroke="#FFEB5D" stroke-width="7" stroke-linecap="round" stroke-linejoin="round"></path>
                        <path d="M833.411738,81.3265306 C833.411738,66.0522258 853.161115,-29 863.411738,-29 C873.66236,-29 893.411738,66.0522258 893.411738,81.3265306 C893.411738,246.55102 893.411738,411.77551 893.411738,577 L893.411738,577 C893.411738,593.568542 879.98028,607 863.411738,607 L863.411738,607 C846.843195,607 833.411738,593.568542 833.411738,577 C833.411738,411.77551 833.411738,246.55102 833.411738,81.3265306 Z" id="Rectangle" fill="#FFD86D" transform="translate(863.411738, 289.000000) rotate(-149.000000) translate(-863.411738, -289.000000) "></path>
                        <path d="M946.960446,100.023215 C959.214996,100.023215 969.214996,100.023215 976.960446,100.023215 C984.705895,100.023215 994.705895,100.023215 1006.96045,100.023215" id="Path-18" stroke="#FFEB5D" stroke-width="16" transform="translate(976.960446, 100.023215) rotate(-149.000000) translate(-976.960446, -100.023215) "></path>
                        <rect id="Rectangle" fill="#FFEB5D" transform="translate(859.506949, 268.921415) rotate(-149.000000) translate(-859.506949, -268.921415) " x="853.506949" y="89.4214151" width="12" height="359" rx="6"></rect>
                    </g>
                    <path d="M841.027285,318.76766 C817.08444,336.339782 838.128132,371.75251 892.481245,347.448777 C907.138682,340.894774 934.645322,355.350311 932.804287,375.009919 C930.412419,400.551631 884.579338,433.625542 912.406643,464.801996 C939.235062,494.859343 986.176633,497.784922 1004.31489,435.587565 C1017.6491,389.863604 1028.66358,359.693839 998.211742,333.013386 C982.264655,319.041305 929.847155,280.279494 908.924355,281.536863 C874.072399,283.631315 864.970131,301.195539 841.027285,318.76766 Z" id="Path-19" fill="#FFD1A5" transform="translate(924.485841, 383.506978) rotate(-11.000000) translate(-924.485841, -383.506978) "></path>
                    <path d="M836.076086,357.692063 C843.330213,359.697485 854.324193,352.059881 857.082378,339.389214 C859.840563,326.718547 847.974329,320.57707 841.66598,328.845656 C829.101632,345.314208 828.821959,355.68664 836.076086,357.692063 Z" id="Path-4-Copy-4" fill="#FFDBB8" transform="translate(844.382754, 341.542615) rotate(10.000000) translate(-844.382754, -341.542615) "></path>
                </g>
            </g>
        </g>
    </g>
</svg>