<?xml version="1.0" encoding="UTF-8"?>
<svg width="1516px" height="410px" viewBox="0 0 1516 410" version="1.1" xmlns="http://www.w3.org/2000/svg" xmlns:xlink="http://www.w3.org/1999/xlink">
    <!-- Generator: Sketch 53.2 (72643) - https://sketchapp.com -->
    <title>Group</title>
    <desc>Created with Sketch.</desc>
    <defs>
        <linearGradient x1="50%" y1="1.47012247%" x2="50%" y2="99.8830213%" id="linearGradient-1">
            <stop stop-color="#245FAB" offset="0%"></stop>
            <stop stop-color="#142E50" offset="99.9604096%"></stop>
        </linearGradient>
        <linearGradient x1="43.2701765%" y1="0%" x2="43.2701765%" y2="117.279832%" id="linearGradient-2">
            <stop stop-color="#245FAB" offset="0%"></stop>
            <stop stop-color="#142E50" offset="99.9604096%"></stop>
        </linearGradient>
        <linearGradient x1="43.2701765%" y1="0%" x2="43.2701765%" y2="117.279832%" id="linearGradient-3">
            <stop stop-color="#245FAB" offset="0%"></stop>
            <stop stop-color="#142E50" offset="99.9604096%"></stop>
        </linearGradient>
    </defs>
    <g id="Page-2" stroke="none" stroke-width="1" fill="none" fill-rule="evenodd">
        <g id="Artboard-Copy-3">
            <g id="Group" transform="translate(-29.000000, 0.000000)">
                <rect id="Rectangle" fill="url(#linearGradient-1)" x="29" y="0" width="1516" height="410"></rect>
                <path d="M1334.88984,410 C1333.61723,406.087924 1332.05538,402.357285 1330.20431,398.808084 C1321.98514,383.048837 1294.14036,381.973365 1266.14585,367.877931 C1271.19362,377.762144 1275.2749,388.361076 1277.11287,398.53465 C1277.81881,402.442181 1278.25641,406.263964 1278.42566,410 L1265.64228,410 C1258.64115,400.408823 1248.60818,388.833663 1245.72145,371.729691 C1244.42092,364.024004 1243.14854,357.231634 1242.07771,351.517886 C1241.50577,350.99715 1240.93642,350.466525 1240.36985,349.925729 C1205.98956,317.108981 1184.45261,300.182588 1195.25623,302.266067 C1224.37772,307.882152 1276.16875,327.998714 1307.28533,357.061571 C1321.37893,370.224977 1331.73304,384.48169 1338.34767,399.831709 C1332.27898,376.190855 1321.53814,341.969264 1294.73103,329.970941 C1253.2427,311.401605 1253.31823,286.647154 1230.13292,269.909882 C1206.94762,253.172609 1178.1395,240.045966 1189.1545,235.559113 C1206.54233,228.476344 1285.46312,257.742297 1312.01185,302.110303 C1323.23215,320.861581 1332.24438,346.104178 1338.40041,368.743451 C1337.84682,358.771201 1337.15394,350.26383 1335.49451,343.885602 C1323.53098,297.902464 1301.52275,262.10443 1292.4668,231.288231 C1272.57495,163.598864 1288.77514,92.4890698 1304.42313,135.426108 C1315.90222,166.923951 1343.00461,193.018333 1347.94608,229.763684 C1353.22412,269.011925 1345.23806,284.745544 1345.90633,332.6108 C1346.13705,349.136617 1347.71097,374.933017 1350.62808,410 L1334.88984,410 Z M1350.64226,410 C1351.19022,403.232739 1352.35588,396.532294 1354.13922,389.898668 C1351.67029,353.681232 1352.16829,325.345386 1355.63323,304.891129 C1362.31022,265.475555 1389.86553,222.458756 1409.51219,207.910108 C1415.23211,203.67442 1413.32126,223.136681 1406.3664,267.322456 C1399.41154,311.508232 1367.24332,331.896796 1362.89332,352.258053 C1361.80976,357.329972 1361.08001,363.775274 1360.70409,371.593959 C1364.32899,363.5416 1368.89907,355.591487 1374.41434,347.743621 C1399.19868,312.477109 1446.22412,282.502112 1473.82976,271.436881 C1484.07101,267.331854 1466.26518,288.499317 1439.02548,328.182062 C1412.02864,367.511007 1367.54718,371.302023 1360.49688,393.784326 C1360.60156,398.844054 1360.79525,404.249279 1361.07795,410 L1350.64226,410 Z M1424.37306,410 L1418.10847,410 C1423.13022,389.445753 1428.76078,373.297811 1435.00015,361.556173 C1448.76463,335.653327 1480.51305,310.188598 1499.77314,303.005302 C1505.38051,300.913959 1499.72785,313.895832 1484.73508,343.006895 C1469.74232,372.117959 1438.92587,381.54324 1431.07204,394.799452 C1428.83331,398.578134 1426.60031,403.644984 1424.37306,410 Z M1441.26836,410 L1432.8163,410 C1436.96918,402.882526 1442.40029,396.211442 1449.10962,389.986747 C1468.73618,371.777875 1500.69573,359.781823 1518.52367,356.727313 C1525.13755,355.594138 1511.6331,366.130519 1489.93032,386.706505 C1472.91706,402.836449 1452.64378,403.924797 1441.26836,410 Z M1244.88744,410 L1239.00074,410 C1235.18789,401.182023 1231.58982,394.498985 1228.20653,389.950884 C1219.01008,377.588239 1187.37723,371.435787 1169.42366,344.051368 C1151.4701,316.666949 1144.49142,304.347057 1150.28668,305.840812 C1170.19212,310.97153 1204.42841,332.978147 1220.82507,357.300315 C1229.02209,369.459462 1237.04288,387.026023 1244.88744,410 Z M1230.98635,410 L1224.75874,410 C1214.00494,402.145246 1190.64943,405.745458 1169.45975,389.501702 C1145.72509,371.306991 1131.19326,362.23993 1137.88936,362.675558 C1155.93892,363.849809 1188.97732,372.439462 1210.39971,388.49705 C1218.91924,394.883038 1225.78145,402.050688 1230.98635,410 Z" id="Combined-Shape-Copy-7" fill="url(#linearGradient-2)" transform="translate(1328.233091, 266.187954) scale(-1, 1) translate(-1328.233091, -266.187954) "></path>
                <path d="M69.0595391,409.624092 C63.7930048,406.255598 58.6079075,402.294077 53.6376127,397.549822 C19.2573199,364.733074 -2.27962994,347.80668 8.52398412,349.890159 C37.6454758,355.506244 89.4365041,375.622806 120.553088,404.685663 C122.29762,406.315055 123.984856,407.961198 125.614796,409.624092 L69.0595391,409.624092 Z M138.335062,409.624092 C131.485381,396.020645 121.90329,383.818407 107.998789,377.595033 C66.510463,359.025697 66.5859849,334.271246 43.4006802,317.533974 C20.2153755,300.796702 -8.59274131,287.670059 2.4222547,283.183205 C19.8100899,276.100436 98.7308805,305.366389 125.279608,349.734395 C135.396908,366.642341 143.718922,388.828087 149.77049,409.624092 L138.335062,409.624092 Z M151.246638,409.624092 C150.737911,402.535001 150.033869,396.397238 148.762267,391.509694 C136.798742,345.526556 114.790508,309.728522 105.734562,278.912323 C85.8427101,211.222957 102.042901,140.113162 117.690891,183.0502 C129.169977,214.548043 156.272371,240.642426 161.213834,277.387777 C166.491883,316.636017 158.505821,332.369637 159.174087,380.234893 C159.282357,387.989841 159.686409,397.786241 160.386242,409.624092 L151.246638,409.624092 Z M166.048325,409.624092 C165.431048,386.422011 166.381938,367.38572 168.900994,352.515221 C175.577975,313.099648 203.133286,270.082848 222.779949,255.5342 C228.49987,251.298512 226.589018,270.760773 219.634161,314.946549 C212.679303,359.132324 180.511075,379.520889 176.161083,399.882145 C175.558166,402.704259 175.064792,405.951574 174.680964,409.624092 L166.048325,409.624092 Z M178.764538,409.624092 C181.39585,404.835055 184.368369,400.082929 187.682094,395.367713 C212.466434,360.101201 259.491881,330.126205 287.097514,319.060973 C297.338769,314.955947 279.532936,336.123409 252.293235,375.806155 C241.397374,391.679224 227.653425,401.763483 214.671685,409.624092 L178.76454,409.624092 Z" id="Combined-Shape-Copy-8" fill="url(#linearGradient-3)" opacity="0.408668155"></path>
                <path d="M1336,241 C1334.89543,241 1334,240.104569 1334,239 C1334,237.895431 1334.89543,237 1336,237 C1337.10457,237 1338,237.895431 1338,239 C1338,240.104569 1337.10457,241 1336,241 Z M1277.5,264 C1276.67157,264 1276,263.328427 1276,262.5 C1276,261.671573 1276.67157,261 1277.5,261 C1278.32843,261 1279,261.671573 1279,262.5 C1279,263.328427 1278.32843,264 1277.5,264 Z M1326.5,221 C1325.67157,221 1325,220.328427 1325,219.5 C1325,218.671573 1325.67157,218 1326.5,218 C1327.32843,218 1328,218.671573 1328,219.5 C1328,220.328427 1327.32843,221 1326.5,221 Z M194.140358,311.491783 C194.226953,312.315672 193.629257,313.053764 192.805368,313.140358 C191.981479,313.226953 191.243387,312.629257 191.156793,311.805368 C191.070198,310.981479 191.667894,310.243387 192.491783,310.156793 C193.315672,310.070198 194.053764,310.667894 194.140358,311.491783 Z M149.140358,267.491783 C149.226953,268.315672 148.629257,269.053764 147.805368,269.140358 C146.981479,269.226953 146.243387,268.629257 146.156793,267.805368 C146.070198,266.981479 146.667894,266.243387 147.491783,266.156793 C148.315672,266.070198 149.053764,266.667894 149.140358,267.491783 Z M1360.5,295 C1359.67157,295 1359,294.328427 1359,293.5 C1359,292.671573 1359.67157,292 1360.5,292 C1361.32843,292 1362,292.671573 1362,293.5 C1362,294.328427 1361.32843,295 1360.5,295 Z" id="Combined-Shape" fill="#FFFFFF"></path>
                <g id="кот" transform="translate(1181.500000, 241.500000) scale(-1, 1) translate(-1181.500000, -241.500000) translate(1077.000000, 104.000000)">
                    <polygon id="Rectangle" fill="#45B8FF" points="72.8666667 200 138.566667 200 141 251 68 251"></polygon>
                    <path d="M78.12346,258.51314 C28.007257,286.49485 11.6678065,246.146682 39.2084302,212.130904 C62.8228604,182.964417 23.2503169,162.437533 10.12346,193.087271" id="Path-2" stroke="#45B8FF" stroke-width="14" stroke-linecap="round" stroke-linejoin="round" transform="translate(44.123460, 222.888652) rotate(-14.000000) translate(-44.123460, -222.888652) "></path>
                    <path d="M154.769025,169.321922 C154.946392,170.789797 155.037343,172.280227 155.037343,173.789244 C155.037343,196.985204 133.547011,215.789244 107.037343,215.789244 C80.527675,215.789244 59.037343,196.985204 59.037343,173.789244 C59.037343,171.871175 59.1842853,169.983136 59.4688572,168.133277 L54.4093662,124.577237 C54.2626195,123.313928 54.6027981,122.042175 55.3606602,121.020837 C57.0061799,118.803243 60.1378528,118.339484 62.3554475,119.985004 L84.7326543,136.589541 C91.3968338,133.52395 98.985567,131.789244 107.037343,131.789244 C115.163963,131.789244 122.818892,133.55635 129.52763,136.675373 L152.020509,119.985004 C154.238103,118.339484 157.369776,118.803243 159.015296,121.020837 C159.773158,122.042175 160.113337,123.313928 159.96659,124.577237 L154.769025,169.321922 Z" id="Combined-Shape" fill="#45B8FF"></path>
                    <g id="FACE" transform="translate(109.000000, 183.500000) scale(-1, 1) translate(-109.000000, -183.500000) translate(76.000000, 173.000000)" fill="#FFFFFF">
                        <path d="M36.8297549,16.1904254 L36.8297549,16.1904254 C37.7997912,17.354469 37.6425173,19.0844825 36.4784737,20.0545187 C35.9854087,20.4654062 35.3638945,20.6904254 34.7220677,20.6904254 L31.4374422,20.6904254 C29.9221971,20.6904254 28.6938483,19.4620766 28.6938483,17.9468315 C28.6938483,17.3050047 28.9188675,16.6834904 29.3297549,16.1904254 L29.3297549,16.1904254 C31.0556448,14.1193576 34.1336871,13.8395356 36.2047549,15.5654254 C36.43156,15.7544297 36.6407507,15.9636203 36.8297549,16.1904254 Z" id="Triangle" transform="translate(33.079755, 16.190425) scale(1, -1) translate(-33.079755, -16.190425) "></path>
                        <path d="M8.72078432,16.5503246 C4.30250632,16.5503246 0.720784319,12.9686026 0.720784319,8.55032464 C0.720784319,4.13204664 4.30250632,0.550324637 8.72078432,0.550324637 C13.1390623,0.550324637 16.7207843,4.13204664 16.7207843,8.55032464 C16.7207843,12.9686026 13.1390623,16.5503246 8.72078432,16.5503246 Z M57.6975285,16.5503246 C53.2792505,16.5503246 49.6975285,12.9686026 49.6975285,8.55032464 C49.6975285,4.13204664 53.2792505,0.550324637 57.6975285,0.550324637 C62.1158065,0.550324637 65.6975285,4.13204664 65.6975285,8.55032464 C65.6975285,12.9686026 62.1158065,16.5503246 57.6975285,16.5503246 Z" id="Combined-Shape"></path>
                    </g>
                </g>
            </g>
        </g>
    </g>
</svg>