<?xml version="1.0" encoding="UTF-8"?>
<svg width="296px" height="296px" viewBox="0 0 296 296" version="1.1" xmlns="http://www.w3.org/2000/svg" xmlns:xlink="http://www.w3.org/1999/xlink">
    <!-- Generator: Sketch 53.2 (72643) - https://sketchapp.com -->
    <title>2</title>
    <desc>Created with Sketch.</desc>
    <g id="blog-illustration" stroke="none" stroke-width="1" fill="none" fill-rule="evenodd">
        <g id="Foreign-languages" transform="translate(-325.000000, -20.000000)">
            <g id="2" transform="translate(325.000000, 20.000000)">
                <circle id="Oval" fill="#6DE4FF" cx="148" cy="148" r="148"></circle>
                <path d="M296,148 C296,110.56552 282.101828,76.3771312 259.183929,50.3132805 C245.333726,34.5618532 175.53949,24.0475351 113,43.1011675 C53.0663595,61.3608872 -3.97903932e-13,108.000496 -3.97903932e-13,148 C-3.97903932e-13,191.869066 19.0866996,231.280194 49.4088055,258.382091 C62.581079,270.155468 129.937881,268.919145 188.647205,248.313769 C246.600587,227.973708 296,188.604251 296,148 Z" id="Oval-Copy-32" fill="#87E9FF" opacity="0.898181734"></path>
                <circle id="Oval-Copy-33" fill="#56D3F0" cx="148.5" cy="149.5" r="89.5"></circle>
                <path d="M125.76617,230.83678 L85.7419661,252.935012 C82.8410448,254.536673 79.1909802,253.483415 77.5893186,250.582494 C76.9108439,249.353644 76.6846967,247.925807 76.950229,246.547441 L85.5987369,201.653432 C88.5888815,186.131728 83.3999804,170.161933 71.857474,159.362174 L38.472648,128.125623 C36.0529433,125.861624 35.9267193,122.064731 38.1907187,119.645027 C39.1497643,118.620023 40.4378348,117.963719 41.8307927,117.790316 L112.403137,109.005122 L142.566408,44.601608 C143.971869,41.6007178 147.543923,40.3073674 150.544813,41.7128289 C151.816011,42.308192 152.838229,43.3304105 153.433592,44.601608 L183.596863,109.005122 L254.169207,117.790316 C257.457535,118.199664 259.79141,121.197221 259.382062,124.485549 C259.20866,125.878507 258.552355,127.166578 257.527352,128.125623 L224.142526,159.362174 C212.60002,170.161933 207.411118,186.131728 210.401263,201.653432 L219.049771,246.547441 C219.676608,249.801322 217.546968,252.947265 214.293087,253.574101 C212.914721,253.839634 211.486884,253.613486 210.258034,252.935012 L170.23383,230.83678 C156.395818,223.196514 139.604182,223.196514 125.76617,230.83678 Z" id="Star" fill="#428BEB" opacity="0.49328032"></path>
                <path d="M142.19987,212.763377 L85.7419661,243.935012 C82.8410448,245.536673 79.1909802,244.483415 77.5893186,241.582494 C76.9108439,240.353644 76.6846967,238.925807 76.950229,237.547441 L89.149763,174.220218 C89.9298007,170.171078 88.5761743,166.005045 85.5650857,163.187716 L38.472648,119.125623 C36.0529433,116.861624 35.9267193,113.064731 38.1907187,110.645027 C39.1497643,109.620023 40.4378348,108.963719 41.8307927,108.790316 L105.828424,100.823575 C109.92043,100.314182 113.464269,97.7394312 115.213231,94.0051133 L142.566408,35.601608 C143.971869,32.6007178 147.543923,31.3073674 150.544813,32.7128289 C151.816011,33.308192 152.838229,34.3304105 153.433592,35.601608 L180.786769,94.0051133 C182.535731,97.7394312 186.07957,100.314182 190.171576,100.823575 L254.169207,108.790316 C257.457535,109.199664 259.79141,112.197221 259.382062,115.485549 C259.20866,116.878507 258.552355,118.166578 257.527352,119.125623 L210.434914,163.187716 C207.423826,166.005045 206.070199,170.171078 206.850237,174.220218 L219.049771,237.547441 C219.676608,240.801322 217.546968,243.947265 214.293087,244.574101 C212.914721,244.839634 211.486884,244.613486 210.258034,243.935012 L153.80013,212.763377 C150.190213,210.770264 145.809787,210.770264 142.19987,212.763377 Z" id="Star-Copy" fill="#FFFFFF"></path>
                <circle id="Oval-Copy-34" fill="#FFF18F" cx="148" cy="149" r="35"></circle>
                <g id="Group-11" transform="translate(148.000000, 55.000000)" stroke="#FF7575" stroke-linecap="round" stroke-linejoin="round">
                    <path d="M1.96792658,94.4688674 L79.3264839,15.0222515" id="Path-12" stroke-width="13" transform="translate(40.647205, 54.745559) scale(-1, 1) rotate(90.766141) translate(-40.647205, -54.745559) "></path>
                    <path d="M75.4411255,3.26598128 C78.730875,6.19351775 81.3538258,7.65728599 83.309978,7.65728599 C85.2661301,7.65728599 87.9765126,6.19351775 91.4411255,3.26598128 C91.4411255,7.38865405 91.4411255,11.292036 91.4411255,14.9761272 C91.4411255,20.5022639 86.2088103,22.3577013 83.309978,22.2625228 C80.4111456,22.1673443 75.4411255,20.5022639 75.4411255,14.9761272 C75.4411255,11.292036 75.4411255,7.38865405 75.4411255,3.26598128 Z" id="Rectangle" stroke-width="16" fill="#FF7575" transform="translate(83.441125, 12.765981) rotate(45.000000) translate(-83.441125, -12.765981) "></path>
                </g>
            </g>
        </g>
    </g>
</svg>