<?xml version="1.0" encoding="utf-8"?>
<!-- Generator: Adobe Illustrator 22.1.0, SVG Export Plug-In . SVG Version: 6.00 Build 0)  -->
<svg version="1.1" id="Слой_1" xmlns="http://www.w3.org/2000/svg" xmlns:xlink="http://www.w3.org/1999/xlink" x="0px" y="0px"
	 viewBox="0 0 945 557" style="enable-background:new 0 0 945 557;" xml:space="preserve">
<style type="text/css">
	.st0{fill:#E6EAFF;}
	.st1{filter:url(#filter-2);}
	.st2{fill:#F6FAFF;}
	.st3{fill:#45B8FF;}
	.st4{fill:none;stroke:#000000;stroke-width:12;}
	.st5{fill:#1A1A1A;}
	.st6{fill:#FFFFFF;}
	.st7{filter:url(#filter-4);}
	.st8{fill:#50525B;}
	.st9{fill:#D3DBE7;}
	.st10{filter:url(#filter-6);}
	.st11{fill:none;stroke:#FFFFFF;stroke-width:2;stroke-linecap:round;stroke-linejoin:round;}
</style>
<filter  filterUnits="objectBoundingBox" height="114.0%" id="filter-6" width="114.0%" x="-7.0%" y="-5.0%">
	<feMorphology  in="SourceAlpha" operator="erode" radius="2.5" result="shadowSpreadOuter1"></feMorphology>
	<feOffset  dx="0" dy="1" in="shadowSpreadOuter1" result="shadowOffsetOuter1"></feOffset>
	<feGaussianBlur  in="shadowOffsetOuter1" result="shadowBlurOuter1" stdDeviation="3.5"></feGaussianBlur>
	
		<feColorMatrix  in="shadowBlurOuter1" type="matrix" values="0 0 0 0 0.360784314   0 0 0 0 0.466666667   0 0 0 0 0.615686275  0 0 0 1 0">
		</feColorMatrix>
</filter>
<filter  filterUnits="objectBoundingBox" height="115.2%" id="filter-4" width="106.4%" x="-3.2%" y="-5.4%">
	<feMorphology  in="SourceAlpha" operator="erode" radius="1.5" result="shadowSpreadOuter1"></feMorphology>
	<feOffset  dx="0" dy="2" in="shadowSpreadOuter1" result="shadowOffsetOuter1"></feOffset>
	<feGaussianBlur  in="shadowOffsetOuter1" result="shadowBlurOuter1" stdDeviation="3.5"></feGaussianBlur>
	
		<feColorMatrix  in="shadowBlurOuter1" type="matrix" values="0 0 0 0 0.666535488   0 0 0 0 0.764391284   0 0 0 0 0.823228034  0 0 0 1 0">
		</feColorMatrix>
</filter>
<filter  filterUnits="objectBoundingBox" height="114.7%" id="filter-2" width="128.8%" x="-14.8%" y="-6.7%">
	<feMorphology  in="SourceAlpha" operator="dilate" radius="3" result="shadowSpreadOuter1"></feMorphology>
	<feOffset  dx="-1" dy="3" in="shadowSpreadOuter1" result="shadowOffsetOuter1"></feOffset>
	<feGaussianBlur  in="shadowOffsetOuter1" result="shadowBlurOuter1" stdDeviation="8.5"></feGaussianBlur>
	
		<feColorMatrix  in="shadowBlurOuter1" type="matrix" values="0 0 0 0 0.368526519   0 0 0 0 0.489322469   0 0 0 0 0.582257699  0 0 0 0.348776224 0">
		</feColorMatrix>
</filter>
<title>5.3</title>
<desc>Created with Sketch.</desc>
<g id="Page-3">
	<g id="_x35_.3" transform="translate(-22.000000, 19.000000)">
		<path id="Combined-Shape-Copy-8" class="st0" d="M179.8,474.1l-4.3,1.3c-2.3-8.2-5.5-15.5-9.6-22c-11.4-18.2-46.1-9.3-77.9-36.4
			s-51.2-40.7-42.3-39.9c23.8,2.2,67.6,15.7,96.3,39.6c13.5,11.2,23.9,24,31.3,38.3c-7.1-22.5-19.5-55.8-45.1-58.9
			C90,391.3,69.8,350,53.5,340.8s-37.7-6.5-29.6-11.8c12.7-8.4,86.4-2.2,113.5,36.5c7.9,11.3,15.5,25.7,22,40.2
			c-2.1-6.2-3.9-11.6-5.6-16.2c-15.7-43.2-28.8-53.2-36.3-91.7c-7.9-40.4,11-26.3,15.8-101.9c0.7-10.8,22.2,14.5,30.3,81.7
			c3.7,30.6-5,73.5,1.7,118.7c2.4,16.5,14.8,44,21.8,76.6c0.2,0.8-1.5,1.3-5.2,1.3c0,1.2-0.3,1.7-0.9,1.4
			C180.6,475.4,180.2,474.9,179.8,474.1z"/>
		<g id="Group-8" transform="translate(176.000000, 0.000000)">
			<g id="Rectangle">
				<g class="st1">
					<path id="path-1_2_" d="M40,13h170c22.1,0,40,17.9,40,40v409c0,22.1-17.9,40-40,40H40c-22.1,0-40-17.9-40-40V53
						C0,30.9,17.9,13,40,13z"/>
				</g>
				<g>
					<path id="path-1_1_" class="st2" d="M40,13h170c22.1,0,40,17.9,40,40v409c0,22.1-17.9,40-40,40H40c-22.1,0-40-17.9-40-40V53
						C0,30.9,17.9,13,40,13z"/>
				</g>
			</g>
			<path id="Rectangle-Copy-3" class="st3" d="M30,13h190c16.6,0,30,13.4,30,30v26H0V43C0,26.4,13.4,13,30,13z"/>
			<path id="Rectangle-Copy" class="st4" d="M34,7h182c22.1,0,40,17.9,40,40v421c0,22.1-17.9,40-40,40H34c-22.1,0-40-17.9-40-40V47
				C-6,24.9,11.9,7,34,7z"/>
			<path id="Rectangle_1_" d="M57,12h136v6c0,5.5-4.5,10-10,10H67c-5.5,0-10-4.5-10-10V12z"/>
			<path id="Combined-Shape" class="st5" d="M106,15h38c1.1,0,2,0.9,2,2s-0.9,2-2,2h-38c-1.1,0-2-0.9-2-2S104.9,15,106,15z M152,15
				c1.1,0,2,0.9,2,2s-0.9,2-2,2s-2-0.9-2-2S150.9,15,152,15z"/>
			<path id="Mylessons" class="st6" d="M66.3,56.2c-0.4,0-0.7-0.1-0.9-0.3c-0.2-0.2-0.3-0.5-0.3-0.9v-9.4c0-1.7,0.5-3,1.4-3.9
				c0.9-0.9,2.2-1.4,3.9-1.4c0.8,0,1.6,0.2,2.4,0.6c0.7,0.4,1.3,1,1.8,1.8c0.5-0.8,1.1-1.4,1.8-1.8s1.5-0.6,2.4-0.6
				c1.7,0,3,0.5,3.9,1.4c0.9,0.9,1.4,2.2,1.4,3.9v9.4c0,0.4-0.1,0.6-0.3,0.8c-0.2,0.2-0.5,0.3-0.9,0.3c-0.4,0-0.7-0.1-0.9-0.3
				c-0.2-0.2-0.3-0.5-0.3-0.9v-9.4c0-1.1-0.2-2-0.7-2.5c-0.4-0.5-1.2-0.8-2.2-0.8c-0.9,0-1.6,0.3-2.1,0.9c-0.5,0.6-0.7,1.4-0.7,2.4
				v9.4c0,0.4-0.1,0.7-0.3,0.9c-0.2,0.2-0.5,0.3-0.9,0.3c-0.4,0-0.7-0.1-0.9-0.3c-0.2-0.2-0.3-0.5-0.3-0.9v-9.4c0-1-0.3-1.8-0.8-2.4
				c-0.5-0.6-1.2-0.9-2.1-0.9c-1,0-1.8,0.3-2.2,0.8c-0.4,0.5-0.7,1.4-0.7,2.5v9.4c0,0.4-0.1,0.6-0.3,0.8
				C67,56.1,66.7,56.2,66.3,56.2z M91.8,61.5c-1.1,0-2-0.2-2.9-0.5c-0.9-0.3-1.5-0.8-2-1.4c-0.2-0.2-0.2-0.5-0.2-0.7
				c0-0.3,0.2-0.6,0.5-0.9c0.2-0.1,0.4-0.2,0.6-0.2c0.4,0,0.7,0.2,1,0.5c0.3,0.4,0.7,0.6,1.3,0.8c0.5,0.2,1.1,0.3,1.7,0.3
				c1.1,0,2-0.3,2.6-0.9s0.9-1.5,0.9-2.7v-1.1c-0.4,0.4-0.9,0.8-1.5,1c-0.6,0.2-1.2,0.4-1.8,0.4c-1.8,0-3.2-0.5-4.3-1.5
				c-1-1-1.5-2.4-1.5-4.1v-4.4c0-0.3,0.1-0.6,0.4-0.8c0.2-0.2,0.5-0.3,0.9-0.3c0.3,0,0.6,0.1,0.9,0.3c0.2,0.2,0.4,0.5,0.4,0.8v4.4
				c0,1.2,0.3,2.1,0.9,2.7c0.6,0.7,1.4,1,2.4,1c1,0,1.8-0.3,2.4-1c0.6-0.6,0.8-1.5,0.8-2.7v-4.3c0-0.4,0.1-0.7,0.3-1
				c0.2-0.2,0.5-0.4,0.9-0.4s0.7,0.1,0.9,0.4c0.2,0.2,0.3,0.6,0.3,1v9.3c0,1.8-0.5,3.3-1.6,4.3C95,61,93.6,61.5,91.8,61.5z
				 M107.4,56.2c-0.4,0-0.7-0.1-0.9-0.3c-0.2-0.2-0.3-0.5-0.3-0.9V40.5c0-0.4,0.1-0.7,0.3-0.9c0.2-0.2,0.5-0.3,0.9-0.3
				s0.7,0.1,0.9,0.3c0.2,0.2,0.3,0.5,0.3,0.9v14.6c0,0.4-0.1,0.6-0.3,0.8C108.1,56.1,107.8,56.2,107.4,56.2z M117.2,56.2
				c-1.3,0-2.4-0.2-3.3-0.7c-0.9-0.4-1.6-1.1-2.1-1.9c-0.5-0.8-0.7-1.8-0.7-3c0-1.8,0.5-3.2,1.6-4.2c1.1-1,2.5-1.5,4.4-1.5
				c1.2,0,2.2,0.2,3.1,0.5c0.9,0.4,1.6,0.9,2.1,1.5c0.5,0.7,0.7,1.4,0.7,2.2c0,0.7-0.2,1.2-0.6,1.6s-1,0.5-1.7,0.5h-7.1
				c0,0.9,0.3,1.6,1,2.1c0.6,0.5,1.6,0.7,2.8,0.7c0.7,0,1.3-0.1,1.8-0.2c0.5-0.1,1-0.4,1.5-0.7c0.4-0.3,0.7-0.4,1-0.4
				c0.2,0,0.4,0.1,0.6,0.3c0.2,0.2,0.4,0.5,0.4,0.7c0,0.3-0.1,0.5-0.4,0.7C120.8,55.7,119.2,56.2,117.2,56.2z M119.8,49.6
				c0.2,0,0.4-0.1,0.6-0.2c0.1-0.1,0.2-0.3,0.2-0.5c0-0.6-0.3-1.1-1-1.5c-0.6-0.4-1.5-0.6-2.6-0.6c-1.1,0-1.9,0.2-2.6,0.7
				s-0.9,1.1-0.9,2H119.8z M130,56.2c-1.2,0-2.2-0.2-3.1-0.6s-1.6-0.9-2.1-1.5c-0.2-0.2-0.3-0.5-0.3-0.7c0-0.4,0.2-0.6,0.5-0.8
				c0.2-0.1,0.4-0.2,0.6-0.2c0.3,0,0.6,0.1,0.8,0.4c0.5,0.5,1,0.9,1.5,1.1c0.5,0.2,1.1,0.3,1.9,0.3c0.7,0,1.2-0.1,1.6-0.3
				c0.4-0.2,0.6-0.4,0.6-0.8c0-0.2-0.1-0.5-0.2-0.6c-0.2-0.2-0.4-0.3-0.8-0.5s-1-0.4-1.8-0.6c-1.6-0.5-2.7-1-3.3-1.5
				c-0.6-0.5-1-1.2-1-2c0-0.9,0.4-1.6,1.2-2.1c0.8-0.5,1.8-0.8,3.2-0.8c1,0,1.9,0.2,2.8,0.5c0.8,0.3,1.5,0.7,1.8,1.3
				c0.2,0.2,0.2,0.4,0.2,0.7c0,0.3-0.2,0.5-0.5,0.7c-0.2,0.1-0.4,0.2-0.7,0.2c-0.3,0-0.7-0.2-1-0.5c-0.7-0.6-1.6-0.9-2.8-0.9
				c-1.2,0-1.8,0.3-1.8,1c0,0.2,0.1,0.5,0.2,0.6s0.4,0.3,0.8,0.5c0.4,0.2,1.1,0.4,2,0.7c1,0.3,1.8,0.6,2.4,0.9s1,0.7,1.2,1.1
				c0.2,0.4,0.4,0.9,0.4,1.5c0,0.9-0.4,1.6-1.2,2.2S131.4,56.2,130,56.2z M141.7,56.2c-1.2,0-2.2-0.2-3.1-0.6s-1.6-0.9-2.1-1.5
				c-0.2-0.2-0.3-0.5-0.3-0.7c0-0.4,0.2-0.6,0.5-0.8c0.2-0.1,0.4-0.2,0.6-0.2c0.3,0,0.6,0.1,0.8,0.4c0.5,0.5,1,0.9,1.5,1.1
				c0.5,0.2,1.1,0.3,1.9,0.3c0.7,0,1.2-0.1,1.6-0.3c0.4-0.2,0.6-0.4,0.6-0.8c0-0.2-0.1-0.5-0.2-0.6c-0.2-0.2-0.4-0.3-0.8-0.5
				s-1-0.4-1.8-0.6c-1.6-0.5-2.7-1-3.3-1.5s-1-1.2-1-2c0-0.9,0.4-1.6,1.2-2.1c0.8-0.5,1.8-0.8,3.2-0.8c1,0,1.9,0.2,2.8,0.5
				c0.8,0.3,1.5,0.7,1.8,1.3c0.2,0.2,0.2,0.4,0.2,0.7c0,0.3-0.2,0.5-0.5,0.7c-0.2,0.1-0.4,0.2-0.7,0.2c-0.3,0-0.7-0.2-1-0.5
				c-0.7-0.6-1.6-0.9-2.8-0.9c-1.2,0-1.8,0.3-1.8,1c0,0.2,0.1,0.5,0.2,0.6s0.4,0.3,0.8,0.5c0.4,0.2,1.1,0.4,2,0.7
				c1,0.3,1.8,0.6,2.4,0.9c0.6,0.3,1,0.7,1.2,1.1c0.2,0.4,0.4,0.9,0.4,1.5c0,0.9-0.4,1.6-1.2,2.2S143.2,56.2,141.7,56.2z
				 M154.4,56.2c-1.3,0-2.4-0.2-3.4-0.7s-1.7-1.1-2.2-2c-0.5-0.9-0.8-1.8-0.8-2.9s0.3-2.1,0.8-2.9c0.5-0.9,1.3-1.5,2.2-2
				s2.1-0.7,3.4-0.7c1.3,0,2.4,0.2,3.4,0.7c1,0.5,1.7,1.1,2.2,2c0.5,0.9,0.8,1.8,0.8,2.9s-0.3,2.1-0.8,2.9c-0.5,0.9-1.3,1.5-2.2,2
				C156.8,56,155.6,56.2,154.4,56.2z M154.4,54.2c1.2,0,2.1-0.3,2.8-1c0.7-0.6,1.1-1.5,1.1-2.7c0-1.1-0.4-2-1.1-2.7
				c-0.7-0.6-1.6-1-2.8-1c-1.2,0-2.2,0.3-2.8,1c-0.7,0.6-1,1.5-1,2.7c0,1.1,0.3,2,1,2.7S153.2,54.2,154.4,54.2z M163.6,56.2
				c-0.4,0-0.7-0.1-0.9-0.3c-0.2-0.2-0.3-0.5-0.3-0.9v-8.9c0-0.4,0.1-0.7,0.3-0.9c0.2-0.2,0.5-0.3,0.9-0.3c0.4,0,0.7,0.1,0.9,0.3
				c0.2,0.2,0.3,0.5,0.3,0.9V47c1.1-1.3,2.5-2,4.4-2c1.4,0,2.5,0.4,3.3,1.3c0.8,0.9,1.2,2,1.2,3.5v5.3c0,0.4-0.1,0.7-0.3,0.9
				c-0.2,0.2-0.5,0.3-0.9,0.3s-0.7-0.1-0.9-0.3c-0.2-0.2-0.3-0.5-0.3-0.9v-5.3c0-0.9-0.2-1.6-0.7-2.1c-0.4-0.5-1.1-0.7-1.9-0.7
				c-1.2,0-2.1,0.3-2.8,1s-1,1.6-1,2.8v4.2c0,0.4-0.1,0.6-0.3,0.8C164.3,56.1,164,56.2,163.6,56.2z M180.9,56.2
				c-1.2,0-2.2-0.2-3.1-0.6c-0.9-0.4-1.6-0.9-2.1-1.5c-0.2-0.2-0.3-0.5-0.3-0.7c0-0.4,0.2-0.6,0.5-0.8c0.2-0.1,0.4-0.2,0.6-0.2
				c0.3,0,0.6,0.1,0.8,0.4c0.5,0.5,1,0.9,1.5,1.1c0.5,0.2,1.1,0.3,1.9,0.3c0.7,0,1.2-0.1,1.7-0.3c0.4-0.2,0.6-0.4,0.6-0.8
				c0-0.2-0.1-0.5-0.2-0.6c-0.2-0.2-0.4-0.3-0.8-0.5c-0.4-0.2-1-0.4-1.8-0.6c-1.6-0.5-2.7-1-3.3-1.5s-1-1.2-1-2
				c0-0.9,0.4-1.6,1.2-2.1c0.8-0.5,1.8-0.8,3.2-0.8c1,0,1.9,0.2,2.8,0.5c0.8,0.3,1.5,0.7,1.8,1.3c0.2,0.2,0.2,0.4,0.2,0.7
				c0,0.3-0.2,0.5-0.5,0.7c-0.2,0.1-0.4,0.2-0.7,0.2c-0.3,0-0.7-0.2-1-0.5c-0.7-0.6-1.6-0.9-2.8-0.9c-1.2,0-1.8,0.3-1.8,1
				c0,0.2,0.1,0.5,0.2,0.6c0.2,0.2,0.4,0.3,0.8,0.5c0.4,0.2,1.1,0.4,2,0.7c1,0.3,1.8,0.6,2.4,0.9c0.6,0.3,1,0.7,1.2,1.1
				s0.4,0.9,0.4,1.5c0,0.9-0.4,1.6-1.2,2.2S182.4,56.2,180.9,56.2z"/>
		</g>
		<g id="уроки" transform="translate(191.000000, 78.000000)">
			<g id="Rectangle-Copy-2">
				<g class="st7">
					<path id="path-3_2_" d="M27,12h166c14.9,0,27,12.1,27,27v38c0,14.9-12.1,27-27,27H27C12.1,104,0,91.9,0,77V39
						C0,24.1,12.1,12,27,12z"/>
				</g>
				<g>
					<path id="path-3_1_" class="st6" d="M27,12h166c14.9,0,27,12.1,27,27v38c0,14.9-12.1,27-27,27H27C12.1,104,0,91.9,0,77V39
						C0,24.1,12.1,12,27,12z"/>
				</g>
			</g>
			<g id="I-say-something_x2C_-it" transform="translate(18.957031, 23.978516)">
				<path id="Isaysomething_x2C_itisreallyinterestingand" class="st8" d="M0,22V12h2v10H0z M7.1,20L9,19.7c0.1,0.4,0.2,0.7,0.5,0.9
					s0.6,0.3,1.1,0.3c0.5,0,0.9-0.1,1.1-0.3c0.2-0.1,0.3-0.3,0.3-0.5c0-0.1,0-0.3-0.1-0.4c-0.1-0.1-0.3-0.2-0.6-0.3
					c-1.5-0.3-2.5-0.7-2.9-0.9c-0.6-0.4-0.9-0.9-0.9-1.6c0-0.6,0.2-1.2,0.7-1.6s1.3-0.6,2.3-0.6c1,0,1.7,0.2,2.2,0.5
					c0.5,0.3,0.8,0.8,1,1.4l-1.8,0.3c-0.1-0.3-0.2-0.5-0.4-0.6c-0.2-0.2-0.5-0.2-0.9-0.2c-0.5,0-0.9,0.1-1.1,0.2
					c-0.1,0.1-0.2,0.2-0.2,0.4c0,0.1,0.1,0.3,0.2,0.3c0.2,0.1,0.8,0.3,1.8,0.5c1,0.2,1.7,0.5,2.1,0.9c0.4,0.3,0.6,0.8,0.6,1.4
					c0,0.7-0.3,1.2-0.8,1.7c-0.6,0.5-1.4,0.7-2.5,0.7c-1,0-1.8-0.2-2.3-0.6C7.6,21.2,7.2,20.6,7.1,20z M16.9,17l-1.7-0.3
					c0.2-0.7,0.5-1.2,1-1.6c0.5-0.3,1.2-0.5,2.1-0.5c0.9,0,1.5,0.1,1.9,0.3c0.4,0.2,0.7,0.5,0.9,0.8c0.2,0.3,0.3,0.9,0.3,1.7l0,2.2
					c0,0.6,0,1.1,0.1,1.4c0.1,0.3,0.2,0.6,0.3,1h-1.9c-0.1-0.1-0.1-0.3-0.2-0.6c0-0.1-0.1-0.2-0.1-0.2c-0.3,0.3-0.7,0.6-1.1,0.7
					c-0.4,0.2-0.8,0.2-1.2,0.2c-0.7,0-1.3-0.2-1.8-0.6C15.2,21.2,15,20.7,15,20c0-0.4,0.1-0.8,0.3-1.1c0.2-0.3,0.5-0.6,0.8-0.7
					c0.4-0.2,0.9-0.3,1.5-0.4c0.9-0.2,1.5-0.3,1.9-0.5v-0.2c0-0.4-0.1-0.6-0.3-0.8c-0.2-0.2-0.5-0.2-1-0.2c-0.3,0-0.6,0.1-0.8,0.2
					C17.2,16.4,17,16.6,16.9,17z M19.5,18.5c-0.2,0.1-0.6,0.2-1.2,0.3c-0.5,0.1-0.9,0.2-1,0.3c-0.3,0.2-0.4,0.4-0.4,0.7
					c0,0.3,0.1,0.5,0.3,0.7c0.2,0.2,0.5,0.3,0.8,0.3c0.3,0,0.7-0.1,1-0.3c0.2-0.2,0.4-0.4,0.5-0.6c0.1-0.2,0.1-0.5,0.1-0.9V18.5z
					 M22.3,14.8h2l1.7,5.2l1.7-5.2h2l-2.6,7L26.7,23c-0.2,0.4-0.3,0.7-0.5,1c-0.2,0.2-0.3,0.4-0.5,0.5c-0.2,0.1-0.4,0.2-0.7,0.3
					c-0.3,0.1-0.6,0.1-1,0.1c-0.4,0-0.7,0-1.1-0.1l-0.2-1.5c0.3,0.1,0.6,0.1,0.8,0.1c0.4,0,0.8-0.1,1-0.4c0.2-0.3,0.4-0.6,0.5-1
					L22.3,14.8z M34.1,20l1.9-0.3c0.1,0.4,0.2,0.7,0.5,0.9s0.6,0.3,1.1,0.3c0.5,0,0.9-0.1,1.1-0.3c0.2-0.1,0.3-0.3,0.3-0.5
					c0-0.1,0-0.3-0.1-0.4c-0.1-0.1-0.3-0.2-0.6-0.3c-1.5-0.3-2.5-0.7-2.9-0.9c-0.6-0.4-0.9-0.9-0.9-1.6c0-0.6,0.2-1.2,0.7-1.6
					c0.5-0.4,1.3-0.6,2.3-0.6c1,0,1.7,0.2,2.2,0.5c0.5,0.3,0.8,0.8,1,1.4l-1.8,0.3c-0.1-0.3-0.2-0.5-0.4-0.6
					c-0.2-0.2-0.5-0.2-0.9-0.2c-0.5,0-0.9,0.1-1.1,0.2c-0.1,0.1-0.2,0.2-0.2,0.4c0,0.1,0.1,0.3,0.2,0.3c0.2,0.1,0.8,0.3,1.8,0.5
					c1,0.2,1.7,0.5,2.1,0.9c0.4,0.3,0.6,0.8,0.6,1.4c0,0.7-0.3,1.2-0.8,1.7c-0.6,0.5-1.4,0.7-2.5,0.7c-1,0-1.8-0.2-2.3-0.6
					C34.7,21.2,34.3,20.6,34.1,20z M42.1,18.3c0-0.6,0.2-1.3,0.5-1.9c0.3-0.6,0.8-1.1,1.3-1.4c0.6-0.3,1.2-0.5,1.9-0.5
					c1.1,0,2,0.4,2.7,1.1c0.7,0.7,1.1,1.6,1.1,2.7c0,1.1-0.4,2-1.1,2.7c-0.7,0.7-1.6,1.1-2.7,1.1c-0.7,0-1.3-0.2-1.9-0.5
					c-0.6-0.3-1.1-0.7-1.4-1.3C42.2,19.8,42.1,19.1,42.1,18.3z M44,18.4c0,0.7,0.2,1.3,0.5,1.7c0.3,0.4,0.8,0.6,1.3,0.6
					s0.9-0.2,1.3-0.6s0.5-0.9,0.5-1.7c0-0.7-0.2-1.3-0.5-1.6s-0.8-0.6-1.3-0.6s-0.9,0.2-1.3,0.6C44.2,17.1,44,17.7,44,18.4z
					 M50.9,14.8h1.8v1c0.6-0.8,1.4-1.2,2.3-1.2c0.5,0,0.9,0.1,1.2,0.3c0.3,0.2,0.6,0.5,0.8,0.9c0.3-0.4,0.7-0.7,1-0.9
					c0.4-0.2,0.8-0.3,1.2-0.3c0.5,0,1,0.1,1.4,0.3c0.4,0.2,0.6,0.5,0.8,1c0.1,0.3,0.2,0.8,0.2,1.5V22h-1.9v-4.1
					c0-0.7-0.1-1.2-0.2-1.4c-0.2-0.3-0.5-0.4-0.8-0.4c-0.3,0-0.5,0.1-0.8,0.2c-0.2,0.2-0.4,0.4-0.5,0.7c-0.1,0.3-0.2,0.8-0.2,1.5V22
					h-1.9v-4c0-0.7,0-1.2-0.1-1.4c-0.1-0.2-0.2-0.4-0.3-0.5c-0.1-0.1-0.3-0.2-0.6-0.2c-0.3,0-0.6,0.1-0.8,0.2S53.1,16.7,53,17
					c-0.1,0.3-0.2,0.8-0.2,1.5V22h-1.9V14.8z M67.6,19.7l1.9,0.3c-0.2,0.7-0.6,1.2-1.2,1.6c-0.5,0.4-1.2,0.6-2,0.6
					c-1.3,0-2.2-0.4-2.8-1.2c-0.5-0.7-0.7-1.5-0.7-2.5c0-1.2,0.3-2.1,0.9-2.8c0.6-0.7,1.4-1,2.4-1c1.1,0,1.9,0.4,2.6,1.1
					c0.6,0.7,0.9,1.8,0.9,3.3h-4.8c0,0.6,0.2,1,0.5,1.3c0.3,0.3,0.7,0.5,1.1,0.5c0.3,0,0.6-0.1,0.8-0.2
					C67.4,20.3,67.5,20.1,67.6,19.7z M67.7,17.8c0-0.6-0.2-1-0.4-1.3c-0.3-0.3-0.6-0.4-1-0.4c-0.4,0-0.8,0.2-1,0.5s-0.4,0.7-0.4,1.2
					H67.7z M74.5,14.8v1.5h-1.3v2.9c0,0.6,0,0.9,0,1c0,0.1,0.1,0.2,0.2,0.2s0.2,0.1,0.3,0.1c0.2,0,0.4-0.1,0.8-0.2l0.2,1.5
					c-0.4,0.2-1,0.3-1.5,0.3c-0.3,0-0.7-0.1-0.9-0.2c-0.3-0.1-0.5-0.3-0.6-0.5c-0.1-0.2-0.2-0.4-0.3-0.7c0-0.2-0.1-0.7-0.1-1.4v-3.2
					h-0.9v-1.5h0.9v-1.4l1.9-1.1v2.6H74.5z M77.7,12v3.7c0.6-0.7,1.4-1.1,2.2-1.1c0.4,0,0.8,0.1,1.2,0.2c0.4,0.2,0.6,0.4,0.8,0.6
					c0.2,0.3,0.3,0.5,0.4,0.8c0.1,0.3,0.1,0.8,0.1,1.4V22h-1.9v-3.8c0-0.8,0-1.2-0.1-1.4c-0.1-0.2-0.2-0.4-0.4-0.5s-0.4-0.2-0.7-0.2
					c-0.3,0-0.6,0.1-0.9,0.2c-0.3,0.2-0.4,0.4-0.6,0.7s-0.2,0.8-0.2,1.4V22h-1.9V12H77.7z M84.3,13.8V12h1.9v1.8H84.3z M84.3,22
					v-7.3h1.9V22H84.3z M94.7,22h-1.9v-3.7c0-0.8,0-1.3-0.1-1.5s-0.2-0.4-0.4-0.5s-0.4-0.2-0.7-0.2c-0.3,0-0.6,0.1-0.9,0.3
					c-0.3,0.2-0.4,0.4-0.5,0.7S90,17.9,90,18.7V22h-1.9v-7.3h1.8v1.1c0.6-0.8,1.4-1.2,2.4-1.2c0.4,0,0.8,0.1,1.2,0.2
					c0.4,0.2,0.6,0.3,0.8,0.6s0.3,0.5,0.4,0.8s0.1,0.7,0.1,1.3V22z M96.4,22.5l2.2,0.3c0,0.3,0.1,0.4,0.3,0.5
					c0.2,0.1,0.5,0.2,0.9,0.2c0.5,0,0.9-0.1,1.1-0.2c0.2-0.1,0.3-0.3,0.4-0.5c0.1-0.2,0.1-0.5,0.1-0.9v-1.1
					c-0.6,0.8-1.3,1.2-2.2,1.2c-1,0-1.7-0.4-2.3-1.2c-0.4-0.7-0.7-1.5-0.7-2.4c0-1.2,0.3-2.1,0.9-2.8c0.6-0.6,1.3-1,2.2-1
					c0.9,0,1.6,0.4,2.2,1.2v-1h1.8v6.5c0,0.9-0.1,1.5-0.2,1.9c-0.1,0.4-0.3,0.8-0.6,1c-0.3,0.2-0.6,0.4-1,0.6
					c-0.4,0.1-1,0.2-1.6,0.2c-1.2,0-2.1-0.2-2.6-0.6c-0.5-0.4-0.8-1-0.8-1.6C96.4,22.7,96.4,22.6,96.4,22.5z M98.2,18.2
					c0,0.8,0.1,1.3,0.4,1.7c0.3,0.4,0.7,0.5,1.1,0.5c0.5,0,0.9-0.2,1.2-0.6s0.5-0.9,0.5-1.6c0-0.8-0.2-1.3-0.5-1.7
					c-0.3-0.4-0.7-0.5-1.2-0.5c-0.5,0-0.8,0.2-1.1,0.5C98.3,17,98.2,17.5,98.2,18.2z M105.1,20.1h1.9v1.4c0,0.6,0,1-0.1,1.3
					s-0.3,0.6-0.5,0.9c-0.3,0.3-0.6,0.5-1,0.6l-0.4-0.8c0.4-0.1,0.7-0.3,0.8-0.5s0.3-0.5,0.3-0.9h-0.9V20.1z M112.8,13.8V12h1.9v1.8
					H112.8z M112.8,22v-7.3h1.9V22H112.8z M120,14.8v1.5h-1.3v2.9c0,0.6,0,0.9,0,1c0,0.1,0.1,0.2,0.2,0.2c0.1,0.1,0.2,0.1,0.3,0.1
					c0.2,0,0.4-0.1,0.8-0.2l0.2,1.5c-0.4,0.2-1,0.3-1.5,0.3c-0.3,0-0.7-0.1-0.9-0.2c-0.3-0.1-0.5-0.3-0.6-0.5
					c-0.1-0.2-0.2-0.4-0.3-0.7c0-0.2-0.1-0.7-0.1-1.4v-3.2h-0.9v-1.5h0.9v-1.4l1.9-1.1v2.6H120z M125.1,13.8V12h1.9v1.8H125.1z
					 M125.1,22v-7.3h1.9V22H125.1z M128.3,20l1.9-0.3c0.1,0.4,0.2,0.7,0.5,0.9c0.3,0.2,0.6,0.3,1.1,0.3c0.5,0,0.9-0.1,1.1-0.3
					c0.2-0.1,0.3-0.3,0.3-0.5c0-0.1,0-0.3-0.1-0.4c-0.1-0.1-0.3-0.2-0.6-0.3c-1.5-0.3-2.5-0.7-2.9-0.9c-0.6-0.4-0.9-0.9-0.9-1.6
					c0-0.6,0.2-1.2,0.7-1.6c0.5-0.4,1.3-0.6,2.3-0.6c1,0,1.7,0.2,2.2,0.5c0.5,0.3,0.8,0.8,1,1.4l-1.8,0.3c-0.1-0.3-0.2-0.5-0.4-0.6
					c-0.2-0.2-0.5-0.2-0.9-0.2c-0.5,0-0.9,0.1-1.1,0.2c-0.1,0.1-0.2,0.2-0.2,0.4c0,0.1,0.1,0.3,0.2,0.3c0.2,0.1,0.8,0.3,1.8,0.5
					c1,0.2,1.7,0.5,2.1,0.9c0.4,0.3,0.6,0.8,0.6,1.4c0,0.7-0.3,1.2-0.8,1.7c-0.6,0.5-1.4,0.7-2.5,0.7c-1,0-1.8-0.2-2.3-0.6
					C128.8,21.2,128.4,20.6,128.3,20z M142.4,22h-1.9v-7.3h1.8v1c0.3-0.5,0.6-0.8,0.8-1c0.2-0.2,0.5-0.2,0.8-0.2
					c0.4,0,0.9,0.1,1.3,0.4l-0.6,1.7c-0.3-0.2-0.6-0.3-0.9-0.3c-0.3,0-0.5,0.1-0.7,0.2s-0.3,0.4-0.4,0.8s-0.2,1.2-0.2,2.4V22z
					 M150.1,19.7L152,20c-0.2,0.7-0.6,1.2-1.2,1.6c-0.5,0.4-1.2,0.6-2,0.6c-1.3,0-2.2-0.4-2.8-1.2c-0.5-0.7-0.7-1.5-0.7-2.5
					c0-1.2,0.3-2.1,0.9-2.8c0.6-0.7,1.4-1,2.4-1c1.1,0,1.9,0.4,2.6,1.1c0.6,0.7,0.9,1.8,0.9,3.3h-4.8c0,0.6,0.2,1,0.5,1.3
					c0.3,0.3,0.7,0.5,1.1,0.5c0.3,0,0.6-0.1,0.8-0.2C149.9,20.3,150,20.1,150.1,19.7z M150.2,17.8c0-0.6-0.2-1-0.4-1.3
					c-0.3-0.3-0.6-0.4-1-0.4c-0.4,0-0.8,0.2-1,0.5s-0.4,0.7-0.4,1.2H150.2z M155.1,17l-1.7-0.3c0.2-0.7,0.5-1.2,1-1.6
					c0.5-0.3,1.2-0.5,2.1-0.5c0.9,0,1.5,0.1,1.9,0.3c0.4,0.2,0.7,0.5,0.9,0.8c0.2,0.3,0.3,0.9,0.3,1.7l0,2.2c0,0.6,0,1.1,0.1,1.4
					c0.1,0.3,0.2,0.6,0.3,1h-1.9c-0.1-0.1-0.1-0.3-0.2-0.6c0-0.1-0.1-0.2-0.1-0.2c-0.3,0.3-0.7,0.6-1.1,0.7
					c-0.4,0.2-0.8,0.2-1.2,0.2c-0.7,0-1.3-0.2-1.8-0.6c-0.4-0.4-0.6-0.9-0.6-1.5c0-0.4,0.1-0.8,0.3-1.1c0.2-0.3,0.5-0.6,0.8-0.7
					c0.4-0.2,0.9-0.3,1.5-0.4c0.9-0.2,1.5-0.3,1.9-0.5v-0.2c0-0.4-0.1-0.6-0.3-0.8c-0.2-0.2-0.5-0.2-1-0.2c-0.3,0-0.6,0.1-0.8,0.2
					S155.2,16.6,155.1,17z M157.7,18.5c-0.2,0.1-0.6,0.2-1.2,0.3c-0.5,0.1-0.9,0.2-1,0.3c-0.3,0.2-0.4,0.4-0.4,0.7
					c0,0.3,0.1,0.5,0.3,0.7c0.2,0.2,0.5,0.3,0.8,0.3c0.3,0,0.7-0.1,1-0.3c0.2-0.2,0.4-0.4,0.5-0.6c0.1-0.2,0.1-0.5,0.1-0.9V18.5z
					 M161.4,22V12h1.9v10H161.4z M165.2,22V12h1.9v10H165.2z M168.2,14.8h2l1.7,5.2l1.7-5.2h2l-2.6,7l-0.5,1.3
					c-0.2,0.4-0.3,0.7-0.5,1c-0.2,0.2-0.3,0.4-0.5,0.5s-0.4,0.2-0.7,0.3c-0.3,0.1-0.6,0.1-1,0.1c-0.4,0-0.7,0-1.1-0.1l-0.2-1.5
					c0.3,0.1,0.6,0.1,0.8,0.1c0.4,0,0.8-0.1,1-0.4c0.2-0.3,0.4-0.6,0.5-1L168.2,14.8z M0,29.8V28H2v1.8H0z M0,38v-7.3H2V38H0z
					 M10.5,38H8.6v-3.7c0-0.8,0-1.3-0.1-1.5c-0.1-0.2-0.2-0.4-0.4-0.5c-0.2-0.1-0.4-0.2-0.7-0.2c-0.3,0-0.6,0.1-0.9,0.3
					c-0.3,0.2-0.4,0.4-0.5,0.7c-0.1,0.3-0.1,0.9-0.1,1.7V38H3.9v-7.3h1.8v1.1c0.6-0.8,1.4-1.2,2.4-1.2c0.4,0,0.8,0.1,1.2,0.2
					s0.6,0.3,0.8,0.6c0.2,0.2,0.3,0.5,0.4,0.8c0.1,0.3,0.1,0.7,0.1,1.3V38z M15.7,30.8v1.5h-1.3v2.9c0,0.6,0,0.9,0,1
					c0,0.1,0.1,0.2,0.2,0.2c0.1,0.1,0.2,0.1,0.3,0.1c0.2,0,0.4-0.1,0.8-0.2l0.2,1.5c-0.4,0.2-1,0.3-1.5,0.3c-0.3,0-0.7-0.1-0.9-0.2
					c-0.3-0.1-0.5-0.3-0.6-0.5c-0.1-0.2-0.2-0.4-0.3-0.7c0-0.2-0.1-0.7-0.1-1.4v-3.2h-0.9v-1.5h0.9v-1.4l1.9-1.1v2.6H15.7z
					 M21.2,35.7l1.9,0.3c-0.2,0.7-0.6,1.2-1.2,1.6c-0.5,0.4-1.2,0.6-2,0.6c-1.3,0-2.2-0.4-2.8-1.2c-0.5-0.7-0.7-1.5-0.7-2.5
					c0-1.2,0.3-2.1,0.9-2.8c0.6-0.7,1.4-1,2.4-1c1.1,0,1.9,0.4,2.6,1.1c0.6,0.7,0.9,1.8,0.9,3.3h-4.8c0,0.6,0.2,1,0.5,1.3
					c0.3,0.3,0.7,0.5,1.1,0.5c0.3,0,0.6-0.1,0.8-0.2C20.9,36.3,21.1,36.1,21.2,35.7z M21.3,33.8c0-0.6-0.2-1-0.4-1.3
					c-0.3-0.3-0.6-0.4-1-0.4c-0.4,0-0.8,0.2-1,0.5c-0.3,0.3-0.4,0.7-0.4,1.2H21.3z M26.6,38h-1.9v-7.3h1.8v1c0.3-0.5,0.6-0.8,0.8-1
					s0.5-0.2,0.8-0.2c0.4,0,0.9,0.1,1.3,0.4l-0.6,1.7c-0.3-0.2-0.6-0.3-0.9-0.3c-0.3,0-0.5,0.1-0.7,0.2c-0.2,0.1-0.3,0.4-0.4,0.8
					c-0.1,0.4-0.2,1.2-0.2,2.4V38z M34.3,35.7l1.9,0.3c-0.2,0.7-0.6,1.2-1.2,1.6c-0.5,0.4-1.2,0.6-2,0.6c-1.3,0-2.2-0.4-2.8-1.2
					c-0.5-0.7-0.7-1.5-0.7-2.5c0-1.2,0.3-2.1,0.9-2.8c0.6-0.7,1.4-1,2.4-1c1.1,0,1.9,0.4,2.6,1.1c0.6,0.7,0.9,1.8,0.9,3.3h-4.8
					c0,0.6,0.2,1,0.5,1.3c0.3,0.3,0.7,0.5,1.1,0.5c0.3,0,0.6-0.1,0.8-0.2C34.1,36.3,34.2,36.1,34.3,35.7z M34.5,33.8
					c0-0.6-0.2-1-0.4-1.3c-0.3-0.3-0.6-0.4-1-0.4c-0.4,0-0.8,0.2-1,0.5c-0.3,0.3-0.4,0.7-0.4,1.2H34.5z M37.2,36l1.9-0.3
					c0.1,0.4,0.2,0.7,0.5,0.9c0.3,0.2,0.6,0.3,1.1,0.3c0.5,0,0.9-0.1,1.1-0.3c0.2-0.1,0.3-0.3,0.3-0.5c0-0.1,0-0.3-0.1-0.4
					c-0.1-0.1-0.3-0.2-0.6-0.3c-1.5-0.3-2.5-0.7-2.9-0.9c-0.6-0.4-0.9-0.9-0.9-1.6c0-0.6,0.2-1.2,0.7-1.6c0.5-0.4,1.3-0.6,2.3-0.6
					c1,0,1.7,0.2,2.2,0.5c0.5,0.3,0.8,0.8,1,1.4l-1.8,0.3c-0.1-0.3-0.2-0.5-0.4-0.6S41,32,40.6,32c-0.5,0-0.9,0.1-1.1,0.2
					c-0.1,0.1-0.2,0.2-0.2,0.4c0,0.1,0.1,0.3,0.2,0.3c0.2,0.1,0.8,0.3,1.8,0.5c1,0.2,1.7,0.5,2.1,0.9c0.4,0.3,0.6,0.8,0.6,1.4
					c0,0.7-0.3,1.2-0.8,1.7c-0.6,0.5-1.4,0.7-2.5,0.7c-1,0-1.8-0.2-2.3-0.6S37.4,36.6,37.2,36z M48.9,30.8v1.5h-1.3v2.9
					c0,0.6,0,0.9,0,1c0,0.1,0.1,0.2,0.2,0.2c0.1,0.1,0.2,0.1,0.3,0.1c0.2,0,0.4-0.1,0.8-0.2l0.2,1.5c-0.4,0.2-1,0.3-1.5,0.3
					c-0.3,0-0.7-0.1-0.9-0.2s-0.5-0.3-0.6-0.5c-0.1-0.2-0.2-0.4-0.3-0.7c0-0.2-0.1-0.7-0.1-1.4v-3.2h-0.9v-1.5h0.9v-1.4l1.9-1.1v2.6
					H48.9z M50.2,29.8V28h1.9v1.8H50.2z M50.2,38v-7.3h1.9V38H50.2z M60.7,38h-1.9v-3.7c0-0.8,0-1.3-0.1-1.5
					c-0.1-0.2-0.2-0.4-0.4-0.5c-0.2-0.1-0.4-0.2-0.7-0.2c-0.3,0-0.6,0.1-0.9,0.3c-0.3,0.2-0.4,0.4-0.5,0.7C56,33.4,56,33.9,56,34.7
					V38h-1.9v-7.3h1.8v1.1c0.6-0.8,1.4-1.2,2.4-1.2c0.4,0,0.8,0.1,1.2,0.2c0.4,0.2,0.6,0.3,0.8,0.6c0.2,0.2,0.3,0.5,0.4,0.8
					c0.1,0.3,0.1,0.7,0.1,1.3V38z M62.4,38.5l2.2,0.3c0,0.3,0.1,0.4,0.3,0.5c0.2,0.1,0.5,0.2,0.9,0.2c0.5,0,0.9-0.1,1.1-0.2
					c0.2-0.1,0.3-0.3,0.4-0.5c0.1-0.2,0.1-0.5,0.1-0.9v-1.1C66.7,37.6,66,38,65.1,38c-1,0-1.7-0.4-2.3-1.2c-0.4-0.7-0.7-1.5-0.7-2.4
					c0-1.2,0.3-2.1,0.9-2.8c0.6-0.6,1.3-1,2.2-1c0.9,0,1.6,0.4,2.2,1.2v-1h1.8v6.5c0,0.9-0.1,1.5-0.2,1.9c-0.1,0.4-0.3,0.8-0.6,1
					c-0.3,0.2-0.6,0.4-1,0.6s-1,0.2-1.6,0.2c-1.2,0-2.1-0.2-2.6-0.6s-0.8-1-0.8-1.6C62.4,38.7,62.4,38.6,62.4,38.5z M64.1,34.2
					c0,0.8,0.1,1.3,0.4,1.7c0.3,0.4,0.7,0.5,1.1,0.5c0.5,0,0.9-0.2,1.2-0.6s0.5-0.9,0.5-1.6c0-0.8-0.2-1.3-0.5-1.7s-0.7-0.5-1.2-0.5
					c-0.5,0-0.8,0.2-1.1,0.5C64.3,33,64.1,33.5,64.1,34.2z M76.4,33l-1.7-0.3c0.2-0.7,0.5-1.2,1-1.6c0.5-0.3,1.2-0.5,2.1-0.5
					c0.9,0,1.5,0.1,1.9,0.3s0.7,0.5,0.9,0.8s0.3,0.9,0.3,1.7l0,2.2c0,0.6,0,1.1,0.1,1.4c0.1,0.3,0.2,0.6,0.3,1h-1.9
					c-0.1-0.1-0.1-0.3-0.2-0.6c0-0.1-0.1-0.2-0.1-0.2c-0.3,0.3-0.7,0.6-1.1,0.7c-0.4,0.2-0.8,0.2-1.2,0.2c-0.7,0-1.3-0.2-1.8-0.6
					c-0.4-0.4-0.6-0.9-0.6-1.5c0-0.4,0.1-0.8,0.3-1.1c0.2-0.3,0.5-0.6,0.8-0.7c0.4-0.2,0.9-0.3,1.5-0.4c0.9-0.2,1.5-0.3,1.9-0.5
					v-0.2c0-0.4-0.1-0.6-0.3-0.8c-0.2-0.2-0.5-0.2-1-0.2c-0.3,0-0.6,0.1-0.8,0.2S76.5,32.6,76.4,33z M78.9,34.5
					c-0.2,0.1-0.6,0.2-1.2,0.3c-0.5,0.1-0.9,0.2-1,0.3c-0.3,0.2-0.4,0.4-0.4,0.7c0,0.3,0.1,0.5,0.3,0.7c0.2,0.2,0.5,0.3,0.8,0.3
					c0.3,0,0.7-0.1,1-0.3c0.2-0.2,0.4-0.4,0.5-0.6c0.1-0.2,0.1-0.5,0.1-0.9V34.5z M89.3,38h-1.9v-3.7c0-0.8,0-1.3-0.1-1.5
					s-0.2-0.4-0.4-0.5s-0.4-0.2-0.7-0.2c-0.3,0-0.6,0.1-0.9,0.3c-0.3,0.2-0.4,0.4-0.5,0.7c-0.1,0.3-0.1,0.9-0.1,1.7V38h-1.9v-7.3
					h1.8v1.1c0.6-0.8,1.4-1.2,2.4-1.2c0.4,0,0.8,0.1,1.2,0.2s0.6,0.3,0.8,0.6s0.3,0.5,0.4,0.8c0.1,0.3,0.1,0.7,0.1,1.3V38z M97.8,38
					H96V37c-0.3,0.4-0.6,0.7-1,0.9c-0.4,0.2-0.8,0.3-1.2,0.3c-0.8,0-1.5-0.3-2.1-1c-0.6-0.7-0.9-1.6-0.9-2.8c0-1.2,0.3-2.2,0.9-2.8
					c0.6-0.6,1.3-1,2.2-1c0.8,0,1.5,0.3,2.1,1V28h1.9V38z M92.7,34.2c0,0.8,0.1,1.3,0.3,1.7c0.3,0.5,0.7,0.8,1.3,0.8
					c0.4,0,0.8-0.2,1.1-0.6c0.3-0.4,0.5-0.9,0.5-1.7c0-0.8-0.2-1.4-0.5-1.8c-0.3-0.4-0.7-0.6-1.2-0.6c-0.5,0-0.8,0.2-1.1,0.5
					C92.8,33,92.7,33.5,92.7,34.2z"/>
				<path id="_x25CF__x25CF__x25CF__x25CF__x25CF__x25CF__x25CF__x25CF__x25CF_" class="st3" d="M106.7,31.1c0.5,0,1,0.1,1.5,0.4
					c0.5,0.3,0.9,0.6,1.1,1.1c0.3,0.5,0.4,1,0.4,1.5c0,0.8-0.3,1.5-0.9,2.1c-0.6,0.6-1.3,0.9-2.1,0.9c-0.8,0-1.5-0.3-2.1-0.9
					c-0.6-0.6-0.9-1.3-0.9-2.1c0-0.5,0.1-1,0.4-1.5c0.3-0.5,0.6-0.9,1.1-1.1C105.7,31.2,106.2,31.1,106.7,31.1z M115.1,31.1
					c0.5,0,1,0.1,1.5,0.4c0.5,0.3,0.9,0.6,1.1,1.1c0.3,0.5,0.4,1,0.4,1.5c0,0.8-0.3,1.5-0.9,2.1c-0.6,0.6-1.3,0.9-2.1,0.9
					c-0.8,0-1.5-0.3-2.1-0.9c-0.6-0.6-0.9-1.3-0.9-2.1c0-0.5,0.1-1,0.4-1.5s0.6-0.9,1.1-1.1C114.1,31.2,114.6,31.1,115.1,31.1z
					 M123.5,31.1c0.5,0,1,0.1,1.5,0.4s0.9,0.6,1.1,1.1c0.3,0.5,0.4,1,0.4,1.5c0,0.8-0.3,1.5-0.9,2.1c-0.6,0.6-1.3,0.9-2.1,0.9
					c-0.8,0-1.5-0.3-2.1-0.9c-0.6-0.6-0.9-1.3-0.9-2.1c0-0.5,0.1-1,0.4-1.5s0.6-0.9,1.1-1.1S123,31.1,123.5,31.1z M132,31.1
					c0.5,0,1,0.1,1.5,0.4s0.9,0.6,1.1,1.1c0.3,0.5,0.4,1,0.4,1.5c0,0.8-0.3,1.5-0.9,2.1s-1.3,0.9-2.1,0.9c-0.8,0-1.5-0.3-2.1-0.9
					s-0.9-1.3-0.9-2.1c0-0.5,0.1-1,0.4-1.5c0.3-0.5,0.6-0.9,1.1-1.1S131.4,31.1,132,31.1z M140.4,31.1c0.5,0,1,0.1,1.5,0.4
					s0.9,0.6,1.1,1.1c0.3,0.5,0.4,1,0.4,1.5c0,0.8-0.3,1.5-0.9,2.1s-1.3,0.9-2.1,0.9c-0.8,0-1.5-0.3-2.1-0.9s-0.9-1.3-0.9-2.1
					c0-0.5,0.1-1,0.4-1.5s0.6-0.9,1.1-1.1S139.9,31.1,140.4,31.1z M148.8,31.1c0.5,0,1,0.1,1.5,0.4s0.9,0.6,1.1,1.1
					c0.3,0.5,0.4,1,0.4,1.5c0,0.8-0.3,1.5-0.9,2.1s-1.3,0.9-2.1,0.9c-0.8,0-1.5-0.3-2.1-0.9s-0.9-1.3-0.9-2.1c0-0.5,0.1-1,0.4-1.5
					c0.3-0.5,0.6-0.9,1.1-1.1S148.3,31.1,148.8,31.1z M157.2,31.1c0.5,0,1,0.1,1.5,0.4s0.9,0.6,1.1,1.1c0.3,0.5,0.4,1,0.4,1.5
					c0,0.8-0.3,1.5-0.9,2.1c-0.6,0.6-1.3,0.9-2.1,0.9c-0.8,0-1.5-0.3-2.1-0.9c-0.6-0.6-0.9-1.3-0.9-2.1c0-0.5,0.1-1,0.4-1.5
					c0.3-0.5,0.6-0.9,1.1-1.1S156.7,31.1,157.2,31.1z M165.6,31.1c0.5,0,1,0.1,1.5,0.4c0.5,0.3,0.9,0.6,1.1,1.1
					c0.3,0.5,0.4,1,0.4,1.5c0,0.8-0.3,1.5-0.9,2.1c-0.6,0.6-1.3,0.9-2.1,0.9c-0.8,0-1.5-0.3-2.1-0.9c-0.6-0.6-0.9-1.3-0.9-2.1
					c0-0.5,0.1-1,0.4-1.5c0.3-0.5,0.6-0.9,1.1-1.1C164.6,31.2,165.1,31.1,165.6,31.1z M174,31.1c0.5,0,1,0.1,1.5,0.4
					c0.5,0.3,0.9,0.6,1.1,1.1c0.3,0.5,0.4,1,0.4,1.5c0,0.8-0.3,1.5-0.9,2.1c-0.6,0.6-1.3,0.9-2.1,0.9c-0.8,0-1.5-0.3-2.1-0.9
					c-0.6-0.6-0.9-1.3-0.9-2.1c0-0.5,0.1-1,0.4-1.5c0.3-0.5,0.6-0.9,1.1-1.1C173,31.2,173.5,31.1,174,31.1z"/>
				<polygon id="_x2E_" class="st8" points="179.2,38 179.2,36.1 181.1,36.1 181.1,38 				"/>
			</g>
			<path id="_x35_daysago" class="st9" d="M18.5,77.8l1.6-0.2c0,0.4,0.2,0.7,0.4,0.9s0.5,0.3,0.8,0.3c0.3,0,0.6-0.1,0.9-0.4
				s0.4-0.7,0.4-1.3c0-0.5-0.1-0.9-0.4-1.2s-0.5-0.4-0.9-0.4c-0.5,0-0.9,0.2-1.3,0.6L18.7,76l0.8-4.5h4.4v1.5h-3.1l-0.3,1.5
				c0.4-0.2,0.7-0.3,1.1-0.3c0.7,0,1.3,0.3,1.9,0.8s0.8,1.2,0.8,2.1c0,0.7-0.2,1.3-0.6,1.9c-0.6,0.8-1.3,1.1-2.3,1.1
				c-0.8,0-1.4-0.2-1.9-0.6S18.6,78.5,18.5,77.8z M34.5,80H33v-0.9c-0.3,0.4-0.6,0.6-0.9,0.8c-0.3,0.2-0.7,0.3-1,0.3
				c-0.7,0-1.3-0.3-1.8-0.9c-0.5-0.6-0.8-1.4-0.8-2.4c0-1.1,0.2-1.9,0.7-2.4s1.1-0.8,1.9-0.8c0.7,0,1.3,0.3,1.8,0.9v-3.1h1.6V80z
				 M30.1,76.8c0,0.7,0.1,1.1,0.3,1.4c0.3,0.4,0.6,0.6,1.1,0.6c0.4,0,0.7-0.2,1-0.5s0.4-0.8,0.4-1.4c0-0.7-0.1-1.2-0.4-1.5
				s-0.6-0.5-1-0.5c-0.4,0-0.7,0.2-1,0.5C30.2,75.7,30.1,76.1,30.1,76.8z M37.3,75.7l-1.5-0.3c0.2-0.6,0.5-1,0.9-1.3
				c0.4-0.3,1-0.4,1.8-0.4c0.7,0,1.3,0.1,1.6,0.3c0.4,0.2,0.6,0.4,0.8,0.7s0.2,0.8,0.2,1.5l0,1.9c0,0.5,0,1,0.1,1.2s0.2,0.5,0.3,0.8
				h-1.6c0-0.1-0.1-0.3-0.2-0.5c0-0.1,0-0.2-0.1-0.2c-0.3,0.3-0.6,0.5-0.9,0.6c-0.3,0.1-0.7,0.2-1,0.2c-0.6,0-1.1-0.2-1.5-0.5
				c-0.4-0.3-0.6-0.8-0.6-1.3c0-0.4,0.1-0.7,0.3-0.9s0.4-0.5,0.7-0.6c0.3-0.1,0.7-0.3,1.3-0.4c0.8-0.1,1.3-0.3,1.6-0.4v-0.2
				c0-0.3-0.1-0.5-0.2-0.7s-0.5-0.2-0.9-0.2c-0.3,0-0.5,0.1-0.7,0.2S37.4,75.4,37.3,75.7z M39.5,77c-0.2,0.1-0.5,0.2-1,0.3
				c-0.5,0.1-0.8,0.2-0.9,0.3c-0.2,0.2-0.3,0.3-0.3,0.6c0,0.2,0.1,0.4,0.3,0.6s0.4,0.3,0.7,0.3c0.3,0,0.6-0.1,0.8-0.3
				c0.2-0.1,0.3-0.3,0.4-0.5c0-0.1,0.1-0.4,0.1-0.8V77z M41.9,73.8h1.8l1.5,4.4l1.5-4.4h1.7l-2.2,6l-0.4,1.1
				c-0.1,0.4-0.3,0.6-0.4,0.8S45,82,44.9,82.1s-0.4,0.2-0.6,0.3c-0.2,0.1-0.5,0.1-0.8,0.1c-0.3,0-0.6,0-0.9-0.1l-0.1-1.3
				c0.3,0.1,0.5,0.1,0.7,0.1c0.4,0,0.7-0.1,0.8-0.3s0.3-0.5,0.4-0.9L41.9,73.8z M48.8,78.2l1.7-0.3c0.1,0.3,0.2,0.6,0.4,0.7
				c0.2,0.2,0.5,0.2,0.9,0.2c0.4,0,0.7-0.1,1-0.2c0.1-0.1,0.2-0.3,0.2-0.4c0-0.1,0-0.2-0.1-0.3c-0.1-0.1-0.3-0.2-0.6-0.2
				c-1.3-0.3-2.2-0.6-2.5-0.8c-0.5-0.3-0.7-0.8-0.7-1.4c0-0.5,0.2-1,0.6-1.4c0.4-0.4,1.1-0.6,2-0.6c0.9,0,1.5,0.1,1.9,0.4
				c0.4,0.3,0.7,0.7,0.9,1.2l-1.6,0.3c-0.1-0.2-0.2-0.4-0.4-0.6s-0.5-0.2-0.8-0.2c-0.4,0-0.7,0.1-0.9,0.2c-0.1,0.1-0.2,0.2-0.2,0.3
				c0,0.1,0.1,0.2,0.2,0.3c0.1,0.1,0.7,0.3,1.5,0.5s1.5,0.4,1.8,0.7c0.3,0.3,0.5,0.7,0.5,1.2c0,0.6-0.2,1.1-0.7,1.5
				c-0.5,0.4-1.2,0.6-2.1,0.6c-0.8,0-1.5-0.2-2-0.5C49.2,79.3,48.9,78.8,48.8,78.2z M60.5,75.7L59,75.4c0.2-0.6,0.5-1,0.9-1.3
				c0.4-0.3,1-0.4,1.8-0.4c0.7,0,1.3,0.1,1.6,0.3c0.4,0.2,0.6,0.4,0.8,0.7c0.1,0.3,0.2,0.8,0.2,1.5l0,1.9c0,0.5,0,1,0.1,1.2
				s0.2,0.5,0.3,0.8H63c0-0.1-0.1-0.3-0.2-0.5c0-0.1,0-0.2-0.1-0.2c-0.3,0.3-0.6,0.5-0.9,0.6c-0.3,0.1-0.7,0.2-1,0.2
				c-0.6,0-1.1-0.2-1.5-0.5c-0.4-0.3-0.6-0.8-0.6-1.3c0-0.4,0.1-0.7,0.3-0.9c0.2-0.3,0.4-0.5,0.7-0.6c0.3-0.1,0.7-0.3,1.3-0.4
				c0.8-0.1,1.3-0.3,1.6-0.4v-0.2c0-0.3-0.1-0.5-0.2-0.7c-0.2-0.1-0.5-0.2-0.9-0.2c-0.3,0-0.5,0.1-0.7,0.2
				C60.7,75.2,60.6,75.4,60.5,75.7z M62.7,77c-0.2,0.1-0.5,0.2-1,0.3c-0.5,0.1-0.8,0.2-0.9,0.3c-0.2,0.2-0.3,0.3-0.3,0.6
				c0,0.2,0.1,0.4,0.3,0.6c0.2,0.2,0.4,0.3,0.7,0.3c0.3,0,0.6-0.1,0.8-0.3c0.2-0.1,0.3-0.3,0.4-0.5c0-0.1,0.1-0.4,0.1-0.8V77z
				 M65.7,80.4l1.9,0.2c0,0.2,0.1,0.4,0.2,0.5c0.2,0.1,0.4,0.2,0.7,0.2c0.4,0,0.8-0.1,1-0.2c0.1-0.1,0.3-0.2,0.3-0.4
				c0.1-0.1,0.1-0.4,0.1-0.8V79c-0.5,0.7-1.1,1-1.9,1c-0.8,0-1.5-0.4-2-1.1c-0.4-0.6-0.6-1.3-0.6-2.1c0-1,0.3-1.8,0.8-2.4
				c0.5-0.6,1.1-0.8,1.9-0.8c0.8,0,1.4,0.3,1.9,1v-0.9h1.5v5.6c0,0.7-0.1,1.3-0.2,1.6s-0.3,0.6-0.5,0.9s-0.5,0.4-0.9,0.5
				s-0.8,0.2-1.4,0.2c-1.1,0-1.8-0.2-2.2-0.5s-0.7-0.8-0.7-1.4C65.7,80.6,65.7,80.5,65.7,80.4z M67.2,76.8c0,0.7,0.1,1.1,0.4,1.5
				s0.6,0.5,0.9,0.5c0.4,0,0.7-0.2,1-0.5s0.4-0.8,0.4-1.4c0-0.6-0.1-1.1-0.4-1.4s-0.6-0.5-1-0.5c-0.4,0-0.7,0.2-1,0.5
				S67.2,76.1,67.2,76.8z M72.8,76.8c0-0.5,0.1-1.1,0.4-1.6s0.7-0.9,1.1-1.2c0.5-0.3,1-0.4,1.7-0.4c0.9,0,1.7,0.3,2.3,0.9
				c0.6,0.6,0.9,1.4,0.9,2.3c0,0.9-0.3,1.7-0.9,2.3c-0.6,0.6-1.4,0.9-2.3,0.9c-0.6,0-1.1-0.1-1.6-0.4c-0.5-0.3-0.9-0.6-1.2-1.1
				S72.8,77.5,72.8,76.8z M74.5,76.9c0,0.6,0.1,1.1,0.4,1.4s0.7,0.5,1.1,0.5c0.4,0,0.8-0.2,1.1-0.5s0.4-0.8,0.4-1.4
				c0-0.6-0.1-1.1-0.4-1.4S76.4,75,76,75c-0.4,0-0.8,0.2-1.1,0.5S74.5,76.3,74.5,76.9z"/>
		</g>
		<g id="добавить-copy" transform="translate(348.773936, 417.000000)">
			<circle id="Oval-Copy-2" class="st3" cx="25.5" cy="37.5" r="22.6"/>
			<g id="_x2B_" transform="translate(0.773936, -0.000000)">
				<g id="Oval-Copy-2_1_">
					<g class="st10">
						<circle id="path-5_2_" cx="25" cy="37" r="25"/>
					</g>
					<g>
						<circle id="path-5_1_" class="st3" cx="25" cy="37" r="25"/>
					</g>
				</g>
				<path id="Combined-Shape_1_" class="st11" d="M25,37h-8H25v-8V37z M25,37h8H25v8V37z"/>
			</g>
		</g>
	</g>
</g>
<g>
	<g>
		<path d="M500.4,278.8c-1.7,0-3.3-0.3-4.8-1s-2.8-1.6-4-2.8c-1.1-1.2-2-2.5-2.7-4.1c-0.6-1.5-1-3.2-1-5c0-1.7,0.3-3.4,0.9-4.9
			c0.6-1.5,1.5-2.9,2.7-4.1c1.1-1.2,2.5-2.1,4-2.8c1.5-0.7,3.1-1,4.9-1c1.5,0,2.9,0.2,4.2,0.7c1.3,0.4,2.5,1.2,3.6,2.1
			c0.2,0.1,0.3,0.3,0.3,0.5c0,0.2,0,0.4-0.1,0.6c-0.1,0.2-0.2,0.3-0.4,0.4c0,0.2-0.1,0.3-0.3,0.4c-0.2,0.1-0.4,0.1-0.6,0.1
			c-0.2,0-0.4-0.1-0.7-0.3c-0.8-0.7-1.7-1.3-2.7-1.6c-1-0.4-2.1-0.5-3.4-0.5c-1.4,0-2.7,0.3-3.9,0.8s-2.3,1.3-3.2,2.3
			c-0.9,1-1.6,2.1-2.2,3.3c-0.5,1.3-0.8,2.6-0.8,4c0,1.5,0.3,2.8,0.8,4.1c0.5,1.3,1.2,2.4,2.2,3.3c0.9,1,2,1.7,3.2,2.3
			c1.2,0.5,2.5,0.8,3.9,0.8c1.2,0,2.3-0.2,3.3-0.6s2-0.9,3-1.7c0.3-0.2,0.5-0.3,0.8-0.3c0.3,0,0.5,0.2,0.8,0.4
			c0.2,0.2,0.3,0.5,0.3,0.8c0,0.2,0,0.3-0.1,0.5s-0.1,0.3-0.3,0.4c-1.1,1-2.3,1.7-3.6,2.1S501.9,278.8,500.4,278.8z M508.6,275.2
			l-2.4-0.5v-6.4h-5c-0.4,0-0.7-0.1-0.9-0.3s-0.4-0.5-0.4-0.8c0-0.3,0.1-0.6,0.4-0.8s0.5-0.3,0.9-0.3h6.2c0.4,0,0.7,0.1,0.9,0.3
			c0.2,0.2,0.4,0.5,0.4,0.9V275.2z"/>
		<path d="M514.8,278.5c-0.4,0-0.7-0.1-0.9-0.3c-0.2-0.2-0.3-0.5-0.3-0.9v-15.1c0-0.4,0.1-0.7,0.3-0.9c0.2-0.2,0.5-0.3,0.9-0.3
			c0.4,0,0.7,0.1,0.9,0.3c0.2,0.2,0.3,0.5,0.3,0.9v15.1c0,0.4-0.1,0.7-0.3,0.9C515.5,278.4,515.2,278.5,514.8,278.5z M514.6,267.7
			c0.1-1.3,0.4-2.5,1-3.6c0.6-1,1.5-1.9,2.5-2.5c1-0.6,2.1-0.9,3.4-0.9c1,0,1.7,0.1,2.3,0.4s0.7,0.7,0.6,1.2
			c-0.1,0.3-0.2,0.5-0.4,0.6c-0.2,0.1-0.4,0.1-0.7,0.1c-0.3,0-0.6,0-1-0.1c-1.2-0.1-2.3,0-3.2,0.4s-1.7,0.9-2.2,1.6
			c-0.5,0.7-0.8,1.6-0.8,2.6H514.6z"/>
		<path d="M536.1,278.7c-1.7,0-3.3-0.4-4.6-1.1c-1.3-0.8-2.4-1.8-3.1-3.2c-0.8-1.3-1.1-2.9-1.1-4.6c0-1.7,0.4-3.3,1.1-4.6
			c0.7-1.3,1.7-2.4,3-3.2c1.3-0.8,2.7-1.2,4.4-1.2c1.6,0,3,0.4,4.2,1.1c1.2,0.7,2.1,1.8,2.8,3.1s1,2.8,1,4.4c0,0.3-0.1,0.6-0.3,0.8
			c-0.2,0.2-0.5,0.3-0.8,0.3h-13.6v-2h13.9l-1.4,1c0-1.2-0.2-2.3-0.7-3.3c-0.5-1-1.1-1.7-2-2.3c-0.9-0.6-1.9-0.8-3.1-0.8
			c-1.2,0-2.3,0.3-3.2,0.9c-0.9,0.6-1.6,1.4-2.1,2.4c-0.5,1-0.8,2.2-0.8,3.5s0.3,2.5,0.8,3.5s1.3,1.8,2.3,2.4c1,0.6,2.1,0.9,3.4,0.9
			c0.8,0,1.5-0.1,2.3-0.4c0.8-0.3,1.4-0.6,1.9-1c0.2-0.2,0.5-0.3,0.8-0.3s0.6,0.1,0.8,0.2c0.3,0.3,0.4,0.5,0.4,0.8
			c0,0.3-0.1,0.6-0.4,0.8c-0.7,0.6-1.6,1.1-2.7,1.5C538.2,278.5,537.1,278.7,536.1,278.7z"/>
		<path d="M555.6,278.7c-1.6,0-3.1-0.4-4.4-1.2c-1.3-0.8-2.3-1.8-3.1-3.2c-0.8-1.3-1.1-2.9-1.1-4.5c0-1.7,0.4-3.2,1.2-4.6
			c0.8-1.3,1.8-2.4,3.2-3.2c1.3-0.8,2.9-1.2,4.5-1.2s3.2,0.4,4.5,1.2c1.3,0.8,2.4,1.8,3.2,3.2c0.8,1.3,1.2,2.9,1.2,4.6l-1,0.8
			c0,1.5-0.4,2.9-1.1,4.1c-0.7,1.2-1.7,2.2-2.9,2.9C558.5,278.3,557.1,278.7,555.6,278.7z M555.8,276.4c1.2,0,2.3-0.3,3.3-0.9
			c1-0.6,1.7-1.4,2.3-2.4c0.6-1,0.8-2.1,0.8-3.4c0-1.3-0.3-2.4-0.8-3.4c-0.6-1-1.3-1.8-2.3-2.4c-1-0.6-2.1-0.9-3.3-0.9
			c-1.2,0-2.3,0.3-3.3,0.9c-1,0.6-1.8,1.4-2.3,2.4c-0.6,1-0.9,2.1-0.9,3.4c0,1.3,0.3,2.4,0.9,3.4c0.6,1,1.4,1.8,2.3,2.4
			C553.5,276.1,554.6,276.4,555.8,276.4z M563.5,278.5c-0.4,0-0.7-0.1-0.9-0.3c-0.2-0.2-0.4-0.5-0.4-0.9v-5.5l0.6-2.5l1.9,0.5v7.5
			c0,0.4-0.1,0.7-0.4,0.9C564.1,278.4,563.8,278.5,563.5,278.5z"/>
		<path d="M568.4,263.8c-0.3,0-0.6-0.1-0.8-0.3c-0.2-0.2-0.3-0.5-0.3-0.8c0-0.3,0.1-0.6,0.3-0.8c0.2-0.2,0.5-0.3,0.8-0.3h8.2
			c0.3,0,0.6,0.1,0.8,0.3c0.2,0.2,0.3,0.5,0.3,0.8c0,0.3-0.1,0.5-0.3,0.8c-0.2,0.2-0.5,0.3-0.8,0.3H568.4z M576.4,278.5
			c-1.1,0-2.1-0.3-3-0.8c-0.9-0.5-1.6-1.3-2.1-2.2c-0.5-0.9-0.8-2-0.8-3.2v-15.6c0-0.4,0.1-0.7,0.3-0.9c0.2-0.2,0.5-0.4,0.9-0.4
			c0.4,0,0.7,0.1,0.9,0.4c0.2,0.2,0.4,0.5,0.4,0.9v15.6c0,1.1,0.3,2,1,2.7c0.6,0.7,1.5,1,2.5,1h0.9c0.3,0,0.6,0.1,0.8,0.4
			s0.3,0.5,0.3,0.9s-0.1,0.7-0.4,0.9c-0.3,0.2-0.6,0.3-1,0.3H576.4z"/>
		<path d="M583,278.5c-0.5,0-0.9-0.2-1.3-0.5c-0.4-0.4-0.5-0.8-0.5-1.3c0-0.5,0.2-1,0.5-1.3c0.4-0.4,0.8-0.5,1.3-0.5
			s0.9,0.2,1.3,0.6c0.4,0.4,0.5,0.8,0.5,1.3c0,0.5-0.2,0.9-0.5,1.3C583.9,278.3,583.5,278.5,583,278.5z M583,272.8
			c-0.3,0-0.6-0.1-0.9-0.4c-0.2-0.2-0.4-0.5-0.4-0.9v-16.8c0-0.4,0.1-0.7,0.4-0.9c0.2-0.2,0.5-0.4,0.9-0.4c0.4,0,0.7,0.1,0.9,0.4
			c0.2,0.2,0.4,0.5,0.4,0.9v16.8c0,0.3-0.1,0.6-0.4,0.9C583.6,272.7,583.3,272.8,583,272.8z"/>
		<path d="M496.4,316.9c-0.3,0-0.6-0.1-0.9-0.4c-0.2-0.2-0.4-0.5-0.4-0.9v-8l-8.7-13.8c-0.2-0.3-0.3-0.6-0.2-0.9
			c0.1-0.3,0.2-0.5,0.4-0.7c0.2-0.2,0.5-0.3,0.8-0.3c0.3,0,0.5,0.1,0.6,0.2c0.2,0.1,0.3,0.3,0.4,0.4l8.6,13.9h-1.3l8.6-13.9
			c0.1-0.2,0.3-0.4,0.5-0.5c0.2-0.1,0.4-0.2,0.7-0.2c0.3,0,0.5,0.1,0.8,0.3c0.2,0.2,0.3,0.5,0.4,0.8s0,0.6-0.2,0.9l-8.7,13.8v8
			c0,0.3-0.1,0.6-0.4,0.9C497,316.8,496.7,316.9,496.4,316.9z"/>
		<path d="M517.6,317.1c-1.7,0-3.2-0.4-4.6-1.2c-1.3-0.8-2.4-1.8-3.2-3.2c-0.8-1.3-1.2-2.9-1.2-4.6c0-1.7,0.4-3.3,1.2-4.6
			c0.8-1.3,1.8-2.4,3.2-3.2c1.3-0.8,2.9-1.2,4.6-1.2s3.2,0.4,4.6,1.2c1.3,0.8,2.4,1.8,3.2,3.2c0.8,1.3,1.2,2.9,1.2,4.6
			c0,1.7-0.4,3.2-1.2,4.6c-0.8,1.3-1.8,2.4-3.2,3.2C520.8,316.7,519.3,317.1,517.6,317.1z M517.6,314.8c1.2,0,2.3-0.3,3.3-0.9
			c1-0.6,1.7-1.4,2.3-2.4c0.6-1,0.8-2.1,0.8-3.4s-0.3-2.4-0.8-3.4c-0.6-1-1.3-1.8-2.3-2.4s-2.1-0.9-3.3-0.9s-2.3,0.3-3.3,0.9
			s-1.8,1.4-2.3,2.4c-0.6,1-0.8,2.2-0.8,3.4s0.3,2.4,0.8,3.4c0.6,1,1.3,1.8,2.3,2.4C515.2,314.5,516.3,314.8,517.6,314.8z"/>
		<path d="M538.9,317.1c-1.5,0-2.9-0.3-4.1-0.9c-1.2-0.6-2.1-1.6-2.8-2.8c-0.7-1.2-1-2.7-1-4.4v-8.3c0-0.3,0.1-0.6,0.4-0.9
			c0.2-0.2,0.5-0.4,0.9-0.4c0.4,0,0.7,0.1,0.9,0.4c0.2,0.2,0.4,0.5,0.4,0.9v8.3c0,1.3,0.3,2.4,0.8,3.3c0.5,0.9,1.2,1.5,2,1.9
			s1.8,0.6,2.9,0.6c1,0,2-0.2,2.8-0.6s1.5-1,2-1.7c0.5-0.7,0.7-1.5,0.7-2.4h1.8c-0.1,1.3-0.4,2.5-1.1,3.6c-0.7,1.1-1.6,1.9-2.7,2.5
			C541.5,316.8,540.3,317.1,538.9,317.1z M545.9,316.9c-0.4,0-0.7-0.1-0.9-0.3c-0.2-0.2-0.3-0.5-0.3-0.9v-15c0-0.4,0.1-0.7,0.3-0.9
			c0.2-0.2,0.5-0.3,0.9-0.3c0.4,0,0.7,0.1,0.9,0.3c0.2,0.2,0.4,0.5,0.4,0.9v15c0,0.4-0.1,0.7-0.4,0.9S546.3,316.9,545.9,316.9z"/>
		<path d="M554.2,316.9c-0.4,0-0.7-0.1-0.9-0.3c-0.2-0.2-0.3-0.5-0.3-0.9v-15.1c0-0.4,0.1-0.7,0.3-0.9c0.2-0.2,0.5-0.3,0.9-0.3
			c0.4,0,0.7,0.1,0.9,0.3c0.2,0.2,0.3,0.5,0.3,0.9v15.1c0,0.4-0.1,0.7-0.3,0.9C554.8,316.8,554.5,316.9,554.2,316.9z M554,306.1
			c0.1-1.3,0.4-2.5,1-3.6c0.6-1,1.5-1.9,2.5-2.5c1-0.6,2.1-0.9,3.4-0.9c1,0,1.7,0.1,2.3,0.4s0.7,0.7,0.6,1.2
			c-0.1,0.3-0.2,0.5-0.4,0.6c-0.2,0.1-0.4,0.1-0.7,0.1s-0.6,0-1-0.1c-1.2-0.1-2.3,0-3.2,0.4c-0.9,0.4-1.7,0.9-2.2,1.6
			s-0.8,1.6-0.8,2.6H554z"/>
		<path d="M580.9,316.9c-0.3,0-0.5-0.1-0.7-0.2c-0.2-0.1-0.4-0.3-0.4-0.6l-5-15c-0.1-0.5-0.1-1,0-1.3c0.1-0.3,0.4-0.5,0.9-0.5
			c0.3,0,0.5,0.1,0.7,0.2c0.2,0.1,0.4,0.4,0.5,0.7l4.4,13.6h-0.7l4.1-13.6c0.1-0.3,0.2-0.5,0.4-0.7c0.2-0.2,0.5-0.3,0.8-0.3
			c0.3,0,0.6,0.1,0.8,0.3c0.2,0.2,0.3,0.4,0.4,0.7l3.9,13.2h-0.5l4.4-13.3c0.2-0.6,0.6-0.9,1.2-0.9c0.5,0,0.8,0.2,1,0.5
			c0.2,0.4,0.2,0.8,0,1.2l-5,15c-0.1,0.2-0.2,0.4-0.4,0.6c-0.2,0.1-0.4,0.2-0.7,0.2c-0.3,0-0.5-0.1-0.8-0.2
			c-0.2-0.1-0.4-0.3-0.4-0.6l-4-13.4h0.4l-4,13.4c-0.1,0.3-0.2,0.5-0.4,0.6S581.2,316.9,580.9,316.9z"/>
		<path d="M608.6,317.1c-1.7,0-3.2-0.4-4.6-1.2c-1.3-0.8-2.4-1.8-3.2-3.2c-0.8-1.3-1.2-2.9-1.2-4.6c0-1.7,0.4-3.3,1.2-4.6
			c0.8-1.3,1.8-2.4,3.2-3.2c1.3-0.8,2.9-1.2,4.6-1.2s3.2,0.4,4.6,1.2c1.3,0.8,2.4,1.8,3.2,3.2c0.8,1.3,1.2,2.9,1.2,4.6
			c0,1.7-0.4,3.2-1.2,4.6c-0.8,1.3-1.8,2.4-3.2,3.2C611.8,316.7,610.3,317.1,608.6,317.1z M608.6,314.8c1.2,0,2.3-0.3,3.3-0.9
			c1-0.6,1.7-1.4,2.3-2.4c0.6-1,0.8-2.1,0.8-3.4s-0.3-2.4-0.8-3.4c-0.6-1-1.3-1.8-2.3-2.4s-2.1-0.9-3.3-0.9s-2.3,0.3-3.3,0.9
			s-1.8,1.4-2.3,2.4c-0.6,1-0.8,2.2-0.8,3.4s0.3,2.4,0.8,3.4c0.6,1,1.3,1.8,2.3,2.4C606.3,314.5,607.4,314.8,608.6,314.8z"/>
		<path d="M623.5,316.9c-0.4,0-0.7-0.1-0.9-0.3c-0.2-0.2-0.3-0.5-0.3-0.9v-15.1c0-0.4,0.1-0.7,0.3-0.9c0.2-0.2,0.5-0.3,0.9-0.3
			c0.4,0,0.7,0.1,0.9,0.3c0.2,0.2,0.3,0.5,0.3,0.9v15.1c0,0.4-0.1,0.7-0.3,0.9C624.2,316.8,623.9,316.9,623.5,316.9z M623.3,306.1
			c0.1-1.3,0.4-2.5,1-3.6c0.6-1,1.5-1.9,2.5-2.5c1-0.6,2.1-0.9,3.4-0.9c1,0,1.7,0.1,2.3,0.4s0.7,0.7,0.6,1.2
			c-0.1,0.3-0.2,0.5-0.4,0.6c-0.2,0.1-0.4,0.1-0.7,0.1s-0.6,0-1-0.1c-1.2-0.1-2.3,0-3.2,0.4c-0.9,0.4-1.7,0.9-2.2,1.6
			s-0.8,1.6-0.8,2.6H623.3z"/>
		<path d="M644.9,317.1c-1.7,0-3.2-0.4-4.5-1.2c-1.3-0.8-2.4-1.8-3.2-3.2c-0.8-1.3-1.2-2.9-1.2-4.6c0-1.7,0.4-3.2,1.1-4.5
			c0.8-1.3,1.8-2.4,3.1-3.2c1.3-0.8,2.8-1.2,4.4-1.2c1.4,0,2.7,0.3,3.9,0.9c1.2,0.6,2.1,1.4,2.8,2.4v-9.4c0-0.4,0.1-0.7,0.4-0.9
			c0.2-0.2,0.5-0.3,0.9-0.3c0.4,0,0.7,0.1,0.9,0.3c0.2,0.2,0.4,0.5,0.4,0.9v15.1c0,1.7-0.5,3.2-1.2,4.5s-1.8,2.4-3.2,3.2
			C648.1,316.7,646.6,317.1,644.9,317.1z M644.9,314.8c1.2,0,2.3-0.3,3.3-0.9s1.7-1.4,2.3-2.4s0.8-2.1,0.8-3.4
			c0-1.3-0.3-2.4-0.8-3.4c-0.6-1-1.3-1.8-2.3-2.4s-2.1-0.9-3.3-0.9c-1.2,0-2.3,0.3-3.3,0.9s-1.8,1.4-2.3,2.4c-0.6,1-0.9,2.1-0.9,3.4
			c0,1.3,0.3,2.4,0.9,3.4s1.4,1.8,2.3,2.4S643.7,314.8,644.9,314.8z"/>
		<path d="M670.7,296.1c-0.5,0-0.9-0.2-1.2-0.5c-0.3-0.3-0.5-0.8-0.5-1.2c0-0.5,0.2-1,0.5-1.3c0.4-0.3,0.8-0.5,1.2-0.5
			c0.4,0,0.8,0.2,1.2,0.5c0.4,0.3,0.5,0.7,0.5,1.3c0,0.5-0.2,0.9-0.5,1.2C671.6,295.9,671.2,296.1,670.7,296.1z M670.7,316.9
			c-0.4,0-0.7-0.1-0.9-0.3c-0.2-0.2-0.3-0.5-0.3-0.9v-15c0-0.4,0.1-0.7,0.3-0.9c0.2-0.2,0.5-0.3,0.9-0.3c0.4,0,0.7,0.1,0.9,0.3
			c0.2,0.2,0.3,0.5,0.3,0.9v15c0,0.4-0.1,0.7-0.3,0.9C671.4,316.8,671.1,316.9,670.7,316.9z"/>
		<path d="M684.3,317.1c-1.3,0-2.5-0.2-3.7-0.6c-1.2-0.4-2.2-1.1-3-1.9c-0.2-0.3-0.3-0.5-0.3-0.9c0-0.3,0.2-0.6,0.5-0.8
			c0.3-0.2,0.6-0.3,0.9-0.3c0.3,0,0.6,0.2,0.8,0.4c0.5,0.6,1.2,1.1,2,1.4c0.8,0.3,1.8,0.5,2.8,0.5c1.6,0,2.7-0.3,3.4-0.8
			c0.7-0.5,1.1-1.2,1.1-2c0-0.8-0.4-1.4-1.1-1.9c-0.7-0.5-1.9-0.9-3.6-1.2c-2.2-0.3-3.7-0.9-4.7-1.8c-1-0.9-1.5-1.9-1.5-3
			c0-1.1,0.3-2,0.9-2.7c0.6-0.7,1.3-1.3,2.3-1.6c1-0.4,2-0.5,3.2-0.5c1.4,0,2.7,0.2,3.7,0.7c1,0.5,1.9,1.2,2.5,2
			c0.2,0.3,0.3,0.6,0.3,0.9s-0.2,0.5-0.5,0.7c-0.3,0.2-0.5,0.2-0.9,0.1c-0.3-0.1-0.6-0.2-0.8-0.5c-0.5-0.6-1.2-1.1-1.9-1.4
			s-1.5-0.4-2.4-0.4c-1.2,0-2.1,0.2-2.8,0.7c-0.7,0.5-1.1,1.1-1.1,1.8c0,0.5,0.1,0.9,0.4,1.3c0.3,0.4,0.7,0.7,1.4,1
			c0.7,0.3,1.6,0.5,2.7,0.7c1.6,0.3,2.9,0.6,3.8,1.1c0.9,0.5,1.6,1.1,2,1.8c0.4,0.7,0.6,1.4,0.6,2.2c0,1-0.3,1.9-0.9,2.6
			c-0.6,0.8-1.4,1.3-2.4,1.8C686.9,316.8,685.7,317.1,684.3,317.1z"/>
		<path d="M706.6,296.1c-0.5,0-0.9-0.2-1.2-0.5c-0.3-0.3-0.5-0.8-0.5-1.2c0-0.5,0.2-1,0.5-1.3c0.4-0.3,0.8-0.5,1.2-0.5
			c0.4,0,0.8,0.2,1.2,0.5c0.4,0.3,0.5,0.7,0.5,1.3c0,0.5-0.2,0.9-0.5,1.2C707.5,295.9,707.1,296.1,706.6,296.1z M706.6,316.9
			c-0.4,0-0.7-0.1-0.9-0.3c-0.2-0.2-0.3-0.5-0.3-0.9v-15c0-0.4,0.1-0.7,0.3-0.9c0.2-0.2,0.5-0.3,0.9-0.3c0.4,0,0.7,0.1,0.9,0.3
			c0.2,0.2,0.3,0.5,0.3,0.9v15c0,0.4-0.1,0.7-0.3,0.9C707.3,316.8,707,316.9,706.6,316.9z"/>
		<path d="M715.3,316.9c-0.4,0-0.7-0.1-0.9-0.3c-0.2-0.2-0.3-0.5-0.3-0.9v-15c0-0.4,0.1-0.7,0.3-0.9c0.2-0.2,0.5-0.3,0.9-0.3
			c0.4,0,0.7,0.1,0.9,0.3c0.2,0.2,0.3,0.5,0.3,0.9v15c0,0.4-0.1,0.7-0.3,0.9C716,316.8,715.7,316.9,715.3,316.9z M729.1,316.9
			c-0.4,0-0.7-0.1-0.9-0.4c-0.2-0.2-0.4-0.5-0.4-0.9v-8.3c0-1.3-0.3-2.4-0.8-3.3s-1.2-1.5-2-1.9c-0.9-0.4-1.8-0.6-2.9-0.6
			c-1,0-2,0.2-2.8,0.6s-1.5,1-2,1.7c-0.5,0.7-0.7,1.5-0.7,2.4h-1.8c0-1.3,0.4-2.5,1.1-3.6c0.7-1.1,1.6-1.9,2.7-2.5s2.4-0.9,3.8-0.9
			c1.5,0,2.9,0.3,4.1,0.9c1.2,0.6,2.1,1.6,2.8,2.8c0.7,1.2,1,2.7,1,4.4v8.3c0,0.3-0.1,0.6-0.4,0.9
			C729.7,316.8,729.4,316.9,729.1,316.9z"/>
		<path d="M744,302.2c-0.3,0-0.6-0.1-0.8-0.3c-0.2-0.2-0.3-0.5-0.3-0.8c0-0.3,0.1-0.6,0.3-0.8c0.2-0.2,0.5-0.3,0.8-0.3h8.2
			c0.3,0,0.6,0.1,0.8,0.3c0.2,0.2,0.3,0.5,0.3,0.8c0,0.3-0.1,0.5-0.3,0.8c-0.2,0.2-0.5,0.3-0.8,0.3H744z M752,316.9
			c-1.1,0-2.1-0.3-3-0.8c-0.9-0.5-1.6-1.3-2.1-2.2c-0.5-0.9-0.8-2-0.8-3.2v-15.6c0-0.4,0.1-0.7,0.3-0.9c0.2-0.2,0.5-0.4,0.9-0.4
			c0.4,0,0.7,0.1,0.9,0.4c0.2,0.2,0.4,0.5,0.4,0.9v15.6c0,1.1,0.3,2,1,2.7c0.6,0.7,1.5,1,2.5,1h0.9c0.3,0,0.6,0.1,0.8,0.4
			c0.2,0.2,0.3,0.5,0.3,0.9c0,0.4-0.1,0.7-0.4,0.9c-0.3,0.2-0.6,0.3-1,0.3H752z"/>
		<path d="M759.2,309.8c-0.4,0-0.7-0.1-0.9-0.4c-0.2-0.2-0.3-0.5-0.3-0.9v-15.4c0-0.4,0.1-0.7,0.3-0.9c0.2-0.2,0.5-0.3,0.9-0.3
			c0.4,0,0.7,0.1,0.9,0.3c0.2,0.2,0.3,0.5,0.3,0.9v15.4c0,0.4-0.1,0.7-0.3,0.9C759.9,309.6,759.6,309.8,759.2,309.8z M759.2,316.9
			c-0.4,0-0.7-0.1-0.9-0.3c-0.2-0.2-0.3-0.5-0.3-0.9v-15c0-0.4,0.1-0.7,0.3-0.9c0.2-0.2,0.5-0.3,0.9-0.3c0.4,0,0.7,0.1,0.9,0.3
			c0.2,0.2,0.3,0.5,0.3,0.9v15c0,0.4-0.1,0.7-0.3,0.9C759.9,316.8,759.6,316.9,759.2,316.9z M773,316.9c-0.4,0-0.7-0.1-0.9-0.4
			c-0.2-0.2-0.4-0.5-0.4-0.9v-8.3c0-1.3-0.3-2.4-0.8-3.3s-1.2-1.5-2-1.9c-0.9-0.4-1.8-0.6-2.9-0.6c-1,0-2,0.2-2.8,0.6s-1.5,1-2,1.7
			c-0.5,0.7-0.7,1.5-0.7,2.4h-1.8c0-1.3,0.4-2.5,1.1-3.6c0.7-1.1,1.6-1.9,2.7-2.5s2.4-0.9,3.8-0.9c1.5,0,2.9,0.3,4.1,0.9
			c1.2,0.6,2.1,1.6,2.8,2.8c0.7,1.2,1,2.7,1,4.4v8.3c0,0.3-0.1,0.6-0.4,0.9C773.6,316.8,773.3,316.9,773,316.9z"/>
		<path d="M787.6,317.1c-1.7,0-3.3-0.4-4.6-1.1c-1.3-0.8-2.4-1.8-3.1-3.2c-0.8-1.3-1.1-2.9-1.1-4.6c0-1.7,0.4-3.3,1.1-4.6
			c0.7-1.3,1.7-2.4,3-3.2c1.3-0.8,2.7-1.2,4.4-1.2c1.6,0,3,0.4,4.2,1.1c1.2,0.7,2.1,1.8,2.8,3.1c0.7,1.3,1,2.8,1,4.4
			c0,0.3-0.1,0.6-0.3,0.8c-0.2,0.2-0.5,0.3-0.8,0.3h-13.6v-2h13.9l-1.4,1c0-1.2-0.2-2.3-0.7-3.3c-0.5-1-1.1-1.7-2-2.3
			s-1.9-0.8-3.1-0.8c-1.2,0-2.3,0.3-3.2,0.9c-0.9,0.6-1.6,1.4-2.1,2.4s-0.8,2.2-0.8,3.5c0,1.3,0.3,2.5,0.8,3.5
			c0.6,1,1.3,1.8,2.3,2.4s2.1,0.9,3.4,0.9c0.8,0,1.5-0.1,2.3-0.4c0.8-0.3,1.4-0.6,1.9-1c0.2-0.2,0.5-0.3,0.8-0.3s0.6,0.1,0.8,0.2
			c0.3,0.3,0.4,0.5,0.4,0.8c0,0.3-0.1,0.6-0.4,0.8c-0.7,0.6-1.6,1.1-2.7,1.5S788.6,317.1,787.6,317.1z"/>
		<path d="M816.4,317.1c-1.6,0-3.1-0.4-4.4-1.2c-1.3-0.8-2.3-1.8-3.1-3.2c-0.8-1.3-1.1-2.9-1.1-4.5c0-1.7,0.4-3.2,1.2-4.6
			c0.8-1.3,1.8-2.4,3.2-3.2c1.3-0.8,2.9-1.2,4.5-1.2s3.2,0.4,4.5,1.2c1.3,0.8,2.4,1.8,3.2,3.2c0.8,1.3,1.2,2.9,1.2,4.6l-1,0.8
			c0,1.5-0.4,2.9-1.1,4.1c-0.7,1.2-1.7,2.2-2.9,2.9S818,317.1,816.4,317.1z M816.7,314.8c1.2,0,2.3-0.3,3.3-0.9
			c1-0.6,1.7-1.4,2.3-2.4c0.6-1,0.8-2.1,0.8-3.4c0-1.3-0.3-2.4-0.8-3.4s-1.3-1.8-2.3-2.4s-2.1-0.9-3.3-0.9c-1.2,0-2.3,0.3-3.3,0.9
			s-1.8,1.4-2.3,2.4s-0.9,2.1-0.9,3.4c0,1.3,0.3,2.4,0.9,3.4c0.6,1,1.4,1.8,2.3,2.4C814.3,314.5,815.4,314.8,816.7,314.8z
			 M824.3,316.9c-0.4,0-0.7-0.1-0.9-0.3c-0.2-0.2-0.4-0.5-0.4-0.9v-5.5l0.6-2.5l1.9,0.5v7.5c0,0.4-0.1,0.7-0.4,0.9
			C825,316.8,824.7,316.9,824.3,316.9z"/>
		<path d="M831.6,324.4c-0.4,0-0.7-0.1-0.9-0.3c-0.2-0.2-0.3-0.5-0.3-0.9V308c0-1.7,0.4-3.2,1.2-4.5c0.8-1.3,1.8-2.4,3.2-3.2
			c1.3-0.8,2.8-1.2,4.5-1.2c1.7,0,3.2,0.4,4.6,1.2c1.3,0.8,2.4,1.8,3.2,3.2c0.8,1.3,1.2,2.9,1.2,4.6c0,1.7-0.4,3.2-1.1,4.5
			c-0.8,1.3-1.8,2.4-3.1,3.2c-1.3,0.8-2.8,1.2-4.4,1.2c-1.4,0-2.7-0.3-3.9-0.9c-1.2-0.6-2.1-1.4-2.8-2.4v9.4c0,0.4-0.1,0.7-0.3,0.9
			C832.3,324.3,832,324.4,831.6,324.4z M839.2,314.8c1.2,0,2.3-0.3,3.3-0.9c1-0.6,1.8-1.4,2.3-2.4c0.6-1,0.8-2.1,0.8-3.4
			c0-1.3-0.3-2.4-0.8-3.4s-1.3-1.8-2.3-2.4c-1-0.6-2.1-0.9-3.3-0.9c-1.2,0-2.3,0.3-3.3,0.9c-1,0.6-1.8,1.4-2.3,2.4s-0.8,2.1-0.8,3.4
			c0,1.3,0.3,2.4,0.8,3.4c0.6,1,1.3,1.8,2.3,2.4C836.9,314.5,838,314.8,839.2,314.8z"/>
		<path d="M854.2,324.4c-0.4,0-0.7-0.1-0.9-0.3c-0.2-0.2-0.3-0.5-0.3-0.9V308c0-1.7,0.4-3.2,1.2-4.5c0.8-1.3,1.8-2.4,3.2-3.2
			c1.3-0.8,2.8-1.2,4.5-1.2c1.7,0,3.2,0.4,4.6,1.2c1.3,0.8,2.4,1.8,3.2,3.2c0.8,1.3,1.2,2.9,1.2,4.6c0,1.7-0.4,3.2-1.1,4.5
			c-0.8,1.3-1.8,2.4-3.1,3.2c-1.3,0.8-2.8,1.2-4.4,1.2c-1.4,0-2.7-0.3-3.9-0.9c-1.2-0.6-2.1-1.4-2.8-2.4v9.4c0,0.4-0.1,0.7-0.3,0.9
			C854.9,324.3,854.6,324.4,854.2,324.4z M861.8,314.8c1.2,0,2.3-0.3,3.3-0.9c1-0.6,1.8-1.4,2.3-2.4c0.6-1,0.8-2.1,0.8-3.4
			c0-1.3-0.3-2.4-0.8-3.4s-1.3-1.8-2.3-2.4c-1-0.6-2.1-0.9-3.3-0.9c-1.2,0-2.3,0.3-3.3,0.9c-1,0.6-1.8,1.4-2.3,2.4s-0.8,2.1-0.8,3.4
			c0,1.3,0.3,2.4,0.8,3.4c0.6,1,1.3,1.8,2.3,2.4C859.5,314.5,860.6,314.8,861.8,314.8z"/>
	</g>
</g>
</svg>
