<?xml version="1.0" encoding="UTF-8"?>
<svg width="426px" height="535px" viewBox="0 0 426 535" version="1.1" xmlns="http://www.w3.org/2000/svg" xmlns:xlink="http://www.w3.org/1999/xlink">
    <!-- Generator: Sketch 53.2 (72643) - https://sketchapp.com -->
    <title>5.3</title>
    <desc>Created with Sketch.</desc>
    <defs>
        <rect id="path-1" x="0" y="0.99796334" width="250" height="489.002037" rx="40"></rect>
        <filter x="-14.8%" y="-6.7%" width="128.8%" height="114.7%" filterUnits="objectBoundingBox" id="filter-2">
            <feMorphology radius="3" operator="dilate" in="SourceAlpha" result="shadowSpreadOuter1"></feMorphology>
            <feOffset dx="-1" dy="3" in="shadowSpreadOuter1" result="shadowOffsetOuter1"></feOffset>
            <feGaussianBlur stdDeviation="8.5" in="shadowOffsetOuter1" result="shadowBlurOuter1"></feGaussianBlur>
            <feColorMatrix values="0 0 0 0 0.368526519   0 0 0 0 0.489322469   0 0 0 0 0.582257699  0 0 0 0.348776224 0" type="matrix" in="shadowBlurOuter1"></feColorMatrix>
        </filter>
        <rect id="path-3" x="0" y="0" width="220" height="92" rx="27"></rect>
        <filter x="-3.2%" y="-5.4%" width="106.4%" height="115.2%" filterUnits="objectBoundingBox" id="filter-4">
            <feMorphology radius="1.5" operator="erode" in="SourceAlpha" result="shadowSpreadOuter1"></feMorphology>
            <feOffset dx="0" dy="2" in="shadowSpreadOuter1" result="shadowOffsetOuter1"></feOffset>
            <feGaussianBlur stdDeviation="3.5" in="shadowOffsetOuter1" result="shadowBlurOuter1"></feGaussianBlur>
            <feColorMatrix values="0 0 0 0 0.666535488   0 0 0 0 0.764391284   0 0 0 0 0.823228034  0 0 0 1 0" type="matrix" in="shadowBlurOuter1"></feColorMatrix>
        </filter>
        <circle id="path-5" cx="25" cy="25" r="25"></circle>
        <filter x="-7.0%" y="-5.0%" width="114.0%" height="114.0%" filterUnits="objectBoundingBox" id="filter-6">
            <feMorphology radius="2.5" operator="erode" in="SourceAlpha" result="shadowSpreadOuter1"></feMorphology>
            <feOffset dx="0" dy="1" in="shadowSpreadOuter1" result="shadowOffsetOuter1"></feOffset>
            <feGaussianBlur stdDeviation="3.5" in="shadowOffsetOuter1" result="shadowBlurOuter1"></feGaussianBlur>
            <feColorMatrix values="0 0 0 0 0.360784314   0 0 0 0 0.466666667   0 0 0 0 0.615686275  0 0 0 1 0" type="matrix" in="shadowBlurOuter1"></feColorMatrix>
        </filter>
    </defs>
    <g id="Page-3" stroke="none" stroke-width="1" fill="none" fill-rule="evenodd">
        <g id="5.3" transform="translate(-22.000000, 19.000000)">
            <path d="M153.82945,474.709044 L149.343475,475.111782 C148.639356,466.626673 146.912363,458.816235 144.162495,451.680467 C136.426687,431.606441 100.659815,433.772181 74.643345,401.094336 C48.6268752,368.41649 32.1777136,351.373552 40.6966175,353.874685 C63.6595987,360.616571 104.075205,382.167502 127.6486,411.140443 C138.720893,424.748872 146.540717,439.268194 151.108074,454.698407 C148.397034,431.239289 142.588442,396.225342 118.116176,388.239405 C81.4556303,376.276115 69.5140137,331.864735 55.270838,319.734412 C41.0276623,307.604089 19.525653,306.174901 28.4538538,302.487429 C42.5475571,296.666531 113.650322,316.802845 132.87428,359.962543 C138.497194,372.586544 143.151458,388.090824 146.791956,403.621239 C145.956764,397.125274 145.161383,391.475383 144.405811,386.671553 C137.265554,341.274732 126.317126,328.946103 126.317126,289.741475 C126.317126,248.53717 142.097535,266.030905 161.254322,192.688207 C163.9942,182.198446 180.287661,211.150767 175.412801,278.691899 C173.193477,309.440613 156.526991,349.891239 154.439856,395.500315 C153.678646,412.134635 160.556363,441.514734 161.254322,474.8709 C161.27213,475.721966 159.503543,475.821622 155.948563,475.169868 C155.686946,476.296994 155.296927,476.739422 154.776722,476.384481 C154.41715,476.13914 154.107083,475.566557 153.82945,474.709044 Z" id="Combined-Shape-Copy-8" fill="#E6EAFF" transform="translate(101.333683, 333.549053) rotate(-11.000000) translate(-101.333683, -333.549053) "></path>
            <g id="Group-8" transform="translate(176.000000, 0.000000)">
                <g id="Rectangle">
                    <use fill="black" fill-opacity="1" filter="url(#filter-2)" xlink:href="#path-1"></use>
                    <use fill="#F6FAFF" fill-rule="evenodd" xlink:href="#path-1"></use>
                </g>
                <path d="M30,0.99796334 L220,0.99796334 C236.568542,0.99796334 250,14.4294208 250,30.9979633 L250,56.9979633 L0,56.9979633 L0,30.9979633 C-2.02906125e-15,14.4294208 13.4314575,0.99796334 30,0.99796334 Z" id="Rectangle-Copy-3" fill="#45B8FF"></path>
                <rect id="Rectangle-Copy" stroke="#000000" stroke-width="12" x="-6" y="-5.00203666" width="262" height="501.002037" rx="40"></rect>
                <path d="M57,0 L193,0 L193,6 C193,11.5228475 188.522847,16 183,16 L67,16 C61.4771525,16 57,11.5228475 57,6 L57,0 Z" id="Rectangle" fill="#000000"></path>
                <path d="M106,3 L144,3 C145.104569,3 146,3.8954305 146,5 C146,6.1045695 145.104569,7 144,7 L106,7 C104.895431,7 104,6.1045695 104,5 C104,3.8954305 104.895431,3 106,3 Z M152,3 C153.104569,3 154,3.8954305 154,5 C154,6.1045695 153.104569,7 152,7 C150.895431,7 150,6.1045695 150,5 C150,3.8954305 150.895431,3 152,3 Z" id="Combined-Shape" fill="#1A1A1A"></path>
                <path d="M66.282,44.22 C65.9006648,44.22 65.5963345,44.1173344 65.369,43.912 C65.1416655,43.7066656 65.028,43.4206685 65.028,43.054 L65.028,33.682 C65.028,32.0246584 65.5009953,30.7266714 66.447,29.788 C67.3930047,28.8493286 68.6873251,28.38 70.33,28.38 C71.1660042,28.38 71.9543296,28.5926645 72.695,29.018 C73.4356704,29.4433355 74.0406643,30.0299963 74.51,30.778 C74.9793357,30.0153295 75.580663,29.4250021 76.314,29.007 C77.047337,28.5889979 77.8539956,28.38 78.734,28.38 C80.3913416,28.38 81.685662,28.8493286 82.617,29.788 C83.548338,30.7266714 84.014,32.0246584 84.014,33.682 L84.014,43.054 C84.014,43.4060018 83.9003345,43.6883323 83.673,43.901 C83.4456655,44.1136677 83.1413352,44.22 82.76,44.22 C82.3786648,44.22 82.0743345,44.1173344 81.847,43.912 C81.6196655,43.7066656 81.506,43.4206685 81.506,43.054 L81.506,33.682 C81.506,32.552661 81.2823356,31.7240026 80.835,31.196 C80.3876644,30.6679974 79.6580051,30.404 78.646,30.404 C77.7219954,30.404 77.0106692,30.6899971 76.512,31.262 C76.0133308,31.8340029 75.764,32.6406615 75.764,33.682 L75.764,43.054 C75.764,43.4206685 75.6503345,43.7066656 75.423,43.912 C75.1956655,44.1173344 74.8913352,44.22 74.51,44.22 C74.1286648,44.22 73.8316677,44.1173344 73.619,43.912 C73.4063323,43.7066656 73.3,43.4206685 73.3,43.054 L73.3,33.682 C73.3,32.6553282 73.0433359,31.8523362 72.53,31.273 C72.0166641,30.6936638 71.3126711,30.404 70.418,30.404 C69.3913282,30.404 68.6543356,30.6679974 68.207,31.196 C67.7596644,31.7240026 67.536,32.552661 67.536,33.682 L67.536,43.054 C67.536,43.4060018 67.4223345,43.6883323 67.195,43.901 C66.9676655,44.1136677 66.6633352,44.22 66.282,44.22 Z M91.769,49.5 C90.698328,49.5 89.726671,49.3350016 88.854,49.005 C87.981329,48.6749983 87.3250022,48.2240029 86.885,47.652 C86.7236659,47.4173322 86.643,47.1973344 86.643,46.992 C86.643,46.6693317 86.7969985,46.3833346 87.105,46.134 C87.2956676,46.0019993 87.5009989,45.936 87.721,45.936 C88.0876685,45.936 88.4176652,46.104665 88.711,46.442 C89.0336683,46.7940018 89.4553307,47.0653324 89.976,47.256 C90.4966693,47.4466676 91.0723302,47.542 91.703,47.542 C92.832339,47.542 93.7049969,47.2266698 94.321,46.596 C94.9370031,45.9653302 95.245,45.0706725 95.245,43.912 L95.245,42.79 C94.8636648,43.2153355 94.3723363,43.5526654 93.771,43.802 C93.1696637,44.0513346 92.5536698,44.176 91.923,44.176 C90.1043242,44.176 88.6853384,43.681005 87.666,42.691 C86.6466616,41.7009951 86.137,40.3186755 86.137,38.544 L86.137,34.1 C86.137,33.7919985 86.2543322,33.5316677 86.489,33.319 C86.7236678,33.1063323 87.0243315,33 87.391,33 C87.728335,33 88.0143322,33.1063323 88.249,33.319 C88.4836678,33.5316677 88.601,33.7919985 88.601,34.1 L88.601,38.544 C88.601,39.7173392 88.8943304,40.6303301 89.481,41.283 C90.0676696,41.9356699 90.8816615,42.262 91.923,42.262 C92.9350051,42.262 93.7233305,41.9430032 94.288,41.305 C94.8526695,40.6669968 95.135,39.7686725 95.135,38.61 L95.135,34.32 C95.135,33.9093313 95.2449989,33.5866678 95.465,33.352 C95.6850011,33.1173322 95.992998,33 96.389,33 C96.785002,33 97.0929989,33.1173322 97.313,33.352 C97.5330011,33.5866678 97.643,33.9093313 97.643,34.32 L97.643,43.626 C97.643,45.4446758 97.1186719,46.8783281 96.07,47.927 C95.0213281,48.9756719 93.5876758,49.5 91.769,49.5 Z M107.389,44.22 C107.007665,44.22 106.707001,44.1173344 106.487,43.912 C106.266999,43.7066656 106.157,43.4206685 106.157,43.054 L106.157,28.468 C106.157,28.1013315 106.266999,27.8153344 106.487,27.61 C106.707001,27.4046656 107.007665,27.302 107.389,27.302 C107.770335,27.302 108.070999,27.4046656 108.291,27.61 C108.511001,27.8153344 108.621,28.1013315 108.621,28.468 L108.621,43.054 C108.621,43.4060018 108.507334,43.6883323 108.28,43.901 C108.052666,44.1136677 107.755668,44.22 107.389,44.22 Z M117.168,44.22 C115.90666,44.22 114.810338,43.9963356 113.879,43.549 C112.947662,43.1016644 112.236336,42.4600042 111.745,41.624 C111.253664,40.7879958 111.008,39.7980057 111.008,38.654 C111.008,36.8793245 111.535995,35.4933383 112.592,34.496 C113.648005,33.4986617 115.114657,33 116.992,33 C118.150672,33 119.177329,33.1833315 120.072,33.55 C120.966671,33.9166685 121.663331,34.4263301 122.162,35.079 C122.660669,35.7316699 122.91,36.4759958 122.91,37.312 C122.91,37.98667 122.704669,38.5073315 122.294,38.874 C121.883331,39.2406685 121.304004,39.424 120.556,39.424 L113.428,39.424 C113.428,40.3333379 113.750663,41.0373308 114.396,41.536 C115.041337,42.0346692 115.965327,42.284 117.168,42.284 C117.857337,42.284 118.465997,42.2106674 118.994,42.064 C119.522003,41.9173326 120.013331,41.6826683 120.468,41.36 C120.893335,41.0813319 121.215999,40.942 121.436,40.942 C121.626668,40.942 121.824666,41.0446656 122.03,41.25 C122.264668,41.4700011 122.382,41.7119987 122.382,41.976 C122.382,42.2546681 122.257335,42.4893324 122.008,42.68 C120.775994,43.7066718 119.162677,44.22 117.168,44.22 Z M119.808,37.642 C120.057335,37.642 120.240666,37.5906672 120.358,37.488 C120.475334,37.3853328 120.534,37.2093346 120.534,36.96 C120.534,36.3586637 120.211337,35.8710019 119.566,35.497 C118.920663,35.1229981 118.062672,34.936 116.992,34.936 C115.906661,34.936 115.04867,35.1816642 114.418,35.673 C113.78733,36.1643358 113.472,36.8206626 113.472,37.642 L119.808,37.642 Z M130.005,44.22 C128.802327,44.22 127.772004,44.0330019 126.914,43.659 C126.055996,43.2849981 125.363003,42.7753366 124.835,42.13 C124.658999,41.8806654 124.571,41.6460011 124.571,41.426 C124.571,41.0739982 124.739665,40.7953344 125.077,40.59 C125.282334,40.4726661 125.472999,40.414 125.649,40.414 C125.927668,40.414 126.206332,40.5533319 126.485,40.832 C126.983669,41.3306692 127.493331,41.6936655 128.014,41.921 C128.534669,42.1483345 129.161663,42.262 129.895,42.262 C130.56967,42.262 131.119665,42.1666676 131.545,41.976 C131.970335,41.7853324 132.183,41.5286683 132.183,41.206 C132.183,40.9566654 132.106001,40.7476675 131.952,40.579 C131.797999,40.4103325 131.530335,40.2453341 131.149,40.084 C130.767665,39.9226659 130.173671,39.7100013 129.367,39.446 C127.812326,38.9473308 126.716003,38.4376693 126.078,37.917 C125.439997,37.3963307 125.121,36.7326707 125.121,35.926 C125.121,35.0166621 125.509663,34.3016693 126.287,33.781 C127.064337,33.2603307 128.120327,33 129.455,33 C130.467005,33 131.390996,33.1613317 132.227,33.484 C133.063004,33.8066683 133.678998,34.2319974 134.075,34.76 C134.236334,34.9653344 134.317,35.1853322 134.317,35.42 C134.317,35.7133348 134.163002,35.9626656 133.855,36.168 C133.664332,36.3000007 133.444335,36.366 133.195,36.366 C132.857665,36.366 132.520335,36.2120015 132.183,35.904 C131.522997,35.2733302 130.606339,34.958 129.433,34.958 C128.215661,34.958 127.607,35.2806634 127.607,35.926 C127.607,36.1753346 127.687666,36.3806659 127.849,36.542 C128.010334,36.7033341 128.292665,36.8609992 128.696,37.015 C129.099335,37.1690008 129.755662,37.3926652 130.665,37.686 C131.662338,37.9940015 132.446997,38.3093317 133.019,38.632 C133.591003,38.9546683 134.001665,39.3176646 134.251,39.721 C134.500335,40.1243354 134.625,40.6193304 134.625,41.206 C134.625,42.1153379 134.214337,42.8449972 133.393,43.395 C132.571663,43.9450028 131.442341,44.22 130.005,44.22 Z M141.72,44.22 C140.517327,44.22 139.487004,44.0330019 138.629,43.659 C137.770996,43.2849981 137.078003,42.7753366 136.55,42.13 C136.373999,41.8806654 136.286,41.6460011 136.286,41.426 C136.286,41.0739982 136.454665,40.7953344 136.792,40.59 C136.997334,40.4726661 137.187999,40.414 137.364,40.414 C137.642668,40.414 137.921332,40.5533319 138.2,40.832 C138.698669,41.3306692 139.208331,41.6936655 139.729,41.921 C140.249669,42.1483345 140.876663,42.262 141.61,42.262 C142.28467,42.262 142.834665,42.1666676 143.26,41.976 C143.685335,41.7853324 143.898,41.5286683 143.898,41.206 C143.898,40.9566654 143.821001,40.7476675 143.667,40.579 C143.512999,40.4103325 143.245335,40.2453341 142.864,40.084 C142.482665,39.9226659 141.888671,39.7100013 141.082,39.446 C139.527326,38.9473308 138.431003,38.4376693 137.793,37.917 C137.154997,37.3963307 136.836,36.7326707 136.836,35.926 C136.836,35.0166621 137.224663,34.3016693 138.002,33.781 C138.779337,33.2603307 139.835327,33 141.17,33 C142.182005,33 143.105996,33.1613317 143.942,33.484 C144.778004,33.8066683 145.393998,34.2319974 145.79,34.76 C145.951334,34.9653344 146.032,35.1853322 146.032,35.42 C146.032,35.7133348 145.878002,35.9626656 145.57,36.168 C145.379332,36.3000007 145.159335,36.366 144.91,36.366 C144.572665,36.366 144.235335,36.2120015 143.898,35.904 C143.237997,35.2733302 142.321339,34.958 141.148,34.958 C139.930661,34.958 139.322,35.2806634 139.322,35.926 C139.322,36.1753346 139.402666,36.3806659 139.564,36.542 C139.725334,36.7033341 140.007665,36.8609992 140.411,37.015 C140.814335,37.1690008 141.470662,37.3926652 142.38,37.686 C143.377338,37.9940015 144.161997,38.3093317 144.734,38.632 C145.306003,38.9546683 145.716665,39.3176646 145.966,39.721 C146.215335,40.1243354 146.34,40.6193304 146.34,41.206 C146.34,42.1153379 145.929337,42.8449972 145.108,43.395 C144.286663,43.9450028 143.157341,44.22 141.72,44.22 Z M154.359,44.22 C153.082994,44.22 151.961005,43.9816691 150.993,43.505 C150.024995,43.0283309 149.280669,42.3646709 148.76,41.514 C148.239331,40.6633291 147.979,39.6953388 147.979,38.61 C147.979,37.5246612 148.239331,36.5566709 148.76,35.706 C149.280669,34.8553291 150.024995,34.1916691 150.993,33.715 C151.961005,33.2383309 153.082994,33 154.359,33 C155.635006,33 156.756995,33.2383309 157.725,33.715 C158.693005,34.1916691 159.437331,34.8553291 159.958,35.706 C160.478669,36.5566709 160.739,37.5246612 160.739,38.61 C160.739,39.6953388 160.478669,40.6633291 159.958,41.514 C159.437331,42.3646709 158.693005,43.0283309 157.725,43.505 C156.756995,43.9816691 155.635006,44.22 154.359,44.22 Z M154.359,42.24 C155.547006,42.24 156.492996,41.9173366 157.197,41.272 C157.901004,40.6266634 158.253,39.739339 158.253,38.61 C158.253,37.480661 157.901004,36.5933366 157.197,35.948 C156.492996,35.3026634 155.547006,34.98 154.359,34.98 C153.156327,34.98 152.20667,35.3026634 151.51,35.948 C150.81333,36.5933366 150.465,37.480661 150.465,38.61 C150.465,39.739339 150.81333,40.6266634 151.51,41.272 C152.20667,41.9173366 153.156327,42.24 154.359,42.24 Z M163.61,44.22 C163.228665,44.22 162.928001,44.1173344 162.708,43.912 C162.487999,43.7066656 162.378,43.4206685 162.378,43.054 L162.378,34.166 C162.378,33.7993315 162.484332,33.5133344 162.697,33.308 C162.909668,33.1026656 163.199331,33 163.566,33 C163.947335,33 164.244332,33.1026656 164.457,33.308 C164.669668,33.5133344 164.776,33.7993315 164.776,34.166 L164.776,35.024 C165.861339,33.6746599 167.313324,33 169.132,33 C170.52534,33 171.621663,33.4253291 172.421,34.276 C173.220337,35.1266709 173.62,36.2999925 173.62,37.796 L173.62,43.054 C173.62,43.4206685 173.506334,43.7066656 173.279,43.912 C173.051666,44.1173344 172.747335,44.22 172.366,44.22 C171.984665,44.22 171.687668,44.1173344 171.475,43.912 C171.262332,43.7066656 171.156,43.4206685 171.156,43.054 L171.156,37.796 C171.156,36.8866621 170.936002,36.1900024 170.496,35.706 C170.055998,35.2219976 169.432671,34.98 168.626,34.98 C167.452661,34.98 166.52867,35.3283299 165.854,36.025 C165.17933,36.7216702 164.842,37.6639941 164.842,38.852 L164.842,43.054 C164.842,43.4060018 164.728334,43.6883323 164.501,43.901 C164.273666,44.1136677 163.976668,44.22 163.61,44.22 Z M180.935,44.22 C179.732327,44.22 178.702004,44.0330019 177.844,43.659 C176.985996,43.2849981 176.293003,42.7753366 175.765,42.13 C175.588999,41.8806654 175.501,41.6460011 175.501,41.426 C175.501,41.0739982 175.669665,40.7953344 176.007,40.59 C176.212334,40.4726661 176.402999,40.414 176.579,40.414 C176.857668,40.414 177.136332,40.5533319 177.415,40.832 C177.913669,41.3306692 178.423331,41.6936655 178.944,41.921 C179.464669,42.1483345 180.091663,42.262 180.825,42.262 C181.49967,42.262 182.049665,42.1666676 182.475,41.976 C182.900335,41.7853324 183.113,41.5286683 183.113,41.206 C183.113,40.9566654 183.036001,40.7476675 182.882,40.579 C182.727999,40.4103325 182.460335,40.2453341 182.079,40.084 C181.697665,39.9226659 181.103671,39.7100013 180.297,39.446 C178.742326,38.9473308 177.646003,38.4376693 177.008,37.917 C176.369997,37.3963307 176.051,36.7326707 176.051,35.926 C176.051,35.0166621 176.439663,34.3016693 177.217,33.781 C177.994337,33.2603307 179.050327,33 180.385,33 C181.397005,33 182.320996,33.1613317 183.157,33.484 C183.993004,33.8066683 184.608998,34.2319974 185.005,34.76 C185.166334,34.9653344 185.247,35.1853322 185.247,35.42 C185.247,35.7133348 185.093002,35.9626656 184.785,36.168 C184.594332,36.3000007 184.374335,36.366 184.125,36.366 C183.787665,36.366 183.450335,36.2120015 183.113,35.904 C182.452997,35.2733302 181.536339,34.958 180.363,34.958 C179.145661,34.958 178.537,35.2806634 178.537,35.926 C178.537,36.1753346 178.617666,36.3806659 178.779,36.542 C178.940334,36.7033341 179.222665,36.8609992 179.626,37.015 C180.029335,37.1690008 180.685662,37.3926652 181.595,37.686 C182.592338,37.9940015 183.376997,38.3093317 183.949,38.632 C184.521003,38.9546683 184.931665,39.3176646 185.181,39.721 C185.430335,40.1243354 185.555,40.6193304 185.555,41.206 C185.555,42.1153379 185.144337,42.8449972 184.323,43.395 C183.501663,43.9450028 182.372341,44.22 180.935,44.22 Z" id="Mylessons" fill="#FFFFFF" fill-rule="nonzero"></path>
            </g>
            <g id="уроки" transform="translate(191.000000, 78.000000)">
                <g id="Rectangle-Copy-2">
                    <use fill="black" fill-opacity="1" filter="url(#filter-4)" xlink:href="#path-3"></use>
                    <use fill="#FFFFFF" fill-rule="evenodd" xlink:href="#path-3"></use>
                </g>
                <g id="I-say-something,-it" transform="translate(18.957031, 23.978516)" fill-rule="nonzero">
                    <path d="M0,10.0214844 L0,0 L2.0234375,0 L2.0234375,10.0214844 L0,10.0214844 Z M7.05239062,7.95019531 L8.980125,7.65625 C9.06215666,8.02994979 9.22849614,8.31363835 9.47914843,8.50732422 C9.72980073,8.70101008 10.0807087,8.79785156 10.5318828,8.79785156 C11.0286301,8.79785156 11.4023243,8.70670664 11.6529766,8.52441406 C11.8215972,8.39680926 11.9059062,8.22591253 11.9059062,8.01171875 C11.9059062,7.86588469 11.8603338,7.74511767 11.7691875,7.64941406 C11.6734839,7.55826777 11.4592933,7.47395872 11.1266094,7.39648438 C9.57712246,7.05468579 8.59503592,6.74251443 8.18032031,6.45996094 C7.60609869,6.06803189 7.31899218,5.52344099 7.31899218,4.82617188 C7.31899218,4.19726248 7.56736209,3.66862193 8.06410937,3.24023438 C8.56085665,2.81184682 9.33103124,2.59765625 10.3746562,2.59765625 C11.3681508,2.59765625 12.1064247,2.75943849 12.5895,3.08300781 C13.0725753,3.40657714 13.4052543,3.88508798 13.5875469,4.51855469 L11.7760234,4.85351562 C11.6985491,4.57096213 11.5515779,4.35449294 11.3351055,4.20410156 C11.118633,4.05371019 10.8098796,3.97851562 10.4088359,3.97851562 C9.90297403,3.97851562 9.54067296,4.04915294 9.32192187,4.19042969 C9.17608781,4.29069061 9.10317187,4.42057212 9.10317187,4.58007812 C9.10317187,4.71679756 9.16697332,4.83300733 9.29457812,4.92871094 C9.46775607,5.05631574 10.0658946,5.23632696 11.0890117,5.46875 C12.1121288,5.70117304 12.8264771,5.98600092 13.2320781,6.32324219 C13.6331218,6.66504077 13.8336406,7.14127299 13.8336406,7.75195312 C13.8336406,8.41732104 13.5556486,8.98925542 12.9996562,9.46777344 C12.4436639,9.94629146 11.621081,10.1855469 10.5318828,10.1855469 C9.54294557,10.1855469 8.76023855,9.98502805 8.18373828,9.58398438 C7.607238,9.1829407 7.23012588,8.63834979 7.05239062,7.95019531 Z M16.9018281,4.9765625 L15.1586641,4.66210938 C15.3546286,3.96028295 15.6918648,3.44075689 16.1703828,3.10351562 C16.6489008,2.76627436 17.3598312,2.59765625 18.3031953,2.59765625 C19.1599704,2.59765625 19.7979849,2.69905498 20.2172578,2.90185547 C20.6365307,3.10465596 20.9316124,3.36214037 21.1025117,3.67431641 C21.273411,3.98649245 21.3588594,4.55956614 21.3588594,5.39355469 L21.3383516,7.63574219 C21.3383516,8.27376621 21.369113,8.74430187 21.4306367,9.04736328 C21.4921605,9.35042469 21.6072309,9.67512848 21.7758516,10.0214844 L19.8754609,10.0214844 C19.8253305,9.89387957 19.7638076,9.70475386 19.6908906,9.45410156 C19.6589894,9.3401687 19.6362032,9.26497414 19.6225312,9.22851562 C19.2944046,9.54752764 18.9434967,9.78678306 18.5697969,9.94628906 C18.1960971,10.1057951 17.797338,10.1855469 17.3735078,10.1855469 C16.6261082,10.1855469 16.0370842,9.98274942 15.606418,9.57714844 C15.1757517,9.17154745 14.9604219,8.65885727 14.9604219,8.0390625 C14.9604219,7.6289042 15.0584027,7.2631852 15.2543672,6.94189453 C15.4503317,6.62060386 15.7249058,6.37451257 16.0780976,6.20361328 C16.4312895,6.03271399 16.9405618,5.88346418 17.6059297,5.75585938 C18.5037206,5.58723874 19.1257847,5.43001375 19.4721406,5.28417969 L19.4721406,5.09277344 C19.4721406,4.72363097 19.3809957,4.46045 19.1987031,4.30322266 C19.0164105,4.14599531 18.6723385,4.06738281 18.1664766,4.06738281 C17.824678,4.06738281 17.5580791,4.13460219 17.3666719,4.26904297 C17.1752647,4.40348375 17.0203183,4.63932123 16.9018281,4.9765625 Z M19.4721406,6.53515625 C19.2260456,6.61718791 18.8364011,6.7151687 18.3031953,6.82910156 C17.7699895,6.94303442 17.4213602,7.05468695 17.2572969,7.1640625 C17.0066446,7.34179776 16.8813203,7.56738145 16.8813203,7.84082031 C16.8813203,8.10970187 16.9815797,8.34212142 17.1821016,8.53808594 C17.3826234,8.73405046 17.6378292,8.83203125 17.9477266,8.83203125 C18.2940825,8.83203125 18.6244828,8.7181001 18.9389375,8.49023438 C19.1713605,8.31705643 19.3240283,8.10514448 19.3969453,7.85449219 C19.4470758,7.69042887 19.4721406,7.37825751 19.4721406,6.91796875 L19.4721406,6.53515625 Z M22.2942344,2.76171875 L24.3381797,2.76171875 L26.0745078,7.91601562 L27.7698203,2.76171875 L29.7590781,2.76171875 L27.1956016,9.74804688 L26.7375937,11.0126953 C26.5689731,11.4365256 26.4083302,11.76009 26.2556601,11.9833984 C26.1029901,12.2067068 25.9275361,12.3878574 25.729293,12.5268555 C25.5310498,12.6658536 25.2872371,12.7740882 24.9978476,12.8515625 C24.7084582,12.9290368 24.3814758,12.9677734 24.0168906,12.9677734 C23.6477481,12.9677734 23.2854471,12.9290368 22.9299766,12.8515625 L22.7590781,11.3476562 C23.0598609,11.4069013 23.331017,11.4365234 23.5725547,11.4365234 C24.0191715,11.4365234 24.3495718,11.3055026 24.5637656,11.043457 C24.7779594,10.7814115 24.9420203,10.4475932 25.0559531,10.0419922 L22.2942344,2.76171875 Z M34.1044375,7.95019531 L36.0321719,7.65625 C36.1142035,8.02994979 36.280543,8.31363835 36.5311953,8.50732422 C36.7818476,8.70101008 37.1327555,8.79785156 37.5839297,8.79785156 C38.0806769,8.79785156 38.4543711,8.70670664 38.7050234,8.52441406 C38.8736441,8.39680926 38.9579531,8.22591253 38.9579531,8.01171875 C38.9579531,7.86588469 38.9123806,7.74511767 38.8212344,7.64941406 C38.7255308,7.55826777 38.5113402,7.47395872 38.1786562,7.39648438 C36.6291693,7.05468579 35.6470828,6.74251443 35.2323672,6.45996094 C34.6581456,6.06803189 34.371039,5.52344099 34.371039,4.82617188 C34.371039,4.19726248 34.619409,3.66862193 35.1161562,3.24023438 C35.6129035,2.81184682 36.3830781,2.59765625 37.4267031,2.59765625 C38.4201977,2.59765625 39.1584715,2.75943849 39.6415469,3.08300781 C40.1246222,3.40657714 40.4573012,3.88508798 40.6395937,4.51855469 L38.8280703,4.85351562 C38.750596,4.57096213 38.6036248,4.35449294 38.3871523,4.20410156 C38.1706799,4.05371019 37.8619265,3.97851562 37.4608828,3.97851562 C36.9550209,3.97851562 36.5927198,4.04915294 36.3739687,4.19042969 C36.2281347,4.29069061 36.1552187,4.42057212 36.1552187,4.58007812 C36.1552187,4.71679756 36.2190202,4.83300733 36.346625,4.92871094 C36.5198029,5.05631574 37.1179415,5.23632696 38.1410586,5.46875 C39.1641757,5.70117304 39.878524,5.98600092 40.284125,6.32324219 C40.6851687,6.66504077 40.8856875,7.14127299 40.8856875,7.75195312 C40.8856875,8.41732104 40.6076955,8.98925542 40.0517031,9.46777344 C39.4957107,9.94629146 38.6731278,10.1855469 37.5839297,10.1855469 C36.5949924,10.1855469 35.8122854,9.98502805 35.2357851,9.58398438 C34.6592849,9.1829407 34.2821727,8.63834979 34.1044375,7.95019531 Z M42.0739922,6.2890625 C42.0739922,5.65103848 42.2312172,5.03353163 42.5456719,4.43652344 C42.8601266,3.83951524 43.3055974,3.38379063 43.8820976,3.06933594 C44.4585979,2.75488124 45.1023089,2.59765625 45.81325,2.59765625 C46.9115628,2.59765625 47.8116189,2.95426076 48.5134453,3.66748047 C49.2152717,4.38070018 49.5661797,5.2818956 49.5661797,6.37109375 C49.5661797,7.46940653 49.2118538,8.37971644 48.5031914,9.10205078 C47.794529,9.82438512 46.9024481,10.1855469 45.8269219,10.1855469 C45.1615539,10.1855469 44.5269574,10.0351578 43.9231133,9.734375 C43.3192691,9.43359225 42.8601266,8.99267869 42.5456719,8.41162109 C42.2312172,7.8305635 42.0739922,7.12305104 42.0739922,6.2890625 Z M44.0427422,6.39160156 C44.0427422,7.11165725 44.2136389,7.66308402 44.5554375,8.04589844 C44.8972361,8.42871285 45.3187813,8.62011719 45.8200859,8.62011719 C46.3213905,8.62011719 46.7417965,8.42871285 47.0813164,8.04589844 C47.4208363,7.66308402 47.5905937,7.1071 47.5905937,6.37792969 C47.5905937,5.66698863 47.4208363,5.1201191 47.0813164,4.73730469 C46.7417965,4.35449027 46.3213905,4.16308594 45.8200859,4.16308594 C45.3187813,4.16308594 44.8972361,4.35449027 44.5554375,4.73730469 C44.2136389,5.1201191 44.0427422,5.67154588 44.0427422,6.39160156 Z M50.8775312,2.76171875 L52.648039,2.76171875 L52.648039,3.75292969 C53.2815058,2.98274354 54.03573,2.59765625 54.9107344,2.59765625 C55.3755804,2.59765625 55.7788967,2.69335842 56.1206953,2.88476562 C56.4624939,3.07617283 56.7427645,3.36555796 56.9615156,3.75292969 C57.2805276,3.36555796 57.6245997,3.07617283 57.9937422,2.88476562 C58.3628846,2.69335842 58.7570864,2.59765625 59.1763594,2.59765625 C59.7095651,2.59765625 60.1607325,2.70589084 60.529875,2.92236328 C60.8990175,3.13883572 61.1747308,3.45670363 61.3570234,3.87597656 C61.4891855,4.18587395 61.5552656,4.68717102 61.5552656,5.37988281 L61.5552656,10.0214844 L59.6343672,10.0214844 L59.6343672,5.87207031 C59.6343672,5.15201463 59.5682871,4.68717553 59.436125,4.47753906 C59.2583897,4.2041002 58.984955,4.06738281 58.6158125,4.06738281 C58.3469309,4.06738281 58.0940038,4.14941324 57.8570234,4.31347656 C57.6200431,4.47753988 57.4491463,4.71793461 57.3443281,5.03466797 C57.2395099,5.35140132 57.1871015,5.85155908 57.1871015,6.53515625 L57.1871015,10.0214844 L55.2662031,10.0214844 L55.2662031,6.04296875 C55.2662031,5.33658501 55.2320238,4.8808604 55.163664,4.67578125 C55.0953043,4.4707021 54.9893484,4.31803436 54.8457929,4.21777344 C54.7022375,4.11751252 54.5074153,4.06738281 54.2613203,4.06738281 C53.9650949,4.06738281 53.698496,4.14713462 53.4615156,4.30664062 C53.2245353,4.46614663 53.0547778,4.69628756 52.9522383,4.99707031 C52.8496987,5.29785307 52.7984297,5.79687151 52.7984297,6.49414062 L52.7984297,10.0214844 L50.8775312,10.0214844 L50.8775312,2.76171875 Z M67.6244297,7.7109375 L69.5384922,8.03222656 C69.2923972,8.73405299 68.903892,9.26839009 68.3729648,9.63525391 C67.8420377,10.0021177 67.1778191,10.1855469 66.380289,10.1855469 C65.1179129,10.1855469 64.1836775,9.7731161 63.5775547,8.94824219 C63.0990366,8.28743159 62.8597812,7.45345556 62.8597812,6.44628906 C62.8597812,5.24315805 63.1742312,4.30094742 63.8031406,3.61962891 C64.43205,2.9383104 65.2272894,2.59765625 66.1888828,2.59765625 C67.2689663,2.59765625 68.1211713,2.95426076 68.7455234,3.66748047 C69.3698755,4.38070018 69.6683751,5.47329993 69.6410312,6.9453125 L64.8285312,6.9453125 C64.8422032,7.51497681 64.9971495,7.95816899 65.293375,8.27490234 C65.5896004,8.5916357 65.9587374,8.75 66.4007969,8.75 C66.7015796,8.75 66.9545068,8.66796957 67.1595859,8.50390625 C67.3646651,8.33984293 67.5196114,8.07552266 67.6244297,7.7109375 Z M67.7338047,5.76953125 C67.7201327,5.21353889 67.5765795,4.79085431 67.3031406,4.50146484 C67.0297017,4.21207538 66.6970228,4.06738281 66.3050937,4.06738281 C65.8858208,4.06738281 65.5394701,4.22005056 65.2660312,4.52539062 C64.9925924,4.83073069 64.8581536,5.24544009 64.8627109,5.76953125 L67.7338047,5.76953125 Z M74.4865625,2.76171875 L74.4865625,4.29296875 L73.1740625,4.29296875 L73.1740625,7.21875 C73.1740625,7.81120088 73.1865949,8.15641227 73.2116601,8.25439453 C73.2367254,8.35237679 73.2936909,8.43326791 73.3825586,8.49707031 C73.4714262,8.56087271 73.5796608,8.59277344 73.7072656,8.59277344 C73.8850009,8.59277344 74.1424853,8.53125062 74.4797265,8.40820312 L74.643789,9.8984375 C74.1971722,10.0898447 73.6913179,10.1855469 73.1262109,10.1855469 C72.779855,10.1855469 72.4676837,10.127442 72.1896875,10.0112305 C71.9116913,9.89501895 71.7077545,9.74462983 71.5778711,9.56005859 C71.4479876,9.37548736 71.357982,9.12597813 71.3078515,8.81152344 C71.2668357,8.58821503 71.2463281,8.13704767 71.2463281,7.45800781 L71.2463281,4.29296875 L70.3644922,4.29296875 L70.3644922,2.76171875 L71.2463281,2.76171875 L71.2463281,1.31933594 L73.1740625,0.198242188 L73.1740625,2.76171875 L74.4865625,2.76171875 Z M77.6846328,0 L77.6846328,3.68457031 C78.3044276,2.95995731 79.04498,2.59765625 79.9063125,2.59765625 C80.348372,2.59765625 80.747131,2.67968668 81.1026015,2.84375 C81.4580721,3.00781332 81.7258103,3.21744664 81.9058242,3.47265625 C82.0858381,3.72786586 82.2088838,4.01041512 82.2749648,4.3203125 C82.3410459,4.63020988 82.3740859,5.11099935 82.3740859,5.76269531 L82.3740859,10.0214844 L80.4531875,10.0214844 L80.4531875,6.18652344 C80.4531875,5.42545192 80.4167295,4.94238384 80.3438125,4.73730469 C80.2708954,4.53222554 80.1421532,4.36930399 79.957582,4.24853516 C79.7730108,4.12776632 79.5417305,4.06738281 79.2637343,4.06738281 C78.9447223,4.06738281 78.6598945,4.144856 78.4092422,4.29980469 C78.1585899,4.45475338 77.9751607,4.68831224 77.8589492,5.00048828 C77.7427377,5.31266432 77.6846328,5.77408549 77.6846328,6.38476562 L77.6846328,10.0214844 L75.7637343,10.0214844 L75.7637343,0 L77.6846328,0 Z M84.2733281,1.77734375 L84.2733281,0 L86.1942265,0 L86.1942265,1.77734375 L84.2733281,1.77734375 Z M84.2733281,10.0214844 L84.2733281,2.76171875 L86.1942265,2.76171875 L86.1942265,10.0214844 L84.2733281,10.0214844 Z M94.7174922,10.0214844 L92.7965937,10.0214844 L92.7965937,6.31640625 C92.7965937,5.53254816 92.7555785,5.02555454 92.6735468,4.79541016 C92.5915152,4.56526578 92.4582157,4.38639387 92.2736445,4.25878906 C92.0890733,4.13118426 91.8669075,4.06738281 91.6071406,4.06738281 C91.2744566,4.06738281 90.975957,4.15852773 90.7116328,4.34082031 C90.4473085,4.52311289 90.266158,4.76464693 90.1681757,5.06542969 C90.0701935,5.36621244 90.0212031,5.92219646 90.0212031,6.73339844 L90.0212031,10.0214844 L88.1003047,10.0214844 L88.1003047,2.76171875 L89.8844843,2.76171875 L89.8844843,3.828125 C90.5179511,3.0078084 91.3154691,2.59765625 92.2770625,2.59765625 C92.7008927,2.59765625 93.0882586,2.67399012 93.4391718,2.82666016 C93.7900851,2.97933019 94.0555446,3.17415246 94.2355586,3.41113281 C94.4155725,3.64811316 94.5408968,3.91699068 94.6115351,4.21777344 C94.6821735,4.51855619 94.7174922,4.94921595 94.7174922,5.50976562 L94.7174922,10.0214844 Z M96.439,10.5 L98.6333359,10.7666016 C98.6697944,11.0218112 98.7541035,11.1972651 98.8862656,11.2929688 C99.0685582,11.4296882 99.3556647,11.4980469 99.7475937,11.4980469 C100.248898,11.4980469 100.624871,11.4228523 100.875523,11.2724609 C101.044144,11.1722 101.171747,11.0104178 101.258336,10.7871094 C101.317581,10.6276034 101.347203,10.333661 101.347203,9.90527344 L101.347203,8.84570312 C100.772981,9.62956121 100.048379,10.0214844 99.173375,10.0214844 C98.1981097,10.0214844 97.4256565,9.6090536 96.8559922,8.78417969 C96.4093753,8.13248372 96.1860703,7.32129392 96.1860703,6.35058594 C96.1860703,5.13378298 96.4788733,4.20410478 97.0644882,3.56152344 C97.6501032,2.9189421 98.3781232,2.59765625 99.2485703,2.59765625 C100.146361,2.59765625 100.886914,2.99185804 101.47025,3.78027344 L101.47025,2.76171875 L103.268102,2.76171875 L103.268102,9.27636719 C103.268102,10.1331423 103.197464,10.7734354 103.056187,11.1972656 C102.914911,11.6210959 102.716671,11.9537748 102.461461,12.1953125 C102.206251,12.4368502 101.865597,12.6259759 101.439488,12.7626953 C101.013379,12.8994147 100.474485,12.9677734 99.822789,12.9677734 C98.5923141,12.9677734 97.7196015,12.7570008 97.204625,12.3354492 C96.6896484,11.9138976 96.432164,11.3795605 96.432164,10.7324219 C96.432164,10.6686195 96.4344427,10.5911463 96.439,10.5 Z M98.1548203,6.24121094 C98.1548203,7.01139708 98.3040701,7.57535628 98.6025742,7.93310547 C98.9010783,8.29085465 99.2690759,8.46972656 99.7065781,8.46972656 C100.175981,8.46972656 100.572462,8.28629741 100.896031,7.91943359 C101.219601,7.55256978 101.381383,7.00911818 101.381383,6.2890625 C101.381383,5.53710562 101.226436,4.97884297 100.916539,4.61425781 C100.606642,4.24967266 100.214718,4.06738281 99.7407578,4.06738281 C99.280469,4.06738281 98.9010783,4.24625472 98.6025742,4.60400391 C98.3040701,4.96175309 98.1548203,5.50748331 98.1548203,6.24121094 Z M105.071641,8.10058594 L106.992539,8.10058594 L106.992539,9.47460938 C106.992539,10.0306017 106.944688,10.4692367 106.848984,10.7905273 C106.753281,11.111818 106.57213,11.4000638 106.305527,11.6552734 C106.038924,11.910483 105.700549,12.1110019 105.290391,12.2568359 L104.914414,11.4638672 C105.301786,11.3362624 105.577499,11.1608084 105.741562,10.9375 C105.905626,10.7141916 105.992213,10.4088561 106.001328,10.0214844 L105.071641,10.0214844 L105.071641,8.10058594 Z M112.800789,1.77734375 L112.800789,0 L114.721687,0 L114.721687,1.77734375 L112.800789,1.77734375 Z M112.800789,10.0214844 L112.800789,2.76171875 L114.721687,2.76171875 L114.721687,10.0214844 L112.800789,10.0214844 Z M119.970539,2.76171875 L119.970539,4.29296875 L118.658039,4.29296875 L118.658039,7.21875 C118.658039,7.81120088 118.670571,8.15641227 118.695637,8.25439453 C118.720702,8.35237679 118.777667,8.43326791 118.866535,8.49707031 C118.955403,8.56087271 119.063637,8.59277344 119.191242,8.59277344 C119.368977,8.59277344 119.626462,8.53125062 119.963703,8.40820312 L120.127766,9.8984375 C119.681149,10.0898447 119.175294,10.1855469 118.610187,10.1855469 C118.263832,10.1855469 117.95166,10.127442 117.673664,10.0112305 C117.395668,9.89501895 117.191731,9.74462983 117.061848,9.56005859 C116.931964,9.37548736 116.841959,9.12597813 116.791828,8.81152344 C116.750812,8.58821503 116.730305,8.13704767 116.730305,7.45800781 L116.730305,4.29296875 L115.848469,4.29296875 L115.848469,2.76171875 L116.730305,2.76171875 L116.730305,1.31933594 L118.658039,0.198242188 L118.658039,2.76171875 L119.970539,2.76171875 Z M125.095195,1.77734375 L125.095195,0 L127.016094,0 L127.016094,1.77734375 L125.095195,1.77734375 Z M125.095195,10.0214844 L125.095195,2.76171875 L127.016094,2.76171875 L127.016094,10.0214844 L125.095195,10.0214844 Z M128.259086,7.95019531 L130.18682,7.65625 C130.268852,8.02994979 130.435191,8.31363835 130.685844,8.50732422 C130.936496,8.70101008 131.287404,8.79785156 131.738578,8.79785156 C132.235325,8.79785156 132.60902,8.70670664 132.859672,8.52441406 C133.028292,8.39680926 133.112602,8.22591253 133.112602,8.01171875 C133.112602,7.86588469 133.067029,7.74511767 132.975883,7.64941406 C132.880179,7.55826777 132.665989,7.47395872 132.333305,7.39648438 C130.783818,7.05468579 129.801731,6.74251443 129.387016,6.45996094 C128.812794,6.06803189 128.525687,5.52344099 128.525687,4.82617188 C128.525687,4.19726248 128.774057,3.66862193 129.270805,3.24023438 C129.767552,2.81184682 130.537727,2.59765625 131.581352,2.59765625 C132.574846,2.59765625 133.31312,2.75943849 133.796195,3.08300781 C134.279271,3.40657714 134.61195,3.88508798 134.794242,4.51855469 L132.982719,4.85351562 C132.905244,4.57096213 132.758273,4.35449294 132.541801,4.20410156 C132.325328,4.05371019 132.016575,3.97851562 131.615531,3.97851562 C131.109669,3.97851562 130.747368,4.04915294 130.528617,4.19042969 C130.382783,4.29069061 130.309867,4.42057212 130.309867,4.58007812 C130.309867,4.71679756 130.373669,4.83300733 130.501273,4.92871094 C130.674451,5.05631574 131.27259,5.23632696 132.295707,5.46875 C133.318824,5.70117304 134.033172,5.98600092 134.438773,6.32324219 C134.839817,6.66504077 135.040336,7.14127299 135.040336,7.75195312 C135.040336,8.41732104 134.762344,8.98925542 134.206352,9.46777344 C133.650359,9.94629146 132.827776,10.1855469 131.738578,10.1855469 C130.749641,10.1855469 129.966934,9.98502805 129.390434,9.58398438 C128.813933,9.1829407 128.436821,8.63834979 128.259086,7.95019531 Z M142.352492,10.0214844 L140.431594,10.0214844 L140.431594,2.76171875 L142.215773,2.76171875 L142.215773,3.79394531 C142.521113,3.30631267 142.795688,2.98502682 143.039504,2.83007812 C143.28332,2.67512943 143.560173,2.59765625 143.87007,2.59765625 C144.307572,2.59765625 144.729118,2.71842327 145.134719,2.95996094 L144.539992,4.63476562 C144.216423,4.42512916 143.915645,4.3203125 143.637648,4.3203125 C143.368767,4.3203125 143.140905,4.39436775 142.954055,4.54248047 C142.767205,4.69059319 142.620234,4.9583314 142.513137,5.34570312 C142.40604,5.73307485 142.352492,6.54426466 142.352492,7.77929688 L142.352492,10.0214844 Z M150.116969,7.7109375 L152.031031,8.03222656 C151.784936,8.73405299 151.396431,9.26839009 150.865504,9.63525391 C150.334577,10.0021177 149.670358,10.1855469 148.872828,10.1855469 C147.610452,10.1855469 146.676217,9.7731161 146.070094,8.94824219 C145.591576,8.28743159 145.35232,7.45345556 145.35232,6.44628906 C145.35232,5.24315805 145.66677,4.30094742 146.29568,3.61962891 C146.924589,2.9383104 147.719828,2.59765625 148.681422,2.59765625 C149.761505,2.59765625 150.61371,2.95426076 151.238062,3.66748047 C151.862415,4.38070018 152.160914,5.47329993 152.13357,6.9453125 L147.32107,6.9453125 C147.334742,7.51497681 147.489689,7.95816899 147.785914,8.27490234 C148.082139,8.5916357 148.451276,8.75 148.893336,8.75 C149.194119,8.75 149.447046,8.66796957 149.652125,8.50390625 C149.857204,8.33984293 150.01215,8.07552266 150.116969,7.7109375 Z M150.226344,5.76953125 C150.212672,5.21353889 150.069118,4.79085431 149.79568,4.50146484 C149.522241,4.21207538 149.189562,4.06738281 148.797633,4.06738281 C148.37836,4.06738281 148.032009,4.22005056 147.75857,4.52539062 C147.485131,4.83073069 147.350693,5.24544009 147.35525,5.76953125 L150.226344,5.76953125 Z M155.085547,4.9765625 L153.342383,4.66210938 C153.538347,3.96028295 153.875583,3.44075689 154.354102,3.10351562 C154.83262,2.76627436 155.54355,2.59765625 156.486914,2.59765625 C157.343689,2.59765625 157.981704,2.69905498 158.400977,2.90185547 C158.820249,3.10465596 159.115331,3.36214037 159.28623,3.67431641 C159.45713,3.98649245 159.542578,4.55956614 159.542578,5.39355469 L159.52207,7.63574219 C159.52207,8.27376621 159.552832,8.74430187 159.614355,9.04736328 C159.675879,9.35042469 159.79095,9.67512848 159.95957,10.0214844 L158.05918,10.0214844 C158.009049,9.89387957 157.947526,9.70475386 157.874609,9.45410156 C157.842708,9.3401687 157.819922,9.26497414 157.80625,9.22851562 C157.478123,9.54752764 157.127215,9.78678306 156.753516,9.94628906 C156.379816,10.1057951 155.981057,10.1855469 155.557227,10.1855469 C154.809827,10.1855469 154.220803,9.98274942 153.790137,9.57714844 C153.35947,9.17154745 153.144141,8.65885727 153.144141,8.0390625 C153.144141,7.6289042 153.242121,7.2631852 153.438086,6.94189453 C153.63405,6.62060386 153.908624,6.37451257 154.261816,6.20361328 C154.615008,6.03271399 155.12428,5.88346418 155.789648,5.75585938 C156.687439,5.58723874 157.309503,5.43001375 157.655859,5.28417969 L157.655859,5.09277344 C157.655859,4.72363097 157.564714,4.46045 157.382422,4.30322266 C157.200129,4.14599531 156.856057,4.06738281 156.350195,4.06738281 C156.008397,4.06738281 155.741798,4.13460219 155.550391,4.26904297 C155.358983,4.40348375 155.204037,4.63932123 155.085547,4.9765625 Z M157.655859,6.53515625 C157.409764,6.61718791 157.02012,6.7151687 156.486914,6.82910156 C155.953708,6.94303442 155.605079,7.05468695 155.441016,7.1640625 C155.190363,7.34179776 155.065039,7.56738145 155.065039,7.84082031 C155.065039,8.10970187 155.165298,8.34212142 155.36582,8.53808594 C155.566342,8.73405046 155.821548,8.83203125 156.131445,8.83203125 C156.477801,8.83203125 156.808201,8.7181001 157.122656,8.49023438 C157.355079,8.31705643 157.507747,8.10514448 157.580664,7.85449219 C157.630794,7.69042887 157.655859,7.37825751 157.655859,6.91796875 L157.655859,6.53515625 Z M161.387133,10.0214844 L161.387133,0 L163.308031,0 L163.308031,10.0214844 L161.387133,10.0214844 Z M165.227781,10.0214844 L165.227781,0 L167.14868,0 L167.14868,10.0214844 L165.227781,10.0214844 Z M168.15925,2.76171875 L170.203195,2.76171875 L171.939523,7.91601562 L173.634836,2.76171875 L175.624094,2.76171875 L173.060617,9.74804688 L172.602609,11.0126953 C172.433989,11.4365256 172.273346,11.76009 172.120676,11.9833984 C171.968006,12.2067068 171.792552,12.3878574 171.594309,12.5268555 C171.396065,12.6658536 171.152253,12.7740882 170.862863,12.8515625 C170.573474,12.9290368 170.246491,12.9677734 169.881906,12.9677734 C169.512764,12.9677734 169.150463,12.9290368 168.794992,12.8515625 L168.624094,11.3476562 C168.924876,11.4069013 169.196033,11.4365234 169.43757,11.4365234 C169.884187,11.4365234 170.214587,11.3055026 170.428781,11.043457 C170.642975,10.7814115 170.807036,10.4475932 170.920969,10.0419922 L168.15925,2.76171875 Z M0.0478515625,17.7773438 L0.0478515625,16 L1.96875,16 L1.96875,17.7773438 L0.0478515625,17.7773438 Z M0.0478515625,26.0214844 L0.0478515625,18.7617188 L1.96875,18.7617188 L1.96875,26.0214844 L0.0478515625,26.0214844 Z M10.4920156,26.0214844 L8.57111719,26.0214844 L8.57111719,22.3164062 C8.57111719,21.5325482 8.53010197,21.0255545 8.44807031,20.7954102 C8.36603865,20.5652658 8.2327392,20.3863939 8.04816797,20.2587891 C7.86359673,20.1311843 7.64143098,20.0673828 7.38166406,20.0673828 C7.0489801,20.0673828 6.75048049,20.1585277 6.48615625,20.3408203 C6.22183201,20.5231129 6.04068148,20.7646469 5.94269922,21.0654297 C5.84471696,21.3662124 5.79572656,21.9221965 5.79572656,22.7333984 L5.79572656,26.0214844 L3.87482812,26.0214844 L3.87482812,18.7617188 L5.65900781,18.7617188 L5.65900781,19.828125 C6.29247452,19.0078084 7.08999259,18.5976562 8.05158594,18.5976562 C8.47541618,18.5976562 8.8627821,18.6739901 9.21369531,18.8266602 C9.56460852,18.9793302 9.83006811,19.1741525 10.010082,19.4111328 C10.1900959,19.6481132 10.3154202,19.9169907 10.3860586,20.2177734 C10.456697,20.5185562 10.4920156,20.9492159 10.4920156,21.5097656 L10.4920156,26.0214844 Z M15.7203594,18.7617188 L15.7203594,20.2929688 L14.4078594,20.2929688 L14.4078594,23.21875 C14.4078594,23.8112009 14.4203918,24.1564123 14.445457,24.2543945 C14.4705223,24.3523768 14.5274878,24.4332679 14.6163555,24.4970703 C14.7052231,24.5608727 14.8134577,24.5927734 14.9410625,24.5927734 C15.1187978,24.5927734 15.3762822,24.5312506 15.7135234,24.4082031 L15.8775859,25.8984375 C15.4309691,26.0898447 14.9251148,26.1855469 14.3600078,26.1855469 C14.0136519,26.1855469 13.7014806,26.127442 13.4234844,26.0112305 C13.1454882,25.895019 12.9415514,25.7446298 12.811668,25.5600586 C12.6817845,25.3754874 12.5917789,25.1259781 12.5416484,24.8115234 C12.5006326,24.588215 12.480125,24.1370477 12.480125,23.4580078 L12.480125,20.2929688 L11.5982891,20.2929688 L11.5982891,18.7617188 L12.480125,18.7617188 L12.480125,17.3193359 L14.4078594,16.1982422 L14.4078594,18.7617188 L15.7203594,18.7617188 Z M21.2084687,23.7109375 L23.1225312,24.0322266 C22.8764363,24.734053 22.487931,25.2683901 21.9570039,25.6352539 C21.4260768,26.0021177 20.7618581,26.1855469 19.9643281,26.1855469 C18.701952,26.1855469 17.7677166,25.7731161 17.1615937,24.9482422 C16.6830757,24.2874316 16.4438203,23.4534556 16.4438203,22.4462891 C16.4438203,21.243158 16.7582703,20.3009474 17.3871797,19.6196289 C18.0160891,18.9383104 18.8113285,18.5976562 19.7729219,18.5976562 C20.8530054,18.5976562 21.7052104,18.9542608 22.3295625,19.6674805 C22.9539146,20.3807002 23.2524142,21.4732999 23.2250703,22.9453125 L18.4125703,22.9453125 C18.4262422,23.5149768 18.5811886,23.958169 18.8774141,24.2749023 C19.1736395,24.5916357 19.5427764,24.75 19.9848359,24.75 C20.2856187,24.75 20.5385458,24.6679696 20.743625,24.5039062 C20.9487041,24.3398429 21.1036505,24.0755227 21.2084687,23.7109375 Z M21.3178437,21.7695312 C21.3041718,21.2135389 21.1606185,20.7908543 20.8871797,20.5014648 C20.6137408,20.2120754 20.2810618,20.0673828 19.8891328,20.0673828 C19.4698599,20.0673828 19.1235092,20.2200506 18.8500703,20.5253906 C18.5766314,20.8307307 18.4421927,21.2454401 18.44675,21.7695312 L21.3178437,21.7695312 Z M26.5803672,26.0214844 L24.6594687,26.0214844 L24.6594687,18.7617188 L26.4436484,18.7617188 L26.4436484,19.7939453 C26.7489885,19.3063127 27.0235626,18.9850268 27.2673789,18.8300781 C27.5111952,18.6751294 27.7880479,18.5976562 28.0979453,18.5976562 C28.5354475,18.5976562 28.9569928,18.7184233 29.3625937,18.9599609 L28.7678672,20.6347656 C28.4442979,20.4251292 28.1435196,20.3203125 27.8655234,20.3203125 C27.5966419,20.3203125 27.3687796,20.3943677 27.1819297,20.5424805 C26.9950798,20.6905932 26.8481086,20.9583314 26.7410117,21.3457031 C26.6339148,21.7330749 26.5803672,22.5442647 26.5803672,23.7792969 L26.5803672,26.0214844 Z M34.3448437,23.7109375 L36.2589062,24.0322266 C36.0128113,24.734053 35.624306,25.2683901 35.0933789,25.6352539 C34.5624518,26.0021177 33.8982331,26.1855469 33.1007031,26.1855469 C31.838327,26.1855469 30.9040916,25.7731161 30.2979687,24.9482422 C29.8194507,24.2874316 29.5801953,23.4534556 29.5801953,22.4462891 C29.5801953,21.243158 29.8946453,20.3009474 30.5235547,19.6196289 C31.1524641,18.9383104 31.9477035,18.5976562 32.9092969,18.5976562 C33.9893804,18.5976562 34.8415854,18.9542608 35.4659375,19.6674805 C36.0902896,20.3807002 36.3887892,21.4732999 36.3614453,22.9453125 L31.5489453,22.9453125 C31.5626172,23.5149768 31.7175636,23.958169 32.0137891,24.2749023 C32.3100145,24.5916357 32.6791514,24.75 33.1212109,24.75 C33.4219937,24.75 33.6749208,24.6679696 33.88,24.5039062 C34.0850791,24.3398429 34.2400255,24.0755227 34.3448437,23.7109375 Z M34.4542187,21.7695312 C34.4405468,21.2135389 34.2969935,20.7908543 34.0235547,20.5014648 C33.7501158,20.2120754 33.4174368,20.0673828 33.0255078,20.0673828 C32.6062349,20.0673828 32.2598842,20.2200506 31.9864453,20.5253906 C31.7130064,20.8307307 31.5785677,21.2454401 31.583125,21.7695312 L34.4542187,21.7695312 Z M37.2011172,23.9501953 L39.1288515,23.65625 C39.2108832,24.0299498 39.3772227,24.3136384 39.627875,24.5073242 C39.8785273,24.7010101 40.2294352,24.7978516 40.6806094,24.7978516 C41.1773566,24.7978516 41.5510508,24.7067066 41.8017031,24.5244141 C41.9703237,24.3968093 42.0546328,24.2259125 42.0546328,24.0117188 C42.0546328,23.8658847 42.0090603,23.7451177 41.917914,23.6494141 C41.8222104,23.5582678 41.6080199,23.4739587 41.2753359,23.3964844 C39.725849,23.0546858 38.7437625,22.7425144 38.3290469,22.4599609 C37.7548252,22.0680319 37.4677187,21.523441 37.4677187,20.8261719 C37.4677187,20.1972625 37.7160886,19.6686219 38.2128359,19.2402344 C38.7095832,18.8118468 39.4797578,18.5976562 40.5233828,18.5976562 C41.5168773,18.5976562 42.2551512,18.7594385 42.7382265,19.0830078 C43.2213019,19.4065771 43.5539808,19.885088 43.7362734,20.5185547 L41.92475,20.8535156 C41.8472756,20.5709621 41.7003045,20.3544929 41.483832,20.2041016 C41.2673596,20.0537102 40.9586062,19.9785156 40.5575625,19.9785156 C40.0517006,19.9785156 39.6893995,20.0491529 39.4706484,20.1904297 C39.3248144,20.2906906 39.2518984,20.4205721 39.2518984,20.5800781 C39.2518984,20.7167976 39.3156999,20.8330073 39.4433047,20.9287109 C39.6164826,21.0563157 40.2146212,21.236327 41.2377383,21.46875 C42.2608554,21.701173 42.9752037,21.9860009 43.3808047,22.3232422 C43.7818483,22.6650408 43.9823672,23.141273 43.9823672,23.7519531 C43.9823672,24.417321 43.7043752,24.9892554 43.1483828,25.4677734 C42.5923904,25.9462915 41.7698075,26.1855469 40.6806094,26.1855469 C39.6916721,26.1855469 38.9089651,25.985028 38.3324648,25.5839844 C37.7559646,25.1829407 37.3788524,24.6383498 37.2011172,23.9501953 Z M48.9441094,18.7617188 L48.9441094,20.2929688 L47.6316094,20.2929688 L47.6316094,23.21875 C47.6316094,23.8112009 47.6441418,24.1564123 47.669207,24.2543945 C47.6942722,24.3523768 47.7512378,24.4332679 47.8401055,24.4970703 C47.9289731,24.5608727 48.0372077,24.5927734 48.1648125,24.5927734 C48.3425477,24.5927734 48.6000322,24.5312506 48.9372734,24.4082031 L49.1013359,25.8984375 C48.6547191,26.0898447 48.1488648,26.1855469 47.5837578,26.1855469 C47.2374019,26.1855469 46.9252305,26.127442 46.6472344,26.0112305 C46.3692382,25.895019 46.1653014,25.7446298 46.035418,25.5600586 C45.9055345,25.3754874 45.8155289,25.1259781 45.7653984,24.8115234 C45.7243826,24.588215 45.703875,24.1370477 45.703875,23.4580078 L45.703875,20.2929688 L44.822039,20.2929688 L44.822039,18.7617188 L45.703875,18.7617188 L45.703875,17.3193359 L47.6316094,16.1982422 L47.6316094,18.7617188 L48.9441094,18.7617188 Z M50.2281172,17.7773438 L50.2281172,16 L52.1490156,16 L52.1490156,17.7773438 L50.2281172,17.7773438 Z M50.2281172,26.0214844 L50.2281172,18.7617188 L52.1490156,18.7617188 L52.1490156,26.0214844 L50.2281172,26.0214844 Z M60.6722812,26.0214844 L58.7513828,26.0214844 L58.7513828,22.3164062 C58.7513828,21.5325482 58.7103676,21.0255545 58.6283359,20.7954102 C58.5463043,20.5652658 58.4130048,20.3863939 58.2284336,20.2587891 C58.0438623,20.1311843 57.8216966,20.0673828 57.5619297,20.0673828 C57.2292457,20.0673828 56.9307461,20.1585277 56.6664219,20.3408203 C56.4020976,20.5231129 56.2209471,20.7646469 56.1229648,21.0654297 C56.0249826,21.3662124 55.9759922,21.9221965 55.9759922,22.7333984 L55.9759922,26.0214844 L54.0550937,26.0214844 L54.0550937,18.7617188 L55.8392734,18.7617188 L55.8392734,19.828125 C56.4727401,19.0078084 57.2702582,18.5976562 58.2318515,18.5976562 C58.6556818,18.5976562 59.0430477,18.6739901 59.3939609,18.8266602 C59.7448741,18.9793302 60.0103337,19.1741525 60.1903476,19.4111328 C60.3703616,19.6481132 60.4956858,19.9169907 60.5663242,20.2177734 C60.6369626,20.5185562 60.6722812,20.9492159 60.6722812,21.5097656 L60.6722812,26.0214844 Z M62.393789,26.5 L64.588125,26.7666016 C64.6245835,27.0218112 64.7088925,27.1972651 64.8410547,27.2929688 C65.0233472,27.4296882 65.3104537,27.4980469 65.7023828,27.4980469 C66.2036874,27.4980469 66.5796602,27.4228523 66.8303125,27.2724609 C66.9989331,27.1722 67.126536,27.0104178 67.213125,26.7871094 C67.2723701,26.6276034 67.3019922,26.333661 67.3019922,25.9052734 L67.3019922,24.8457031 C66.7277705,25.6295612 66.0031684,26.0214844 65.128164,26.0214844 C64.1528987,26.0214844 63.3804455,25.6090536 62.8107812,24.7841797 C62.3641644,24.1324837 62.1408594,23.3212939 62.1408594,22.3505859 C62.1408594,21.133783 62.4336624,20.2041048 63.0192773,19.5615234 C63.6048922,18.9189421 64.3329123,18.5976562 65.2033594,18.5976562 C66.1011503,18.5976562 66.8417028,18.991858 67.425039,19.7802734 L67.425039,18.7617188 L69.2228906,18.7617188 L69.2228906,25.2763672 C69.2228906,26.1331423 69.1522533,26.7734354 69.0109765,27.1972656 C68.8696998,27.6210959 68.6714596,27.9537748 68.41625,28.1953125 C68.1610404,28.4368502 67.8203862,28.6259759 67.3942773,28.7626953 C66.9681684,28.8994147 66.4292741,28.9677734 65.7775781,28.9677734 C64.5471032,28.9677734 63.6743906,28.7570008 63.159414,28.3354492 C62.6444375,27.9138976 62.3869531,27.3795605 62.3869531,26.7324219 C62.3869531,26.6686195 62.3892317,26.5911463 62.393789,26.5 Z M64.1096094,22.2412109 C64.1096094,23.0113971 64.2588592,23.5753563 64.5573633,23.9331055 C64.8558674,24.2908547 65.223865,24.4697266 65.6613672,24.4697266 C66.1307706,24.4697266 66.527251,24.2862974 66.8508203,23.9194336 C67.1743896,23.5525698 67.3361719,23.0091182 67.3361719,22.2890625 C67.3361719,21.5371056 67.1812255,20.978843 66.8713281,20.6142578 C66.5614307,20.2496727 66.1695076,20.0673828 65.6955469,20.0673828 C65.2352581,20.0673828 64.8558674,20.2462547 64.5573633,20.6040039 C64.2588592,20.9617531 64.1096094,21.5074833 64.1096094,22.2412109 Z M76.3504765,20.9765625 L74.6073125,20.6621094 C74.803277,19.9602829 75.1405132,19.4407569 75.6190312,19.1035156 C76.0975492,18.7662744 76.8084796,18.5976562 77.7518437,18.5976562 C78.6086188,18.5976562 79.2466333,18.699055 79.6659062,18.9018555 C80.0851792,19.104656 80.3802608,19.3621404 80.5511601,19.6743164 C80.7220594,19.9864924 80.8075078,20.5595661 80.8075078,21.3935547 L80.787,23.6357422 C80.787,24.2737662 80.8177614,24.7443019 80.8792851,25.0473633 C80.9408089,25.3504247 81.0558793,25.6751285 81.2245,26.0214844 L79.3241093,26.0214844 C79.2739789,25.8938796 79.2124561,25.7047539 79.139539,25.4541016 C79.1076378,25.3401687 79.0848516,25.2649741 79.0711797,25.2285156 C78.743053,25.5475276 78.3921451,25.7867831 78.0184453,25.9462891 C77.6447455,26.1057951 77.2459865,26.1855469 76.8221562,26.1855469 C76.0747567,26.1855469 75.4857326,25.9827494 75.0550664,25.5771484 C74.6244002,25.1715475 74.4090703,24.6588573 74.4090703,24.0390625 C74.4090703,23.6289042 74.5070511,23.2631852 74.7030156,22.9418945 C74.8989801,22.6206039 75.1735542,22.3745126 75.5267461,22.2036133 C75.8799379,22.032714 76.3892102,21.8834642 77.0545781,21.7558594 C77.952369,21.5872387 78.5744331,21.4300138 78.920789,21.2841797 L78.920789,21.0927734 C78.920789,20.723631 78.8296441,20.46045 78.6473515,20.3032227 C78.465059,20.1459953 78.1209869,20.0673828 77.615125,20.0673828 C77.2733264,20.0673828 77.0067275,20.1346022 76.8153203,20.269043 C76.6239131,20.4034837 76.4689667,20.6393212 76.3504765,20.9765625 Z M78.920789,22.5351562 C78.6746941,22.6171879 78.2850495,22.7151687 77.7518437,22.8291016 C77.2186379,22.9430344 76.8700086,23.054687 76.7059453,23.1640625 C76.455293,23.3417978 76.3299687,23.5673814 76.3299687,23.8408203 C76.3299687,24.1097019 76.4302281,24.3421214 76.63075,24.5380859 C76.8312718,24.7340505 77.0864776,24.8320312 77.396375,24.8320312 C77.7427309,24.8320312 78.0731312,24.7181001 78.3875859,24.4902344 C78.6200089,24.3170564 78.7726767,24.1051445 78.8455937,23.8544922 C78.8957242,23.6904289 78.920789,23.3782575 78.920789,22.9179688 L78.920789,22.5351562 Z M89.2555781,26.0214844 L87.3346797,26.0214844 L87.3346797,22.3164062 C87.3346797,21.5325482 87.2936644,21.0255545 87.2116328,20.7954102 C87.1296011,20.5652658 86.9963017,20.3863939 86.8117304,20.2587891 C86.6271592,20.1311843 86.4049935,20.0673828 86.1452265,20.0673828 C85.8125426,20.0673828 85.514043,20.1585277 85.2497187,20.3408203 C84.9853945,20.5231129 84.8042439,20.7646469 84.7062617,21.0654297 C84.6082794,21.3662124 84.559289,21.9221965 84.559289,22.7333984 L84.559289,26.0214844 L82.6383906,26.0214844 L82.6383906,18.7617188 L84.4225703,18.7617188 L84.4225703,19.828125 C85.056037,19.0078084 85.8535551,18.5976562 86.8151484,18.5976562 C87.2389786,18.5976562 87.6263446,18.6739901 87.9772578,18.8266602 C88.328171,18.9793302 88.5936306,19.1741525 88.7736445,19.4111328 C88.9536584,19.6481132 89.0789827,19.9169907 89.1496211,20.2177734 C89.2202594,20.5185562 89.2555781,20.9492159 89.2555781,21.5097656 L89.2555781,26.0214844 Z M97.8130234,26.0214844 L96.0288437,26.0214844 L96.0288437,24.9550781 C95.7326183,25.3697937 95.3828496,25.6785472 94.9795273,25.8813477 C94.576205,26.0841481 94.1694708,26.1855469 93.7593125,26.1855469 C92.9253239,26.1855469 92.2109756,25.84945 91.6162461,25.1772461 C91.0215165,24.5050422 90.7241562,23.5673888 90.7241562,22.3642578 C90.7241562,21.1337829 91.0135413,20.1984081 91.5923203,19.5581055 C92.1710992,18.9178028 92.9025372,18.5976562 93.7866562,18.5976562 C94.5978582,18.5976562 95.2996741,18.9348925 95.892125,19.609375 L95.892125,16 L97.8130234,16 L97.8130234,26.0214844 Z M92.6860703,22.234375 C92.6860703,23.0091185 92.7931656,23.5696597 93.0073593,23.9160156 C93.3172567,24.4173202 93.7501951,24.6679688 94.3061875,24.6679688 C94.748247,24.6679688 95.1242198,24.4799823 95.4341172,24.1040039 C95.7440145,23.7280255 95.8989609,23.1663449 95.8989609,22.4189453 C95.8989609,21.5849568 95.7485718,20.9845396 95.447789,20.6176758 C95.1470063,20.250812 94.761919,20.0673828 94.2925156,20.0673828 C93.8367841,20.0673828 93.4551148,20.2485333 93.1474961,20.6108398 C92.8398773,20.9731463 92.6860703,21.5143193 92.6860703,22.234375 Z" id="Isaysomething,itisreallyinterestingand" fill="#50525B"></path>
                    <path d="M106.724789,19.0625 C107.226094,19.0625 107.718276,19.1923815 108.201352,19.4521484 C108.684427,19.7119154 109.0604,20.0833309 109.329281,20.5664062 C109.598163,21.0494816 109.732602,21.5507787 109.732602,22.0703125 C109.732602,22.904301 109.438659,23.6152314 108.850766,24.203125 C108.262872,24.7910186 107.55422,25.0849609 106.724789,25.0849609 C105.8908,25.0849609 105.17987,24.7910186 104.591977,24.203125 C104.004083,23.6152314 103.710141,22.904301 103.710141,22.0703125 C103.710141,21.5462213 103.844579,21.043785 104.113461,20.5629883 C104.382342,20.0821916 104.758315,19.7119154 105.241391,19.4521484 C105.724466,19.1923815 106.218927,19.0625 106.724789,19.0625 Z M115.13511,19.0625 C115.636415,19.0625 116.128598,19.1923815 116.611673,19.4521484 C117.094748,19.7119154 117.470721,20.0833309 117.739603,20.5664062 C118.008484,21.0494816 118.142923,21.5507787 118.142923,22.0703125 C118.142923,22.904301 117.848981,23.6152314 117.261087,24.203125 C116.673193,24.7910186 115.964542,25.0849609 115.13511,25.0849609 C114.301122,25.0849609 113.590191,24.7910186 113.002298,24.203125 C112.414404,23.6152314 112.120462,22.904301 112.120462,22.0703125 C112.120462,21.5462213 112.254901,21.043785 112.523782,20.5629883 C112.792664,20.0821916 113.168637,19.7119154 113.651712,19.4521484 C114.134787,19.1923815 114.629248,19.0625 115.13511,19.0625 Z M123.545432,19.0625 C124.046736,19.0625 124.538919,19.1923815 125.021994,19.4521484 C125.50507,19.7119154 125.881042,20.0833309 126.149924,20.5664062 C126.418805,21.0494816 126.553244,21.5507787 126.553244,22.0703125 C126.553244,22.904301 126.259302,23.6152314 125.671408,24.203125 C125.083515,24.7910186 124.374863,25.0849609 123.545432,25.0849609 C122.711443,25.0849609 122.000513,24.7910186 121.412619,24.203125 C120.824726,23.6152314 120.530783,22.904301 120.530783,22.0703125 C120.530783,21.5462213 120.665222,21.043785 120.934104,20.5629883 C121.202985,20.0821916 121.578958,19.7119154 122.062033,19.4521484 C122.545109,19.1923815 123.03957,19.0625 123.545432,19.0625 Z M131.955753,19.0625 C132.457058,19.0625 132.94924,19.1923815 133.432316,19.4521484 C133.915391,19.7119154 134.291364,20.0833309 134.560245,20.5664062 C134.829127,21.0494816 134.963566,21.5507787 134.963566,22.0703125 C134.963566,22.904301 134.669623,23.6152314 134.08173,24.203125 C133.493836,24.7910186 132.785184,25.0849609 131.955753,25.0849609 C131.121765,25.0849609 130.410834,24.7910186 129.822941,24.203125 C129.235047,23.6152314 128.941105,22.904301 128.941105,22.0703125 C128.941105,21.5462213 129.075543,21.043785 129.344425,20.5629883 C129.613307,20.0821916 129.989279,19.7119154 130.472355,19.4521484 C130.95543,19.1923815 131.449891,19.0625 131.955753,19.0625 Z M140.366074,19.0625 C140.867379,19.0625 141.359562,19.1923815 141.842637,19.4521484 C142.325712,19.7119154 142.701685,20.0833309 142.970567,20.5664062 C143.239448,21.0494816 143.373887,21.5507787 143.373887,22.0703125 C143.373887,22.904301 143.079945,23.6152314 142.492051,24.203125 C141.904157,24.7910186 141.195506,25.0849609 140.366074,25.0849609 C139.532086,25.0849609 138.821155,24.7910186 138.233262,24.203125 C137.645368,23.6152314 137.351426,22.904301 137.351426,22.0703125 C137.351426,21.5462213 137.485865,21.043785 137.754746,20.5629883 C138.023628,20.0821916 138.399601,19.7119154 138.882676,19.4521484 C139.365751,19.1923815 139.860213,19.0625 140.366074,19.0625 Z M148.776396,19.0625 C149.2777,19.0625 149.769883,19.1923815 150.252958,19.4521484 C150.736034,19.7119154 151.112006,20.0833309 151.380888,20.5664062 C151.64977,21.0494816 151.784208,21.5507787 151.784208,22.0703125 C151.784208,22.904301 151.490266,23.6152314 150.902372,24.203125 C150.314479,24.7910186 149.605827,25.0849609 148.776396,25.0849609 C147.942407,25.0849609 147.231477,24.7910186 146.643583,24.203125 C146.05569,23.6152314 145.761747,22.904301 145.761747,22.0703125 C145.761747,21.5462213 145.896186,21.043785 146.165068,20.5629883 C146.433949,20.0821916 146.809922,19.7119154 147.292997,19.4521484 C147.776073,19.1923815 148.270534,19.0625 148.776396,19.0625 Z M157.186717,19.0625 C157.688022,19.0625 158.180204,19.1923815 158.66328,19.4521484 C159.146355,19.7119154 159.522328,20.0833309 159.791209,20.5664062 C160.060091,21.0494816 160.19453,21.5507787 160.19453,22.0703125 C160.19453,22.904301 159.900587,23.6152314 159.312694,24.203125 C158.7248,24.7910186 158.016148,25.0849609 157.186717,25.0849609 C156.352729,25.0849609 155.641798,24.7910186 155.053905,24.203125 C154.466011,23.6152314 154.172069,22.904301 154.172069,22.0703125 C154.172069,21.5462213 154.306507,21.043785 154.575389,20.5629883 C154.844271,20.0821916 155.220243,19.7119154 155.703319,19.4521484 C156.186394,19.1923815 156.680855,19.0625 157.186717,19.0625 Z M165.597038,19.0625 C166.098343,19.0625 166.590526,19.1923815 167.073601,19.4521484 C167.556676,19.7119154 167.932649,20.0833309 168.201531,20.5664062 C168.470412,21.0494816 168.604851,21.5507787 168.604851,22.0703125 C168.604851,22.904301 168.310909,23.6152314 167.723015,24.203125 C167.135121,24.7910186 166.42647,25.0849609 165.597038,25.0849609 C164.76305,25.0849609 164.05212,24.7910186 163.464226,24.203125 C162.876332,23.6152314 162.58239,22.904301 162.58239,22.0703125 C162.58239,21.5462213 162.716829,21.043785 162.98571,20.5629883 C163.254592,20.0821916 163.630565,19.7119154 164.11364,19.4521484 C164.596715,19.1923815 165.091177,19.0625 165.597038,19.0625 Z M174.00736,19.0625 C174.508664,19.0625 175.000847,19.1923815 175.483922,19.4521484 C175.966998,19.7119154 176.34297,20.0833309 176.611852,20.5664062 C176.880734,21.0494816 177.015172,21.5507787 177.015172,22.0703125 C177.015172,22.904301 176.72123,23.6152314 176.133336,24.203125 C175.545443,24.7910186 174.836791,25.0849609 174.00736,25.0849609 C173.173371,25.0849609 172.462441,24.7910186 171.874547,24.203125 C171.286654,23.6152314 170.992711,22.904301 170.992711,22.0703125 C170.992711,21.5462213 171.12715,21.043785 171.396032,20.5629883 C171.664913,20.0821916 172.040886,19.7119154 172.523961,19.4521484 C173.007037,19.1923815 173.501498,19.0625 174.00736,19.0625 Z" id="●●●●●●●●●" fill="#45B8FF"></path>
                    <polygon id="." fill="#50525B" points="179.191119 26.0214844 179.191119 24.1005859 181.112017 24.1005859 181.112017 26.0214844"></polygon>
                </g>
                <path d="M18.5332031,65.7910156 L20.1738281,65.6210938 C20.2207034,65.9921894 20.3593738,66.2861317 20.5898438,66.5029297 C20.8203137,66.7197276 21.085936,66.828125 21.3867188,66.828125 C21.7304705,66.828125 22.0214832,66.688478 22.2597656,66.4091797 C22.4980481,66.1298814 22.6171875,65.7089872 22.6171875,65.1464844 C22.6171875,64.619138 22.4990246,64.2236341 22.2626953,63.9599609 C22.026366,63.6962877 21.7187519,63.5644531 21.3398438,63.5644531 C20.8671851,63.5644531 20.4433612,63.7734354 20.0683594,64.1914062 L18.7324219,63.9980469 L19.5761719,59.5273438 L23.9296875,59.5273438 L23.9296875,61.0683594 L20.8242188,61.0683594 L20.5664062,62.5273438 C20.9335956,62.3437491 21.3085918,62.2519531 21.6914062,62.2519531 C22.4218787,62.2519531 23.0410131,62.5175755 23.5488281,63.0488281 C24.0566432,63.5800808 24.3105469,64.269527 24.3105469,65.1171875 C24.3105469,65.8242223 24.1054708,66.4550754 23.6953125,67.0097656 C23.136716,67.7675819 22.3613331,68.1464844 21.3691406,68.1464844 C20.5761679,68.1464844 19.92969,67.9335959 19.4296875,67.5078125 C18.929685,67.0820291 18.6308599,66.5097692 18.5332031,65.7910156 Z M34.4921719,68 L32.962875,68 L32.962875,67.0859375 C32.7089675,67.441408 32.4091658,67.7060538 32.0634609,67.8798828 C31.7177561,68.0537118 31.3691268,68.140625 31.0175625,68.140625 C30.3027152,68.140625 29.6904166,67.8525419 29.1806484,67.2763672 C28.6708803,66.7001924 28.416,65.8964895 28.416,64.8652344 C28.416,63.8105416 28.6640444,63.0087918 29.1601406,62.4599609 C29.6562369,61.9111301 30.2831837,61.6367188 31.041,61.6367188 C31.736316,61.6367188 32.3378725,61.9257784 32.8456875,62.5039062 L32.8456875,59.4101562 L34.4921719,59.4101562 L34.4921719,68 Z M30.0976406,64.7539062 C30.0976406,65.4179721 30.1894366,65.898436 30.3730313,66.1953125 C30.6386576,66.6250021 31.0097476,66.8398438 31.4863125,66.8398438 C31.8652206,66.8398438 32.187483,66.6787125 32.4531094,66.3564453 C32.7187357,66.0341781 32.8515469,65.5527376 32.8515469,64.9121094 C32.8515469,64.1972621 32.7226419,63.6826188 32.4648281,63.3681641 C32.2070143,63.0537094 31.8769395,62.8964844 31.4745938,62.8964844 C31.0839668,62.8964844 30.7568216,63.0517563 30.4931484,63.3623047 C30.2294752,63.6728531 30.0976406,64.1367157 30.0976406,64.7539062 Z M37.3036875,63.6757812 L35.8095469,63.40625 C35.9775165,62.8046845 36.2665761,62.3593764 36.6767344,62.0703125 C37.0868927,61.7812486 37.6962616,61.6367188 38.5048594,61.6367188 C39.239238,61.6367188 39.7861076,61.7236319 40.1454844,61.8974609 C40.5048612,62.0712899 40.7577883,62.2919908 40.9042734,62.5595703 C41.0507585,62.8271498 41.124,63.3183558 41.124,64.0332031 L41.1064219,65.9550781 C41.1064219,66.5019559 41.1327888,66.9052721 41.1855234,67.1650391 C41.2382581,67.424806 41.3368899,67.7031235 41.4814219,68 L39.8525156,68 C39.8095467,67.8906245 39.7568128,67.7285167 39.6943125,67.5136719 C39.6669686,67.4160151 39.6474376,67.3515627 39.6357188,67.3203125 C39.3544673,67.5937514 39.0536891,67.7988274 38.733375,67.9355469 C38.4130609,68.0722663 38.0712674,68.140625 37.7079844,68.140625 C37.0673562,68.140625 36.5624784,67.9667986 36.1933359,67.6191406 C35.8241935,67.2714826 35.639625,66.8320339 35.639625,66.3007812 C35.639625,65.949217 35.7236085,65.6357436 35.8915781,65.3603516 C36.0595477,65.0849596 36.2948969,64.8740242 36.5976328,64.7275391 C36.9003687,64.581054 37.3368878,64.4531255 37.9072031,64.34375 C38.6767382,64.199218 39.209936,64.0644537 39.5068125,63.9394531 L39.5068125,63.7753906 C39.5068125,63.4589828 39.4286883,63.2333991 39.2724375,63.0986328 C39.1161867,62.9638665 38.8212678,62.8964844 38.3876719,62.8964844 C38.0947017,62.8964844 37.8661883,62.954101 37.702125,63.0693359 C37.5380617,63.1845709 37.4052505,63.3867173 37.3036875,63.6757812 Z M39.5068125,65.0117188 C39.2958739,65.0820316 38.9618929,65.1660151 38.5048594,65.2636719 C38.0478258,65.3613286 37.7490007,65.4570308 37.608375,65.5507812 C37.3935302,65.7031258 37.2861094,65.8964832 37.2861094,66.1308594 C37.2861094,66.3613293 37.372046,66.560546 37.5439219,66.7285156 C37.7157977,66.8964852 37.9345455,66.9804688 38.2001719,66.9804688 C38.4970484,66.9804688 38.7802487,66.8828135 39.0497813,66.6875 C39.249001,66.5390618 39.3798591,66.3574229 39.4423594,66.1425781 C39.4853283,66.0019524 39.5068125,65.734377 39.5068125,65.3398438 L39.5068125,65.0117188 Z M41.92575,61.7773438 L43.6777031,61.7773438 L45.1659844,66.1953125 L46.6191094,61.7773438 L48.3241875,61.7773438 L46.1269219,67.765625 L45.7343438,68.8496094 C45.5898118,69.2128924 45.4521178,69.4902334 45.3212578,69.6816406 C45.1903978,69.8730478 45.0400087,70.0283197 44.8700859,70.1474609 C44.7001632,70.2666022 44.4911809,70.3593747 44.2431328,70.4257812 C43.9950847,70.4921878 43.7148141,70.5253906 43.4023125,70.5253906 C43.0859047,70.5253906 42.7753609,70.4921878 42.4706719,70.4257812 L42.3241875,69.1367188 C42.5820013,69.1875003 42.8144208,69.2128906 43.0214531,69.2128906 C43.4042675,69.2128906 43.6874678,69.1005871 43.8710625,68.8759766 C44.0546572,68.6513661 44.1952808,68.3652361 44.2929375,68.0175781 L41.92575,61.7773438 Z M48.7567969,66.2246094 L50.4091406,65.9726562 C50.4794535,66.2929704 50.6220302,66.536132 50.836875,66.7021484 C51.0517198,66.8681649 51.3524981,66.9511719 51.7392188,66.9511719 C52.1650021,66.9511719 52.4853114,66.8730477 52.7001563,66.7167969 C52.8446882,66.6074213 52.9169531,66.4609384 52.9169531,66.2773438 C52.9169531,66.1523431 52.877891,66.0488285 52.7997656,65.9667969 C52.717734,65.8886715 52.5341421,65.8164066 52.2489844,65.75 C50.9208527,65.4570298 50.0790643,65.1894543 49.7235938,64.9472656 C49.2314038,64.6113264 48.9853125,64.1445342 48.9853125,63.546875 C48.9853125,63.0078098 49.198201,62.5546893 49.6239844,62.1875 C50.0497678,61.8203107 50.7099174,61.6367188 51.6044531,61.6367188 C52.4560199,61.6367188 53.0888261,61.7753892 53.5028906,62.0527344 C53.9169552,62.3300795 54.2021086,62.7402317 54.3583594,63.2832031 L52.805625,63.5703125 C52.7392184,63.3281238 52.6132431,63.1425788 52.4276953,63.0136719 C52.2421475,62.884765 51.9775017,62.8203125 51.63375,62.8203125 C51.2001541,62.8203125 50.8896103,62.8808588 50.7021094,63.0019531 C50.5771088,63.0878911 50.5146094,63.1992181 50.5146094,63.3359375 C50.5146094,63.4531256 50.5692963,63.552734 50.6786719,63.6347656 C50.8271101,63.7441412 51.3398003,63.8984365 52.2167578,64.0976562 C53.0937153,64.296876 53.7060139,64.5410142 54.0536719,64.8300781 C54.3974236,65.1230483 54.5692969,65.5312474 54.5692969,66.0546875 C54.5692969,66.6250029 54.331018,67.1152323 53.8544531,67.5253906 C53.3778882,67.9355489 52.6728172,68.140625 51.7392188,68.140625 C50.8915583,68.140625 50.2206665,67.9687517 49.7265234,67.625 C49.2323803,67.2812483 48.9091414,66.8144561 48.7567969,66.2246094 Z M60.4911563,63.6757812 L58.9970156,63.40625 C59.1649852,62.8046845 59.4540448,62.3593764 59.8642031,62.0703125 C60.2743614,61.7812486 60.8837303,61.6367188 61.6923281,61.6367188 C62.4267068,61.6367188 62.9735763,61.7236319 63.3329531,61.8974609 C63.6923299,62.0712899 63.9452571,62.2919908 64.0917422,62.5595703 C64.2382273,62.8271498 64.3114688,63.3183558 64.3114688,64.0332031 L64.2938906,65.9550781 C64.2938906,66.5019559 64.3202576,66.9052721 64.3729922,67.1650391 C64.4257268,67.424806 64.5243587,67.7031235 64.6688906,68 L63.0399844,68 C62.9970154,67.8906245 62.9442816,67.7285167 62.8817813,67.5136719 C62.8544374,67.4160151 62.8349063,67.3515627 62.8231875,67.3203125 C62.5419361,67.5937514 62.2411579,67.7988274 61.9208438,67.9355469 C61.6005297,68.0722663 61.2587362,68.140625 60.8954531,68.140625 C60.2548249,68.140625 59.7499472,67.9667986 59.3808047,67.6191406 C59.0116622,67.2714826 58.8270938,66.8320339 58.8270938,66.3007812 C58.8270938,65.949217 58.9110773,65.6357436 59.0790469,65.3603516 C59.2470165,65.0849596 59.4823657,64.8740242 59.7851016,64.7275391 C60.0878375,64.581054 60.5243565,64.4531255 61.0946719,64.34375 C61.864207,64.199218 62.3974048,64.0644537 62.6942813,63.9394531 L62.6942813,63.7753906 C62.6942813,63.4589828 62.616157,63.2333991 62.4599063,63.0986328 C62.3036555,62.9638665 62.0087365,62.8964844 61.5751406,62.8964844 C61.2821704,62.8964844 61.0536571,62.954101 60.8895938,63.0693359 C60.7255304,63.1845709 60.5927193,63.3867173 60.4911563,63.6757812 Z M62.6942813,65.0117188 C62.4833427,65.0820316 62.1493617,65.1660151 61.6923281,65.2636719 C61.2352946,65.3613286 60.9364695,65.4570308 60.7958438,65.5507812 C60.5809989,65.7031258 60.4735781,65.8964832 60.4735781,66.1308594 C60.4735781,66.3613293 60.5595148,66.560546 60.7313906,66.7285156 C60.9032665,66.8964852 61.1220143,66.9804688 61.3876406,66.9804688 C61.6845171,66.9804688 61.9677174,66.8828135 62.23725,66.6875 C62.4364698,66.5390618 62.5673278,66.3574229 62.6298281,66.1425781 C62.6727971,66.0019524 62.6942813,65.734377 62.6942813,65.3398438 L62.6942813,65.0117188 Z M65.7401719,68.4101562 L67.6210313,68.6386719 C67.6522814,68.857423 67.7245463,69.0078121 67.8378281,69.0898438 C67.9940789,69.2070318 68.2401702,69.265625 68.5761094,69.265625 C69.005799,69.265625 69.3280614,69.2011725 69.5429063,69.0722656 C69.6874382,68.9863277 69.7968121,68.8476572 69.8710313,68.65625 C69.9218128,68.5195306 69.9472031,68.26758 69.9472031,67.9003906 L69.9472031,66.9921875 C69.4550132,67.6640659 68.8339256,68 68.0839219,68 C67.2479802,68 66.5858774,67.6464879 66.0975938,66.9394531 C65.7147793,66.3808566 65.523375,65.685551 65.523375,64.8535156 C65.523375,63.8105417 65.7743491,63.0136746 66.2763047,62.4628906 C66.7782603,61.9121066 67.4022775,61.6367188 68.148375,61.6367188 C68.9179101,61.6367188 69.5526694,61.974606 70.0526719,62.6503906 L70.0526719,61.7773438 L71.5936875,61.7773438 L71.5936875,67.3613281 C71.5936875,68.0957068 71.5331412,68.6445294 71.4120469,69.0078125 C71.2909525,69.3710956 71.1210323,69.656249 70.9022813,69.8632812 C70.6835302,70.0703135 70.3915409,70.2324213 70.0263047,70.3496094 C69.6610685,70.4667975 69.199159,70.5253906 68.6405625,70.5253906 C67.5858697,70.5253906 66.8378303,70.3447284 66.3964219,69.9833984 C65.9550134,69.6220685 65.7343125,69.1640653 65.7343125,68.609375 C65.7343125,68.5546872 65.7362656,68.4882816 65.7401719,68.4101562 Z M67.210875,64.7597656 C67.210875,65.4199252 67.3388034,65.9033188 67.5946641,66.2099609 C67.8505247,66.5166031 68.1659513,66.6699219 68.5409531,66.6699219 C68.9432989,66.6699219 69.2831392,66.5126969 69.5604844,66.1982422 C69.8378295,65.8837875 69.9765,65.4179718 69.9765,64.8007812 C69.9765,64.1562468 69.8436888,63.6777359 69.5780625,63.3652344 C69.3124362,63.0527328 68.976502,62.8964844 68.57025,62.8964844 C68.1757168,62.8964844 67.8505247,63.0498032 67.5946641,63.3564453 C67.3388034,63.6630875 67.210875,64.1308562 67.210875,64.7597656 Z M72.7997344,64.8007812 C72.7997344,64.2539035 72.9344987,63.7246119 73.2040313,63.2128906 C73.4735639,62.7011693 73.855396,62.3105482 74.3495391,62.0410156 C74.8436822,61.771483 75.3954345,61.6367188 76.0048125,61.6367188 C76.9462235,61.6367188 77.7177001,61.9423798 78.3192656,62.5537109 C78.9208311,63.1650421 79.2216094,63.9374953 79.2216094,64.8710938 C79.2216094,65.8125047 78.9179015,66.5927703 78.3104766,67.2119141 C77.7030517,67.8310578 76.9384109,68.140625 76.0165313,68.140625 C75.4462159,68.140625 74.902276,68.01172 74.3846953,67.7539062 C73.8671146,67.4960925 73.4735639,67.1181666 73.2040313,66.6201172 C72.9344987,66.1220678 72.7997344,65.5156286 72.7997344,64.8007812 Z M74.4872344,64.8886719 C74.4872344,65.5058625 74.6337173,65.978514 74.9266875,66.3066406 C75.2196577,66.6347673 75.5809822,66.7988281 76.0106719,66.7988281 C76.4403615,66.7988281 76.8007095,66.6347673 77.0917266,66.3066406 C77.3827436,65.978514 77.52825,65.5019563 77.52825,64.8769531 C77.52825,64.2675751 77.3827436,63.7988298 77.0917266,63.4707031 C76.8007095,63.1425765 76.4403615,62.9785156 76.0106719,62.9785156 C75.5809822,62.9785156 75.2196577,63.1425765 74.9266875,63.4707031 C74.6337173,63.7988298 74.4872344,64.2714813 74.4872344,64.8886719 Z" id="5daysago" fill="#D3DBE7" fill-rule="nonzero"></path>
            </g>
            <g id="добавить-copy" transform="translate(348.773936, 417.000000)">
                <circle id="Oval-Copy-2" fill="#45B8FF" cx="25.4909091" cy="25.4909091" r="22.5818182"></circle>
                <g id="+" transform="translate(0.773936, -0.000000)">
                    <g id="Oval-Copy-2">
                        <use fill="black" fill-opacity="1" filter="url(#filter-6)" xlink:href="#path-5"></use>
                        <use fill="#45B8FF" fill-rule="evenodd" xlink:href="#path-5"></use>
                    </g>
                    <path d="M25,25 L17,25 L25,25 L25,17 L25,25 Z M25,25 L33,25 L25,25 L25,33 L25,25 Z" id="Combined-Shape" stroke="#FFFFFF" stroke-width="2" stroke-linecap="round" stroke-linejoin="round"></path>
                </g>
            </g>
        </g>
    </g>
</svg>