<?xml version="1.0" encoding="utf-8"?>
<!-- Generator: Adobe Illustrator 22.1.0, SVG Export Plug-In . SVG Version: 6.00 Build 0)  -->
<svg version="1.1" id="Слой_1" xmlns="http://www.w3.org/2000/svg" xmlns:xlink="http://www.w3.org/1999/xlink" x="0px" y="0px"
	 viewBox="0 0 946 557" style="enable-background:new 0 0 946 557;" xml:space="preserve">
<style type="text/css">
	.st0{fill:#E6EAFF;}
	.st1{fill:#F6FAFF;}
	.st2{fill:#FFFFFF;}
	.st3{fill:none;stroke:#6CD8FF;stroke-width:2;}
	.st4{fill:#6CD8FF;}
	.st5{fill:#F2F8FF;}
	.st6{fill:#6DACFF;}
	.st7{fill:none;stroke:#000000;stroke-width:12;}
	.st8{fill:#1A1A1A;}
	.st9{fill:#5296EF;}
	.st10{fill:#50525B;}
	.st11{fill:#FF7575;}
	.st12{fill:#45B8FF;}
	.st13{fill:none;}
	.st14{font-family:'MyriadPro-Regular';}
	.st15{font-size:12px;}
</style>
<title>5.4</title>
<desc>Created with Sketch.</desc>
<g id="Page-3">
	<g id="_x35_.4" transform="translate(-22.000000, 19.000000)">
		<path id="Combined-Shape-Copy-8" class="st0" d="M179.8,473.1l-4.3,1.3c-2.3-8.2-5.5-15.5-9.6-22c-11.4-18.2-46.1-9.3-77.9-36.4
			s-51.2-40.7-42.3-39.9c23.8,2.2,67.6,15.7,96.3,39.6c13.5,11.2,23.9,24,31.3,38.3c-7.1-22.5-19.5-55.8-45.1-58.9
			C90,390.3,69.8,349,53.5,339.8s-37.7-6.5-29.6-11.8c12.7-8.4,86.4-2.2,113.5,36.5c7.9,11.3,15.5,25.7,22,40.2
			c-2.1-6.2-3.9-11.6-5.6-16.2c-15.7-43.2-28.8-53.2-36.3-91.7c-7.9-40.4,11-26.3,15.8-101.9c0.7-10.8,22.2,14.5,30.3,81.7
			c3.7,30.6-5,73.5,1.7,118.7c2.4,16.5,14.8,44,21.8,76.6c0.2,0.8-1.5,1.3-5.2,1.3c0,1.2-0.3,1.7-0.9,1.4
			C180.6,474.4,180.2,473.9,179.8,473.1z"/>
		<g id="Group-8" transform="translate(176.000000, 0.000000)">
			<g id="Rectangle">
				<g>
					<path id="path-1_2_" d="M40,12h170c22.1,0,40,17.9,40,40v409c0,22.1-17.9,40-40,40H40c-22.1,0-40-17.9-40-40V52
						C0,29.9,17.9,12,40,12z"/>
				</g>
				<g>
					<path id="path-1_1_" class="st1" d="M40,12h170c22.1,0,40,17.9,40,40v409c0,22.1-17.9,40-40,40H40c-22.1,0-40-17.9-40-40V52
						C0,29.9,17.9,12,40,12z"/>
				</g>
			</g>
			<g id="Rectangle-Copy-3">
				<g>
					<path id="path-3_2_" d="M0,346h250v111c0,24.3-19.7,44-44,44H44c-24.3,0-44-19.7-44-44V346z"/>
				</g>
				<g>
					<path id="path-3_1_" class="st2" d="M0,346h250v111c0,24.3-19.7,44-44,44H44c-24.3,0-44-19.7-44-44V346z"/>
				</g>
			</g>
			<g id="next" transform="translate(169.000000, 411.000000)">
				<ellipse id="Oval-Copy-4" class="st3" cx="26" cy="36.3" rx="25" ry="24.3"/>
				<path id="Next" class="st4" d="M9.8,42.5c-0.2,0-0.4-0.1-0.6-0.2C9.1,42.1,9,41.9,9,41.7V30.8c0-0.2,0.1-0.4,0.2-0.6
					C9.4,30.1,9.6,30,9.8,30c0.3,0,0.5,0.1,0.6,0.3l7,9.3v-8.8c0-0.2,0.1-0.4,0.2-0.6C17.8,30,18,30,18.2,30s0.4,0.1,0.6,0.2
					c0.1,0.2,0.2,0.4,0.2,0.6v10.8c0,0.2-0.1,0.4-0.2,0.6c-0.1,0.2-0.3,0.2-0.6,0.2c-0.1,0-0.2,0-0.3-0.1s-0.2-0.1-0.3-0.2l-7-9.3
					v8.7c0,0.2-0.1,0.4-0.2,0.6C10.3,42.4,10.1,42.5,9.8,42.5z M22.7,37.4H28c0-0.4-0.1-0.7-0.3-1c-0.2-0.4-0.5-0.8-0.9-1
					S26,35,25.4,35s-1.1,0.1-1.6,0.4c-0.4,0.3-0.8,0.6-1,1.1C22.9,36.8,22.8,37.1,22.7,37.4L22.7,37.4z M22.7,38.7
					c0.1,0.4,0.2,0.7,0.4,1c0.3,0.5,0.6,0.8,1.1,1.1s1,0.4,1.6,0.4c0.3,0,0.7-0.1,1-0.2s0.6-0.3,0.8-0.4c0.2-0.1,0.3-0.2,0.5-0.2
					s0.3,0.1,0.5,0.2c0.2,0.2,0.3,0.3,0.3,0.5s-0.1,0.4-0.3,0.5c-0.4,0.3-0.8,0.5-1.4,0.7c-0.5,0.2-1.1,0.3-1.5,0.3
					c-0.9,0-1.7-0.2-2.4-0.6c-0.7-0.4-1.2-0.9-1.6-1.6s-0.6-1.4-0.6-2.3c0-0.9,0.2-1.6,0.6-2.3s0.9-1.2,1.5-1.6
					c0.7-0.4,1.4-0.6,2.2-0.6c0.8,0,1.5,0.2,2.1,0.6c0.6,0.4,1.1,0.9,1.4,1.5s0.5,1.4,0.5,2.2c0,0.2-0.1,0.4-0.2,0.5
					s-0.3,0.2-0.5,0.2L22.7,38.7L22.7,38.7z M36.8,42.5c-0.1,0-0.2,0-0.3,0s-0.2-0.1-0.3-0.2l-2.8-3.4l-0.6-0.6L30.1,35
					c-0.1-0.2-0.2-0.4-0.2-0.6c0-0.2,0-0.4,0.2-0.5s0.3-0.2,0.5-0.2c0.3,0,0.5,0.1,0.6,0.3l2.7,3.3l0.4,0.4l3,3.6
					c0.2,0.2,0.2,0.4,0.2,0.6s-0.1,0.3-0.2,0.5C37.2,42.4,37,42.5,36.8,42.5z M30.7,42.5c-0.2,0-0.4-0.1-0.5-0.2
					C30.1,42.2,30,42,30,41.8s0.1-0.4,0.2-0.6l2.7-3.4l0.9,1.2l-2.5,3.2C31.1,42.4,30.9,42.5,30.7,42.5z M34.6,38.4l-1.1-0.9
					l2.6-3.4c0.1-0.1,0.2-0.2,0.3-0.2s0.2-0.1,0.3-0.1c0.2,0,0.4,0.1,0.5,0.2c0.1,0.1,0.2,0.3,0.2,0.5s-0.1,0.4-0.2,0.6L34.6,38.4z
					 M42.3,42.5c-0.5,0-1-0.1-1.4-0.4c-0.4-0.3-0.8-0.6-1-1.1s-0.4-1-0.4-1.6v-7.6c0-0.2,0.1-0.4,0.2-0.6S40,31,40.3,31
					c0.2,0,0.4,0.1,0.6,0.2s0.2,0.3,0.2,0.6v7.6c0,0.4,0.1,0.8,0.4,1.1c0.2,0.3,0.5,0.4,0.9,0.4h0.5c0.2,0,0.4,0.1,0.5,0.2
					c0.1,0.1,0.2,0.3,0.2,0.6c0,0.2-0.1,0.4-0.3,0.6c-0.2,0.1-0.4,0.2-0.7,0.2H42.3z M38.7,35.4c-0.2,0-0.4-0.1-0.5-0.2
					C38.1,35.1,38,35,38,34.8s0.1-0.4,0.2-0.5s0.3-0.2,0.5-0.2h3.7c0.2,0,0.4,0.1,0.5,0.2s0.2,0.3,0.2,0.5s-0.1,0.4-0.2,0.5
					c-0.1,0.1-0.3,0.2-0.5,0.2L38.7,35.4L38.7,35.4z"/>
			</g>
			<g id="give-up" transform="translate(32.000000, 411.000000)">
				<ellipse id="Oval-Copy-5" class="st3" cx="26.1" cy="36.4" rx="25.1" ry="24.4"/>
				<path id="Giveup" class="st4" d="M16.2,35.8c-0.9,0-1.7-0.2-2.4-0.5s-1.4-0.8-2-1.4c-0.6-0.6-1-1.3-1.3-2
					c-0.3-0.8-0.5-1.6-0.5-2.5s0.2-1.7,0.5-2.5s0.8-1.5,1.3-2c0.6-0.6,1.2-1,2-1.4c0.7-0.3,1.6-0.5,2.4-0.5s1.5,0.1,2.1,0.3
					c0.6,0.2,1.2,0.6,1.8,1.1c0.1,0.1,0.2,0.1,0.2,0.2s0.1,0.1,0.1,0.2s0,0.2,0,0.2c0,0.2-0.1,0.4-0.2,0.5s-0.3,0.2-0.5,0.2
					s-0.4-0.1-0.6-0.2c-0.4-0.3-0.8-0.6-1.2-0.8c-0.4-0.2-1-0.3-1.7-0.3c-0.6,0-1.2,0.1-1.8,0.4s-1,0.6-1.5,1.1s-0.7,1-1,1.6
					s-0.4,1.2-0.4,1.9c0,0.7,0.1,1.3,0.4,1.9s0.6,1.1,1,1.6c0.4,0.4,0.9,0.8,1.5,1c0.6,0.3,1.1,0.4,1.8,0.4c0.5,0,1.1-0.1,1.5-0.3
					c0.5-0.2,1-0.4,1.4-0.8c0.2-0.1,0.4-0.2,0.6-0.2s0.3,0.1,0.5,0.2c0.1,0.1,0.2,0.3,0.2,0.6c0,0.1,0,0.2-0.1,0.3
					c0,0.1-0.1,0.2-0.2,0.3c-0.6,0.5-1.2,0.8-1.8,1S16.9,35.8,16.2,35.8z M20.4,33.8l-1.6-0.3v-2.9h-2.2c-0.2,0-0.4-0.1-0.6-0.2
					c-0.2-0.1-0.2-0.3-0.2-0.5s0.1-0.4,0.2-0.5c0.2-0.1,0.4-0.2,0.6-0.2h3c0.2,0,0.4,0.1,0.6,0.2c0.1,0.2,0.2,0.4,0.2,0.6V33.8z
					 M23.4,35.7c-0.2,0-0.4-0.1-0.6-0.2c-0.2-0.2-0.2-0.3-0.2-0.6v-7.1c0-0.2,0.1-0.4,0.2-0.6c0.2-0.1,0.3-0.2,0.6-0.2
					c0.2,0,0.4,0.1,0.6,0.2s0.2,0.3,0.2,0.6v7.1c0,0.2-0.1,0.4-0.2,0.6S23.6,35.7,23.4,35.7z M23.4,25.5c-0.3,0-0.5-0.1-0.7-0.3
					c-0.2-0.2-0.3-0.5-0.3-0.7s0.1-0.5,0.3-0.7c0.2-0.2,0.5-0.3,0.7-0.3s0.5,0.1,0.7,0.3c0.2,0.2,0.3,0.5,0.3,0.7s-0.1,0.5-0.3,0.7
					C23.9,25.4,23.7,25.5,23.4,25.5z M29.7,33.3l2.8-6c0.1-0.2,0.2-0.3,0.4-0.4s0.4,0,0.6,0c0.2,0.1,0.3,0.2,0.4,0.4
					c0.1,0.2,0.1,0.4,0,0.5L30.5,35c-0.2,0.4-0.4,0.5-0.7,0.5c-0.3,0-0.6-0.2-0.8-0.5l-3.4-7c-0.1-0.2-0.1-0.4,0-0.5
					c0.1-0.2,0.2-0.3,0.4-0.4c0.2-0.1,0.4-0.1,0.6,0s0.3,0.2,0.4,0.4L29.7,33.3L29.7,33.3z M35.8,30.6h5.3c0-0.4-0.1-0.7-0.3-1
					c-0.2-0.4-0.5-0.8-0.9-1s-0.8-0.4-1.4-0.4c-0.6,0-1.1,0.1-1.6,0.4c-0.4,0.3-0.8,0.6-1,1.1C35.9,30,35.9,30.3,35.8,30.6z
					 M35.8,31.8c0.1,0.4,0.2,0.7,0.4,1c0.3,0.5,0.6,0.8,1.1,1.1s1,0.4,1.6,0.4c0.3,0,0.7-0.1,1-0.2s0.6-0.3,0.8-0.4
					c0.2-0.1,0.3-0.2,0.5-0.2s0.3,0.1,0.5,0.2c0.2,0.2,0.3,0.3,0.3,0.5s-0.1,0.4-0.3,0.5c-0.4,0.3-0.8,0.5-1.4,0.7
					c-0.5,0.2-1.1,0.3-1.5,0.3c-0.9,0-1.7-0.2-2.4-0.6s-1.2-0.9-1.6-1.6s-0.6-1.4-0.6-2.3c0-0.9,0.2-1.6,0.6-2.3
					c0.4-0.7,0.9-1.2,1.5-1.6c0.7-0.4,1.4-0.6,2.2-0.6s1.5,0.2,2.1,0.6s1.1,0.9,1.4,1.5c0.3,0.6,0.5,1.4,0.5,2.2
					c0,0.2-0.1,0.4-0.2,0.5c-0.1,0.1-0.3,0.2-0.5,0.2L35.8,31.8L35.8,31.8z M20.4,49.7c-0.7,0-1.4-0.2-2-0.5s-1-0.8-1.4-1.4
					c-0.3-0.6-0.5-1.4-0.5-2.2v-3.9c0-0.2,0.1-0.4,0.2-0.6c0.2-0.2,0.3-0.2,0.6-0.2c0.2,0,0.4,0.1,0.6,0.2c0.2,0.2,0.2,0.3,0.2,0.6
					v3.9c0,0.6,0.1,1.1,0.3,1.5s0.5,0.7,0.9,0.9s0.8,0.3,1.3,0.3s0.9-0.1,1.2-0.3c0.4-0.2,0.6-0.4,0.9-0.7c0.2-0.3,0.3-0.7,0.3-1h1
					c0,0.7-0.2,1.3-0.5,1.8s-0.8,1-1.3,1.3S21.1,49.7,20.4,49.7z M23.9,49.7c-0.2,0-0.4-0.1-0.6-0.2c-0.2-0.2-0.2-0.3-0.2-0.6v-7.1
					c0-0.2,0.1-0.4,0.2-0.6c0.2-0.1,0.3-0.2,0.6-0.2c0.2,0,0.4,0.1,0.6,0.2s0.2,0.3,0.2,0.6v7.1c0,0.2-0.1,0.4-0.2,0.6
					S24.2,49.7,23.9,49.7z M28,53.4c-0.2,0-0.4-0.1-0.6-0.2c-0.2-0.2-0.2-0.3-0.2-0.6v-7.3c0-0.8,0.2-1.6,0.6-2.3s0.9-1.2,1.6-1.6
					s1.4-0.6,2.2-0.6s1.6,0.2,2.3,0.6c0.7,0.4,1.2,0.9,1.6,1.6s0.6,1.4,0.6,2.3c0,0.8-0.2,1.6-0.5,2.3c-0.4,0.7-0.8,1.2-1.5,1.6
					c-0.6,0.4-1.3,0.6-2.1,0.6c-0.6,0-1.2-0.1-1.7-0.4c-0.5-0.3-1-0.6-1.4-1.1v4.3c0,0.2-0.1,0.4-0.2,0.6S28.2,53.4,28,53.4z
					 M31.6,48.3c0.5,0,1-0.1,1.5-0.4s0.8-0.6,1-1.1c0.3-0.5,0.4-1,0.4-1.5c0-0.6-0.1-1.1-0.4-1.5c-0.3-0.5-0.6-0.8-1-1.1
					s-0.9-0.4-1.5-0.4c-0.5,0-1,0.1-1.4,0.4c-0.4,0.3-0.8,0.6-1,1.1s-0.4,1-0.4,1.5c0,0.6,0.1,1.1,0.4,1.5c0.2,0.5,0.6,0.8,1,1.1
					C30.5,48.1,31,48.3,31.6,48.3z"/>
			</g>
			<path id="Combined-Shape" class="st5" d="M47.3,410.7c-12.3,0-22.3-10-22.3-22.3C25,376,35,366,47.3,366s22.3,10,22.3,22.3
				C69.7,400.7,59.7,410.7,47.3,410.7z M99.4,410.7c-12.3,0-22.3-10-22.3-22.3s10-22.3,22.3-22.3s22.3,10,22.3,22.3
				C121.8,400.7,111.8,410.7,99.4,410.7z M151.5,410.7c-12.3,0-22.3-10-22.3-22.3s10-22.3,22.3-22.3s22.3,10,22.3,22.3
				C173.9,400.7,163.9,410.7,151.5,410.7z M203.6,410.7c-12.3,0-22.3-10-22.3-22.3s10-22.3,22.3-22.3s22.3,10,22.3,22.3
				C226,400.7,216,410.7,203.6,410.7z"/>
			<polygon id="E" class="st6" points="38.5,400 38.5,375.7 56.6,375.7 56.6,379.8 43.4,379.8 43.4,385.2 55.7,385.2 55.7,389.3 
				43.4,389.3 43.4,395.9 57,395.9 57,400 			"/>
			<path id="A" class="st6" d="M111.5,400h-5.3l-2.1-5.5h-9.7l-2,5.5h-5.2l9.5-24.3h5.2L111.5,400z M102.5,390.4l-3.4-9l-3.3,9
				H102.5z"/>
			<polygon id="I" class="st6" points="149,400 149,375.7 153.9,375.7 153.9,400 			"/>
			<path id="U" class="st6" d="M193.7,375.7h4.9v13.2c0,2.1,0.1,3.4,0.2,4.1c0.2,1,0.7,1.8,1.5,2.4s1.9,0.9,3.2,0.9
				c1.4,0,2.4-0.3,3.2-0.9c0.7-0.6,1.1-1.3,1.3-2.1c0.1-0.8,0.2-2.2,0.2-4.1v-13.5h4.9v12.8c0,2.9-0.1,5-0.4,6.2
				c-0.3,1.2-0.8,2.2-1.5,3.1c-0.7,0.8-1.7,1.5-2.9,2s-2.8,0.7-4.7,0.7c-2.3,0-4.1-0.3-5.3-0.8s-2.1-1.2-2.8-2.1s-1.2-1.8-1.4-2.7
				c-0.3-1.4-0.5-3.5-0.5-6.2v-13H193.7z"/>
			<path id="Rectangle-Copy" class="st7" d="M34,6h182c22.1,0,40,17.9,40,40v421c0,22.1-17.9,40-40,40H34c-22.1,0-40-17.9-40-40V46
				C-6,23.9,11.9,6,34,6z"/>
			<path id="Rectangle_1_" d="M57,11h136v6c0,5.5-4.5,10-10,10H67c-5.5,0-10-4.5-10-10V11z"/>
			<path id="Combined-Shape_1_" class="st8" d="M106,14h38c1.1,0,2,0.9,2,2s-0.9,2-2,2h-38c-1.1,0-2-0.9-2-2S104.9,14,106,14z
				 M152,14c1.1,0,2,0.9,2,2s-0.9,2-2,2s-2-0.9-2-2S150.9,14,152,14z"/>
			<path id="Sentence1" class="st9" d="M73.2,55.2c-1.4,0-2.7-0.2-4-0.7s-2.3-1.2-3.1-2c-0.2-0.2-0.3-0.4-0.3-0.6
				c0-0.3,0.1-0.6,0.4-0.8c0.2-0.2,0.4-0.3,0.6-0.3c0.3,0,0.6,0.2,0.9,0.5c0.7,0.6,1.5,1.1,2.4,1.5c0.9,0.3,1.9,0.5,3,0.5
				s1.9-0.2,2.5-0.6s0.9-0.9,0.9-1.6c0-0.7-0.3-1.2-0.9-1.6c-0.6-0.4-1.7-0.8-3.1-1.1c-2.2-0.5-3.8-1.1-4.8-1.9s-1.5-1.8-1.5-3
				c0-0.8,0.3-1.5,0.8-2.1s1.2-1.1,2.1-1.4c0.9-0.3,2-0.5,3.2-0.5c1.3,0,2.6,0.2,3.6,0.7c1.1,0.5,1.9,1.1,2.4,1.9
				c0.1,0.2,0.2,0.5,0.2,0.7c0,0.3-0.2,0.6-0.5,0.8c-0.2,0.1-0.4,0.2-0.6,0.2s-0.4,0-0.5-0.1s-0.3-0.2-0.4-0.4c-0.4-0.6-1-1-1.7-1.3
				s-1.6-0.5-2.5-0.5c-1.1,0-2,0.2-2.6,0.5s-0.9,0.8-0.9,1.5c0,0.6,0.3,1.1,0.9,1.5s1.6,0.8,3.1,1.1c2.2,0.5,3.9,1.2,4.8,2
				c1,0.8,1.5,1.8,1.5,3c0,0.8-0.2,1.6-0.7,2.2c-0.5,0.6-1.2,1.1-2.1,1.5C75.5,55,74.4,55.2,73.2,55.2z M87.2,55.2
				c-1.3,0-2.4-0.2-3.3-0.7c-0.9-0.4-1.6-1.1-2.1-1.9c-0.5-0.8-0.7-1.8-0.7-3c0-1.8,0.5-3.2,1.6-4.2s2.5-1.5,4.4-1.5
				c1.2,0,2.2,0.2,3.1,0.5c0.9,0.4,1.6,0.9,2.1,1.5c0.5,0.7,0.7,1.4,0.7,2.2c0,0.7-0.2,1.2-0.6,1.6c-0.4,0.4-1,0.5-1.7,0.5h-7.1
				c0,0.9,0.3,1.6,1,2.1c0.6,0.5,1.6,0.7,2.8,0.7c0.7,0,1.3-0.1,1.8-0.2c0.5-0.1,1-0.4,1.5-0.7c0.4-0.3,0.7-0.4,1-0.4
				c0.2,0,0.4,0.1,0.6,0.3s0.4,0.5,0.4,0.7c0,0.3-0.1,0.5-0.4,0.7C90.8,54.7,89.2,55.2,87.2,55.2z M89.8,48.6c0.2,0,0.4-0.1,0.6-0.2
				c0.1-0.1,0.2-0.3,0.2-0.5c0-0.6-0.3-1.1-1-1.5C89,46,88.1,45.8,87,45.8s-1.9,0.2-2.6,0.7s-0.9,1.1-0.9,2L89.8,48.6L89.8,48.6z
				 M96.1,55.2c-0.4,0-0.7-0.1-0.9-0.3c-0.2-0.2-0.3-0.5-0.3-0.9v-8.9c0-0.4,0.1-0.7,0.3-0.9c0.2-0.2,0.5-0.3,0.9-0.3
				s0.7,0.1,0.9,0.3c0.2,0.2,0.3,0.5,0.3,0.9V46c1.1-1.3,2.5-2,4.4-2c1.4,0,2.5,0.4,3.3,1.3c0.8,0.9,1.2,2,1.2,3.5v5.3
				c0,0.4-0.1,0.7-0.3,0.9c-0.2,0.2-0.5,0.3-0.9,0.3s-0.7-0.1-0.9-0.3c-0.2-0.2-0.3-0.5-0.3-0.9v-5.3c0-0.9-0.2-1.6-0.7-2.1
				c-0.4-0.5-1.1-0.7-1.9-0.7c-1.2,0-2.1,0.3-2.8,1c-0.7,0.7-1,1.6-1,2.8V54c0,0.4-0.1,0.6-0.3,0.8C96.8,55.1,96.5,55.2,96.1,55.2z
				 M116.7,52.4c0.2,0.2,0.3,0.4,0.3,0.6c0,0.2-0.1,0.5-0.3,0.7c-0.3,0.5-0.7,0.8-1.3,1.1c-0.6,0.3-1.2,0.4-1.9,0.4
				c-1.1,0-2-0.3-2.6-0.9c-0.6-0.6-0.9-1.5-0.9-2.5v-5.6h-1c-0.4,0-0.7-0.1-0.9-0.3c-0.2-0.2-0.3-0.4-0.3-0.7s0.1-0.5,0.3-0.7
				c0.2-0.2,0.5-0.3,0.9-0.3h1v-3.5c0-0.4,0.1-0.7,0.3-0.9c0.2-0.2,0.5-0.3,0.9-0.3s0.7,0.1,0.9,0.3c0.2,0.2,0.3,0.5,0.3,0.9v3.5
				h2.4c0.4,0,0.7,0.1,0.9,0.3c0.2,0.2,0.3,0.4,0.3,0.7s-0.1,0.5-0.3,0.7c-0.2,0.2-0.5,0.3-0.9,0.3h-2.4V52c0,0.4,0.1,0.7,0.3,0.9
				c0.2,0.2,0.5,0.3,0.9,0.3c0.5,0,1-0.2,1.5-0.6c0.3-0.3,0.6-0.5,0.9-0.5C116.4,52.1,116.6,52.2,116.7,52.4z M124.6,55.2
				c-1.3,0-2.4-0.2-3.3-0.7c-0.9-0.4-1.6-1.1-2.1-1.9c-0.5-0.8-0.7-1.8-0.7-3c0-1.8,0.5-3.2,1.6-4.2s2.5-1.5,4.4-1.5
				c1.2,0,2.2,0.2,3.1,0.5s1.6,0.9,2.1,1.5c0.5,0.7,0.7,1.4,0.7,2.2c0,0.7-0.2,1.2-0.6,1.6s-1,0.5-1.7,0.5H121c0,0.9,0.3,1.6,1,2.1
				c0.6,0.5,1.6,0.7,2.8,0.7c0.7,0,1.3-0.1,1.8-0.2c0.5-0.1,1-0.4,1.5-0.7c0.4-0.3,0.7-0.4,1-0.4c0.2,0,0.4,0.1,0.6,0.3
				c0.2,0.2,0.4,0.5,0.4,0.7c0,0.3-0.1,0.5-0.4,0.7C128.2,54.7,126.6,55.2,124.6,55.2z M127.3,48.6c0.2,0,0.4-0.1,0.6-0.2
				c0.1-0.1,0.2-0.3,0.2-0.5c0-0.6-0.3-1.1-1-1.5c-0.6-0.4-1.5-0.6-2.6-0.6s-1.9,0.2-2.6,0.7s-0.9,1.1-0.9,2L127.3,48.6L127.3,48.6z
				 M133.6,55.2c-0.4,0-0.7-0.1-0.9-0.3s-0.3-0.5-0.3-0.9v-8.9c0-0.4,0.1-0.7,0.3-0.9s0.5-0.3,0.9-0.3s0.7,0.1,0.9,0.3
				s0.3,0.5,0.3,0.9V46c1.1-1.3,2.5-2,4.4-2c1.4,0,2.5,0.4,3.3,1.3c0.8,0.9,1.2,2,1.2,3.5v5.3c0,0.4-0.1,0.7-0.3,0.9
				s-0.5,0.3-0.9,0.3s-0.7-0.1-0.9-0.3s-0.3-0.5-0.3-0.9v-5.3c0-0.9-0.2-1.6-0.7-2.1c-0.4-0.5-1.1-0.7-1.9-0.7c-1.2,0-2.1,0.3-2.8,1
				s-1,1.6-1,2.8V54c0,0.4-0.1,0.6-0.3,0.8C134.2,55.1,133.9,55.2,133.6,55.2z M151.5,55.2c-1.9,0-3.4-0.5-4.5-1.5s-1.6-2.4-1.6-4.1
				c0-1.7,0.5-3.1,1.6-4.1s2.6-1.5,4.5-1.5c1.1,0,2,0.2,2.8,0.5s1.5,0.8,2,1.4c0.2,0.2,0.2,0.4,0.2,0.6c0,0.3-0.2,0.6-0.5,0.9
				c-0.2,0.1-0.3,0.2-0.5,0.2c-0.4,0-0.8-0.2-1.1-0.5c-0.3-0.4-0.8-0.6-1.3-0.8S152,46,151.4,46c-1.1,0-2,0.3-2.7,0.9
				c-0.6,0.6-0.9,1.5-0.9,2.7s0.3,2.1,0.9,2.7c0.6,0.6,1.5,1,2.7,1c1.3,0,2.3-0.4,3.2-1.2c0.4-0.4,0.7-0.5,1-0.5
				c0.2,0,0.5,0.1,0.6,0.2c0.3,0.2,0.5,0.5,0.5,0.9c0,0.2-0.1,0.5-0.3,0.6c-0.7,0.7-1.4,1.2-2.3,1.5
				C153.5,55.1,152.6,55.2,151.5,55.2z M164.6,55.2c-1.3,0-2.4-0.2-3.3-0.7c-0.9-0.4-1.6-1.1-2.1-1.9c-0.5-0.8-0.7-1.8-0.7-3
				c0-1.8,0.5-3.2,1.6-4.2s2.5-1.5,4.4-1.5c1.2,0,2.2,0.2,3.1,0.5s1.6,0.9,2.1,1.5c0.5,0.7,0.7,1.4,0.7,2.2c0,0.7-0.2,1.2-0.6,1.6
				c-0.4,0.4-1,0.5-1.7,0.5H161c0,0.9,0.3,1.6,1,2.1c0.6,0.5,1.6,0.7,2.8,0.7c0.7,0,1.3-0.1,1.8-0.2s1-0.4,1.5-0.7
				c0.4-0.3,0.7-0.4,1-0.4c0.2,0,0.4,0.1,0.6,0.3c0.2,0.2,0.4,0.5,0.4,0.7c0,0.3-0.1,0.5-0.4,0.7C168.2,54.7,166.6,55.2,164.6,55.2z
				 M167.3,48.6c0.2,0,0.4-0.1,0.6-0.2c0.1-0.1,0.2-0.3,0.2-0.5c0-0.6-0.3-1.1-1-1.5c-0.6-0.4-1.5-0.6-2.6-0.6s-1.9,0.2-2.6,0.7
				c-0.6,0.5-0.9,1.1-0.9,2L167.3,48.6L167.3,48.6z M182.7,55.2c-0.4,0-0.7-0.1-0.9-0.3s-0.3-0.5-0.3-0.9V42l-2.2,0.8
				c-0.2,0.1-0.4,0.1-0.6,0.1c-0.2,0-0.4-0.1-0.6-0.2c-0.2-0.1-0.3-0.2-0.4-0.4c-0.1-0.2-0.1-0.4-0.1-0.5c0-0.2,0.1-0.4,0.2-0.6
				c0.1-0.2,0.3-0.3,0.6-0.4l4-1.5c0.2-0.1,0.3-0.1,0.5-0.1c0.3,0,0.6,0.1,0.8,0.3s0.3,0.5,0.3,0.9v13.5c0,0.4-0.1,0.6-0.3,0.8
				C183.4,55.1,183.1,55.2,182.7,55.2z"/>
		</g>
		<g id="уроки" transform="translate(191.000000, 67.000000)">
			<g id="Rectangle-Copy-2">
				<g>
					<path id="path-5_2_" d="M27,11h166c14.9,0,27,12.1,27,27v16c0,14.9-12.1,27-27,27H27C12.1,81,0,68.9,0,54V38
						C0,23.1,12.1,11,27,11z"/>
				</g>
				<g>
					<path id="path-5_1_" class="st2" d="M27,11h166c14.9,0,27,12.1,27,27v16c0,14.9-12.1,27-27,27H27C12.1,81,0,68.9,0,54V38
						C0,23.1,12.1,11,27,11z"/>
				</g>
			</g>
			<g id="I-say-something_x2C_-it" transform="translate(15.957031, 21.724994)">
				<path id="Isaysomething_x2C_itisreallyinterestingand" class="st10" d="M0,21V11h2v10H0z M7.1,19L9,18.7
					c0.1,0.4,0.2,0.7,0.5,0.9s0.6,0.3,1.1,0.3s0.9-0.1,1.1-0.3c0.2-0.1,0.3-0.3,0.3-0.5c0-0.1,0-0.3-0.1-0.4s-0.3-0.2-0.6-0.3
					c-1.5-0.3-2.5-0.7-2.9-0.9c-0.6-0.4-0.9-0.9-0.9-1.6c0-0.6,0.2-1.2,0.7-1.6c0.5-0.4,1.3-0.6,2.3-0.6s1.7,0.2,2.2,0.5
					s0.8,0.8,1,1.4l-1.8,0.3c-0.1-0.3-0.2-0.5-0.4-0.6c-0.2-0.2-0.5-0.2-0.9-0.2c-0.5,0-0.9,0.1-1.1,0.2c-0.1,0.1-0.2,0.2-0.2,0.4
					c0,0.1,0.1,0.3,0.2,0.3c0.2,0.1,0.8,0.3,1.8,0.5s1.7,0.5,2.1,0.9c0.4,0.3,0.6,0.8,0.6,1.4c0,0.7-0.3,1.2-0.8,1.7
					c-0.6,0.5-1.4,0.7-2.5,0.7c-1,0-1.8-0.2-2.3-0.6C7.6,20.2,7.2,19.6,7.1,19z M16.9,16l-1.7-0.3c0.2-0.7,0.5-1.2,1-1.6
					c0.5-0.3,1.2-0.5,2.1-0.5s1.5,0.1,1.9,0.3s0.7,0.5,0.9,0.8c0.2,0.3,0.3,0.9,0.3,1.7v2.2c0,0.6,0,1.1,0.1,1.4s0.2,0.6,0.3,1h-1.9
					c-0.1-0.1-0.1-0.3-0.2-0.6c0-0.1-0.1-0.2-0.1-0.2c-0.3,0.3-0.7,0.6-1.1,0.7c-0.4,0.2-0.8,0.2-1.2,0.2c-0.7,0-1.3-0.2-1.8-0.6
					C15.2,20.2,15,19.7,15,19c0-0.4,0.1-0.8,0.3-1.1c0.2-0.3,0.5-0.6,0.8-0.7c0.4-0.2,0.9-0.3,1.5-0.4c0.9-0.2,1.5-0.3,1.9-0.5v-0.2
					c0-0.4-0.1-0.6-0.3-0.8c-0.2-0.2-0.5-0.2-1-0.2c-0.3,0-0.6,0.1-0.8,0.2C17.2,15.4,17,15.6,16.9,16z M19.5,17.5
					c-0.2,0.1-0.6,0.2-1.2,0.3c-0.5,0.1-0.9,0.2-1,0.3c-0.3,0.2-0.4,0.4-0.4,0.7c0,0.3,0.1,0.5,0.3,0.7c0.2,0.2,0.5,0.3,0.8,0.3
					s0.7-0.1,1-0.3c0.2-0.2,0.4-0.4,0.5-0.6s0.1-0.5,0.1-0.9L19.5,17.5L19.5,17.5z M22.3,13.8h2L26,19l1.7-5.2h2l-2.6,7L26.7,22
					c-0.2,0.4-0.3,0.7-0.5,1c-0.2,0.2-0.3,0.4-0.5,0.5s-0.4,0.2-0.7,0.3c-0.3,0.1-0.6,0.1-1,0.1s-0.7,0-1.1-0.1l-0.2-1.5
					c0.3,0.1,0.6,0.1,0.8,0.1c0.4,0,0.8-0.1,1-0.4s0.4-0.6,0.5-1L22.3,13.8z M34.1,19l1.9-0.3c0.1,0.4,0.2,0.7,0.5,0.9
					s0.6,0.3,1.1,0.3s0.9-0.1,1.1-0.3c0.2-0.1,0.3-0.3,0.3-0.5c0-0.1,0-0.3-0.1-0.4s-0.3-0.2-0.6-0.3c-1.5-0.3-2.5-0.7-2.9-0.9
					c-0.6-0.4-0.9-0.9-0.9-1.6c0-0.6,0.2-1.2,0.7-1.6c0.5-0.4,1.3-0.6,2.3-0.6s1.7,0.2,2.2,0.5s0.8,0.8,1,1.4l-1.8,0.3
					c-0.1-0.3-0.2-0.5-0.4-0.6s-0.6-0.3-1-0.3c-0.5,0-0.9,0.1-1.1,0.2c-0.1,0.1-0.2,0.2-0.2,0.4c0,0.1,0.1,0.3,0.2,0.3
					c0.2,0.1,0.8,0.3,1.8,0.5s1.7,0.5,2.1,0.9c0.4,0.3,0.6,0.8,0.6,1.4c0,0.7-0.3,1.2-0.8,1.7c-0.6,0.5-1.4,0.7-2.5,0.7
					c-1,0-1.8-0.2-2.3-0.6C34.7,20.2,34.3,19.6,34.1,19z M42.1,17.3c0-0.6,0.2-1.3,0.5-1.9c0.3-0.6,0.8-1.1,1.3-1.4
					c0.6-0.3,1.2-0.5,1.9-0.5c1.1,0,2,0.4,2.7,1.1c0.7,0.7,1.1,1.6,1.1,2.7s-0.4,2-1.1,2.7c-0.7,0.7-1.6,1.1-2.7,1.1
					c-0.7,0-1.3-0.2-1.9-0.5c-0.6-0.3-1.1-0.7-1.4-1.3C42.2,18.8,42.1,18.1,42.1,17.3z M44,17.4c0,0.7,0.2,1.3,0.5,1.7
					c0.3,0.4,0.8,0.6,1.3,0.6s0.9-0.2,1.3-0.6s0.5-0.9,0.5-1.7c0-0.7-0.2-1.3-0.5-1.6s-0.8-0.6-1.3-0.6s-0.9,0.2-1.3,0.6
					C44.2,16.1,44,16.7,44,17.4z M50.9,13.8h1.8v1c0.6-0.8,1.4-1.2,2.3-1.2c0.5,0,0.9,0.1,1.2,0.3s0.6,0.5,0.8,0.9
					c0.3-0.4,0.7-0.7,1-0.9c0.4-0.2,0.8-0.3,1.2-0.3c0.5,0,1,0.1,1.4,0.3s0.6,0.5,0.8,1c0.1,0.3,0.2,0.8,0.2,1.5V21h-1.9v-4.1
					c0-0.7-0.1-1.2-0.2-1.4c-0.2-0.3-0.5-0.4-0.8-0.4s-0.5,0.1-0.8,0.2s-0.4,0.4-0.5,0.7c-0.1,0.3-0.2,0.8-0.2,1.5V21h-1.9v-4
					c0-0.7,0-1.2-0.1-1.4s-0.2-0.4-0.3-0.5s-0.3-0.2-0.6-0.2s-0.6,0.1-0.8,0.2S53.1,15.7,53,16c-0.1,0.3-0.2,0.8-0.2,1.5V21h-1.9
					C50.9,21,50.9,13.8,50.9,13.8z M67.6,18.7l1.9,0.3c-0.2,0.7-0.6,1.2-1.2,1.6c-0.5,0.4-1.2,0.6-2,0.6c-1.3,0-2.2-0.4-2.8-1.2
					c-0.5-0.7-0.7-1.5-0.7-2.5c0-1.2,0.3-2.1,0.9-2.8c0.6-0.7,1.4-1,2.4-1c1.1,0,1.9,0.4,2.6,1.1s0.9,1.8,0.9,3.3h-4.8
					c0,0.6,0.2,1,0.5,1.3s0.7,0.5,1.1,0.5c0.3,0,0.6-0.1,0.8-0.2C67.4,19.3,67.5,19.1,67.6,18.7z M67.7,16.8c0-0.6-0.2-1-0.4-1.3
					s-0.6-0.4-1-0.4s-0.8,0.2-1,0.5c-0.3,0.3-0.4,0.7-0.4,1.2H67.7z M74.5,13.8v1.5h-1.3v2.9c0,0.6,0,0.9,0,1s0.1,0.2,0.2,0.2
					s0.2,0.1,0.3,0.1c0.2,0,0.4-0.1,0.8-0.2l0.2,1.5c-0.4,0.2-1,0.3-1.5,0.3c-0.3,0-0.7-0.1-0.9-0.2c-0.3-0.1-0.5-0.3-0.6-0.5
					s-0.2-0.4-0.3-0.7c0-0.2-0.1-0.7-0.1-1.4v-3.2h-0.9v-1.5h0.9v-1.4l1.9-1.1v2.6h1.3V13.8z M77.7,11v3.7c0.6-0.7,1.4-1.1,2.2-1.1
					c0.4,0,0.8,0.1,1.2,0.2c0.4,0.2,0.6,0.4,0.8,0.6c0.2,0.3,0.3,0.5,0.4,0.8s0.1,0.8,0.1,1.4V21h-1.9v-3.8c0-0.8,0-1.2-0.1-1.4
					c-0.1-0.2-0.2-0.4-0.4-0.5c-0.2-0.1-0.4-0.2-0.7-0.2c-0.3,0-0.6,0.1-0.9,0.2c-0.3,0.2-0.4,0.4-0.6,0.7c-0.1,0.3-0.2,0.8-0.2,1.4
					V21h-1.9V11H77.7z M84.3,12.8V11h1.9v1.8H84.3z M84.3,21v-7.3h1.9V21H84.3z M94.7,21h-1.9v-3.7c0-0.8,0-1.3-0.1-1.5
					s-0.2-0.4-0.4-0.5c-0.2-0.1-0.4-0.2-0.7-0.2c-0.3,0-0.6,0.1-0.9,0.3s-0.4,0.4-0.5,0.7S90,16.9,90,17.7V21h-1.9v-7.3h1.8v1.1
					c0.6-0.8,1.4-1.2,2.4-1.2c0.4,0,0.8,0.1,1.2,0.2c0.4,0.2,0.6,0.3,0.8,0.6s0.3,0.5,0.4,0.8s0.1,0.7,0.1,1.3V21H94.7z M96.4,21.5
					l2.2,0.3c0,0.3,0.1,0.4,0.3,0.5c0.2,0.1,0.5,0.2,0.9,0.2c0.5,0,0.9-0.1,1.1-0.2s0.3-0.3,0.4-0.5s0.1-0.5,0.1-0.9v-1.1
					c-0.6,0.8-1.3,1.2-2.2,1.2c-1,0-1.7-0.4-2.3-1.2c-0.4-0.7-0.7-1.5-0.7-2.4c0-1.2,0.3-2.1,0.9-2.8c0.6-0.6,1.3-1,2.2-1
					c0.9,0,1.6,0.4,2.2,1.2v-1h1.8v6.5c0,0.9-0.1,1.5-0.2,1.9s-0.3,0.8-0.6,1c-0.3,0.2-0.6,0.4-1,0.6c-0.4,0.1-1,0.2-1.6,0.2
					c-1.2,0-2.1-0.2-2.6-0.6s-0.8-1-0.8-1.6C96.4,21.7,96.4,21.6,96.4,21.5z M98.2,17.2c0,0.8,0.1,1.3,0.4,1.7
					c0.3,0.4,0.7,0.5,1.1,0.5c0.5,0,0.9-0.2,1.2-0.6s0.5-0.9,0.5-1.6c0-0.8-0.2-1.3-0.5-1.7s-0.7-0.5-1.2-0.5s-0.8,0.2-1.1,0.5
					C98.3,16,98.2,16.5,98.2,17.2z M105.1,19.1h1.9v1.4c0,0.6,0,1-0.1,1.3s-0.3,0.6-0.5,0.9c-0.3,0.3-0.6,0.5-1,0.6l-0.4-0.8
					c0.4-0.1,0.7-0.3,0.8-0.5s0.3-0.5,0.3-0.9h-0.9v-2H105.1z M112.8,12.8V11h1.9v1.8H112.8z M112.8,21v-7.3h1.9V21H112.8z
					 M120,13.8v1.5h-1.3v2.9c0,0.6,0,0.9,0,1s0.1,0.2,0.2,0.2c0.1,0.1,0.2,0.1,0.3,0.1c0.2,0,0.4-0.1,0.8-0.2l0.2,1.5
					c-0.4,0.2-1,0.3-1.5,0.3c-0.3,0-0.7-0.1-0.9-0.2c-0.3-0.1-0.5-0.3-0.6-0.5s-0.2-0.4-0.3-0.7c0-0.2-0.1-0.7-0.1-1.4v-3.2h-0.9
					v-1.5h0.9v-1.4l1.9-1.1v2.6h1.3V13.8z M125.1,12.8V11h1.9v1.8H125.1z M125.1,21v-7.3h1.9V21H125.1z M128.3,19l1.9-0.3
					c0.1,0.4,0.2,0.7,0.5,0.9c0.3,0.2,0.6,0.3,1.1,0.3s0.9-0.1,1.1-0.3c0.2-0.1,0.3-0.3,0.3-0.5c0-0.1,0-0.3-0.1-0.4
					s-0.3-0.2-0.6-0.3c-1.5-0.3-2.5-0.7-2.9-0.9c-0.6-0.4-0.9-0.9-0.9-1.6c0-0.6,0.2-1.2,0.7-1.6c0.5-0.4,1.3-0.6,2.3-0.6
					s1.7,0.2,2.2,0.5s0.8,0.8,1,1.4l-1.8,0.3c-0.1-0.3-0.2-0.5-0.4-0.6c-0.2-0.2-0.5-0.2-0.9-0.2c-0.5,0-0.9,0.1-1.1,0.2
					c-0.1,0.1-0.2,0.2-0.2,0.4c0,0.1,0.1,0.3,0.2,0.3c0.2,0.1,0.8,0.3,1.8,0.5s1.7,0.5,2.1,0.9c0.4,0.3,0.6,0.8,0.6,1.4
					c0,0.7-0.3,1.2-0.8,1.7c-0.6,0.5-1.4,0.7-2.5,0.7c-1,0-1.8-0.2-2.3-0.6C128.8,20.2,128.4,19.6,128.3,19z M142.4,21h-1.9v-7.3
					h1.8v1c0.3-0.5,0.6-0.8,0.8-1s0.5-0.2,0.8-0.2c0.4,0,0.9,0.1,1.3,0.4l-0.6,1.7c-0.3-0.2-0.6-0.3-0.9-0.3c-0.3,0-0.5,0.1-0.7,0.2
					c-0.2,0.1-0.3,0.4-0.4,0.8c-0.1,0.4-0.2,1.2-0.2,2.4L142.4,21L142.4,21z M150.1,18.7L152,19c-0.2,0.7-0.6,1.2-1.2,1.6
					c-0.5,0.4-1.2,0.6-2,0.6c-1.3,0-2.2-0.4-2.8-1.2c-0.5-0.7-0.7-1.5-0.7-2.5c0-1.2,0.3-2.1,0.9-2.8c0.6-0.7,1.4-1,2.4-1
					c1.1,0,1.9,0.4,2.6,1.1c0.6,0.7,0.9,1.8,0.9,3.3h-4.8c0,0.6,0.2,1,0.5,1.3s0.7,0.5,1.1,0.5c0.3,0,0.6-0.1,0.8-0.2
					C149.9,19.3,150,19.1,150.1,18.7z M150.2,16.8c0-0.6-0.2-1-0.4-1.3s-0.6-0.4-1-0.4s-0.8,0.2-1,0.5c-0.3,0.3-0.4,0.7-0.4,1.2
					H150.2z M155.1,16l-1.7-0.3c0.2-0.7,0.5-1.2,1-1.6c0.5-0.3,1.2-0.5,2.1-0.5c0.9,0,1.5,0.1,1.9,0.3s0.7,0.5,0.9,0.8
					s0.3,0.9,0.3,1.7v2.2c0,0.6,0,1.1,0.1,1.4s0.2,0.6,0.3,1h-1.9c-0.1-0.1-0.1-0.3-0.2-0.6c0-0.1-0.1-0.2-0.1-0.2
					c-0.3,0.3-0.7,0.6-1.1,0.7c-0.4,0.2-0.8,0.2-1.2,0.2c-0.7,0-1.3-0.2-1.8-0.6c-0.4-0.4-0.6-0.9-0.6-1.5c0-0.4,0.1-0.8,0.3-1.1
					c0.2-0.3,0.5-0.6,0.8-0.7c0.4-0.2,0.9-0.3,1.5-0.4c0.9-0.2,1.5-0.3,1.9-0.5v-0.2c0-0.4-0.1-0.6-0.3-0.8s-0.5-0.2-1-0.2
					c-0.3,0-0.6,0.1-0.8,0.2C155.4,15.4,155.2,15.6,155.1,16z M157.7,17.5c-0.2,0.1-0.6,0.2-1.2,0.3c-0.5,0.1-0.9,0.2-1,0.3
					c-0.3,0.2-0.4,0.4-0.4,0.7c0,0.3,0.1,0.5,0.3,0.7s0.5,0.3,0.8,0.3s0.7-0.1,1-0.3c0.2-0.2,0.4-0.4,0.5-0.6s0.1-0.5,0.1-0.9v-0.5
					H157.7z M161.4,21V11h1.9v10H161.4z M165.2,21V11h1.9v10H165.2z M168.2,13.8h2l1.7,5.2l1.7-5.2h2l-2.6,7l-0.5,1.3
					c-0.2,0.4-0.3,0.7-0.5,1c-0.2,0.2-0.3,0.4-0.5,0.5s-0.4,0.2-0.7,0.3c-0.3,0.1-0.6,0.1-1,0.1s-0.7,0-1.1-0.1l-0.2-1.5
					c0.3,0.1,0.6,0.1,0.8,0.1c0.4,0,0.8-0.1,1-0.4s0.4-0.6,0.5-1L168.2,13.8z M0,28.8V27h2v1.8H0z M0,37v-7.3h2V37H0z M10.5,37H8.6
					v-3.7c0-0.8,0-1.3-0.1-1.5s-0.2-0.4-0.4-0.5c-0.2-0.1-0.4-0.2-0.7-0.2c-0.3,0-0.6,0.1-0.9,0.3c-0.3,0.2-0.4,0.4-0.5,0.7
					c-0.1,0.3-0.1,0.9-0.1,1.7V37h-2v-7.3h1.8v1.1c0.6-0.8,1.4-1.2,2.4-1.2c0.4,0,0.8,0.1,1.2,0.2s0.6,0.3,0.8,0.6
					c0.2,0.2,0.3,0.5,0.4,0.8s0.1,0.7,0.1,1.3V37H10.5z M15.7,29.8v1.5h-1.3v2.9c0,0.6,0,0.9,0,1s0.1,0.2,0.2,0.2
					c0.1,0.1,0.2,0.1,0.3,0.1c0.2,0,0.4-0.1,0.8-0.2l0.2,1.5c-0.4,0.2-1,0.3-1.5,0.3c-0.3,0-0.7-0.1-0.9-0.2
					c-0.3-0.1-0.5-0.3-0.6-0.5s-0.2-0.4-0.3-0.7c0-0.2-0.1-0.7-0.1-1.4v-3.2h-0.9v-1.5h0.9v-1.4l1.9-1.1v2.6h1.3V29.8z M21.2,34.7
					l1.9,0.3c-0.2,0.7-0.6,1.2-1.2,1.6c-0.5,0.4-1.2,0.6-2,0.6c-1.3,0-2.2-0.4-2.8-1.2c-0.5-0.7-0.7-1.5-0.7-2.5
					c0-1.2,0.3-2.1,0.9-2.8c0.6-0.7,1.4-1,2.4-1c1.1,0,1.9,0.4,2.6,1.1c0.6,0.7,0.9,1.8,0.9,3.3h-4.8c0,0.6,0.2,1,0.5,1.3
					s0.7,0.5,1.1,0.5c0.3,0,0.6-0.1,0.8-0.2C20.9,35.3,21.1,35.1,21.2,34.7z M21.3,32.8c0-0.6-0.2-1-0.4-1.3c-0.3-0.3-0.6-0.4-1-0.4
					s-0.8,0.2-1,0.5c-0.3,0.3-0.4,0.7-0.4,1.2H21.3z M26.6,37h-1.9v-7.3h1.8v1c0.3-0.5,0.6-0.8,0.8-1s0.5-0.2,0.8-0.2
					c0.4,0,0.9,0.1,1.3,0.4l-0.6,1.7c-0.3-0.2-0.6-0.3-0.9-0.3s-0.5,0.1-0.7,0.2s-0.3,0.4-0.4,0.8s-0.2,1.2-0.2,2.4
					C26.6,34.7,26.6,37,26.6,37z M34.3,34.7l1.9,0.3c-0.2,0.7-0.6,1.2-1.2,1.6c-0.5,0.4-1.2,0.6-2,0.6c-1.3,0-2.2-0.4-2.8-1.2
					c-0.5-0.7-0.7-1.5-0.7-2.5c0-1.2,0.3-2.1,0.9-2.8c0.6-0.7,1.4-1,2.4-1c1.1,0,1.9,0.4,2.6,1.1s0.9,1.8,0.9,3.3h-4.8
					c0,0.6,0.2,1,0.5,1.3s0.7,0.5,1.1,0.5c0.3,0,0.6-0.1,0.8-0.2C34.1,35.3,34.2,35.1,34.3,34.7z M34.5,32.8c0-0.6-0.2-1-0.4-1.3
					c-0.3-0.3-0.6-0.4-1-0.4s-0.8,0.2-1,0.5c-0.3,0.3-0.4,0.7-0.4,1.2H34.5z M37.2,35l1.9-0.3c0.1,0.4,0.2,0.7,0.5,0.9
					s0.6,0.3,1.1,0.3s0.9-0.1,1.1-0.3c0.2-0.1,0.3-0.3,0.3-0.5c0-0.1,0-0.3-0.1-0.4c-0.1-0.1-0.3-0.2-0.6-0.3
					c-1.5-0.3-2.5-0.7-2.9-0.9c-0.6-0.4-0.9-0.9-0.9-1.6c0-0.6,0.2-1.2,0.7-1.6s1.3-0.6,2.3-0.6s1.7,0.2,2.2,0.5s0.8,0.8,1,1.4
					L42,31.9c-0.1-0.3-0.2-0.5-0.4-0.6S41,31,40.6,31c-0.5,0-0.9,0.1-1.1,0.2c-0.1,0.1-0.2,0.2-0.2,0.4c0,0.1,0.1,0.3,0.2,0.3
					c0.2,0.1,0.8,0.3,1.8,0.5s1.7,0.5,2.1,0.9c0.4,0.3,0.6,0.8,0.6,1.4c0,0.7-0.3,1.2-0.8,1.7c-0.6,0.5-1.4,0.7-2.5,0.7
					c-1,0-1.8-0.2-2.3-0.6S37.4,35.6,37.2,35z M48.9,29.8v1.5h-1.3v2.9c0,0.6,0,0.9,0,1s0.1,0.2,0.2,0.2c0.1,0.1,0.2,0.1,0.3,0.1
					c0.2,0,0.4-0.1,0.8-0.2l0.2,1.5c-0.4,0.2-1,0.3-1.5,0.3c-0.3,0-0.7-0.1-0.9-0.2s-0.5-0.3-0.6-0.5s-0.2-0.4-0.3-0.7
					c0-0.2-0.1-0.7-0.1-1.4v-3.2h-0.9v-1.5h0.9v-1.4l1.9-1.1v2.6h1.3V29.8z M50.2,28.8V27h1.9v1.8H50.2z M50.2,37v-7.3h1.9V37H50.2z
					 M60.7,37h-1.9v-3.7c0-0.8,0-1.3-0.1-1.5s-0.2-0.4-0.4-0.5s-0.4-0.2-0.7-0.2s-0.6,0.1-0.9,0.3c-0.3,0.2-0.4,0.4-0.5,0.7
					C56,32.4,56,32.9,56,33.7V37h-1.9v-7.3h1.8v1.1c0.6-0.8,1.4-1.2,2.4-1.2c0.4,0,0.8,0.1,1.2,0.2c0.4,0.2,0.6,0.3,0.8,0.6
					c0.2,0.2,0.3,0.5,0.4,0.8c0.1,0.3,0.1,0.7,0.1,1.3L60.7,37L60.7,37z M62.4,37.5l2.2,0.3c0,0.3,0.1,0.4,0.3,0.5
					c0.2,0.1,0.5,0.2,0.9,0.2c0.5,0,0.9-0.1,1.1-0.2c0.2-0.1,0.3-0.3,0.4-0.5s0.1-0.5,0.1-0.9v-1.1C66.7,36.6,66,37,65.1,37
					c-1,0-1.7-0.4-2.3-1.2c-0.4-0.7-0.7-1.5-0.7-2.4c0-1.2,0.3-2.1,0.9-2.8c0.6-0.6,1.3-1,2.2-1c0.9,0,1.6,0.4,2.2,1.2v-1h1.8v6.5
					c0,0.9-0.1,1.5-0.2,1.9s-0.3,0.8-0.6,1c-0.3,0.2-0.6,0.4-1,0.6s-1,0.2-1.6,0.2c-1.2,0-2.1-0.2-2.6-0.6s-0.8-1-0.8-1.6
					C62.4,37.7,62.4,37.6,62.4,37.5z M64.1,33.2c0,0.8,0.1,1.3,0.4,1.7s0.7,0.5,1.1,0.5c0.5,0,0.9-0.2,1.2-0.6s0.5-0.9,0.5-1.6
					c0-0.8-0.2-1.3-0.5-1.7S66.1,31,65.6,31s-0.8,0.2-1.1,0.5C64.3,32,64.1,32.5,64.1,33.2z M76.4,32l-1.7-0.3
					c0.2-0.7,0.5-1.2,1-1.6c0.5-0.3,1.2-0.5,2.1-0.5s1.5,0.1,1.9,0.3s0.7,0.5,0.9,0.8s0.3,0.9,0.3,1.7v2.2c0,0.6,0,1.1,0.1,1.4
					c0.1,0.3,0.2,0.6,0.3,1h-1.9c-0.1-0.1-0.1-0.3-0.2-0.6c0-0.1-0.1-0.2-0.1-0.2c-0.3,0.3-0.7,0.6-1.1,0.7
					c-0.4,0.2-0.8,0.2-1.2,0.2c-0.7,0-1.3-0.2-1.8-0.6c-0.4-0.4-0.6-0.9-0.6-1.5c0-0.4,0.1-0.8,0.3-1.1c0.2-0.3,0.5-0.6,0.8-0.7
					c0.4-0.2,0.9-0.3,1.5-0.4c0.9-0.2,1.5-0.3,1.9-0.5v-0.2c0-0.4-0.1-0.6-0.3-0.8c-0.2-0.2-0.5-0.2-1-0.2c-0.3,0-0.6,0.1-0.8,0.2
					S76.5,31.6,76.4,32z M78.9,33.5c-0.2,0.1-0.6,0.2-1.2,0.3c-0.5,0.1-0.9,0.2-1,0.3c-0.3,0.2-0.4,0.4-0.4,0.7s0.1,0.5,0.3,0.7
					c0.2,0.2,0.5,0.3,0.8,0.3s0.7-0.1,1-0.3c0.2-0.2,0.4-0.4,0.5-0.6C79,34.7,79,34.4,79,34v-0.5H78.9z M89.3,37h-1.9v-3.7
					c0-0.8,0-1.3-0.1-1.5s-0.2-0.4-0.4-0.5s-0.4-0.2-0.7-0.2c-0.3,0-0.6,0.1-0.9,0.3c-0.3,0.2-0.4,0.4-0.5,0.7
					c-0.1,0.3-0.1,0.9-0.1,1.7V37h-1.9v-7.3h1.8v1.1c0.6-0.8,1.4-1.2,2.4-1.2c0.4,0,0.8,0.1,1.2,0.2s0.6,0.3,0.8,0.6
					s0.3,0.5,0.4,0.8s0.1,0.7,0.1,1.3V37H89.3z M97.8,37H96v-1c-0.3,0.4-0.6,0.7-1,0.9s-0.8,0.3-1.2,0.3c-0.8,0-1.5-0.3-2.1-1
					s-0.9-1.6-0.9-2.8s0.3-2.2,0.9-2.8c0.6-0.6,1.3-1,2.2-1c0.8,0,1.5,0.3,2.1,1V27h1.9L97.8,37L97.8,37z M92.7,33.2
					c0,0.8,0.1,1.3,0.3,1.7c0.3,0.5,0.7,0.8,1.3,0.8c0.4,0,0.8-0.2,1.1-0.6c0.3-0.4,0.5-0.9,0.5-1.7s-0.2-1.4-0.5-1.8
					c-0.3-0.4-0.7-0.6-1.2-0.6s-0.8,0.2-1.1,0.5C92.8,32,92.7,32.5,92.7,33.2z"/>
				<path id="_x25CF_" class="st11" d="M106.7,30.1c0.5,0,1,0.1,1.5,0.4s0.9,0.6,1.1,1.1c0.3,0.5,0.4,1,0.4,1.5
					c0,0.8-0.3,1.5-0.9,2.1s-1.3,0.9-2.1,0.9c-0.8,0-1.5-0.3-2.1-0.9c-0.6-0.6-0.9-1.3-0.9-2.1c0-0.5,0.1-1,0.4-1.5s0.6-0.9,1.1-1.1
					C105.7,30.2,106.2,30.1,106.7,30.1z"/>
				<path id="_x25CF__x25CF__x25CF__x25CF__x25CF__x25CF__x25CF__x25CF_" class="st12" d="M115.1,30.1c0.5,0,1,0.1,1.5,0.4
					s0.9,0.6,1.1,1.1c0.3,0.5,0.4,1,0.4,1.5c0,0.8-0.3,1.5-0.9,2.1s-1.3,0.9-2.1,0.9c-0.8,0-1.5-0.3-2.1-0.9
					c-0.6-0.6-0.9-1.3-0.9-2.1c0-0.5,0.1-1,0.4-1.5s0.6-0.9,1.1-1.1C114.1,30.2,114.6,30.1,115.1,30.1z M123.5,30.1
					c0.5,0,1,0.1,1.5,0.4s0.9,0.6,1.1,1.1c0.3,0.5,0.4,1,0.4,1.5c0,0.8-0.3,1.5-0.9,2.1s-1.3,0.9-2.1,0.9c-0.8,0-1.5-0.3-2.1-0.9
					c-0.6-0.6-0.9-1.3-0.9-2.1c0-0.5,0.1-1,0.4-1.5s0.6-0.9,1.1-1.1S123,30.1,123.5,30.1z M132,30.1c0.5,0,1,0.1,1.5,0.4
					s0.9,0.6,1.1,1.1c0.3,0.5,0.4,1,0.4,1.5c0,0.8-0.3,1.5-0.9,2.1s-1.3,0.9-2.1,0.9s-1.5-0.3-2.1-0.9s-0.9-1.3-0.9-2.1
					c0-0.5,0.1-1,0.4-1.5c0.3-0.5,0.6-0.9,1.1-1.1S131.4,30.1,132,30.1z M140.4,30.1c0.5,0,1,0.1,1.5,0.4s0.9,0.6,1.1,1.1
					c0.3,0.5,0.4,1,0.4,1.5c0,0.8-0.3,1.5-0.9,2.1s-1.3,0.9-2.1,0.9s-1.5-0.3-2.1-0.9s-0.9-1.3-0.9-2.1c0-0.5,0.1-1,0.4-1.5
					s0.6-0.9,1.1-1.1S139.9,30.1,140.4,30.1z M148.8,30.1c0.5,0,1,0.1,1.5,0.4s0.9,0.6,1.1,1.1c0.3,0.5,0.4,1,0.4,1.5
					c0,0.8-0.3,1.5-0.9,2.1s-1.3,0.9-2.1,0.9s-1.5-0.3-2.1-0.9s-0.9-1.3-0.9-2.1c0-0.5,0.1-1,0.4-1.5c0.3-0.5,0.6-0.9,1.1-1.1
					S148.3,30.1,148.8,30.1z M157.2,30.1c0.5,0,1,0.1,1.5,0.4s0.9,0.6,1.1,1.1c0.3,0.5,0.4,1,0.4,1.5c0,0.8-0.3,1.5-0.9,2.1
					c-0.6,0.6-1.3,0.9-2.1,0.9s-1.5-0.3-2.1-0.9c-0.6-0.6-0.9-1.3-0.9-2.1c0-0.5,0.1-1,0.4-1.5c0.3-0.5,0.6-0.9,1.1-1.1
					S156.7,30.1,157.2,30.1z M165.6,30.1c0.5,0,1,0.1,1.5,0.4s0.9,0.6,1.1,1.1c0.3,0.5,0.4,1,0.4,1.5c0,0.8-0.3,1.5-0.9,2.1
					c-0.6,0.6-1.3,0.9-2.1,0.9s-1.5-0.3-2.1-0.9c-0.6-0.6-0.9-1.3-0.9-2.1c0-0.5,0.1-1,0.4-1.5c0.3-0.5,0.6-0.9,1.1-1.1
					C164.6,30.2,165.1,30.1,165.6,30.1z M174,30.1c0.5,0,1,0.1,1.5,0.4s0.9,0.6,1.1,1.1c0.3,0.5,0.4,1,0.4,1.5
					c0,0.8-0.3,1.5-0.9,2.1c-0.6,0.6-1.3,0.9-2.1,0.9s-1.5-0.3-2.1-0.9c-0.6-0.6-0.9-1.3-0.9-2.1c0-0.5,0.1-1,0.4-1.5
					c0.3-0.5,0.6-0.9,1.1-1.1C173,30.2,173.5,30.1,174,30.1z"/>
				<polygon id="_x2E_" class="st10" points="179.2,37 179.2,35.1 181.1,35.1 181.1,37 				"/>
			</g>
		</g>
	</g>
</g>
<rect x="486" y="226" class="st13" width="1" height="12"/>
<text transform="matrix(1 0 0 1 486 234.52)" class="st14 st15"> </text>
<g>
	<g>
		<path d="M496.8,256.2l-9.7-16.2c-0.4-0.6-0.2-1.1,0.4-1.5c0.6-0.4,1.1-0.2,1.5,0.4l9.3,16.1L496.8,256.2z M492.5,260.9
			c-0.9,0-1.8-0.3-2.6-0.9c-0.3-0.2-0.5-0.4-0.5-0.7c0-0.3,0-0.5,0.3-0.8c0.2-0.3,0.4-0.4,0.7-0.4c0.3,0,0.6,0.1,0.9,0.2
			c0.2,0.1,0.4,0.2,0.6,0.3c0.2,0.1,0.4,0.1,0.7,0.1c0.6,0,1.2-0.3,1.8-0.8c0.6-0.5,1.1-1.3,1.6-2.2l8-16.8c0.3-0.6,0.8-0.8,1.5-0.5
			c0.6,0.3,0.8,0.8,0.5,1.4l-8,16.8c-0.6,1.4-1.4,2.4-2.3,3.1C494.6,260.6,493.6,260.9,492.5,260.9z"/>
		<path d="M514.8,260.9c-1.1,0-2.2-0.2-3.1-0.5c-0.9-0.3-1.6-0.8-2.2-1.5c-0.5-0.6-0.8-1.4-0.8-2.2c0-0.7,0.2-1.4,0.6-2
			c0.4-0.6,1-1.1,1.9-1.6c0.9-0.4,2-0.8,3.5-1.1c1.3-0.3,2.2-0.7,2.7-1.1c0.5-0.4,0.7-1,0.7-1.7c0-0.7-0.3-1.2-0.9-1.6
			c-0.6-0.4-1.4-0.6-2.4-0.6c-0.8,0-1.6,0.1-2.2,0.4c-0.7,0.3-1.3,0.7-1.7,1.2c-0.2,0.2-0.5,0.4-0.7,0.4c-0.3,0.1-0.5,0-0.7-0.1
			c-0.3-0.2-0.5-0.4-0.6-0.7s0-0.5,0.2-0.8c0.6-0.7,1.3-1.3,2.3-1.8s2.1-0.7,3.4-0.7c1.1,0,2,0.2,2.8,0.5c0.8,0.3,1.5,0.8,1.9,1.5
			c0.5,0.7,0.7,1.4,0.7,2.4c0,1-0.4,1.9-1.2,2.7c-0.8,0.8-2.1,1.4-3.9,1.8c-1.6,0.4-2.8,0.8-3.4,1.2c-0.6,0.5-0.9,1-0.9,1.7
			c0,0.7,0.3,1.3,0.9,1.7c0.6,0.4,1.6,0.6,2.8,0.6c1,0,1.8-0.1,2.6-0.3s1.4-0.6,1.9-1.2c0.2-0.2,0.4-0.3,0.7-0.4
			c0.3-0.1,0.5,0,0.8,0.2c0.3,0.2,0.4,0.4,0.4,0.7c0,0.3-0.1,0.5-0.3,0.7c-0.7,0.7-1.5,1.3-2.7,1.7S516,260.9,514.8,260.9z"/>
		<path d="M531.9,260.9c-1.5,0-2.8-0.3-4-1c-1.2-0.7-2.1-1.6-2.8-2.9c-0.7-1.2-1-2.6-1-4.1c0-1.5,0.4-2.9,1.1-4.1s1.7-2.2,2.9-2.9
			c1.2-0.7,2.6-1,4.1-1s2.9,0.3,4.1,1c1.2,0.7,2.2,1.6,2.9,2.9c0.7,1.2,1.1,2.6,1.1,4.1l-0.9,0.7c0,1.4-0.3,2.6-1,3.7
			c-0.6,1.1-1.5,2-2.6,2.6C534.6,260.5,533.4,260.9,531.9,260.9z M532.2,258.8c1.1,0,2.1-0.3,3-0.8s1.6-1.2,2.1-2.1
			c0.5-0.9,0.8-1.9,0.8-3.1c0-1.1-0.3-2.2-0.8-3.1c-0.5-0.9-1.2-1.6-2.1-2.1s-1.9-0.8-3-0.8c-1.1,0-2.1,0.3-3,0.8s-1.6,1.2-2.1,2.1
			c-0.5,0.9-0.8,1.9-0.8,3.1c0,1.1,0.3,2.1,0.8,3.1c0.5,0.9,1.2,1.6,2.1,2.1S531.1,258.8,532.2,258.8z M539.1,260.7
			c-0.3,0-0.6-0.1-0.8-0.3c-0.2-0.2-0.3-0.5-0.3-0.8v-4.9l0.6-2.3l1.7,0.4v6.7c0,0.3-0.1,0.6-0.3,0.8
			C539.7,260.6,539.4,260.7,539.1,260.7z"/>
		<path d="M551.6,260.9c-1.5,0-2.9-0.3-4.1-1c-1.2-0.7-2.1-1.6-2.8-2.8c-0.7-1.2-1-2.6-1-4.1c0-1.6,0.3-3,1-4.2
			c0.7-1.2,1.7-2.1,2.9-2.8c1.2-0.7,2.6-1,4.1-1c1.6,0,3,0.3,4.2,1s2.2,1.6,2.8,2.8c0.7,1.2,1,2.6,1.1,4.2l-1.3,0.7
			c0,1.4-0.3,2.7-0.9,3.8c-0.6,1.1-1.4,2-2.5,2.6C554.1,260.5,552.9,260.9,551.6,260.9z M551.9,266.9c-1.5,0-2.9-0.3-4-0.8
			c-1.2-0.6-2.1-1.3-2.9-2.3c-0.2-0.2-0.3-0.5-0.3-0.7c0-0.3,0.2-0.5,0.4-0.7c0.3-0.2,0.5-0.2,0.8-0.2c0.3,0.1,0.6,0.2,0.7,0.4
			c0.6,0.7,1.3,1.2,2.2,1.7c0.9,0.4,1.9,0.6,3.1,0.6c1.1,0,2.1-0.3,2.9-0.8s1.6-1.2,2.1-2.2c0.5-0.9,0.8-2,0.8-3.3v-4.4l0.8-1.7
			l1.4,0.3v5.9c0,1.5-0.3,2.9-1,4.2c-0.7,1.2-1.6,2.2-2.8,2.9C554.8,266.5,553.4,266.9,551.9,266.9z M551.8,258.8
			c1.1,0,2.2-0.3,3-0.8c0.9-0.5,1.6-1.2,2.1-2.1c0.5-0.9,0.8-1.9,0.8-3.1s-0.3-2.2-0.8-3.1c-0.5-0.9-1.2-1.6-2.1-2.1
			c-0.9-0.5-1.9-0.8-3-0.8s-2.2,0.3-3,0.8c-0.9,0.5-1.6,1.2-2.1,2.1c-0.5,0.9-0.8,1.9-0.8,3.1s0.3,2.2,0.8,3.1
			c0.5,0.9,1.2,1.6,2.1,2.1C549.7,258.6,550.7,258.8,551.8,258.8z"/>
		<path d="M570.6,261c-1.3,0-2.4-0.2-3.3-0.7c-1-0.5-1.7-1.2-2.3-2.1s-0.8-1.9-0.8-3v-9c0-0.3,0.1-0.6,0.3-0.8s0.5-0.3,0.8-0.3
			c0.3,0,0.6,0.1,0.8,0.3c0.2,0.2,0.3,0.5,0.3,0.8v4.1h4.3c1.2,0,2.2,0.2,3.1,0.6c0.9,0.4,1.6,1,2.1,1.8c0.5,0.8,0.8,1.7,0.8,2.8
			c0,1.1-0.3,2.1-0.8,2.9c-0.5,0.8-1.2,1.5-2.1,1.9C572.9,260.8,571.8,261,570.6,261z M570.6,259c1.1,0,2-0.3,2.8-0.9
			c0.7-0.6,1.1-1.4,1.1-2.6s-0.4-2-1.1-2.6c-0.7-0.6-1.6-0.8-2.7-0.8h-4.3v3c0,1.1,0.4,2,1.2,2.7S569.4,259,570.6,259z M580.3,260.7
			c-0.3,0-0.6-0.1-0.8-0.3s-0.3-0.5-0.3-0.8v-13.4c0-0.3,0.1-0.6,0.3-0.8s0.5-0.3,0.8-0.3c0.3,0,0.6,0.1,0.8,0.3s0.3,0.5,0.3,0.8
			v13.4c0,0.3-0.1,0.6-0.3,0.8S580.7,260.7,580.3,260.7z"/>
		<path d="M587.8,260.7c-0.3,0-0.6-0.1-0.8-0.3c-0.2-0.2-0.3-0.5-0.3-0.8v-13.5c0-0.3,0.1-0.6,0.3-0.8s0.5-0.3,0.8-0.3
			c0.3,0,0.6,0.1,0.8,0.3c0.2,0.2,0.3,0.5,0.3,0.8v5.4h6.1v0.4c1,0,1.9,0.2,2.7,0.5s1.4,0.9,1.8,1.5c0.4,0.6,0.7,1.4,0.7,2.2
			c0,0.9-0.2,1.7-0.7,2.3c-0.4,0.7-1,1.2-1.8,1.6c-0.8,0.4-1.7,0.6-2.7,0.6H587.8z M592.2,252.8v-1.2h2.9c0.7,0,1.2-0.2,1.7-0.7
			c0.4-0.4,0.6-1,0.6-1.7c0-0.6-0.2-1.1-0.7-1.6s-1-0.6-1.7-0.6h-7.1v-2h7.1c0.9,0,1.7,0.2,2.4,0.5c0.7,0.4,1.2,0.8,1.6,1.4
			c0.4,0.6,0.6,1.3,0.6,2.1c0,1.2-0.4,2.2-1.3,2.8c-0.8,0.6-1.9,0.9-3.2,0.9H592.2z M588.9,258.7h6.1c0.9,0,1.6-0.2,2.1-0.7
			c0.6-0.4,0.8-1.1,0.8-1.9c0-0.9-0.3-1.5-0.8-2c-0.6-0.4-1.3-0.7-2.1-0.7h-6.1V258.7z"/>
		<path d="M611,260.9c-1.5,0-2.8-0.3-4-1c-1.2-0.7-2.1-1.6-2.8-2.9c-0.7-1.2-1-2.6-1-4.1c0-1.5,0.4-2.9,1.1-4.1s1.7-2.2,2.9-2.9
			c1.2-0.7,2.6-1,4.1-1s2.9,0.3,4.1,1c1.2,0.7,2.2,1.6,2.9,2.9c0.7,1.2,1.1,2.6,1.1,4.1l-0.9,0.7c0,1.4-0.3,2.6-1,3.7
			c-0.6,1.1-1.5,2-2.6,2.6C613.6,260.5,612.4,260.9,611,260.9z M611.2,258.8c1.1,0,2.1-0.3,3-0.8s1.6-1.2,2.1-2.1
			c0.5-0.9,0.8-1.9,0.8-3.1c0-1.1-0.3-2.2-0.8-3.1c-0.5-0.9-1.2-1.6-2.1-2.1s-1.9-0.8-3-0.8c-1.1,0-2.1,0.3-3,0.8s-1.6,1.2-2.1,2.1
			c-0.5,0.9-0.8,1.9-0.8,3.1c0,1.1,0.3,2.1,0.8,3.1c0.5,0.9,1.2,1.6,2.1,2.1S610.1,258.8,611.2,258.8z M618.1,260.7
			c-0.3,0-0.6-0.1-0.8-0.3c-0.2-0.2-0.3-0.5-0.3-0.8v-4.9l0.6-2.3l1.7,0.4v6.7c0,0.3-0.1,0.6-0.3,0.8
			C618.7,260.6,618.5,260.7,618.1,260.7z"/>
		<path d="M630.5,260.9c-1.4,0-2.6-0.3-3.7-0.8c-1.1-0.6-1.9-1.4-2.6-2.5c-0.6-1.1-0.9-2.4-0.9-4v-7.5c0-0.3,0.1-0.6,0.3-0.8
			c0.2-0.2,0.5-0.3,0.8-0.3c0.3,0,0.6,0.1,0.8,0.3c0.2,0.2,0.3,0.5,0.3,0.8v7.5c0,1.2,0.2,2.2,0.7,2.9s1.1,1.3,1.9,1.7
			c0.8,0.4,1.7,0.6,2.7,0.6c0.9,0,1.8-0.2,2.6-0.5c0.8-0.4,1.4-0.9,1.8-1.5c0.4-0.6,0.7-1.3,0.7-2.2h1.6c-0.1,1.2-0.4,2.3-1,3.2
			c-0.6,0.9-1.4,1.7-2.5,2.2C632.9,260.6,631.8,260.9,630.5,260.9z M630.8,243c-0.9,0-1.8-0.2-2.6-0.5s-1.3-0.8-1.8-1.3
			c-0.4-0.6-0.7-1.2-0.7-1.9c0-0.3,0.1-0.6,0.3-0.8c0.2-0.2,0.4-0.3,0.7-0.3c0.3,0,0.6,0.1,0.8,0.3c0.2,0.2,0.3,0.5,0.3,0.9
			c0,0.5,0.3,1,0.8,1.3c0.6,0.3,1.2,0.5,2.1,0.5c0.8,0,1.5-0.2,2.1-0.5s0.8-0.8,0.8-1.3c0-0.4,0.1-0.6,0.3-0.9
			c0.2-0.2,0.5-0.3,0.7-0.3c0.3,0,0.6,0.1,0.8,0.3c0.2,0.2,0.3,0.5,0.3,0.8c0,0.7-0.2,1.3-0.7,1.9c-0.4,0.6-1,1-1.8,1.3
			S631.8,243,630.8,243z M636.9,260.7c-0.3,0-0.6-0.1-0.8-0.3s-0.3-0.5-0.3-0.8v-13.5c0-0.3,0.1-0.6,0.3-0.8s0.5-0.3,0.8-0.3
			c0.3,0,0.6,0.1,0.8,0.3s0.3,0.5,0.3,0.8v13.5c0,0.3-0.1,0.6-0.3,0.8S637.2,260.7,636.9,260.7z"/>
		<path d="M658.8,260.9c-1.5,0-2.9-0.3-4.1-1c-1.2-0.7-2.1-1.6-2.8-2.9c-0.7-1.2-1-2.6-1-4.1c0-1.5,0.3-2.9,1-4.1s1.6-2.2,2.7-2.9
			c1.1-0.7,2.5-1,3.9-1c1.2,0,2.3,0.2,3.3,0.7s1.9,1.1,2.6,2.1c0.2,0.2,0.3,0.5,0.2,0.7c-0.1,0.3-0.2,0.5-0.5,0.7
			c-0.2,0.2-0.5,0.2-0.7,0.2s-0.5-0.2-0.7-0.4c-1.1-1.3-2.5-1.9-4.2-1.9c-1.1,0-2,0.3-2.9,0.8c-0.8,0.5-1.5,1.2-1.9,2.1
			c-0.5,0.9-0.7,1.9-0.7,3.1c0,1.1,0.2,2.2,0.7,3.1c0.5,0.9,1.2,1.6,2,2.1s1.9,0.8,3,0.8c0.8,0,1.4-0.1,2.1-0.3
			c0.6-0.2,1.2-0.5,1.7-0.9c0.2-0.2,0.5-0.3,0.7-0.3c0.3,0,0.5,0.1,0.7,0.2c0.2,0.2,0.4,0.4,0.4,0.7c0,0.3-0.1,0.5-0.3,0.7
			C662.7,260.2,660.9,260.9,658.8,260.9z"/>
		<path d="M674.9,245c0.2,0,0.4,0.1,0.6,0.2s0.3,0.3,0.5,0.6l6.3,13.5c0.1,0.3,0.1,0.5,0,0.8c-0.1,0.2-0.3,0.4-0.6,0.6
			c-0.3,0.1-0.6,0.2-0.8,0.1c-0.3-0.1-0.5-0.3-0.6-0.6l-6-13.2h1.3l-6.1,13.2c-0.1,0.3-0.3,0.5-0.6,0.6c-0.3,0.1-0.6,0.1-0.9-0.1
			c-0.3-0.1-0.5-0.3-0.6-0.6c-0.1-0.2-0.1-0.5,0-0.8l6.4-13.5C674.1,245.3,674.5,245,674.9,245z"/>
		<path d="M693.3,260.9c-1.5,0-2.9-0.3-4.1-1c-1.2-0.7-2.2-1.6-2.9-2.8c-0.7-1.2-1-2.6-1-4.1c0-1.5,0.3-2.9,1-4.1
			c0.7-1.2,1.7-2.2,2.9-2.8c1.2-0.7,2.6-1,4.1-1s2.9,0.3,4.1,1c1.2,0.7,2.2,1.6,2.9,2.8c0.7,1.2,1.1,2.6,1.1,4.1
			c0,1.5-0.4,2.9-1.1,4.1c-0.7,1.2-1.7,2.2-2.9,2.8C696.2,260.5,694.9,260.9,693.3,260.9z M693.3,258.8c1.1,0,2.1-0.3,3-0.8
			s1.6-1.2,2.1-2.1c0.5-0.9,0.8-1.9,0.8-3.1c0-1.1-0.3-2.2-0.8-3.1c-0.5-0.9-1.2-1.6-2.1-2.1c-0.9-0.5-1.9-0.8-3-0.8s-2.1,0.3-3,0.8
			c-0.9,0.5-1.6,1.2-2.1,2.1c-0.5,0.9-0.8,1.9-0.8,3.1c0,1.1,0.3,2.2,0.8,3.1c0.5,0.9,1.2,1.6,2.1,2.1
			C691.2,258.6,692.2,258.8,693.3,258.8z"/>
		<path d="M706.8,260.7c-0.3,0-0.6-0.1-0.8-0.3c-0.2-0.2-0.3-0.5-0.3-0.8v-13.5c0-0.3,0.1-0.6,0.3-0.8s0.5-0.3,0.8-0.3
			c0.3,0,0.6,0.1,0.8,0.3c0.2,0.2,0.3,0.5,0.3,0.8v5.4h6.1v0.4c1,0,1.9,0.2,2.7,0.5s1.4,0.9,1.8,1.5c0.4,0.6,0.7,1.4,0.7,2.2
			c0,0.9-0.2,1.7-0.7,2.3c-0.4,0.7-1,1.2-1.8,1.6c-0.8,0.4-1.7,0.6-2.7,0.6H706.8z M711.2,252.8v-1.2h2.9c0.7,0,1.2-0.2,1.7-0.7
			c0.4-0.4,0.6-1,0.6-1.7c0-0.6-0.2-1.1-0.7-1.6s-1-0.6-1.7-0.6h-7.1v-2h7.1c0.9,0,1.7,0.2,2.4,0.5c0.7,0.4,1.2,0.8,1.6,1.4
			c0.4,0.6,0.6,1.3,0.6,2.1c0,1.2-0.4,2.2-1.3,2.8c-0.8,0.6-1.9,0.9-3.2,0.9H711.2z M707.9,258.7h6.1c0.9,0,1.6-0.2,2.1-0.7
			c0.6-0.4,0.8-1.1,0.8-1.9c0-0.9-0.3-1.5-0.8-2c-0.6-0.4-1.3-0.7-2.1-0.7h-6.1V258.7z"/>
		<path d="M730.2,260.9c-1.5,0-2.9-0.3-4.1-1c-1.2-0.7-2.2-1.6-2.9-2.8c-0.7-1.2-1-2.6-1-4.1c0-1.5,0.3-2.9,1-4.1
			c0.7-1.2,1.7-2.2,2.9-2.8c1.2-0.7,2.6-1,4.1-1s2.9,0.3,4.1,1c1.2,0.7,2.2,1.6,2.9,2.8c0.7,1.2,1.1,2.6,1.1,4.1
			c0,1.5-0.4,2.9-1.1,4.1c-0.7,1.2-1.7,2.2-2.9,2.8C733.2,260.5,731.8,260.9,730.2,260.9z M730.2,258.8c1.1,0,2.1-0.3,3-0.8
			s1.6-1.2,2.1-2.1c0.5-0.9,0.8-1.9,0.8-3.1c0-1.1-0.3-2.2-0.8-3.1c-0.5-0.9-1.2-1.6-2.1-2.1c-0.9-0.5-1.9-0.8-3-0.8s-2.1,0.3-3,0.8
			c-0.9,0.5-1.6,1.2-2.1,2.1c-0.5,0.9-0.8,1.9-0.8,3.1c0,1.1,0.3,2.2,0.8,3.1c0.5,0.9,1.2,1.6,2.1,2.1
			C728.1,258.6,729.1,258.8,730.2,258.8z"/>
		<path d="M752.3,260.7c-0.3,0-0.6-0.1-0.8-0.3c-0.2-0.2-0.3-0.5-0.3-0.8v-13.5c0-0.3,0.1-0.6,0.3-0.8c0.2-0.2,0.5-0.3,0.8-0.3
			c0.3,0,0.6,0.1,0.8,0.3c0.2,0.2,0.3,0.5,0.3,0.8v13.5c0,0.3-0.1,0.6-0.3,0.8C752.9,260.6,752.6,260.7,752.3,260.7z M764.8,260.7
			c-0.3,0-0.6-0.1-0.8-0.3c-0.2-0.2-0.3-0.5-0.3-0.8v-7.5c0-1.2-0.2-2.2-0.7-2.9s-1.1-1.3-1.9-1.7c-0.8-0.4-1.7-0.6-2.7-0.6
			c-0.9,0-1.8,0.2-2.6,0.5c-0.8,0.4-1.4,0.9-1.8,1.5s-0.7,1.3-0.7,2.2h-1.6c0-1.2,0.4-2.3,1-3.2c0.6-0.9,1.4-1.7,2.5-2.2
			c1-0.5,2.2-0.8,3.4-0.8c1.4,0,2.6,0.3,3.7,0.8c1.1,0.6,1.9,1.4,2.6,2.5c0.6,1.1,0.9,2.4,0.9,4v7.5c0,0.3-0.1,0.6-0.3,0.8
			C765.3,260.6,765.1,260.7,764.8,260.7z"/>
		<path d="M778,260.9c-1.5,0-2.9-0.3-4.1-1c-1.2-0.7-2.2-1.6-2.9-2.8c-0.7-1.2-1-2.6-1-4.1c0-1.5,0.3-2.9,1-4.1
			c0.7-1.2,1.7-2.2,2.9-2.8c1.2-0.7,2.6-1,4.1-1s2.9,0.3,4.1,1c1.2,0.7,2.2,1.6,2.9,2.8c0.7,1.2,1.1,2.6,1.1,4.1
			c0,1.5-0.4,2.9-1.1,4.1c-0.7,1.2-1.7,2.2-2.9,2.8C780.9,260.5,779.6,260.9,778,260.9z M778,258.8c1.1,0,2.1-0.3,3-0.8
			s1.6-1.2,2.1-2.1c0.5-0.9,0.8-1.9,0.8-3.1c0-1.1-0.3-2.2-0.8-3.1c-0.5-0.9-1.2-1.6-2.1-2.1c-0.9-0.5-1.9-0.8-3-0.8s-2.1,0.3-3,0.8
			c-0.9,0.5-1.6,1.2-2.1,2.1c-0.5,0.9-0.8,1.9-0.8,3.1c0,1.1,0.3,2.2,0.8,3.1c0.5,0.9,1.2,1.6,2.1,2.1
			C775.9,258.6,776.9,258.8,778,258.8z"/>
		<path d="M798.2,252.9v-2.4c0-2.5,0.7-4.8,2.1-6.8c1.4-2,3.5-3.6,6.3-4.7l4.3-1.7c0.3-0.1,0.6-0.1,0.8,0c0.2,0.1,0.4,0.3,0.5,0.6
			c0.1,0.3,0.1,0.6,0,0.8c-0.1,0.2-0.3,0.4-0.7,0.5l-4.5,1.8c-1.7,0.7-3.1,1.5-4.1,2.5c-1,1-1.8,2.1-2.2,3.3
			c-0.5,1.2-0.7,2.5-0.7,3.9l0,2.1H798.2z M806,260.9c-1.5,0-2.9-0.3-4.1-1c-1.2-0.7-2.1-1.6-2.8-2.9c-0.7-1.2-1-2.6-1-4.2h1.2
			c0-1.4,0.3-2.6,0.9-3.6c0.6-1,1.4-1.9,2.4-2.5c1-0.6,2.2-0.9,3.6-0.9c1.5,0,2.7,0.3,3.9,0.9s2,1.5,2.7,2.6c0.6,1.1,1,2.4,1,3.9
			c0,1.5-0.3,2.8-1,3.9c-0.7,1.1-1.6,2-2.7,2.7C808.9,260.5,807.5,260.9,806,260.9z M806,258.8c1.1,0,2-0.2,2.9-0.7s1.5-1.1,2-2
			c0.5-0.8,0.7-1.8,0.7-2.9c0-1.1-0.2-2-0.7-2.8c-0.5-0.8-1.1-1.5-2-1.9s-1.8-0.7-2.9-0.7c-1.1,0-2.1,0.2-2.9,0.7
			c-0.9,0.5-1.5,1.1-2,1.9c-0.5,0.8-0.7,1.8-0.7,2.8c0,1.1,0.2,2.1,0.7,2.9c0.5,0.8,1.1,1.5,2,2C803.9,258.6,804.9,258.8,806,258.8z
			"/>
		<path d="M818,267.6c-0.4,0-0.8,0-1.3-0.2c-0.4-0.1-0.8-0.3-1.2-0.5c-0.3-0.2-0.5-0.4-0.6-0.7s0-0.6,0.2-0.8
			c0.2-0.2,0.4-0.4,0.7-0.4c0.3,0,0.6,0.1,0.9,0.2c0.2,0.1,0.4,0.2,0.6,0.3c0.2,0.1,0.5,0.1,0.7,0.1c0.6,0,1.3-0.3,1.8-0.9
			c0.6-0.6,1.1-1.4,1.6-2.5l7.2-16.5c0.1-0.3,0.3-0.5,0.6-0.6s0.6-0.1,0.9,0c0.3,0.1,0.4,0.3,0.5,0.6c0.1,0.3,0.1,0.6-0.1,0.9
			l-7.3,16.5c-0.6,1.4-1.4,2.5-2.3,3.3C820.1,267.1,819.1,267.6,818,267.6z M824.1,260.2c-0.3,0.1-0.6,0.2-0.8,0.1
			c-0.3-0.1-0.5-0.3-0.6-0.6l-6.5-13.2c-0.1-0.3-0.2-0.6-0.1-0.8c0.1-0.2,0.3-0.4,0.6-0.6c0.3-0.1,0.6-0.2,0.8-0.1
			c0.3,0.1,0.4,0.3,0.6,0.6l6.4,13.2c0.1,0.3,0.2,0.6,0.1,0.8C824.5,259.9,824.4,260.1,824.1,260.2z"/>
		<path d="M835.4,260.7c-0.3,0-0.6-0.1-0.8-0.3c-0.2-0.2-0.3-0.5-0.3-0.8v-13.5c0-0.3,0.1-0.6,0.3-0.8c0.2-0.2,0.5-0.3,0.8-0.3
			c0.3,0,0.6,0.1,0.8,0.3s0.3,0.5,0.3,0.8v5.7h3.5v2h-3.5v5.8c0,0.3-0.1,0.6-0.3,0.8S835.8,260.7,835.4,260.7z M846.7,260.4
			c-0.2,0.2-0.4,0.3-0.8,0.3c-0.3,0-0.6-0.1-0.8-0.3l-6.9-7.5l6.6-7.5c0.2-0.2,0.4-0.3,0.7-0.3c0.3,0,0.5,0.1,0.8,0.2
			c0.2,0.2,0.4,0.4,0.4,0.7s-0.1,0.5-0.3,0.7l-5.5,6.1l5.7,6.3c0.2,0.2,0.3,0.4,0.3,0.7C847,260,846.9,260.2,846.7,260.4z"/>
		<path d="M851.8,260.7c-0.3,0-0.6-0.1-0.8-0.3c-0.2-0.2-0.3-0.5-0.3-0.8v-13.5c0-0.3,0.1-0.6,0.3-0.8s0.5-0.3,0.8-0.3
			c0.3,0,0.6,0.1,0.8,0.3c0.2,0.2,0.3,0.5,0.3,0.8v5.4h6.1v0.4c1,0,1.9,0.2,2.7,0.5s1.4,0.9,1.8,1.5c0.4,0.6,0.7,1.4,0.7,2.2
			c0,0.9-0.2,1.7-0.7,2.3c-0.4,0.7-1,1.2-1.8,1.6c-0.8,0.4-1.7,0.6-2.7,0.6H851.8z M856.1,252.8v-1.2h2.9c0.7,0,1.2-0.2,1.7-0.7
			c0.4-0.4,0.6-1,0.6-1.7c0-0.6-0.2-1.1-0.7-1.6s-1-0.6-1.7-0.6h-7.1v-2h7.1c0.9,0,1.7,0.2,2.4,0.5c0.7,0.4,1.2,0.8,1.6,1.4
			c0.4,0.6,0.6,1.3,0.6,2.1c0,1.2-0.4,2.2-1.3,2.8c-0.8,0.6-1.9,0.9-3.2,0.9H856.1z M852.9,258.7h6.1c0.9,0,1.6-0.2,2.1-0.7
			c0.6-0.4,0.8-1.1,0.8-1.9c0-0.9-0.3-1.5-0.8-2c-0.6-0.4-1.3-0.7-2.1-0.7h-6.1V258.7z"/>
		<path d="M875,260.9c-1.5,0-2.8-0.3-4-1c-1.2-0.7-2.1-1.6-2.8-2.9c-0.7-1.2-1-2.6-1-4.1c0-1.5,0.4-2.9,1.1-4.1s1.7-2.2,2.9-2.9
			c1.2-0.7,2.6-1,4.1-1s2.9,0.3,4.1,1c1.2,0.7,2.2,1.6,2.9,2.9c0.7,1.2,1.1,2.6,1.1,4.1l-0.9,0.7c0,1.4-0.3,2.6-1,3.7
			c-0.6,1.1-1.5,2-2.6,2.6C877.6,260.5,876.4,260.9,875,260.9z M875.2,258.8c1.1,0,2.1-0.3,3-0.8s1.6-1.2,2.1-2.1
			c0.5-0.9,0.8-1.9,0.8-3.1c0-1.1-0.3-2.2-0.8-3.1c-0.5-0.9-1.2-1.6-2.1-2.1s-1.9-0.8-3-0.8c-1.1,0-2.1,0.3-3,0.8s-1.6,1.2-2.1,2.1
			c-0.5,0.9-0.8,1.9-0.8,3.1c0,1.1,0.3,2.1,0.8,3.1c0.5,0.9,1.2,1.6,2.1,2.1S874.1,258.8,875.2,258.8z M882.1,260.7
			c-0.3,0-0.6-0.1-0.8-0.3c-0.2-0.2-0.3-0.5-0.3-0.8v-4.9l0.6-2.3l1.7,0.4v6.7c0,0.3-0.1,0.6-0.3,0.8
			C882.7,260.6,882.4,260.7,882.1,260.7z"/>
		<path d="M888.7,260.7c-0.3,0-0.6-0.1-0.8-0.3c-0.2-0.2-0.3-0.5-0.3-0.8v-13.4c0-0.3,0.1-0.6,0.3-0.8c0.2-0.2,0.5-0.3,0.8-0.3
			c0.5,0,0.9,0.2,1.2,0.7l6.4,9.2l6.4-9.2c0.3-0.5,0.7-0.7,1.2-0.7c0.3,0,0.6,0.1,0.8,0.3s0.3,0.5,0.3,0.8v13.4
			c0,0.3-0.1,0.6-0.3,0.8s-0.5,0.3-0.8,0.3s-0.6-0.1-0.8-0.3s-0.3-0.5-0.3-0.8v-12l0.7,0.2l-6.2,8.9c-0.3,0.4-0.7,0.7-1.1,0.7
			s-0.8-0.2-1-0.7l-6.2-8.8l0.8-0.2v11.9c0,0.3-0.1,0.6-0.3,0.8S889.1,260.7,888.7,260.7z"/>
		<path d="M910.9,260.7c-0.5,0-0.9-0.2-1.2-0.5c-0.3-0.3-0.5-0.7-0.5-1.2c0-0.5,0.2-0.9,0.5-1.2c0.3-0.3,0.7-0.5,1.2-0.5
			s0.9,0.2,1.2,0.5c0.3,0.3,0.5,0.7,0.5,1.2c0,0.5-0.2,0.9-0.5,1.2C911.7,260.6,911.3,260.7,910.9,260.7z M910.9,255.6
			c-0.3,0-0.6-0.1-0.8-0.3c-0.2-0.2-0.3-0.5-0.3-0.8v-15.1c0-0.3,0.1-0.6,0.3-0.8c0.2-0.2,0.5-0.3,0.8-0.3c0.3,0,0.6,0.1,0.8,0.3
			c0.2,0.2,0.3,0.5,0.3,0.8v15.1c0,0.3-0.1,0.6-0.3,0.8C911.4,255.5,911.1,255.6,910.9,255.6z"/>
	</g>
</g>
</svg>
