<?xml version="1.0" encoding="utf-8"?>
<!-- Generator: Adobe Illustrator 22.1.0, SVG Export Plug-In . SVG Version: 6.00 Build 0)  -->
<svg version="1.1" id="Слой_1" xmlns="http://www.w3.org/2000/svg" xmlns:xlink="http://www.w3.org/1999/xlink" x="0px" y="0px"
	 viewBox="0 0 946 557" style="enable-background:new 0 0 946 557;" xml:space="preserve">
<style type="text/css">
	.st0{fill:#E6EAFF;}
	.st1{filter:url(#filter-2);}
	.st2{fill:#F6FAFF;}
	.st3{filter:url(#filter-4);}
	.st4{fill:#FFFFFF;}
	.st5{fill:none;stroke:#6CD8FF;stroke-width:2;}
	.st6{fill:#6CD8FF;}
	.st7{fill:#F2F8FF;}
	.st8{fill:#6DACFF;}
	.st9{fill:none;stroke:#000000;stroke-width:12;}
	.st10{fill:#1A1A1A;}
	.st11{fill:#5296EF;}
	.st12{filter:url(#filter-6);}
	.st13{fill:#50525B;}
	.st14{fill:#FF7575;}
	.st15{fill:#45B8FF;}
</style>
<filter  filterUnits="objectBoundingBox" height="120.0%" id="filter-6" width="106.4%" x="-3.2%" y="-7.1%">
	<feMorphology  in="SourceAlpha" operator="erode" radius="1.5" result="shadowSpreadOuter1"></feMorphology>
	<feOffset  dx="0" dy="2" in="shadowSpreadOuter1" result="shadowOffsetOuter1"></feOffset>
	<feGaussianBlur  in="shadowOffsetOuter1" result="shadowBlurOuter1" stdDeviation="3.5"></feGaussianBlur>
	
		<feColorMatrix  in="shadowBlurOuter1" type="matrix" values="0 0 0 0 0.666535488   0 0 0 0 0.764391284   0 0 0 0 0.823228034  0 0 0 1 0">
		</feColorMatrix>
</filter>
<filter  filterUnits="objectBoundingBox" height="111.6%" id="filter-4" width="107.2%" x="-3.6%" y="-3.9%">
	<feMorphology  in="SourceAlpha" operator="erode" radius="2" result="shadowSpreadOuter1"></feMorphology>
	<feOffset  dx="0" dy="3" in="shadowSpreadOuter1" result="shadowOffsetOuter1"></feOffset>
	<feGaussianBlur  in="shadowOffsetOuter1" result="shadowBlurOuter1" stdDeviation="4.5"></feGaussianBlur>
	
		<feColorMatrix  in="shadowBlurOuter1" type="matrix" values="0 0 0 0 0.695560213   0 0 0 0 0.839430633   0 0 0 0 1  0 0 0 0.39682583 0">
		</feColorMatrix>
</filter>
<filter  filterUnits="objectBoundingBox" height="114.7%" id="filter-2" width="128.8%" x="-14.8%" y="-6.7%">
	<feMorphology  in="SourceAlpha" operator="dilate" radius="3" result="shadowSpreadOuter1"></feMorphology>
	<feOffset  dx="-1" dy="3" in="shadowSpreadOuter1" result="shadowOffsetOuter1"></feOffset>
	<feGaussianBlur  in="shadowOffsetOuter1" result="shadowBlurOuter1" stdDeviation="8.5"></feGaussianBlur>
	
		<feColorMatrix  in="shadowBlurOuter1" type="matrix" values="0 0 0 0 0.368526519   0 0 0 0 0.489322469   0 0 0 0 0.582257699  0 0 0 0.348776224 0">
		</feColorMatrix>
</filter>
<title>5.4</title>
<desc>Created with Sketch.</desc>
<g id="Page-3">
	<g id="_x35_.4" transform="translate(-22.000000, 19.000000)">
		<path id="Combined-Shape-Copy-8" class="st0" d="M179.8,473.1l-4.3,1.3c-2.3-8.2-5.5-15.5-9.6-22c-11.4-18.2-46.1-9.3-77.9-36.4
			s-51.2-40.7-42.3-39.9c23.8,2.2,67.6,15.7,96.3,39.6c13.5,11.2,23.9,24,31.3,38.3c-7.1-22.5-19.5-55.8-45.1-58.9
			C90,390.3,69.8,349,53.5,339.8s-37.7-6.5-29.6-11.8c12.7-8.4,86.4-2.2,113.5,36.5c7.9,11.3,15.5,25.7,22,40.2
			c-2.1-6.2-3.9-11.6-5.6-16.2c-15.7-43.2-28.8-53.2-36.3-91.7c-7.9-40.4,11-26.3,15.8-101.9c0.7-10.8,22.2,14.5,30.3,81.7
			c3.7,30.6-5,73.5,1.7,118.7c2.4,16.5,14.8,44,21.8,76.6c0.2,0.8-1.5,1.3-5.2,1.3c0,1.2-0.3,1.7-0.9,1.4
			C180.6,474.4,180.2,473.9,179.8,473.1z"/>
		<g id="Group-8" transform="translate(176.000000, 0.000000)">
			<g id="Rectangle">
				<g class="st1">
					<path id="path-1_2_" d="M40,12h170c22.1,0,40,17.9,40,40v409c0,22.1-17.9,40-40,40H40c-22.1,0-40-17.9-40-40V52
						C0,29.9,17.9,12,40,12z"/>
				</g>
				<g>
					<path id="path-1_1_" class="st2" d="M40,12h170c22.1,0,40,17.9,40,40v409c0,22.1-17.9,40-40,40H40c-22.1,0-40-17.9-40-40V52
						C0,29.9,17.9,12,40,12z"/>
				</g>
			</g>
			<g id="Rectangle-Copy-3">
				<g class="st3">
					<path id="path-3_2_" d="M0,346h250v111c0,24.3-19.7,44-44,44H44c-24.3,0-44-19.7-44-44V346z"/>
				</g>
				<g>
					<path id="path-3_1_" class="st4" d="M0,346h250v111c0,24.3-19.7,44-44,44H44c-24.3,0-44-19.7-44-44V346z"/>
				</g>
			</g>
			<g id="next" transform="translate(169.000000, 411.000000)">
				<ellipse id="Oval-Copy-4" class="st5" cx="26" cy="36.3" rx="25" ry="24.3"/>
				<path id="Next" class="st6" d="M9.8,42.5c-0.2,0-0.4-0.1-0.6-0.2C9.1,42.1,9,41.9,9,41.7V30.8c0-0.2,0.1-0.4,0.2-0.6
					C9.4,30.1,9.6,30,9.8,30c0.3,0,0.5,0.1,0.6,0.3l7,9.3v-8.8c0-0.2,0.1-0.4,0.2-0.6c0.2-0.2,0.4-0.2,0.6-0.2
					c0.2,0,0.4,0.1,0.6,0.2c0.1,0.2,0.2,0.4,0.2,0.6v10.8c0,0.2-0.1,0.4-0.2,0.6c-0.1,0.2-0.3,0.2-0.6,0.2c-0.1,0-0.2,0-0.3-0.1
					s-0.2-0.1-0.3-0.2l-7-9.3v8.7c0,0.2-0.1,0.4-0.2,0.6C10.3,42.4,10.1,42.5,9.8,42.5z M22.7,37.4H28c0-0.4-0.1-0.7-0.3-1
					c-0.2-0.4-0.5-0.8-0.9-1s-0.8-0.4-1.4-0.4c-0.6,0-1.1,0.1-1.6,0.4c-0.4,0.3-0.8,0.6-1,1.1C22.9,36.8,22.8,37.1,22.7,37.4
					L22.7,37.4z M22.7,38.7c0.1,0.4,0.2,0.7,0.4,1c0.3,0.5,0.6,0.8,1.1,1.1s1,0.4,1.6,0.4c0.3,0,0.7-0.1,1-0.2s0.6-0.3,0.8-0.4
					c0.2-0.1,0.3-0.2,0.5-0.2c0.2,0,0.3,0.1,0.5,0.2c0.2,0.2,0.3,0.3,0.3,0.5c0,0.2-0.1,0.4-0.3,0.5c-0.4,0.3-0.8,0.5-1.4,0.7
					c-0.5,0.2-1.1,0.3-1.5,0.3c-0.9,0-1.7-0.2-2.4-0.6c-0.7-0.4-1.2-0.9-1.6-1.6s-0.6-1.4-0.6-2.3c0-0.9,0.2-1.6,0.6-2.3
					c0.4-0.7,0.9-1.2,1.5-1.6c0.7-0.4,1.4-0.6,2.2-0.6c0.8,0,1.5,0.2,2.1,0.6c0.6,0.4,1.1,0.9,1.4,1.5c0.3,0.6,0.5,1.4,0.5,2.2
					c0,0.2-0.1,0.4-0.2,0.5c-0.1,0.1-0.3,0.2-0.5,0.2H22.7L22.7,38.7z M36.8,42.5c-0.1,0-0.2,0-0.3,0c-0.1,0-0.2-0.1-0.3-0.2
					l-2.8-3.4l-0.6-0.6L30.1,35c-0.1-0.2-0.2-0.4-0.2-0.6c0-0.2,0-0.4,0.2-0.5s0.3-0.2,0.5-0.2c0.3,0,0.5,0.1,0.6,0.3l2.7,3.3
					l0.4,0.4l3,3.6c0.2,0.2,0.2,0.4,0.2,0.6s-0.1,0.3-0.2,0.5C37.2,42.4,37,42.5,36.8,42.5z M30.7,42.5c-0.2,0-0.4-0.1-0.5-0.2
					C30.1,42.2,30,42,30,41.8s0.1-0.4,0.2-0.6l2.7-3.4l0.9,1.2l-2.5,3.2C31.1,42.4,30.9,42.5,30.7,42.5z M34.6,38.4l-1.1-0.9
					l2.6-3.4c0.1-0.1,0.2-0.2,0.3-0.2s0.2-0.1,0.3-0.1c0.2,0,0.4,0.1,0.5,0.2c0.1,0.1,0.2,0.3,0.2,0.5c0,0.2-0.1,0.4-0.2,0.6
					L34.6,38.4z M42.3,42.5c-0.5,0-1-0.1-1.4-0.4c-0.4-0.3-0.8-0.6-1-1.1c-0.2-0.5-0.4-1-0.4-1.6v-7.6c0-0.2,0.1-0.4,0.2-0.6
					S40,31,40.3,31c0.2,0,0.4,0.1,0.6,0.2s0.2,0.3,0.2,0.6v7.6c0,0.4,0.1,0.8,0.4,1.1c0.2,0.3,0.5,0.4,0.9,0.4h0.5
					c0.2,0,0.4,0.1,0.5,0.2c0.1,0.1,0.2,0.3,0.2,0.6c0,0.2-0.1,0.4-0.3,0.6c-0.2,0.1-0.4,0.2-0.7,0.2H42.3z M38.7,35.4
					c-0.2,0-0.4-0.1-0.5-0.2C38.1,35.1,38,35,38,34.8c0-0.2,0.1-0.4,0.2-0.5s0.3-0.2,0.5-0.2h3.7c0.2,0,0.4,0.1,0.5,0.2
					s0.2,0.3,0.2,0.5c0,0.2-0.1,0.4-0.2,0.5c-0.1,0.1-0.3,0.2-0.5,0.2H38.7z"/>
			</g>
			<g id="give-up" transform="translate(32.000000, 411.000000)">
				<ellipse id="Oval-Copy-5" class="st5" cx="26.1" cy="36.4" rx="25.1" ry="24.4"/>
				<path id="Giveup" class="st6" d="M16.2,35.8c-0.9,0-1.7-0.2-2.4-0.5s-1.4-0.8-2-1.4c-0.6-0.6-1-1.3-1.3-2
					c-0.3-0.8-0.5-1.6-0.5-2.5c0-0.9,0.2-1.7,0.5-2.5c0.3-0.8,0.8-1.5,1.3-2c0.6-0.6,1.2-1,2-1.4c0.7-0.3,1.6-0.5,2.4-0.5
					c0.8,0,1.5,0.1,2.1,0.3c0.6,0.2,1.2,0.6,1.8,1.1c0.1,0.1,0.2,0.1,0.2,0.2c0,0.1,0.1,0.1,0.1,0.2c0,0.1,0,0.2,0,0.2
					c0,0.2-0.1,0.4-0.2,0.5c-0.1,0.1-0.3,0.2-0.5,0.2c-0.2,0-0.4-0.1-0.6-0.2c-0.4-0.3-0.8-0.6-1.2-0.8c-0.4-0.2-1-0.3-1.7-0.3
					c-0.6,0-1.2,0.1-1.8,0.4s-1,0.6-1.5,1.1s-0.7,1-1,1.6s-0.4,1.2-0.4,1.9c0,0.7,0.1,1.3,0.4,1.9s0.6,1.1,1,1.6
					c0.4,0.4,0.9,0.8,1.5,1c0.6,0.3,1.1,0.4,1.8,0.4c0.5,0,1.1-0.1,1.5-0.3c0.5-0.2,1-0.4,1.4-0.8c0.2-0.1,0.4-0.2,0.6-0.2
					c0.2,0,0.3,0.1,0.5,0.2c0.1,0.1,0.2,0.3,0.2,0.6c0,0.1,0,0.2-0.1,0.3c0,0.1-0.1,0.2-0.2,0.3c-0.6,0.5-1.2,0.8-1.8,1
					S16.9,35.8,16.2,35.8z M20.4,33.8l-1.6-0.3v-2.9h-2.2c-0.2,0-0.4-0.1-0.6-0.2c-0.2-0.1-0.2-0.3-0.2-0.5c0-0.2,0.1-0.4,0.2-0.5
					c0.2-0.1,0.4-0.2,0.6-0.2h3c0.2,0,0.4,0.1,0.6,0.2c0.1,0.2,0.2,0.4,0.2,0.6V33.8z M23.4,35.7c-0.2,0-0.4-0.1-0.6-0.2
					c-0.2-0.2-0.2-0.3-0.2-0.6v-7.1c0-0.2,0.1-0.4,0.2-0.6c0.2-0.1,0.3-0.2,0.6-0.2c0.2,0,0.4,0.1,0.6,0.2s0.2,0.3,0.2,0.6v7.1
					c0,0.2-0.1,0.4-0.2,0.6S23.6,35.7,23.4,35.7z M23.4,25.5c-0.3,0-0.5-0.1-0.7-0.3c-0.2-0.2-0.3-0.5-0.3-0.7s0.1-0.5,0.3-0.7
					c0.2-0.2,0.5-0.3,0.7-0.3s0.5,0.1,0.7,0.3c0.2,0.2,0.3,0.5,0.3,0.7s-0.1,0.5-0.3,0.7C23.9,25.4,23.7,25.5,23.4,25.5z M29.7,33.3
					l2.8-6c0.1-0.2,0.2-0.3,0.4-0.4c0.2-0.1,0.4,0,0.6,0c0.2,0.1,0.3,0.2,0.4,0.4c0.1,0.2,0.1,0.4,0,0.5l-3.4,7.2
					c-0.2,0.4-0.4,0.5-0.7,0.5c-0.3,0-0.6-0.2-0.8-0.5L25.6,28c-0.1-0.2-0.1-0.4,0-0.5c0.1-0.2,0.2-0.3,0.4-0.4
					c0.2-0.1,0.4-0.1,0.6,0c0.2,0.1,0.3,0.2,0.4,0.4L29.7,33.3L29.7,33.3z M35.8,30.6h5.3c0-0.4-0.1-0.7-0.3-1
					c-0.2-0.4-0.5-0.8-0.9-1c-0.4-0.2-0.8-0.4-1.4-0.4c-0.6,0-1.1,0.1-1.6,0.4c-0.4,0.3-0.8,0.6-1,1.1C35.9,30,35.9,30.3,35.8,30.6z
					 M35.8,31.8c0.1,0.4,0.2,0.7,0.4,1c0.3,0.5,0.6,0.8,1.1,1.1c0.5,0.3,1,0.4,1.6,0.4c0.3,0,0.7-0.1,1-0.2s0.6-0.3,0.8-0.4
					c0.2-0.1,0.3-0.2,0.5-0.2s0.3,0.1,0.5,0.2c0.2,0.2,0.3,0.3,0.3,0.5s-0.1,0.4-0.3,0.5c-0.4,0.3-0.8,0.5-1.4,0.7
					c-0.5,0.2-1.1,0.3-1.5,0.3c-0.9,0-1.7-0.2-2.4-0.6s-1.2-0.9-1.6-1.6s-0.6-1.4-0.6-2.3c0-0.9,0.2-1.6,0.6-2.3
					c0.4-0.7,0.9-1.2,1.5-1.6c0.7-0.4,1.4-0.6,2.2-0.6c0.8,0,1.5,0.2,2.1,0.6s1.1,0.9,1.4,1.5c0.3,0.6,0.5,1.4,0.5,2.2
					c0,0.2-0.1,0.4-0.2,0.5c-0.1,0.1-0.3,0.2-0.5,0.2H35.8L35.8,31.8z M20.4,49.7c-0.7,0-1.4-0.2-2-0.5c-0.6-0.3-1-0.8-1.4-1.4
					c-0.3-0.6-0.5-1.4-0.5-2.2v-3.9c0-0.2,0.1-0.4,0.2-0.6c0.2-0.2,0.3-0.2,0.6-0.2c0.2,0,0.4,0.1,0.6,0.2c0.2,0.2,0.2,0.3,0.2,0.6
					v3.9c0,0.6,0.1,1.1,0.3,1.5s0.5,0.7,0.9,0.9c0.4,0.2,0.8,0.3,1.3,0.3c0.5,0,0.9-0.1,1.2-0.3c0.4-0.2,0.6-0.4,0.9-0.7
					c0.2-0.3,0.3-0.7,0.3-1h1c0,0.7-0.2,1.3-0.5,1.8c-0.3,0.5-0.8,1-1.3,1.3S21.1,49.7,20.4,49.7z M23.9,49.7
					c-0.2,0-0.4-0.1-0.6-0.2c-0.2-0.2-0.2-0.3-0.2-0.6v-7.1c0-0.2,0.1-0.4,0.2-0.6c0.2-0.1,0.3-0.2,0.6-0.2c0.2,0,0.4,0.1,0.6,0.2
					s0.2,0.3,0.2,0.6v7.1c0,0.2-0.1,0.4-0.2,0.6S24.2,49.7,23.9,49.7z M28,53.4c-0.2,0-0.4-0.1-0.6-0.2c-0.2-0.2-0.2-0.3-0.2-0.6
					v-7.3c0-0.8,0.2-1.6,0.6-2.3c0.4-0.7,0.9-1.2,1.6-1.6s1.4-0.6,2.2-0.6c0.8,0,1.6,0.2,2.3,0.6c0.7,0.4,1.2,0.9,1.6,1.6
					s0.6,1.4,0.6,2.3c0,0.8-0.2,1.6-0.5,2.3c-0.4,0.7-0.8,1.2-1.5,1.6c-0.6,0.4-1.3,0.6-2.1,0.6c-0.6,0-1.2-0.1-1.7-0.4
					c-0.5-0.3-1-0.6-1.4-1.1v4.3c0,0.2-0.1,0.4-0.2,0.6S28.2,53.4,28,53.4z M31.6,48.3c0.5,0,1-0.1,1.5-0.4s0.8-0.6,1-1.1
					c0.3-0.5,0.4-1,0.4-1.5c0-0.6-0.1-1.1-0.4-1.5c-0.3-0.5-0.6-0.8-1-1.1s-0.9-0.4-1.5-0.4c-0.5,0-1,0.1-1.4,0.4
					c-0.4,0.3-0.8,0.6-1,1.1s-0.4,1-0.4,1.5c0,0.6,0.1,1.1,0.4,1.5c0.2,0.5,0.6,0.8,1,1.1C30.5,48.1,31,48.3,31.6,48.3z"/>
			</g>
			<path id="Combined-Shape" class="st7" d="M47.3,410.7c-12.3,0-22.3-10-22.3-22.3C25,376,35,366,47.3,366s22.3,10,22.3,22.3
				C69.7,400.7,59.7,410.7,47.3,410.7z M99.4,410.7c-12.3,0-22.3-10-22.3-22.3c0-12.3,10-22.3,22.3-22.3s22.3,10,22.3,22.3
				C121.8,400.7,111.8,410.7,99.4,410.7z M151.5,410.7c-12.3,0-22.3-10-22.3-22.3c0-12.3,10-22.3,22.3-22.3s22.3,10,22.3,22.3
				C173.9,400.7,163.9,410.7,151.5,410.7z M203.6,410.7c-12.3,0-22.3-10-22.3-22.3c0-12.3,10-22.3,22.3-22.3s22.3,10,22.3,22.3
				C226,400.7,216,410.7,203.6,410.7z"/>
			<polygon id="E" class="st8" points="38.5,400 38.5,375.7 56.6,375.7 56.6,379.8 43.4,379.8 43.4,385.2 55.7,385.2 55.7,389.3 
				43.4,389.3 43.4,395.9 57,395.9 57,400 			"/>
			<path id="A" class="st8" d="M111.5,400h-5.3l-2.1-5.5h-9.7l-2,5.5h-5.2l9.5-24.3h5.2L111.5,400z M102.5,390.4l-3.4-9l-3.3,9
				H102.5z"/>
			<polygon id="I" class="st8" points="149,400 149,375.7 153.9,375.7 153.9,400 			"/>
			<path id="U" class="st8" d="M193.7,375.7h4.9v13.2c0,2.1,0.1,3.4,0.2,4.1c0.2,1,0.7,1.8,1.5,2.4c0.8,0.6,1.9,0.9,3.2,0.9
				c1.4,0,2.4-0.3,3.2-0.9c0.7-0.6,1.1-1.3,1.3-2.1c0.1-0.8,0.2-2.2,0.2-4.1v-13.5h4.9v12.8c0,2.9-0.1,5-0.4,6.2
				c-0.3,1.2-0.8,2.2-1.5,3.1c-0.7,0.8-1.7,1.5-2.9,2c-1.2,0.5-2.8,0.7-4.7,0.7c-2.3,0-4.1-0.3-5.3-0.8s-2.1-1.2-2.8-2.1
				c-0.7-0.9-1.2-1.8-1.4-2.7c-0.3-1.4-0.5-3.5-0.5-6.2V375.7z"/>
			<path id="Rectangle-Copy" class="st9" d="M34,6h182c22.1,0,40,17.9,40,40v421c0,22.1-17.9,40-40,40H34c-22.1,0-40-17.9-40-40V46
				C-6,23.9,11.9,6,34,6z"/>
			<path id="Rectangle_1_" d="M57,11h136v6c0,5.5-4.5,10-10,10H67c-5.5,0-10-4.5-10-10V11z"/>
			<path id="Combined-Shape_1_" class="st10" d="M106,14h38c1.1,0,2,0.9,2,2s-0.9,2-2,2h-38c-1.1,0-2-0.9-2-2S104.9,14,106,14z
				 M152,14c1.1,0,2,0.9,2,2s-0.9,2-2,2s-2-0.9-2-2S150.9,14,152,14z"/>
			<path id="Sentence1" class="st11" d="M73.2,55.2c-1.4,0-2.7-0.2-4-0.7s-2.3-1.2-3.1-2c-0.2-0.2-0.3-0.4-0.3-0.6
				c0-0.3,0.1-0.6,0.4-0.8c0.2-0.2,0.4-0.3,0.6-0.3c0.3,0,0.6,0.2,0.9,0.5c0.7,0.6,1.5,1.1,2.4,1.5c0.9,0.3,1.9,0.5,3,0.5
				c1.1,0,1.9-0.2,2.5-0.6s0.9-0.9,0.9-1.6c0-0.7-0.3-1.2-0.9-1.6c-0.6-0.4-1.7-0.8-3.1-1.1c-2.2-0.5-3.8-1.1-4.8-1.9
				s-1.5-1.8-1.5-3c0-0.8,0.3-1.5,0.8-2.1c0.5-0.6,1.2-1.1,2.1-1.4c0.9-0.3,2-0.5,3.2-0.5c1.3,0,2.6,0.2,3.6,0.7
				c1.1,0.5,1.9,1.1,2.4,1.9c0.1,0.2,0.2,0.5,0.2,0.7c0,0.3-0.2,0.6-0.5,0.8c-0.2,0.1-0.4,0.2-0.6,0.2c-0.2,0-0.4,0-0.5-0.1
				s-0.3-0.2-0.4-0.4c-0.4-0.6-1-1-1.7-1.3c-0.7-0.3-1.6-0.5-2.5-0.5c-1.1,0-2,0.2-2.6,0.5c-0.6,0.3-0.9,0.8-0.9,1.5
				c0,0.6,0.3,1.1,0.9,1.5c0.6,0.4,1.6,0.8,3.1,1.1c2.2,0.5,3.9,1.2,4.8,2c1,0.8,1.5,1.8,1.5,3c0,0.8-0.2,1.6-0.7,2.2
				c-0.5,0.6-1.2,1.1-2.1,1.5C75.5,55,74.4,55.2,73.2,55.2z M87.2,55.2c-1.3,0-2.4-0.2-3.3-0.7c-0.9-0.4-1.6-1.1-2.1-1.9
				c-0.5-0.8-0.7-1.8-0.7-3c0-1.8,0.5-3.2,1.6-4.2c1.1-1,2.5-1.5,4.4-1.5c1.2,0,2.2,0.2,3.1,0.5c0.9,0.4,1.6,0.9,2.1,1.5
				c0.5,0.7,0.7,1.4,0.7,2.2c0,0.7-0.2,1.2-0.6,1.6c-0.4,0.4-1,0.5-1.7,0.5h-7.1c0,0.9,0.3,1.6,1,2.1c0.6,0.5,1.6,0.7,2.8,0.7
				c0.7,0,1.3-0.1,1.8-0.2c0.5-0.1,1-0.4,1.5-0.7c0.4-0.3,0.7-0.4,1-0.4c0.2,0,0.4,0.1,0.6,0.3c0.2,0.2,0.4,0.5,0.4,0.7
				c0,0.3-0.1,0.5-0.4,0.7C90.8,54.7,89.2,55.2,87.2,55.2z M89.8,48.6c0.2,0,0.4-0.1,0.6-0.2c0.1-0.1,0.2-0.3,0.2-0.5
				c0-0.6-0.3-1.1-1-1.5c-0.6-0.4-1.5-0.6-2.6-0.6c-1.1,0-1.9,0.2-2.6,0.7s-0.9,1.1-0.9,2H89.8z M96.1,55.2c-0.4,0-0.7-0.1-0.9-0.3
				c-0.2-0.2-0.3-0.5-0.3-0.9v-8.9c0-0.4,0.1-0.7,0.3-0.9c0.2-0.2,0.5-0.3,0.9-0.3c0.4,0,0.7,0.1,0.9,0.3c0.2,0.2,0.3,0.5,0.3,0.9
				V46c1.1-1.3,2.5-2,4.4-2c1.4,0,2.5,0.4,3.3,1.3c0.8,0.9,1.2,2,1.2,3.5v5.3c0,0.4-0.1,0.7-0.3,0.9c-0.2,0.2-0.5,0.3-0.9,0.3
				c-0.4,0-0.7-0.1-0.9-0.3c-0.2-0.2-0.3-0.5-0.3-0.9v-5.3c0-0.9-0.2-1.6-0.7-2.1c-0.4-0.5-1.1-0.7-1.9-0.7c-1.2,0-2.1,0.3-2.8,1
				c-0.7,0.7-1,1.6-1,2.8v4.2c0,0.4-0.1,0.6-0.3,0.8C96.8,55.1,96.5,55.2,96.1,55.2z M116.7,52.4c0.2,0.2,0.3,0.4,0.3,0.6
				c0,0.2-0.1,0.5-0.3,0.7c-0.3,0.5-0.7,0.8-1.3,1.1c-0.6,0.3-1.2,0.4-1.9,0.4c-1.1,0-2-0.3-2.6-0.9c-0.6-0.6-0.9-1.5-0.9-2.5v-5.6
				h-1c-0.4,0-0.7-0.1-0.9-0.3c-0.2-0.2-0.3-0.4-0.3-0.7c0-0.3,0.1-0.5,0.3-0.7c0.2-0.2,0.5-0.3,0.9-0.3h1v-3.5
				c0-0.4,0.1-0.7,0.3-0.9c0.2-0.2,0.5-0.3,0.9-0.3c0.4,0,0.7,0.1,0.9,0.3c0.2,0.2,0.3,0.5,0.3,0.9v3.5h2.4c0.4,0,0.7,0.1,0.9,0.3
				c0.2,0.2,0.3,0.4,0.3,0.7c0,0.3-0.1,0.5-0.3,0.7c-0.2,0.2-0.5,0.3-0.9,0.3h-2.4V52c0,0.4,0.1,0.7,0.3,0.9
				c0.2,0.2,0.5,0.3,0.9,0.3c0.5,0,1-0.2,1.5-0.6c0.3-0.3,0.6-0.5,0.9-0.5C116.4,52.1,116.6,52.2,116.7,52.4z M124.6,55.2
				c-1.3,0-2.4-0.2-3.3-0.7c-0.9-0.4-1.6-1.1-2.1-1.9c-0.5-0.8-0.7-1.8-0.7-3c0-1.8,0.5-3.2,1.6-4.2c1.1-1,2.5-1.5,4.4-1.5
				c1.2,0,2.2,0.2,3.1,0.5s1.6,0.9,2.1,1.5c0.5,0.7,0.7,1.4,0.7,2.2c0,0.7-0.2,1.2-0.6,1.6s-1,0.5-1.7,0.5h-7.1c0,0.9,0.3,1.6,1,2.1
				c0.6,0.5,1.6,0.7,2.8,0.7c0.7,0,1.3-0.1,1.8-0.2c0.5-0.1,1-0.4,1.5-0.7c0.4-0.3,0.7-0.4,1-0.4c0.2,0,0.4,0.1,0.6,0.3
				c0.2,0.2,0.4,0.5,0.4,0.7c0,0.3-0.1,0.5-0.4,0.7C128.2,54.7,126.6,55.2,124.6,55.2z M127.3,48.6c0.2,0,0.4-0.1,0.6-0.2
				c0.1-0.1,0.2-0.3,0.2-0.5c0-0.6-0.3-1.1-1-1.5c-0.6-0.4-1.5-0.6-2.6-0.6c-1.1,0-1.9,0.2-2.6,0.7s-0.9,1.1-0.9,2H127.3z
				 M133.6,55.2c-0.4,0-0.7-0.1-0.9-0.3c-0.2-0.2-0.3-0.5-0.3-0.9v-8.9c0-0.4,0.1-0.7,0.3-0.9c0.2-0.2,0.5-0.3,0.9-0.3
				c0.4,0,0.7,0.1,0.9,0.3c0.2,0.2,0.3,0.5,0.3,0.9V46c1.1-1.3,2.5-2,4.4-2c1.4,0,2.5,0.4,3.3,1.3c0.8,0.9,1.2,2,1.2,3.5v5.3
				c0,0.4-0.1,0.7-0.3,0.9c-0.2,0.2-0.5,0.3-0.9,0.3s-0.7-0.1-0.9-0.3c-0.2-0.2-0.3-0.5-0.3-0.9v-5.3c0-0.9-0.2-1.6-0.7-2.1
				c-0.4-0.5-1.1-0.7-1.9-0.7c-1.2,0-2.1,0.3-2.8,1s-1,1.6-1,2.8v4.2c0,0.4-0.1,0.6-0.3,0.8C134.2,55.1,133.9,55.2,133.6,55.2z
				 M151.5,55.2c-1.9,0-3.4-0.5-4.5-1.5c-1.1-1-1.6-2.4-1.6-4.1c0-1.7,0.5-3.1,1.6-4.1c1.1-1,2.6-1.5,4.5-1.5c1.1,0,2,0.2,2.8,0.5
				c0.8,0.3,1.5,0.8,2,1.4c0.2,0.2,0.2,0.4,0.2,0.6c0,0.3-0.2,0.6-0.5,0.9c-0.2,0.1-0.3,0.2-0.5,0.2c-0.4,0-0.8-0.2-1.1-0.5
				c-0.3-0.4-0.8-0.6-1.3-0.8c-0.5-0.2-1.1-0.3-1.7-0.3c-1.1,0-2,0.3-2.7,0.9c-0.6,0.6-0.9,1.5-0.9,2.7c0,1.2,0.3,2.1,0.9,2.7
				c0.6,0.6,1.5,1,2.7,1c1.3,0,2.3-0.4,3.2-1.2c0.4-0.4,0.7-0.5,1-0.5c0.2,0,0.5,0.1,0.6,0.2c0.3,0.2,0.5,0.5,0.5,0.9
				c0,0.2-0.1,0.5-0.3,0.6c-0.7,0.7-1.4,1.2-2.3,1.5C153.5,55.1,152.6,55.2,151.5,55.2z M164.6,55.2c-1.3,0-2.4-0.2-3.3-0.7
				c-0.9-0.4-1.6-1.1-2.1-1.9c-0.5-0.8-0.7-1.8-0.7-3c0-1.8,0.5-3.2,1.6-4.2c1.1-1,2.5-1.5,4.4-1.5c1.2,0,2.2,0.2,3.1,0.5
				s1.6,0.9,2.1,1.5c0.5,0.7,0.7,1.4,0.7,2.2c0,0.7-0.2,1.2-0.6,1.6c-0.4,0.4-1,0.5-1.7,0.5h-7.1c0,0.9,0.3,1.6,1,2.1
				c0.6,0.5,1.6,0.7,2.8,0.7c0.7,0,1.3-0.1,1.8-0.2s1-0.4,1.5-0.7c0.4-0.3,0.7-0.4,1-0.4c0.2,0,0.4,0.1,0.6,0.3
				c0.2,0.2,0.4,0.5,0.4,0.7c0,0.3-0.1,0.5-0.4,0.7C168.2,54.7,166.6,55.2,164.6,55.2z M167.3,48.6c0.2,0,0.4-0.1,0.6-0.2
				c0.1-0.1,0.2-0.3,0.2-0.5c0-0.6-0.3-1.1-1-1.5c-0.6-0.4-1.5-0.6-2.6-0.6c-1.1,0-1.9,0.2-2.6,0.7c-0.6,0.5-0.9,1.1-0.9,2H167.3z
				 M182.7,55.2c-0.4,0-0.7-0.1-0.9-0.3c-0.2-0.2-0.3-0.5-0.3-0.9v-12l-2.2,0.8c-0.2,0.1-0.4,0.1-0.6,0.1c-0.2,0-0.4-0.1-0.6-0.2
				c-0.2-0.1-0.3-0.2-0.4-0.4c-0.1-0.2-0.1-0.4-0.1-0.5c0-0.2,0.1-0.4,0.2-0.6c0.1-0.2,0.3-0.3,0.6-0.4l4-1.5
				c0.2-0.1,0.3-0.1,0.5-0.1c0.3,0,0.6,0.1,0.8,0.3s0.3,0.5,0.3,0.9v13.5c0,0.4-0.1,0.6-0.3,0.8C183.4,55.1,183.1,55.2,182.7,55.2z"
				/>
		</g>
		<g id="уроки" transform="translate(191.000000, 67.000000)">
			<g id="Rectangle-Copy-2">
				<g class="st12">
					<path id="path-5_2_" d="M27,11h166c14.9,0,27,12.1,27,27v16c0,14.9-12.1,27-27,27H27C12.1,81,0,68.9,0,54V38
						C0,23.1,12.1,11,27,11z"/>
				</g>
				<g>
					<path id="path-5_1_" class="st4" d="M27,11h166c14.9,0,27,12.1,27,27v16c0,14.9-12.1,27-27,27H27C12.1,81,0,68.9,0,54V38
						C0,23.1,12.1,11,27,11z"/>
				</g>
			</g>
			<g id="I-say-something_x2C_-it" transform="translate(15.957031, 21.724994)">
				<path id="Isaysomething_x2C_itisreallyinterestingand" class="st13" d="M0,21V11h2v10H0z M7.1,19L9,18.7
					c0.1,0.4,0.2,0.7,0.5,0.9s0.6,0.3,1.1,0.3c0.5,0,0.9-0.1,1.1-0.3c0.2-0.1,0.3-0.3,0.3-0.5c0-0.1,0-0.3-0.1-0.4
					c-0.1-0.1-0.3-0.2-0.6-0.3c-1.5-0.3-2.5-0.7-2.9-0.9c-0.6-0.4-0.9-0.9-0.9-1.6c0-0.6,0.2-1.2,0.7-1.6s1.3-0.6,2.3-0.6
					c1,0,1.7,0.2,2.2,0.5c0.5,0.3,0.8,0.8,1,1.4l-1.8,0.3c-0.1-0.3-0.2-0.5-0.4-0.6c-0.2-0.2-0.5-0.2-0.9-0.2
					c-0.5,0-0.9,0.1-1.1,0.2c-0.1,0.1-0.2,0.2-0.2,0.4c0,0.1,0.1,0.3,0.2,0.3c0.2,0.1,0.8,0.3,1.8,0.5c1,0.2,1.7,0.5,2.1,0.9
					c0.4,0.3,0.6,0.8,0.6,1.4c0,0.7-0.3,1.2-0.8,1.7c-0.6,0.5-1.4,0.7-2.5,0.7c-1,0-1.8-0.2-2.3-0.6C7.6,20.2,7.2,19.6,7.1,19z
					 M16.9,16l-1.7-0.3c0.2-0.7,0.5-1.2,1-1.6c0.5-0.3,1.2-0.5,2.1-0.5c0.9,0,1.5,0.1,1.9,0.3c0.4,0.2,0.7,0.5,0.9,0.8
					c0.2,0.3,0.3,0.9,0.3,1.7l0,2.2c0,0.6,0,1.1,0.1,1.4c0.1,0.3,0.2,0.6,0.3,1h-1.9c-0.1-0.1-0.1-0.3-0.2-0.6
					c0-0.1-0.1-0.2-0.1-0.2c-0.3,0.3-0.7,0.6-1.1,0.7c-0.4,0.2-0.8,0.2-1.2,0.2c-0.7,0-1.3-0.2-1.8-0.6C15.2,20.2,15,19.7,15,19
					c0-0.4,0.1-0.8,0.3-1.1c0.2-0.3,0.5-0.6,0.8-0.7c0.4-0.2,0.9-0.3,1.5-0.4c0.9-0.2,1.5-0.3,1.9-0.5v-0.2c0-0.4-0.1-0.6-0.3-0.8
					c-0.2-0.2-0.5-0.2-1-0.2c-0.3,0-0.6,0.1-0.8,0.2C17.2,15.4,17,15.6,16.9,16z M19.5,17.5c-0.2,0.1-0.6,0.2-1.2,0.3
					c-0.5,0.1-0.9,0.2-1,0.3c-0.3,0.2-0.4,0.4-0.4,0.7c0,0.3,0.1,0.5,0.3,0.7c0.2,0.2,0.5,0.3,0.8,0.3c0.3,0,0.7-0.1,1-0.3
					c0.2-0.2,0.4-0.4,0.5-0.6c0.1-0.2,0.1-0.5,0.1-0.9V17.5z M22.3,13.8h2l1.7,5.2l1.7-5.2h2l-2.6,7L26.7,22c-0.2,0.4-0.3,0.7-0.5,1
					c-0.2,0.2-0.3,0.4-0.5,0.5c-0.2,0.1-0.4,0.2-0.7,0.3c-0.3,0.1-0.6,0.1-1,0.1c-0.4,0-0.7,0-1.1-0.1l-0.2-1.5
					c0.3,0.1,0.6,0.1,0.8,0.1c0.4,0,0.8-0.1,1-0.4c0.2-0.3,0.4-0.6,0.5-1L22.3,13.8z M34.1,19l1.9-0.3c0.1,0.4,0.2,0.7,0.5,0.9
					s0.6,0.3,1.1,0.3c0.5,0,0.9-0.1,1.1-0.3c0.2-0.1,0.3-0.3,0.3-0.5c0-0.1,0-0.3-0.1-0.4c-0.1-0.1-0.3-0.2-0.6-0.3
					c-1.5-0.3-2.5-0.7-2.9-0.9c-0.6-0.4-0.9-0.9-0.9-1.6c0-0.6,0.2-1.2,0.7-1.6c0.5-0.4,1.3-0.6,2.3-0.6c1,0,1.7,0.2,2.2,0.5
					c0.5,0.3,0.8,0.8,1,1.4l-1.8,0.3c-0.1-0.3-0.2-0.5-0.4-0.6S37.9,15,37.5,15c-0.5,0-0.9,0.1-1.1,0.2c-0.1,0.1-0.2,0.2-0.2,0.4
					c0,0.1,0.1,0.3,0.2,0.3c0.2,0.1,0.8,0.3,1.8,0.5c1,0.2,1.7,0.5,2.1,0.9c0.4,0.3,0.6,0.8,0.6,1.4c0,0.7-0.3,1.2-0.8,1.7
					c-0.6,0.5-1.4,0.7-2.5,0.7c-1,0-1.8-0.2-2.3-0.6C34.7,20.2,34.3,19.6,34.1,19z M42.1,17.3c0-0.6,0.2-1.3,0.5-1.9
					c0.3-0.6,0.8-1.1,1.3-1.4c0.6-0.3,1.2-0.5,1.9-0.5c1.1,0,2,0.4,2.7,1.1c0.7,0.7,1.1,1.6,1.1,2.7c0,1.1-0.4,2-1.1,2.7
					c-0.7,0.7-1.6,1.1-2.7,1.1c-0.7,0-1.3-0.2-1.9-0.5c-0.6-0.3-1.1-0.7-1.4-1.3C42.2,18.8,42.1,18.1,42.1,17.3z M44,17.4
					c0,0.7,0.2,1.3,0.5,1.7c0.3,0.4,0.8,0.6,1.3,0.6s0.9-0.2,1.3-0.6s0.5-0.9,0.5-1.7c0-0.7-0.2-1.3-0.5-1.6s-0.8-0.6-1.3-0.6
					s-0.9,0.2-1.3,0.6C44.2,16.1,44,16.7,44,17.4z M50.9,13.8h1.8v1c0.6-0.8,1.4-1.2,2.3-1.2c0.5,0,0.9,0.1,1.2,0.3
					c0.3,0.2,0.6,0.5,0.8,0.9c0.3-0.4,0.7-0.7,1-0.9c0.4-0.2,0.8-0.3,1.2-0.3c0.5,0,1,0.1,1.4,0.3c0.4,0.2,0.6,0.5,0.8,1
					c0.1,0.3,0.2,0.8,0.2,1.5V21h-1.9v-4.1c0-0.7-0.1-1.2-0.2-1.4c-0.2-0.3-0.5-0.4-0.8-0.4c-0.3,0-0.5,0.1-0.8,0.2
					s-0.4,0.4-0.5,0.7c-0.1,0.3-0.2,0.8-0.2,1.5V21h-1.9v-4c0-0.7,0-1.2-0.1-1.4c-0.1-0.2-0.2-0.4-0.3-0.5c-0.1-0.1-0.3-0.2-0.6-0.2
					c-0.3,0-0.6,0.1-0.8,0.2S53.1,15.7,53,16c-0.1,0.3-0.2,0.8-0.2,1.5V21h-1.9V13.8z M67.6,18.7l1.9,0.3c-0.2,0.7-0.6,1.2-1.2,1.6
					c-0.5,0.4-1.2,0.6-2,0.6c-1.3,0-2.2-0.4-2.8-1.2c-0.5-0.7-0.7-1.5-0.7-2.5c0-1.2,0.3-2.1,0.9-2.8c0.6-0.7,1.4-1,2.4-1
					c1.1,0,1.9,0.4,2.6,1.1s0.9,1.8,0.9,3.3h-4.8c0,0.6,0.2,1,0.5,1.3c0.3,0.3,0.7,0.5,1.1,0.5c0.3,0,0.6-0.1,0.8-0.2
					C67.4,19.3,67.5,19.1,67.6,18.7z M67.7,16.8c0-0.6-0.2-1-0.4-1.3s-0.6-0.4-1-0.4c-0.4,0-0.8,0.2-1,0.5c-0.3,0.3-0.4,0.7-0.4,1.2
					H67.7z M74.5,13.8v1.5h-1.3v2.9c0,0.6,0,0.9,0,1c0,0.1,0.1,0.2,0.2,0.2s0.2,0.1,0.3,0.1c0.2,0,0.4-0.1,0.8-0.2l0.2,1.5
					c-0.4,0.2-1,0.3-1.5,0.3c-0.3,0-0.7-0.1-0.9-0.2c-0.3-0.1-0.5-0.3-0.6-0.5c-0.1-0.2-0.2-0.4-0.3-0.7c0-0.2-0.1-0.7-0.1-1.4v-3.2
					h-0.9v-1.5h0.9v-1.4l1.9-1.1v2.6H74.5z M77.7,11v3.7c0.6-0.7,1.4-1.1,2.2-1.1c0.4,0,0.8,0.1,1.2,0.2c0.4,0.2,0.6,0.4,0.8,0.6
					c0.2,0.3,0.3,0.5,0.4,0.8c0.1,0.3,0.1,0.8,0.1,1.4V21h-1.9v-3.8c0-0.8,0-1.2-0.1-1.4c-0.1-0.2-0.2-0.4-0.4-0.5
					c-0.2-0.1-0.4-0.2-0.7-0.2c-0.3,0-0.6,0.1-0.9,0.2c-0.3,0.2-0.4,0.4-0.6,0.7c-0.1,0.3-0.2,0.8-0.2,1.4V21h-1.9V11H77.7z
					 M84.3,12.8V11h1.9v1.8H84.3z M84.3,21v-7.3h1.9V21H84.3z M94.7,21h-1.9v-3.7c0-0.8,0-1.3-0.1-1.5s-0.2-0.4-0.4-0.5
					c-0.2-0.1-0.4-0.2-0.7-0.2c-0.3,0-0.6,0.1-0.9,0.3c-0.3,0.2-0.4,0.4-0.5,0.7S90,16.9,90,17.7V21h-1.9v-7.3h1.8v1.1
					c0.6-0.8,1.4-1.2,2.4-1.2c0.4,0,0.8,0.1,1.2,0.2c0.4,0.2,0.6,0.3,0.8,0.6s0.3,0.5,0.4,0.8c0.1,0.3,0.1,0.7,0.1,1.3V21z
					 M96.4,21.5l2.2,0.3c0,0.3,0.1,0.4,0.3,0.5c0.2,0.1,0.5,0.2,0.9,0.2c0.5,0,0.9-0.1,1.1-0.2c0.2-0.1,0.3-0.3,0.4-0.5
					c0.1-0.2,0.1-0.5,0.1-0.9v-1.1c-0.6,0.8-1.3,1.2-2.2,1.2c-1,0-1.7-0.4-2.3-1.2c-0.4-0.7-0.7-1.5-0.7-2.4c0-1.2,0.3-2.1,0.9-2.8
					c0.6-0.6,1.3-1,2.2-1c0.9,0,1.6,0.4,2.2,1.2v-1h1.8v6.5c0,0.9-0.1,1.5-0.2,1.9c-0.1,0.4-0.3,0.8-0.6,1c-0.3,0.2-0.6,0.4-1,0.6
					c-0.4,0.1-1,0.2-1.6,0.2c-1.2,0-2.1-0.2-2.6-0.6c-0.5-0.4-0.8-1-0.8-1.6C96.4,21.7,96.4,21.6,96.4,21.5z M98.2,17.2
					c0,0.8,0.1,1.3,0.4,1.7c0.3,0.4,0.7,0.5,1.1,0.5c0.5,0,0.9-0.2,1.2-0.6s0.5-0.9,0.5-1.6c0-0.8-0.2-1.3-0.5-1.7
					c-0.3-0.4-0.7-0.5-1.2-0.5c-0.5,0-0.8,0.2-1.1,0.5C98.3,16,98.2,16.5,98.2,17.2z M105.1,19.1h1.9v1.4c0,0.6,0,1-0.1,1.3
					s-0.3,0.6-0.5,0.9c-0.3,0.3-0.6,0.5-1,0.6l-0.4-0.8c0.4-0.1,0.7-0.3,0.8-0.5s0.3-0.5,0.3-0.9h-0.9V19.1z M112.8,12.8V11h1.9v1.8
					H112.8z M112.8,21v-7.3h1.9V21H112.8z M120,13.8v1.5h-1.3v2.9c0,0.6,0,0.9,0,1c0,0.1,0.1,0.2,0.2,0.2c0.1,0.1,0.2,0.1,0.3,0.1
					c0.2,0,0.4-0.1,0.8-0.2l0.2,1.5c-0.4,0.2-1,0.3-1.5,0.3c-0.3,0-0.7-0.1-0.9-0.2c-0.3-0.1-0.5-0.3-0.6-0.5
					c-0.1-0.2-0.2-0.4-0.3-0.7c0-0.2-0.1-0.7-0.1-1.4v-3.2h-0.9v-1.5h0.9v-1.4l1.9-1.1v2.6H120z M125.1,12.8V11h1.9v1.8H125.1z
					 M125.1,21v-7.3h1.9V21H125.1z M128.3,19l1.9-0.3c0.1,0.4,0.2,0.7,0.5,0.9c0.3,0.2,0.6,0.3,1.1,0.3c0.5,0,0.9-0.1,1.1-0.3
					c0.2-0.1,0.3-0.3,0.3-0.5c0-0.1,0-0.3-0.1-0.4c-0.1-0.1-0.3-0.2-0.6-0.3c-1.5-0.3-2.5-0.7-2.9-0.9c-0.6-0.4-0.9-0.9-0.9-1.6
					c0-0.6,0.2-1.2,0.7-1.6c0.5-0.4,1.3-0.6,2.3-0.6c1,0,1.7,0.2,2.2,0.5c0.5,0.3,0.8,0.8,1,1.4l-1.8,0.3c-0.1-0.3-0.2-0.5-0.4-0.6
					c-0.2-0.2-0.5-0.2-0.9-0.2c-0.5,0-0.9,0.1-1.1,0.2c-0.1,0.1-0.2,0.2-0.2,0.4c0,0.1,0.1,0.3,0.2,0.3c0.2,0.1,0.8,0.3,1.8,0.5
					c1,0.2,1.7,0.5,2.1,0.9c0.4,0.3,0.6,0.8,0.6,1.4c0,0.7-0.3,1.2-0.8,1.7c-0.6,0.5-1.4,0.7-2.5,0.7c-1,0-1.8-0.2-2.3-0.6
					C128.8,20.2,128.4,19.6,128.3,19z M142.4,21h-1.9v-7.3h1.8v1c0.3-0.5,0.6-0.8,0.8-1c0.2-0.2,0.5-0.2,0.8-0.2
					c0.4,0,0.9,0.1,1.3,0.4l-0.6,1.7c-0.3-0.2-0.6-0.3-0.9-0.3c-0.3,0-0.5,0.1-0.7,0.2c-0.2,0.1-0.3,0.4-0.4,0.8
					c-0.1,0.4-0.2,1.2-0.2,2.4V21z M150.1,18.7L152,19c-0.2,0.7-0.6,1.2-1.2,1.6c-0.5,0.4-1.2,0.6-2,0.6c-1.3,0-2.2-0.4-2.8-1.2
					c-0.5-0.7-0.7-1.5-0.7-2.5c0-1.2,0.3-2.1,0.9-2.8c0.6-0.7,1.4-1,2.4-1c1.1,0,1.9,0.4,2.6,1.1c0.6,0.7,0.9,1.8,0.9,3.3h-4.8
					c0,0.6,0.2,1,0.5,1.3c0.3,0.3,0.7,0.5,1.1,0.5c0.3,0,0.6-0.1,0.8-0.2C149.9,19.3,150,19.1,150.1,18.7z M150.2,16.8
					c0-0.6-0.2-1-0.4-1.3s-0.6-0.4-1-0.4c-0.4,0-0.8,0.2-1,0.5c-0.3,0.3-0.4,0.7-0.4,1.2H150.2z M155.1,16l-1.7-0.3
					c0.2-0.7,0.5-1.2,1-1.6c0.5-0.3,1.2-0.5,2.1-0.5c0.9,0,1.5,0.1,1.9,0.3c0.4,0.2,0.7,0.5,0.9,0.8c0.2,0.3,0.3,0.9,0.3,1.7l0,2.2
					c0,0.6,0,1.1,0.1,1.4c0.1,0.3,0.2,0.6,0.3,1h-1.9c-0.1-0.1-0.1-0.3-0.2-0.6c0-0.1-0.1-0.2-0.1-0.2c-0.3,0.3-0.7,0.6-1.1,0.7
					c-0.4,0.2-0.8,0.2-1.2,0.2c-0.7,0-1.3-0.2-1.8-0.6c-0.4-0.4-0.6-0.9-0.6-1.5c0-0.4,0.1-0.8,0.3-1.1c0.2-0.3,0.5-0.6,0.8-0.7
					c0.4-0.2,0.9-0.3,1.5-0.4c0.9-0.2,1.5-0.3,1.9-0.5v-0.2c0-0.4-0.1-0.6-0.3-0.8c-0.2-0.2-0.5-0.2-1-0.2c-0.3,0-0.6,0.1-0.8,0.2
					C155.4,15.4,155.2,15.6,155.1,16z M157.7,17.5c-0.2,0.1-0.6,0.2-1.2,0.3c-0.5,0.1-0.9,0.2-1,0.3c-0.3,0.2-0.4,0.4-0.4,0.7
					c0,0.3,0.1,0.5,0.3,0.7c0.2,0.2,0.5,0.3,0.8,0.3c0.3,0,0.7-0.1,1-0.3c0.2-0.2,0.4-0.4,0.5-0.6c0.1-0.2,0.1-0.5,0.1-0.9V17.5z
					 M161.4,21V11h1.9v10H161.4z M165.2,21V11h1.9v10H165.2z M168.2,13.8h2l1.7,5.2l1.7-5.2h2l-2.6,7l-0.5,1.3
					c-0.2,0.4-0.3,0.7-0.5,1c-0.2,0.2-0.3,0.4-0.5,0.5s-0.4,0.2-0.7,0.3c-0.3,0.1-0.6,0.1-1,0.1c-0.4,0-0.7,0-1.1-0.1l-0.2-1.5
					c0.3,0.1,0.6,0.1,0.8,0.1c0.4,0,0.8-0.1,1-0.4c0.2-0.3,0.4-0.6,0.5-1L168.2,13.8z M0,28.8V27H2v1.8H0z M0,37v-7.3H2V37H0z
					 M10.5,37H8.6v-3.7c0-0.8,0-1.3-0.1-1.5c-0.1-0.2-0.2-0.4-0.4-0.5c-0.2-0.1-0.4-0.2-0.7-0.2c-0.3,0-0.6,0.1-0.9,0.3
					c-0.3,0.2-0.4,0.4-0.5,0.7c-0.1,0.3-0.1,0.9-0.1,1.7V37H3.9v-7.3h1.8v1.1c0.6-0.8,1.4-1.2,2.4-1.2c0.4,0,0.8,0.1,1.2,0.2
					s0.6,0.3,0.8,0.6c0.2,0.2,0.3,0.5,0.4,0.8s0.1,0.7,0.1,1.3V37z M15.7,29.8v1.5h-1.3v2.9c0,0.6,0,0.9,0,1c0,0.1,0.1,0.2,0.2,0.2
					c0.1,0.1,0.2,0.1,0.3,0.1c0.2,0,0.4-0.1,0.8-0.2l0.2,1.5c-0.4,0.2-1,0.3-1.5,0.3c-0.3,0-0.7-0.1-0.9-0.2
					c-0.3-0.1-0.5-0.3-0.6-0.5c-0.1-0.2-0.2-0.4-0.3-0.7c0-0.2-0.1-0.7-0.1-1.4v-3.2h-0.9v-1.5h0.9v-1.4l1.9-1.1v2.6H15.7z
					 M21.2,34.7l1.9,0.3c-0.2,0.7-0.6,1.2-1.2,1.6c-0.5,0.4-1.2,0.6-2,0.6c-1.3,0-2.2-0.4-2.8-1.2c-0.5-0.7-0.7-1.5-0.7-2.5
					c0-1.2,0.3-2.1,0.9-2.8c0.6-0.7,1.4-1,2.4-1c1.1,0,1.9,0.4,2.6,1.1c0.6,0.7,0.9,1.8,0.9,3.3h-4.8c0,0.6,0.2,1,0.5,1.3
					c0.3,0.3,0.7,0.5,1.1,0.5c0.3,0,0.6-0.1,0.8-0.2C20.9,35.3,21.1,35.1,21.2,34.7z M21.3,32.8c0-0.6-0.2-1-0.4-1.3
					c-0.3-0.3-0.6-0.4-1-0.4c-0.4,0-0.8,0.2-1,0.5c-0.3,0.3-0.4,0.7-0.4,1.2H21.3z M26.6,37h-1.9v-7.3h1.8v1c0.3-0.5,0.6-0.8,0.8-1
					s0.5-0.2,0.8-0.2c0.4,0,0.9,0.1,1.3,0.4l-0.6,1.7c-0.3-0.2-0.6-0.3-0.9-0.3c-0.3,0-0.5,0.1-0.7,0.2c-0.2,0.1-0.3,0.4-0.4,0.8
					c-0.1,0.4-0.2,1.2-0.2,2.4V37z M34.3,34.7l1.9,0.3c-0.2,0.7-0.6,1.2-1.2,1.6c-0.5,0.4-1.2,0.6-2,0.6c-1.3,0-2.2-0.4-2.8-1.2
					c-0.5-0.7-0.7-1.5-0.7-2.5c0-1.2,0.3-2.1,0.9-2.8c0.6-0.7,1.4-1,2.4-1c1.1,0,1.9,0.4,2.6,1.1s0.9,1.8,0.9,3.3h-4.8
					c0,0.6,0.2,1,0.5,1.3c0.3,0.3,0.7,0.5,1.1,0.5c0.3,0,0.6-0.1,0.8-0.2C34.1,35.3,34.2,35.1,34.3,34.7z M34.5,32.8
					c0-0.6-0.2-1-0.4-1.3c-0.3-0.3-0.6-0.4-1-0.4c-0.4,0-0.8,0.2-1,0.5c-0.3,0.3-0.4,0.7-0.4,1.2H34.5z M37.2,35l1.9-0.3
					c0.1,0.4,0.2,0.7,0.5,0.9c0.3,0.2,0.6,0.3,1.1,0.3c0.5,0,0.9-0.1,1.1-0.3c0.2-0.1,0.3-0.3,0.3-0.5c0-0.1,0-0.3-0.1-0.4
					c-0.1-0.1-0.3-0.2-0.6-0.3c-1.5-0.3-2.5-0.7-2.9-0.9c-0.6-0.4-0.9-0.9-0.9-1.6c0-0.6,0.2-1.2,0.7-1.6c0.5-0.4,1.3-0.6,2.3-0.6
					c1,0,1.7,0.2,2.2,0.5c0.5,0.3,0.8,0.8,1,1.4l-1.8,0.3c-0.1-0.3-0.2-0.5-0.4-0.6S41,31,40.6,31c-0.5,0-0.9,0.1-1.1,0.2
					c-0.1,0.1-0.2,0.2-0.2,0.4c0,0.1,0.1,0.3,0.2,0.3c0.2,0.1,0.8,0.3,1.8,0.5c1,0.2,1.7,0.5,2.1,0.9c0.4,0.3,0.6,0.8,0.6,1.4
					c0,0.7-0.3,1.2-0.8,1.7c-0.6,0.5-1.4,0.7-2.5,0.7c-1,0-1.8-0.2-2.3-0.6S37.4,35.6,37.2,35z M48.9,29.8v1.5h-1.3v2.9
					c0,0.6,0,0.9,0,1c0,0.1,0.1,0.2,0.2,0.2c0.1,0.1,0.2,0.1,0.3,0.1c0.2,0,0.4-0.1,0.8-0.2l0.2,1.5c-0.4,0.2-1,0.3-1.5,0.3
					c-0.3,0-0.7-0.1-0.9-0.2s-0.5-0.3-0.6-0.5c-0.1-0.2-0.2-0.4-0.3-0.7c0-0.2-0.1-0.7-0.1-1.4v-3.2h-0.9v-1.5h0.9v-1.4l1.9-1.1v2.6
					H48.9z M50.2,28.8V27h1.9v1.8H50.2z M50.2,37v-7.3h1.9V37H50.2z M60.7,37h-1.9v-3.7c0-0.8,0-1.3-0.1-1.5
					c-0.1-0.2-0.2-0.4-0.4-0.5c-0.2-0.1-0.4-0.2-0.7-0.2c-0.3,0-0.6,0.1-0.9,0.3c-0.3,0.2-0.4,0.4-0.5,0.7C56,32.4,56,32.9,56,33.7
					V37h-1.9v-7.3h1.8v1.1c0.6-0.8,1.4-1.2,2.4-1.2c0.4,0,0.8,0.1,1.2,0.2c0.4,0.2,0.6,0.3,0.8,0.6c0.2,0.2,0.3,0.5,0.4,0.8
					c0.1,0.3,0.1,0.7,0.1,1.3V37z M62.4,37.5l2.2,0.3c0,0.3,0.1,0.4,0.3,0.5c0.2,0.1,0.5,0.2,0.9,0.2c0.5,0,0.9-0.1,1.1-0.2
					c0.2-0.1,0.3-0.3,0.4-0.5c0.1-0.2,0.1-0.5,0.1-0.9v-1.1C66.7,36.6,66,37,65.1,37c-1,0-1.7-0.4-2.3-1.2c-0.4-0.7-0.7-1.5-0.7-2.4
					c0-1.2,0.3-2.1,0.9-2.8c0.6-0.6,1.3-1,2.2-1c0.9,0,1.6,0.4,2.2,1.2v-1h1.8v6.5c0,0.9-0.1,1.5-0.2,1.9c-0.1,0.4-0.3,0.8-0.6,1
					c-0.3,0.2-0.6,0.4-1,0.6s-1,0.2-1.6,0.2c-1.2,0-2.1-0.2-2.6-0.6s-0.8-1-0.8-1.6C62.4,37.7,62.4,37.6,62.4,37.5z M64.1,33.2
					c0,0.8,0.1,1.3,0.4,1.7c0.3,0.4,0.7,0.5,1.1,0.5c0.5,0,0.9-0.2,1.2-0.6s0.5-0.9,0.5-1.6c0-0.8-0.2-1.3-0.5-1.7s-0.7-0.5-1.2-0.5
					c-0.5,0-0.8,0.2-1.1,0.5C64.3,32,64.1,32.5,64.1,33.2z M76.4,32l-1.7-0.3c0.2-0.7,0.5-1.2,1-1.6c0.5-0.3,1.2-0.5,2.1-0.5
					c0.9,0,1.5,0.1,1.9,0.3s0.7,0.5,0.9,0.8s0.3,0.9,0.3,1.7l0,2.2c0,0.6,0,1.1,0.1,1.4c0.1,0.3,0.2,0.6,0.3,1h-1.9
					c-0.1-0.1-0.1-0.3-0.2-0.6c0-0.1-0.1-0.2-0.1-0.2c-0.3,0.3-0.7,0.6-1.1,0.7c-0.4,0.2-0.8,0.2-1.2,0.2c-0.7,0-1.3-0.2-1.8-0.6
					c-0.4-0.4-0.6-0.9-0.6-1.5c0-0.4,0.1-0.8,0.3-1.1c0.2-0.3,0.5-0.6,0.8-0.7c0.4-0.2,0.9-0.3,1.5-0.4c0.9-0.2,1.5-0.3,1.9-0.5
					v-0.2c0-0.4-0.1-0.6-0.3-0.8c-0.2-0.2-0.5-0.2-1-0.2c-0.3,0-0.6,0.1-0.8,0.2S76.5,31.6,76.4,32z M78.9,33.5
					c-0.2,0.1-0.6,0.2-1.2,0.3c-0.5,0.1-0.9,0.2-1,0.3c-0.3,0.2-0.4,0.4-0.4,0.7c0,0.3,0.1,0.5,0.3,0.7c0.2,0.2,0.5,0.3,0.8,0.3
					c0.3,0,0.7-0.1,1-0.3c0.2-0.2,0.4-0.4,0.5-0.6c0.1-0.2,0.1-0.5,0.1-0.9V33.5z M89.3,37h-1.9v-3.7c0-0.8,0-1.3-0.1-1.5
					s-0.2-0.4-0.4-0.5s-0.4-0.2-0.7-0.2c-0.3,0-0.6,0.1-0.9,0.3c-0.3,0.2-0.4,0.4-0.5,0.7c-0.1,0.3-0.1,0.9-0.1,1.7V37h-1.9v-7.3
					h1.8v1.1c0.6-0.8,1.4-1.2,2.4-1.2c0.4,0,0.8,0.1,1.2,0.2s0.6,0.3,0.8,0.6s0.3,0.5,0.4,0.8s0.1,0.7,0.1,1.3V37z M97.8,37H96V36
					c-0.3,0.4-0.6,0.7-1,0.9c-0.4,0.2-0.8,0.3-1.2,0.3c-0.8,0-1.5-0.3-2.1-1c-0.6-0.7-0.9-1.6-0.9-2.8c0-1.2,0.3-2.2,0.9-2.8
					c0.6-0.6,1.3-1,2.2-1c0.8,0,1.5,0.3,2.1,1V27h1.9V37z M92.7,33.2c0,0.8,0.1,1.3,0.3,1.7c0.3,0.5,0.7,0.8,1.3,0.8
					c0.4,0,0.8-0.2,1.1-0.6c0.3-0.4,0.5-0.9,0.5-1.7c0-0.8-0.2-1.4-0.5-1.8c-0.3-0.4-0.7-0.6-1.2-0.6c-0.5,0-0.8,0.2-1.1,0.5
					C92.8,32,92.7,32.5,92.7,33.2z"/>
				<path id="_x25CF_" class="st14" d="M106.7,30.1c0.5,0,1,0.1,1.5,0.4c0.5,0.3,0.9,0.6,1.1,1.1c0.3,0.5,0.4,1,0.4,1.5
					c0,0.8-0.3,1.5-0.9,2.1c-0.6,0.6-1.3,0.9-2.1,0.9c-0.8,0-1.5-0.3-2.1-0.9c-0.6-0.6-0.9-1.3-0.9-2.1c0-0.5,0.1-1,0.4-1.5
					c0.3-0.5,0.6-0.9,1.1-1.1C105.7,30.2,106.2,30.1,106.7,30.1z"/>
				<path id="_x25CF__x25CF__x25CF__x25CF__x25CF__x25CF__x25CF__x25CF_" class="st15" d="M115.1,30.1c0.5,0,1,0.1,1.5,0.4
					c0.5,0.3,0.9,0.6,1.1,1.1c0.3,0.5,0.4,1,0.4,1.5c0,0.8-0.3,1.5-0.9,2.1c-0.6,0.6-1.3,0.9-2.1,0.9c-0.8,0-1.5-0.3-2.1-0.9
					c-0.6-0.6-0.9-1.3-0.9-2.1c0-0.5,0.1-1,0.4-1.5s0.6-0.9,1.1-1.1C114.1,30.2,114.6,30.1,115.1,30.1z M123.5,30.1
					c0.5,0,1,0.1,1.5,0.4s0.9,0.6,1.1,1.1c0.3,0.5,0.4,1,0.4,1.5c0,0.8-0.3,1.5-0.9,2.1c-0.6,0.6-1.3,0.9-2.1,0.9
					c-0.8,0-1.5-0.3-2.1-0.9c-0.6-0.6-0.9-1.3-0.9-2.1c0-0.5,0.1-1,0.4-1.5s0.6-0.9,1.1-1.1S123,30.1,123.5,30.1z M132,30.1
					c0.5,0,1,0.1,1.5,0.4s0.9,0.6,1.1,1.1c0.3,0.5,0.4,1,0.4,1.5c0,0.8-0.3,1.5-0.9,2.1s-1.3,0.9-2.1,0.9c-0.8,0-1.5-0.3-2.1-0.9
					s-0.9-1.3-0.9-2.1c0-0.5,0.1-1,0.4-1.5c0.3-0.5,0.6-0.9,1.1-1.1S131.4,30.1,132,30.1z M140.4,30.1c0.5,0,1,0.1,1.5,0.4
					s0.9,0.6,1.1,1.1c0.3,0.5,0.4,1,0.4,1.5c0,0.8-0.3,1.5-0.9,2.1s-1.3,0.9-2.1,0.9c-0.8,0-1.5-0.3-2.1-0.9s-0.9-1.3-0.9-2.1
					c0-0.5,0.1-1,0.4-1.5s0.6-0.9,1.1-1.1S139.9,30.1,140.4,30.1z M148.8,30.1c0.5,0,1,0.1,1.5,0.4s0.9,0.6,1.1,1.1
					c0.3,0.5,0.4,1,0.4,1.5c0,0.8-0.3,1.5-0.9,2.1s-1.3,0.9-2.1,0.9c-0.8,0-1.5-0.3-2.1-0.9s-0.9-1.3-0.9-2.1c0-0.5,0.1-1,0.4-1.5
					c0.3-0.5,0.6-0.9,1.1-1.1S148.3,30.1,148.8,30.1z M157.2,30.1c0.5,0,1,0.1,1.5,0.4s0.9,0.6,1.1,1.1c0.3,0.5,0.4,1,0.4,1.5
					c0,0.8-0.3,1.5-0.9,2.1c-0.6,0.6-1.3,0.9-2.1,0.9c-0.8,0-1.5-0.3-2.1-0.9c-0.6-0.6-0.9-1.3-0.9-2.1c0-0.5,0.1-1,0.4-1.5
					c0.3-0.5,0.6-0.9,1.1-1.1S156.7,30.1,157.2,30.1z M165.6,30.1c0.5,0,1,0.1,1.5,0.4c0.5,0.3,0.9,0.6,1.1,1.1
					c0.3,0.5,0.4,1,0.4,1.5c0,0.8-0.3,1.5-0.9,2.1c-0.6,0.6-1.3,0.9-2.1,0.9c-0.8,0-1.5-0.3-2.1-0.9c-0.6-0.6-0.9-1.3-0.9-2.1
					c0-0.5,0.1-1,0.4-1.5c0.3-0.5,0.6-0.9,1.1-1.1C164.6,30.2,165.1,30.1,165.6,30.1z M174,30.1c0.5,0,1,0.1,1.5,0.4
					c0.5,0.3,0.9,0.6,1.1,1.1c0.3,0.5,0.4,1,0.4,1.5c0,0.8-0.3,1.5-0.9,2.1c-0.6,0.6-1.3,0.9-2.1,0.9c-0.8,0-1.5-0.3-2.1-0.9
					c-0.6-0.6-0.9-1.3-0.9-2.1c0-0.5,0.1-1,0.4-1.5c0.3-0.5,0.6-0.9,1.1-1.1C173,30.2,173.5,30.1,174,30.1z"/>
				<polygon id="_x2E_" class="st13" points="179.2,37 179.2,35.1 181.1,35.1 181.1,37 				"/>
			</g>
		</g>
	</g>
</g>
<g>
	<g>
		<path d="M488.9,275.8c-1.4,0-2.6-0.2-3.8-0.6s-2.2-1-3-1.7c-0.9-0.7-1.5-1.6-2-2.5c-0.2-0.3-0.2-0.7,0-0.9
			c0.2-0.3,0.4-0.5,0.8-0.6c0.3-0.1,0.6-0.1,0.9,0.1c0.3,0.1,0.5,0.4,0.7,0.7c0.3,0.6,0.8,1.2,1.4,1.7c0.6,0.5,1.4,0.9,2.2,1.1
			c0.9,0.3,1.8,0.4,2.8,0.4c1.1,0,2.1-0.2,3-0.6c0.9-0.4,1.6-0.9,2.1-1.6c0.5-0.7,0.8-1.6,0.8-2.6c0-1.3-0.5-2.4-1.4-3.4
			c-1-0.9-2.5-1.5-4.5-1.8c-2.5-0.3-4.4-1.1-5.9-2.3c-1.4-1.2-2.1-2.8-2.1-4.6c0-1.3,0.3-2.4,1-3.4c0.7-1,1.6-1.7,2.9-2.2
			c1.2-0.5,2.6-0.8,4.2-0.8c1.2,0,2.2,0.2,3.2,0.6c1,0.4,1.8,0.9,2.5,1.5c0.7,0.6,1.3,1.3,1.7,2c0.2,0.3,0.3,0.7,0.2,1
			c-0.1,0.3-0.3,0.6-0.6,0.7c-0.3,0.1-0.6,0.2-1,0.1s-0.6-0.3-0.8-0.6c-0.3-0.5-0.7-1-1.2-1.4c-0.5-0.4-1.1-0.8-1.7-1
			c-0.7-0.3-1.5-0.4-2.5-0.4c-1.7,0-3,0.4-4.1,1.1c-1,0.7-1.5,1.8-1.5,3.1c0,0.7,0.2,1.4,0.6,2s1,1.1,1.9,1.6c0.9,0.4,2.1,0.8,3.6,1
			c2.7,0.4,4.6,1.2,5.9,2.4c1.3,1.2,1.9,2.9,1.9,4.9c0,1.2-0.2,2.2-0.6,3.1s-1,1.6-1.8,2.3c-0.8,0.6-1.6,1.1-2.7,1.4
			C491.1,275.7,490,275.8,488.9,275.8z"/>
		<path d="M500.9,260.8c-0.3,0-0.6-0.1-0.8-0.3c-0.2-0.2-0.3-0.5-0.3-0.8c0-0.3,0.1-0.6,0.3-0.8c0.2-0.2,0.5-0.3,0.8-0.3h8.2
			c0.3,0,0.6,0.1,0.8,0.3c0.2,0.2,0.3,0.5,0.3,0.8c0,0.3-0.1,0.5-0.3,0.8c-0.2,0.2-0.5,0.3-0.8,0.3H500.9z M508.9,275.5
			c-1.1,0-2.1-0.3-3-0.8c-0.9-0.5-1.6-1.3-2.1-2.2c-0.5-0.9-0.8-2-0.8-3.2v-15.6c0-0.4,0.1-0.7,0.3-0.9c0.2-0.2,0.5-0.4,0.9-0.4
			c0.4,0,0.7,0.1,0.9,0.4c0.2,0.2,0.4,0.5,0.4,0.9v15.6c0,1.1,0.3,2,1,2.7c0.6,0.7,1.5,1,2.5,1h0.9c0.3,0,0.6,0.1,0.8,0.4
			s0.3,0.5,0.3,0.9s-0.1,0.7-0.4,0.9c-0.3,0.2-0.6,0.3-1,0.3H508.9z"/>
		<path d="M516.1,275.5c-0.4,0-0.7-0.1-0.9-0.3c-0.2-0.2-0.3-0.5-0.3-0.9v-15.1c0-0.4,0.1-0.7,0.3-0.9c0.2-0.2,0.5-0.3,0.9-0.3
			c0.4,0,0.7,0.1,0.9,0.3c0.2,0.2,0.3,0.5,0.3,0.9v15.1c0,0.4-0.1,0.7-0.3,0.9C516.8,275.4,516.5,275.5,516.1,275.5z M516,264.7
			c0.1-1.3,0.4-2.5,1-3.6c0.6-1,1.5-1.9,2.5-2.5c1-0.6,2.1-0.9,3.4-0.9c1,0,1.7,0.1,2.3,0.4s0.7,0.7,0.6,1.2
			c-0.1,0.3-0.2,0.5-0.4,0.6c-0.2,0.1-0.4,0.1-0.7,0.1c-0.3,0-0.6,0-1-0.1c-1.2-0.1-2.3,0-3.2,0.4s-1.7,0.9-2.2,1.6
			c-0.5,0.7-0.8,1.6-0.8,2.6H516z"/>
		<path d="M537.3,275.7c-1.6,0-3.1-0.4-4.4-1.2c-1.3-0.8-2.3-1.8-3.1-3.2c-0.8-1.3-1.1-2.9-1.1-4.5c0-1.7,0.4-3.2,1.2-4.6
			c0.8-1.3,1.8-2.4,3.2-3.2c1.3-0.8,2.9-1.2,4.5-1.2s3.2,0.4,4.5,1.2c1.3,0.8,2.4,1.8,3.2,3.2c0.8,1.3,1.2,2.9,1.2,4.6l-1,0.8
			c0,1.5-0.4,2.9-1.1,4.1c-0.7,1.2-1.7,2.2-2.9,2.9C540.2,275.3,538.9,275.7,537.3,275.7z M537.6,273.4c1.2,0,2.3-0.3,3.3-0.9
			c1-0.6,1.7-1.4,2.3-2.4c0.6-1,0.8-2.1,0.8-3.4c0-1.3-0.3-2.4-0.8-3.4c-0.6-1-1.3-1.8-2.3-2.4c-1-0.6-2.1-0.9-3.3-0.9
			c-1.2,0-2.3,0.3-3.3,0.9c-1,0.6-1.8,1.4-2.3,2.4c-0.6,1-0.9,2.1-0.9,3.4c0,1.3,0.3,2.4,0.9,3.4c0.6,1,1.4,1.8,2.3,2.4
			C535.2,273.1,536.3,273.4,537.6,273.4z M545.2,275.5c-0.4,0-0.7-0.1-0.9-0.3c-0.2-0.2-0.4-0.5-0.4-0.9v-5.5l0.6-2.5l1.9,0.5v7.5
			c0,0.4-0.1,0.7-0.4,0.9C545.9,275.4,545.6,275.5,545.2,275.5z"/>
		<path d="M552.5,275.5c-0.4,0-0.7-0.1-0.9-0.3c-0.2-0.2-0.3-0.5-0.3-0.9v-15.1c0-0.4,0.1-0.7,0.3-0.9c0.2-0.2,0.5-0.3,0.9-0.3
			c0.4,0,0.7,0.1,0.9,0.3c0.2,0.2,0.3,0.5,0.3,0.9v15.1c0,0.4-0.1,0.7-0.3,0.9C553.1,275.4,552.8,275.5,552.5,275.5z M552.3,264.7
			c0.1-1.3,0.4-2.5,1-3.6c0.6-1,1.5-1.9,2.5-2.5c1-0.6,2.1-0.9,3.4-0.9c1,0,1.7,0.1,2.3,0.4s0.7,0.7,0.6,1.2
			c-0.1,0.3-0.2,0.5-0.4,0.6c-0.2,0.1-0.4,0.1-0.7,0.1c-0.3,0-0.6,0-1-0.1c-1.2-0.1-2.3,0-3.2,0.4s-1.7,0.9-2.2,1.6
			c-0.5,0.7-0.8,1.6-0.8,2.6H552.3z"/>
		<path d="M564.8,260.8c-0.3,0-0.6-0.1-0.8-0.3c-0.2-0.2-0.3-0.5-0.3-0.8c0-0.3,0.1-0.6,0.3-0.8c0.2-0.2,0.5-0.3,0.8-0.3h8.2
			c0.3,0,0.6,0.1,0.8,0.3c0.2,0.2,0.3,0.5,0.3,0.8c0,0.3-0.1,0.5-0.3,0.8c-0.2,0.2-0.5,0.3-0.8,0.3H564.8z M572.8,275.5
			c-1.1,0-2.1-0.3-3-0.8c-0.9-0.5-1.6-1.3-2.1-2.2c-0.5-0.9-0.8-2-0.8-3.2v-15.6c0-0.4,0.1-0.7,0.3-0.9c0.2-0.2,0.5-0.4,0.9-0.4
			c0.4,0,0.7,0.1,0.9,0.4c0.2,0.2,0.4,0.5,0.4,0.9v15.6c0,1.1,0.3,2,1,2.7c0.6,0.7,1.5,1,2.5,1h0.9c0.3,0,0.6,0.1,0.8,0.4
			s0.3,0.5,0.3,0.9s-0.1,0.7-0.4,0.9c-0.3,0.2-0.6,0.3-1,0.3H572.8z"/>
		<path d="M595.9,275.7c-1.7,0-3.2-0.4-4.5-1.1c-1.3-0.8-2.3-1.8-3.1-3.2c-0.7-1.3-1.1-2.9-1.1-4.6c0-1.7,0.4-3.3,1.2-4.6
			c0.8-1.3,1.8-2.4,3.2-3.2c1.3-0.8,2.9-1.1,4.6-1.1c1.7,0,3.3,0.4,4.6,1.1c1.3,0.8,2.4,1.8,3.1,3.2c0.8,1.3,1.1,2.9,1.2,4.6
			l-1.4,0.8c0,1.6-0.3,3-1,4.2s-1.6,2.2-2.7,2.9C598.7,275.3,597.3,275.7,595.9,275.7z M596.2,282.4c-1.7,0-3.2-0.3-4.4-0.9
			c-1.3-0.6-2.3-1.5-3.2-2.6c-0.2-0.3-0.3-0.5-0.3-0.8c0-0.3,0.2-0.5,0.5-0.7c0.3-0.2,0.6-0.3,0.9-0.2s0.6,0.2,0.8,0.5
			c0.6,0.8,1.4,1.4,2.4,1.9c1,0.5,2.1,0.7,3.4,0.7c1.2,0,2.3-0.3,3.2-0.9c1-0.6,1.7-1.4,2.3-2.4c0.6-1,0.8-2.3,0.8-3.7v-4.9l0.9-1.9
			l1.5,0.3v6.5c0,1.7-0.4,3.3-1.2,4.7c-0.8,1.4-1.8,2.5-3.1,3.3C599.4,282,597.9,282.4,596.2,282.4z M596.1,273.4
			c1.3,0,2.4-0.3,3.3-0.8c1-0.6,1.7-1.3,2.3-2.4c0.6-1,0.8-2.2,0.8-3.5s-0.3-2.5-0.8-3.5c-0.6-1-1.3-1.8-2.3-2.4
			c-1-0.6-2.1-0.8-3.3-0.8s-2.4,0.3-3.4,0.8c-1,0.6-1.8,1.4-2.3,2.4c-0.6,1-0.8,2.2-0.8,3.5s0.3,2.5,0.8,3.5s1.3,1.8,2.3,2.4
			C593.7,273.1,594.9,273.4,596.1,273.4z"/>
		<path d="M617.4,275.7c-1.5,0-2.9-0.3-4.1-0.9c-1.2-0.6-2.1-1.6-2.8-2.8s-1-2.7-1-4.4v-8.3c0-0.3,0.1-0.6,0.4-0.9
			c0.2-0.2,0.5-0.4,0.9-0.4c0.4,0,0.7,0.1,0.9,0.4c0.2,0.2,0.4,0.5,0.4,0.9v8.3c0,1.3,0.3,2.4,0.8,3.3c0.5,0.9,1.2,1.5,2,1.9
			c0.9,0.4,1.8,0.6,2.9,0.6c1,0,2-0.2,2.8-0.6s1.5-1,2-1.7c0.5-0.7,0.7-1.5,0.7-2.4h1.8c-0.1,1.3-0.4,2.5-1.1,3.6
			c-0.7,1.1-1.6,1.9-2.7,2.5C620.1,275.4,618.8,275.7,617.4,275.7z M624.5,275.5c-0.4,0-0.7-0.1-0.9-0.3c-0.2-0.2-0.3-0.5-0.3-0.9
			v-15c0-0.4,0.1-0.7,0.3-0.9c0.2-0.2,0.5-0.3,0.9-0.3c0.4,0,0.7,0.1,0.9,0.3s0.4,0.5,0.4,0.9v15c0,0.4-0.1,0.7-0.4,0.9
			S624.8,275.5,624.5,275.5z"/>
		<path d="M639.4,275.7c-1.7,0-3.3-0.4-4.6-1.1c-1.3-0.8-2.4-1.8-3.1-3.2c-0.8-1.3-1.1-2.9-1.1-4.6c0-1.7,0.4-3.3,1.1-4.6
			c0.7-1.3,1.7-2.4,3-3.2c1.3-0.8,2.7-1.2,4.4-1.2c1.6,0,3,0.4,4.2,1.1c1.2,0.7,2.1,1.8,2.8,3.1s1,2.8,1,4.4c0,0.3-0.1,0.6-0.3,0.8
			c-0.2,0.2-0.5,0.3-0.8,0.3h-13.6v-2h13.9l-1.4,1c0-1.2-0.2-2.3-0.7-3.3c-0.5-1-1.1-1.7-2-2.3c-0.9-0.6-1.9-0.8-3.1-0.8
			c-1.2,0-2.3,0.3-3.2,0.9c-0.9,0.6-1.6,1.4-2.1,2.4c-0.5,1-0.8,2.2-0.8,3.5s0.3,2.5,0.8,3.5s1.3,1.8,2.3,2.4c1,0.6,2.1,0.9,3.4,0.9
			c0.8,0,1.5-0.1,2.3-0.4c0.8-0.3,1.4-0.6,1.9-1c0.2-0.2,0.5-0.3,0.8-0.3s0.6,0.1,0.8,0.2c0.3,0.3,0.4,0.5,0.4,0.8
			c0,0.3-0.1,0.6-0.4,0.8c-0.7,0.6-1.6,1.1-2.7,1.5C641.5,275.5,640.4,275.7,639.4,275.7z"/>
		<path d="M657.2,275.7c-1.3,0-2.5-0.2-3.7-0.6s-2.2-1.1-3-1.9c-0.2-0.3-0.3-0.5-0.3-0.9c0-0.3,0.2-0.6,0.5-0.8
			c0.3-0.2,0.6-0.3,0.9-0.3c0.3,0,0.6,0.2,0.8,0.4c0.5,0.6,1.2,1.1,2,1.4c0.8,0.3,1.8,0.5,2.8,0.5c1.6,0,2.7-0.3,3.4-0.8
			s1.1-1.2,1.1-2c0-0.8-0.4-1.4-1.1-1.9c-0.7-0.5-1.9-0.9-3.6-1.2c-2.2-0.3-3.7-0.9-4.7-1.8c-1-0.9-1.5-1.9-1.5-3
			c0-1.1,0.3-2,0.9-2.7s1.3-1.3,2.3-1.6c1-0.4,2-0.5,3.2-0.5c1.4,0,2.7,0.2,3.7,0.7c1,0.5,1.9,1.2,2.5,2c0.2,0.3,0.3,0.6,0.3,0.9
			c0,0.3-0.2,0.5-0.5,0.7c-0.3,0.1-0.5,0.2-0.9,0.1c-0.3-0.1-0.6-0.2-0.8-0.5c-0.5-0.6-1.2-1.1-1.9-1.4s-1.5-0.4-2.4-0.4
			c-1.2,0-2.1,0.2-2.8,0.7s-1.1,1.1-1.1,1.8c0,0.5,0.1,0.9,0.4,1.3s0.7,0.7,1.4,1c0.7,0.3,1.6,0.5,2.7,0.7c1.6,0.3,2.9,0.6,3.8,1.1
			c0.9,0.5,1.6,1.1,2,1.8c0.4,0.7,0.6,1.4,0.6,2.2c0,1-0.3,1.9-0.9,2.6c-0.6,0.8-1.4,1.3-2.4,1.8
			C659.8,275.4,658.6,275.7,657.2,275.7z"/>
		<path d="M674.5,275.7c-1.3,0-2.5-0.2-3.7-0.6s-2.2-1.1-3-1.9c-0.2-0.3-0.3-0.5-0.3-0.9c0-0.3,0.2-0.6,0.5-0.8
			c0.3-0.2,0.6-0.3,0.9-0.3c0.3,0,0.6,0.2,0.8,0.4c0.5,0.6,1.2,1.1,2,1.4c0.8,0.3,1.8,0.5,2.8,0.5c1.6,0,2.7-0.3,3.4-0.8
			s1.1-1.2,1.1-2c0-0.8-0.4-1.4-1.1-1.9c-0.7-0.5-1.9-0.9-3.6-1.2c-2.2-0.3-3.7-0.9-4.7-1.8c-1-0.9-1.5-1.9-1.5-3
			c0-1.1,0.3-2,0.9-2.7s1.3-1.3,2.3-1.6c1-0.4,2-0.5,3.2-0.5c1.4,0,2.7,0.2,3.7,0.7c1,0.5,1.9,1.2,2.5,2c0.2,0.3,0.3,0.6,0.3,0.9
			c0,0.3-0.2,0.5-0.5,0.7c-0.3,0.1-0.5,0.2-0.9,0.1c-0.3-0.1-0.6-0.2-0.8-0.5c-0.5-0.6-1.2-1.1-1.9-1.4s-1.5-0.4-2.4-0.4
			c-1.2,0-2.1,0.2-2.8,0.7s-1.1,1.1-1.1,1.8c0,0.5,0.1,0.9,0.4,1.3s0.7,0.7,1.4,1c0.7,0.3,1.6,0.5,2.7,0.7c1.6,0.3,2.9,0.6,3.8,1.1
			c0.9,0.5,1.6,1.1,2,1.8c0.4,0.7,0.6,1.4,0.6,2.2c0,1-0.3,1.9-0.9,2.6c-0.6,0.8-1.4,1.3-2.4,1.8C677,275.4,675.8,275.7,674.5,275.7
			z"/>
		<path d="M687.3,254.7c-0.5,0-0.9-0.2-1.2-0.5c-0.3-0.3-0.5-0.8-0.5-1.2c0-0.5,0.2-1,0.5-1.3c0.4-0.3,0.8-0.5,1.2-0.5
			c0.4,0,0.8,0.2,1.2,0.5c0.4,0.3,0.5,0.7,0.5,1.3c0,0.5-0.2,0.9-0.5,1.2C688.2,254.5,687.8,254.7,687.3,254.7z M687.4,275.5
			c-0.4,0-0.7-0.1-0.9-0.3c-0.2-0.2-0.3-0.5-0.3-0.9v-15c0-0.4,0.1-0.7,0.3-0.9c0.2-0.2,0.5-0.3,0.9-0.3c0.4,0,0.7,0.1,0.9,0.3
			c0.2,0.2,0.3,0.5,0.3,0.9v15c0,0.4-0.1,0.7-0.3,0.9C688,275.4,687.7,275.5,687.4,275.5z"/>
		<path d="M696.1,275.5c-0.4,0-0.7-0.1-0.9-0.3c-0.2-0.2-0.3-0.5-0.3-0.9v-15c0-0.4,0.1-0.7,0.3-0.9c0.2-0.2,0.5-0.3,0.9-0.3
			c0.4,0,0.7,0.1,0.9,0.3c0.2,0.2,0.3,0.5,0.3,0.9v15c0,0.4-0.1,0.7-0.3,0.9C696.8,275.4,696.5,275.5,696.1,275.5z M709.9,275.5
			c-0.4,0-0.7-0.1-0.9-0.4c-0.2-0.2-0.4-0.5-0.4-0.9V266c0-1.3-0.3-2.4-0.8-3.3c-0.5-0.9-1.2-1.5-2-1.9c-0.9-0.4-1.8-0.6-2.9-0.6
			c-1,0-2,0.2-2.8,0.6s-1.5,1-2,1.7c-0.5,0.7-0.7,1.5-0.7,2.4h-1.8c0-1.3,0.4-2.5,1.1-3.6s1.6-1.9,2.7-2.5c1.1-0.6,2.4-0.9,3.8-0.9
			c1.5,0,2.9,0.3,4.1,0.9c1.2,0.6,2.1,1.6,2.8,2.8c0.7,1.2,1,2.7,1,4.4v8.3c0,0.3-0.1,0.6-0.4,0.9
			C710.5,275.4,710.2,275.5,709.9,275.5z"/>
		<path d="M724.2,275.7c-1.7,0-3.2-0.4-4.5-1.1c-1.3-0.8-2.3-1.8-3.1-3.2c-0.7-1.3-1.1-2.9-1.1-4.6c0-1.7,0.4-3.3,1.2-4.6
			c0.8-1.3,1.8-2.4,3.2-3.2c1.3-0.8,2.9-1.1,4.6-1.1c1.7,0,3.3,0.4,4.6,1.1c1.3,0.8,2.4,1.8,3.1,3.2c0.8,1.3,1.1,2.9,1.2,4.6
			l-1.4,0.8c0,1.6-0.3,3-1,4.2s-1.6,2.2-2.7,2.9C727.1,275.3,725.7,275.7,724.2,275.7z M724.6,282.4c-1.7,0-3.2-0.3-4.4-0.9
			c-1.3-0.6-2.3-1.5-3.2-2.6c-0.2-0.3-0.3-0.5-0.3-0.8c0-0.3,0.2-0.5,0.5-0.7c0.3-0.2,0.6-0.3,0.9-0.2s0.6,0.2,0.8,0.5
			c0.6,0.8,1.4,1.4,2.4,1.9c1,0.5,2.1,0.7,3.4,0.7c1.2,0,2.3-0.3,3.2-0.9c1-0.6,1.7-1.4,2.3-2.4c0.6-1,0.8-2.3,0.8-3.7v-4.9l0.9-1.9
			l1.5,0.3v6.5c0,1.7-0.4,3.3-1.2,4.7c-0.8,1.4-1.8,2.5-3.1,3.3C727.8,282,726.3,282.4,724.6,282.4z M724.5,273.4
			c1.3,0,2.4-0.3,3.3-0.8c1-0.6,1.7-1.3,2.3-2.4c0.6-1,0.8-2.2,0.8-3.5s-0.3-2.5-0.8-3.5c-0.6-1-1.3-1.8-2.3-2.4
			c-1-0.6-2.1-0.8-3.3-0.8s-2.4,0.3-3.4,0.8c-1,0.6-1.8,1.4-2.3,2.4c-0.6,1-0.8,2.2-0.8,3.5s0.3,2.5,0.8,3.5s1.3,1.8,2.3,2.4
			C722.1,273.1,723.2,273.4,724.5,273.4z"/>
		<path d="M746.4,260.8c-0.3,0-0.6-0.1-0.8-0.3c-0.2-0.2-0.3-0.5-0.3-0.8c0-0.3,0.1-0.6,0.3-0.8c0.2-0.2,0.5-0.3,0.8-0.3h8.2
			c0.3,0,0.6,0.1,0.8,0.3c0.2,0.2,0.3,0.5,0.3,0.8c0,0.3-0.1,0.5-0.3,0.8c-0.2,0.2-0.5,0.3-0.8,0.3H746.4z M754.4,275.5
			c-1.1,0-2.1-0.3-3-0.8c-0.9-0.5-1.6-1.3-2.1-2.2c-0.5-0.9-0.8-2-0.8-3.2v-15.6c0-0.4,0.1-0.7,0.3-0.9c0.2-0.2,0.5-0.4,0.9-0.4
			c0.4,0,0.7,0.1,0.9,0.4c0.2,0.2,0.4,0.5,0.4,0.9v15.6c0,1.1,0.3,2,1,2.7c0.6,0.7,1.5,1,2.5,1h0.9c0.3,0,0.6,0.1,0.8,0.4
			s0.3,0.5,0.3,0.9s-0.1,0.7-0.4,0.9c-0.3,0.2-0.6,0.3-1,0.3H754.4z"/>
		<path d="M761.7,268.4c-0.4,0-0.7-0.1-0.9-0.4c-0.2-0.2-0.3-0.5-0.3-0.9v-15.4c0-0.4,0.1-0.7,0.3-0.9c0.2-0.2,0.5-0.3,0.9-0.3
			c0.4,0,0.7,0.1,0.9,0.3c0.2,0.2,0.3,0.5,0.3,0.9v15.4c0,0.4-0.1,0.7-0.3,0.9C762.3,268.2,762,268.4,761.7,268.4z M761.7,275.5
			c-0.4,0-0.7-0.1-0.9-0.3c-0.2-0.2-0.3-0.5-0.3-0.9v-15c0-0.4,0.1-0.7,0.3-0.9c0.2-0.2,0.5-0.3,0.9-0.3c0.4,0,0.7,0.1,0.9,0.3
			c0.2,0.2,0.3,0.5,0.3,0.9v15c0,0.4-0.1,0.7-0.3,0.9C762.3,275.4,762,275.5,761.7,275.5z M775.4,275.5c-0.4,0-0.7-0.1-0.9-0.4
			c-0.2-0.2-0.4-0.5-0.4-0.9V266c0-1.3-0.3-2.4-0.8-3.3c-0.5-0.9-1.2-1.5-2-1.9c-0.9-0.4-1.8-0.6-2.9-0.6c-1,0-2,0.2-2.8,0.6
			s-1.5,1-2,1.7c-0.5,0.7-0.7,1.5-0.7,2.4h-1.8c0-1.3,0.4-2.5,1.1-3.6s1.6-1.9,2.7-2.5c1.1-0.6,2.4-0.9,3.8-0.9
			c1.5,0,2.9,0.3,4.1,0.9c1.2,0.6,2.1,1.6,2.8,2.8c0.7,1.2,1,2.7,1,4.4v8.3c0,0.3-0.1,0.6-0.4,0.9
			C776.1,275.4,775.8,275.5,775.4,275.5z"/>
		<path d="M790,275.7c-1.7,0-3.3-0.4-4.6-1.1c-1.3-0.8-2.4-1.8-3.1-3.2c-0.8-1.3-1.1-2.9-1.1-4.6c0-1.7,0.4-3.3,1.1-4.6
			c0.7-1.3,1.7-2.4,3-3.2c1.3-0.8,2.7-1.2,4.4-1.2c1.6,0,3,0.4,4.2,1.1c1.2,0.7,2.1,1.8,2.8,3.1s1,2.8,1,4.4c0,0.3-0.1,0.6-0.3,0.8
			c-0.2,0.2-0.5,0.3-0.8,0.3h-13.6v-2h13.9l-1.4,1c0-1.2-0.2-2.3-0.7-3.3c-0.5-1-1.1-1.7-2-2.3c-0.9-0.6-1.9-0.8-3.1-0.8
			c-1.2,0-2.3,0.3-3.2,0.9c-0.9,0.6-1.6,1.4-2.1,2.4c-0.5,1-0.8,2.2-0.8,3.5s0.3,2.5,0.8,3.5s1.3,1.8,2.3,2.4c1,0.6,2.1,0.9,3.4,0.9
			c0.8,0,1.5-0.1,2.3-0.4c0.8-0.3,1.4-0.6,1.9-1c0.2-0.2,0.5-0.3,0.8-0.3s0.6,0.1,0.8,0.2c0.3,0.3,0.4,0.5,0.4,0.8
			c0,0.3-0.1,0.6-0.4,0.8c-0.7,0.6-1.6,1.1-2.7,1.5C792.1,275.5,791,275.7,790,275.7z"/>
		<path d="M815.1,275.5c-0.3,0-0.5-0.1-0.7-0.2c-0.2-0.1-0.4-0.3-0.4-0.6l-5-15c-0.1-0.5-0.1-1,0-1.3c0.1-0.3,0.4-0.5,0.9-0.5
			c0.3,0,0.5,0.1,0.7,0.2c0.2,0.1,0.4,0.4,0.5,0.7l4.4,13.6h-0.7l4.1-13.6c0.1-0.3,0.2-0.5,0.4-0.7c0.2-0.2,0.5-0.3,0.8-0.3
			c0.3,0,0.6,0.1,0.8,0.3c0.2,0.2,0.3,0.4,0.4,0.7l3.9,13.2h-0.5l4.4-13.3c0.2-0.6,0.6-0.9,1.2-0.9c0.5,0,0.8,0.2,1,0.5
			s0.2,0.8,0,1.2l-5,15c-0.1,0.2-0.2,0.4-0.4,0.6c-0.2,0.1-0.4,0.2-0.7,0.2c-0.3,0-0.5-0.1-0.8-0.2c-0.2-0.1-0.4-0.3-0.4-0.6
			l-4-13.4h0.4l-4,13.4c-0.1,0.3-0.2,0.5-0.4,0.6C815.6,275.4,815.3,275.5,815.1,275.5z"/>
		<path d="M842.8,275.7c-1.7,0-3.2-0.4-4.6-1.2c-1.3-0.8-2.4-1.8-3.2-3.2c-0.8-1.3-1.2-2.9-1.2-4.6c0-1.7,0.4-3.3,1.2-4.6
			c0.8-1.3,1.8-2.4,3.2-3.2c1.3-0.8,2.9-1.2,4.6-1.2s3.2,0.4,4.6,1.2c1.3,0.8,2.4,1.8,3.2,3.2c0.8,1.3,1.2,2.9,1.2,4.6
			c0,1.7-0.4,3.2-1.2,4.6c-0.8,1.3-1.8,2.4-3.2,3.2C846,275.3,844.5,275.7,842.8,275.7z M842.8,273.4c1.2,0,2.3-0.3,3.3-0.9
			c1-0.6,1.7-1.4,2.3-2.4c0.6-1,0.8-2.1,0.8-3.4c0-1.3-0.3-2.4-0.8-3.4c-0.6-1-1.3-1.8-2.3-2.4s-2.1-0.9-3.3-0.9s-2.3,0.3-3.3,0.9
			s-1.8,1.4-2.3,2.4c-0.6,1-0.8,2.2-0.8,3.4c0,1.3,0.3,2.4,0.8,3.4c0.6,1,1.3,1.8,2.3,2.4C840.4,273.1,841.5,273.4,842.8,273.4z"/>
		<path d="M857.7,275.5c-0.4,0-0.7-0.1-0.9-0.3c-0.2-0.2-0.3-0.5-0.3-0.9v-15.1c0-0.4,0.1-0.7,0.3-0.9c0.2-0.2,0.5-0.3,0.9-0.3
			c0.4,0,0.7,0.1,0.9,0.3c0.2,0.2,0.3,0.5,0.3,0.9v15.1c0,0.4-0.1,0.7-0.3,0.9C858.4,275.4,858.1,275.5,857.7,275.5z M857.5,264.7
			c0.1-1.3,0.4-2.5,1-3.6c0.6-1,1.5-1.9,2.5-2.5c1-0.6,2.1-0.9,3.4-0.9c1,0,1.7,0.1,2.3,0.4s0.7,0.7,0.6,1.2
			c-0.1,0.3-0.2,0.5-0.4,0.6c-0.2,0.1-0.4,0.1-0.7,0.1c-0.3,0-0.6,0-1-0.1c-1.2-0.1-2.3,0-3.2,0.4s-1.7,0.9-2.2,1.6
			c-0.5,0.7-0.8,1.6-0.8,2.6H857.5z"/>
		<path d="M879.1,275.7c-1.7,0-3.2-0.4-4.5-1.2c-1.3-0.8-2.4-1.8-3.2-3.2c-0.8-1.3-1.2-2.9-1.2-4.6c0-1.7,0.4-3.2,1.1-4.5
			c0.8-1.3,1.8-2.4,3.1-3.2c1.3-0.8,2.8-1.2,4.4-1.2c1.4,0,2.7,0.3,3.9,0.9s2.1,1.4,2.8,2.4v-9.4c0-0.4,0.1-0.7,0.4-0.9
			c0.2-0.2,0.5-0.3,0.9-0.3c0.4,0,0.7,0.1,0.9,0.3c0.2,0.2,0.4,0.5,0.4,0.9v15.1c0,1.7-0.5,3.2-1.2,4.5c-0.8,1.3-1.8,2.4-3.2,3.2
			C882.2,275.3,880.7,275.7,879.1,275.7z M879.1,273.4c1.2,0,2.3-0.3,3.3-0.9c1-0.6,1.7-1.4,2.3-2.4c0.6-1,0.8-2.1,0.8-3.4
			c0-1.3-0.3-2.4-0.8-3.4s-1.3-1.8-2.3-2.4s-2.1-0.9-3.3-0.9c-1.2,0-2.3,0.3-3.3,0.9s-1.8,1.4-2.3,2.4s-0.9,2.1-0.9,3.4
			c0,1.3,0.3,2.4,0.9,3.4c0.6,1,1.4,1.8,2.3,2.4C876.8,273.1,877.9,273.4,879.1,273.4z"/>
		<path d="M894.3,275.5c-0.5,0-0.9-0.2-1.3-0.5c-0.4-0.4-0.5-0.8-0.5-1.3c0-0.5,0.2-1,0.5-1.3c0.4-0.4,0.8-0.5,1.3-0.5
			s0.9,0.2,1.3,0.6c0.4,0.4,0.5,0.8,0.5,1.3c0,0.5-0.2,0.9-0.5,1.3C895.3,275.3,894.8,275.5,894.3,275.5z M894.3,269.8
			c-0.3,0-0.6-0.1-0.9-0.4c-0.2-0.2-0.4-0.5-0.4-0.9v-16.8c0-0.4,0.1-0.7,0.4-0.9c0.2-0.2,0.5-0.4,0.9-0.4c0.4,0,0.7,0.1,0.9,0.4
			c0.2,0.2,0.4,0.5,0.4,0.9v16.8c0,0.3-0.1,0.6-0.4,0.9C894.9,269.7,894.6,269.8,894.3,269.8z"/>
	</g>
</g>
</svg>
