<?xml version="1.0" encoding="utf-8"?>
<!-- Generator: Adobe Illustrator 22.1.0, SVG Export Plug-In . SVG Version: 6.00 Build 0)  -->
<svg version="1.1" id="Слой_1" xmlns="http://www.w3.org/2000/svg" xmlns:xlink="http://www.w3.org/1999/xlink" x="0px" y="0px"
	 viewBox="0 0 945 557" style="enable-background:new 0 0 945 557;" xml:space="preserve">
<style type="text/css">
	.st0{fill:#E6EAFF;}
	.st1{fill:#F6FAFF;}
	.st2{fill:#45B8FF;}
	.st3{fill:none;stroke:#000000;stroke-width:12;}
	.st4{fill:#1A1A1A;}
	.st5{fill:#FFFFFF;}
	.st6{fill:#50525B;}
	.st7{fill:#D3DBE7;}
	.st8{fill:none;stroke:#FFFFFF;stroke-width:2;stroke-linecap:round;stroke-linejoin:round;}
</style>
<title>5.3</title>
<desc>Created with Sketch.</desc>
<g id="Page-3">
	<g id="_x35_.3" transform="translate(-22.000000, 19.000000)">
		<path id="Combined-Shape-Copy-8" class="st0" d="M179.8,474.1l-4.3,1.3c-2.3-8.2-5.5-15.5-9.6-22c-11.4-18.2-46.1-9.3-77.9-36.4
			s-51.2-40.7-42.3-39.9c23.8,2.2,67.6,15.7,96.3,39.6c13.5,11.2,23.9,24,31.3,38.3c-7.1-22.5-19.5-55.8-45.1-58.9
			C90,391.3,69.8,350,53.5,340.8s-37.7-6.5-29.6-11.8c12.7-8.4,86.4-2.2,113.5,36.5c7.9,11.3,15.5,25.7,22,40.2
			c-2.1-6.2-3.9-11.6-5.6-16.2c-15.7-43.2-28.8-53.2-36.3-91.7c-7.9-40.4,11-26.3,15.8-101.9c0.7-10.8,22.2,14.5,30.3,81.7
			c3.7,30.6-5,73.5,1.7,118.7c2.4,16.5,14.8,44,21.8,76.6c0.2,0.8-1.5,1.3-5.2,1.3c0,1.2-0.3,1.7-0.9,1.4
			C180.6,475.4,180.2,474.9,179.8,474.1z"/>
		<g id="Group-8" transform="translate(176.000000, 0.000000)">
			<g id="Rectangle">
				<g>
					<path id="path-1_2_" d="M40,13h170c22.1,0,40,17.9,40,40v409c0,22.1-17.9,40-40,40H40c-22.1,0-40-17.9-40-40V53
						C0,30.9,17.9,13,40,13z"/>
				</g>
				<g>
					<path id="path-1_1_" class="st1" d="M40,13h170c22.1,0,40,17.9,40,40v409c0,22.1-17.9,40-40,40H40c-22.1,0-40-17.9-40-40V53
						C0,30.9,17.9,13,40,13z"/>
				</g>
			</g>
			<path id="Rectangle-Copy-3" class="st2" d="M30,13h190c16.6,0,30,13.4,30,30v26H0V43C0,26.4,13.4,13,30,13z"/>
			<path id="Rectangle-Copy" class="st3" d="M34,7h182c22.1,0,40,17.9,40,40v421c0,22.1-17.9,40-40,40H34c-22.1,0-40-17.9-40-40V47
				C-6,24.9,11.9,7,34,7z"/>
			<path id="Rectangle_1_" d="M57,12h136v6c0,5.5-4.5,10-10,10H67c-5.5,0-10-4.5-10-10V12z"/>
			<path id="Combined-Shape" class="st4" d="M106,15h38c1.1,0,2,0.9,2,2s-0.9,2-2,2h-38c-1.1,0-2-0.9-2-2S104.9,15,106,15z M152,15
				c1.1,0,2,0.9,2,2s-0.9,2-2,2s-2-0.9-2-2S150.9,15,152,15z"/>
			<path id="Mylessons" class="st5" d="M66.3,56.2c-0.4,0-0.7-0.1-0.9-0.3c-0.2-0.2-0.3-0.5-0.3-0.9v-9.4c0-1.7,0.5-3,1.4-3.9
				s2.2-1.4,3.9-1.4c0.8,0,1.6,0.2,2.4,0.6c0.7,0.4,1.3,1,1.8,1.8c0.5-0.8,1.1-1.4,1.8-1.8s1.5-0.6,2.4-0.6c1.7,0,3,0.5,3.9,1.4
				s1.4,2.2,1.4,3.9V55c0,0.4-0.1,0.6-0.3,0.8c-0.2,0.2-0.5,0.3-0.9,0.3S82.2,56,82,55.8c-0.2-0.2-0.3-0.5-0.3-0.9v-9.4
				c0-1.1-0.2-2-0.7-2.5c-0.4-0.5-1.2-0.8-2.2-0.8c-0.9,0-1.6,0.3-2.1,0.9c-0.5,0.6-0.7,1.4-0.7,2.4v9.4c0,0.4-0.1,0.7-0.3,0.9
				c-0.2,0.2-0.5,0.3-0.9,0.3s-0.7-0.1-0.9-0.3c-0.2-0.2-0.3-0.5-0.3-0.9v-9.4c0-1-0.3-1.8-0.8-2.4c-0.5-0.6-1.2-0.9-2.1-0.9
				c-1,0-1.8,0.3-2.2,0.8c-0.4,0.5-0.7,1.4-0.7,2.5v9.4c0,0.4-0.1,0.6-0.3,0.8C67,56.1,66.7,56.2,66.3,56.2z M91.8,61.5
				c-1.1,0-2-0.2-2.9-0.5s-1.5-0.8-2-1.4c-0.2-0.2-0.2-0.5-0.2-0.7c0-0.3,0.2-0.6,0.5-0.9c0.2-0.1,0.4-0.2,0.6-0.2
				c0.4,0,0.7,0.2,1,0.5c0.3,0.4,0.7,0.6,1.3,0.8c0.5,0.2,1.1,0.3,1.7,0.3c1.1,0,2-0.3,2.6-0.9s0.9-1.5,0.9-2.7v-1.1
				c-0.4,0.4-0.9,0.8-1.5,1s-1.2,0.4-1.8,0.4c-1.8,0-3.2-0.5-4.3-1.5c-1-1-1.5-2.4-1.5-4.1v-4.4c0-0.3,0.1-0.6,0.4-0.8
				c0.2-0.2,0.5-0.3,0.9-0.3c0.3,0,0.6,0.1,0.9,0.3c0.2,0.2,0.4,0.5,0.4,0.8v4.4c0,1.2,0.3,2.1,0.9,2.7c0.6,0.7,1.4,1,2.4,1
				s1.8-0.3,2.4-1c0.6-0.6,0.8-1.5,0.8-2.7v-4.3c0-0.4,0.1-0.7,0.3-1c0.2-0.2,0.5-0.4,0.9-0.4s0.7,0.1,0.9,0.4
				c0.2,0.2,0.3,0.6,0.3,1v9.3c0,1.8-0.5,3.3-1.6,4.3C95,61,93.6,61.5,91.8,61.5z M107.4,56.2c-0.4,0-0.7-0.1-0.9-0.3
				c-0.2-0.2-0.3-0.5-0.3-0.9V40.5c0-0.4,0.1-0.7,0.3-0.9c0.2-0.2,0.5-0.3,0.9-0.3s0.7,0.1,0.9,0.3c0.2,0.2,0.3,0.5,0.3,0.9v14.6
				c0,0.4-0.1,0.6-0.3,0.8S107.8,56.2,107.4,56.2z M117.2,56.2c-1.3,0-2.4-0.2-3.3-0.7c-0.9-0.4-1.6-1.1-2.1-1.9
				c-0.5-0.8-0.7-1.8-0.7-3c0-1.8,0.5-3.2,1.6-4.2s2.5-1.5,4.4-1.5c1.2,0,2.2,0.2,3.1,0.5c0.9,0.4,1.6,0.9,2.1,1.5
				c0.5,0.7,0.7,1.4,0.7,2.2c0,0.7-0.2,1.2-0.6,1.6s-1,0.5-1.7,0.5h-7.1c0,0.9,0.3,1.6,1,2.1c0.6,0.5,1.6,0.7,2.8,0.7
				c0.7,0,1.3-0.1,1.8-0.2c0.5-0.1,1-0.4,1.5-0.7c0.4-0.3,0.7-0.4,1-0.4c0.2,0,0.4,0.1,0.6,0.3s0.4,0.5,0.4,0.7
				c0,0.3-0.1,0.5-0.4,0.7C120.8,55.7,119.2,56.2,117.2,56.2z M119.8,49.6c0.2,0,0.4-0.1,0.6-0.2c0.1-0.1,0.2-0.3,0.2-0.5
				c0-0.6-0.3-1.1-1-1.5c-0.6-0.4-1.5-0.6-2.6-0.6s-1.9,0.2-2.6,0.7s-0.9,1.1-0.9,2L119.8,49.6L119.8,49.6z M130,56.2
				c-1.2,0-2.2-0.2-3.1-0.6s-1.6-0.9-2.1-1.5c-0.2-0.2-0.3-0.5-0.3-0.7c0-0.4,0.2-0.6,0.5-0.8c0.2-0.1,0.4-0.2,0.6-0.2
				c0.3,0,0.6,0.1,0.8,0.4c0.5,0.5,1,0.9,1.5,1.1c0.5,0.2,1.1,0.3,1.9,0.3c0.7,0,1.2-0.1,1.6-0.3c0.4-0.2,0.6-0.4,0.6-0.8
				c0-0.2-0.1-0.5-0.2-0.6c-0.2-0.2-0.4-0.3-0.8-0.5s-1-0.4-1.8-0.6c-1.6-0.5-2.7-1-3.3-1.5c-0.6-0.5-1-1.2-1-2
				c0-0.9,0.4-1.6,1.2-2.1c0.8-0.5,1.8-0.8,3.2-0.8c1,0,1.9,0.2,2.8,0.5c0.8,0.3,1.5,0.7,1.8,1.3c0.2,0.2,0.2,0.4,0.2,0.7
				s-0.2,0.5-0.5,0.7c-0.2,0.1-0.4,0.2-0.7,0.2s-0.7-0.2-1-0.5c-0.7-0.6-1.6-0.9-2.8-0.9s-1.8,0.3-1.8,1c0,0.2,0.1,0.5,0.2,0.6
				s0.4,0.3,0.8,0.5c0.4,0.2,1.1,0.4,2,0.7c1,0.3,1.8,0.6,2.4,0.9s1,0.7,1.2,1.1c0.2,0.4,0.4,0.9,0.4,1.5c0,0.9-0.4,1.6-1.2,2.2
				S131.4,56.2,130,56.2z M141.7,56.2c-1.2,0-2.2-0.2-3.1-0.6s-1.6-0.9-2.1-1.5c-0.2-0.2-0.3-0.5-0.3-0.7c0-0.4,0.2-0.6,0.5-0.8
				c0.2-0.1,0.4-0.2,0.6-0.2c0.3,0,0.6,0.1,0.8,0.4c0.5,0.5,1,0.9,1.5,1.1c0.5,0.2,1.1,0.3,1.9,0.3c0.7,0,1.2-0.1,1.6-0.3
				c0.4-0.2,0.6-0.4,0.6-0.8c0-0.2-0.1-0.5-0.2-0.6c-0.2-0.2-0.4-0.3-0.8-0.5s-1-0.4-1.8-0.6c-1.6-0.5-2.7-1-3.3-1.5s-1-1.2-1-2
				c0-0.9,0.4-1.6,1.2-2.1s1.8-0.8,3.2-0.8c1,0,1.9,0.2,2.8,0.5c0.8,0.3,1.5,0.7,1.8,1.3c0.2,0.2,0.2,0.4,0.2,0.7s-0.2,0.5-0.5,0.7
				c-0.2,0.1-0.4,0.2-0.7,0.2s-0.7-0.2-1-0.5c-0.7-0.6-1.6-0.9-2.8-0.9s-1.8,0.3-1.8,1c0,0.2,0.1,0.5,0.2,0.6s0.4,0.3,0.8,0.5
				c0.4,0.2,1.1,0.4,2,0.7c1,0.3,1.8,0.6,2.4,0.9c0.6,0.3,1,0.7,1.2,1.1c0.2,0.4,0.4,0.9,0.4,1.5c0,0.9-0.4,1.6-1.2,2.2
				S143.2,56.2,141.7,56.2z M154.4,56.2c-1.3,0-2.4-0.2-3.4-0.7s-1.7-1.1-2.2-2s-0.8-1.8-0.8-2.9s0.3-2.1,0.8-2.9
				c0.5-0.9,1.3-1.5,2.2-2s2.1-0.7,3.4-0.7c1.3,0,2.4,0.2,3.4,0.7s1.7,1.1,2.2,2s0.8,1.8,0.8,2.9s-0.3,2.1-0.8,2.9
				c-0.5,0.9-1.3,1.5-2.2,2C156.8,56,155.6,56.2,154.4,56.2z M154.4,54.2c1.2,0,2.1-0.3,2.8-1c0.7-0.6,1.1-1.5,1.1-2.7
				c0-1.1-0.4-2-1.1-2.7c-0.7-0.6-1.6-1-2.8-1s-2.2,0.3-2.8,1c-0.7,0.6-1,1.5-1,2.7c0,1.1,0.3,2,1,2.7S153.2,54.2,154.4,54.2z
				 M163.6,56.2c-0.4,0-0.7-0.1-0.9-0.3s-0.3-0.5-0.3-0.9v-8.9c0-0.4,0.1-0.7,0.3-0.9s0.5-0.3,0.9-0.3s0.7,0.1,0.9,0.3
				s0.3,0.5,0.3,0.9V47c1.1-1.3,2.5-2,4.4-2c1.4,0,2.5,0.4,3.3,1.3c0.8,0.9,1.2,2,1.2,3.5v5.3c0,0.4-0.1,0.7-0.3,0.9
				s-0.5,0.3-0.9,0.3s-0.7-0.1-0.9-0.3s-0.3-0.5-0.3-0.9v-5.3c0-0.9-0.2-1.6-0.7-2.1c-0.4-0.5-1.1-0.7-1.9-0.7c-1.2,0-2.1,0.3-2.8,1
				s-1,1.6-1,2.8V55c0,0.4-0.1,0.6-0.3,0.8C164.3,56.1,164,56.2,163.6,56.2z M180.9,56.2c-1.2,0-2.2-0.2-3.1-0.6
				c-0.9-0.4-1.6-0.9-2.1-1.5c-0.2-0.2-0.3-0.5-0.3-0.7c0-0.4,0.2-0.6,0.5-0.8c0.2-0.1,0.4-0.2,0.6-0.2c0.3,0,0.6,0.1,0.8,0.4
				c0.5,0.5,1,0.9,1.5,1.1c0.5,0.2,1.1,0.3,1.9,0.3c0.7,0,1.2-0.1,1.7-0.3c0.4-0.2,0.6-0.4,0.6-0.8c0-0.2-0.1-0.5-0.2-0.6
				c-0.2-0.2-0.4-0.3-0.8-0.5c-0.4-0.2-1-0.4-1.8-0.6c-1.6-0.5-2.7-1-3.3-1.5s-1-1.2-1-2c0-0.9,0.4-1.6,1.2-2.1s1.8-0.8,3.2-0.8
				c1,0,1.9,0.2,2.8,0.5c0.8,0.3,1.5,0.7,1.8,1.3c0.2,0.2,0.2,0.4,0.2,0.7s-0.2,0.5-0.5,0.7c-0.2,0.1-0.4,0.2-0.7,0.2
				s-0.7-0.2-1-0.5c-0.7-0.6-1.6-0.9-2.8-0.9s-1.8,0.3-1.8,1c0,0.2,0.1,0.5,0.2,0.6c0.2,0.2,0.4,0.3,0.8,0.5c0.4,0.2,1.1,0.4,2,0.7
				c1,0.3,1.8,0.6,2.4,0.9c0.6,0.3,1,0.7,1.2,1.1s0.4,0.9,0.4,1.5c0,0.9-0.4,1.6-1.2,2.2S182.4,56.2,180.9,56.2z"/>
		</g>
		<g id="уроки" transform="translate(191.000000, 78.000000)">
			<g id="Rectangle-Copy-2">
				<g>
					<path id="path-3_2_" d="M27,12h166c14.9,0,27,12.1,27,27v38c0,14.9-12.1,27-27,27H27C12.1,104,0,91.9,0,77V39
						C0,24.1,12.1,12,27,12z"/>
				</g>
				<g>
					<path id="path-3_1_" class="st5" d="M27,12h166c14.9,0,27,12.1,27,27v38c0,14.9-12.1,27-27,27H27C12.1,104,0,91.9,0,77V39
						C0,24.1,12.1,12,27,12z"/>
				</g>
			</g>
			<g id="I-say-something_x2C_-it" transform="translate(18.957031, 23.978516)">
				<path id="Isaysomething_x2C_itisreallyinterestingand" class="st6" d="M0,22V12h2v10H0z M7.1,20L9,19.7c0.1,0.4,0.2,0.7,0.5,0.9
					s0.6,0.3,1.1,0.3s0.9-0.1,1.1-0.3c0.2-0.1,0.3-0.3,0.3-0.5c0-0.1,0-0.3-0.1-0.4s-0.3-0.2-0.6-0.3c-1.5-0.3-2.5-0.7-2.9-0.9
					c-0.6-0.4-0.9-0.9-0.9-1.6c0-0.6,0.2-1.2,0.7-1.6c0.5-0.4,1.3-0.6,2.3-0.6s1.7,0.2,2.2,0.5s0.8,0.8,1,1.4l-1.8,0.3
					c-0.1-0.3-0.2-0.5-0.4-0.6c-0.2-0.2-0.5-0.2-0.9-0.2c-0.5,0-0.9,0.1-1.1,0.2c-0.1,0.1-0.2,0.2-0.2,0.4c0,0.1,0.1,0.3,0.2,0.3
					c0.2,0.1,0.8,0.3,1.8,0.5s1.7,0.5,2.1,0.9c0.4,0.3,0.6,0.8,0.6,1.4c0,0.7-0.3,1.2-0.8,1.7c-0.6,0.5-1.4,0.7-2.5,0.7
					c-1,0-1.8-0.2-2.3-0.6C7.6,21.2,7.2,20.6,7.1,20z M16.9,17l-1.7-0.3c0.2-0.7,0.5-1.2,1-1.6c0.5-0.3,1.2-0.5,2.1-0.5
					s1.5,0.1,1.9,0.3s0.7,0.5,0.9,0.8c0.2,0.3,0.3,0.9,0.3,1.7v2.2c0,0.6,0,1.1,0.1,1.4s0.2,0.6,0.3,1h-1.9
					c-0.1-0.1-0.1-0.3-0.2-0.6c0-0.1-0.1-0.2-0.1-0.2c-0.3,0.3-0.7,0.6-1.1,0.7c-0.4,0.2-0.8,0.2-1.2,0.2c-0.7,0-1.3-0.2-1.8-0.6
					C15.2,21.2,15,20.7,15,20c0-0.4,0.1-0.8,0.3-1.1c0.2-0.3,0.5-0.6,0.8-0.7c0.4-0.2,0.9-0.3,1.5-0.4c0.9-0.2,1.5-0.3,1.9-0.5v-0.2
					c0-0.4-0.1-0.6-0.3-0.8c-0.2-0.2-0.5-0.2-1-0.2c-0.3,0-0.6,0.1-0.8,0.2C17.2,16.4,17,16.6,16.9,17z M19.5,18.5
					c-0.2,0.1-0.6,0.2-1.2,0.3c-0.5,0.1-0.9,0.2-1,0.3c-0.3,0.2-0.4,0.4-0.4,0.7c0,0.3,0.1,0.5,0.3,0.7c0.2,0.2,0.5,0.3,0.8,0.3
					s0.7-0.1,1-0.3c0.2-0.2,0.4-0.4,0.5-0.6s0.1-0.5,0.1-0.9L19.5,18.5L19.5,18.5z M22.3,14.8h2L26,20l1.7-5.2h2l-2.6,7L26.7,23
					c-0.2,0.4-0.3,0.7-0.5,1c-0.2,0.2-0.3,0.4-0.5,0.5s-0.4,0.2-0.7,0.3c-0.3,0.1-0.6,0.1-1,0.1s-0.7,0-1.1-0.1l-0.2-1.5
					c0.3,0.1,0.6,0.1,0.8,0.1c0.4,0,0.8-0.1,1-0.4s0.4-0.6,0.5-1L22.3,14.8z M34.1,20l1.9-0.3c0.1,0.4,0.2,0.7,0.5,0.9
					s0.6,0.3,1.1,0.3s0.9-0.1,1.1-0.3c0.2-0.1,0.3-0.3,0.3-0.5c0-0.1,0-0.3-0.1-0.4s-0.3-0.2-0.6-0.3c-1.5-0.3-2.5-0.7-2.9-0.9
					c-0.6-0.4-0.9-0.9-0.9-1.6c0-0.6,0.2-1.2,0.7-1.6c0.5-0.4,1.3-0.6,2.3-0.6s1.7,0.2,2.2,0.5s0.8,0.8,1,1.4l-1.8,0.3
					c-0.1-0.3-0.2-0.5-0.4-0.6c-0.2-0.2-0.5-0.2-0.9-0.2c-0.5,0-0.9,0.1-1.1,0.2c-0.1,0.1-0.2,0.2-0.2,0.4c0,0.1,0.1,0.3,0.2,0.3
					c0.2,0.1,0.8,0.3,1.8,0.5s1.7,0.5,2.1,0.9c0.4,0.3,0.6,0.8,0.6,1.4c0,0.7-0.3,1.2-0.8,1.7c-0.6,0.5-1.4,0.7-2.5,0.7
					c-1,0-1.8-0.2-2.3-0.6C34.7,21.2,34.3,20.6,34.1,20z M42.1,18.3c0-0.6,0.2-1.3,0.5-1.9s0.8-1.1,1.3-1.4c0.6-0.3,1.2-0.5,1.9-0.5
					c1.1,0,2,0.4,2.7,1.1s1.1,1.6,1.1,2.7s-0.4,2-1.1,2.7c-0.7,0.7-1.6,1.1-2.7,1.1c-0.7,0-1.3-0.2-1.9-0.5
					c-0.6-0.3-1.1-0.7-1.4-1.3C42.2,19.8,42.1,19.1,42.1,18.3z M44,18.4c0,0.7,0.2,1.3,0.5,1.7c0.3,0.4,0.8,0.6,1.3,0.6
					s0.9-0.2,1.3-0.6s0.5-0.9,0.5-1.7c0-0.7-0.2-1.3-0.5-1.6s-0.8-0.6-1.3-0.6s-0.9,0.2-1.3,0.6C44.2,17.1,44,17.7,44,18.4z
					 M50.9,14.8h1.8v1c0.6-0.8,1.4-1.2,2.3-1.2c0.5,0,0.9,0.1,1.2,0.3s0.6,0.5,0.8,0.9c0.3-0.4,0.7-0.7,1-0.9
					c0.4-0.2,0.8-0.3,1.2-0.3c0.5,0,1,0.1,1.4,0.3s0.6,0.5,0.8,1c0.1,0.3,0.2,0.8,0.2,1.5V22h-1.9v-4.1c0-0.7-0.1-1.2-0.2-1.4
					c-0.2-0.3-0.5-0.4-0.8-0.4s-0.5,0.1-0.8,0.2c-0.2,0.2-0.4,0.4-0.5,0.7c-0.1,0.3-0.2,0.8-0.2,1.5V22h-1.9v-4c0-0.7,0-1.2-0.1-1.4
					c-0.1-0.2-0.2-0.4-0.3-0.5s-0.3-0.2-0.6-0.2s-0.6,0.1-0.8,0.2S53.1,16.7,53,17s-0.2,0.8-0.2,1.5V22h-1.9
					C50.9,22,50.9,14.8,50.9,14.8z M67.6,19.7l1.9,0.3c-0.2,0.7-0.6,1.2-1.2,1.6c-0.5,0.4-1.2,0.6-2,0.6c-1.3,0-2.2-0.4-2.8-1.2
					c-0.5-0.7-0.7-1.5-0.7-2.5c0-1.2,0.3-2.1,0.9-2.8c0.6-0.7,1.4-1,2.4-1c1.1,0,1.9,0.4,2.6,1.1c0.6,0.7,0.9,1.8,0.9,3.3h-4.8
					c0,0.6,0.2,1,0.5,1.3s0.7,0.5,1.1,0.5c0.3,0,0.6-0.1,0.8-0.2C67.4,20.3,67.5,20.1,67.6,19.7z M67.7,17.8c0-0.6-0.2-1-0.4-1.3
					c-0.3-0.3-0.6-0.4-1-0.4s-0.8,0.2-1,0.5s-0.4,0.7-0.4,1.2C64.9,17.8,67.7,17.8,67.7,17.8z M74.5,14.8v1.5h-1.3v2.9
					c0,0.6,0,0.9,0,1s0.1,0.2,0.2,0.2s0.2,0.1,0.3,0.1c0.2,0,0.4-0.1,0.8-0.2l0.2,1.5c-0.4,0.2-1,0.3-1.5,0.3
					c-0.3,0-0.7-0.1-0.9-0.2c-0.3-0.1-0.5-0.3-0.6-0.5s-0.2-0.4-0.3-0.7c0-0.2-0.1-0.7-0.1-1.4v-3.2h-0.9v-1.5h0.9v-1.4l1.9-1.1v2.6
					h1.3V14.8z M77.7,12v3.7c0.6-0.7,1.4-1.1,2.2-1.1c0.4,0,0.8,0.1,1.2,0.2c0.4,0.2,0.6,0.4,0.8,0.6c0.2,0.3,0.3,0.5,0.4,0.8
					s0.1,0.8,0.1,1.4V22h-1.9v-3.8c0-0.8,0-1.2-0.1-1.4c-0.1-0.2-0.2-0.4-0.4-0.5s-0.4-0.2-0.7-0.2c-0.3,0-0.6,0.1-0.9,0.2
					c-0.3,0.2-0.4,0.4-0.6,0.7s-0.2,0.8-0.2,1.4V22h-1.9V12H77.7z M84.3,13.8V12h1.9v1.8H84.3z M84.3,22v-7.3h1.9V22H84.3z M94.7,22
					h-1.9v-3.7c0-0.8,0-1.3-0.1-1.5s-0.2-0.4-0.4-0.5s-0.4-0.2-0.7-0.2c-0.3,0-0.6,0.1-0.9,0.3c-0.3,0.2-0.4,0.4-0.5,0.7
					S90,17.9,90,18.7V22h-1.9v-7.3h1.8v1.1c0.6-0.8,1.4-1.2,2.4-1.2c0.4,0,0.8,0.1,1.2,0.2c0.4,0.2,0.6,0.3,0.8,0.6s0.3,0.5,0.4,0.8
					c0.1,0.3,0.1,0.7,0.1,1.3V22H94.7z M96.4,22.5l2.2,0.3c0,0.3,0.1,0.4,0.3,0.5c0.2,0.1,0.5,0.2,0.9,0.2c0.5,0,0.9-0.1,1.1-0.2
					s0.3-0.3,0.4-0.5s0.1-0.5,0.1-0.9v-1.1c-0.6,0.8-1.3,1.2-2.2,1.2c-1,0-1.7-0.4-2.3-1.2c-0.4-0.7-0.7-1.5-0.7-2.4
					c0-1.2,0.3-2.1,0.9-2.8c0.6-0.6,1.3-1,2.2-1c0.9,0,1.6,0.4,2.2,1.2v-1h1.8v6.5c0,0.9-0.1,1.5-0.2,1.9s-0.3,0.8-0.6,1
					c-0.3,0.2-0.6,0.4-1,0.6c-0.4,0.1-1,0.2-1.6,0.2c-1.2,0-2.1-0.2-2.6-0.6s-0.8-1-0.8-1.6C96.4,22.7,96.4,22.6,96.4,22.5z
					 M98.2,18.2c0,0.8,0.1,1.3,0.4,1.7c0.3,0.4,0.7,0.5,1.1,0.5c0.5,0,0.9-0.2,1.2-0.6s0.5-0.9,0.5-1.6c0-0.8-0.2-1.3-0.5-1.7
					c-0.3-0.4-0.7-0.5-1.2-0.5s-0.8,0.2-1.1,0.5C98.3,17,98.2,17.5,98.2,18.2z M105.1,20.1h1.9v1.4c0,0.6,0,1-0.1,1.3
					s-0.3,0.6-0.5,0.9c-0.3,0.3-0.6,0.5-1,0.6l-0.4-0.8c0.4-0.1,0.7-0.3,0.8-0.5s0.3-0.5,0.3-0.9h-0.9v-2H105.1z M112.8,13.8V12h1.9
					v1.8H112.8z M112.8,22v-7.3h1.9V22H112.8z M120,14.8v1.5h-1.3v2.9c0,0.6,0,0.9,0,1s0.1,0.2,0.2,0.2c0.1,0.1,0.2,0.1,0.3,0.1
					c0.2,0,0.4-0.1,0.8-0.2l0.2,1.5c-0.4,0.2-1,0.3-1.5,0.3c-0.3,0-0.7-0.1-0.9-0.2c-0.3-0.1-0.5-0.3-0.6-0.5s-0.2-0.4-0.3-0.7
					c0-0.2-0.1-0.7-0.1-1.4v-3.2h-0.9v-1.5h0.9v-1.4l1.9-1.1v2.6h1.3V14.8z M125.1,13.8V12h1.9v1.8H125.1z M125.1,22v-7.3h1.9V22
					H125.1z M128.3,20l1.9-0.3c0.1,0.4,0.2,0.7,0.5,0.9c0.3,0.2,0.6,0.3,1.1,0.3s0.9-0.1,1.1-0.3c0.2-0.1,0.3-0.3,0.3-0.5
					c0-0.1,0-0.3-0.1-0.4s-0.3-0.2-0.6-0.3c-1.5-0.3-2.5-0.7-2.9-0.9c-0.6-0.4-0.9-0.9-0.9-1.6c0-0.6,0.2-1.2,0.7-1.6
					c0.5-0.4,1.3-0.6,2.3-0.6s1.7,0.2,2.2,0.5s0.8,0.8,1,1.4l-1.8,0.3c-0.1-0.3-0.2-0.5-0.4-0.6c-0.2-0.2-0.5-0.2-0.9-0.2
					c-0.5,0-0.9,0.1-1.1,0.2c-0.1,0.1-0.2,0.2-0.2,0.4c0,0.1,0.1,0.3,0.2,0.3c0.2,0.1,0.8,0.3,1.8,0.5s1.7,0.5,2.1,0.9
					c0.4,0.3,0.6,0.8,0.6,1.4c0,0.7-0.3,1.2-0.8,1.7c-0.6,0.5-1.4,0.7-2.5,0.7c-1,0-1.8-0.2-2.3-0.6C128.8,21.2,128.4,20.6,128.3,20
					z M142.4,22h-1.9v-7.3h1.8v1c0.3-0.5,0.6-0.8,0.8-1s0.5-0.2,0.8-0.2c0.4,0,0.9,0.1,1.3,0.4l-0.6,1.7c-0.3-0.2-0.6-0.3-0.9-0.3
					c-0.3,0-0.5,0.1-0.7,0.2s-0.3,0.4-0.4,0.8s-0.2,1.2-0.2,2.4L142.4,22L142.4,22z M150.1,19.7L152,20c-0.2,0.7-0.6,1.2-1.2,1.6
					c-0.5,0.4-1.2,0.6-2,0.6c-1.3,0-2.2-0.4-2.8-1.2c-0.5-0.7-0.7-1.5-0.7-2.5c0-1.2,0.3-2.1,0.9-2.8c0.6-0.7,1.4-1,2.4-1
					c1.1,0,1.9,0.4,2.6,1.1c0.6,0.7,0.9,1.8,0.9,3.3h-4.8c0,0.6,0.2,1,0.5,1.3s0.7,0.5,1.1,0.5c0.3,0,0.6-0.1,0.8-0.2
					C149.9,20.3,150,20.1,150.1,19.7z M150.2,17.8c0-0.6-0.2-1-0.4-1.3c-0.3-0.3-0.6-0.4-1-0.4s-0.8,0.2-1,0.5s-0.4,0.7-0.4,1.2
					C147.4,17.8,150.2,17.8,150.2,17.8z M155.1,17l-1.7-0.3c0.2-0.7,0.5-1.2,1-1.6c0.5-0.3,1.2-0.5,2.1-0.5c0.9,0,1.5,0.1,1.9,0.3
					s0.7,0.5,0.9,0.8c0.2,0.3,0.3,0.9,0.3,1.7v2.2c0,0.6,0,1.1,0.1,1.4s0.2,0.6,0.3,1h-1.9c-0.1-0.1-0.1-0.3-0.2-0.6
					c0-0.1-0.1-0.2-0.1-0.2c-0.3,0.3-0.7,0.6-1.1,0.7c-0.4,0.2-0.8,0.2-1.2,0.2c-0.7,0-1.3-0.2-1.8-0.6c-0.4-0.4-0.6-0.9-0.6-1.5
					c0-0.4,0.1-0.8,0.3-1.1c0.2-0.3,0.5-0.6,0.8-0.7c0.4-0.2,0.9-0.3,1.5-0.4c0.9-0.2,1.5-0.3,1.9-0.5v-0.2c0-0.4-0.1-0.6-0.3-0.8
					c-0.2-0.2-0.5-0.2-1-0.2c-0.3,0-0.6,0.1-0.8,0.2S155.2,16.6,155.1,17z M157.7,18.5c-0.2,0.1-0.6,0.2-1.2,0.3
					c-0.5,0.1-0.9,0.2-1,0.3c-0.3,0.2-0.4,0.4-0.4,0.7c0,0.3,0.1,0.5,0.3,0.7s0.5,0.3,0.8,0.3s0.7-0.1,1-0.3
					c0.2-0.2,0.4-0.4,0.5-0.6s0.1-0.5,0.1-0.9v-0.5H157.7z M161.4,22V12h1.9v10H161.4z M165.2,22V12h1.9v10H165.2z M168.2,14.8h2
					l1.7,5.2l1.7-5.2h2l-2.6,7l-0.5,1.3c-0.2,0.4-0.3,0.7-0.5,1c-0.2,0.2-0.3,0.4-0.5,0.5s-0.4,0.2-0.7,0.3c-0.3,0.1-0.6,0.1-1,0.1
					s-0.7,0-1.1-0.1l-0.2-1.5c0.3,0.1,0.6,0.1,0.8,0.1c0.4,0,0.8-0.1,1-0.4s0.4-0.6,0.5-1L168.2,14.8z M0,29.8V28h2v1.8H0z M0,38
					v-7.3h2V38H0z M10.5,38H8.6v-3.7c0-0.8,0-1.3-0.1-1.5s-0.2-0.4-0.4-0.5c-0.2-0.1-0.4-0.2-0.7-0.2c-0.3,0-0.6,0.1-0.9,0.3
					S6.1,32.8,6,33.1S5.9,34,5.9,34.8V38h-2v-7.3h1.8v1.1c0.6-0.8,1.4-1.2,2.4-1.2c0.4,0,0.8,0.1,1.2,0.2s0.6,0.3,0.8,0.6
					c0.2,0.2,0.3,0.5,0.4,0.8c0.1,0.3,0.1,0.7,0.1,1.3V38H10.5z M15.7,30.8v1.5h-1.3v2.9c0,0.6,0,0.9,0,1s0.1,0.2,0.2,0.2
					c0.1,0.1,0.2,0.1,0.3,0.1c0.2,0,0.4-0.1,0.8-0.2l0.2,1.5c-0.4,0.2-1,0.3-1.5,0.3c-0.3,0-0.7-0.1-0.9-0.2
					c-0.3-0.1-0.5-0.3-0.6-0.5s-0.2-0.4-0.3-0.7c0-0.2-0.1-0.7-0.1-1.4v-3.2h-0.9v-1.5h0.9v-1.4l1.9-1.1v2.6h1.3V30.8z M21.2,35.7
					l1.9,0.3c-0.2,0.7-0.6,1.2-1.2,1.6c-0.5,0.4-1.2,0.6-2,0.6c-1.3,0-2.2-0.4-2.8-1.2c-0.5-0.7-0.7-1.5-0.7-2.5
					c0-1.2,0.3-2.1,0.9-2.8s1.4-1,2.4-1c1.1,0,1.9,0.4,2.6,1.1c0.6,0.7,0.9,1.8,0.9,3.3h-4.8c0,0.6,0.2,1,0.5,1.3s0.7,0.5,1.1,0.5
					c0.3,0,0.6-0.1,0.8-0.2C20.9,36.3,21.1,36.1,21.2,35.7z M21.3,33.8c0-0.6-0.2-1-0.4-1.3c-0.3-0.3-0.6-0.4-1-0.4s-0.8,0.2-1,0.5
					c-0.3,0.3-0.4,0.7-0.4,1.2H21.3z M26.6,38h-1.9v-7.3h1.8v1c0.3-0.5,0.6-0.8,0.8-1s0.5-0.2,0.8-0.2c0.4,0,0.9,0.1,1.3,0.4
					l-0.6,1.7c-0.3-0.2-0.6-0.3-0.9-0.3s-0.5,0.1-0.7,0.2c-0.2,0.1-0.3,0.4-0.4,0.8c-0.1,0.4-0.2,1.2-0.2,2.4
					C26.6,35.7,26.6,38,26.6,38z M34.3,35.7l1.9,0.3c-0.2,0.7-0.6,1.2-1.2,1.6c-0.5,0.4-1.2,0.6-2,0.6c-1.3,0-2.2-0.4-2.8-1.2
					c-0.5-0.7-0.7-1.5-0.7-2.5c0-1.2,0.3-2.1,0.9-2.8s1.4-1,2.4-1c1.1,0,1.9,0.4,2.6,1.1c0.6,0.7,0.9,1.8,0.9,3.3h-4.8
					c0,0.6,0.2,1,0.5,1.3s0.7,0.5,1.1,0.5c0.3,0,0.6-0.1,0.8-0.2C34.1,36.3,34.2,36.1,34.3,35.7z M34.5,33.8c0-0.6-0.2-1-0.4-1.3
					c-0.3-0.3-0.6-0.4-1-0.4s-0.8,0.2-1,0.5c-0.3,0.3-0.4,0.7-0.4,1.2H34.5z M37.2,36l1.9-0.3c0.1,0.4,0.2,0.7,0.5,0.9
					s0.6,0.3,1.1,0.3s0.9-0.1,1.1-0.3c0.2-0.1,0.3-0.3,0.3-0.5c0-0.1,0-0.3-0.1-0.4c-0.1-0.1-0.3-0.2-0.6-0.3
					c-1.5-0.3-2.5-0.7-2.9-0.9c-0.6-0.4-0.9-0.9-0.9-1.6c0-0.6,0.2-1.2,0.7-1.6s1.3-0.6,2.3-0.6s1.7,0.2,2.2,0.5s0.8,0.8,1,1.4
					L42,32.9c-0.1-0.3-0.2-0.5-0.4-0.6S41,32,40.6,32c-0.5,0-0.9,0.1-1.1,0.2c-0.1,0.1-0.2,0.2-0.2,0.4c0,0.1,0.1,0.3,0.2,0.3
					c0.2,0.1,0.8,0.3,1.8,0.5s1.7,0.5,2.1,0.9c0.4,0.3,0.6,0.8,0.6,1.4c0,0.7-0.3,1.2-0.8,1.7c-0.6,0.5-1.4,0.7-2.5,0.7
					c-1,0-1.8-0.2-2.3-0.6S37.4,36.6,37.2,36z M48.9,30.8v1.5h-1.3v2.9c0,0.6,0,0.9,0,1s0.1,0.2,0.2,0.2c0.1,0.1,0.2,0.1,0.3,0.1
					c0.2,0,0.4-0.1,0.8-0.2l0.2,1.5c-0.4,0.2-1,0.3-1.5,0.3c-0.3,0-0.7-0.1-0.9-0.2s-0.5-0.3-0.6-0.5s-0.2-0.4-0.3-0.7
					c0-0.2-0.1-0.7-0.1-1.4v-3.2h-0.9v-1.5h0.9v-1.4l1.9-1.1v2.6h1.3V30.8z M50.2,29.8V28h1.9v1.8H50.2z M50.2,38v-7.3h1.9V38H50.2z
					 M60.7,38h-1.9v-3.7c0-0.8,0-1.3-0.1-1.5s-0.2-0.4-0.4-0.5s-0.4-0.2-0.7-0.2s-0.6,0.1-0.9,0.3c-0.3,0.2-0.4,0.4-0.5,0.7
					C56,33.4,56,33.9,56,34.7V38h-1.9v-7.3h1.8v1.1c0.6-0.8,1.4-1.2,2.4-1.2c0.4,0,0.8,0.1,1.2,0.2c0.4,0.2,0.6,0.3,0.8,0.6
					c0.2,0.2,0.3,0.5,0.4,0.8c0.1,0.3,0.1,0.7,0.1,1.3L60.7,38L60.7,38z M62.4,38.5l2.2,0.3c0,0.3,0.1,0.4,0.3,0.5
					c0.2,0.1,0.5,0.2,0.9,0.2c0.5,0,0.9-0.1,1.1-0.2c0.2-0.1,0.3-0.3,0.4-0.5s0.1-0.5,0.1-0.9v-1.1C66.7,37.6,66,38,65.1,38
					c-1,0-1.7-0.4-2.3-1.2c-0.4-0.7-0.7-1.5-0.7-2.4c0-1.2,0.3-2.1,0.9-2.8c0.6-0.6,1.3-1,2.2-1c0.9,0,1.6,0.4,2.2,1.2v-1h1.8v6.5
					c0,0.9-0.1,1.5-0.2,1.9s-0.3,0.8-0.6,1c-0.3,0.2-0.6,0.4-1,0.6s-1,0.2-1.6,0.2c-1.2,0-2.1-0.2-2.6-0.6s-0.8-1-0.8-1.6
					C62.4,38.7,62.4,38.6,62.4,38.5z M64.1,34.2c0,0.8,0.1,1.3,0.4,1.7s0.7,0.5,1.1,0.5c0.5,0,0.9-0.2,1.2-0.6s0.5-0.9,0.5-1.6
					c0-0.8-0.2-1.3-0.5-1.7S66.1,32,65.6,32s-0.8,0.2-1.1,0.5C64.3,33,64.1,33.5,64.1,34.2z M76.4,33l-1.7-0.3
					c0.2-0.7,0.5-1.2,1-1.6c0.5-0.3,1.2-0.5,2.1-0.5s1.5,0.1,1.9,0.3s0.7,0.5,0.9,0.8s0.3,0.9,0.3,1.7v2.2c0,0.6,0,1.1,0.1,1.4
					c0.1,0.3,0.2,0.6,0.3,1h-1.9c-0.1-0.1-0.1-0.3-0.2-0.6c0-0.1-0.1-0.2-0.1-0.2c-0.3,0.3-0.7,0.6-1.1,0.7
					c-0.4,0.2-0.8,0.2-1.2,0.2c-0.7,0-1.3-0.2-1.8-0.6c-0.4-0.4-0.6-0.9-0.6-1.5c0-0.4,0.1-0.8,0.3-1.1c0.2-0.3,0.5-0.6,0.8-0.7
					c0.4-0.2,0.9-0.3,1.5-0.4c0.9-0.2,1.5-0.3,1.9-0.5v-0.2c0-0.4-0.1-0.6-0.3-0.8c-0.2-0.2-0.5-0.2-1-0.2c-0.3,0-0.6,0.1-0.8,0.2
					S76.5,32.6,76.4,33z M78.9,34.5c-0.2,0.1-0.6,0.2-1.2,0.3c-0.5,0.1-0.9,0.2-1,0.3c-0.3,0.2-0.4,0.4-0.4,0.7s0.1,0.5,0.3,0.7
					c0.2,0.2,0.5,0.3,0.8,0.3s0.7-0.1,1-0.3c0.2-0.2,0.4-0.4,0.5-0.6C79,35.7,79,35.4,79,35v-0.5H78.9z M89.3,38h-1.9v-3.7
					c0-0.8,0-1.3-0.1-1.5s-0.2-0.4-0.4-0.5s-0.4-0.2-0.7-0.2c-0.3,0-0.6,0.1-0.9,0.3s-0.4,0.4-0.5,0.7s-0.1,0.9-0.1,1.7V38h-1.9
					v-7.3h1.8v1.1c0.6-0.8,1.4-1.2,2.4-1.2c0.4,0,0.8,0.1,1.2,0.2s0.6,0.3,0.8,0.6s0.3,0.5,0.4,0.8s0.1,0.7,0.1,1.3V38H89.3z
					 M97.8,38H96v-1c-0.3,0.4-0.6,0.7-1,0.9s-0.8,0.3-1.2,0.3c-0.8,0-1.5-0.3-2.1-1s-0.9-1.6-0.9-2.8s0.3-2.2,0.9-2.8
					c0.6-0.6,1.3-1,2.2-1c0.8,0,1.5,0.3,2.1,1V28h1.9L97.8,38L97.8,38z M92.7,34.2c0,0.8,0.1,1.3,0.3,1.7c0.3,0.5,0.7,0.8,1.3,0.8
					c0.4,0,0.8-0.2,1.1-0.6c0.3-0.4,0.5-0.9,0.5-1.7s-0.2-1.4-0.5-1.8c-0.3-0.4-0.7-0.6-1.2-0.6s-0.8,0.2-1.1,0.5
					C92.8,33,92.7,33.5,92.7,34.2z"/>
				<path id="_x25CF__x25CF__x25CF__x25CF__x25CF__x25CF__x25CF__x25CF__x25CF_" class="st2" d="M106.7,31.1c0.5,0,1,0.1,1.5,0.4
					s0.9,0.6,1.1,1.1c0.3,0.5,0.4,1,0.4,1.5c0,0.8-0.3,1.5-0.9,2.1s-1.3,0.9-2.1,0.9c-0.8,0-1.5-0.3-2.1-0.9
					c-0.6-0.6-0.9-1.3-0.9-2.1c0-0.5,0.1-1,0.4-1.5s0.6-0.9,1.1-1.1C105.7,31.2,106.2,31.1,106.7,31.1z M115.1,31.1
					c0.5,0,1,0.1,1.5,0.4s0.9,0.6,1.1,1.1c0.3,0.5,0.4,1,0.4,1.5c0,0.8-0.3,1.5-0.9,2.1s-1.3,0.9-2.1,0.9c-0.8,0-1.5-0.3-2.1-0.9
					c-0.6-0.6-0.9-1.3-0.9-2.1c0-0.5,0.1-1,0.4-1.5s0.6-0.9,1.1-1.1C114.1,31.2,114.6,31.1,115.1,31.1z M123.5,31.1
					c0.5,0,1,0.1,1.5,0.4s0.9,0.6,1.1,1.1c0.3,0.5,0.4,1,0.4,1.5c0,0.8-0.3,1.5-0.9,2.1s-1.3,0.9-2.1,0.9c-0.8,0-1.5-0.3-2.1-0.9
					c-0.6-0.6-0.9-1.3-0.9-2.1c0-0.5,0.1-1,0.4-1.5s0.6-0.9,1.1-1.1S123,31.1,123.5,31.1z M132,31.1c0.5,0,1,0.1,1.5,0.4
					s0.9,0.6,1.1,1.1c0.3,0.5,0.4,1,0.4,1.5c0,0.8-0.3,1.5-0.9,2.1s-1.3,0.9-2.1,0.9s-1.5-0.3-2.1-0.9s-0.9-1.3-0.9-2.1
					c0-0.5,0.1-1,0.4-1.5c0.3-0.5,0.6-0.9,1.1-1.1S131.4,31.1,132,31.1z M140.4,31.1c0.5,0,1,0.1,1.5,0.4s0.9,0.6,1.1,1.1
					c0.3,0.5,0.4,1,0.4,1.5c0,0.8-0.3,1.5-0.9,2.1s-1.3,0.9-2.1,0.9s-1.5-0.3-2.1-0.9s-0.9-1.3-0.9-2.1c0-0.5,0.1-1,0.4-1.5
					s0.6-0.9,1.1-1.1S139.9,31.1,140.4,31.1z M148.8,31.1c0.5,0,1,0.1,1.5,0.4s0.9,0.6,1.1,1.1c0.3,0.5,0.4,1,0.4,1.5
					c0,0.8-0.3,1.5-0.9,2.1s-1.3,0.9-2.1,0.9s-1.5-0.3-2.1-0.9s-0.9-1.3-0.9-2.1c0-0.5,0.1-1,0.4-1.5c0.3-0.5,0.6-0.9,1.1-1.1
					S148.3,31.1,148.8,31.1z M157.2,31.1c0.5,0,1,0.1,1.5,0.4s0.9,0.6,1.1,1.1c0.3,0.5,0.4,1,0.4,1.5c0,0.8-0.3,1.5-0.9,2.1
					c-0.6,0.6-1.3,0.9-2.1,0.9s-1.5-0.3-2.1-0.9c-0.6-0.6-0.9-1.3-0.9-2.1c0-0.5,0.1-1,0.4-1.5c0.3-0.5,0.6-0.9,1.1-1.1
					S156.7,31.1,157.2,31.1z M165.6,31.1c0.5,0,1,0.1,1.5,0.4s0.9,0.6,1.1,1.1c0.3,0.5,0.4,1,0.4,1.5c0,0.8-0.3,1.5-0.9,2.1
					c-0.6,0.6-1.3,0.9-2.1,0.9s-1.5-0.3-2.1-0.9c-0.6-0.6-0.9-1.3-0.9-2.1c0-0.5,0.1-1,0.4-1.5c0.3-0.5,0.6-0.9,1.1-1.1
					C164.6,31.2,165.1,31.1,165.6,31.1z M174,31.1c0.5,0,1,0.1,1.5,0.4s0.9,0.6,1.1,1.1c0.3,0.5,0.4,1,0.4,1.5
					c0,0.8-0.3,1.5-0.9,2.1c-0.6,0.6-1.3,0.9-2.1,0.9s-1.5-0.3-2.1-0.9c-0.6-0.6-0.9-1.3-0.9-2.1c0-0.5,0.1-1,0.4-1.5
					c0.3-0.5,0.6-0.9,1.1-1.1C173,31.2,173.5,31.1,174,31.1z"/>
				<polygon id="_x2E_" class="st6" points="179.2,38 179.2,36.1 181.1,36.1 181.1,38 				"/>
			</g>
			<path id="_x35_daysago" class="st7" d="M18.5,77.8l1.6-0.2c0,0.4,0.2,0.7,0.4,0.9s0.5,0.3,0.8,0.3s0.6-0.1,0.9-0.4
				s0.4-0.7,0.4-1.3c0-0.5-0.1-0.9-0.4-1.2s-0.5-0.4-0.9-0.4c-0.5,0-0.9,0.2-1.3,0.6L18.7,76l0.8-4.5h4.4V73h-3.1l-0.3,1.5
				c0.4-0.2,0.7-0.3,1.1-0.3c0.7,0,1.3,0.3,1.9,0.8s0.8,1.2,0.8,2.1c0,0.7-0.2,1.3-0.6,1.9c-0.6,0.8-1.3,1.1-2.3,1.1
				c-0.8,0-1.4-0.2-1.9-0.6S18.6,78.5,18.5,77.8z M34.5,80H33v-0.9c-0.3,0.4-0.6,0.6-0.9,0.8c-0.3,0.2-0.7,0.3-1,0.3
				c-0.7,0-1.3-0.3-1.8-0.9s-0.8-1.4-0.8-2.4c0-1.1,0.2-1.9,0.7-2.4s1.1-0.8,1.9-0.8c0.7,0,1.3,0.3,1.8,0.9v-3.1h1.6V80z M30.1,76.8
				c0,0.7,0.1,1.1,0.3,1.4c0.3,0.4,0.6,0.6,1.1,0.6c0.4,0,0.7-0.2,1-0.5s0.4-0.8,0.4-1.4c0-0.7-0.1-1.2-0.4-1.5s-0.6-0.5-1-0.5
				s-0.7,0.2-1,0.5C30.2,75.7,30.1,76.1,30.1,76.8z M37.3,75.7l-1.5-0.3c0.2-0.6,0.5-1,0.9-1.3s1-0.4,1.8-0.4c0.7,0,1.3,0.1,1.6,0.3
				c0.4,0.2,0.6,0.4,0.8,0.7s0.2,0.8,0.2,1.5v1.9c0,0.5,0,1,0.1,1.2s0.2,0.5,0.3,0.8h-1.6c0-0.1-0.1-0.3-0.2-0.5
				c0-0.1,0-0.2-0.1-0.2c-0.3,0.3-0.6,0.5-0.9,0.6c-0.3,0.1-0.7,0.2-1,0.2c-0.6,0-1.1-0.2-1.5-0.5s-0.6-0.8-0.6-1.3
				c0-0.4,0.1-0.7,0.3-0.9s0.4-0.5,0.7-0.6s0.7-0.3,1.3-0.4c0.8-0.1,1.3-0.3,1.6-0.4v-0.2c0-0.3-0.1-0.5-0.2-0.7S38.8,75,38.4,75
				c-0.3,0-0.5,0.1-0.7,0.2S37.4,75.4,37.3,75.7z M39.5,77c-0.2,0.1-0.5,0.2-1,0.3c-0.5,0.1-0.8,0.2-0.9,0.3
				c-0.2,0.2-0.3,0.3-0.3,0.6c0,0.2,0.1,0.4,0.3,0.6s0.4,0.3,0.7,0.3s0.6-0.1,0.8-0.3c0.2-0.1,0.3-0.3,0.4-0.5
				c0-0.1,0.1-0.4,0.1-0.8L39.5,77L39.5,77z M41.9,73.8h1.8l1.5,4.4l1.5-4.4h1.7l-2.2,6l-0.4,1.1c-0.1,0.4-0.3,0.6-0.4,0.8
				S45,82,44.9,82.1s-0.4,0.2-0.6,0.3c-0.2,0.1-0.5,0.1-0.8,0.1s-0.6,0-0.9-0.1l-0.1-1.3c0.3,0.1,0.5,0.1,0.7,0.1
				c0.4,0,0.7-0.1,0.8-0.3s0.3-0.5,0.4-0.9L41.9,73.8z M48.8,78.2l1.7-0.3c0.1,0.3,0.2,0.6,0.4,0.7c0.2,0.2,0.5,0.2,0.9,0.2
				s0.7-0.1,1-0.2c0.1-0.1,0.2-0.3,0.2-0.4s0-0.2-0.1-0.3c-0.1-0.1-0.3-0.2-0.6-0.2c-1.3-0.3-2.2-0.6-2.5-0.8
				c-0.5-0.3-0.7-0.8-0.7-1.4c0-0.5,0.2-1,0.6-1.4c0.4-0.4,1.1-0.6,2-0.6s1.5,0.1,1.9,0.4s0.7,0.7,0.9,1.2l-1.6,0.3
				c-0.1-0.2-0.2-0.4-0.4-0.6s-0.5-0.2-0.8-0.2c-0.4,0-0.7,0.1-0.9,0.2c-0.1,0.1-0.2,0.2-0.2,0.3c0,0.1,0.1,0.2,0.2,0.3
				c0.1,0.1,0.7,0.3,1.5,0.5s1.5,0.4,1.8,0.7c0.3,0.3,0.5,0.7,0.5,1.2c0,0.6-0.2,1.1-0.7,1.5s-1.2,0.6-2.1,0.6c-0.8,0-1.5-0.2-2-0.5
				C49.2,79.3,48.9,78.8,48.8,78.2z M60.5,75.7L59,75.4c0.2-0.6,0.5-1,0.9-1.3s1-0.4,1.8-0.4c0.7,0,1.3,0.1,1.6,0.3
				c0.4,0.2,0.6,0.4,0.8,0.7c0.1,0.3,0.2,0.8,0.2,1.5v1.9c0,0.5,0,1,0.1,1.2s0.2,0.5,0.3,0.8H63c0-0.1-0.1-0.3-0.2-0.5
				c0-0.1,0-0.2-0.1-0.2c-0.3,0.3-0.6,0.5-0.9,0.6c-0.3,0.1-0.7,0.2-1,0.2c-0.6,0-1.1-0.2-1.5-0.5s-0.6-0.8-0.6-1.3
				c0-0.4,0.1-0.7,0.3-0.9c0.2-0.3,0.4-0.5,0.7-0.6s0.7-0.3,1.3-0.4c0.8-0.1,1.3-0.3,1.6-0.4v-0.2c0-0.3-0.1-0.5-0.2-0.7
				c-0.2-0.1-0.5-0.2-0.9-0.2c-0.3,0-0.5,0.1-0.7,0.2C60.7,75.2,60.6,75.4,60.5,75.7z M62.7,77c-0.2,0.1-0.5,0.2-1,0.3
				c-0.5,0.1-0.8,0.2-0.9,0.3c-0.2,0.2-0.3,0.3-0.3,0.6c0,0.2,0.1,0.4,0.3,0.6s0.4,0.3,0.7,0.3s0.6-0.1,0.8-0.3
				c0.2-0.1,0.3-0.3,0.4-0.5c0-0.1,0.1-0.4,0.1-0.8L62.7,77L62.7,77z M65.7,80.4l1.9,0.2c0,0.2,0.1,0.4,0.2,0.5
				c0.2,0.1,0.4,0.2,0.7,0.2c0.4,0,0.8-0.1,1-0.2c0.1-0.1,0.3-0.2,0.3-0.4c0.1-0.1,0.1-0.4,0.1-0.8V79c-0.5,0.7-1.1,1-1.9,1
				s-1.5-0.4-2-1.1c-0.4-0.6-0.6-1.3-0.6-2.1c0-1,0.3-1.8,0.8-2.4s1.1-0.8,1.9-0.8s1.4,0.3,1.9,1v-0.9h1.5v5.6
				c0,0.7-0.1,1.3-0.2,1.6s-0.3,0.6-0.5,0.9s-0.5,0.4-0.9,0.5s-0.8,0.2-1.4,0.2c-1.1,0-1.8-0.2-2.2-0.5s-0.7-0.8-0.7-1.4
				C65.7,80.6,65.7,80.5,65.7,80.4z M67.2,76.8c0,0.7,0.1,1.1,0.4,1.5s0.6,0.5,0.9,0.5c0.4,0,0.7-0.2,1-0.5s0.4-0.8,0.4-1.4
				s-0.1-1.1-0.4-1.4s-0.6-0.5-1-0.5s-0.7,0.2-1,0.5S67.2,76.1,67.2,76.8z M72.8,76.8c0-0.5,0.1-1.1,0.4-1.6s0.7-0.9,1.1-1.2
				c0.5-0.3,1-0.4,1.7-0.4c0.9,0,1.7,0.3,2.3,0.9c0.6,0.6,0.9,1.4,0.9,2.3s-0.3,1.7-0.9,2.3C77.7,79.7,76.9,80,76,80
				c-0.6,0-1.1-0.1-1.6-0.4s-0.9-0.6-1.2-1.1S72.8,77.5,72.8,76.8z M74.5,76.9c0,0.6,0.1,1.1,0.4,1.4s0.7,0.5,1.1,0.5
				s0.8-0.2,1.1-0.5s0.4-0.8,0.4-1.4s-0.1-1.1-0.4-1.4S76.4,75,76,75s-0.8,0.2-1.1,0.5S74.5,76.3,74.5,76.9z"/>
		</g>
		<g id="добавить-copy" transform="translate(348.773936, 417.000000)">
			<circle id="Oval-Copy-2" class="st2" cx="25.5" cy="37.5" r="22.6"/>
			<g id="_x2B_" transform="translate(0.773936, -0.000000)">
				<g id="Oval-Copy-2_1_">
					<g>
						<circle id="path-5_2_" cx="25" cy="37" r="25"/>
					</g>
					<g>
						<circle id="path-5_1_" class="st2" cx="25" cy="37" r="25"/>
					</g>
				</g>
				<path id="Combined-Shape_1_" class="st8" d="M25,37h-8H25v-8V37z M25,37h8H25v8V37z"/>
			</g>
		</g>
	</g>
</g>
<g>
	<g>
		<path d="M500.9,258.3c-1.6,0-3.1-0.3-4.5-0.8s-2.5-1.3-3.5-2.4c-1-1-1.8-2.2-2.3-3.6s-0.8-2.9-0.8-4.5c0-1.6,0.3-3.1,0.8-4.5
			c0.6-1.4,1.3-2.5,2.3-3.6s2.2-1.8,3.5-2.4s2.9-0.8,4.5-0.8c1.6,0,3.1,0.3,4.5,0.8c1.4,0.6,2.5,1.3,3.6,2.4s1.8,2.2,2.3,3.6
			c0.6,1.4,0.8,2.8,0.8,4.5c0,1.6-0.3,3.1-0.8,4.5s-1.3,2.5-2.3,3.6c-1,1-2.2,1.8-3.6,2.4C504,258,502.5,258.3,500.9,258.3z
			 M500.9,256.2c1.3,0,2.5-0.2,3.6-0.7c1.1-0.5,2.1-1.1,2.9-1.9c0.8-0.8,1.4-1.8,1.9-2.9c0.4-1.1,0.7-2.3,0.7-3.6
			c0-1.3-0.2-2.5-0.7-3.6c-0.4-1.1-1.1-2.1-1.9-2.9c-0.8-0.8-1.8-1.5-2.9-1.9c-1.1-0.5-2.3-0.7-3.6-0.7c-1.3,0-2.5,0.2-3.6,0.7
			c-1.1,0.5-2.1,1.1-2.9,1.9c-0.8,0.8-1.4,1.8-1.9,2.9c-0.4,1.1-0.7,2.3-0.7,3.6c0,1.3,0.2,2.5,0.7,3.6c0.4,1.1,1.1,2.1,1.9,2.9
			c0.8,0.8,1.8,1.5,2.9,1.9C498.4,256,499.6,256.2,500.9,256.2z"/>
		<path d="M517.4,258c-0.3,0-0.6-0.1-0.8-0.3c-0.2-0.2-0.3-0.5-0.3-0.8v-13.2c0-0.3,0.1-0.6,0.3-0.8c0.2-0.2,0.5-0.3,0.8-0.3
			c0.3,0,0.6,0.1,0.8,0.3s0.3,0.5,0.3,0.8v13.2c0,0.3-0.1,0.6-0.3,0.8C518,257.9,517.7,258,517.4,258z M527.2,258
			c-0.3,0-0.6-0.1-0.8-0.3c-0.2-0.2-0.3-0.5-0.3-0.8v-8.1c0-1.3-0.3-2.4-1-3.1s-1.6-1.2-2.7-1.2c-1.2,0-2.1,0.4-2.9,1.1
			c-0.7,0.8-1.1,1.7-1.1,3h-1.5c0-1.2,0.3-2.3,0.8-3.2c0.5-0.9,1.2-1.6,2-2.2c0.9-0.5,1.8-0.8,2.9-0.8c1.1,0,2.1,0.3,2.9,0.8
			c0.8,0.5,1.5,1.3,2,2.2c0.5,1,0.7,2.1,0.7,3.4v8.1c0,0.3-0.1,0.6-0.3,0.8C527.8,257.9,527.5,258,527.2,258z M537,258
			c-0.3,0-0.6-0.1-0.8-0.3c-0.2-0.2-0.3-0.5-0.3-0.8v-8.1c0-1.3-0.3-2.4-1-3.1s-1.6-1.2-2.7-1.2c-1.2,0-2.1,0.4-2.8,1.2
			s-1.1,1.8-1.1,3.1h-1.9c0-1.3,0.3-2.4,0.8-3.3c0.5-1,1.2-1.7,2.2-2.2c0.9-0.5,2-0.8,3.1-0.8c1.1,0,2.1,0.3,2.9,0.8
			c0.8,0.5,1.5,1.3,2,2.2c0.5,1,0.7,2.1,0.7,3.4v8.1c0,0.3-0.1,0.6-0.3,0.8C537.6,257.9,537.3,258,537,258z"/>
		<path d="M548.5,242.7c0.2,0,0.4,0.1,0.6,0.2s0.3,0.3,0.4,0.6l6.1,13.2c0.1,0.3,0.1,0.5,0,0.7s-0.3,0.4-0.5,0.5
			c-0.3,0.1-0.6,0.2-0.8,0.1c-0.2-0.1-0.4-0.3-0.6-0.5l-5.8-12.9h1.3l-5.9,12.9c-0.1,0.3-0.3,0.5-0.6,0.5s-0.5,0.1-0.8-0.1
			c-0.3-0.1-0.4-0.3-0.5-0.5c-0.1-0.2-0.1-0.5,0-0.7l6.2-13.2C547.8,242.9,548.1,242.7,548.5,242.7z"/>
		<path d="M566,258.2c-1.3,0-2.5-0.3-3.6-0.8c-1-0.6-1.9-1.4-2.5-2.4c-0.6-1.1-0.9-2.4-0.9-3.9v-7.3c0-0.3,0.1-0.6,0.3-0.8
			s0.5-0.3,0.8-0.3c0.3,0,0.6,0.1,0.8,0.3s0.3,0.5,0.3,0.8v7.3c0,1.2,0.2,2.1,0.7,2.9c0.4,0.7,1,1.3,1.8,1.7
			c0.8,0.4,1.6,0.6,2.6,0.6c0.9,0,1.7-0.2,2.5-0.5c0.7-0.4,1.3-0.8,1.8-1.5c0.4-0.6,0.6-1.3,0.6-2.1h1.5c-0.1,1.2-0.4,2.2-1,3.1
			c-0.6,0.9-1.4,1.7-2.4,2.2C568.3,257.9,567.2,258.2,566,258.2z M572.1,258c-0.3,0-0.6-0.1-0.8-0.3c-0.2-0.2-0.3-0.5-0.3-0.8v-13.2
			c0-0.3,0.1-0.6,0.3-0.8c0.2-0.2,0.5-0.3,0.8-0.3s0.6,0.1,0.8,0.3s0.3,0.5,0.3,0.8v13.2c0,0.3-0.1,0.6-0.3,0.8
			C572.7,257.9,572.4,258,572.1,258z"/>
		<path d="M583.3,253.3c-1.4,0-2.5-0.3-3.4-0.8c-0.9-0.6-1.6-1.4-2.1-2.4c-0.5-1-0.7-2.2-0.7-3.6v-2.7c0-0.3,0.1-0.6,0.3-0.8
			c0.2-0.2,0.5-0.3,0.8-0.3c0.3,0,0.6,0.1,0.8,0.3s0.3,0.5,0.3,0.8v2.7c0,1.5,0.4,2.6,1.1,3.5c0.7,0.9,1.8,1.3,3.3,1.3
			c1.2,0,2.1-0.2,2.9-0.6c0.7-0.4,1.1-1,1.1-1.6h1.1c0,0.8-0.3,1.6-0.7,2.2s-1.1,1.2-1.9,1.5C585.2,253.1,584.3,253.3,583.3,253.3z
			 M588.5,258c-0.3,0-0.6-0.1-0.8-0.3c-0.2-0.2-0.3-0.5-0.3-0.8v-13.1c0-0.3,0.1-0.6,0.3-0.8c0.2-0.2,0.5-0.3,0.8-0.3
			c0.3,0,0.6,0.1,0.8,0.3c0.2,0.2,0.3,0.5,0.3,0.8v13.1c0,0.3-0.1,0.6-0.3,0.8C589.1,257.9,588.9,258,588.5,258z"/>
		<path d="M595.7,258c-0.3,0-0.6-0.1-0.8-0.3c-0.2-0.2-0.3-0.5-0.3-0.8v-13.1c0-0.3,0.1-0.6,0.3-0.8c0.2-0.2,0.5-0.3,0.8-0.3
			s0.6,0.1,0.8,0.3c0.2,0.2,0.3,0.5,0.3,0.8v13.1c0,0.3-0.1,0.6-0.3,0.8C596.3,257.9,596,258,595.7,258z M596.4,251.3v-1.9h11v1.9
			H596.4z M607.8,258c-0.3,0-0.6-0.1-0.8-0.3c-0.2-0.2-0.3-0.5-0.3-0.8v-13.1c0-0.3,0.1-0.6,0.3-0.8s0.5-0.3,0.8-0.3
			s0.6,0.1,0.8,0.3s0.3,0.5,0.3,0.8v13.1c0,0.3-0.1,0.6-0.3,0.8C608.3,257.9,608.1,258,607.8,258z"/>
		<path d="M620.8,258.1c-1.5,0-2.8-0.3-4-1c-1.2-0.7-2.1-1.6-2.8-2.8c-0.7-1.2-1-2.5-1-4c0-1.5,0.3-2.9,1-4c0.7-1.2,1.6-2.1,2.8-2.8
			c1.2-0.7,2.5-1,4-1c1.5,0,2.8,0.3,4,1c1.2,0.7,2.1,1.6,2.8,2.8c0.7,1.2,1,2.5,1,4c0,1.5-0.3,2.8-1,4c-0.7,1.2-1.6,2.1-2.8,2.8
			C623.6,257.8,622.3,258.1,620.8,258.1z M620.8,256.2c1.1,0,2.1-0.3,2.9-0.8c0.9-0.5,1.5-1.2,2-2.1s0.7-1.9,0.7-3s-0.2-2.1-0.7-3
			s-1.2-1.6-2-2.1c-0.9-0.5-1.8-0.8-2.9-0.8c-1.1,0-2.1,0.3-2.9,0.8c-0.9,0.5-1.5,1.2-2,2.1s-0.7,1.9-0.7,3s0.2,2.1,0.7,3
			s1.2,1.6,2,2.1C618.7,255.9,619.7,256.2,620.8,256.2z"/>
		<path d="M633.3,258c-0.4,0-0.8-0.2-1.1-0.5c-0.3-0.3-0.5-0.7-0.5-1.1c0-0.5,0.2-0.9,0.5-1.2s0.7-0.5,1.1-0.5
			c0.4,0,0.8,0.2,1.1,0.5c0.3,0.3,0.5,0.7,0.5,1.2c0,0.4-0.2,0.8-0.5,1.1C634.1,257.8,633.7,258,633.3,258z M633.3,253
			c-0.3,0-0.6-0.1-0.8-0.3c-0.2-0.2-0.3-0.5-0.3-0.8v-14.7c0-0.3,0.1-0.6,0.3-0.8c0.2-0.2,0.5-0.3,0.8-0.3c0.3,0,0.6,0.1,0.8,0.3
			c0.2,0.2,0.3,0.5,0.3,0.8V252c0,0.3-0.1,0.6-0.3,0.8C633.8,252.9,633.6,253,633.3,253z"/>
		<path d="M500.6,291.9c-1.5,0-2.9-0.3-4.2-0.9c-1.3-0.6-2.5-1.4-3.5-2.4c-1-1-1.8-2.2-2.3-3.6c-0.6-1.4-0.8-2.8-0.8-4.4
			c0-1.5,0.3-3,0.8-4.3c0.6-1.4,1.3-2.5,2.3-3.6c1-1,2.2-1.8,3.5-2.4c1.3-0.6,2.7-0.9,4.3-0.9c1.3,0,2.6,0.2,3.7,0.6s2.2,1,3.2,1.9
			c0.2,0.1,0.3,0.3,0.3,0.5c0,0.2,0,0.3-0.1,0.5c-0.1,0.2-0.2,0.3-0.3,0.3c0,0.1-0.1,0.3-0.3,0.3c-0.1,0.1-0.3,0.1-0.5,0.1
			c-0.2,0-0.4-0.1-0.6-0.3c-0.7-0.6-1.5-1.1-2.4-1.4c-0.9-0.3-1.9-0.5-3-0.5c-1.2,0-2.3,0.2-3.4,0.7c-1.1,0.5-2,1.1-2.8,2
			c-0.8,0.8-1.4,1.8-1.9,2.9c-0.5,1.1-0.7,2.3-0.7,3.5c0,1.3,0.2,2.5,0.7,3.6s1.1,2.1,1.9,2.9c0.8,0.8,1.7,1.5,2.8,2
			c1.1,0.5,2.2,0.7,3.4,0.7c1,0,2-0.2,2.9-0.5c0.9-0.3,1.8-0.8,2.6-1.5c0.2-0.2,0.5-0.3,0.7-0.2c0.3,0,0.5,0.1,0.7,0.3
			s0.3,0.4,0.3,0.7c0,0.1,0,0.3-0.1,0.4s-0.1,0.2-0.2,0.4c-1,0.9-2,1.5-3.2,1.9C503.1,291.7,501.9,291.9,500.6,291.9z"/>
		<path d="M517.8,276.3c0.2,0,0.4,0.1,0.6,0.2s0.3,0.3,0.4,0.6l6.1,13.2c0.1,0.3,0.1,0.5,0,0.7s-0.3,0.4-0.5,0.5
			c-0.3,0.1-0.6,0.2-0.8,0.1c-0.2-0.1-0.4-0.3-0.6-0.5l-5.8-12.9h1.3l-5.9,12.9c-0.1,0.3-0.3,0.5-0.6,0.5s-0.5,0.1-0.8-0.1
			c-0.3-0.1-0.4-0.3-0.5-0.5s-0.1-0.5,0-0.7l6.2-13.2C517,276.5,517.4,276.3,517.8,276.3z"/>
		<path d="M535.5,291.7c-1.5,0-2.8-0.3-4-1c-1.2-0.7-2.1-1.6-2.8-2.8c-0.7-1.2-1-2.5-1-4c0-1.5,0.3-2.9,1-4c0.7-1.2,1.6-2.1,2.8-2.8
			c1.2-0.7,2.5-1,4-1c1.5,0,2.8,0.3,4,1c1.2,0.7,2.1,1.6,2.8,2.8c0.7,1.2,1,2.5,1,4c0,1.5-0.3,2.8-1,4c-0.7,1.2-1.6,2.1-2.8,2.8
			C538.4,291.4,537,291.7,535.5,291.7z M535.5,289.8c1.1,0,2.1-0.3,2.9-0.8c0.9-0.5,1.5-1.2,2-2.1c0.5-0.9,0.7-1.9,0.7-3
			c0-1.1-0.2-2.1-0.7-3c-0.5-0.9-1.2-1.6-2-2.1c-0.9-0.5-1.8-0.8-2.9-0.8c-1.1,0-2.1,0.3-2.9,0.8c-0.9,0.5-1.5,1.2-2,2.1
			c-0.5,0.9-0.7,1.9-0.7,3c0,1.1,0.2,2.1,0.7,3c0.5,0.9,1.2,1.6,2,2.1C533.5,289.5,534.5,289.8,535.5,289.8z"/>
		<path d="M548.6,291.6c-0.3,0-0.6-0.1-0.8-0.3c-0.2-0.2-0.3-0.5-0.3-0.8v-13.2c0-0.3,0.1-0.6,0.3-0.8c0.2-0.2,0.5-0.3,0.8-0.3
			c0.3,0,0.6,0.1,0.8,0.3s0.3,0.5,0.3,0.8v5.3h5.9v0.4c1,0,1.8,0.2,2.6,0.5c0.8,0.4,1.3,0.8,1.8,1.5c0.4,0.6,0.6,1.3,0.6,2.1
			c0,0.9-0.2,1.6-0.6,2.3c-0.4,0.7-1,1.2-1.8,1.5c-0.8,0.4-1.6,0.6-2.6,0.6H548.6z M552.8,283.9v-1.2h2.8c0.7,0,1.2-0.2,1.6-0.6
			c0.4-0.4,0.6-1,0.6-1.7c0-0.6-0.2-1.1-0.7-1.5c-0.4-0.4-1-0.6-1.7-0.6h-6.8v-2h6.8c0.9,0,1.6,0.2,2.3,0.5c0.7,0.3,1.2,0.8,1.6,1.4
			c0.4,0.6,0.6,1.3,0.6,2.1c0,1.2-0.4,2.1-1.2,2.7c-0.8,0.6-1.8,0.9-3.1,0.9H552.8z M549.7,289.6h5.9c0.8,0,1.5-0.2,2.1-0.6
			c0.5-0.4,0.8-1,0.8-1.8c0-0.8-0.3-1.5-0.8-1.9c-0.5-0.4-1.2-0.7-2.1-0.7h-5.9V289.6z"/>
		<path d="M571.2,291.7c-1.5,0-2.8-0.3-4-1c-1.2-0.7-2.1-1.6-2.8-2.8c-0.7-1.2-1-2.5-1-4c0-1.5,0.3-2.9,1-4c0.7-1.2,1.6-2.1,2.8-2.8
			c1.2-0.7,2.5-1,4-1c1.5,0,2.8,0.3,4,1c1.2,0.7,2.1,1.6,2.8,2.8c0.7,1.2,1,2.5,1,4c0,1.5-0.3,2.8-1,4c-0.7,1.2-1.6,2.1-2.8,2.8
			C574,291.4,572.7,291.7,571.2,291.7z M571.2,289.8c1.1,0,2.1-0.3,2.9-0.8c0.9-0.5,1.5-1.2,2-2.1c0.5-0.9,0.7-1.9,0.7-3
			c0-1.1-0.2-2.1-0.7-3c-0.5-0.9-1.2-1.6-2-2.1c-0.9-0.5-1.8-0.8-2.9-0.8c-1.1,0-2.1,0.3-2.9,0.8c-0.9,0.5-1.5,1.2-2,2.1
			c-0.5,0.9-0.7,1.9-0.7,3c0,1.1,0.2,2.1,0.7,3c0.5,0.9,1.2,1.6,2,2.1C569.2,289.5,570.1,289.8,571.2,289.8z"/>
		<path d="M591.3,298.3c-0.4,0-0.8,0-1.2-0.2c-0.4-0.1-0.8-0.3-1.2-0.5c-0.3-0.2-0.5-0.4-0.6-0.7s0-0.6,0.2-0.8
			c0.2-0.2,0.4-0.4,0.7-0.4c0.3,0,0.6,0.1,0.9,0.2c0.2,0.1,0.4,0.2,0.6,0.3c0.2,0.1,0.4,0.1,0.7,0.1c0.6,0,1.2-0.3,1.8-0.9
			c0.6-0.6,1.1-1.4,1.6-2.4l7-16.1c0.1-0.3,0.3-0.5,0.6-0.6s0.5-0.1,0.8,0c0.3,0.1,0.4,0.3,0.5,0.6c0.1,0.3,0.1,0.5-0.1,0.8l-7,16.1
			c-0.6,1.3-1.3,2.4-2.3,3.2C593.3,297.9,592.4,298.3,591.3,298.3z M597.1,291.1c-0.3,0.1-0.5,0.2-0.8,0.1c-0.2-0.1-0.4-0.3-0.6-0.5
			l-6.2-12.9c-0.1-0.3-0.1-0.5-0.1-0.8s0.3-0.4,0.6-0.6c0.3-0.1,0.5-0.2,0.8-0.1c0.2,0.1,0.4,0.3,0.6,0.5l6.2,12.9
			c0.1,0.3,0.2,0.6,0.1,0.8C597.6,290.8,597.4,291,597.1,291.1z"/>
		<path d="M615.6,291.6c-0.3,0-0.6-0.1-0.8-0.3c-0.2-0.2-0.3-0.5-0.3-0.8v-5.7H612l-4.7,6.4c-0.2,0.2-0.4,0.3-0.7,0.3
			c-0.3,0-0.6-0.1-0.7-0.3c-0.2-0.2-0.3-0.4-0.3-0.7c0-0.2,0.1-0.5,0.2-0.7l4.5-6.1l-3.9-5.9c-0.2-0.2-0.2-0.5-0.2-0.7
			s0.1-0.5,0.3-0.7c0.2-0.2,0.4-0.2,0.7-0.2c0.3,0,0.5,0.1,0.7,0.4l4.2,6.4h2.5v-5.6c0-0.3,0.1-0.6,0.3-0.8c0.2-0.2,0.5-0.3,0.8-0.3
			s0.6,0.1,0.8,0.3c0.2,0.2,0.3,0.5,0.3,0.8v5.6h2.5l4.2-6.4c0.2-0.2,0.4-0.3,0.7-0.4c0.3,0,0.5,0.1,0.7,0.2
			c0.2,0.2,0.3,0.4,0.3,0.7s-0.1,0.5-0.2,0.7l-3.9,5.9l4.5,6.1c0.1,0.2,0.2,0.5,0.3,0.7c0,0.2-0.1,0.5-0.3,0.7
			c-0.2,0.2-0.4,0.3-0.7,0.3c-0.3,0-0.5-0.1-0.7-0.3l-4.7-6.4h-2.5v5.7c0,0.3-0.1,0.6-0.3,0.8C616.1,291.5,615.9,291.6,615.6,291.6z
			"/>
		<path d="M636,291.7c-1.5,0-2.9-0.3-4-1c-1.2-0.7-2.1-1.6-2.7-2.8c-0.7-1.2-1-2.5-1-4c0-1.5,0.3-2.9,0.9-4c0.6-1.2,1.5-2.1,2.6-2.8
			c1.1-0.7,2.4-1,3.8-1c1.4,0,2.7,0.3,3.7,1c1.1,0.6,1.9,1.5,2.5,2.7c0.6,1.1,0.9,2.4,0.9,3.9c0,0.3-0.1,0.5-0.3,0.7
			c-0.2,0.2-0.4,0.3-0.7,0.3h-11.9v-1.8h12.1l-1.2,0.9c0-1.1-0.2-2.1-0.6-2.9c-0.4-0.9-1-1.5-1.8-2s-1.7-0.7-2.7-0.7
			c-1.1,0-2,0.3-2.8,0.8c-0.8,0.5-1.4,1.2-1.9,2.1s-0.7,1.9-0.7,3s0.2,2.1,0.7,3c0.5,0.9,1.2,1.6,2,2.1c0.9,0.5,1.8,0.8,3,0.8
			c0.7,0,1.3-0.1,2-0.3c0.7-0.2,1.2-0.5,1.6-0.9c0.2-0.2,0.4-0.3,0.7-0.3c0.3,0,0.5,0.1,0.7,0.2c0.2,0.2,0.4,0.5,0.4,0.7
			c0,0.3-0.1,0.5-0.3,0.7c-0.6,0.5-1.4,1-2.4,1.3S636.9,291.7,636,291.7z"/>
		<path d="M655.6,291.6c-0.3,0-0.6-0.1-0.8-0.3c-0.2-0.2-0.3-0.5-0.3-0.8v-13.2c0-0.3,0.1-0.6,0.3-0.8c0.2-0.2,0.5-0.3,0.8-0.3
			c0.3,0,0.6,0.1,0.8,0.3s0.3,0.5,0.3,0.8v5.3h5.9v0.4c1,0,1.8,0.2,2.6,0.5c0.8,0.4,1.3,0.8,1.8,1.5c0.4,0.6,0.6,1.3,0.6,2.1
			c0,0.9-0.2,1.6-0.6,2.3c-0.4,0.7-1,1.2-1.8,1.5c-0.8,0.4-1.6,0.6-2.6,0.6H655.6z M659.8,283.9v-1.2h2.8c0.7,0,1.2-0.2,1.6-0.6
			c0.4-0.4,0.6-1,0.6-1.7c0-0.6-0.2-1.1-0.7-1.5c-0.4-0.4-1-0.6-1.7-0.6h-6.8v-2h6.8c0.9,0,1.6,0.2,2.3,0.5c0.7,0.3,1.2,0.8,1.6,1.4
			c0.4,0.6,0.6,1.3,0.6,2.1c0,1.2-0.4,2.1-1.2,2.7c-0.8,0.6-1.8,0.9-3.1,0.9H659.8z M656.6,289.6h5.9c0.8,0,1.5-0.2,2.1-0.6
			c0.5-0.4,0.8-1,0.8-1.8c0-0.8-0.3-1.5-0.8-1.9c-0.5-0.4-1.2-0.7-2.1-0.7h-5.9V289.6z"/>
		<path d="M680.5,291.6c-0.3,0-0.6-0.1-0.8-0.3c-0.2-0.2-0.3-0.5-0.3-0.8v-13.2c0-0.3,0.1-0.6,0.3-0.8c0.2-0.2,0.5-0.3,0.8-0.3
			c0.3,0,0.6,0.1,0.8,0.3s0.3,0.5,0.3,0.8v13.2c0,0.3-0.1,0.6-0.3,0.8S680.8,291.6,680.5,291.6z M692.5,291.6
			c-0.3,0-0.6-0.1-0.8-0.3c-0.2-0.2-0.3-0.5-0.3-0.8v-7.3c0-1.2-0.2-2.1-0.7-2.9c-0.4-0.7-1-1.3-1.8-1.7c-0.8-0.4-1.6-0.6-2.6-0.6
			c-0.9,0-1.7,0.2-2.5,0.5c-0.7,0.4-1.3,0.8-1.8,1.5c-0.4,0.6-0.6,1.3-0.6,2.1H680c0-1.2,0.4-2.2,1-3.2s1.4-1.7,2.4-2.2
			c1-0.5,2.1-0.8,3.3-0.8c1.3,0,2.5,0.3,3.6,0.8c1,0.6,1.9,1.4,2.5,2.4c0.6,1.1,0.9,2.4,0.9,3.9v7.3c0,0.3-0.1,0.6-0.3,0.8
			C693.1,291.5,692.8,291.6,692.5,291.6z"/>
		<path d="M699.5,298.2c-0.3,0-0.6-0.1-0.8-0.3c-0.2-0.2-0.3-0.5-0.3-0.8v-13.2c0-1.5,0.4-2.8,1.1-3.9c0.7-1.2,1.6-2.1,2.8-2.8
			c1.2-0.7,2.5-1,3.9-1c1.5,0,2.8,0.3,4,1c1.2,0.7,2.1,1.6,2.8,2.8c0.7,1.2,1,2.5,1,4c0,1.5-0.3,2.8-1,4c-0.7,1.2-1.6,2.1-2.7,2.8
			s-2.4,1-3.9,1c-1.3,0-2.4-0.3-3.4-0.8s-1.8-1.2-2.5-2.1v8.2c0,0.3-0.1,0.6-0.3,0.8S699.8,298.2,699.5,298.2z M706.1,289.8
			c1.1,0,2.1-0.3,2.9-0.8c0.9-0.5,1.5-1.2,2-2.1s0.7-1.9,0.7-3c0-1.1-0.2-2.1-0.7-3c-0.5-0.9-1.2-1.6-2-2.1
			c-0.9-0.5-1.8-0.8-2.9-0.8c-1.1,0-2,0.3-2.9,0.8s-1.5,1.2-2,2.1c-0.5,0.9-0.7,1.9-0.7,3c0,1.1,0.2,2.1,0.7,3s1.2,1.6,2,2.1
			S705.1,289.8,706.1,289.8z"/>
		<path d="M724.8,291.8c-1.3,0-2.5-0.3-3.6-0.8c-1-0.5-1.9-1.4-2.5-2.4c-0.6-1.1-0.9-2.4-0.9-3.9v-7.3c0-0.3,0.1-0.6,0.3-0.8
			s0.5-0.3,0.8-0.3c0.3,0,0.6,0.1,0.8,0.3s0.3,0.5,0.3,0.8v7.3c0,1.2,0.2,2.1,0.7,2.9c0.4,0.7,1,1.3,1.8,1.7
			c0.8,0.4,1.6,0.6,2.6,0.6c0.9,0,1.7-0.2,2.5-0.5c0.7-0.4,1.3-0.8,1.8-1.5s0.6-1.3,0.6-2.1h1.5c-0.1,1.2-0.4,2.2-1,3.1
			c-0.6,0.9-1.4,1.7-2.4,2.2C727.1,291.5,726,291.8,724.8,291.8z M731,291.6c-0.3,0-0.6-0.1-0.8-0.3c-0.2-0.2-0.3-0.5-0.3-0.8v-13.2
			c0-0.3,0.1-0.6,0.3-0.8c0.2-0.2,0.5-0.3,0.8-0.3s0.6,0.1,0.8,0.3s0.3,0.5,0.3,0.8v13.2c0,0.3-0.1,0.6-0.3,0.8
			S731.3,291.6,731,291.6z"/>
		<path d="M742.8,276.3c0.2,0,0.4,0.1,0.6,0.2s0.3,0.3,0.4,0.6l6.1,13.2c0.1,0.3,0.1,0.5,0,0.7s-0.3,0.4-0.5,0.5
			c-0.3,0.1-0.6,0.2-0.8,0.1c-0.2-0.1-0.4-0.3-0.6-0.5l-5.8-12.9h1.3l-5.9,12.9c-0.1,0.3-0.3,0.5-0.6,0.5s-0.5,0.1-0.8-0.1
			c-0.3-0.1-0.4-0.3-0.5-0.5s-0.1-0.5,0-0.7l6.2-13.2C742,276.5,742.4,276.3,742.8,276.3z"/>
		<path d="M760.5,291.7c-1.5,0-2.8-0.3-4-1c-1.2-0.7-2.1-1.6-2.8-2.8c-0.7-1.2-1-2.5-1-4c0-1.5,0.3-2.9,1-4c0.7-1.2,1.6-2.1,2.8-2.8
			c1.2-0.7,2.5-1,4-1c1.5,0,2.8,0.3,4,1c1.2,0.7,2.1,1.6,2.8,2.8c0.7,1.2,1,2.5,1,4c0,1.5-0.3,2.8-1,4c-0.7,1.2-1.6,2.1-2.8,2.8
			C763.4,291.4,762,291.7,760.5,291.7z M760.5,289.8c1.1,0,2.1-0.3,2.9-0.8c0.9-0.5,1.5-1.2,2-2.1c0.5-0.9,0.7-1.9,0.7-3
			c0-1.1-0.2-2.1-0.7-3c-0.5-0.9-1.2-1.6-2-2.1c-0.9-0.5-1.8-0.8-2.9-0.8c-1.1,0-2.1,0.3-2.9,0.8c-0.9,0.5-1.5,1.2-2,2.1
			c-0.5,0.9-0.7,1.9-0.7,3c0,1.1,0.2,2.1,0.7,3c0.5,0.9,1.2,1.6,2,2.1C758.5,289.5,759.5,289.8,760.5,289.8z"/>
		<path d="M781,291.6c-0.3,0-0.6-0.1-0.8-0.3c-0.2-0.2-0.3-0.5-0.3-0.8v-5.7h-2.5l-4.7,6.4c-0.2,0.2-0.4,0.3-0.7,0.3
			c-0.3,0-0.6-0.1-0.7-0.3c-0.2-0.2-0.3-0.4-0.3-0.7c0-0.2,0.1-0.5,0.2-0.7l4.5-6.1l-3.9-5.9c-0.2-0.2-0.2-0.5-0.2-0.7
			s0.1-0.5,0.3-0.7c0.2-0.2,0.4-0.2,0.7-0.2c0.3,0,0.5,0.1,0.7,0.4l4.2,6.4h2.5v-5.6c0-0.3,0.1-0.6,0.3-0.8c0.2-0.2,0.5-0.3,0.8-0.3
			s0.6,0.1,0.8,0.3c0.2,0.2,0.3,0.5,0.3,0.8v5.6h2.5l4.2-6.4c0.2-0.2,0.4-0.3,0.7-0.4c0.3,0,0.5,0.1,0.7,0.2
			c0.2,0.2,0.3,0.4,0.3,0.7s-0.1,0.5-0.2,0.7l-3.9,5.9l4.5,6.1c0.1,0.2,0.2,0.5,0.3,0.7c0,0.2-0.1,0.5-0.3,0.7
			c-0.2,0.2-0.4,0.3-0.7,0.3c-0.3,0-0.5-0.1-0.7-0.3l-4.7-6.4h-2.5v5.7c0,0.3-0.1,0.6-0.3,0.8C781.6,291.5,781.3,291.6,781,291.6z"
			/>
		<path d="M801.5,291.7c-1.5,0-2.9-0.3-4-1c-1.2-0.7-2.1-1.6-2.7-2.8c-0.7-1.2-1-2.5-1-4c0-1.5,0.3-2.9,0.9-4
			c0.6-1.2,1.5-2.1,2.6-2.8c1.1-0.7,2.4-1,3.8-1c1.4,0,2.7,0.3,3.7,1c1.1,0.6,1.9,1.5,2.5,2.7c0.6,1.1,0.9,2.4,0.9,3.9
			c0,0.3-0.1,0.5-0.3,0.7c-0.2,0.2-0.4,0.3-0.7,0.3h-11.9v-1.8h12.1l-1.2,0.9c0-1.1-0.2-2.1-0.6-2.9c-0.4-0.9-1-1.5-1.8-2
			s-1.7-0.7-2.7-0.7c-1.1,0-2,0.3-2.8,0.8c-0.8,0.5-1.4,1.2-1.9,2.1s-0.7,1.9-0.7,3s0.2,2.1,0.7,3c0.5,0.9,1.2,1.6,2,2.1
			c0.9,0.5,1.8,0.8,3,0.8c0.7,0,1.3-0.1,2-0.3c0.7-0.2,1.2-0.5,1.6-0.9c0.2-0.2,0.4-0.3,0.7-0.3c0.3,0,0.5,0.1,0.7,0.2
			c0.2,0.2,0.4,0.5,0.4,0.7c0,0.3-0.1,0.5-0.3,0.7c-0.6,0.5-1.4,1-2.4,1.3S802.4,291.7,801.5,291.7z"/>
		<path d="M812.8,291.6c-0.3,0-0.6-0.1-0.8-0.3c-0.2-0.2-0.3-0.5-0.3-0.8v-13.1c0-0.3,0.1-0.6,0.3-0.8c0.2-0.2,0.5-0.3,0.8-0.3
			s0.6,0.1,0.8,0.3c0.2,0.2,0.3,0.5,0.3,0.8v13.1c0,0.3-0.1,0.6-0.3,0.8C813.4,291.5,813.1,291.6,812.8,291.6z M813.5,284.9v-1.9h11
			v1.9H813.5z M824.8,291.6c-0.3,0-0.6-0.1-0.8-0.3s-0.3-0.5-0.3-0.8v-13.1c0-0.3,0.1-0.6,0.3-0.8s0.5-0.3,0.8-0.3s0.6,0.1,0.8,0.3
			s0.3,0.5,0.3,0.8v13.1c0,0.3-0.1,0.6-0.3,0.8S825.2,291.6,824.8,291.6z"/>
		<path d="M837.6,291.8c-1.3,0-2.5-0.3-3.6-0.8c-1-0.5-1.9-1.4-2.5-2.4c-0.6-1.1-0.9-2.4-0.9-3.9v-7.3c0-0.3,0.1-0.6,0.3-0.8
			s0.5-0.3,0.8-0.3c0.3,0,0.6,0.1,0.8,0.3s0.3,0.5,0.3,0.8v7.3c0,1.2,0.2,2.1,0.7,2.9c0.4,0.7,1,1.3,1.8,1.7
			c0.8,0.4,1.6,0.6,2.6,0.6c0.9,0,1.7-0.2,2.5-0.5c0.7-0.4,1.3-0.8,1.8-1.5s0.6-1.3,0.6-2.1h1.5c-0.1,1.2-0.4,2.2-1,3.1
			c-0.6,0.9-1.4,1.7-2.4,2.2C839.9,291.5,838.8,291.8,837.6,291.8z M843.7,291.6c-0.3,0-0.6-0.1-0.8-0.3c-0.2-0.2-0.3-0.5-0.3-0.8
			v-13.2c0-0.3,0.1-0.6,0.3-0.8c0.2-0.2,0.5-0.3,0.8-0.3s0.6,0.1,0.8,0.3s0.3,0.5,0.3,0.8v13.2c0,0.3-0.1,0.6-0.3,0.8
			S844.1,291.6,843.7,291.6z"/>
		<path d="M856.5,291.8c-1.3,0-2.5-0.3-3.6-0.8c-1-0.5-1.9-1.4-2.5-2.4c-0.6-1.1-0.9-2.4-0.9-3.9v-7.3c0-0.3,0.1-0.6,0.3-0.8
			s0.5-0.3,0.8-0.3c0.3,0,0.6,0.1,0.8,0.3s0.3,0.5,0.3,0.8v7.3c0,1.2,0.2,2.1,0.7,2.9c0.4,0.7,1,1.3,1.8,1.7
			c0.8,0.4,1.6,0.6,2.6,0.6c0.9,0,1.7-0.2,2.5-0.5c0.7-0.4,1.3-0.8,1.8-1.5s0.6-1.3,0.6-2.1h1.5c-0.1,1.2-0.4,2.2-1,3.1
			c-0.6,0.9-1.4,1.7-2.4,2.2C858.8,291.5,857.7,291.8,856.5,291.8z M862.7,291.6c-0.3,0-0.6-0.1-0.8-0.3c-0.2-0.2-0.3-0.5-0.3-0.8
			v-13.2c0-0.3,0.1-0.6,0.3-0.8c0.2-0.2,0.5-0.3,0.8-0.3s0.6,0.1,0.8,0.3s0.3,0.5,0.3,0.8v13.2c0,0.3-0.1,0.6-0.3,0.8
			S863,291.6,862.7,291.6z"/>
	</g>
</g>
</svg>
