<?xml version="1.0" encoding="UTF-8"?>
<svg width="426px" height="535px" viewBox="0 0 426 535" version="1.1" xmlns="http://www.w3.org/2000/svg" xmlns:xlink="http://www.w3.org/1999/xlink">
    <!-- Generator: Sketch 53.2 (72643) - https://sketchapp.com -->
    <title>5.4</title>
    <desc>Created with Sketch.</desc>
    <defs>
        <rect id="path-1" x="0" y="0.99796334" width="250" height="489.002037" rx="40"></rect>
        <filter x="-14.8%" y="-6.7%" width="128.8%" height="114.7%" filterUnits="objectBoundingBox" id="filter-2">
            <feMorphology radius="3" operator="dilate" in="SourceAlpha" result="shadowSpreadOuter1"></feMorphology>
            <feOffset dx="-1" dy="3" in="shadowSpreadOuter1" result="shadowOffsetOuter1"></feOffset>
            <feGaussianBlur stdDeviation="8.5" in="shadowOffsetOuter1" result="shadowBlurOuter1"></feGaussianBlur>
            <feColorMatrix values="0 0 0 0 0.368526519   0 0 0 0 0.489322469   0 0 0 0 0.582257699  0 0 0 0.348776224 0" type="matrix" in="shadowBlurOuter1"></feColorMatrix>
        </filter>
        <path d="M0,335 L250,335 L250,446 C250,470.300529 230.300529,490 206,490 L44,490 C19.699471,490 2.9759565e-15,470.300529 0,446 L0,335 Z" id="path-3"></path>
        <filter x="-3.6%" y="-3.9%" width="107.2%" height="111.6%" filterUnits="objectBoundingBox" id="filter-4">
            <feMorphology radius="2" operator="erode" in="SourceAlpha" result="shadowSpreadOuter1"></feMorphology>
            <feOffset dx="0" dy="3" in="shadowSpreadOuter1" result="shadowOffsetOuter1"></feOffset>
            <feGaussianBlur stdDeviation="4.5" in="shadowOffsetOuter1" result="shadowBlurOuter1"></feGaussianBlur>
            <feColorMatrix values="0 0 0 0 0.695560213   0 0 0 0 0.839430633   0 0 0 0 1  0 0 0 0.39682583 0" type="matrix" in="shadowBlurOuter1"></feColorMatrix>
        </filter>
        <rect id="path-5" x="0" y="0" width="220" height="70" rx="27"></rect>
        <filter x="-3.2%" y="-7.1%" width="106.4%" height="120.0%" filterUnits="objectBoundingBox" id="filter-6">
            <feMorphology radius="1.5" operator="erode" in="SourceAlpha" result="shadowSpreadOuter1"></feMorphology>
            <feOffset dx="0" dy="2" in="shadowSpreadOuter1" result="shadowOffsetOuter1"></feOffset>
            <feGaussianBlur stdDeviation="3.5" in="shadowOffsetOuter1" result="shadowBlurOuter1"></feGaussianBlur>
            <feColorMatrix values="0 0 0 0 0.666535488   0 0 0 0 0.764391284   0 0 0 0 0.823228034  0 0 0 1 0" type="matrix" in="shadowBlurOuter1"></feColorMatrix>
        </filter>
    </defs>
    <g id="Page-3" stroke="none" stroke-width="1" fill="none" fill-rule="evenodd">
        <g id="5.4" transform="translate(-22.000000, 19.000000)">
            <path d="M153.82945,474.709044 L149.343475,475.111782 C148.639356,466.626673 146.912363,458.816235 144.162495,451.680467 C136.426687,431.606441 100.659815,433.772181 74.643345,401.094336 C48.6268752,368.41649 32.1777136,351.373552 40.6966175,353.874685 C63.6595987,360.616571 104.075205,382.167502 127.6486,411.140443 C138.720893,424.748872 146.540717,439.268194 151.108074,454.698407 C148.397034,431.239289 142.588442,396.225342 118.116176,388.239405 C81.4556303,376.276115 69.5140137,331.864735 55.270838,319.734412 C41.0276623,307.604089 19.525653,306.174901 28.4538538,302.487429 C42.5475571,296.666531 113.650322,316.802845 132.87428,359.962543 C138.497194,372.586544 143.151458,388.090824 146.791956,403.621239 C145.956764,397.125274 145.161383,391.475383 144.405811,386.671553 C137.265554,341.274732 126.317126,328.946103 126.317126,289.741475 C126.317126,248.53717 142.097535,266.030905 161.254322,192.688207 C163.9942,182.198446 180.287661,211.150767 175.412801,278.691899 C173.193477,309.440613 156.526991,349.891239 154.439856,395.500315 C153.678646,412.134635 160.556363,441.514734 161.254322,474.8709 C161.27213,475.721966 159.503543,475.821622 155.948563,475.169868 C155.686946,476.296994 155.296927,476.739422 154.776722,476.384481 C154.41715,476.13914 154.107083,475.566557 153.82945,474.709044 Z" id="Combined-Shape-Copy-8" fill="#E6EAFF" transform="translate(101.333683, 333.549053) rotate(-11.000000) translate(-101.333683, -333.549053) "></path>
            <g id="Group-8" transform="translate(176.000000, 0.000000)">
                <g id="Rectangle">
                    <use fill="black" fill-opacity="1" filter="url(#filter-2)" xlink:href="#path-1"></use>
                    <use fill="#F6FAFF" fill-rule="evenodd" xlink:href="#path-1"></use>
                </g>
                <g id="Rectangle-Copy-3">
                    <use fill="black" fill-opacity="1" filter="url(#filter-4)" xlink:href="#path-3"></use>
                    <use fill="#FFFFFF" fill-rule="evenodd" xlink:href="#path-3"></use>
                </g>
                <g id="next" transform="translate(169.000000, 411.000000)">
                    <ellipse id="Oval-Copy-4" stroke="#6CD8FF" stroke-width="2" cx="25.9538409" cy="25.2883578" rx="24.9538409" ry="24.2883578"></ellipse>
                    <path d="M9.816,31.496 C9.58133216,31.496 9.38666744,31.4160008 9.232,31.256 C9.07733256,31.0959992 9,30.8986678 9,30.664 L9,19.832 C9,19.5866654 9.07733256,19.3866674 9.232,19.232 C9.38666744,19.0773326 9.58133216,19 9.816,19 C10.0720013,19 10.2853325,19.1013323 10.456,19.304 L17.432,28.584 L17.432,19.832 C17.432,19.5866654 17.5119992,19.3866674 17.672,19.232 C17.8320008,19.0773326 18.0293322,19 18.264,19 C18.5093346,19 18.7066659,19.0773326 18.856,19.232 C19.0053341,19.3866674 19.08,19.5866654 19.08,19.832 L19.08,30.664 C19.08,30.8986678 19.0053341,31.0959992 18.856,31.256 C18.7066659,31.4160008 18.5093346,31.496 18.264,31.496 C18.1573328,31.496 18.0426673,31.4720002 17.92,31.424 C17.7973327,31.3759998 17.698667,31.3040005 17.624,31.208 L10.648,21.928 L10.648,30.664 C10.648,30.8986678 10.5706674,31.0959992 10.416,31.256 C10.2613326,31.4160008 10.0613346,31.496 9.816,31.496 Z M22.7136258,26.408 L28.0427468,26.408 C27.9957284,26.0516713 27.9001465,25.723673 27.756,25.424 C27.5533323,25.0026646 27.2653352,24.6693346 26.892,24.424 C26.5186648,24.1786654 26.065336,24.056 25.532,24.056 C24.923997,24.056 24.4040022,24.189332 23.972,24.456 C23.5399978,24.722668 23.2120011,25.0879977 22.988,25.552 C22.8599308,25.8172862 22.768473,26.1026185 22.7136258,26.408 L22.7136258,26.408 Z M22.6955772,27.688 C22.7545429,28.0527237 22.8733501,28.3887221 23.052,28.696 C23.318668,29.154669 23.6866643,29.517332 24.156,29.784 C24.6253357,30.050668 25.163997,30.184 25.772,30.184 C26.1026683,30.184 26.4413316,30.1226673 26.788,30 C27.1346684,29.8773327 27.4146656,29.7360008 27.628,29.576 C27.7880008,29.4586661 27.9613324,29.3973334 28.148,29.392 C28.3346676,29.3866666 28.4973326,29.4426661 28.636,29.56 C28.8173342,29.7200008 28.9133333,29.895999 28.924,30.088 C28.9346667,30.280001 28.8493342,30.4453326 28.668,30.584 C28.3053315,30.8720014 27.8546694,31.1066658 27.316,31.288 C26.7773306,31.4693342 26.2626691,31.56 25.772,31.56 C24.8866622,31.56 24.1000034,31.3706686 23.412,30.992 C22.7239966,30.6133314 22.1853353,30.09067 21.796,29.424 C21.4066647,28.75733 21.212,27.9920043 21.212,27.128 C21.212,26.253329 21.3959982,25.48267 21.764,24.816 C22.1320018,24.14933 22.6413301,23.6266686 23.292,23.248 C23.9426699,22.8693314 24.6893291,22.68 25.532,22.68 C26.3640042,22.68 27.0786637,22.8639982 27.676,23.232 C28.2733363,23.6000018 28.7293318,24.1066634 29.044,24.752 C29.3586682,25.3973366 29.516,26.1413291 29.516,26.984 C29.516,27.1866677 29.4466674,27.354666 29.308,27.488 C29.1693326,27.621334 28.9933344,27.688 28.78,27.688 L22.6955772,27.688 L22.6955772,27.688 Z M36.8,31.496 C36.6933328,31.496 36.5920005,31.4800002 36.496,31.448 C36.3999995,31.4159998 36.3093337,31.3466672 36.224,31.24 L33.424,27.88 L32.848,27.304 L30.064,24.008 C29.9253326,23.8373325 29.8506667,23.6533343 29.84,23.456 C29.8293333,23.2586657 29.8826661,23.0906674 30,22.952 C30.1173339,22.8133326 30.2933321,22.744 30.528,22.744 C30.7840013,22.744 30.9866659,22.8346658 31.136,23.016 L33.872,26.28 L34.288,26.664 L37.296,30.264 C37.4560008,30.456001 37.5333333,30.6453324 37.528,30.832 C37.5226666,31.0186676 37.453334,31.1759994 37.32,31.304 C37.186666,31.4320006 37.0133344,31.496 36.8,31.496 Z M30.688,31.496 C30.4746656,31.496 30.3066673,31.429334 30.184,31.296 C30.0613327,31.162666 30,31.000001 30,30.808 C30,30.615999 30.0746659,30.424001 30.224,30.232 L32.944,26.824 L33.808,28.04 L31.264,31.24 C31.1039992,31.4106675 30.9120011,31.496 30.688,31.496 Z M34.64,27.384 L33.536,26.44 L36.112,23.016 C36.1973337,22.9093328 36.2879995,22.8373335 36.384,22.8 C36.4800005,22.7626665 36.5866661,22.744 36.704,22.744 C36.9386678,22.744 37.1146661,22.8159993 37.232,22.96 C37.3493339,23.1040007 37.4053333,23.2773323 37.4,23.48 C37.3946666,23.6826677 37.3173341,23.879999 37.168,24.072 L34.64,27.384 Z M42.292,31.496 C41.758664,31.496 41.2786688,31.3600014 40.852,31.088 C40.4253312,30.8159986 40.0893345,30.4453357 39.844,29.976 C39.5986654,29.5066643 39.476,28.9786696 39.476,28.392 L39.476,20.76 C39.476,20.5253322 39.5506659,20.3333341 39.7,20.184 C39.8493341,20.0346659 40.0413321,19.96 40.276,19.96 C40.5106678,19.96 40.7026659,20.0346659 40.852,20.184 C41.0013341,20.3333341 41.076,20.5253322 41.076,20.76 L41.076,28.392 C41.076,28.8186688 41.1933321,29.1759986 41.428,29.464 C41.6626678,29.7520014 41.9506649,29.896 42.292,29.896 L42.836,29.896 C43.0280009,29.896 43.190666,29.9706659 43.324,30.12 C43.457334,30.2693341 43.524,30.4613322 43.524,30.696 C43.524,30.9306678 43.4360009,31.1226659 43.26,31.272 C43.0839991,31.4213341 42.8573347,31.496 42.58,31.496 L42.292,31.496 Z M38.74,24.44 C38.5159989,24.44 38.3346673,24.3760006 38.196,24.248 C38.0573326,24.1199994 37.988,23.960001 37.988,23.768 C37.988,23.5546656 38.0573326,23.3840006 38.196,23.256 C38.3346673,23.1279994 38.5159989,23.064 38.74,23.064 L42.436,23.064 C42.6600011,23.064 42.8413326,23.1279994 42.98,23.256 C43.1186673,23.3840006 43.188,23.5546656 43.188,23.768 C43.188,23.960001 43.1186673,24.1199994 42.98,24.248 C42.8413326,24.3760006 42.6600011,24.44 42.436,24.44 L38.74,24.44 Z" id="Next" fill="#6CD8FF" fill-rule="nonzero"></path>
                </g>
                <g id="give-up" transform="translate(32.000000, 411.000000)">
                    <ellipse id="Oval-Copy-5" stroke="#6CD8FF" stroke-width="2" cx="26.108414" cy="25.4252489" rx="25.108414" ry="24.4252489"></ellipse>
                    <path d="M16.176,24.816 C15.3119957,24.816 14.5040038,24.653335 13.752,24.328 C12.9999962,24.002665 12.3440028,23.5493362 11.784,22.968 C11.2239972,22.3866638 10.7866682,21.7066706 10.472,20.928 C10.1573318,20.1493294 10,19.3066712 10,18.4 C10,17.5039955 10.1573318,16.6693372 10.472,15.896 C10.7866682,15.1226628 11.2239972,14.4453362 11.784,13.864 C12.3440028,13.2826638 12.9973296,12.8266683 13.744,12.496 C14.4906704,12.1653317 15.301329,12 16.176,12 C16.9973374,12 17.703997,12.1066656 18.296,12.32 C18.888003,12.5333344 19.4826637,12.8853309 20.08,13.376 C20.1653338,13.4400003 20.2319998,13.5066663 20.28,13.576 C20.3280002,13.6453337 20.3599999,13.7146663 20.376,13.784 C20.3920001,13.8533337 20.4,13.9359995 20.4,14.032 C20.4,14.2346677 20.3280007,14.4053326 20.184,14.544 C20.0399993,14.6826674 19.864001,14.7573333 19.656,14.768 C19.447999,14.7786667 19.2533342,14.7093341 19.072,14.56 C18.6773314,14.218665 18.2693354,13.9573342 17.848,13.776 C17.4266646,13.5946658 16.8693368,13.504 16.176,13.504 C15.5466635,13.504 14.9546694,13.6319987 14.4,13.888 C13.8453306,14.1440013 13.3573354,14.4959978 12.936,14.944 C12.5146646,15.3920022 12.1866678,15.911997 11.952,16.504 C11.7173322,17.096003 11.6,17.7279966 11.6,18.4 C11.6,19.0826701 11.7173322,19.719997 11.952,20.312 C12.1866678,20.904003 12.5146646,21.4239978 12.936,21.872 C13.3573354,22.3200022 13.8453306,22.6693321 14.4,22.92 C14.9546694,23.1706679 15.5466635,23.296 16.176,23.296 C16.7200027,23.296 17.2346642,23.2026676 17.72,23.016 C18.2053358,22.8293324 18.6719978,22.5706683 19.12,22.24 C19.312001,22.1013326 19.5013324,22.0399999 19.688,22.056 C19.8746676,22.0720001 20.0319994,22.146666 20.16,22.28 C20.2880006,22.413334 20.352,22.5973322 20.352,22.832 C20.352,22.9386672 20.3333335,23.0426662 20.296,23.144 C20.2586665,23.2453338 20.1920005,23.3386662 20.096,23.424 C19.5306638,23.8933357 18.9173366,24.2426655 18.256,24.472 C17.5946634,24.7013345 16.901337,24.816 16.176,24.816 Z M20.352,22.832 L18.752,22.512 L18.752,19.648 L16.544,19.648 C16.3093322,19.648 16.1120008,19.5786674 15.952,19.44 C15.7919992,19.3013326 15.712,19.1253344 15.712,18.912 C15.712,18.6986656 15.7919992,18.5226674 15.952,18.384 C16.1120008,18.2453326 16.3093322,18.176 16.544,18.176 L19.536,18.176 C19.7813346,18.176 19.9786659,18.2533326 20.128,18.408 C20.2773341,18.5626674 20.352,18.7626654 20.352,19.008 L20.352,22.832 Z M23.364,24.656 C23.1293322,24.656 22.9346674,24.5786674 22.78,24.424 C22.6253326,24.2693326 22.548,24.0746678 22.548,23.84 L22.548,16.72 C22.548,16.4746654 22.6253326,16.2773341 22.78,16.128 C22.9346674,15.9786659 23.1293322,15.904 23.364,15.904 C23.6093346,15.904 23.8066659,15.9786659 23.956,16.128 C24.1053341,16.2773341 24.18,16.4746654 24.18,16.72 L24.18,23.84 C24.18,24.0746678 24.1053341,24.2693326 23.956,24.424 C23.8066659,24.5786674 23.6093346,24.656 23.364,24.656 Z M23.364,14.48 C23.0759986,14.48 22.828001,14.376001 22.62,14.168 C22.411999,13.959999 22.308,13.7120014 22.308,13.424 C22.308,13.1359986 22.411999,12.888001 22.62,12.68 C22.828001,12.471999 23.0759986,12.368 23.364,12.368 C23.6520014,12.368 23.899999,12.471999 24.108,12.68 C24.316001,12.888001 24.42,13.1359986 24.42,13.424 C24.42,13.7120014 24.316001,13.959999 24.108,14.168 C23.899999,14.376001 23.6520014,14.48 23.364,14.48 Z M29.7020507,22.3356751 L32.456,16.336 C32.5520005,16.1546658 32.6986657,16.0320003 32.896,15.968 C33.0933343,15.9039997 33.2933323,15.9199995 33.496,16.016 C33.6880009,16.1013338 33.8159997,16.2346658 33.88,16.416 C33.9440003,16.5973342 33.9333337,16.7786658 33.848,16.96 L30.456,24.112 C30.2959992,24.4640018 30.0506683,24.64 29.72,24.64 C29.3893317,24.64 29.1333342,24.4640018 28.952,24.112 L25.56,16.96 C25.4746662,16.7786658 25.4666663,16.6000009 25.536,16.424 C25.6053337,16.2479991 25.7413323,16.1120005 25.944,16.016 C26.1253342,15.9199995 26.3093324,15.9039997 26.496,15.968 C26.6826676,16.0320003 26.8239995,16.1546658 26.92,16.336 L29.7020507,22.3356751 L29.7020507,22.3356751 Z M35.8016258,19.568 L41.1307468,19.568 C41.0837284,19.2116713 40.9881465,18.883673 40.844,18.584 C40.6413323,18.1626646 40.3533352,17.8293346 39.98,17.584 C39.6066648,17.3386654 39.153336,17.216 38.62,17.216 C38.0119969,17.216 37.4920021,17.349332 37.06,17.616 C36.6279978,17.882668 36.3000011,18.2479977 36.076,18.712 C35.9479308,18.9772862 35.8564729,19.2626185 35.8016258,19.568 Z M35.7835771,20.848 C35.8425428,21.2127237 35.96135,21.5487221 36.14,21.856 C36.406668,22.314669 36.7746643,22.677332 37.244,22.944 C37.7133357,23.210668 38.2519969,23.344 38.86,23.344 C39.1906683,23.344 39.5293316,23.2826673 39.876,23.16 C40.2226684,23.0373327 40.5026656,22.8960008 40.716,22.736 C40.8760008,22.6186661 41.0493324,22.5573334 41.236,22.552 C41.4226676,22.5466666 41.5853326,22.6026661 41.724,22.72 C41.9053342,22.8800008 42.0013333,23.055999 42.012,23.248 C42.0226667,23.440001 41.9373342,23.6053326 41.756,23.744 C41.3933315,24.0320014 40.9426693,24.2666658 40.404,24.448 C39.8653306,24.6293342 39.3506691,24.72 38.86,24.72 C37.9746622,24.72 37.1880034,24.5306686 36.5,24.152 C35.8119965,23.7733314 35.2733353,23.25067 34.884,22.584 C34.4946647,21.91733 34.3,21.1520043 34.3,20.288 C34.3,19.413329 34.4839981,18.64267 34.852,17.976 C35.2200018,17.30933 35.7293301,16.7866686 36.38,16.408 C37.0306699,16.0293314 37.7773291,15.84 38.62,15.84 C39.4520041,15.84 40.1666637,16.0239982 40.764,16.392 C41.3613363,16.7600018 41.8173317,17.2666634 42.132,17.912 C42.4466682,18.5573366 42.604,19.3013291 42.604,20.144 C42.604,20.3466677 42.5346673,20.514666 42.396,20.648 C42.2573326,20.781334 42.0813344,20.848 41.868,20.848 L35.7835771,20.848 L35.7835771,20.848 Z M20.38,38.736 C19.6439963,38.736 18.9853362,38.5786682 18.404,38.264 C17.8226638,37.9493318 17.3640017,37.488003 17.028,36.88 C16.6919983,36.271997 16.524,35.5253378 16.524,34.64 L16.524,30.704 C16.524,30.4693322 16.6013326,30.2746674 16.756,30.12 C16.9106674,29.9653326 17.1053322,29.888 17.34,29.888 C17.5746678,29.888 17.7693326,29.9653326 17.924,30.12 C18.0786674,30.2746674 18.156,30.4693322 18.156,30.704 L18.156,34.64 C18.156,35.2373363 18.2679989,35.7306647 18.492,36.12 C18.7160011,36.5093353 19.0199981,36.7973324 19.404,36.984 C19.7880019,37.1706676 20.2199976,37.264 20.7,37.264 C21.158669,37.264 21.5666649,37.1733342 21.924,36.992 C22.2813351,36.8106658 22.5666656,36.5653349 22.78,36.256 C22.9933344,35.9466651 23.1,35.6000019 23.1,35.216 L24.108,35.216 C24.108,35.8773366 23.945335,36.474664 23.62,37.008 C23.294665,37.541336 22.8520028,37.9626651 22.292,38.272 C21.7319972,38.5813349 21.0946702,38.736 20.38,38.736 Z M23.916,38.656 C23.6813322,38.656 23.4866674,38.5786674 23.332,38.424 C23.1773326,38.2693326 23.1,38.0746678 23.1,37.84 L23.1,30.704 C23.1,30.4586654 23.1773326,30.2613341 23.332,30.112 C23.4866674,29.9626659 23.6813322,29.888 23.916,29.888 C24.1613346,29.888 24.3586659,29.9626659 24.508,30.112 C24.6573341,30.2613341 24.732,30.4586654 24.732,30.704 L24.732,37.84 C24.732,38.0746678 24.6573341,38.2693326 24.508,38.424 C24.3586659,38.5786674 24.1613346,38.656 23.916,38.656 Z M27.968,42.4 C27.7333321,42.4 27.5386674,42.3226674 27.384,42.168 C27.2293325,42.0133326 27.152,41.8186678 27.152,41.584 L27.152,34.288 C27.1626667,33.4453291 27.3599981,32.6880034 27.744,32.016 C28.1280019,31.3439966 28.6506633,30.8133353 29.312,30.424 C29.9733366,30.0346647 30.7199958,29.84 31.552,29.84 C32.3946709,29.84 33.1466633,30.0346647 33.808,30.424 C34.4693366,30.8133353 34.9946647,31.3439966 35.384,32.016 C35.7733353,32.6880034 35.968,33.4453291 35.968,34.288 C35.968,35.1306709 35.7893351,35.88533 35.432,36.552 C35.0746649,37.21867 34.5866697,37.7466647 33.968,38.136 C33.3493302,38.5253353 32.6506705,38.72 31.872,38.72 C31.2426635,38.72 30.6640026,38.5893346 30.136,38.328 C29.6079973,38.0666654 29.1573352,37.7120022 28.784,37.264 L28.784,41.584 C28.784,41.8186678 28.7093341,42.0133326 28.56,42.168 C28.4106659,42.3226674 28.2133345,42.4 27.968,42.4 Z M31.552,37.28 C32.0960027,37.28 32.5813312,37.1493346 33.008,36.888 C33.4346688,36.6266654 33.7733321,36.2693356 34.024,35.816 C34.2746679,35.3626644 34.4,34.8533362 34.4,34.288 C34.4,33.7119971 34.2746679,33.1973356 34.024,32.744 C33.7733321,32.2906644 33.4346688,31.9333346 33.008,31.672 C32.5813312,31.4106654 32.0960027,31.28 31.552,31.28 C31.018664,31.28 30.5360021,31.4106654 30.104,31.672 C29.6719978,31.9333346 29.3333345,32.2906644 29.088,32.744 C28.8426654,33.1973356 28.72,33.7119971 28.72,34.288 C28.72,34.8533362 28.8426654,35.3626644 29.088,35.816 C29.3333345,36.2693356 29.6719978,36.6266654 30.104,36.888 C30.5360021,37.1493346 31.018664,37.28 31.552,37.28 Z" id="Giveup" fill="#6CD8FF" fill-rule="nonzero"></path>
                </g>
                <path d="M47.3300971,399.660194 C34.997525,399.660194 25,389.662669 25,377.330097 C25,364.997525 34.997525,355 47.3300971,355 C59.6626692,355 69.6601942,364.997525 69.6601942,377.330097 C69.6601942,389.662669 59.6626692,399.660194 47.3300971,399.660194 Z M99.433657,399.660194 C87.1010849,399.660194 77.1035599,389.662669 77.1035599,377.330097 C77.1035599,364.997525 87.1010849,355 99.433657,355 C111.766229,355 121.763754,364.997525 121.763754,377.330097 C121.763754,389.662669 111.766229,399.660194 99.433657,399.660194 Z M151.537217,399.660194 C139.204645,399.660194 129.20712,389.662669 129.20712,377.330097 C129.20712,364.997525 139.204645,355 151.537217,355 C163.869789,355 173.867314,364.997525 173.867314,377.330097 C173.867314,389.662669 163.869789,399.660194 151.537217,399.660194 Z M203.640777,399.660194 C191.308205,399.660194 181.31068,389.662669 181.31068,377.330097 C181.31068,364.997525 191.308205,355 203.640777,355 C215.973349,355 225.970874,364.997525 225.970874,377.330097 C225.970874,389.662669 215.973349,399.660194 203.640777,399.660194 Z" id="Combined-Shape" fill="#F2F8FF"></path>
                <polygon id="E" fill="#6DACFF" fill-rule="nonzero" points="38.5243627 389 38.5243627 364.662109 56.5702611 364.662109 56.5702611 368.779297 43.4384252 368.779297 43.4384252 374.174805 55.6571752 374.174805 55.6571752 378.275391 43.4384252 378.275391 43.4384252 384.899414 57.0351049 384.899414 57.0351049 389"></polygon>
                <path d="M111.53364,389 L106.187937,389 L104.062937,383.47168 L94.3344213,383.47168 L92.3256322,389 L87.1127416,389 L96.5922338,364.662109 L101.788523,364.662109 L111.53364,389 Z M102.485788,379.371094 L99.1322729,370.339844 L95.8451635,379.371094 L102.485788,379.371094 Z" id="A" fill="#6DACFF" fill-rule="nonzero"></path>
                <polygon id="I" fill="#6DACFF" fill-rule="nonzero" points="148.990671 389 148.990671 364.662109 153.904734 364.662109 153.904734 389"></polygon>
                <path d="M193.723074,364.662109 L198.637137,364.662109 L198.637137,377.84375 C198.637137,379.935557 198.698009,381.291338 198.819754,381.911133 C199.030041,382.907232 199.53085,383.706865 200.322195,384.310059 C201.11354,384.913252 202.195398,385.214844 203.567801,385.214844 C204.962339,385.214844 206.013761,384.929853 206.722098,384.359863 C207.430435,383.789873 207.856537,383.089848 208.000418,382.259766 C208.144299,381.429683 208.216238,380.051767 208.216238,378.125977 L208.216238,364.662109 L213.130301,364.662109 L213.130301,377.445313 C213.130301,380.367202 212.99749,382.431309 212.731863,383.637695 C212.466237,384.844082 211.976496,385.862301 211.262625,386.692383 C210.548754,387.522465 209.594174,388.183754 208.398855,388.67627 C207.203537,389.168785 205.643006,389.415039 203.717215,389.415039 C201.392984,389.415039 199.63047,389.14665 198.429617,388.609863 C197.228765,388.073077 196.279718,387.375818 195.582449,386.518066 C194.88518,385.660315 194.425875,384.761072 194.20452,383.820313 C193.883554,382.425774 193.723074,380.367201 193.723074,377.644531 L193.723074,364.662109 Z" id="U" fill="#6DACFF" fill-rule="nonzero"></path>
                <rect id="Rectangle-Copy" stroke="#000000" stroke-width="12" x="-6" y="-5.00203666" width="262" height="501.002037" rx="40"></rect>
                <path d="M57,0 L193,0 L193,6 C193,11.5228475 188.522847,16 183,16 L67,16 C61.4771525,16 57,11.5228475 57,6 L57,0 Z" id="Rectangle" fill="#000000"></path>
                <path d="M106,3 L144,3 C145.104569,3 146,3.8954305 146,5 C146,6.1045695 145.104569,7 144,7 L106,7 C104.895431,7 104,6.1045695 104,5 C104,3.8954305 104.895431,3 106,3 Z M152,3 C153.104569,3 154,3.8954305 154,5 C154,6.1045695 153.104569,7 152,7 C150.895431,7 150,6.1045695 150,5 C150,3.8954305 150.895431,3 152,3 Z" id="Combined-Shape" fill="#1A1A1A"></path>
                <path d="M73.234,44.22 C71.825993,44.22 70.5023395,43.9780024 69.263,43.494 C68.0236605,43.0099976 66.9860042,42.3353377 66.15,41.47 C65.9593324,41.2939991 65.864,41.0813346 65.864,40.832 C65.864,40.5239985 65.9959987,40.2526678 66.26,40.018 C66.4506676,39.8273324 66.6633322,39.732 66.898,39.732 C67.2060015,39.732 67.5213317,39.8859985 67.844,40.194 C68.5040033,40.8393366 69.299662,41.3343316 70.231,41.679 C71.162338,42.0236684 72.163328,42.196 73.234,42.196 C74.3193388,42.196 75.158997,42.0053352 75.753,41.624 C76.347003,41.2426648 76.644,40.7073368 76.644,40.018 C76.644,39.34333 76.3360031,38.7970021 75.72,38.379 C75.1039969,37.9609979 74.0553407,37.5906683 72.574,37.268 C70.3886557,36.7986643 68.8046716,36.1790039 67.822,35.409 C66.8393284,34.6389962 66.348,33.6453394 66.348,32.428 C66.348,31.635996 66.6009975,30.9320031 67.107,30.316 C67.6130025,29.6999969 68.3243287,29.223335 69.241,28.886 C70.1576712,28.548665 71.2173273,28.38 72.42,28.38 C73.7693401,28.38 74.9829946,28.6073311 76.061,29.062 C77.1390054,29.5166689 77.9346641,30.1473293 78.448,30.954 C78.5946674,31.1886678 78.668,31.4159989 78.668,31.636 C78.668,31.9586683 78.5066683,32.2299989 78.184,32.45 C77.9933324,32.5673339 77.8026676,32.626 77.612,32.626 C77.4359991,32.626 77.2600009,32.5820004 77.084,32.494 C76.9079991,32.4059996 76.7613339,32.2886674 76.644,32.142 C76.2186645,31.5846639 75.6356704,31.1556682 74.895,30.855 C74.1543296,30.5543318 73.3293379,30.404 72.42,30.404 C71.2759943,30.404 70.3996697,30.5763316 69.791,30.921 C69.1823303,31.2656684 68.878,31.7679967 68.878,32.428 C68.878,33.0440031 69.1713304,33.5463314 69.758,33.935 C70.3446696,34.3236686 71.3786593,34.686665 72.86,35.024 C75.1040112,35.5520026 76.7173284,36.2046628 77.7,36.982 C78.6826716,37.7593372 79.174,38.7713271 79.174,40.018 C79.174,40.8540042 78.9283358,41.5909968 78.437,42.229 C77.9456642,42.8670032 77.2526711,43.3583316 76.358,43.703 C75.4633289,44.0476684 74.4220059,44.22 73.234,44.22 Z M87.171,44.22 C85.9096604,44.22 84.813338,43.9963356 83.882,43.549 C82.950662,43.1016644 82.2393358,42.4600042 81.748,41.624 C81.2566642,40.7879958 81.011,39.7980057 81.011,38.654 C81.011,36.8793245 81.5389947,35.4933383 82.595,34.496 C83.6510053,33.4986617 85.1176573,33 86.995,33 C88.1536725,33 89.1803289,33.1833315 90.075,33.55 C90.9696711,33.9166685 91.6663308,34.4263301 92.165,35.079 C92.6636692,35.7316699 92.913,36.4759958 92.913,37.312 C92.913,37.98667 92.7076687,38.5073315 92.297,38.874 C91.8863313,39.2406685 91.3070037,39.424 90.559,39.424 L83.431,39.424 C83.431,40.3333379 83.7536634,41.0373308 84.399,41.536 C85.0443366,42.0346692 85.9683273,42.284 87.171,42.284 C87.8603368,42.284 88.4689974,42.2106674 88.997,42.064 C89.5250026,41.9173326 90.0163311,41.6826683 90.471,41.36 C90.8963355,41.0813319 91.2189989,40.942 91.439,40.942 C91.6296676,40.942 91.8276656,41.0446656 92.033,41.25 C92.2676678,41.4700011 92.385,41.7119987 92.385,41.976 C92.385,42.2546681 92.2603346,42.4893324 92.011,42.68 C90.7789938,43.7066718 89.1656766,44.22 87.171,44.22 Z M89.811,37.642 C90.0603346,37.642 90.2436661,37.5906672 90.361,37.488 C90.4783339,37.3853328 90.537,37.2093346 90.537,36.96 C90.537,36.3586637 90.2143366,35.8710019 89.569,35.497 C88.9236634,35.1229981 88.065672,34.936 86.995,34.936 C85.9096612,34.936 85.0516698,35.1816642 84.421,35.673 C83.7903302,36.1643358 83.475,36.8206626 83.475,37.642 L89.811,37.642 Z M96.114,44.22 C95.7326648,44.22 95.4320011,44.1173344 95.212,43.912 C94.9919989,43.7066656 94.882,43.4206685 94.882,43.054 L94.882,34.166 C94.882,33.7993315 94.9883323,33.5133344 95.201,33.308 C95.4136677,33.1026656 95.7033315,33 96.07,33 C96.4513352,33 96.7483323,33.1026656 96.961,33.308 C97.1736677,33.5133344 97.28,33.7993315 97.28,34.166 L97.28,35.024 C98.3653388,33.6746599 99.8173242,33 101.636,33 C103.02934,33 104.125663,33.4253291 104.925,34.276 C105.724337,35.1266709 106.124,36.2999925 106.124,37.796 L106.124,43.054 C106.124,43.4206685 106.010334,43.7066656 105.783,43.912 C105.555666,44.1173344 105.251335,44.22 104.87,44.22 C104.488665,44.22 104.191668,44.1173344 103.979,43.912 C103.766332,43.7066656 103.66,43.4206685 103.66,43.054 L103.66,37.796 C103.66,36.8866621 103.440002,36.1900024 103,35.706 C102.559998,35.2219976 101.936671,34.98 101.13,34.98 C99.9566608,34.98 99.03267,35.3283299 98.358,36.025 C97.68333,36.7216702 97.346,37.6639941 97.346,38.852 L97.346,43.054 C97.346,43.4060018 97.2323345,43.6883323 97.005,43.901 C96.7776655,44.1136677 96.4806685,44.22 96.114,44.22 Z M116.739,41.382 C116.959001,41.5580009 117.069,41.7633322 117.069,41.998 C117.069,42.2473346 116.973668,42.4966654 116.783,42.746 C116.474998,43.2006689 116.035003,43.5599987 115.463,43.824 C114.890997,44.0880013 114.260337,44.22 113.571,44.22 C112.470994,44.22 111.60567,43.9120031 110.975,43.296 C110.34433,42.6799969 110.029,41.836672 110.029,40.766 L110.029,35.178 L109.039,35.178 C108.642998,35.178 108.331334,35.0900009 108.104,34.914 C107.876666,34.7379991 107.763,34.5033348 107.763,34.21 C107.763,33.9019985 107.876666,33.6600009 108.104,33.484 C108.331334,33.3079991 108.642998,33.22 109.039,33.22 L110.029,33.22 L110.029,29.744 C110.029,29.3773315 110.138999,29.0913344 110.359,28.886 C110.579001,28.6806656 110.879665,28.578 111.261,28.578 C111.642335,28.578 111.942999,28.6806656 112.163,28.886 C112.383001,29.0913344 112.493,29.3773315 112.493,29.744 L112.493,33.22 L114.891,33.22 C115.272335,33.22 115.576666,33.3079991 115.804,33.484 C116.031334,33.6600009 116.145,33.9019985 116.145,34.21 C116.145,34.5033348 116.035001,34.7379991 115.815,34.914 C115.594999,35.0900009 115.287002,35.178 114.891,35.178 L112.493,35.178 L112.493,40.964 C112.493,41.360002 112.602999,41.6716655 112.823,41.899 C113.043001,42.1263345 113.350998,42.24 113.747,42.24 C114.289669,42.24 114.773665,42.0273355 115.199,41.602 C115.536335,41.2939985 115.844332,41.14 116.123,41.14 C116.357668,41.14 116.562999,41.2206659 116.739,41.382 Z M124.626,44.22 C123.36466,44.22 122.268338,43.9963356 121.337,43.549 C120.405662,43.1016644 119.694336,42.4600042 119.203,41.624 C118.711664,40.7879958 118.466,39.7980057 118.466,38.654 C118.466,36.8793245 118.993995,35.4933383 120.05,34.496 C121.106005,33.4986617 122.572657,33 124.45,33 C125.608672,33 126.635329,33.1833315 127.53,33.55 C128.424671,33.9166685 129.121331,34.4263301 129.62,35.079 C130.118669,35.7316699 130.368,36.4759958 130.368,37.312 C130.368,37.98667 130.162669,38.5073315 129.752,38.874 C129.341331,39.2406685 128.762004,39.424 128.014,39.424 L120.886,39.424 C120.886,40.3333379 121.208663,41.0373308 121.854,41.536 C122.499337,42.0346692 123.423327,42.284 124.626,42.284 C125.315337,42.284 125.923997,42.2106674 126.452,42.064 C126.980003,41.9173326 127.471331,41.6826683 127.926,41.36 C128.351335,41.0813319 128.673999,40.942 128.894,40.942 C129.084668,40.942 129.282666,41.0446656 129.488,41.25 C129.722668,41.4700011 129.84,41.7119987 129.84,41.976 C129.84,42.2546681 129.715335,42.4893324 129.466,42.68 C128.233994,43.7066718 126.620677,44.22 124.626,44.22 Z M127.266,37.642 C127.515335,37.642 127.698666,37.5906672 127.816,37.488 C127.933334,37.3853328 127.992,37.2093346 127.992,36.96 C127.992,36.3586637 127.669337,35.8710019 127.024,35.497 C126.378663,35.1229981 125.520672,34.936 124.45,34.936 C123.364661,34.936 122.50667,35.1816642 121.876,35.673 C121.24533,36.1643358 120.93,36.8206626 120.93,37.642 L127.266,37.642 Z M133.569,44.22 C133.187665,44.22 132.887001,44.1173344 132.667,43.912 C132.446999,43.7066656 132.337,43.4206685 132.337,43.054 L132.337,34.166 C132.337,33.7993315 132.443332,33.5133344 132.656,33.308 C132.868668,33.1026656 133.158332,33 133.525,33 C133.906335,33 134.203332,33.1026656 134.416,33.308 C134.628668,33.5133344 134.735,33.7993315 134.735,34.166 L134.735,35.024 C135.820339,33.6746599 137.272324,33 139.091,33 C140.48434,33 141.580663,33.4253291 142.38,34.276 C143.179337,35.1266709 143.579,36.2999925 143.579,37.796 L143.579,43.054 C143.579,43.4206685 143.465334,43.7066656 143.238,43.912 C143.010666,44.1173344 142.706335,44.22 142.325,44.22 C141.943665,44.22 141.646668,44.1173344 141.434,43.912 C141.221332,43.7066656 141.115,43.4206685 141.115,43.054 L141.115,37.796 C141.115,36.8866621 140.895002,36.1900024 140.455,35.706 C140.014998,35.2219976 139.391671,34.98 138.585,34.98 C137.411661,34.98 136.48767,35.3283299 135.813,36.025 C135.13833,36.7216702 134.801,37.6639941 134.801,38.852 L134.801,43.054 C134.801,43.4060018 134.687334,43.6883323 134.46,43.901 C134.232666,44.1136677 133.935668,44.22 133.569,44.22 Z M151.532,44.22 C149.639991,44.22 148.151339,43.7213383 147.066,42.724 C145.980661,41.7266617 145.438,40.3480088 145.438,38.588 C145.438,36.8573247 145.980661,35.4933383 147.066,34.496 C148.151339,33.4986617 149.639991,33 151.532,33 C152.588005,33 153.533996,33.168665 154.37,33.506 C155.206004,33.843335 155.865998,34.3199969 156.35,34.936 C156.511334,35.1413344 156.592,35.3466656 156.592,35.552 C156.592,35.889335 156.416002,36.1826654 156.064,36.432 C155.902666,36.5493339 155.719334,36.608 155.514,36.608 C155.103331,36.608 154.751335,36.4466683 154.458,36.124 C154.120665,35.7573315 153.702669,35.475001 153.204,35.277 C152.705331,35.078999 152.148003,34.98 151.532,34.98 C150.387994,34.98 149.50067,35.2953302 148.87,35.926 C148.23933,36.5566698 147.924,37.4439943 147.924,38.588 C147.924,39.7466725 148.23933,40.6449968 148.87,41.283 C149.50067,41.9210032 150.387994,42.24 151.532,42.24 C152.808006,42.24 153.871329,41.8293374 154.722,41.008 C155.074002,40.6559982 155.418665,40.48 155.756,40.48 C156.005335,40.48 156.217999,40.5606659 156.394,40.722 C156.702002,40.9566678 156.856,41.242665 156.856,41.58 C156.856,41.8293346 156.760668,42.0419991 156.57,42.218 C155.880663,42.9073368 155.129004,43.4133317 154.315,43.736 C153.500996,44.0586683 152.573339,44.22 151.532,44.22 Z M164.633,44.22 C163.37166,44.22 162.275338,43.9963356 161.344,43.549 C160.412662,43.1016644 159.701336,42.4600042 159.21,41.624 C158.718664,40.7879958 158.473,39.7980057 158.473,38.654 C158.473,36.8793245 159.000995,35.4933383 160.057,34.496 C161.113005,33.4986617 162.579657,33 164.457,33 C165.615672,33 166.642329,33.1833315 167.537,33.55 C168.431671,33.9166685 169.128331,34.4263301 169.627,35.079 C170.125669,35.7316699 170.375,36.4759958 170.375,37.312 C170.375,37.98667 170.169669,38.5073315 169.759,38.874 C169.348331,39.2406685 168.769004,39.424 168.021,39.424 L160.893,39.424 C160.893,40.3333379 161.215663,41.0373308 161.861,41.536 C162.506337,42.0346692 163.430327,42.284 164.633,42.284 C165.322337,42.284 165.930997,42.2106674 166.459,42.064 C166.987003,41.9173326 167.478331,41.6826683 167.933,41.36 C168.358335,41.0813319 168.680999,40.942 168.901,40.942 C169.091668,40.942 169.289666,41.0446656 169.495,41.25 C169.729668,41.4700011 169.847,41.7119987 169.847,41.976 C169.847,42.2546681 169.722335,42.4893324 169.473,42.68 C168.240994,43.7066718 166.627677,44.22 164.633,44.22 Z M167.273,37.642 C167.522335,37.642 167.705666,37.5906672 167.823,37.488 C167.940334,37.3853328 167.999,37.2093346 167.999,36.96 C167.999,36.3586637 167.676337,35.8710019 167.031,35.497 C166.385663,35.1229981 165.527672,34.936 164.457,34.936 C163.371661,34.936 162.51367,35.1816642 161.883,35.673 C161.25233,36.1643358 160.937,36.8206626 160.937,37.642 L167.273,37.642 Z M182.739,44.22 C182.357665,44.22 182.053334,44.1173344 181.826,43.912 C181.598666,43.7066656 181.485,43.4206685 181.485,43.054 L181.485,31.086 L179.307,31.922 C179.086999,32.0100004 178.874334,32.054 178.669,32.054 C178.448999,32.054 178.251001,32.0026672 178.075,31.9 C177.898999,31.7973328 177.767,31.6506676 177.679,31.46 C177.591,31.2839991 177.547,31.1080009 177.547,30.932 C177.547,30.7266656 177.616666,30.5396675 177.756,30.371 C177.895334,30.2023325 178.096999,30.0666672 178.361,29.964 L182.387,28.446 C182.548334,28.387333 182.709666,28.358 182.871,28.358 C183.208335,28.358 183.479666,28.4679989 183.685,28.688 C183.890334,28.9080011 183.993,29.2013315 183.993,29.568 L183.993,43.054 C183.993,43.4060018 183.879334,43.6883323 183.652,43.901 C183.424666,44.1136677 183.120335,44.22 182.739,44.22 Z" id="Sentence1" fill="#5296EF" fill-rule="nonzero"></path>
            </g>
            <g id="уроки" transform="translate(191.000000, 67.000000)">
                <g id="Rectangle-Copy-2">
                    <use fill="black" fill-opacity="1" filter="url(#filter-6)" xlink:href="#path-5"></use>
                    <use fill="#FFFFFF" fill-rule="evenodd" xlink:href="#path-5"></use>
                </g>
                <g id="I-say-something,-it" transform="translate(15.957031, 21.724994)" fill-rule="nonzero">
                    <path d="M0,10.0214844 L0,-1.77635684e-15 L2.0234375,-1.77635684e-15 L2.0234375,10.0214844 L0,10.0214844 Z M7.05239062,7.95019531 L8.980125,7.65625 C9.06215666,8.02994979 9.22849614,8.31363835 9.47914843,8.50732422 C9.72980073,8.70101008 10.0807087,8.79785156 10.5318828,8.79785156 C11.0286301,8.79785156 11.4023243,8.70670664 11.6529766,8.52441406 C11.8215972,8.39680926 11.9059062,8.22591253 11.9059062,8.01171875 C11.9059062,7.86588469 11.8603338,7.74511767 11.7691875,7.64941406 C11.6734839,7.55826777 11.4592933,7.47395872 11.1266094,7.39648437 C9.57712246,7.05468579 8.59503592,6.74251443 8.18032031,6.45996094 C7.60609869,6.06803189 7.31899218,5.52344099 7.31899218,4.82617187 C7.31899218,4.19726248 7.56736209,3.66862193 8.06410937,3.24023437 C8.56085665,2.81184682 9.33103124,2.59765625 10.3746562,2.59765625 C11.3681508,2.59765625 12.1064247,2.75943849 12.5895,3.08300781 C13.0725753,3.40657714 13.4052543,3.88508798 13.5875469,4.51855469 L11.7760234,4.85351562 C11.6985491,4.57096213 11.5515779,4.35449294 11.3351055,4.20410156 C11.118633,4.05371019 10.8098796,3.97851562 10.4088359,3.97851562 C9.90297403,3.97851562 9.54067296,4.04915294 9.32192187,4.19042969 C9.17608781,4.29069061 9.10317187,4.42057212 9.10317187,4.58007812 C9.10317187,4.71679756 9.16697332,4.83300733 9.29457812,4.92871094 C9.46775607,5.05631574 10.0658946,5.23632696 11.0890117,5.46875 C12.1121288,5.70117304 12.8264771,5.98600092 13.2320781,6.32324219 C13.6331218,6.66504077 13.8336406,7.14127299 13.8336406,7.75195312 C13.8336406,8.41732104 13.5556486,8.98925542 12.9996562,9.46777344 C12.4436639,9.94629146 11.621081,10.1855469 10.5318828,10.1855469 C9.54294557,10.1855469 8.76023855,9.98502805 8.18373828,9.58398437 C7.607238,9.1829407 7.23012588,8.63834979 7.05239062,7.95019531 Z M16.9018281,4.9765625 L15.1586641,4.66210937 C15.3546286,3.96028295 15.6918648,3.44075689 16.1703828,3.10351562 C16.6489008,2.76627436 17.3598312,2.59765625 18.3031953,2.59765625 C19.1599704,2.59765625 19.7979849,2.69905498 20.2172578,2.90185547 C20.6365307,3.10465596 20.9316124,3.36214037 21.1025117,3.67431641 C21.273411,3.98649245 21.3588594,4.55956614 21.3588594,5.39355469 L21.3383516,7.63574219 C21.3383516,8.27376621 21.369113,8.74430187 21.4306367,9.04736328 C21.4921605,9.35042469 21.6072309,9.67512848 21.7758516,10.0214844 L19.8754609,10.0214844 C19.8253305,9.89387957 19.7638076,9.70475386 19.6908906,9.45410156 C19.6589894,9.3401687 19.6362032,9.26497414 19.6225312,9.22851562 C19.2944046,9.54752764 18.9434967,9.78678306 18.5697969,9.94628906 C18.1960971,10.1057951 17.797338,10.1855469 17.3735078,10.1855469 C16.6261082,10.1855469 16.0370842,9.98274942 15.606418,9.57714844 C15.1757517,9.17154745 14.9604219,8.65885727 14.9604219,8.0390625 C14.9604219,7.6289042 15.0584027,7.2631852 15.2543672,6.94189453 C15.4503317,6.62060386 15.7249058,6.37451257 16.0780976,6.20361328 C16.4312895,6.03271399 16.9405618,5.88346418 17.6059297,5.75585937 C18.5037206,5.58723874 19.1257847,5.43001375 19.4721406,5.28417969 L19.4721406,5.09277344 C19.4721406,4.72363097 19.3809957,4.46045 19.1987031,4.30322266 C19.0164105,4.14599531 18.6723385,4.06738281 18.1664766,4.06738281 C17.824678,4.06738281 17.5580791,4.13460219 17.3666719,4.26904297 C17.1752647,4.40348375 17.0203183,4.63932123 16.9018281,4.9765625 Z M19.4721406,6.53515625 C19.2260456,6.61718791 18.8364011,6.7151687 18.3031953,6.82910156 C17.7699895,6.94303442 17.4213602,7.05468695 17.2572969,7.1640625 C17.0066446,7.34179776 16.8813203,7.56738145 16.8813203,7.84082031 C16.8813203,8.10970187 16.9815797,8.34212142 17.1821016,8.53808594 C17.3826234,8.73405046 17.6378292,8.83203125 17.9477266,8.83203125 C18.2940825,8.83203125 18.6244828,8.7181001 18.9389375,8.49023437 C19.1713605,8.31705643 19.3240283,8.10514448 19.3969453,7.85449219 C19.4470758,7.69042887 19.4721406,7.37825751 19.4721406,6.91796875 L19.4721406,6.53515625 Z M22.2942344,2.76171875 L24.3381797,2.76171875 L26.0745078,7.91601562 L27.7698203,2.76171875 L29.7590781,2.76171875 L27.1956016,9.74804687 L26.7375937,11.0126953 C26.5689731,11.4365256 26.4083302,11.76009 26.2556601,11.9833984 C26.1029901,12.2067068 25.9275361,12.3878574 25.729293,12.5268555 C25.5310498,12.6658536 25.2872371,12.7740882 24.9978476,12.8515625 C24.7084582,12.9290368 24.3814758,12.9677734 24.0168906,12.9677734 C23.6477481,12.9677734 23.2854471,12.9290368 22.9299766,12.8515625 L22.7590781,11.3476563 C23.0598609,11.4069013 23.331017,11.4365234 23.5725547,11.4365234 C24.0191715,11.4365234 24.3495718,11.3055026 24.5637656,11.043457 C24.7779594,10.7814115 24.9420203,10.4475932 25.0559531,10.0419922 L22.2942344,2.76171875 Z M34.1044375,7.95019531 L36.0321719,7.65625 C36.1142035,8.02994979 36.280543,8.31363835 36.5311953,8.50732422 C36.7818476,8.70101008 37.1327555,8.79785156 37.5839297,8.79785156 C38.0806769,8.79785156 38.4543711,8.70670664 38.7050234,8.52441406 C38.8736441,8.39680926 38.9579531,8.22591253 38.9579531,8.01171875 C38.9579531,7.86588469 38.9123806,7.74511767 38.8212344,7.64941406 C38.7255308,7.55826777 38.5113402,7.47395872 38.1786562,7.39648437 C36.6291693,7.05468579 35.6470828,6.74251443 35.2323672,6.45996094 C34.6581456,6.06803189 34.371039,5.52344099 34.371039,4.82617187 C34.371039,4.19726248 34.619409,3.66862193 35.1161562,3.24023437 C35.6129035,2.81184682 36.3830781,2.59765625 37.4267031,2.59765625 C38.4201977,2.59765625 39.1584715,2.75943849 39.6415469,3.08300781 C40.1246222,3.40657714 40.4573012,3.88508798 40.6395937,4.51855469 L38.8280703,4.85351562 C38.750596,4.57096213 38.6036248,4.35449294 38.3871523,4.20410156 C38.1706799,4.05371019 37.8619265,3.97851562 37.4608828,3.97851562 C36.9550209,3.97851562 36.5927198,4.04915294 36.3739687,4.19042969 C36.2281347,4.29069061 36.1552187,4.42057212 36.1552187,4.58007812 C36.1552187,4.71679756 36.2190202,4.83300733 36.346625,4.92871094 C36.5198029,5.05631574 37.1179415,5.23632696 38.1410586,5.46875 C39.1641757,5.70117304 39.878524,5.98600092 40.284125,6.32324219 C40.6851687,6.66504077 40.8856875,7.14127299 40.8856875,7.75195312 C40.8856875,8.41732104 40.6076955,8.98925542 40.0517031,9.46777344 C39.4957107,9.94629146 38.6731278,10.1855469 37.5839297,10.1855469 C36.5949924,10.1855469 35.8122854,9.98502805 35.2357851,9.58398437 C34.6592849,9.1829407 34.2821727,8.63834979 34.1044375,7.95019531 Z M42.0739922,6.2890625 C42.0739922,5.65103848 42.2312172,5.03353163 42.5456719,4.43652344 C42.8601266,3.83951524 43.3055974,3.38379063 43.8820976,3.06933594 C44.4585979,2.75488124 45.1023089,2.59765625 45.81325,2.59765625 C46.9115628,2.59765625 47.8116189,2.95426076 48.5134453,3.66748047 C49.2152717,4.38070018 49.5661797,5.2818956 49.5661797,6.37109375 C49.5661797,7.46940653 49.2118538,8.37971644 48.5031914,9.10205078 C47.794529,9.82438512 46.9024481,10.1855469 45.8269219,10.1855469 C45.1615539,10.1855469 44.5269574,10.0351578 43.9231133,9.734375 C43.3192691,9.43359225 42.8601266,8.99267869 42.5456719,8.41162109 C42.2312172,7.8305635 42.0739922,7.12305104 42.0739922,6.2890625 Z M44.0427422,6.39160156 C44.0427422,7.11165725 44.2136389,7.66308402 44.5554375,8.04589844 C44.8972361,8.42871285 45.3187813,8.62011719 45.8200859,8.62011719 C46.3213905,8.62011719 46.7417965,8.42871285 47.0813164,8.04589844 C47.4208363,7.66308402 47.5905937,7.1071 47.5905937,6.37792969 C47.5905937,5.66698863 47.4208363,5.1201191 47.0813164,4.73730469 C46.7417965,4.35449027 46.3213905,4.16308594 45.8200859,4.16308594 C45.3187813,4.16308594 44.8972361,4.35449027 44.5554375,4.73730469 C44.2136389,5.1201191 44.0427422,5.67154588 44.0427422,6.39160156 Z M50.8775312,2.76171875 L52.648039,2.76171875 L52.648039,3.75292969 C53.2815058,2.98274354 54.03573,2.59765625 54.9107344,2.59765625 C55.3755804,2.59765625 55.7788967,2.69335842 56.1206953,2.88476562 C56.4624939,3.07617283 56.7427645,3.36555796 56.9615156,3.75292969 C57.2805276,3.36555796 57.6245997,3.07617283 57.9937422,2.88476562 C58.3628846,2.69335842 58.7570864,2.59765625 59.1763594,2.59765625 C59.7095651,2.59765625 60.1607325,2.70589084 60.529875,2.92236328 C60.8990175,3.13883572 61.1747308,3.45670363 61.3570234,3.87597656 C61.4891855,4.18587395 61.5552656,4.68717102 61.5552656,5.37988281 L61.5552656,10.0214844 L59.6343672,10.0214844 L59.6343672,5.87207031 C59.6343672,5.15201463 59.5682871,4.68717553 59.436125,4.47753906 C59.2583897,4.2041002 58.984955,4.06738281 58.6158125,4.06738281 C58.3469309,4.06738281 58.0940038,4.14941324 57.8570234,4.31347656 C57.6200431,4.47753988 57.4491463,4.71793461 57.3443281,5.03466797 C57.2395099,5.35140132 57.1871015,5.85155908 57.1871015,6.53515625 L57.1871015,10.0214844 L55.2662031,10.0214844 L55.2662031,6.04296875 C55.2662031,5.33658501 55.2320238,4.8808604 55.163664,4.67578125 C55.0953043,4.4707021 54.9893484,4.31803436 54.8457929,4.21777344 C54.7022375,4.11751252 54.5074153,4.06738281 54.2613203,4.06738281 C53.9650949,4.06738281 53.698496,4.14713462 53.4615156,4.30664062 C53.2245353,4.46614663 53.0547778,4.69628756 52.9522383,4.99707031 C52.8496987,5.29785307 52.7984297,5.79687151 52.7984297,6.49414062 L52.7984297,10.0214844 L50.8775312,10.0214844 L50.8775312,2.76171875 Z M67.6244297,7.7109375 L69.5384922,8.03222656 C69.2923972,8.73405299 68.903892,9.26839009 68.3729648,9.63525391 C67.8420377,10.0021177 67.1778191,10.1855469 66.380289,10.1855469 C65.1179129,10.1855469 64.1836775,9.7731161 63.5775547,8.94824219 C63.0990366,8.28743159 62.8597812,7.45345556 62.8597812,6.44628906 C62.8597812,5.24315805 63.1742312,4.30094742 63.8031406,3.61962891 C64.43205,2.9383104 65.2272894,2.59765625 66.1888828,2.59765625 C67.2689663,2.59765625 68.1211713,2.95426076 68.7455234,3.66748047 C69.3698755,4.38070018 69.6683751,5.47329993 69.6410312,6.9453125 L64.8285312,6.9453125 C64.8422032,7.51497681 64.9971495,7.95816899 65.293375,8.27490234 C65.5896004,8.5916357 65.9587374,8.75 66.4007969,8.75 C66.7015796,8.75 66.9545068,8.66796957 67.1595859,8.50390625 C67.3646651,8.33984293 67.5196114,8.07552266 67.6244297,7.7109375 Z M67.7338047,5.76953125 C67.7201327,5.21353889 67.5765795,4.79085431 67.3031406,4.50146484 C67.0297017,4.21207538 66.6970228,4.06738281 66.3050937,4.06738281 C65.8858208,4.06738281 65.5394701,4.22005056 65.2660312,4.52539062 C64.9925924,4.83073069 64.8581536,5.24544009 64.8627109,5.76953125 L67.7338047,5.76953125 Z M74.4865625,2.76171875 L74.4865625,4.29296875 L73.1740625,4.29296875 L73.1740625,7.21875 C73.1740625,7.81120088 73.1865949,8.15641227 73.2116601,8.25439453 C73.2367254,8.35237679 73.2936909,8.43326791 73.3825586,8.49707031 C73.4714262,8.56087271 73.5796608,8.59277344 73.7072656,8.59277344 C73.8850009,8.59277344 74.1424853,8.53125062 74.4797265,8.40820312 L74.643789,9.8984375 C74.1971722,10.0898447 73.6913179,10.1855469 73.1262109,10.1855469 C72.779855,10.1855469 72.4676837,10.127442 72.1896875,10.0112305 C71.9116913,9.89501895 71.7077545,9.74462983 71.5778711,9.56005859 C71.4479876,9.37548736 71.357982,9.12597813 71.3078515,8.81152344 C71.2668357,8.58821503 71.2463281,8.13704767 71.2463281,7.45800781 L71.2463281,4.29296875 L70.3644922,4.29296875 L70.3644922,2.76171875 L71.2463281,2.76171875 L71.2463281,1.31933594 L73.1740625,0.198242187 L73.1740625,2.76171875 L74.4865625,2.76171875 Z M77.6846328,-1.77635684e-15 L77.6846328,3.68457031 C78.3044276,2.95995731 79.04498,2.59765625 79.9063125,2.59765625 C80.348372,2.59765625 80.747131,2.67968668 81.1026015,2.84375 C81.4580721,3.00781332 81.7258103,3.21744664 81.9058242,3.47265625 C82.0858381,3.72786586 82.2088838,4.01041512 82.2749648,4.3203125 C82.3410459,4.63020988 82.3740859,5.11099935 82.3740859,5.76269531 L82.3740859,10.0214844 L80.4531875,10.0214844 L80.4531875,6.18652344 C80.4531875,5.42545192 80.4167295,4.94238384 80.3438125,4.73730469 C80.2708954,4.53222554 80.1421532,4.36930399 79.957582,4.24853516 C79.7730108,4.12776632 79.5417305,4.06738281 79.2637343,4.06738281 C78.9447223,4.06738281 78.6598945,4.144856 78.4092422,4.29980469 C78.1585899,4.45475338 77.9751607,4.68831224 77.8589492,5.00048828 C77.7427377,5.31266432 77.6846328,5.77408549 77.6846328,6.38476562 L77.6846328,10.0214844 L75.7637343,10.0214844 L75.7637343,-1.77635684e-15 L77.6846328,-1.77635684e-15 Z M84.2733281,1.77734375 L84.2733281,-1.77635684e-15 L86.1942265,-1.77635684e-15 L86.1942265,1.77734375 L84.2733281,1.77734375 Z M84.2733281,10.0214844 L84.2733281,2.76171875 L86.1942265,2.76171875 L86.1942265,10.0214844 L84.2733281,10.0214844 Z M94.7174922,10.0214844 L92.7965937,10.0214844 L92.7965937,6.31640625 C92.7965937,5.53254816 92.7555785,5.02555454 92.6735468,4.79541016 C92.5915152,4.56526578 92.4582157,4.38639387 92.2736445,4.25878906 C92.0890733,4.13118426 91.8669075,4.06738281 91.6071406,4.06738281 C91.2744566,4.06738281 90.975957,4.15852773 90.7116328,4.34082031 C90.4473085,4.52311289 90.266158,4.76464693 90.1681757,5.06542969 C90.0701935,5.36621244 90.0212031,5.92219646 90.0212031,6.73339844 L90.0212031,10.0214844 L88.1003047,10.0214844 L88.1003047,2.76171875 L89.8844843,2.76171875 L89.8844843,3.828125 C90.5179511,3.0078084 91.3154691,2.59765625 92.2770625,2.59765625 C92.7008927,2.59765625 93.0882586,2.67399012 93.4391718,2.82666016 C93.7900851,2.97933019 94.0555446,3.17415246 94.2355586,3.41113281 C94.4155725,3.64811316 94.5408968,3.91699068 94.6115351,4.21777344 C94.6821735,4.51855619 94.7174922,4.94921595 94.7174922,5.50976562 L94.7174922,10.0214844 Z M96.439,10.5 L98.6333359,10.7666016 C98.6697944,11.0218112 98.7541035,11.1972651 98.8862656,11.2929688 C99.0685582,11.4296882 99.3556647,11.4980469 99.7475937,11.4980469 C100.248898,11.4980469 100.624871,11.4228523 100.875523,11.2724609 C101.044144,11.1722 101.171747,11.0104178 101.258336,10.7871094 C101.317581,10.6276034 101.347203,10.333661 101.347203,9.90527344 L101.347203,8.84570312 C100.772981,9.62956121 100.048379,10.0214844 99.173375,10.0214844 C98.1981097,10.0214844 97.4256565,9.6090536 96.8559922,8.78417969 C96.4093753,8.13248372 96.1860703,7.32129392 96.1860703,6.35058594 C96.1860703,5.13378298 96.4788733,4.20410478 97.0644882,3.56152344 C97.6501032,2.9189421 98.3781232,2.59765625 99.2485703,2.59765625 C100.146361,2.59765625 100.886914,2.99185804 101.47025,3.78027344 L101.47025,2.76171875 L103.268102,2.76171875 L103.268102,9.27636719 C103.268102,10.1331423 103.197464,10.7734354 103.056187,11.1972656 C102.914911,11.6210959 102.716671,11.9537748 102.461461,12.1953125 C102.206251,12.4368502 101.865597,12.6259759 101.439488,12.7626953 C101.013379,12.8994147 100.474485,12.9677734 99.822789,12.9677734 C98.5923141,12.9677734 97.7196015,12.7570008 97.204625,12.3354492 C96.6896484,11.9138976 96.432164,11.3795605 96.432164,10.7324219 C96.432164,10.6686195 96.4344427,10.5911463 96.439,10.5 Z M98.1548203,6.24121094 C98.1548203,7.01139708 98.3040701,7.57535628 98.6025742,7.93310547 C98.9010783,8.29085465 99.2690759,8.46972656 99.7065781,8.46972656 C100.175981,8.46972656 100.572462,8.28629741 100.896031,7.91943359 C101.219601,7.55256978 101.381383,7.00911818 101.381383,6.2890625 C101.381383,5.53710562 101.226436,4.97884297 100.916539,4.61425781 C100.606642,4.24967266 100.214718,4.06738281 99.7407578,4.06738281 C99.280469,4.06738281 98.9010783,4.24625472 98.6025742,4.60400391 C98.3040701,4.96175309 98.1548203,5.50748331 98.1548203,6.24121094 Z M105.071641,8.10058594 L106.992539,8.10058594 L106.992539,9.47460937 C106.992539,10.0306017 106.944688,10.4692367 106.848984,10.7905273 C106.753281,11.111818 106.57213,11.4000638 106.305527,11.6552734 C106.038924,11.910483 105.700549,12.1110019 105.290391,12.2568359 L104.914414,11.4638672 C105.301786,11.3362624 105.577499,11.1608084 105.741562,10.9375 C105.905626,10.7141916 105.992213,10.4088561 106.001328,10.0214844 L105.071641,10.0214844 L105.071641,8.10058594 Z M112.800789,1.77734375 L112.800789,-1.77635684e-15 L114.721687,-1.77635684e-15 L114.721687,1.77734375 L112.800789,1.77734375 Z M112.800789,10.0214844 L112.800789,2.76171875 L114.721687,2.76171875 L114.721687,10.0214844 L112.800789,10.0214844 Z M119.970539,2.76171875 L119.970539,4.29296875 L118.658039,4.29296875 L118.658039,7.21875 C118.658039,7.81120088 118.670571,8.15641227 118.695637,8.25439453 C118.720702,8.35237679 118.777667,8.43326791 118.866535,8.49707031 C118.955403,8.56087271 119.063637,8.59277344 119.191242,8.59277344 C119.368977,8.59277344 119.626462,8.53125062 119.963703,8.40820312 L120.127766,9.8984375 C119.681149,10.0898447 119.175294,10.1855469 118.610187,10.1855469 C118.263832,10.1855469 117.95166,10.127442 117.673664,10.0112305 C117.395668,9.89501895 117.191731,9.74462983 117.061848,9.56005859 C116.931964,9.37548736 116.841959,9.12597813 116.791828,8.81152344 C116.750812,8.58821503 116.730305,8.13704767 116.730305,7.45800781 L116.730305,4.29296875 L115.848469,4.29296875 L115.848469,2.76171875 L116.730305,2.76171875 L116.730305,1.31933594 L118.658039,0.198242187 L118.658039,2.76171875 L119.970539,2.76171875 Z M125.095195,1.77734375 L125.095195,-1.77635684e-15 L127.016094,-1.77635684e-15 L127.016094,1.77734375 L125.095195,1.77734375 Z M125.095195,10.0214844 L125.095195,2.76171875 L127.016094,2.76171875 L127.016094,10.0214844 L125.095195,10.0214844 Z M128.259086,7.95019531 L130.18682,7.65625 C130.268852,8.02994979 130.435191,8.31363835 130.685844,8.50732422 C130.936496,8.70101008 131.287404,8.79785156 131.738578,8.79785156 C132.235325,8.79785156 132.60902,8.70670664 132.859672,8.52441406 C133.028292,8.39680926 133.112602,8.22591253 133.112602,8.01171875 C133.112602,7.86588469 133.067029,7.74511767 132.975883,7.64941406 C132.880179,7.55826777 132.665989,7.47395872 132.333305,7.39648437 C130.783818,7.05468579 129.801731,6.74251443 129.387016,6.45996094 C128.812794,6.06803189 128.525687,5.52344099 128.525687,4.82617187 C128.525687,4.19726248 128.774057,3.66862193 129.270805,3.24023437 C129.767552,2.81184682 130.537727,2.59765625 131.581352,2.59765625 C132.574846,2.59765625 133.31312,2.75943849 133.796195,3.08300781 C134.279271,3.40657714 134.61195,3.88508798 134.794242,4.51855469 L132.982719,4.85351562 C132.905244,4.57096213 132.758273,4.35449294 132.541801,4.20410156 C132.325328,4.05371019 132.016575,3.97851562 131.615531,3.97851562 C131.109669,3.97851562 130.747368,4.04915294 130.528617,4.19042969 C130.382783,4.29069061 130.309867,4.42057212 130.309867,4.58007812 C130.309867,4.71679756 130.373669,4.83300733 130.501273,4.92871094 C130.674451,5.05631574 131.27259,5.23632696 132.295707,5.46875 C133.318824,5.70117304 134.033172,5.98600092 134.438773,6.32324219 C134.839817,6.66504077 135.040336,7.14127299 135.040336,7.75195312 C135.040336,8.41732104 134.762344,8.98925542 134.206352,9.46777344 C133.650359,9.94629146 132.827776,10.1855469 131.738578,10.1855469 C130.749641,10.1855469 129.966934,9.98502805 129.390434,9.58398437 C128.813933,9.1829407 128.436821,8.63834979 128.259086,7.95019531 Z M142.352492,10.0214844 L140.431594,10.0214844 L140.431594,2.76171875 L142.215773,2.76171875 L142.215773,3.79394531 C142.521113,3.30631267 142.795688,2.98502682 143.039504,2.83007812 C143.28332,2.67512943 143.560173,2.59765625 143.87007,2.59765625 C144.307572,2.59765625 144.729118,2.71842327 145.134719,2.95996094 L144.539992,4.63476562 C144.216423,4.42512916 143.915645,4.3203125 143.637648,4.3203125 C143.368767,4.3203125 143.140905,4.39436775 142.954055,4.54248047 C142.767205,4.69059319 142.620234,4.9583314 142.513137,5.34570312 C142.40604,5.73307485 142.352492,6.54426466 142.352492,7.77929687 L142.352492,10.0214844 Z M150.116969,7.7109375 L152.031031,8.03222656 C151.784936,8.73405299 151.396431,9.26839009 150.865504,9.63525391 C150.334577,10.0021177 149.670358,10.1855469 148.872828,10.1855469 C147.610452,10.1855469 146.676217,9.7731161 146.070094,8.94824219 C145.591576,8.28743159 145.35232,7.45345556 145.35232,6.44628906 C145.35232,5.24315805 145.66677,4.30094742 146.29568,3.61962891 C146.924589,2.9383104 147.719828,2.59765625 148.681422,2.59765625 C149.761505,2.59765625 150.61371,2.95426076 151.238062,3.66748047 C151.862415,4.38070018 152.160914,5.47329993 152.13357,6.9453125 L147.32107,6.9453125 C147.334742,7.51497681 147.489689,7.95816899 147.785914,8.27490234 C148.082139,8.5916357 148.451276,8.75 148.893336,8.75 C149.194119,8.75 149.447046,8.66796957 149.652125,8.50390625 C149.857204,8.33984293 150.01215,8.07552266 150.116969,7.7109375 Z M150.226344,5.76953125 C150.212672,5.21353889 150.069118,4.79085431 149.79568,4.50146484 C149.522241,4.21207538 149.189562,4.06738281 148.797633,4.06738281 C148.37836,4.06738281 148.032009,4.22005056 147.75857,4.52539062 C147.485131,4.83073069 147.350693,5.24544009 147.35525,5.76953125 L150.226344,5.76953125 Z M155.085547,4.9765625 L153.342383,4.66210937 C153.538347,3.96028295 153.875583,3.44075689 154.354102,3.10351562 C154.83262,2.76627436 155.54355,2.59765625 156.486914,2.59765625 C157.343689,2.59765625 157.981704,2.69905498 158.400977,2.90185547 C158.820249,3.10465596 159.115331,3.36214037 159.28623,3.67431641 C159.45713,3.98649245 159.542578,4.55956614 159.542578,5.39355469 L159.52207,7.63574219 C159.52207,8.27376621 159.552832,8.74430187 159.614355,9.04736328 C159.675879,9.35042469 159.79095,9.67512848 159.95957,10.0214844 L158.05918,10.0214844 C158.009049,9.89387957 157.947526,9.70475386 157.874609,9.45410156 C157.842708,9.3401687 157.819922,9.26497414 157.80625,9.22851562 C157.478123,9.54752764 157.127215,9.78678306 156.753516,9.94628906 C156.379816,10.1057951 155.981057,10.1855469 155.557227,10.1855469 C154.809827,10.1855469 154.220803,9.98274942 153.790137,9.57714844 C153.35947,9.17154745 153.144141,8.65885727 153.144141,8.0390625 C153.144141,7.6289042 153.242121,7.2631852 153.438086,6.94189453 C153.63405,6.62060386 153.908624,6.37451257 154.261816,6.20361328 C154.615008,6.03271399 155.12428,5.88346418 155.789648,5.75585937 C156.687439,5.58723874 157.309503,5.43001375 157.655859,5.28417969 L157.655859,5.09277344 C157.655859,4.72363097 157.564714,4.46045 157.382422,4.30322266 C157.200129,4.14599531 156.856057,4.06738281 156.350195,4.06738281 C156.008397,4.06738281 155.741798,4.13460219 155.550391,4.26904297 C155.358983,4.40348375 155.204037,4.63932123 155.085547,4.9765625 Z M157.655859,6.53515625 C157.409764,6.61718791 157.02012,6.7151687 156.486914,6.82910156 C155.953708,6.94303442 155.605079,7.05468695 155.441016,7.1640625 C155.190363,7.34179776 155.065039,7.56738145 155.065039,7.84082031 C155.065039,8.10970187 155.165298,8.34212142 155.36582,8.53808594 C155.566342,8.73405046 155.821548,8.83203125 156.131445,8.83203125 C156.477801,8.83203125 156.808201,8.7181001 157.122656,8.49023437 C157.355079,8.31705643 157.507747,8.10514448 157.580664,7.85449219 C157.630794,7.69042887 157.655859,7.37825751 157.655859,6.91796875 L157.655859,6.53515625 Z M161.387133,10.0214844 L161.387133,-1.77635684e-15 L163.308031,-1.77635684e-15 L163.308031,10.0214844 L161.387133,10.0214844 Z M165.227781,10.0214844 L165.227781,-1.77635684e-15 L167.14868,-1.77635684e-15 L167.14868,10.0214844 L165.227781,10.0214844 Z M168.15925,2.76171875 L170.203195,2.76171875 L171.939523,7.91601562 L173.634836,2.76171875 L175.624094,2.76171875 L173.060617,9.74804687 L172.602609,11.0126953 C172.433989,11.4365256 172.273346,11.76009 172.120676,11.9833984 C171.968006,12.2067068 171.792552,12.3878574 171.594309,12.5268555 C171.396065,12.6658536 171.152253,12.7740882 170.862863,12.8515625 C170.573474,12.9290368 170.246491,12.9677734 169.881906,12.9677734 C169.512764,12.9677734 169.150463,12.9290368 168.794992,12.8515625 L168.624094,11.3476563 C168.924876,11.4069013 169.196033,11.4365234 169.43757,11.4365234 C169.884187,11.4365234 170.214587,11.3055026 170.428781,11.043457 C170.642975,10.7814115 170.807036,10.4475932 170.920969,10.0419922 L168.15925,2.76171875 Z M0.0478515625,17.7773438 L0.0478515625,16 L1.96875,16 L1.96875,17.7773438 L0.0478515625,17.7773438 Z M0.0478515625,26.0214844 L0.0478515625,18.7617188 L1.96875,18.7617188 L1.96875,26.0214844 L0.0478515625,26.0214844 Z M10.4920156,26.0214844 L8.57111719,26.0214844 L8.57111719,22.3164062 C8.57111719,21.5325482 8.53010197,21.0255545 8.44807031,20.7954102 C8.36603865,20.5652658 8.2327392,20.3863939 8.04816797,20.2587891 C7.86359673,20.1311843 7.64143098,20.0673828 7.38166406,20.0673828 C7.0489801,20.0673828 6.75048049,20.1585277 6.48615625,20.3408203 C6.22183201,20.5231129 6.04068148,20.7646469 5.94269922,21.0654297 C5.84471696,21.3662124 5.79572656,21.9221965 5.79572656,22.7333984 L5.79572656,26.0214844 L3.87482812,26.0214844 L3.87482812,18.7617188 L5.65900781,18.7617188 L5.65900781,19.828125 C6.29247452,19.0078084 7.08999259,18.5976562 8.05158594,18.5976562 C8.47541618,18.5976562 8.8627821,18.6739901 9.21369531,18.8266602 C9.56460852,18.9793302 9.83006811,19.1741525 10.010082,19.4111328 C10.1900959,19.6481132 10.3154202,19.9169907 10.3860586,20.2177734 C10.456697,20.5185562 10.4920156,20.9492159 10.4920156,21.5097656 L10.4920156,26.0214844 Z M15.7203594,18.7617188 L15.7203594,20.2929688 L14.4078594,20.2929688 L14.4078594,23.21875 C14.4078594,23.8112009 14.4203918,24.1564123 14.445457,24.2543945 C14.4705223,24.3523768 14.5274878,24.4332679 14.6163555,24.4970703 C14.7052231,24.5608727 14.8134577,24.5927734 14.9410625,24.5927734 C15.1187978,24.5927734 15.3762822,24.5312506 15.7135234,24.4082031 L15.8775859,25.8984375 C15.4309691,26.0898447 14.9251148,26.1855469 14.3600078,26.1855469 C14.0136519,26.1855469 13.7014806,26.127442 13.4234844,26.0112305 C13.1454882,25.895019 12.9415514,25.7446298 12.811668,25.5600586 C12.6817845,25.3754874 12.5917789,25.1259781 12.5416484,24.8115234 C12.5006326,24.588215 12.480125,24.1370477 12.480125,23.4580078 L12.480125,20.2929688 L11.5982891,20.2929688 L11.5982891,18.7617188 L12.480125,18.7617188 L12.480125,17.3193359 L14.4078594,16.1982422 L14.4078594,18.7617188 L15.7203594,18.7617188 Z M21.2084687,23.7109375 L23.1225312,24.0322266 C22.8764363,24.734053 22.487931,25.2683901 21.9570039,25.6352539 C21.4260768,26.0021177 20.7618581,26.1855469 19.9643281,26.1855469 C18.701952,26.1855469 17.7677166,25.7731161 17.1615937,24.9482422 C16.6830757,24.2874316 16.4438203,23.4534556 16.4438203,22.4462891 C16.4438203,21.243158 16.7582703,20.3009474 17.3871797,19.6196289 C18.0160891,18.9383104 18.8113285,18.5976562 19.7729219,18.5976562 C20.8530054,18.5976562 21.7052104,18.9542608 22.3295625,19.6674805 C22.9539146,20.3807002 23.2524142,21.4732999 23.2250703,22.9453125 L18.4125703,22.9453125 C18.4262422,23.5149768 18.5811886,23.958169 18.8774141,24.2749023 C19.1736395,24.5916357 19.5427764,24.75 19.9848359,24.75 C20.2856187,24.75 20.5385458,24.6679696 20.743625,24.5039062 C20.9487041,24.3398429 21.1036505,24.0755227 21.2084687,23.7109375 Z M21.3178437,21.7695312 C21.3041718,21.2135389 21.1606185,20.7908543 20.8871797,20.5014648 C20.6137408,20.2120754 20.2810618,20.0673828 19.8891328,20.0673828 C19.4698599,20.0673828 19.1235092,20.2200506 18.8500703,20.5253906 C18.5766314,20.8307307 18.4421927,21.2454401 18.44675,21.7695312 L21.3178437,21.7695312 Z M26.5803672,26.0214844 L24.6594687,26.0214844 L24.6594687,18.7617188 L26.4436484,18.7617188 L26.4436484,19.7939453 C26.7489885,19.3063127 27.0235626,18.9850268 27.2673789,18.8300781 C27.5111952,18.6751294 27.7880479,18.5976562 28.0979453,18.5976562 C28.5354475,18.5976562 28.9569928,18.7184233 29.3625937,18.9599609 L28.7678672,20.6347656 C28.4442979,20.4251292 28.1435196,20.3203125 27.8655234,20.3203125 C27.5966419,20.3203125 27.3687796,20.3943677 27.1819297,20.5424805 C26.9950798,20.6905932 26.8481086,20.9583314 26.7410117,21.3457031 C26.6339148,21.7330749 26.5803672,22.5442647 26.5803672,23.7792969 L26.5803672,26.0214844 Z M34.3448437,23.7109375 L36.2589062,24.0322266 C36.0128113,24.734053 35.624306,25.2683901 35.0933789,25.6352539 C34.5624518,26.0021177 33.8982331,26.1855469 33.1007031,26.1855469 C31.838327,26.1855469 30.9040916,25.7731161 30.2979687,24.9482422 C29.8194507,24.2874316 29.5801953,23.4534556 29.5801953,22.4462891 C29.5801953,21.243158 29.8946453,20.3009474 30.5235547,19.6196289 C31.1524641,18.9383104 31.9477035,18.5976562 32.9092969,18.5976562 C33.9893804,18.5976562 34.8415854,18.9542608 35.4659375,19.6674805 C36.0902896,20.3807002 36.3887892,21.4732999 36.3614453,22.9453125 L31.5489453,22.9453125 C31.5626172,23.5149768 31.7175636,23.958169 32.0137891,24.2749023 C32.3100145,24.5916357 32.6791514,24.75 33.1212109,24.75 C33.4219937,24.75 33.6749208,24.6679696 33.88,24.5039062 C34.0850791,24.3398429 34.2400255,24.0755227 34.3448437,23.7109375 Z M34.4542187,21.7695312 C34.4405468,21.2135389 34.2969935,20.7908543 34.0235547,20.5014648 C33.7501158,20.2120754 33.4174368,20.0673828 33.0255078,20.0673828 C32.6062349,20.0673828 32.2598842,20.2200506 31.9864453,20.5253906 C31.7130064,20.8307307 31.5785677,21.2454401 31.583125,21.7695312 L34.4542187,21.7695312 Z M37.2011172,23.9501953 L39.1288515,23.65625 C39.2108832,24.0299498 39.3772227,24.3136384 39.627875,24.5073242 C39.8785273,24.7010101 40.2294352,24.7978516 40.6806094,24.7978516 C41.1773566,24.7978516 41.5510508,24.7067066 41.8017031,24.5244141 C41.9703237,24.3968093 42.0546328,24.2259125 42.0546328,24.0117188 C42.0546328,23.8658847 42.0090603,23.7451177 41.917914,23.6494141 C41.8222104,23.5582678 41.6080199,23.4739587 41.2753359,23.3964844 C39.725849,23.0546858 38.7437625,22.7425144 38.3290469,22.4599609 C37.7548252,22.0680319 37.4677187,21.523441 37.4677187,20.8261719 C37.4677187,20.1972625 37.7160886,19.6686219 38.2128359,19.2402344 C38.7095832,18.8118468 39.4797578,18.5976562 40.5233828,18.5976562 C41.5168773,18.5976562 42.2551512,18.7594385 42.7382265,19.0830078 C43.2213019,19.4065771 43.5539808,19.885088 43.7362734,20.5185547 L41.92475,20.8535156 C41.8472756,20.5709621 41.7003045,20.3544929 41.483832,20.2041016 C41.2673596,20.0537102 40.9586062,19.9785156 40.5575625,19.9785156 C40.0517006,19.9785156 39.6893995,20.0491529 39.4706484,20.1904297 C39.3248144,20.2906906 39.2518984,20.4205721 39.2518984,20.5800781 C39.2518984,20.7167976 39.3156999,20.8330073 39.4433047,20.9287109 C39.6164826,21.0563157 40.2146212,21.236327 41.2377383,21.46875 C42.2608554,21.701173 42.9752037,21.9860009 43.3808047,22.3232422 C43.7818483,22.6650408 43.9823672,23.141273 43.9823672,23.7519531 C43.9823672,24.417321 43.7043752,24.9892554 43.1483828,25.4677734 C42.5923904,25.9462915 41.7698075,26.1855469 40.6806094,26.1855469 C39.6916721,26.1855469 38.9089651,25.985028 38.3324648,25.5839844 C37.7559646,25.1829407 37.3788524,24.6383498 37.2011172,23.9501953 Z M48.9441094,18.7617188 L48.9441094,20.2929688 L47.6316094,20.2929688 L47.6316094,23.21875 C47.6316094,23.8112009 47.6441418,24.1564123 47.669207,24.2543945 C47.6942722,24.3523768 47.7512378,24.4332679 47.8401055,24.4970703 C47.9289731,24.5608727 48.0372077,24.5927734 48.1648125,24.5927734 C48.3425477,24.5927734 48.6000322,24.5312506 48.9372734,24.4082031 L49.1013359,25.8984375 C48.6547191,26.0898447 48.1488648,26.1855469 47.5837578,26.1855469 C47.2374019,26.1855469 46.9252305,26.127442 46.6472344,26.0112305 C46.3692382,25.895019 46.1653014,25.7446298 46.035418,25.5600586 C45.9055345,25.3754874 45.8155289,25.1259781 45.7653984,24.8115234 C45.7243826,24.588215 45.703875,24.1370477 45.703875,23.4580078 L45.703875,20.2929688 L44.822039,20.2929688 L44.822039,18.7617188 L45.703875,18.7617188 L45.703875,17.3193359 L47.6316094,16.1982422 L47.6316094,18.7617188 L48.9441094,18.7617188 Z M50.2281172,17.7773438 L50.2281172,16 L52.1490156,16 L52.1490156,17.7773438 L50.2281172,17.7773438 Z M50.2281172,26.0214844 L50.2281172,18.7617188 L52.1490156,18.7617188 L52.1490156,26.0214844 L50.2281172,26.0214844 Z M60.6722812,26.0214844 L58.7513828,26.0214844 L58.7513828,22.3164062 C58.7513828,21.5325482 58.7103676,21.0255545 58.6283359,20.7954102 C58.5463043,20.5652658 58.4130048,20.3863939 58.2284336,20.2587891 C58.0438623,20.1311843 57.8216966,20.0673828 57.5619297,20.0673828 C57.2292457,20.0673828 56.9307461,20.1585277 56.6664219,20.3408203 C56.4020976,20.5231129 56.2209471,20.7646469 56.1229648,21.0654297 C56.0249826,21.3662124 55.9759922,21.9221965 55.9759922,22.7333984 L55.9759922,26.0214844 L54.0550937,26.0214844 L54.0550937,18.7617188 L55.8392734,18.7617188 L55.8392734,19.828125 C56.4727401,19.0078084 57.2702582,18.5976562 58.2318515,18.5976562 C58.6556818,18.5976562 59.0430477,18.6739901 59.3939609,18.8266602 C59.7448741,18.9793302 60.0103337,19.1741525 60.1903476,19.4111328 C60.3703616,19.6481132 60.4956858,19.9169907 60.5663242,20.2177734 C60.6369626,20.5185562 60.6722812,20.9492159 60.6722812,21.5097656 L60.6722812,26.0214844 Z M62.393789,26.5 L64.588125,26.7666016 C64.6245835,27.0218112 64.7088925,27.1972651 64.8410547,27.2929688 C65.0233472,27.4296882 65.3104537,27.4980469 65.7023828,27.4980469 C66.2036874,27.4980469 66.5796602,27.4228523 66.8303125,27.2724609 C66.9989331,27.1722 67.126536,27.0104178 67.213125,26.7871094 C67.2723701,26.6276034 67.3019922,26.333661 67.3019922,25.9052734 L67.3019922,24.8457031 C66.7277705,25.6295612 66.0031684,26.0214844 65.128164,26.0214844 C64.1528987,26.0214844 63.3804455,25.6090536 62.8107812,24.7841797 C62.3641644,24.1324837 62.1408594,23.3212939 62.1408594,22.3505859 C62.1408594,21.133783 62.4336624,20.2041048 63.0192773,19.5615234 C63.6048922,18.9189421 64.3329123,18.5976562 65.2033594,18.5976562 C66.1011503,18.5976562 66.8417028,18.991858 67.425039,19.7802734 L67.425039,18.7617188 L69.2228906,18.7617188 L69.2228906,25.2763672 C69.2228906,26.1331423 69.1522533,26.7734354 69.0109765,27.1972656 C68.8696998,27.6210959 68.6714596,27.9537748 68.41625,28.1953125 C68.1610404,28.4368502 67.8203862,28.6259759 67.3942773,28.7626953 C66.9681684,28.8994147 66.4292741,28.9677734 65.7775781,28.9677734 C64.5471032,28.9677734 63.6743906,28.7570008 63.159414,28.3354492 C62.6444375,27.9138976 62.3869531,27.3795605 62.3869531,26.7324219 C62.3869531,26.6686195 62.3892317,26.5911463 62.393789,26.5 Z M64.1096094,22.2412109 C64.1096094,23.0113971 64.2588592,23.5753563 64.5573633,23.9331055 C64.8558674,24.2908547 65.223865,24.4697266 65.6613672,24.4697266 C66.1307706,24.4697266 66.527251,24.2862974 66.8508203,23.9194336 C67.1743896,23.5525698 67.3361719,23.0091182 67.3361719,22.2890625 C67.3361719,21.5371056 67.1812255,20.978843 66.8713281,20.6142578 C66.5614307,20.2496727 66.1695076,20.0673828 65.6955469,20.0673828 C65.2352581,20.0673828 64.8558674,20.2462547 64.5573633,20.6040039 C64.2588592,20.9617531 64.1096094,21.5074833 64.1096094,22.2412109 Z M76.3504765,20.9765625 L74.6073125,20.6621094 C74.803277,19.9602829 75.1405132,19.4407569 75.6190312,19.1035156 C76.0975492,18.7662744 76.8084796,18.5976562 77.7518437,18.5976562 C78.6086188,18.5976562 79.2466333,18.699055 79.6659062,18.9018555 C80.0851792,19.104656 80.3802608,19.3621404 80.5511601,19.6743164 C80.7220594,19.9864924 80.8075078,20.5595661 80.8075078,21.3935547 L80.787,23.6357422 C80.787,24.2737662 80.8177614,24.7443019 80.8792851,25.0473633 C80.9408089,25.3504247 81.0558793,25.6751285 81.2245,26.0214844 L79.3241093,26.0214844 C79.2739789,25.8938796 79.2124561,25.7047539 79.139539,25.4541016 C79.1076378,25.3401687 79.0848516,25.2649741 79.0711797,25.2285156 C78.743053,25.5475276 78.3921451,25.7867831 78.0184453,25.9462891 C77.6447455,26.1057951 77.2459865,26.1855469 76.8221562,26.1855469 C76.0747567,26.1855469 75.4857326,25.9827494 75.0550664,25.5771484 C74.6244002,25.1715475 74.4090703,24.6588573 74.4090703,24.0390625 C74.4090703,23.6289042 74.5070511,23.2631852 74.7030156,22.9418945 C74.8989801,22.6206039 75.1735542,22.3745126 75.5267461,22.2036133 C75.8799379,22.032714 76.3892102,21.8834642 77.0545781,21.7558594 C77.952369,21.5872387 78.5744331,21.4300138 78.920789,21.2841797 L78.920789,21.0927734 C78.920789,20.723631 78.8296441,20.46045 78.6473515,20.3032227 C78.465059,20.1459953 78.1209869,20.0673828 77.615125,20.0673828 C77.2733264,20.0673828 77.0067275,20.1346022 76.8153203,20.269043 C76.6239131,20.4034837 76.4689667,20.6393212 76.3504765,20.9765625 Z M78.920789,22.5351562 C78.6746941,22.6171879 78.2850495,22.7151687 77.7518437,22.8291016 C77.2186379,22.9430344 76.8700086,23.054687 76.7059453,23.1640625 C76.455293,23.3417978 76.3299687,23.5673814 76.3299687,23.8408203 C76.3299687,24.1097019 76.4302281,24.3421214 76.63075,24.5380859 C76.8312718,24.7340505 77.0864776,24.8320312 77.396375,24.8320312 C77.7427309,24.8320312 78.0731312,24.7181001 78.3875859,24.4902344 C78.6200089,24.3170564 78.7726767,24.1051445 78.8455937,23.8544922 C78.8957242,23.6904289 78.920789,23.3782575 78.920789,22.9179688 L78.920789,22.5351562 Z M89.2555781,26.0214844 L87.3346797,26.0214844 L87.3346797,22.3164062 C87.3346797,21.5325482 87.2936644,21.0255545 87.2116328,20.7954102 C87.1296011,20.5652658 86.9963017,20.3863939 86.8117304,20.2587891 C86.6271592,20.1311843 86.4049935,20.0673828 86.1452265,20.0673828 C85.8125426,20.0673828 85.514043,20.1585277 85.2497187,20.3408203 C84.9853945,20.5231129 84.8042439,20.7646469 84.7062617,21.0654297 C84.6082794,21.3662124 84.559289,21.9221965 84.559289,22.7333984 L84.559289,26.0214844 L82.6383906,26.0214844 L82.6383906,18.7617188 L84.4225703,18.7617188 L84.4225703,19.828125 C85.056037,19.0078084 85.8535551,18.5976562 86.8151484,18.5976562 C87.2389786,18.5976562 87.6263446,18.6739901 87.9772578,18.8266602 C88.328171,18.9793302 88.5936306,19.1741525 88.7736445,19.4111328 C88.9536584,19.6481132 89.0789827,19.9169907 89.1496211,20.2177734 C89.2202594,20.5185562 89.2555781,20.9492159 89.2555781,21.5097656 L89.2555781,26.0214844 Z M97.8130234,26.0214844 L96.0288437,26.0214844 L96.0288437,24.9550781 C95.7326183,25.3697937 95.3828496,25.6785472 94.9795273,25.8813477 C94.576205,26.0841481 94.1694708,26.1855469 93.7593125,26.1855469 C92.9253239,26.1855469 92.2109756,25.84945 91.6162461,25.1772461 C91.0215165,24.5050422 90.7241562,23.5673888 90.7241562,22.3642578 C90.7241562,21.1337829 91.0135413,20.1984081 91.5923203,19.5581055 C92.1710992,18.9178028 92.9025372,18.5976562 93.7866562,18.5976562 C94.5978582,18.5976562 95.2996741,18.9348925 95.892125,19.609375 L95.892125,16 L97.8130234,16 L97.8130234,26.0214844 Z M92.6860703,22.234375 C92.6860703,23.0091185 92.7931656,23.5696597 93.0073593,23.9160156 C93.3172567,24.4173202 93.7501951,24.6679688 94.3061875,24.6679688 C94.748247,24.6679688 95.1242198,24.4799823 95.4341172,24.1040039 C95.7440145,23.7280255 95.8989609,23.1663449 95.8989609,22.4189453 C95.8989609,21.5849568 95.7485718,20.9845396 95.447789,20.6176758 C95.1470063,20.250812 94.761919,20.0673828 94.2925156,20.0673828 C93.8367841,20.0673828 93.4551148,20.2485333 93.1474961,20.6108398 C92.8398773,20.9731463 92.6860703,21.5143193 92.6860703,22.234375 Z" id="Isaysomething,itisreallyinterestingand" fill="#50525B"></path>
                    <path d="M106.724789,19.0625 C107.226094,19.0625 107.718276,19.1923815 108.201352,19.4521484 C108.684427,19.7119154 109.0604,20.0833309 109.329281,20.5664062 C109.598163,21.0494816 109.732602,21.5507787 109.732602,22.0703125 C109.732602,22.904301 109.438659,23.6152314 108.850766,24.203125 C108.262872,24.7910186 107.55422,25.0849609 106.724789,25.0849609 C105.8908,25.0849609 105.17987,24.7910186 104.591977,24.203125 C104.004083,23.6152314 103.710141,22.904301 103.710141,22.0703125 C103.710141,21.5462213 103.844579,21.043785 104.113461,20.5629883 C104.382342,20.0821916 104.758315,19.7119154 105.241391,19.4521484 C105.724466,19.1923815 106.218927,19.0625 106.724789,19.0625 Z" id="●" fill="#FF7575"></path>
                    <path d="M115.13511,19.0625 C115.636415,19.0625 116.128598,19.1923815 116.611673,19.4521484 C117.094748,19.7119154 117.470721,20.0833309 117.739603,20.5664062 C118.008484,21.0494816 118.142923,21.5507787 118.142923,22.0703125 C118.142923,22.904301 117.848981,23.6152314 117.261087,24.203125 C116.673193,24.7910186 115.964542,25.0849609 115.13511,25.0849609 C114.301122,25.0849609 113.590191,24.7910186 113.002298,24.203125 C112.414404,23.6152314 112.120462,22.904301 112.120462,22.0703125 C112.120462,21.5462213 112.254901,21.043785 112.523782,20.5629883 C112.792664,20.0821916 113.168637,19.7119154 113.651712,19.4521484 C114.134787,19.1923815 114.629248,19.0625 115.13511,19.0625 Z M123.545432,19.0625 C124.046736,19.0625 124.538919,19.1923815 125.021994,19.4521484 C125.50507,19.7119154 125.881042,20.0833309 126.149924,20.5664062 C126.418805,21.0494816 126.553244,21.5507787 126.553244,22.0703125 C126.553244,22.904301 126.259302,23.6152314 125.671408,24.203125 C125.083515,24.7910186 124.374863,25.0849609 123.545432,25.0849609 C122.711443,25.0849609 122.000513,24.7910186 121.412619,24.203125 C120.824726,23.6152314 120.530783,22.904301 120.530783,22.0703125 C120.530783,21.5462213 120.665222,21.043785 120.934104,20.5629883 C121.202985,20.0821916 121.578958,19.7119154 122.062033,19.4521484 C122.545109,19.1923815 123.03957,19.0625 123.545432,19.0625 Z M131.955753,19.0625 C132.457058,19.0625 132.94924,19.1923815 133.432316,19.4521484 C133.915391,19.7119154 134.291364,20.0833309 134.560245,20.5664062 C134.829127,21.0494816 134.963566,21.5507787 134.963566,22.0703125 C134.963566,22.904301 134.669623,23.6152314 134.08173,24.203125 C133.493836,24.7910186 132.785184,25.0849609 131.955753,25.0849609 C131.121765,25.0849609 130.410834,24.7910186 129.822941,24.203125 C129.235047,23.6152314 128.941105,22.904301 128.941105,22.0703125 C128.941105,21.5462213 129.075543,21.043785 129.344425,20.5629883 C129.613307,20.0821916 129.989279,19.7119154 130.472355,19.4521484 C130.95543,19.1923815 131.449891,19.0625 131.955753,19.0625 Z M140.366074,19.0625 C140.867379,19.0625 141.359562,19.1923815 141.842637,19.4521484 C142.325712,19.7119154 142.701685,20.0833309 142.970567,20.5664062 C143.239448,21.0494816 143.373887,21.5507787 143.373887,22.0703125 C143.373887,22.904301 143.079945,23.6152314 142.492051,24.203125 C141.904157,24.7910186 141.195506,25.0849609 140.366074,25.0849609 C139.532086,25.0849609 138.821155,24.7910186 138.233262,24.203125 C137.645368,23.6152314 137.351426,22.904301 137.351426,22.0703125 C137.351426,21.5462213 137.485865,21.043785 137.754746,20.5629883 C138.023628,20.0821916 138.399601,19.7119154 138.882676,19.4521484 C139.365751,19.1923815 139.860213,19.0625 140.366074,19.0625 Z M148.776396,19.0625 C149.2777,19.0625 149.769883,19.1923815 150.252958,19.4521484 C150.736034,19.7119154 151.112006,20.0833309 151.380888,20.5664062 C151.64977,21.0494816 151.784208,21.5507787 151.784208,22.0703125 C151.784208,22.904301 151.490266,23.6152314 150.902372,24.203125 C150.314479,24.7910186 149.605827,25.0849609 148.776396,25.0849609 C147.942407,25.0849609 147.231477,24.7910186 146.643583,24.203125 C146.05569,23.6152314 145.761747,22.904301 145.761747,22.0703125 C145.761747,21.5462213 145.896186,21.043785 146.165068,20.5629883 C146.433949,20.0821916 146.809922,19.7119154 147.292997,19.4521484 C147.776073,19.1923815 148.270534,19.0625 148.776396,19.0625 Z M157.186717,19.0625 C157.688022,19.0625 158.180204,19.1923815 158.66328,19.4521484 C159.146355,19.7119154 159.522328,20.0833309 159.791209,20.5664062 C160.060091,21.0494816 160.19453,21.5507787 160.19453,22.0703125 C160.19453,22.904301 159.900587,23.6152314 159.312694,24.203125 C158.7248,24.7910186 158.016148,25.0849609 157.186717,25.0849609 C156.352729,25.0849609 155.641798,24.7910186 155.053905,24.203125 C154.466011,23.6152314 154.172069,22.904301 154.172069,22.0703125 C154.172069,21.5462213 154.306507,21.043785 154.575389,20.5629883 C154.844271,20.0821916 155.220243,19.7119154 155.703319,19.4521484 C156.186394,19.1923815 156.680855,19.0625 157.186717,19.0625 Z M165.597038,19.0625 C166.098343,19.0625 166.590526,19.1923815 167.073601,19.4521484 C167.556676,19.7119154 167.932649,20.0833309 168.201531,20.5664062 C168.470412,21.0494816 168.604851,21.5507787 168.604851,22.0703125 C168.604851,22.904301 168.310909,23.6152314 167.723015,24.203125 C167.135121,24.7910186 166.42647,25.0849609 165.597038,25.0849609 C164.76305,25.0849609 164.05212,24.7910186 163.464226,24.203125 C162.876332,23.6152314 162.58239,22.904301 162.58239,22.0703125 C162.58239,21.5462213 162.716829,21.043785 162.98571,20.5629883 C163.254592,20.0821916 163.630565,19.7119154 164.11364,19.4521484 C164.596715,19.1923815 165.091177,19.0625 165.597038,19.0625 Z M174.00736,19.0625 C174.508664,19.0625 175.000847,19.1923815 175.483922,19.4521484 C175.966998,19.7119154 176.34297,20.0833309 176.611852,20.5664062 C176.880734,21.0494816 177.015172,21.5507787 177.015172,22.0703125 C177.015172,22.904301 176.72123,23.6152314 176.133336,24.203125 C175.545443,24.7910186 174.836791,25.0849609 174.00736,25.0849609 C173.173371,25.0849609 172.462441,24.7910186 171.874547,24.203125 C171.286654,23.6152314 170.992711,22.904301 170.992711,22.0703125 C170.992711,21.5462213 171.12715,21.043785 171.396032,20.5629883 C171.664913,20.0821916 172.040886,19.7119154 172.523961,19.4521484 C173.007037,19.1923815 173.501498,19.0625 174.00736,19.0625 Z" id="●●●●●●●●" fill="#45B8FF"></path>
                    <polygon id="." fill="#50525B" points="179.191119 26.0214844 179.191119 24.1005859 181.112017 24.1005859 181.112017 26.0214844"></polygon>
                </g>
            </g>
        </g>
    </g>
</svg>