<?xml version="1.0" encoding="UTF-8"?>
<svg width="374px" height="540px" viewBox="0 0 374 540" version="1.1" xmlns="http://www.w3.org/2000/svg" xmlns:xlink="http://www.w3.org/1999/xlink">
    <!-- Generator: Sketch 53.2 (72643) - https://sketchapp.com -->
    <title>2</title>
    <desc>Created with Sketch.</desc>
    <g id="Page-4" stroke="none" stroke-width="1" fill="none" fill-rule="evenodd">
        <g id="2" transform="translate(-18.000000, 2.000000)">
            <g id="губы" transform="translate(196.500000, 266.000000) scale(-1, 1) translate(-196.500000, -266.000000) translate(0.000000, 0.000000)" stroke="#D548AF" stroke-linecap="round" stroke-linejoin="round" stroke-width="20">
                <g id="конечности" transform="translate(0.180907, 0.211581)">
                    <g id="рука-1" transform="translate(159.416783, 95.098168) scale(-1, 1) rotate(-76.000000) translate(-159.416783, -95.098168) translate(81.916783, 16.098168)">
                        <path d="M126,26.989573 C87.9120355,23.6822476 60.8196826,35.7848027 44.7229415,63.2972383 C28.6262004,90.809674 24.8890299,122.862995 33.5114301,159.4572" id="Path-19-Copy-3" transform="translate(77.500000, 92.957200) scale(-1, 1) rotate(-75.000000) translate(-77.500000, -92.957200) "></path>
                        <path d="M128.4575,29.8642188 L108.858186,10.8642188 L128.4575,29.8642188 Z M129.964615,29.7282469 L149.563929,10.7282469 L129.964615,29.7282469 Z M129.964615,29.7282469 L128.71134,1.86421876 L129.964615,29.7282469 Z" id="Combined-Shape" transform="translate(129.211058, 15.496814) rotate(1.000000) translate(-129.211058, -15.496814) "></path>
                    </g>
                    <g id="рука-1-copy" transform="translate(295.092225, 142.089989) rotate(-16.000000) translate(-295.092225, -142.089989) translate(217.592225, 63.089989)">
                        <path d="M126,26.989573 C87.9120355,23.6822476 60.8196826,35.7848027 44.7229415,63.2972383 C28.6262004,90.809674 24.8890299,122.862995 33.5114301,159.4572" id="Path-19-Copy-3" transform="translate(77.500000, 92.957200) scale(-1, 1) rotate(-75.000000) translate(-77.500000, -92.957200) "></path>
                        <path d="M128.4575,29.8642188 L108.858186,10.8642188 L128.4575,29.8642188 Z M129.964615,29.7282469 L149.563929,10.7282469 L129.964615,29.7282469 Z M129.964615,29.7282469 L128.71134,1.86421876 L129.964615,29.7282469 Z" id="Combined-Shape" transform="translate(129.211058, 15.496814) rotate(1.000000) translate(-129.211058, -15.496814) "></path>
                    </g>
                    <g id="Group" transform="translate(98.114071, 439.364098) rotate(11.000000) translate(-98.114071, -439.364098) translate(14.114071, 362.364098)">
                        <path d="M39.3409834,0.335167704 C13.6743167,16.7869116 0.840983374,36.6522458 0.840983374,59.9311705 C0.840983374,83.2100952 13.6743167,108.930137 39.3409834,137.091295 L15.3409834,153.335168" id="Path-19-Copy-2"></path>
                        <path d="M167.435218,0.38461955 C141.768551,16.8363634 128.935218,36.7016977 128.935218,59.9806224 C128.935218,83.2595471 141.768551,108.979589 167.435218,137.140747 L143.435218,153.38462" id="Path-19-Copy-7" transform="translate(148.185218, 76.884620) scale(-1, 1) translate(-148.185218, -76.884620) "></path>
                    </g>
                </g>
            </g>
            <path d="M25.4888618,261.532996 C29.0176951,253.922773 34.102781,250.934155 40.7441197,252.567142 C47.3854584,254.200129 51.3003724,250.188747 52.4888618,240.532996" id="Path-4" stroke="#FF80B9" stroke-width="7" opacity="0.400692894" stroke-linecap="round" transform="translate(38.988862, 251.032996) scale(-1, 1) rotate(24.000000) translate(-38.988862, -251.032996) "></path>
            <path d="M28.713867,248.659152 C32.2082838,238.770962 38.3716907,234.091847 47.2040877,234.621806 C56.0364847,235.151764 60.5397445,229.497546 60.713867,217.659152" id="Path-4-Copy" stroke="#FF80B9" stroke-width="7" opacity="0.598423549" stroke-linecap="round" transform="translate(44.713867, 233.159152) scale(-1, 1) rotate(24.000000) translate(-44.713867, -233.159152) "></path>
            <path d="M359.167123,184.873719 C362.695956,177.263496 367.781042,174.274878 374.422381,175.907865 C381.063719,177.540852 384.978633,173.52947 386.167123,163.873719" id="Path-4" stroke="#FF80B9" stroke-width="7" opacity="0.400692894" stroke-linecap="round" transform="translate(372.667123, 174.373719) rotate(13.000000) translate(-372.667123, -174.373719) "></path>
            <path d="M347.636812,173.42065 C351.131229,163.532461 357.294635,158.853345 366.127032,159.383304 C374.959429,159.913263 379.462689,154.259045 379.636812,142.42065" id="Path-4-Copy" stroke="#FF80B9" stroke-width="7" opacity="0.598423549" stroke-linecap="round" transform="translate(363.636812, 157.920650) rotate(13.000000) translate(-363.636812, -157.920650) "></path>
            <path d="M29.9358633,307.798004 C33.4646966,300.187781 38.5497825,297.199163 45.1911212,298.83215 C51.8324599,300.465137 55.7473739,296.453755 56.9358633,286.798004" id="Path-4-Copy-7" stroke="#FFD77D" stroke-width="7" opacity="0.598423549" stroke-linecap="round" transform="translate(43.435863, 297.298004) scale(-1, 1) rotate(47.000000) translate(-43.435863, -297.298004) "></path>
            <path d="M316.027526,249.669421 C309.300145,206.358703 342.321818,167.244192 311.027526,130.169421 C279.733233,93.0946493 202.326126,31.5404382 145.864004,130.169421 C89.4018808,228.798403 145.942419,332.961995 206.185331,366.13727 C278.099444,405.739779 249.434704,414.627277 296.137896,419.792358 C415.95739,433.043643 322.754906,292.980139 316.027526,249.669421 Z" id="Path-21" fill="#FFD1A5" transform="translate(239.741051, 248.778425) rotate(-4.000000) translate(-239.741051, -248.778425) "></path>
            <circle id="Oval" fill="#FFC28D" transform="translate(325.763999, 373.787924) rotate(-4.000000) translate(-325.763999, -373.787924) " cx="325.763999" cy="373.787924" r="7"></circle>
            <path d="M289.851139,339.396674 C273.221284,357.292188 239.071819,311.855924 247.903319,283.941242 C251.10324,273.826905 258.13134,265.45516 260.372584,265.45516 C267.259169,265.45516 272.841849,276.102743 272.841849,289.237201 C272.841849,302.37166 306.480995,321.50116 289.851139,339.396674 Z M234.468998,151.021178 C238.586545,137.553289 253.912739,130.300587 268.70101,134.821815 C283.489281,139.343043 292.139612,153.926104 288.022065,167.393994 C283.904518,180.861883 268.578324,188.114585 253.790053,183.593357 C239.001782,179.072129 230.351451,164.489068 234.468998,151.021178 Z" id="Combined-Shape" fill="#FFC28D" transform="translate(263.955876, 238.466279) rotate(-4.000000) translate(-263.955876, -238.466279) "></path>
            <path d="M239.287337,251.584713 C289.315,204.832436 303.844129,171.473066 282.874722,151.506603 C251.420612,121.556909 180.268774,115.657263 165.906309,193.535506 C160.37366,223.535438 163.215352,254.160936 174.431386,285.412001" id="Path-22" stroke="#F2AF7C" stroke-width="16" stroke-linecap="round" stroke-linejoin="round" transform="translate(227.664881, 208.162437) rotate(-4.000000) translate(-227.664881, -208.162437) "></path>
            <path d="M256.220712,283.605724 C270.045908,261.011602 280.593059,253.480228 287.862165,261.011602 C298.765824,272.308663 270.029696,297.832627 290.590482,310.284006 C311.151269,322.735385 307.176964,355.772062 281.53253,347.096734 C255.888095,338.421405 177.02809,278.441101 222.882474,223.727862" id="Path-23" stroke="#F2AF7C" stroke-width="16" stroke-linecap="round" stroke-linejoin="round" transform="translate(256.281561, 286.128800) rotate(-4.000000) translate(-256.281561, -286.128800) "></path>
            <ellipse id="Oval" fill="#F2AF7C" transform="translate(276.082739, 273.579094) rotate(-19.000000) translate(-276.082739, -273.579094) " cx="276.082739" cy="273.579094" rx="13.5" ry="13"></ellipse>
            <path d="M285.387989,160.844757 C255.146692,188.606534 235.615487,192.951584 226.794374,173.879907" id="Path-24" stroke="#F2AF7C" stroke-width="16" stroke-linecap="round" stroke-linejoin="round" transform="translate(256.091181, 173.187156) rotate(-4.000000) translate(-256.091181, -173.187156) "></path>
            <path d="M159.867061,149.632978 C148.774413,160.736322 137.580526,140.323228 162.18271,117.109826 C186.784893,93.8964254 215.962965,96.3945511 218.876843,107.113121 C220.520776,113.160253 216.676322,114.503379 195.125942,123.407541 C173.575561,132.311703 170.959708,138.529634 159.867061,149.632978 Z M223.435626,202.277073 C230.793514,210.924656 212.786217,215.956977 197.603464,196.942694 C182.420711,177.928411 203.23585,160.529257 207.341546,175.849459 C211.447242,191.169661 216.077738,193.629491 223.435626,202.277073 Z" id="Combined-Shape" fill="#FFDBB8" transform="translate(186.287545, 154.605971) rotate(-4.000000) translate(-186.287545, -154.605971) "></path>
        </g>
    </g>
</svg>