<?xml version="1.0" encoding="UTF-8"?>
<svg width="488px" height="327px" viewBox="0 0 488 327" version="1.1" xmlns="http://www.w3.org/2000/svg" xmlns:xlink="http://www.w3.org/1999/xlink">
    <!-- Generator: Sketch 53.2 (72643) - https://sketchapp.com -->
    <title>Group 3</title>
    <desc>Created with Sketch.</desc>
    <defs>
        <linearGradient x1="50%" y1="1.47012247%" x2="50%" y2="99.8830213%" id="linearGradient-1">
            <stop stop-color="#245FAB" offset="0%"></stop>
            <stop stop-color="#142E50" offset="99.9604096%"></stop>
        </linearGradient>
        <linearGradient x1="50%" y1="0%" x2="50%" y2="100.549048%" id="linearGradient-2">
            <stop stop-color="#6DE4FF" offset="0%"></stop>
            <stop stop-color="#5296EF" offset="100%"></stop>
        </linearGradient>
        <linearGradient x1="23.5638742%" y1="14.7421891%" x2="23.5638742%" y2="101.549851%" id="linearGradient-3">
            <stop stop-color="#9BEEFF" offset="0%"></stop>
            <stop stop-color="#6DE4FF" offset="100%"></stop>
        </linearGradient>
        <linearGradient x1="23.5638742%" y1="14.7421891%" x2="23.5638742%" y2="101.549851%" id="linearGradient-4">
            <stop stop-color="#9BEEFF" offset="0%"></stop>
            <stop stop-color="#6DE4FF" offset="100%"></stop>
        </linearGradient>
        <linearGradient x1="43.7652038%" y1="24.0251126%" x2="47.8525961%" y2="38.5677975%" id="linearGradient-5">
            <stop stop-color="#2D74D2" offset="0%"></stop>
            <stop stop-color="#9BECFF" offset="100%"></stop>
        </linearGradient>
    </defs>
    <g id="Page-2" stroke="none" stroke-width="1" fill="none" fill-rule="evenodd">
        <g id="Group-3" transform="translate(0.000000, 0.646460)">
            <path d="M221.294818,231.778004 C253.216261,221.579854 294.713798,209.164297 344.677702,193.035178 C344.378873,192.902296 344.08031,192.768329 343.782022,192.633281 C282.987057,165.108879 265.906927,141.31873 294.456116,119.615715 C247.067329,89.6542186 274.278173,83.9568667 350.936164,33.0742261 C377.591879,15.3811829 407.246721,40.7440904 399.848705,81.4730605 C448.591468,71.3598644 496.47971,97.8341596 472.72038,152.405698 C464.699752,170.82785 453.170122,183.882059 439.563444,192.296661 C472.588613,205.265611 489.758145,232.975128 465.817254,266.899847 C423.990908,326.168611 327.014266,333.387951 242.716439,309.842305 C228.629274,305.907549 216.155038,302.285132 205.245803,298.910436 C190.889221,318.906575 165.94194,330.554121 131.064989,324.439949 C78.1912898,315.170821 71.0467661,268.998896 107.334588,252.345876 C194.27611,212.447123 220.831933,190.839789 221.294818,231.778004 Z" id="Combined-Shape" fill="#9BECFF" opacity="0.195033482"></path>
            <path d="M131.034772,13.3535403 C109.517858,13.3535403 66.4255511,25.2947392 51.1472867,81.8854682 C42.4762128,114.003148 12.1772259,121.622286 2.70173027,125.749319 C-6.77376536,129.876352 11.327515,146.686715 16.3248607,151.739534 C23.3371263,158.829641 -2.82934714,163.296897 10.0417377,176.101013 C10.1243946,176.18324 10.2086614,176.26581 10.2945572,176.348727 C10.2945572,176.348727 9.94314565,176.544549 9.46712279,176.931442 C7.73045077,178.342939 4.33519506,182.297594 10.2945572,188.564679 C17.8873842,196.549576 -7.90614297,207.872934 2.70173027,228.771296 C13.3096035,249.669658 61.8487222,238.372319 77.4219233,249.659993 C92.9951244,260.947667 208.633503,228.012173 244.212238,187.348727 C288.819803,136.366102 295.555527,13.3535403 131.034772,13.3535403 Z" id="Path-15" fill="#FFDBB8"></path>
            <path d="M361.373172,236.261766 C345.4368,239.649147 329.446005,227.943418 325.656732,210.11629 C321.867459,192.289162 331.714628,175.091405 347.651,171.704025 C363.587372,168.316644 379.578167,180.022372 383.36744,197.849501 C387.156713,215.676629 377.309544,232.874386 361.373172,236.261766 Z M400.436874,230.980905 C395.473123,230.720766 391.69524,225.815314 391.998735,220.024272 C392.302231,214.233229 396.572178,209.749546 401.535929,210.009685 C406.499679,210.269824 410.277563,215.175276 409.974067,220.966319 C409.670571,226.757362 405.400624,231.241045 400.436874,230.980905 Z M399.345968,198.451198 C396.79845,200.105575 393.27022,199.193799 391.465445,196.414689 C389.66067,193.635579 390.262782,190.041528 392.810299,188.387151 C395.357816,186.732774 398.886046,187.64455 400.690821,190.42366 C402.495596,193.202769 401.893485,196.796821 399.345968,198.451198 Z M363.650378,102.572484 C365.424588,112.634528 358.705971,122.229709 348.643926,124.003918 C338.581881,125.778128 328.986701,119.059511 327.212491,108.997466 C325.438281,98.9354217 332.156899,89.3402416 342.218943,87.5660316 C352.280988,85.7918217 361.876168,92.5104391 363.650378,102.572484 Z M356.016911,83.5672478 C354.937937,81.0253438 355.711752,78.2649784 357.745275,77.401799 C359.778798,76.5386196 362.301976,77.8994948 363.38095,80.4413987 C364.459924,82.9833027 363.686109,85.7436681 361.652586,86.6068475 C359.619063,87.4700269 357.095885,86.1091517 356.016911,83.5672478 Z M308.90882,305.108823 C309.762147,307.735093 307.686188,310.763391 304.272037,311.872716 C300.857886,312.982041 297.398412,311.752314 296.545085,309.126044 C295.691758,306.499774 297.767716,303.471476 301.181867,302.362151 C304.596018,301.252826 308.055493,302.482553 308.90882,305.108823 Z M296.442184,299.724049 C281.231918,305.562723 263.606817,296.502623 257.075419,279.487749 C250.544021,262.472876 257.579633,243.946415 272.789899,238.107741 C288.000165,232.269067 305.625266,241.329167 312.156664,258.34404 C318.688062,275.358914 311.65245,293.885375 296.442184,299.724049 Z" id="Combined-Shape" fill="#D7F7FF"></path>
            <path d="M198.92001,177.65255 C250.662716,182.410877 262.148613,143.180233 262.148613,105.348727 C262.148613,67.5172221 234.614125,43.2459325 200.648613,33.3602332 C166.683101,23.4745338 111.436107,26.9630281 111.436107,64.7945335 C111.436107,82.9570503 142.568161,89.0148108 156.859586,111.291559 C172.336399,135.416029 172.018446,175.178646 198.92001,177.65255 Z" id="Oval" fill="url(#linearGradient-1)"></path>
            <ellipse id="Oval" fill="#FF8F8F" opacity="0.0938895089" transform="translate(58.525166, 155.843515) rotate(17.000000) translate(-58.525166, -155.843515) " cx="58.5251657" cy="155.843515" rx="27" ry="30"></ellipse>
            <path d="M80.2392421,123.100366 C89.6280828,123.100366 98.6640219,117.044199 98.6640219,107.9315 C98.6640219,98.8188021 93.9217769,90.5543854 84.5329361,90.5543854 C75.1440954,90.5543854 67.5329361,97.941687 67.5329361,107.054385 C67.5329361,116.167084 70.8504013,123.100366 80.2392421,123.100366 Z" id="Oval-Copy-7" fill="#FFD1A5" opacity="0.400022" transform="translate(83.098479, 106.827376) rotate(17.000000) translate(-83.098479, -106.827376) "></path>
            <path d="M58.0060592,112.50894 C59.6957832,120.50894 65.4933942,124.50894 75.3988924,124.50894 C90.2571395,124.50894 108.424564,114.498443 90.6541229,118.50894 C78.8071622,121.182604 67.9244742,119.182604 58.0060592,112.50894 Z" id="Path-26" fill="#50525B" transform="translate(78.006059, 118.508940) rotate(14.000000) translate(-78.006059, -118.508940) "></path>
            <path d="M113.962994,60.9380106 C135.037155,64.2350556 163.098991,51.7314464 198.148501,23.4271831 C250.722766,-19.0292119 374.954156,-5.22720024 350.516041,76.7188656 C326.077925,158.664931 317.840591,179.30327 370.547738,217.502522 C423.254884,255.701774 384.364017,334.342794 298.885383,293.531061 C213.406748,252.719328 333.495276,341.042327 192.567814,308.732907 C63.534137,279.150289 77.2638001,168.593507 198.148501,182.855936 C319.033202,197.118366 224.832856,92.2576656 174.08952,101.532512 C163.890191,94.3149096 143.184794,91.6658875 132.391344,84.4028895 C126.175277,80.2200484 120.032494,72.3984221 113.962994,60.9380106 Z" id="Path" fill="url(#linearGradient-2)"></path>
            <path d="M185.777468,183.617922 C28.233081,169.617577 42.885639,288.912378 140.720334,255.492788 C236.148794,222.895149 272.470487,270.624648 204.243237,284.790912 C158.739145,294.239087 188.336376,310.396684 231.976786,291.819916 C319.788224,254.440509 284.882065,210.989212 204.243237,231.843349 C142.973971,247.688292 145.914213,222.61855 157.991617,214.460302 C206.496824,181.695189 350.5,237.355903 350.5,152.687218 C350.5,103.007439 359.722557,155.991358 297.601949,180.35354 C271.751773,190.491347 232.071817,187.731917 185.777468,183.617922 Z" id="Combined-Shape" fill="#5296EF" opacity="0.229445685"></path>
            <path d="M209.933969,53.4443406 C301.943151,16.6365646 372.21487,19.5144028 400.938188,57.3994441 C416.230803,77.569864 409.140317,105.186241 411.39926,122.895118 C413.383172,138.447896 432.213988,150.329912 460.481063,134.872551 C523.856367,100.216863 465.295683,180.32113 410.130654,171.699698 C329.540437,159.104707 422.795872,79.3872388 363.995177,57.3994441 C345.22072,50.3789671 294.65346,43.5727872 246.571905,53.1414696 C231.312122,56.1783101 185.772026,63.1101954 209.933969,53.4443406 Z M215.918379,81.7409673 C202.013914,80.3136593 189.597963,75.3746058 199.243237,73.7851615 C307.081079,56.0145664 361,81.8489155 361,151.288209 C361,234.857301 201.496824,179.236207 152.991617,211.575798 C140.914213,219.628095 137.973971,244.372256 199.243237,228.733092 C279.882065,208.149788 314.788224,251.036782 226.976786,287.930742 C183.336376,306.266253 153.739145,290.318495 199.243237,280.993024 C267.470487,267.010737 227.263881,231.271928 131.835421,263.44622 C34.0007262,296.43179 23.233081,167.315447 180.777468,181.133969 C338.321855,194.952491 327.486575,134.347113 301.636985,104.07078 C283.824597,83.208021 255.138688,85.7669732 215.918379,81.7409673 Z" id="Combined-Shape-Copy" fill="url(#linearGradient-3)"></path>
            <path d="M209.933969,53.4443406 C301.943151,16.6365646 372.21487,19.5144028 400.938188,57.3994441 C416.230803,77.569864 409.140317,105.186241 411.39926,122.895118 C413.383172,138.447896 432.213988,150.329912 460.481063,134.872551 C523.856367,100.216863 465.295683,180.32113 410.130654,171.699698 C329.540437,159.104707 422.795872,79.3872388 363.995177,57.3994441 C345.22072,50.3789671 294.65346,43.5727872 246.571905,53.1414696 C231.312122,56.1783101 185.772026,63.1101954 209.933969,53.4443406 Z" id="Path-27" fill="url(#linearGradient-4)"></path>
            <path d="M148.663588,99.0379214 C157.541288,88.6380838 162.273577,87.1078334 162.860453,94.4471701 C163.740768,105.456175 163.58746,91.70496 172.025188,91.70496 C180.462917,91.70496 169.468368,104.025099 177.906096,102.048625 C186.343825,100.072151 193.163587,95.6219931 191.336453,106.231262 C189.509319,116.840531 190.50737,119.793606 202.540149,117.511858 C214.572927,115.23011 220.961738,133.534725 205.724456,133.534725 C190.487173,133.534725 222.95266,140.171065 202.540149,147.953124 C188.931808,153.141164 170.972954,136.836096 148.663588,99.0379214 Z" id="Path-5" stroke="#FFFFFF" stroke-width="4" fill="#FFFFFF" transform="translate(181.663588, 119.392347) rotate(10.000000) translate(-181.663588, -119.392347) "></path>
            <path d="M172.187322,116.36191 C171.756519,103.36884 188.907274,106.920955 184.005272,114.278086 C180.215449,119.966013 180.604169,125.91374 193.421206,121.779173 C206.238242,117.644606 207.047604,133.67381 194.394786,133.67381 C188.803258,133.67381 187.633907,135.12589 189.769415,137.15933 C192.466253,139.727271 199.086265,143.431559 193.723738,148.638616 C176.906146,164.968635 172.369093,121.844134 172.187322,116.36191 Z" id="Path-5-Copy" fill="#9BECFF" opacity="0.244931176" transform="translate(187.825108, 129.994095) rotate(10.000000) translate(-187.825108, -129.994095) "></path>
            <path d="M198.92001,177.65255 C206.724419,178.370253 213.612985,178.087207 219.684432,176.959156 C219.684432,176.959156 186.613485,176.686237 184.156714,137.110899 C181.823894,99.5322592 165.54995,83.8150532 132.364363,71.2648547 C113.905263,64.283951 118.154444,45.1663211 118.154444,45.1663211 C113.918521,50.2990704 111.436107,56.7752344 111.436107,64.7945335 C111.436107,82.9570503 142.568161,89.0148108 156.859586,111.291559 C172.336399,135.416029 172.018446,175.178646 198.92001,177.65255 Z" id="Oval-Copy-36" fill="url(#linearGradient-5)" opacity="0.206705729"></path>
            <path d="M198.92001,177.65255 C206.724419,178.370253 213.612985,178.087207 219.684432,176.959156 C219.684432,176.959156 183.639572,176.548352 181.182801,136.973013 C178.849981,99.3943737 160.632356,87.7279599 127.44677,75.1777614 C108.987669,68.1968577 118.154444,45.1663211 118.154444,45.1663211 C113.918521,50.2990704 111.436107,56.7752344 111.436107,64.7945335 C111.436107,82.9570503 142.568161,89.0148108 156.859586,111.291559 C172.336399,135.416029 172.018446,175.178646 198.92001,177.65255 Z" id="Oval-Copy-35" fill="#5296EF"></path>
            <g id="Group-Copy" transform="translate(190.544639, 55.808187) scale(1, -1) rotate(33.000000) translate(-190.544639, -55.808187) translate(185.544639, 54.808187)"></g>
            <g id="Group-2" transform="translate(191.041113, 52.233183) rotate(41.000000) translate(-191.041113, -52.233183) translate(185.041113, 37.733183)" stroke="#FFFFFF" stroke-linecap="round" stroke-linejoin="round" stroke-width="3">
                <path d="M0.895328088,22.4690118 C3.02991556,26.4690118 4.69658223,28.4690118 5.89532809,28.4690118 C7.09407395,28.4690118 8.76074061,26.4690118 10.8953281,22.4690118" id="Path-2" transform="translate(5.895328, 25.469012) rotate(-5.000000) translate(-5.895328, -25.469012) "></path>
                <path d="M6,27.7480905 C5.64028994,17.2401191 7.17514023,8.26231009 10.6045509,0.814663492" id="Path-6"></path>
            </g>
            <g id="Group-2-Copy" transform="translate(260.082351, 106.761304) rotate(105.000000) translate(-260.082351, -106.761304) translate(253.082351, 88.261304)" stroke="#FFFFFF" stroke-linecap="round" stroke-linejoin="round" stroke-width="3">
                <path d="M1.03924117,26.3720045 C3.68749644,33.0023311 5.76111498,36.3135119 7.26009679,36.3055471 C8.75907861,36.2975823 10.8536547,32.9642537 13.543825,26.3055614" id="Path-2" transform="translate(7.291533, 31.305561) rotate(-5.000000) translate(-7.291533, -31.305561) "></path>
                <path d="M7.07419615,35.2792156 C6.61062966,21.6241022 8.58862594,9.95743552 13.008185,0.279215576" id="Path-6"></path>
            </g>
        </g>
    </g>
</svg>