<?xml version="1.0" encoding="UTF-8"?>
<svg width="294px" height="334px" viewBox="0 0 294 334" version="1.1" xmlns="http://www.w3.org/2000/svg" xmlns:xlink="http://www.w3.org/1999/xlink">
    <!-- Generator: Sketch 53.2 (72643) - https://sketchapp.com -->
    <title>1</title>
    <desc>Created with Sketch.</desc>
    <g id="blog-illustration" stroke="none" stroke-width="1" fill="none" fill-rule="evenodd">
        <g id="1" transform="translate(9.000000, 9.000000)">
            <path d="M188,206 C188,234.377748 188,264.190627 188,295.438636 L160,316" id="Path-19-Copy" stroke="#5296EF" stroke-width="18" stroke-linecap="round" stroke-linejoin="round" transform="translate(174.000000, 261.000000) scale(-1, 1) translate(-174.000000, -261.000000) "></path>
            <path d="M118,206 C118,234.377748 118,264.190627 118,295.438636 L90,316" id="Path-19-Copy-10" stroke="#5296EF" stroke-width="18" stroke-linecap="round" stroke-linejoin="round"></path>
            <polygon id="Rectangle" fill="#428BEB" points="109 209 127 209 127 226 109 223"></polygon>
            <polygon id="Rectangle-Copy-21" fill="#428BEB" transform="translate(160.000000, 217.500000) scale(-1, 1) translate(-160.000000, -217.500000) " points="151 209 169 209 169 226 151 223"></polygon>
            <path d="M138,206 C188.810197,206 234.810197,177.833333 276,121.5 C234.810197,65.1666667 188.810197,37 138,37 C87.189803,37 41.189803,65.1666667 0,121.5 C41.189803,177.833333 87.189803,206 138,206 Z" id="Oval" stroke="#45B8FF" stroke-width="18" fill="#FFFFFF" stroke-linecap="round" stroke-linejoin="round"></path>
            <ellipse id="Oval" fill="#45B8FF" cx="138" cy="121.5" rx="81.7963636" ry="81.5"></ellipse>
            <path d="M152,101 C173.539105,101 191,111.434536 191,91 C191,70.5654643 173.539105,54 152,54 C130.460895,54 113,70.5654643 113,91 C113,111.434536 130.460895,101 152,101 Z" id="Oval" fill="#76D2FB" transform="translate(152.000000, 78.831906) rotate(13.000000) translate(-152.000000, -78.831906) "></path>
            <path d="M130.243956,184.371266 C159.791191,184.371266 183.743956,197.817884 183.743956,171.484619 C183.743956,145.151355 159.791191,123.804026 130.243956,123.804026 C100.696722,123.804026 76.7439565,145.151355 76.7439565,171.484619 C76.7439565,197.817884 100.696722,184.371266 130.243956,184.371266 Z" id="Oval-Copy-31" fill="#76D2FB" transform="translate(130.243956, 155.804026) scale(1, -1) rotate(-10.000000) translate(-130.243956, -155.804026) "></path>
            <path d="M138.570006,149.930991 C136.569826,149.930991 134.910611,149.276042 133.59231,147.966123 C132.27401,146.656204 131.61487,145.007538 131.61487,143.020075 C131.61487,139.496846 132.524029,135.634902 134.342374,131.434128 C136.160719,127.233354 138.979112,123.506917 142.797638,120.254705 C145.343321,118.086564 147.684405,115.941039 149.820961,113.818068 C151.957517,111.695096 153.684919,109.255974 155.003219,106.500627 C156.32152,103.745281 156.98066,100.380196 156.98066,96.4052698 C156.98066,93.5144147 156.298791,90.8042786 154.935032,88.2747804 C153.571273,85.7452822 151.63931,83.6900957 149.139085,82.1091593 C146.63886,80.528223 143.570449,79.7377666 139.933758,79.7377666 C135.478812,79.7377666 131.796718,80.5508074 128.887365,82.1769134 C125.978013,83.8030194 123.81876,86.0614661 122.409543,88.9523212 C121.000325,91.8431763 120.295727,95.2308463 120.295727,99.1154329 C120.295727,101.102896 119.659315,102.751562 118.386474,104.061481 C117.113632,105.371399 115.431688,106.026349 113.340591,106.026349 C111.340411,106.026349 109.681196,105.371399 108.362895,104.061481 C107.044595,102.751562 106.385455,101.102896 106.385455,99.1154329 C106.385455,92.7916873 107.771922,87.2359085 110.544899,82.4479297 C113.317875,77.659951 117.227259,73.888345 122.273167,71.1329987 C127.319076,68.3776525 133.20588,67 139.933758,67 C145.84338,67 151.093774,68.2421457 155.685096,70.7264743 C160.276417,73.2108029 163.913054,76.6436418 166.595113,81.0250941 C169.277172,85.4065464 170.618182,90.5332203 170.618182,96.4052698 C170.618182,101.464266 169.799939,105.845653 168.163428,109.549561 C166.526917,113.253469 164.299478,116.573386 161.481042,119.50941 C158.662607,122.445435 155.435092,125.358831 151.798402,128.249686 C149.434553,130.14681 147.798067,132.608517 146.888894,135.634881 C145.979721,138.661245 145.525142,141.122952 145.525142,143.020075 C145.525142,145.007538 144.888731,146.656204 143.615889,147.966123 C142.343047,149.276042 140.661103,149.930991 138.570006,149.930991 Z M138.570006,175 C136.024322,175 133.819612,174.074037 131.955808,172.222083 C130.092004,170.370129 129.160116,168.179435 129.160116,165.649937 C129.160116,163.0301 130.092004,160.794238 131.955808,158.942284 C133.819612,157.09033 136.024322,156.164366 138.570006,156.164366 C141.206607,156.164366 143.456775,157.09033 145.320579,158.942284 C147.184383,160.794238 148.116271,163.0301 148.116271,165.649937 C148.116271,168.179435 147.184383,170.370129 145.320579,172.222083 C143.456775,174.074037 141.206607,175 138.570006,175 Z" id="?" fill="#FFFFFF" fill-rule="nonzero"></path>
            <path d="M138.501818,30 L138.501818,-6.39488462e-14 L138.501818,30 Z M96.0322081,40.1892246 L87.1646706,11.2875697 L96.0322081,40.1892246 Z M179.670165,40.1892246 L188.537703,11.2875697 L179.670165,40.1892246 Z" id="Combined-Shape" stroke="#45B8FF" stroke-width="18" stroke-linecap="round" stroke-linejoin="round"></path>
        </g>
    </g>
</svg>