<?xml version="1.0" encoding="UTF-8"?>
<svg width="426px" height="535px" viewBox="0 0 426 535" version="1.1" xmlns="http://www.w3.org/2000/svg" xmlns:xlink="http://www.w3.org/1999/xlink">
    <!-- Generator: Sketch 53.2 (72643) - https://sketchapp.com -->
    <title>5.3</title>
    <desc>Created with Sketch.</desc>
    <defs>
        <rect id="path-1" x="0" y="0.99796334" width="250" height="489.002037" rx="40"></rect>
        <filter x="-14.8%" y="-6.7%" width="128.8%" height="114.7%" filterUnits="objectBoundingBox" id="filter-2">
            <feMorphology radius="3" operator="dilate" in="SourceAlpha" result="shadowSpreadOuter1"></feMorphology>
            <feOffset dx="-1" dy="3" in="shadowSpreadOuter1" result="shadowOffsetOuter1"></feOffset>
            <feGaussianBlur stdDeviation="8.5" in="shadowOffsetOuter1" result="shadowBlurOuter1"></feGaussianBlur>
            <feColorMatrix values="0 0 0 0 0.368526519   0 0 0 0 0.489322469   0 0 0 0 0.582257699  0 0 0 0.348776224 0" type="matrix" in="shadowBlurOuter1"></feColorMatrix>
        </filter>
        <rect id="path-3" x="0" y="0" width="220" height="92" rx="27"></rect>
        <filter x="-3.2%" y="-5.4%" width="106.4%" height="115.2%" filterUnits="objectBoundingBox" id="filter-4">
            <feMorphology radius="1.5" operator="erode" in="SourceAlpha" result="shadowSpreadOuter1"></feMorphology>
            <feOffset dx="0" dy="2" in="shadowSpreadOuter1" result="shadowOffsetOuter1"></feOffset>
            <feGaussianBlur stdDeviation="3.5" in="shadowOffsetOuter1" result="shadowBlurOuter1"></feGaussianBlur>
            <feColorMatrix values="0 0 0 0 0.666535488   0 0 0 0 0.764391284   0 0 0 0 0.823228034  0 0 0 1 0" type="matrix" in="shadowBlurOuter1"></feColorMatrix>
        </filter>
        <circle id="path-5" cx="25" cy="25" r="25"></circle>
        <filter x="-7.0%" y="-5.0%" width="114.0%" height="114.0%" filterUnits="objectBoundingBox" id="filter-6">
            <feMorphology radius="2.5" operator="erode" in="SourceAlpha" result="shadowSpreadOuter1"></feMorphology>
            <feOffset dx="0" dy="1" in="shadowSpreadOuter1" result="shadowOffsetOuter1"></feOffset>
            <feGaussianBlur stdDeviation="3.5" in="shadowOffsetOuter1" result="shadowBlurOuter1"></feGaussianBlur>
            <feColorMatrix values="0 0 0 0 0.360784314   0 0 0 0 0.466666667   0 0 0 0 0.615686275  0 0 0 1 0" type="matrix" in="shadowBlurOuter1"></feColorMatrix>
        </filter>
    </defs>
    <g id="Page-3" stroke="none" stroke-width="1" fill="none" fill-rule="evenodd">
        <g id="5.3" transform="translate(-22.000000, 19.000000)">
            <path d="M153.82945,474.709044 L149.343475,475.111782 C148.639356,466.626673 146.912363,458.816235 144.162495,451.680467 C136.426687,431.606441 100.659815,433.772181 74.643345,401.094336 C48.6268752,368.41649 32.1777136,351.373552 40.6966175,353.874685 C63.6595987,360.616571 104.075205,382.167502 127.6486,411.140443 C138.720893,424.748872 146.540717,439.268194 151.108074,454.698407 C148.397034,431.239289 142.588442,396.225342 118.116176,388.239405 C81.4556303,376.276115 69.5140137,331.864735 55.270838,319.734412 C41.0276623,307.604089 19.525653,306.174901 28.4538538,302.487429 C42.5475571,296.666531 113.650322,316.802845 132.87428,359.962543 C138.497194,372.586544 143.151458,388.090824 146.791956,403.621239 C145.956764,397.125274 145.161383,391.475383 144.405811,386.671553 C137.265554,341.274732 126.317126,328.946103 126.317126,289.741475 C126.317126,248.53717 142.097535,266.030905 161.254322,192.688207 C163.9942,182.198446 180.287661,211.150767 175.412801,278.691899 C173.193477,309.440613 156.526991,349.891239 154.439856,395.500315 C153.678646,412.134635 160.556363,441.514734 161.254322,474.8709 C161.27213,475.721966 159.503543,475.821622 155.948563,475.169868 C155.686946,476.296994 155.296927,476.739422 154.776722,476.384481 C154.41715,476.13914 154.107083,475.566557 153.82945,474.709044 Z" id="Combined-Shape-Copy-8" fill="#E6EAFF" transform="translate(101.333683, 333.549053) rotate(-11.000000) translate(-101.333683, -333.549053) "></path>
            <g id="Group-8" transform="translate(176.000000, 0.000000)">
                <g id="Rectangle">
                    <use fill="black" fill-opacity="1" filter="url(#filter-2)" xlink:href="#path-1"></use>
                    <use fill="#F6FAFF" fill-rule="evenodd" xlink:href="#path-1"></use>
                </g>
                <path d="M30,0.99796334 L220,0.99796334 C236.568542,0.99796334 250,14.4294208 250,30.9979633 L250,56.9979633 L0,56.9979633 L0,30.9979633 C-2.02906125e-15,14.4294208 13.4314575,0.99796334 30,0.99796334 Z" id="Rectangle-Copy-3" fill="#45B8FF"></path>
                <rect id="Rectangle-Copy" stroke="#000000" stroke-width="12" x="-6" y="-5.00203666" width="262" height="501.002037" rx="40"></rect>
                <path d="M57,0 L193,0 L193,6 C193,11.5228475 188.522847,16 183,16 L67,16 C61.4771525,16 57,11.5228475 57,6 L57,0 Z" id="Rectangle" fill="#000000"></path>
                <path d="M106,3 L144,3 C145.104569,3 146,3.8954305 146,5 C146,6.1045695 145.104569,7 144,7 L106,7 C104.895431,7 104,6.1045695 104,5 C104,3.8954305 104.895431,3 106,3 Z M152,3 C153.104569,3 154,3.8954305 154,5 C154,6.1045695 153.104569,7 152,7 C150.895431,7 150,6.1045695 150,5 C150,3.8954305 150.895431,3 152,3 Z" id="Combined-Shape" fill="#1A1A1A"></path>
                <text id="My-lessons" font-family="Kodchasan-SemiBold, Kodchasan SemiBold" font-size="22" font-weight="500" letter-spacing="-0.077" fill="#FFFFFF">
                    <tspan x="63.664" y="44">My lessons</tspan>
                </text>
            </g>
            <g id="уроки" transform="translate(191.000000, 78.000000)">
                <g id="Rectangle-Copy-2">
                    <use fill="black" fill-opacity="1" filter="url(#filter-4)" xlink:href="#path-3"></use>
                    <use fill="#FFFFFF" fill-rule="evenodd" xlink:href="#path-3"></use>
                </g>
                <text id="I-say-something,-it" font-family="Arial-BoldMT, Arial" font-size="14" font-weight="bold" letter-spacing="-0.0490000024">
                    <tspan x="18" y="33" fill="#50525B">I say something, it is really </tspan>
                    <tspan x="18" y="49" fill="#50525B">interesting and </tspan>
                    <tspan x="121.450375" y="49" letter-spacing="-0.0457333364" fill="#45B8FF">●●●●●●●●●</tspan>
                    <tspan x="197.143267" y="49" letter-spacing="-0.0457333364" fill="#50525B">.</tspan>
                </text>
                <text id="5-days-ago" font-family="Arial-BoldMT, Arial" font-size="12" font-weight="bold" letter-spacing="-0.0419999994" fill="#D3DBE7">
                    <tspan x="18" y="65">5 days ago</tspan>
                </text>
            </g>
            <g id="добавить-copy" transform="translate(348.773936, 417.000000)">
                <circle id="Oval-Copy-2" fill="#45B8FF" cx="25.4909091" cy="25.4909091" r="22.5818182"></circle>
                <g id="+" transform="translate(0.773936, -0.000000)">
                    <g id="Oval-Copy-2">
                        <use fill="black" fill-opacity="1" filter="url(#filter-6)" xlink:href="#path-5"></use>
                        <use fill="#45B8FF" fill-rule="evenodd" xlink:href="#path-5"></use>
                    </g>
                    <path d="M25,25 L17,25 L25,25 L25,17 L25,25 Z M25,25 L33,25 L25,25 L25,33 L25,25 Z" id="Combined-Shape" stroke="#FFFFFF" stroke-width="2" stroke-linecap="round" stroke-linejoin="round"></path>
                </g>
            </g>
        </g>
    </g>
</svg>