<?xml version="1.0" encoding="UTF-8"?>
<svg width="1280px" height="310px" viewBox="0 0 1280 310" version="1.1" xmlns="http://www.w3.org/2000/svg" xmlns:xlink="http://www.w3.org/1999/xlink">
    <!-- Generator: Sketch 53.2 (72643) - https://sketchapp.com -->
    <title>Group 15</title>
    <desc>Created with Sketch.</desc>
    <defs>
        <linearGradient x1="50%" y1="1.47012247%" x2="50%" y2="168.195778%" id="linearGradient-1">
            <stop stop-color="#245FAB" offset="0%"></stop>
            <stop stop-color="#142E50" offset="99.9604096%"></stop>
        </linearGradient>
    </defs>
    <g id="Page-3" stroke="none" stroke-width="1" fill="none" fill-rule="evenodd">
        <g id="Group-15">
            <rect id="Rectangle" fill="url(#linearGradient-1)" x="0" y="110" width="1280" height="200"></rect>
            <path d="M241.845966,309.550034 C240.52409,305.226236 238.893902,301.106525 236.955401,297.190903 C225.933921,274.928368 180.623609,279.767152 145.628435,244.42045 C110.633261,209.073749 88.7223725,190.830663 99.6937264,193.101458 C129.267366,199.222459 181.893878,220.984984 213.564995,252.290466 C230.37713,268.908509 241.980688,287.123313 248.37567,306.934878 C243.856963,281.117755 235.802854,234.545246 201.055645,226.392744 C153.595126,215.257406 135.724423,165.62258 116.839991,152.799431 C97.9555592,139.976281 70.4517194,139.790275 81.6172667,135.006177 C99.2427563,127.454189 191.109471,145.568947 218.191928,193.295711 C225.213085,205.668928 231.398531,220.662556 236.58993,236.021851 C235.66841,231.526012 234.79223,227.462628 233.96139,223.831698 C222.275988,172.764261 207.76635,159.48974 205.433764,114.981349 C202.982202,68.2027562 223.879105,87.0225042 243.619853,2.49444244 C246.443252,-9.59509266 268.667474,22.1995728 266.552112,99.1994106 C265.589074,134.254286 247.024801,181.276282 247.112251,233.193173 C247.132053,244.949359 251.149417,262.089368 254.877926,282.448417 C252.63731,246.201094 253.350352,217.619259 257.017051,196.702911 C264.440434,154.356904 294.895179,108.111285 316.584732,92.4550078 C322.89942,87.8968454 320.762588,108.803973 313.025533,156.274032 C305.288478,203.74409 269.780535,225.691901 264.95231,247.56832 C263.062557,256.130685 262.131082,268.333664 262.157884,284.177257 C266.151683,269.987486 272.654831,256.092483 281.667327,242.492248 C306.712477,204.698065 354.347159,172.65504 382.330659,160.858125 C392.712096,156.481655 374.705979,179.15719 347.182487,221.68614 C340.086867,232.6502 331.783075,241.028409 323.255049,247.848716 C323.446217,262.972774 322.068731,279.061251 318.091475,292.763623 C316.337919,298.804943 314.20744,304.400413 311.700038,309.550034 L303.454182,309.550034 C304.056272,297.91685 299.062208,281.61748 301.280958,262.702178 C284.797552,272.565963 270.855359,279.711082 267.502701,292.54585 C266.083115,297.980362 265.203047,303.648423 264.862496,309.550034 L241.845966,309.550034 Z M332.548522,309.550034 L326.190924,309.550034 C331.227897,287.460773 336.897726,270.114911 343.200409,257.512447 C357.090176,229.739309 389.233719,202.49233 408.759103,194.838187 C414.443716,192.609763 408.746855,206.532838 393.620402,237.747314 C378.493949,268.96179 347.246616,278.987703 339.316586,293.198561 C337.050705,297.259088 334.794684,302.709579 332.548522,309.550034 Z M349.717875,309.550034 L341.121335,309.550034 C345.315776,301.91117 350.811514,294.756589 357.608548,288.086292 C377.471732,268.593476 409.871272,255.810482 427.955904,252.5856 C434.665017,251.389219 420.991581,262.661891 399.02851,284.690202 C381.814031,301.955816 361.245397,303.064239 349.717875,309.550034 Z M150.595823,309.550034 L144.679993,309.550034 C140.687986,299.760304 136.930476,292.364889 133.407459,287.363778 C124.035431,274.059683 91.9112811,267.354928 73.6048915,237.892593 C55.2985018,208.430258 48.1774908,195.17894 54.0638962,196.800953 C74.2823939,202.372207 109.097936,226.110009 125.814698,252.279127 C134.239848,265.46821 142.500223,284.558512 150.595823,309.550034 Z M136.688731,309.550034 L130.776209,309.550034 C120.232498,300.208994 95.8842427,304.651701 73.7822484,286.699522 C49.6369069,267.08765 34.8600611,257.305995 41.6574768,257.794528 C59.9801309,259.111385 93.53837,268.437679 115.330295,285.747443 C124.215103,292.804824 131.334581,300.739021 136.688731,309.550034 Z M989.847597,310 L982.565156,310 C988.13512,280.079966 994.488736,256.619999 1001.626,239.620098 C1017.28238,202.328975 1053.90289,165.93873 1076.24118,155.826278 C1082.74474,152.882143 1076.3499,171.590015 1059.30972,213.506924 C1042.26954,255.423833 1006.49724,268.610261 997.541332,287.682607 C994.950186,293.200667 992.385607,300.639798 989.847597,310 Z M1009.40298,310 L999.666666,310 C1004.41676,299.650197 1010.69125,289.978043 1018.49012,280.983537 C1041.09198,254.916631 1078.15828,238.025877 1098.88883,233.868744 C1106.57954,232.326513 1090.99832,247.378018 1066.01203,276.840613 C1046.30212,300.081567 1022.51956,301.226849 1009.40298,310 Z M968.582009,310 L956.927212,310 C956.309814,294.007561 949.799125,271.804175 957.5045,246.560201 C968.28863,211.229758 972.657091,190.366634 974.677897,198.592939 C980.125045,220.76721 983.153962,263.742834 973.813384,295.496184 C972.3089,300.610687 970.565108,305.445292 968.582009,310 Z M1179.01471,221.765409 C1184.2454,221.65763 1175.6115,231.064835 1154.35625,251.465479 C1133.101,271.866123 1110.53154,271.530198 1094.47569,279.671988 C1078.41984,287.813779 1065.61651,298.881968 1070.03976,291.096968 C1074.463,283.311967 1088.7029,270.446717 1107.96234,252.421431 C1127.22178,234.396146 1161.04844,222.135606 1179.01471,221.765409 Z M1190.16283,282.571143 C1205.07733,282.714561 1177.24628,295.207498 1152.36961,293.83911 C1127.49294,292.470722 1107.52334,294.063295 1097.33808,297.15386 C1087.15282,300.244426 1099.94069,284.952955 1122.76788,278.44234 C1145.59507,271.931726 1163.15517,282.311439 1190.16283,282.571143 Z" id="Combined-Shape" fill="#45B8FF" opacity="0.501395089"></path>
            <path d="M417.069505,169.034905 C418.173906,169.054182 419.053573,169.965104 419.034296,171.069505 C419.015018,172.173906 418.104097,173.053573 416.999695,173.034296 C415.895294,173.015018 415.015627,172.104097 415.034905,170.999695 C415.054182,169.895294 415.965104,169.015627 417.069505,169.034905 Z M722.069505,142.034905 C723.173906,142.054182 724.053573,142.965104 724.034296,144.069505 C724.015018,145.173906 723.104097,146.053573 721.999695,146.034296 C720.895294,146.015018 720.015627,145.104097 720.034905,143.999695 C720.054182,142.895294 720.965104,142.015627 722.069505,142.034905 Z M1116.06951,202.034905 C1117.17391,202.054182 1118.05357,202.965104 1118.0343,204.069505 C1118.01502,205.173906 1117.1041,206.053573 1115.9997,206.034296 C1114.89529,206.015018 1114.01563,205.104097 1114.0349,203.999695 C1114.05418,202.895294 1114.9651,202.015627 1116.06951,202.034905 Z M854.586881,253.043631 C855.967383,253.067728 857.066966,254.20638 857.042869,255.586881 C857.018773,256.967383 855.880121,258.066966 854.499619,258.042869 C853.119118,258.018773 852.019534,256.880121 852.043631,255.499619 C852.067728,254.119118 853.20638,253.019534 854.586881,253.043631 Z" id="Combined-Shape" fill="#FFFFFF"></path>
        </g>
    </g>
</svg>