<?xml version="1.0" encoding="UTF-8"?>
<svg width="426px" height="535px" viewBox="0 0 426 535" version="1.1" xmlns="http://www.w3.org/2000/svg" xmlns:xlink="http://www.w3.org/1999/xlink">
    <!-- Generator: Sketch 53.2 (72643) - https://sketchapp.com -->
    <title>5.4</title>
    <desc>Created with Sketch.</desc>
    <defs>
        <rect id="path-1" x="0" y="0.99796334" width="250" height="489.002037" rx="40"></rect>
        <filter x="-14.8%" y="-6.7%" width="128.8%" height="114.7%" filterUnits="objectBoundingBox" id="filter-2">
            <feMorphology radius="3" operator="dilate" in="SourceAlpha" result="shadowSpreadOuter1"></feMorphology>
            <feOffset dx="-1" dy="3" in="shadowSpreadOuter1" result="shadowOffsetOuter1"></feOffset>
            <feGaussianBlur stdDeviation="8.5" in="shadowOffsetOuter1" result="shadowBlurOuter1"></feGaussianBlur>
            <feColorMatrix values="0 0 0 0 0.368526519   0 0 0 0 0.489322469   0 0 0 0 0.582257699  0 0 0 0.348776224 0" type="matrix" in="shadowBlurOuter1"></feColorMatrix>
        </filter>
        <path d="M0,335 L250,335 L250,446 C250,470.300529 230.300529,490 206,490 L44,490 C19.699471,490 2.9759565e-15,470.300529 0,446 L0,335 Z" id="path-3"></path>
        <filter x="-3.6%" y="-3.9%" width="107.2%" height="111.6%" filterUnits="objectBoundingBox" id="filter-4">
            <feMorphology radius="2" operator="erode" in="SourceAlpha" result="shadowSpreadOuter1"></feMorphology>
            <feOffset dx="0" dy="3" in="shadowSpreadOuter1" result="shadowOffsetOuter1"></feOffset>
            <feGaussianBlur stdDeviation="4.5" in="shadowOffsetOuter1" result="shadowBlurOuter1"></feGaussianBlur>
            <feColorMatrix values="0 0 0 0 0.695560213   0 0 0 0 0.839430633   0 0 0 0 1  0 0 0 0.39682583 0" type="matrix" in="shadowBlurOuter1"></feColorMatrix>
        </filter>
        <rect id="path-5" x="0" y="0" width="220" height="70" rx="27"></rect>
        <filter x="-3.2%" y="-7.1%" width="106.4%" height="120.0%" filterUnits="objectBoundingBox" id="filter-6">
            <feMorphology radius="1.5" operator="erode" in="SourceAlpha" result="shadowSpreadOuter1"></feMorphology>
            <feOffset dx="0" dy="2" in="shadowSpreadOuter1" result="shadowOffsetOuter1"></feOffset>
            <feGaussianBlur stdDeviation="3.5" in="shadowOffsetOuter1" result="shadowBlurOuter1"></feGaussianBlur>
            <feColorMatrix values="0 0 0 0 0.666535488   0 0 0 0 0.764391284   0 0 0 0 0.823228034  0 0 0 1 0" type="matrix" in="shadowBlurOuter1"></feColorMatrix>
        </filter>
    </defs>
    <g id="Page-3" stroke="none" stroke-width="1" fill="none" fill-rule="evenodd">
        <g id="5.4" transform="translate(-22.000000, 19.000000)">
            <path d="M153.82945,474.709044 L149.343475,475.111782 C148.639356,466.626673 146.912363,458.816235 144.162495,451.680467 C136.426687,431.606441 100.659815,433.772181 74.643345,401.094336 C48.6268752,368.41649 32.1777136,351.373552 40.6966175,353.874685 C63.6595987,360.616571 104.075205,382.167502 127.6486,411.140443 C138.720893,424.748872 146.540717,439.268194 151.108074,454.698407 C148.397034,431.239289 142.588442,396.225342 118.116176,388.239405 C81.4556303,376.276115 69.5140137,331.864735 55.270838,319.734412 C41.0276623,307.604089 19.525653,306.174901 28.4538538,302.487429 C42.5475571,296.666531 113.650322,316.802845 132.87428,359.962543 C138.497194,372.586544 143.151458,388.090824 146.791956,403.621239 C145.956764,397.125274 145.161383,391.475383 144.405811,386.671553 C137.265554,341.274732 126.317126,328.946103 126.317126,289.741475 C126.317126,248.53717 142.097535,266.030905 161.254322,192.688207 C163.9942,182.198446 180.287661,211.150767 175.412801,278.691899 C173.193477,309.440613 156.526991,349.891239 154.439856,395.500315 C153.678646,412.134635 160.556363,441.514734 161.254322,474.8709 C161.27213,475.721966 159.503543,475.821622 155.948563,475.169868 C155.686946,476.296994 155.296927,476.739422 154.776722,476.384481 C154.41715,476.13914 154.107083,475.566557 153.82945,474.709044 Z" id="Combined-Shape-Copy-8" fill="#E6EAFF" transform="translate(101.333683, 333.549053) rotate(-11.000000) translate(-101.333683, -333.549053) "></path>
            <g id="Group-8" transform="translate(176.000000, 0.000000)">
                <g id="Rectangle">
                    <use fill="black" fill-opacity="1" filter="url(#filter-2)" xlink:href="#path-1"></use>
                    <use fill="#F6FAFF" fill-rule="evenodd" xlink:href="#path-1"></use>
                </g>
                <g id="Rectangle-Copy-3">
                    <use fill="black" fill-opacity="1" filter="url(#filter-4)" xlink:href="#path-3"></use>
                    <use fill="#FFFFFF" fill-rule="evenodd" xlink:href="#path-3"></use>
                </g>
                <g id="next" transform="translate(168.000000, 411.000000)">
                    <ellipse id="Oval-Copy-4" stroke="#6CD8FF" stroke-width="2" cx="26.9538409" cy="25.2883578" rx="24.9538409" ry="24.2883578"></ellipse>
                    <text id="Next" font-family="Comfortaa-Regular_Bold, Comfortaa" font-size="16" font-weight="bold" letter-spacing="-0.460000008" fill="#6CD8FF">
                        <tspan x="8.18874435" y="14">Nex</tspan>
                        <tspan x="38.4567443" y="14">t</tspan>
                    </text>
                </g>
                <g id="give-up" transform="translate(32.000000, 411.000000)">
                    <ellipse id="Oval-Copy-5" stroke="#6CD8FF" stroke-width="2" cx="26.108414" cy="25.4252489" rx="25.108414" ry="24.4252489"></ellipse>
                    <text id="Give-up" font-family="Comfortaa-Regular_Bold, Comfortaa" font-size="16" font-weight="bold" line-spacing="14" letter-spacing="-0.460000008" fill="#6CD8FF">
                        <tspan x="5.81241402" y="5.77587891">Give </tspan>
                        <tspan x="12.096414" y="19.7758789">up</tspan>
                    </text>
                </g>
                <path d="M47.3300971,399.660194 C34.997525,399.660194 25,389.662669 25,377.330097 C25,364.997525 34.997525,355 47.3300971,355 C59.6626692,355 69.6601942,364.997525 69.6601942,377.330097 C69.6601942,389.662669 59.6626692,399.660194 47.3300971,399.660194 Z M99.433657,399.660194 C87.1010849,399.660194 77.1035599,389.662669 77.1035599,377.330097 C77.1035599,364.997525 87.1010849,355 99.433657,355 C111.766229,355 121.763754,364.997525 121.763754,377.330097 C121.763754,389.662669 111.766229,399.660194 99.433657,399.660194 Z M151.537217,399.660194 C139.204645,399.660194 129.20712,389.662669 129.20712,377.330097 C129.20712,364.997525 139.204645,355 151.537217,355 C163.869789,355 173.867314,364.997525 173.867314,377.330097 C173.867314,389.662669 163.869789,399.660194 151.537217,399.660194 Z M203.640777,399.660194 C191.308205,399.660194 181.31068,389.662669 181.31068,377.330097 C181.31068,364.997525 191.308205,355 203.640777,355 C215.973349,355 225.970874,364.997525 225.970874,377.330097 C225.970874,389.662669 215.973349,399.660194 203.640777,399.660194 Z" id="Combined-Shape" fill="#F2F8FF"></path>
                <text id="E" font-family="Arial-BoldMT, Arial" font-size="34" font-weight="bold" letter-spacing="-0.119" fill="#6DACFF">
                    <tspan x="36.0507299" y="386">E</tspan>
                </text>
                <text id="A" font-family="Arial-BoldMT, Arial" font-size="34" font-weight="bold" letter-spacing="-0.119" fill="#6DACFF">
                    <tspan x="87.1127416" y="386">A</tspan>
                </text>
                <text id="I" font-family="Arial-BoldMT, Arial" font-size="34" font-weight="bold" letter-spacing="-0.119" fill="#6DACFF">
                    <tspan x="146.666453" y="386">I</tspan>
                </text>
                <text id="U" font-family="Arial-BoldMT, Arial" font-size="34" font-weight="bold" letter-spacing="-0.119" fill="#6DACFF">
                    <tspan x="191.282645" y="386">U</tspan>
                </text>
                <rect id="Rectangle-Copy" stroke="#000000" stroke-width="12" x="-6" y="-5.00203666" width="262" height="501.002037" rx="40"></rect>
                <path d="M57,0 L193,0 L193,6 C193,11.5228475 188.522847,16 183,16 L67,16 C61.4771525,16 57,11.5228475 57,6 L57,0 Z" id="Rectangle" fill="#000000"></path>
                <path d="M106,3 L144,3 C145.104569,3 146,3.8954305 146,5 C146,6.1045695 145.104569,7 144,7 L106,7 C104.895431,7 104,6.1045695 104,5 C104,3.8954305 104.895431,3 106,3 Z M152,3 C153.104569,3 154,3.8954305 154,5 C154,6.1045695 153.104569,7 152,7 C150.895431,7 150,6.1045695 150,5 C150,3.8954305 150.895431,3 152,3 Z" id="Combined-Shape" fill="#1A1A1A"></path>
                <text id="Sentence-1" font-family="Kodchasan-SemiBold, Kodchasan SemiBold" font-size="22" font-weight="500" letter-spacing="-0.077" fill="#5296EF">
                    <tspan x="64.786" y="44">Sentence 1</tspan>
                </text>
            </g>
            <g id="уроки" transform="translate(191.000000, 67.000000)">
                <g id="Rectangle-Copy-2">
                    <use fill="black" fill-opacity="1" filter="url(#filter-6)" xlink:href="#path-5"></use>
                    <use fill="#FFFFFF" fill-rule="evenodd" xlink:href="#path-5"></use>
                </g>
                <text id="I-say-something,-it" font-family="Arial-BoldMT, Arial" font-size="14" font-weight="bold" letter-spacing="-0.0490000024">
                    <tspan x="15" y="30.7464789" fill="#50525B">I say something, it is really </tspan>
                    <tspan x="15" y="46.7464789" fill="#50525B">interesting and </tspan>
                    <tspan x="118.450375" y="46.7464789" letter-spacing="-0.0457333364" fill="#FF7575">●</tspan>
                    <tspan x="126.860696" y="46.7464789" letter-spacing="-0.0457333364" fill="#45B8FF">●●●●●●●●</tspan>
                    <tspan x="194.143267" y="46.7464789" letter-spacing="-0.0457333364" fill="#50525B">.</tspan>
                </text>
            </g>
        </g>
    </g>
</svg>