<?xml version="1.0" encoding="UTF-8"?>
<svg width="782px" height="658px" viewBox="0 0 782 658" version="1.1" xmlns="http://www.w3.org/2000/svg" xmlns:xlink="http://www.w3.org/1999/xlink">
    <!-- Generator: Sketch 53.2 (72643) - https://sketchapp.com -->
    <title>4</title>
    <desc>Created with Sketch.</desc>
    <defs>
        <linearGradient x1="50%" y1="28.616179%" x2="50%" y2="121.049988%" id="linearGradient-1">
            <stop stop-color="#245FAB" offset="0%"></stop>
            <stop stop-color="#142E50" offset="99.9604096%"></stop>
        </linearGradient>
        <rect id="path-2" x="0" y="0.99796334" width="250" height="489.002037" rx="40"></rect>
        <filter x="-14.8%" y="-6.7%" width="128.8%" height="114.7%" filterUnits="objectBoundingBox" id="filter-3">
            <feMorphology radius="3" operator="dilate" in="SourceAlpha" result="shadowSpreadOuter1"></feMorphology>
            <feOffset dx="-1" dy="3" in="shadowSpreadOuter1" result="shadowOffsetOuter1"></feOffset>
            <feGaussianBlur stdDeviation="8.5" in="shadowOffsetOuter1" result="shadowBlurOuter1"></feGaussianBlur>
            <feColorMatrix values="0 0 0 0 0.368526519   0 0 0 0 0.489322469   0 0 0 0 0.582257699  0 0 0 0.348776224 0" type="matrix" in="shadowBlurOuter1"></feColorMatrix>
        </filter>
        <path d="M27,288 L285,288 C299.911688,288 312,300.088312 312,315 L312,345 C312,359.911688 299.911688,372 285,372 L27,372 C12.0883118,372 1.82615513e-15,359.911688 0,345 L0,315 C-1.82615513e-15,300.088312 12.0883118,288 27,288 Z M27,192 L269,192 C283.911688,192 296,204.088312 296,219 L296,249 C296,263.911688 283.911688,276 269,276 L27,276 C12.0883118,276 1.82615513e-15,263.911688 0,249 L0,219 C-1.82615513e-15,204.088312 12.0883118,192 27,192 Z M27,96 L253,96 C267.911688,96 280,108.088312 280,123 L280,153 C280,167.911688 267.911688,180 253,180 L27,180 C12.0883118,180 1.82615513e-15,167.911688 0,153 L0,123 C-1.82615513e-15,108.088312 12.0883118,96 27,96 Z M27,0 L237,3.55271368e-15 C251.911688,8.13480987e-16 264,12.0883118 264,27 L264,57 C264,71.9116882 251.911688,84 237,84 L27,84 C12.0883118,84 1.82615513e-15,71.9116882 0,57 L0,27 C-1.82615513e-15,12.0883118 12.0883118,2.73923269e-15 27,0 Z" id="path-4"></path>
        <filter x="-2.2%" y="-1.3%" width="104.5%" height="103.8%" filterUnits="objectBoundingBox" id="filter-5">
            <feMorphology radius="1.5" operator="erode" in="SourceAlpha" result="shadowSpreadOuter1"></feMorphology>
            <feOffset dx="0" dy="2" in="shadowSpreadOuter1" result="shadowOffsetOuter1"></feOffset>
            <feGaussianBlur stdDeviation="3.5" in="shadowOffsetOuter1" result="shadowBlurOuter1"></feGaussianBlur>
            <feColorMatrix values="0 0 0 0 0.666535488   0 0 0 0 0.764391284   0 0 0 0 0.823228034  0 0 0 1 0" type="matrix" in="shadowBlurOuter1"></feColorMatrix>
        </filter>
        <circle id="path-6" cx="25" cy="25" r="25"></circle>
        <filter x="-7.0%" y="-5.0%" width="114.0%" height="114.0%" filterUnits="objectBoundingBox" id="filter-7">
            <feMorphology radius="2.5" operator="erode" in="SourceAlpha" result="shadowSpreadOuter1"></feMorphology>
            <feOffset dx="0" dy="1" in="shadowSpreadOuter1" result="shadowOffsetOuter1"></feOffset>
            <feGaussianBlur stdDeviation="3.5" in="shadowOffsetOuter1" result="shadowBlurOuter1"></feGaussianBlur>
            <feColorMatrix values="0 0 0 0 0.360784314   0 0 0 0 0.466666667   0 0 0 0 0.615686275  0 0 0 1 0" type="matrix" in="shadowBlurOuter1"></feColorMatrix>
        </filter>
    </defs>
    <g id="Page-3" stroke="none" stroke-width="1" fill="none" fill-rule="evenodd">
        <g id="4" transform="translate(-38.000000, 0.000000)">
            <path d="M206.733882,488.089702 L199.914384,488.63652 C199.018627,478.995428 196.821602,470.120922 193.323309,462.013001 C183.482065,439.204156 137.980607,441.66495 104.883296,404.535184 C71.7859848,367.405418 50.8598937,348.040607 61.6973675,350.882486 C90.9101292,358.542864 142.325556,383.029822 172.314867,415.94994 C188.23424,433.425087 198.868606,452.222212 204.217966,472.341313 C201.056617,446.323081 195.450962,399.392878 161.178042,389.433021 C114.365345,375.829051 99.1168188,325.326968 80.929379,311.533057 C62.7419393,297.739147 35.2855274,296.113956 46.6861531,291.920774 C64.682728,285.301582 155.475489,308.199447 180.023005,357.27819 C186.386975,370.001908 191.779239,385.298709 196.15968,400.908652 C195.474717,396.370746 194.812399,392.267074 194.172725,388.597638 C185.176001,336.98862 171.380982,322.972915 171.380982,278.403444 C171.380982,231.560655 191.264298,251.44827 215.401849,168.069202 C218.854096,156.144001 239.383856,189.058219 233.241533,265.841821 C230.445184,300.798254 209.445412,346.784229 206.815622,398.634547 C205.856497,417.545142 214.522421,450.945675 215.401849,488.86637 C215.423609,489.804645 213.328557,489.939559 209.116695,489.271111 C208.817894,489.795975 208.442815,489.941255 207.990739,489.666565 C207.758732,489.525592 207.542865,489.289606 207.340327,488.964814 C207.168182,488.933046 206.99328,488.900231 206.815622,488.86637 C206.788354,488.607072 206.761107,488.348183 206.733882,488.089702 Z" id="Combined-Shape-Copy-8" fill="#E6EAFF" transform="translate(139.190491, 327.745508) rotate(-17.000000) translate(-139.190491, -327.745508) "></path>
            <ellipse id="Oval" fill="url(#linearGradient-1)" cx="481.226064" cy="329" rx="304" ry="329"></ellipse>
            <path d="M375.815577,548.349736 L369.414345,550.88215 C365.738946,541.924223 361.043266,534.079838 355.327305,527.348997 C339.247416,508.414091 296.453622,524.070699 253.946813,498.240044 C211.440004,472.40939 185.76656,460.008925 196.961373,459.558057 C227.137354,458.342728 283.465465,466.727307 321.769296,489.440946 C342.102307,501.498139 357.767749,516.36473 368.765624,534.04072 C358.135415,510.083651 339.053638,466.843009 303.366301,467.338783 C254.62168,468.01595 225.274062,424.178805 203.848378,416.305116 C182.422693,408.431426 155.690836,414.904726 165.367341,407.561546 C180.642287,395.969892 274.162524,391.321995 311.986666,431.079231 C327.448471,447.33125 342.470334,470.407346 354.311603,491.881127 C348.449386,477.505062 343.299621,465.941681 338.86231,457.190985 C315.169684,410.467423 295.208127,399 284.494234,365 C270.468001,320.488461 290.500268,323.622231 290.500268,239.794003 C290.500268,199.412844 318.099611,252.521142 334.675031,327.745508 C342.221142,361.992084 336.132413,410.076658 348.777098,460.43024 C353.388805,478.794953 372.364344,510.56724 384.292283,546.57386 C384.587417,547.464776 382.623354,548.206328 378.400095,548.798517 C378.267806,549.387808 377.951591,549.636403 377.438958,549.505889 C377.175872,549.438909 376.900442,549.276348 376.611793,549.024964 C376.437882,549.044914 376.261029,549.064669 376.081233,549.08423 C375.992579,548.838997 375.904027,548.594166 375.815577,548.349736 Z M153.581933,474.186517 C174.547663,474.700983 214.071729,489.311029 236.622814,510.658662 C259.173898,532.006294 275.845559,547.244952 281.040555,556.447998 C286.235552,565.651044 271.247959,552.538581 252.477783,542.864294 C233.707608,533.190006 207.37364,533.488626 182.483444,509.330165 C157.593249,485.171704 147.477978,474.036735 153.581933,474.186517 Z M156.115725,538.98707 C187.328431,543.298034 209.214338,534.145586 234.546561,545.669232 C259.878783,557.192878 272.254814,577.282092 260.980766,571.923054 C249.706717,566.564016 226.906076,561.286966 197.980126,558.638247 C169.054176,555.989527 138.879056,536.606416 156.115725,538.98707 Z M607.307195,554.274045 C606.104043,543.673173 608.824192,528.194743 621.803927,509.549569 C622.220741,506.578507 622.546589,503.832006 622.739393,501.411408 C624.518184,479.079248 596.978689,447.708935 603.458608,400.050996 C609.938527,352.393057 614.007717,331.774722 618.713805,337.979951 C634.878176,359.293535 650.481283,412.422546 645.199525,455.088621 C643.808165,466.32804 641.754014,479.639252 639.325359,493.183123 C641.25024,491.652026 643.25449,490.085805 645.298629,488.506285 C659.041696,440.311481 655.534249,391.869596 664.588366,359.057778 C685.078009,284.803995 714.79239,239 714.79239,273.2831 C714.79239,348.465826 717.725506,350.772552 714.79239,388 C711.238795,433.102657 680.651445,438.373333 654.872186,481.201531 C666.053619,472.741486 676.628692,464.871093 680.40554,461.013061 C718.481861,422.118292 804.513955,428.819115 817.712304,440.737712 C826.073309,448.288008 801.88724,441.231872 781.472803,448.628327 C761.058366,456.024782 728.62036,488.39154 683.039145,496.163456 C659.150194,500.236689 643.913352,519.774265 633.79358,537.700788 C636.305292,536.970616 638.537697,536.231264 640.490792,535.482732 C654.956542,529.938671 670.400889,521.373953 685.492086,518.922626 C724.558034,512.57698 768.722647,520.254498 792.349769,530.030444 C801.115059,533.657165 778.567354,536.025891 734.981084,543.550846 C691.394815,551.075801 663.234536,533.557935 643.318026,543.489619 C632.698364,548.785282 631.862305,580.097246 616.079527,580.086703 C607.301945,580.08084 604.377834,571.476621 607.307195,554.274045 Z" id="Combined-Shape" fill="#245FAB"></path>
            <path d="M325.226064,399 C324.121494,399 323.226064,398.104569 323.226064,397 C323.226064,395.895431 324.121494,395 325.226064,395 C326.330633,395 327.226064,395.895431 327.226064,397 C327.226064,398.104569 326.330633,399 325.226064,399 Z M308.726064,363 C307.897637,363 307.226064,362.328427 307.226064,361.5 C307.226064,360.671573 307.897637,360 308.726064,360 C309.554491,360 310.226064,360.671573 310.226064,361.5 C310.226064,362.328427 309.554491,363 308.726064,363 Z M302.264731,449.383366 C301.394318,450.063407 300.137428,449.90908 299.457387,449.038667 C298.777346,448.168255 298.931673,446.911364 299.802085,446.231323 C300.672498,445.551282 301.929389,445.705609 302.60943,446.576022 C303.289471,447.446434 303.135144,448.703325 302.264731,449.383366 Z M253.255064,430.287524 C252.602255,430.797555 251.659587,430.68181 251.149556,430.029001 C250.639525,429.376191 250.75527,428.433523 251.40808,427.923492 C252.060889,427.413462 253.003557,427.529207 253.513588,428.182016 C254.023619,428.834826 253.907874,429.777494 253.255064,430.287524 Z M272.255064,426.287524 C271.602255,426.797555 270.659587,426.68181 270.149556,426.029001 C269.639525,425.376191 269.75527,424.433523 270.40808,423.923492 C271.060889,423.413462 272.003557,423.529207 272.513588,424.182016 C273.023619,424.834826 272.907874,425.777494 272.255064,426.287524 Z M683.226064,402 C682.121494,402 681.226064,401.104569 681.226064,400 C681.226064,398.895431 682.121494,398 683.226064,398 C684.330633,398 685.226064,398.895431 685.226064,400 C685.226064,401.104569 684.330633,402 683.226064,402 Z M699.726064,366 C698.897637,366 698.226064,365.328427 698.226064,364.5 C698.226064,363.671573 698.897637,363 699.726064,363 C700.554491,363 701.226064,363.671573 701.226064,364.5 C701.226064,365.328427 700.554491,366 699.726064,366 Z M728.40808,450.287524 C727.75527,449.777494 727.639525,448.834826 728.149556,448.182016 C728.659587,447.529207 729.602255,447.413462 730.255064,447.923492 C730.907874,448.433523 731.023619,449.376191 730.513588,450.029001 C730.003557,450.68181 729.060889,450.797555 728.40808,450.287524 Z" id="Combined-Shape" fill="#FFFFFF"></path>
            <g id="phone" transform="translate(356.226064, 73.000000)">
                <g id="Group-8">
                    <g id="Rectangle">
                        <use fill="black" fill-opacity="1" filter="url(#filter-3)" xlink:href="#path-2"></use>
                        <use fill="#F6FAFF" fill-rule="evenodd" xlink:href="#path-2"></use>
                    </g>
                    <path d="M30,0.99796334 L220,0.99796334 C236.568542,0.99796334 250,14.4294208 250,30.9979633 L250,56.9979633 L0,56.9979633 L0,30.9979633 C-2.02906125e-15,14.4294208 13.4314575,0.99796334 30,0.99796334 Z" id="Rectangle-Copy-3" fill="#45B8FF"></path>
                    <rect id="Rectangle-Copy" stroke="#000000" stroke-width="12" x="-6" y="-5.00203666" width="262" height="501.002037" rx="40"></rect>
                    <path d="M57,0 L193,0 L193,6 C193,11.5228475 188.522847,16 183,16 L67,16 C61.4771525,16 57,11.5228475 57,6 L57,0 Z" id="Rectangle" fill="#000000"></path>
                    <path d="M106,3 L144,3 C145.104569,3 146,3.8954305 146,5 C146,6.1045695 145.104569,7 144,7 L106,7 C104.895431,7 104,6.1045695 104,5 C104,3.8954305 104.895431,3 106,3 Z M152,3 C153.104569,3 154,3.8954305 154,5 C154,6.1045695 153.104569,7 152,7 C150.895431,7 150,6.1045695 150,5 C150,3.8954305 150.895431,3 152,3 Z" id="Combined-Shape" fill="#1A1A1A"></path>
                    <text id="My-lessons" font-family="Kodchasan-SemiBold, Kodchasan SemiBold" font-size="22" font-weight="500" letter-spacing="-0.077" fill="#FFFFFF">
                        <tspan x="63.664" y="44">My lessons</tspan>
                    </text>
                </g>
                <g id="уроки" transform="translate(17.000000, 70.000000)">
                    <g id="Combined-Shape">
                        <use fill="black" fill-opacity="1" filter="url(#filter-5)" xlink:href="#path-4"></use>
                        <use fill="#FFFFFF" fill-rule="evenodd" xlink:href="#path-4"></use>
                    </g>
                    <text id="4.-Help-me!" font-family="Arial-BoldMT, Arial" font-size="16" font-weight="bold" letter-spacing="-0.056" fill="#50525B">
                        <tspan x="22" y="322">4. Help me!</tspan>
                    </text>
                    <text id="2-days-ago" font-family="Arial-BoldMT, Arial" font-size="14" font-weight="bold" letter-spacing="-0.049" fill="#D3DBE7">
                        <tspan x="22" y="343">2 days ago</tspan>
                    </text>
                    <g id="Group" transform="translate(268.000000, 319.000000)">
                        <circle id="Oval-Copy" fill="#AFF265" cx="11" cy="11" r="11"></circle>
                        <circle id="Oval" fill="#FFFFFF" cx="11" cy="11" r="7.33333333"></circle>
                    </g>
                    <text id="3.-And-EASYLANG…" font-family="Arial-BoldMT, Arial" font-size="16" font-weight="bold" letter-spacing="-0.056" fill="#50525B">
                        <tspan x="22" y="226">3. And EASYLANG</tspan>
                        <tspan x="162.800625" y="226" font-family="Kodchasan-SemiBold, Kodchasan SemiBold" font-weight="500">…</tspan>
                    </text>
                    <text id="3-days-ago" font-family="Arial-BoldMT, Arial" font-size="14" font-weight="bold" letter-spacing="-0.049" fill="#D3DBE7">
                        <tspan x="22" y="247">3 days ago</tspan>
                    </text>
                    <g id="Group" transform="translate(263.000000, 233.000000) scale(-1, 1) translate(-263.000000, -233.000000) translate(252.000000, 222.000000)">
                        <circle id="Oval-Copy" fill="#AFF265" cx="11" cy="11" r="11"></circle>
                        <path d="M11,22 C11,17.0751322 11,5.95722933 11,0 C4.92486775,0 0,4.92486775 0,11 C0,17.0751322 4.92486775,22 11,22 Z" id="Oval-Copy-9" fill="#FFEB5D"></path>
                        <circle id="Oval" fill="#FFFFFF" cx="11" cy="11" r="7.33333333"></circle>
                    </g>
                    <text id="2.-And-getting-bette" font-family="Arial-BoldMT, Arial" font-size="16" font-weight="bold" letter-spacing="-0.056" fill="#50525B">
                        <tspan x="22" y="130">2. And getting better…</tspan>
                    </text>
                    <text id="4-days-ago" font-family="Arial-BoldMT, Arial" font-size="14" font-weight="bold" letter-spacing="-0.049" fill="#D3DBE7">
                        <tspan x="22" y="151">4 days ago</tspan>
                    </text>
                    <text id="1.-I-study…" font-family="Arial-BoldMT, Arial" font-size="16" font-weight="bold" letter-spacing="-0.056" fill="#50525B">
                        <tspan x="21" y="34">1. I study…</tspan>
                    </text>
                    <text id="5-days-ago" font-family="Arial-BoldMT, Arial" font-size="14" font-weight="bold" letter-spacing="-0.049" fill="#D3DBE7">
                        <tspan x="21" y="55">5 days ago</tspan>
                    </text>
                    <g id="Group" transform="translate(241.000000, 127.000000)">
                        <circle id="Oval-Copy" fill="#FF9861" cx="11" cy="11" r="11"></circle>
                        <path d="M11,22 C11,22 11,1.42108547e-14 11,1.42108547e-14 C4.92486775,1.42108547e-14 1.33226763e-14,4.92486775 1.33226763e-14,11 C1.33226763e-14,17.0751322 4.92486775,22 11,22 Z" id="Oval-Copy-2" fill="#FFEB5D"></path>
                        <circle id="Oval" fill="#FFFFFF" cx="11" cy="11" r="7.33333333"></circle>
                    </g>
                    <g id="Group-Copy" transform="translate(220.000000, 31.000000)">
                        <circle id="Oval-Copy" fill="#FF9861" cx="11" cy="11" r="11"></circle>
                        <circle id="Oval" fill="#FFFFFF" cx="11" cy="11" r="7.33333333"></circle>
                    </g>
                </g>
                <g id="добавить-copy" transform="translate(172.773936, 417.000000)">
                    <circle id="Oval-Copy-2" fill="#45B8FF" cx="25.4909091" cy="25.4909091" r="22.5818182"></circle>
                    <g id="+" transform="translate(0.773936, -0.000000)">
                        <g id="Oval-Copy-2">
                            <use fill="black" fill-opacity="1" filter="url(#filter-7)" xlink:href="#path-6"></use>
                            <use fill="#45B8FF" fill-rule="evenodd" xlink:href="#path-6"></use>
                        </g>
                        <path d="M25,25 L17,25 L25,25 L25,17 L25,25 Z M25,25 L33,25 L25,25 L25,33 L25,25 Z" id="Combined-Shape" stroke="#FFFFFF" stroke-width="2" stroke-linecap="round" stroke-linejoin="round"></path>
                    </g>
                </g>
            </g>
        </g>
    </g>
</svg>