<?xml version="1.0" encoding="UTF-8"?>
<svg width="1356px" height="702px" viewBox="0 0 1356 702" version="1.1" xmlns="http://www.w3.org/2000/svg" xmlns:xlink="http://www.w3.org/1999/xlink">
    <!-- Generator: Sketch 53.2 (72643) - https://sketchapp.com -->
    <title>Group 2</title>
    <desc>Created with Sketch.</desc>
    <defs>
        <radialGradient cx="50%" cy="82.1202682%" fx="50%" fy="82.1202682%" r="103.437719%" gradientTransform="translate(0.500000,0.821203),scale(0.516224,1.000000),rotate(-90.000000),scale(1.000000,1.120760),translate(-0.500000,-0.821203)" id="radialGradient-1">
            <stop stop-color="#245FAB" offset="0%"></stop>
            <stop stop-color="#142E50" offset="99.9604096%"></stop>
        </radialGradient>
        <radialGradient cx="50%" cy="0%" fx="50%" fy="0%" r="100%" gradientTransform="translate(0.500000,0.000000),scale(0.480826,1.000000),rotate(90.000000),translate(-0.500000,-0.000000)" id="radialGradient-2">
            <stop stop-color="#9BEDFF" offset="0%"></stop>
            <stop stop-color="#9BECFF" stop-opacity="0" offset="100%"></stop>
        </radialGradient>
        <radialGradient cx="50.126639%" cy="100%" fx="50.126639%" fy="100%" r="202.71161%" gradientTransform="translate(0.501266,1.000000),scale(0.245544,1.000000),translate(-0.501266,-1.000000)" id="radialGradient-3">
            <stop stop-color="#225AA2" offset="0%"></stop>
            <stop stop-color="#225AA2" offset="99.9604096%"></stop>
        </radialGradient>
    </defs>
    <g id="Page-3" stroke="none" stroke-width="1" fill="none" fill-rule="evenodd">
        <g id="Group-2">
            <rect id="Rectangle-Copy-11" fill="url(#radialGradient-1)" transform="translate(678.000000, 351.000000) scale(-1, 1) translate(-678.000000, -351.000000) " x="0" y="1" width="1356" height="700"></rect>
            <polygon id="Triangle-Copy-6" fill="url(#radialGradient-2)" opacity="0.456519717" transform="translate(678.000000, 326.000000) scale(-1, -1) translate(-678.000000, -326.000000) " points="678 0 1356 348.743803 1356 652 2.22290936e-13 652 1.50546242e-13 348.743803"></polygon>
            <path d="M249.845966,701.282334 C248.52409,696.958536 246.893902,692.838825 244.955401,688.923203 C233.933921,666.660668 188.623609,671.499452 153.628435,636.15275 C118.633261,600.806049 96.7223725,582.562963 107.693726,584.833758 C137.267366,590.954759 189.893878,612.717284 221.564995,644.022766 C238.37713,660.640809 249.980688,678.855613 256.37567,698.667178 C251.856963,672.850055 243.802854,626.277546 209.055645,618.125044 C161.595126,606.989706 143.724423,557.35488 124.839991,544.531731 C105.955559,531.708581 78.4517194,531.522575 89.6172667,526.738477 C107.242756,519.186489 199.109471,537.301247 226.191928,585.028011 C233.213085,597.401228 239.398531,612.394856 244.58993,627.754151 C243.66841,623.258312 242.79223,619.194928 241.96139,615.563998 C230.275988,564.496561 215.76635,551.22204 213.433764,506.713649 C210.982202,459.935056 231.879105,478.754804 251.619853,394.226742 C254.443252,382.137207 276.667474,413.931873 274.552112,490.931711 C273.589074,525.986586 255.024801,573.008582 255.112251,624.925473 C255.132053,636.681659 259.149417,653.821668 262.877926,674.180717 C260.63731,637.933394 261.350352,609.351559 265.017051,588.435211 C272.440434,546.089204 302.895179,499.843585 324.584732,484.187308 C330.89942,479.629145 328.762588,500.536273 321.025533,548.006332 C313.288478,595.47639 277.780535,617.424201 272.95231,639.30062 C271.062557,647.862985 270.131082,660.065964 270.157884,675.909557 C274.151683,661.719786 280.654831,647.824783 289.667327,634.224548 C314.712477,596.430365 362.347159,564.38734 390.330659,552.590425 C400.712096,548.213955 382.705979,570.88949 355.182487,613.41844 C348.086867,624.3825 339.783075,632.760709 331.255049,639.581016 C331.446217,654.705074 330.068731,670.793551 326.091475,684.495923 C324.337919,690.537243 322.20744,696.132713 319.700038,701.282334 L311.454182,701.282334 C312.056272,689.64915 307.062208,673.34978 309.280958,654.434478 C292.797552,664.298263 278.855359,671.443382 275.502701,684.27815 C274.083115,689.712662 273.203047,695.380723 272.862496,701.282334 L249.845966,701.282334 Z M340.548522,701.282334 L334.190924,701.282334 C339.227897,679.193073 344.897726,661.847211 351.200409,649.244747 C365.090176,621.471609 397.233719,594.22463 416.759103,586.570487 C422.443716,584.342063 416.746855,598.265138 401.620402,629.479614 C386.493949,660.69409 355.246616,670.720003 347.316586,684.930861 C345.050705,688.991388 342.794684,694.441879 340.548522,701.282334 Z M357.717875,701.282334 L349.121335,701.282334 C353.315776,693.64347 358.811514,686.488889 365.608548,679.818592 C385.471732,660.325776 417.871272,647.542782 435.955904,644.3179 C442.665017,643.121519 428.991581,654.394191 407.02851,676.422502 C389.814031,693.688116 369.245397,694.796539 357.717875,701.282334 Z M158.595823,701.282334 L152.679993,701.282334 C148.687986,691.492604 144.930476,684.097189 141.407459,679.096078 C132.035431,665.791983 99.9112811,659.087228 81.6048915,629.624893 C63.2985018,600.162558 56.1774908,586.91124 62.0638962,588.533253 C82.2823939,594.104507 117.097936,617.842309 133.814698,644.011427 C142.239848,657.20051 150.500223,676.290812 158.595823,701.282334 Z M144.688731,701.282334 L138.776209,701.282334 C128.232498,691.941294 103.884243,696.384001 81.7822484,678.431822 C57.6369069,658.81995 42.8600611,649.038295 49.6574768,649.526828 C67.9801309,650.843685 101.53837,660.169979 123.330295,677.479743 C132.215103,684.537124 139.334581,692.471321 144.688731,701.282334 Z M1083.80798,701.282334 C1083.46743,695.380723 1082.58736,689.712662 1081.16777,684.27815 C1074.71336,659.569136 1029.01148,655.94739 1001.48799,613.41844 C973.964494,570.88949 955.958378,548.213955 966.339815,552.590425 C994.323314,564.38734 1041.958,596.430365 1067.00315,634.224548 C1076.01564,647.824783 1082.51879,661.719786 1086.51259,675.909557 C1086.53939,660.065964 1085.60792,647.862985 1083.71816,639.30062 C1078.88994,617.424201 1043.382,595.47639 1035.64494,548.006332 C1027.90789,500.536273 1025.77105,479.629145 1032.08574,484.187308 C1053.77529,499.843585 1084.23004,546.089204 1091.65342,588.435211 C1094.2002,602.963084 1095.32206,621.189 1095.01898,643.112961 C1095.55109,633.19737 1095.87263,624.788351 1095.98361,617.885905 C1096.81006,566.483756 1088.75349,549.612946 1094.23187,507.449901 C1099.36088,467.975625 1126.94869,439.870266 1138.69667,406.010781 C1154.71123,359.854414 1170.93309,436.165466 1150.53467,508.915248 C1141.24811,542.035248 1118.80047,580.545094 1106.51596,629.961105 C1104.812,636.815501 1104.08244,645.953282 1103.4897,656.663691 C1109.80773,632.333459 1119.03267,605.198804 1130.47855,585.028011 C1157.561,537.301247 1237.75063,505.62965 1255.37612,513.181638 C1266.54167,517.965737 1237.26283,532.150976 1213.67956,550.196078 C1190.09629,568.241179 1190.09629,594.823499 1147.93108,614.892635 C1120.68661,627.860033 1109.67946,664.642128 1103.44697,690.047637 C1110.20788,673.543546 1120.76072,658.201922 1135.10548,644.022766 C1166.7766,612.717284 1219.40311,590.954759 1248.97675,584.833758 C1259.9481,582.562963 1238.03721,600.806049 1203.04204,636.15275 C1202.46534,636.735238 1201.88585,637.306812 1201.30375,637.867775 C1200.19924,644.006796 1198.88684,651.304719 1197.54303,659.583493 C1194.50798,678.281517 1183.98132,690.85545 1176.83411,701.282334 L1164.21058,701.282334 C1164.3779,697.110764 1164.84103,692.838381 1165.59996,688.465184 C1167.49688,677.534606 1171.67191,666.140312 1176.82564,655.510525 C1148.36956,670.733581 1120.10575,671.974694 1111.71507,688.923203 C1109.77657,692.838825 1108.14638,696.958536 1106.82451,701.282334 L1083.80798,701.282334 Z M1016.12195,701.282334 C1013.87579,694.441879 1011.61977,688.991388 1009.35389,684.930861 C1001.42386,670.720003 970.176524,660.69409 955.050072,629.479614 C939.923619,598.265138 934.226758,584.342063 939.91137,586.570487 C959.436754,594.22463 991.580297,621.471609 1005.47006,649.244747 C1011.77275,661.847211 1017.44258,679.193073 1022.47955,701.282334 L1016.12195,701.282334 Z M998.952598,701.282334 C987.425076,694.796539 966.856443,693.688116 949.641964,676.422502 C927.678892,654.394191 914.005457,643.121519 920.71457,644.3179 C938.799201,647.542782 971.198742,660.325776 991.061925,679.818592 C997.85896,686.488889 1003.3547,693.64347 1007.54914,701.282334 L998.952598,701.282334 Z M1198.07465,701.282334 C1206.17025,676.290812 1214.43063,657.20051 1222.85578,644.011427 C1239.57254,617.842309 1274.38808,594.104507 1294.60658,588.533253 C1300.49298,586.91124 1293.37197,600.162558 1275.06558,629.624893 C1256.75919,659.087228 1224.63504,665.791983 1215.26301,679.096078 C1211.74,684.097189 1207.98249,691.492604 1203.99048,701.282334 L1198.07465,701.282334 Z M1211.98174,701.282334 C1217.33589,692.471321 1224.45537,684.537124 1233.34018,677.479743 C1255.1321,660.169979 1288.69034,650.843685 1307.013,649.526828 C1313.81041,649.038295 1299.03357,658.81995 1274.88823,678.431822 C1252.78623,696.384001 1228.43798,691.941294 1217.89426,701.282334 L1211.98174,701.282334 Z" id="Combined-Shape" fill="url(#radialGradient-3)" opacity="0.204186284"></path>
            <g id="человек-и-кот" transform="translate(559.451163, 526.000000)">
                <polygon id="Rectangle" fill="#45B8FF" points="30.548837 156 57.548837 156 58.548837 175 28.548837 175"></polygon>
                <path d="M33.938573,131.615359 C36.7938818,130.178666 40.1097818,129.356278 43.6467668,129.356278 C46.7830313,129.356278 49.7454684,130.002878 52.3671016,131.151009 L59.6421147,126.206876 C61.0124632,125.275581 62.8783142,125.631504 63.8096094,127.001853 C64.1899807,127.561548 64.3699494,128.233404 64.3202831,128.908292 L63.1012372,145.473232 L63.0256196,145.429587 C63.0392041,145.68839 63.0460703,145.948715 63.0460703,146.210434 C63.0460703,155.518727 54.3607063,163.06459 43.6467668,163.06459 C33.1056631,163.06459 24.5282133,155.760221 24.2542162,146.659513 L22.3766859,129.379507 C22.2958416,128.63545 22.4960379,127.888045 22.9379737,127.284018 C23.9163112,125.946849 25.7934004,125.655958 27.1305696,126.634296 L33.938573,131.615359 Z" id="Combined-Shape" fill="#45B8FF" transform="translate(43.582760, 144.376204) rotate(-6.000000) translate(-43.582760, -144.376204) "></path>
                <g id="FACE" transform="translate(46.576630, 143.582797) rotate(-6.000000) translate(-46.576630, -143.582797) translate(34.576630, 140.082797)" fill="#FFFFFF">
                    <path d="M13.8122121,5.44798959 L13.8122121,5.44798959 C14.1517114,5.82344285 14.122565,6.40302646 13.7471117,6.7425258 C13.5786204,6.89488213 13.359554,6.97923959 13.1323938,6.97923959 L11.7227996,6.97923959 C11.2166129,6.97923959 10.8062675,6.56889421 10.8062675,6.06270752 C10.8062675,5.83554729 10.890625,5.61648089 11.0429813,5.44798959 L11.0429813,5.44798959 C11.7344543,4.68328763 12.9149174,4.62392386 13.6796194,5.31539691 C13.7260103,5.35734533 13.7702636,5.40159871 13.8122121,5.44798959 Z" id="Triangle" transform="translate(12.427597, 5.447990) scale(1, -1) translate(-12.427597, -5.447990) "></path>
                    <path d="M3.19682745,5.66673959 C1.66742352,5.66673959 0.427596676,4.49148706 0.427596676,3.04173959 C0.427596676,1.59199212 1.66742352,0.416739589 3.19682745,0.416739589 C4.72623137,0.416739589 5.96605821,1.59199212 5.96605821,3.04173959 C5.96605821,4.49148706 4.72623137,5.66673959 3.19682745,5.66673959 Z M21.1968274,5.66673959 C19.6674235,5.66673959 18.4275967,4.49148706 18.4275967,3.04173959 C18.4275967,1.59199212 19.6674235,0.416739589 21.1968274,0.416739589 C22.7262314,0.416739589 23.9660582,1.59199212 23.9660582,3.04173959 C23.9660582,4.49148706 22.7262314,5.66673959 21.1968274,5.66673959 Z" id="Combined-Shape"></path>
                </g>
                <path d="M19.4680381,175 C17.1503176,171.556191 17.1503176,168.41704 19.4680381,165.582546 C23.3435105,160.842973 23.9470716,154.978519 19.0480342,150.904399 C14.3031324,146.958461 6.05872873,146.232046 2.05815557,153.8475 C-1.94241758,161.462953 3.10693216,163.437171 4.60969614,161.581317 C6.11246012,159.725463 4.83617604,153.299489 11.7425614,154.040796 C18.6489467,154.782102 16.7642733,160.138992 13.7124511,164.067147 C10.9228092,167.657837 12.1476204,172.29031 13.2591336,175 C13.2591336,175 15.3287684,175 19.4680381,175 Z" id="Path-14" fill="#45B8FF"></path>
                <g id="человек" transform="translate(39.548837, 0.000000)">
                    <path d="M89.9107923,89 C89.9107923,89 89.9107923,89 89.9107923,89 C89.9107923,91.9014587 92.9286766,95.2995845 98.9644453,99.1943775 C106.26201,95.2678776 109.910792,91.8697518 109.910792,89 C109.910792,89 109.910792,89 109.910792,89 L109.910792,89 C126.000726,89 139.044195,102.043468 139.044195,118.133402 C139.044195,118.899343 139.013989,119.664986 138.953648,120.428547 L134.641077,175 L70.3130018,175 L62.3354604,120.943478 C60.0879472,105.714043 70.6118743,91.5461768 85.8413096,89.2986635 C87.1886855,89.0998219 88.5488232,89 89.9107923,89 Z" id="Rectangle" fill="#45B8FF"></path>
                    <path d="M134.787427,102.962629 L90,126 L62.4860281,111.8476 C64.5776331,100.429529 73.7187449,91.0876743 85.8413096,89.2986635 C87.1886855,89.0998219 88.5488232,89 89.9107923,89 C89.9107923,91.9014587 92.9286766,95.2995845 98.9644453,99.1943775 C106.26201,95.2678776 109.910792,91.8697518 109.910792,89 C120.442983,89 129.66983,94.5888445 134.787427,102.962629 Z" id="Combined-Shape" fill="#4EC3FF"></path>
                    <path d="M82.3561726,143.216396 C68.1833274,156.766645 34.6529875,141.622124 34.0392581,130.606522 C33.4255287,119.590919 53.5917729,133.831626 62.0929111,133.708753 C70.5940493,133.58588 96.5290177,129.666147 82.3561726,143.216396 Z" id="Path-3-Copy-3" fill="#5296EF" transform="translate(60.268869, 137.497097) rotate(30.000000) translate(-60.268869, -137.497097) "></path>
                    <path d="M57.4971125,107.341802 L91.7142802,103.062336 C93.3583263,102.856719 94.8577747,104.022796 95.0633919,105.666842 C95.0924872,105.899478 95.0942119,106.134722 95.0685308,106.36776 L89.4904248,156.985082 C89.3383097,158.365417 88.2587362,159.460938 86.88078,159.633276 L52.6636122,163.912742 C51.0195661,164.118359 49.5201178,162.952282 49.3145005,161.308236 C49.2854053,161.0756 49.2836805,160.840355 49.3093616,160.607318 L54.8874677,109.989995 C55.0395827,108.60966 56.1191562,107.51414 57.4971125,107.341802 Z" id="Rectangle" fill="#292C4E" transform="translate(72.188946, 133.487539) scale(-1, 1) rotate(14.000000) translate(-72.188946, -133.487539) "></path>
                    <path d="M117.610967,116.640229 C112.192717,106.001287 119.125815,97.4586104 127.643807,102.042445 C140.041194,108.713919 150.603387,137.288197 134.210928,151.638014 C117.818469,165.98783 84.422691,152.249107 84.6100046,140.250288 C84.7973182,128.251469 102.166721,142.448584 113.191707,141.106386 C124.216693,139.764188 123.029216,127.279172 117.610967,116.640229 Z" id="Path-3" fill="#6DE4FF" transform="translate(113.609220, 129.275601) rotate(35.000000) translate(-113.609220, -129.275601) "></path>
                    <g id="лицо" transform="translate(62.964445, 0.000000)">
                        <path d="M33.0031751,4.02570252 L39.8350105,4.29961775 C58.5976174,5.05188469 73.1978826,20.8718156 72.4456157,39.6344225 C72.4355671,39.8850497 72.4227453,40.135558 72.4071528,40.3859014 L71.7628941,50.7296982 C70.7323343,54.2432327 59.3396441,56 37.5848235,56 C15.8300028,56 4.20310418,54.1791749 2.70412749,50.5375246 L0.909968188,42.8647896 C-3.07089102,25.8406171 7.5028036,8.81267442 24.5269761,4.83181521 C27.3031837,4.18263878 30.1543662,3.91148253 33.0031751,4.02570252 Z" id="Combined-Shape" fill="#9BECFF"></path>
                        <path d="M47.2203222,80.3316496 L47.2203222,90 C47.2203222,95.5228475 42.7431697,100 37.2203222,100 C31.6974747,100 27.2203222,95.5228475 27.2203222,90 L27.2203222,80.4072675 C14.4657092,76.9523988 5.0833346,65.2960228 5.0833346,51.4482759 L5.0833346,41.4482759 C5.0833346,23.7751639 19.4102226,9.44827586 37.0833346,9.44827586 C54.7564466,9.44827586 69.0833346,23.7751639 69.0833346,41.4482759 L69.0833346,51.4482759 C69.0833346,65.1966815 59.8350921,76.7850445 47.2203222,80.3316496 Z" id="Combined-Shape" fill="#FFFFFF" transform="translate(37.083335, 54.724138) scale(-1, 1) translate(-37.083335, -54.724138) "></path>
                        <path d="M33,61 C33.7557756,63 35.0891089,64 37,64 C38.9108911,64 40.2442244,63 41,61" id="Path-4" stroke="#45B8FF" stroke-width="3" stroke-linecap="round" stroke-linejoin="round"></path>
                        <path d="M49,47 C49.4723598,48.3333333 50.3056931,49 51.5,49 C52.6943069,49 53.5276402,48.3333333 54,47" id="Path-4-Copy" stroke="#45B8FF" stroke-width="3" stroke-linecap="round" stroke-linejoin="round" transform="translate(51.500000, 48.000000) scale(1, -1) translate(-51.500000, -48.000000) "></path>
                        <ellipse id="Oval" fill="#45B8FF" cx="22.1166679" cy="47.9310345" rx="3.65" ry="3.72413793"></ellipse>
                        <path d="M74.3977677,33.8039222 C76.4662031,29.5210646 65.9302457,0.0107363972 38.4541611,0.0107363972 C10.9780765,0.0107363972 -0.444031926,36.1231621 3.36176253,36.1231621 C7.16755699,36.1231621 14.0346275,31.3149589 25.0452055,17.8985828 C28.907078,13.1928957 31.7291004,30.1758494 39.7501071,30.1758494 C42.7405326,30.1758494 35.912233,23.7732532 39.7501071,24.5034858 C42.9343491,25.1093518 43.6603076,31.7533948 49.2012989,35.3354333 C56.2904424,39.9182928 72.3293323,38.0867799 74.3977677,33.8039222 Z" id="Path" fill="#9BECFF"></path>
                        <path d="M40,53.2476008 C40,48.2444019 38.6052656,44 37,44 C35.3947344,44 34,48.2444019 34,53.2476008 C34,58.2507997 40,58.2507997 40,53.2476008 Z" id="Oval" fill="#CFEAFF"></path>
                    </g>
                    <path d="M7.23542829,46.5836201 L2.37025452,41.9366963 C1.57149542,41.1737692 1.54244781,39.9077725 2.30537487,39.1090134 C2.72493969,38.669743 3.32140386,38.4449625 3.92652549,38.4980745 L16.1415111,39.5701937 C21.004337,37.3350637 27.157122,36 33.8485067,36 C49.5886221,36 62.3485067,43.3873016 62.3485067,52.5 C62.3485067,61.6126984 49.5886221,69 33.8485067,69 C18.1083913,69 5.3485067,61.6126984 5.3485067,52.5 C5.3485067,50.4149363 6.01652969,48.420203 7.23542615,46.5836234 Z" id="Combined-Shape-Copy-5" fill="#FFFFFF" transform="translate(31.174253, 52.500000) scale(-1, -1) translate(-31.174253, -52.500000) "></path>
                    <text id="Cool!" font-family="FredokaOne-Regular, Fredoka One" font-size="14" font-weight="normal" letter-spacing="0.829999983" fill="#5296EF">
                        <tspan x="9.52900003" y="58">Cool</tspan>
                        <tspan x="43.733" y="58">!</tspan>
                    </text>
                </g>
                <path d="M131.048837,112 C130.22041,112 129.548837,111.328427 129.548837,110.5 C129.548837,109.671573 130.22041,109 131.048837,109 C131.877264,109 132.548837,109.671573 132.548837,110.5 C132.548837,111.328427 131.877264,112 131.048837,112 Z M123.548837,99 C122.996552,99 122.548837,98.5522847 122.548837,98 C122.548837,97.4477153 122.996552,97 123.548837,97 C124.101122,97 124.548837,97.4477153 124.548837,98 C124.548837,98.5522847 124.101122,99 123.548837,99 Z M169.548837,84 C168.996552,84 168.548837,83.5522847 168.548837,83 C168.548837,82.4477153 168.996552,82 169.548837,82 C170.101122,82 170.548837,82.4477153 170.548837,83 C170.548837,83.5522847 170.101122,84 169.548837,84 Z M96.048837,97 C95.2204099,97 94.548837,96.3284271 94.548837,95.5 C94.548837,94.6715729 95.2204099,94 96.048837,94 C96.8772641,94 97.548837,94.6715729 97.548837,95.5 C97.548837,96.3284271 96.8772641,97 96.048837,97 Z M88.548837,84 C87.9965522,84 87.548837,83.5522847 87.548837,83 C87.548837,82.4477153 87.9965522,82 88.548837,82 C89.1011217,82 89.548837,82.4477153 89.548837,83 C89.548837,83.5522847 89.1011217,84 88.548837,84 Z" id="Combined-Shape" fill="#FFFFFF"></path>
            </g>
        </g>
    </g>
</svg>