<?xml version="1.0" encoding="UTF-8"?>
<svg width="796px" height="425px" viewBox="0 0 796 425" version="1.1" xmlns="http://www.w3.org/2000/svg" xmlns:xlink="http://www.w3.org/1999/xlink">
    <!-- Generator: Sketch 53.2 (72643) - https://sketchapp.com -->
    <title>5.1</title>
    <desc>Created with Sketch.</desc>
    <defs>
        <linearGradient x1="50%" y1="1.47012247%" x2="50%" y2="187.552052%" id="linearGradient-1">
            <stop stop-color="#245FAB" offset="0%"></stop>
            <stop stop-color="#142E50" offset="99.9604096%"></stop>
        </linearGradient>
        <linearGradient x1="50%" y1="0%" x2="50%" y2="100%" id="linearGradient-2">
            <stop stop-color="#FFFFFF" stop-opacity="0" offset="0%"></stop>
            <stop stop-color="#000000" stop-opacity="0.497049825" offset="100%"></stop>
        </linearGradient>
    </defs>
    <g id="Page-3" stroke="none" stroke-width="1" fill="none" fill-rule="evenodd">
        <g id="5.1">
            <rect id="Rectangle-Copy-33" fill="url(#linearGradient-1)" x="85" y="44" width="627" height="380"></rect>
            <path d="M473.807977,424.31538 C473.467427,418.413769 472.587359,412.745708 471.167773,407.311197 C464.713362,382.602182 419.01148,378.980436 391.487987,336.451486 C363.964494,293.922536 345.958378,271.247002 356.339815,275.623471 C384.323314,287.420386 431.957996,319.463411 457.003146,357.257594 C466.015642,370.857829 472.51879,384.752832 476.512589,398.942603 C476.539392,383.09901 475.607916,370.896031 473.718163,362.333666 C468.889938,340.457247 433.381996,318.509436 425.644941,271.039378 C417.907885,223.56932 415.771053,202.662192 422.085741,207.220354 C443.775294,222.876631 474.230039,269.12225 481.653423,311.468258 C484.200203,325.99613 485.322056,344.222047 485.018983,366.146008 C485.551089,356.230416 485.872631,347.821397 485.98361,340.918951 C486.810062,289.516803 478.753492,272.645992 484.231865,230.482947 C489.360878,191.008671 516.948686,162.903312 528.696674,129.043827 C544.711225,82.8874599 560.933087,159.198512 540.534675,231.948295 C531.248112,265.068294 508.800469,303.57814 496.515958,352.994151 C494.811998,359.848547 494.08244,368.986328 493.4897,379.696737 C499.807733,355.366505 509.03267,328.23185 520.478546,308.061058 C547.561003,260.334293 627.750631,228.662696 645.376121,236.214684 C656.541668,240.998783 627.262826,255.184022 603.679559,273.229124 C580.096293,291.274226 580.096293,317.856545 537.931085,337.925681 C510.686612,350.893079 499.679463,387.675174 493.446974,413.080683 C500.207881,396.576592 510.760716,381.234968 525.105478,367.055813 C556.776595,335.75033 609.403107,313.987806 638.976747,307.866804 C649.948101,305.596009 628.037212,323.839095 593.042038,359.185796 C592.465344,359.768284 591.885848,360.339858 591.303751,360.900821 C590.199245,367.039842 588.886842,374.337765 587.543034,382.616539 C584.507978,401.314563 573.981321,413.888496 566.834113,424.31538 L554.210579,424.31538 C554.377903,420.14381 554.841031,415.871427 555.599964,411.498231 C557.496878,400.567652 561.671908,389.173358 566.82564,378.543571 C538.369555,393.766627 510.105745,395.007741 501.715073,411.956249 C499.776572,415.871871 498.146383,419.991582 496.824508,424.31538 L473.807977,424.31538 Z M588.074651,424.31538 C596.17025,399.323858 604.430625,380.233556 612.855776,367.044473 C629.572537,340.875356 664.38808,317.137553 684.606577,311.566299 C690.492983,309.944286 683.371972,323.195605 665.065582,352.65794 C646.759192,382.120275 614.635042,388.825029 605.263014,402.129124 C601.739998,407.130235 597.982488,414.52565 593.99048,424.31538 L588.074651,424.31538 Z M601.981743,424.31538 C607.335892,415.504367 614.455371,407.57017 623.340179,400.512789 C645.132103,383.203025 678.690343,373.876731 697.012997,372.559874 C703.810412,372.071341 689.033567,381.852996 664.888225,401.464868 C642.786231,419.417047 618.437975,414.97434 607.894265,424.31538 L601.981743,424.31538 Z M232.190065,424 L215.900957,424 C214.988367,421.070198 213.872884,418.274614 212.55451,415.613249 C204.80717,399.973916 172.954751,403.374327 148.354679,378.543859 C123.754608,353.713391 108.352118,340.898023 116.064717,342.493002 C136.854279,346.792319 173.849188,362.079356 196.112611,384.070918 C206.196357,394.031531 213.61442,404.80888 218.3668,416.402967 C213.98611,398.555551 206.249205,372.716111 187.097174,363.607088 C157.456323,349.50941 157.456984,330.835119 140.878839,318.158879 C124.300695,305.482638 103.718571,295.518123 111.56786,292.156978 C123.958436,286.851208 180.329453,309.098762 199.366725,342.626519 C207.412459,356.796376 213.896741,375.858457 218.337595,392.950482 C217.921177,385.426349 217.408538,379.007003 216.210857,374.191778 C207.576305,339.476944 191.796991,312.424029 185.269536,289.157198 C170.931644,238.050406 182.337206,184.440882 193.593987,216.865698 C201.851761,240.651963 221.244773,260.395514 224.849391,288.126379 C228.699535,317.746117 223.035498,329.598195 223.6152,365.708592 C223.693045,370.557612 223.918873,376.465007 224.292687,383.430776 C224.080178,368.029027 224.869273,355.225148 226.659973,345.019139 C231.879526,315.270548 253.28979,282.781876 268.537528,271.782677 C272.976749,268.580375 271.474076,283.267851 266.033891,316.616137 C260.593705,349.964422 235.631742,365.383816 232.237046,380.752294 C230.908372,386.767471 230.253259,395.340184 230.271707,406.470433 C233.079626,396.501907 237.651562,386.740395 243.987516,377.185898 C261.594727,350.634561 295.081811,328.122897 314.75398,319.834775 C322.052044,316.760012 309.393518,332.690203 290.043961,362.567812 C270.694404,392.445422 238.566749,394.990864 234.028804,412.349303 C233.054417,416.076507 232.441504,419.960073 232.190065,424 Z" id="Combined-Shape" fill="#245FAB"></path>
            <g id="человек-и-кот-2" transform="translate(237.000000, 102.000000)">
                <g id="человек-и-кот" transform="translate(147.500000, 161.000000) scale(-1, 1) translate(-147.500000, -161.000000) ">
                    <g id="человек">
                        <path d="M150,205 C187.555363,205 218,159.109187 218,102.5 C218,45.8908131 212.848871,-0.01969362 150,7.62329653e-21 C87.1511294,0.01969362 82,45.8908131 82,102.5 C82,159.109187 112.444637,205 150,205 Z" id="Oval" fill="#9BECFF"></path>
                        <path d="M133.747553,164.078771 L165.781005,163.924853 C191.18581,163.802785 211.87943,184.298494 212.001497,209.703299 C212.006464,210.736911 211.976591,211.770397 211.911929,212.801997 L205.067298,322 L94.9207307,322 L88.0593886,212.967268 C86.4638224,187.612324 105.724604,165.764618 131.079548,164.169052 C131.967822,164.113154 132.857532,164.083047 133.747553,164.078771 Z" id="Rectangle" fill="#45B8FF"></path>
                        <g id="лицо" transform="translate(86.880619, 0.000000)">
                            <path d="M81.8862926,146.398334 L81.8862926,165.116883 C81.8862926,175.230149 73.6878705,183.428571 63.5746043,183.428571 C53.4613381,183.428571 45.262916,175.230149 45.262916,165.116883 L45.262916,146.563234 C21.7383964,138.949243 4.72635433,116.862312 4.72635433,90.8020063 L4.72635433,75.92824 C4.72635433,43.5657882 30.9613051,17.3308374 63.3237569,17.3308374 C95.6862088,17.3308374 121.92116,43.5657882 121.92116,75.92824 L121.92116,90.8020063 C121.92116,116.676687 105.150605,138.634395 81.8862926,146.398334 Z" id="Combined-Shape" fill="#FFFFFF" transform="translate(63.323757, 100.379704) scale(-1, 1) translate(-63.323757, -100.379704) "></path>
                            <path d="M55.8464819,111.891429 C57.2304346,115.891429 59.671993,117.891429 63.1711572,117.891429 C66.6703214,117.891429 69.1118798,115.891429 70.4958325,111.891429 L55.8464819,111.891429 Z" id="Path-4" stroke="#45B8FF" stroke-width="6" stroke-linecap="round" stroke-linejoin="round"></path>
                            <ellipse id="Oval" fill="#45B8FF" cx="35.9172634" cy="87.9192118" rx="6.68376623" ry="6.831133"></ellipse>
                            <ellipse id="Oval-Copy-2" fill="#45B8FF" cx="89.3873933" cy="87.9192118" rx="6.68376623" ry="6.831133"></ellipse>
                            <path d="M126.825598,62.0060517 C130.474088,54.1500671 111.88983,0.01969362 63.4250699,0.01969362 C14.9603095,0.01969362 -5.1870206,66.2602003 1.52597796,66.2602003 C8.23897651,66.2602003 20.3517259,57.4405818 39.773162,32.8311147 C46.5850761,24.1995401 51.5628101,55.3511295 65.7109746,55.3511295 C70.985753,55.3511295 58.9413912,43.6069387 65.7109746,44.946394 C71.3276238,46.0577254 72.6081338,58.2447985 82.3818269,64.8152806 C94.8862883,73.2215543 123.177108,69.8620362 126.825598,62.0060517 Z" id="Path" fill="#9BECFF"></path>
                            <path d="M68.6646637,97.6713135 C68.6646637,88.4940172 66.1106695,80.7085714 63.1711572,80.7085714 C60.2316449,80.7085714 57.6776507,88.4940172 57.6776507,97.6713135 C57.6776507,106.84861 68.6646637,106.84861 68.6646637,97.6713135 Z" id="Oval" fill="#CFEAFF"></path>
                        </g>
                    </g>
                </g>
            </g>
            <g id="плеер">
                <path d="M14,424 C6.2680135,424 8.8817842e-16,417.731986 0,410 L0,31 L85,31 L85,424 L14,424 Z M796,410 C796,417.731986 789.731986,424 782,424 L711,424 L711,31 L796,31 L796,410 Z" id="Combined-Shape" fill="#000000"></path>
                <g id="низ" transform="translate(0.000000, 351.000000)">
                    <rect id="Rectangle" fill="#FFFFFF" opacity="0.504045759" x="0" y="29" width="796" height="8"></rect>
                    <path d="M796,59 C796,66.7319865 789.731986,73 782,73 L14,73 C6.2680135,73 8.8817842e-16,66.7319865 0,59 L0,0 L796,0 L796,59 Z" id="Combined-Shape" fill="url(#linearGradient-2)"></path>
                    <g id="иконка-субтитры" transform="translate(729.000000, 45.000000)">
                        <rect id="Rectangle" fill="#FA5E5E" x="1" y="18" width="22" height="2" rx="1"></rect>
                        <path d="M4,0 L20,0 C22.209139,-4.05812251e-16 24,1.790861 24,4 L24,12 C24,14.209139 22.209139,16 20,16 L4,16 C1.790861,16 2.705415e-16,14.209139 0,12 L0,4 C-2.705415e-16,1.790861 1.790861,4.05812251e-16 4,0 Z M11.0625,9.81944444 C11.0625,9.62036937 10.9765634,9.43287125 10.8046875,9.25694444 C10.6328116,9.08101764 10.416668,8.99305556 10.15625,8.99305556 C9.93749891,8.99305556 9.75260492,9.05324014 9.6015625,9.17361111 C9.45052008,9.29398208 9.30989648,9.46064708 9.1796875,9.67361111 C8.94531133,10.034724 8.67578277,10.3032399 8.37109375,10.4791667 C8.06640473,10.6550935 7.70052297,10.7430556 7.2734375,10.7430556 C6.95572758,10.7430556 6.66406383,10.688658 6.3984375,10.5798611 C6.13281117,10.4710643 5.90625094,10.3113436 5.71875,10.1006944 C5.53124906,9.89004524 5.38802133,9.63541816 5.2890625,9.33680556 C5.19010367,9.03819295 5.140625,8.71064993 5.140625,8.35416667 C5.140625,7.59490361 5.33333141,6.99652997 5.71875,6.55902778 C6.10416859,6.12152559 6.61197602,5.90277778 7.2421875,5.90277778 C7.67968969,5.90277778 8.04036316,5.99073986 8.32421875,6.16666667 C8.60807434,6.34259347 8.88020703,6.60647972 9.140625,6.95833333 C9.28645906,7.13888979 9.41796816,7.26967552 9.53515625,7.35069444 C9.65234434,7.43171337 9.79947828,7.47222222 9.9765625,7.47222222 C10.2473972,7.47222222 10.4778636,7.39351931 10.6679688,7.23611111 C10.8580739,7.07870292 10.953125,6.88657521 10.953125,6.65972222 C10.953125,6.43749889 10.8684904,6.19791795 10.6992188,5.94097222 C10.5299471,5.68402649 10.2851579,5.44213076 9.96484375,5.21527778 C9.64452965,4.98842479 9.25390855,4.80324146 8.79296875,4.65972222 C8.33202895,4.51620299 7.82552359,4.44444444 7.2734375,4.44444444 C6.38280805,4.44444444 5.6171907,4.60763726 4.9765625,4.93402778 C4.3359343,5.2604183 3.84635586,5.72221924 3.5078125,6.31944444 C3.16926914,6.91666965 3,7.60416278 3,8.38194444 C3,9.53009833 3.36978797,10.4455984 4.109375,11.1284722 C4.84896203,11.811346 5.87759758,12.1527778 7.1953125,12.1527778 C7.81510727,12.1527778 8.37239336,12.0787044 8.8671875,11.9305556 C9.36198164,11.7824067 9.77213379,11.5868068 10.0976562,11.34375 C10.4231787,11.1006932 10.6653638,10.8449087 10.8242188,10.5763889 C10.9830737,10.307869 11.0625,10.0555567 11.0625,9.81944444 Z M20.4803125,9.81944444 C20.4803125,9.62036937 20.3943759,9.43287125 20.2225,9.25694444 C20.0506241,9.08101764 19.8344805,8.99305556 19.5740625,8.99305556 C19.3553114,8.99305556 19.1704174,9.05324014 19.019375,9.17361111 C18.8683326,9.29398208 18.727709,9.46064708 18.5975,9.67361111 C18.3631238,10.034724 18.0935953,10.3032399 17.7889062,10.4791667 C17.4842172,10.6550935 17.1183355,10.7430556 16.69125,10.7430556 C16.3735401,10.7430556 16.0818763,10.688658 15.81625,10.5798611 C15.5506237,10.4710643 15.3240634,10.3113436 15.1365625,10.1006944 C14.9490616,9.89004524 14.8058338,9.63541816 14.706875,9.33680556 C14.6079162,9.03819295 14.5584375,8.71064993 14.5584375,8.35416667 C14.5584375,7.59490361 14.7511439,6.99652997 15.1365625,6.55902778 C15.5219811,6.12152559 16.0297885,5.90277778 16.66,5.90277778 C17.0975022,5.90277778 17.4581757,5.99073986 17.7420312,6.16666667 C18.0258868,6.34259347 18.2980195,6.60647972 18.5584375,6.95833333 C18.7042716,7.13888979 18.8357807,7.26967552 18.9529687,7.35069444 C19.0701568,7.43171337 19.2172908,7.47222222 19.394375,7.47222222 C19.6652097,7.47222222 19.8956761,7.39351931 20.0857812,7.23611111 C20.2758864,7.07870292 20.3709375,6.88657521 20.3709375,6.65972222 C20.3709375,6.43749889 20.2863029,6.19791795 20.1170312,5.94097222 C19.9477596,5.68402649 19.7029703,5.44213076 19.3826562,5.21527778 C19.0623421,4.98842479 18.6717211,4.80324146 18.2107812,4.65972222 C17.7498414,4.51620299 17.2433361,4.44444444 16.69125,4.44444444 C15.8006205,4.44444444 15.0350032,4.60763726 14.394375,4.93402778 C13.7537468,5.2604183 13.2641684,5.72221924 12.925625,6.31944444 C12.5870816,6.91666965 12.4178125,7.60416278 12.4178125,8.38194444 C12.4178125,9.53009833 12.7876005,10.4455984 13.5271875,11.1284722 C14.2667745,11.811346 15.2954101,12.1527778 16.613125,12.1527778 C17.2329198,12.1527778 17.7902059,12.0787044 18.285,11.9305556 C18.7797941,11.7824067 19.1899463,11.5868068 19.5154687,11.34375 C19.8409912,11.1006932 20.0831763,10.8449087 20.2420312,10.5763889 C20.4008862,10.307869 20.4803125,10.0555567 20.4803125,9.81944444 Z" id="Combined-Shape" fill="#E6E6E6"></path>
                    </g>
                    <g id="иконка-на-весь-экран" transform="translate(765.000000, 46.000000)" stroke="#E6E6E6" stroke-linecap="round" stroke-linejoin="round" stroke-width="2">
                        <polyline id="Path-7" points="13.2631579 0 18 0 18 4.73684211"></polyline>
                        <polyline id="Path-7-Copy" transform="translate(15.631579, 15.631579) rotate(90.000000) translate(-15.631579, -15.631579) " points="13.2631579 13.2631579 18 13.2631579 18 18"></polyline>
                        <polyline id="Path-7-Copy-2" transform="translate(2.368421, 15.631579) scale(-1, 1) rotate(90.000000) translate(-2.368421, -15.631579) " points="1.27155596e-13 13.2631579 4.73684211 13.2631579 4.73684211 18"></polyline>
                        <polyline id="Path-7-Copy-3" transform="translate(2.368421, 2.368421) scale(-1, -1) rotate(90.000000) translate(-2.368421, -2.368421) " points="1.94936903e-13 -5.32826483e-14 4.73684211 -5.32826483e-14 4.73684211 4.73684211"></polyline>
                    </g>
                    <g id="Group-10" transform="translate(19.000000, 45.000000)" fill="#E6E6E6">
                        <rect id="Rectangle" x="0" y="0" width="8" height="20" rx="4"></rect>
                        <rect id="Rectangle-Copy-26" x="12" y="0" width="8" height="20" rx="4"></rect>
                    </g>
                    <path d="M71,45 C72.1045695,45 73,45.8954305 73,47 L73,63 C73,64.1045695 72.1045695,65 71,65 C69.8954305,65 69,64.1045695 69,63 L69,47 C69,45.8954305 69.8954305,45 71,45 Z M65.5038491,56.6641006 L56.1094004,62.9270664 C55.190343,63.5397713 53.9486043,63.2914236 53.3358994,62.3723662 C53.1168761,62.0438312 53,61.6578158 53,61.2629658 L53,48.7370342 C53,47.6324647 53.8954305,46.7370342 55,46.7370342 C55.39485,46.7370342 55.7808654,46.8539102 56.1094004,47.0729336 L65.5038491,53.3358994 C66.4229065,53.9486043 66.6712542,55.190343 66.0585493,56.1094004 C65.9120796,56.329105 65.7235537,56.5176309 65.5038491,56.6641006 Z" id="Combined-Shape" fill="#E6E6E6"></path>
                </g>
                <g id="верх">
                    <path d="M14,0 L782,0 C789.731986,-1.77635684e-15 796,6.2680135 796,14 L796,44 L0,44 L0,14 C-8.8817842e-16,6.2680135 6.2680135,1.77635684e-15 14,0 Z" id="Combined-Shape" fill="#2C2C2C"></path>
                    <rect id="Rectangle" fill="#FA5E5E" x="61" y="12" width="32" height="20" rx="6"></rect>
                    <path d="M21,13 L39,13 C40.1045695,13 41,13.8954305 41,15 C41,16.1045695 40.1045695,17 39,17 L21,17 C19.8954305,17 19,16.1045695 19,15 C19,13.8954305 19.8954305,13 21,13 Z M21,20 L39,20 C40.1045695,20 41,20.8954305 41,22 C41,23.1045695 40.1045695,24 39,24 L21,24 C19.8954305,24 19,23.1045695 19,22 C19,20.8954305 19.8954305,20 21,20 Z M21,27 L39,27 C40.1045695,27 41,27.8954305 41,29 C41,30.1045695 40.1045695,31 39,31 L21,31 C19.8954305,31 19,30.1045695 19,29 C19,27.8954305 19.8954305,27 21,27 Z" id="Combined-Shape" fill="#E6E6E6"></path>
                    <circle id="Oval" fill="#9BC6FF" cx="764" cy="22" r="9"></circle>
                </g>
                <g id="текст" transform="translate(190.000000, 344.000000)">
                    <rect id="Rectangle" fill="#303030" opacity="0.461518787" x="0" y="0" width="418" height="30" rx="4"></rect>
                    <text id="I-say-something-It-i" font-family="ArialRoundedMTBold, Arial Rounded MT Bold" font-size="16" font-weight="normal" letter-spacing="-0.0900000036" fill="#FFFFFF">
                        <tspan x="8.83046885" y="15">I say something It is really interesting and important.</tspan>
                    </text>
                </g>
                <rect id="Rectangle-Copy-25" fill="#FA5E5E" x="0" y="380" width="181" height="8"></rect>
            </g>
        </g>
    </g>
</svg>