<?xml version="1.0" encoding="UTF-8"?>
<svg width="651px" height="620px" viewBox="0 0 651 620" version="1.1" xmlns="http://www.w3.org/2000/svg" xmlns:xlink="http://www.w3.org/1999/xlink">
    <!-- Generator: Sketch 53.2 (72643) - https://sketchapp.com -->
    <title>Group 4</title>
    <desc>Created with Sketch.</desc>
    <defs>
        <linearGradient x1="50%" y1="1.47012247%" x2="50%" y2="99.8830213%" id="linearGradient-1">
            <stop stop-color="#245FAB" offset="0%"></stop>
            <stop stop-color="#142E50" offset="99.9604096%"></stop>
        </linearGradient>
        <rect id="path-2" x="0" y="0.99796334" width="250" height="489.002037" rx="40"></rect>
        <filter x="-14.8%" y="-6.7%" width="128.8%" height="114.7%" filterUnits="objectBoundingBox" id="filter-3">
            <feMorphology radius="3" operator="dilate" in="SourceAlpha" result="shadowSpreadOuter1"></feMorphology>
            <feOffset dx="-1" dy="3" in="shadowSpreadOuter1" result="shadowOffsetOuter1"></feOffset>
            <feGaussianBlur stdDeviation="8.5" in="shadowOffsetOuter1" result="shadowBlurOuter1"></feGaussianBlur>
            <feColorMatrix values="0 0 0 0 0.368526519   0 0 0 0 0.489322469   0 0 0 0 0.582257699  0 0 0 0.348776224 0" type="matrix" in="shadowBlurOuter1"></feColorMatrix>
        </filter>
        <path d="M27,288 L285,288 C299.911688,288 312,300.088312 312,315 L312,345 C312,359.911688 299.911688,372 285,372 L27,372 C12.0883118,372 1.82615513e-15,359.911688 0,345 L0,315 C-1.82615513e-15,300.088312 12.0883118,288 27,288 Z M27,192 L269,192 C283.911688,192 296,204.088312 296,219 L296,249 C296,263.911688 283.911688,276 269,276 L27,276 C12.0883118,276 1.82615513e-15,263.911688 0,249 L0,219 C-1.82615513e-15,204.088312 12.0883118,192 27,192 Z M27,96 L253,96 C267.911688,96 280,108.088312 280,123 L280,153 C280,167.911688 267.911688,180 253,180 L27,180 C12.0883118,180 1.82615513e-15,167.911688 0,153 L0,123 C-1.82615513e-15,108.088312 12.0883118,96 27,96 Z M27,0 L237,3.55271368e-15 C251.911688,8.13480987e-16 264,12.0883118 264,27 L264,57 C264,71.9116882 251.911688,84 237,84 L27,84 C12.0883118,84 1.82615513e-15,71.9116882 0,57 L0,27 C-1.82615513e-15,12.0883118 12.0883118,2.73923269e-15 27,0 Z" id="path-4"></path>
        <filter x="-2.2%" y="-1.3%" width="104.5%" height="103.8%" filterUnits="objectBoundingBox" id="filter-5">
            <feMorphology radius="1.5" operator="erode" in="SourceAlpha" result="shadowSpreadOuter1"></feMorphology>
            <feOffset dx="0" dy="2" in="shadowSpreadOuter1" result="shadowOffsetOuter1"></feOffset>
            <feGaussianBlur stdDeviation="3.5" in="shadowOffsetOuter1" result="shadowBlurOuter1"></feGaussianBlur>
            <feColorMatrix values="0 0 0 0 0.666535488   0 0 0 0 0.764391284   0 0 0 0 0.823228034  0 0 0 1 0" type="matrix" in="shadowBlurOuter1"></feColorMatrix>
        </filter>
        <circle id="path-6" cx="25" cy="25" r="25"></circle>
        <filter x="-7.0%" y="-5.0%" width="114.0%" height="114.0%" filterUnits="objectBoundingBox" id="filter-7">
            <feMorphology radius="2.5" operator="erode" in="SourceAlpha" result="shadowSpreadOuter1"></feMorphology>
            <feOffset dx="0" dy="1" in="shadowSpreadOuter1" result="shadowOffsetOuter1"></feOffset>
            <feGaussianBlur stdDeviation="3.5" in="shadowOffsetOuter1" result="shadowBlurOuter1"></feGaussianBlur>
            <feColorMatrix values="0 0 0 0 0.360784314   0 0 0 0 0.466666667   0 0 0 0 0.615686275  0 0 0 1 0" type="matrix" in="shadowBlurOuter1"></feColorMatrix>
        </filter>
    </defs>
    <g id="Page-1" stroke="none" stroke-width="1" fill="none" fill-rule="evenodd">
        <g id="Group-2-Copy-2" transform="translate(-78.000000, -106.000000)">
            <g id="Group-3" transform="translate(34.000000, 0.000000)">
                <g id="Group-4" transform="translate(44.321426, 106.000000)">
                    <ellipse id="Oval" fill="url(#linearGradient-1)" cx="340.678574" cy="310" rx="280" ry="310"></ellipse>
                    <path d="M243.715735,529.349736 L237.314502,531.88215 C233.639103,522.924223 228.943423,515.079838 223.227462,508.348997 C207.147573,489.414091 164.353779,505.070699 121.84697,479.240044 C79.340161,453.40939 53.6667176,441.008925 64.8615304,440.558057 C95.0375111,439.342728 151.365622,447.727307 189.669453,470.440946 C210.002464,482.498139 225.667907,497.36473 236.665781,515.04072 C226.035573,491.083651 206.953795,447.843009 171.266458,448.338783 C122.521837,449.01595 93.1742193,405.178805 71.748535,397.305116 C50.3228508,389.431426 23.5909937,395.904726 33.2674983,388.561546 C48.5424442,376.969892 142.062681,372.321995 179.886823,412.079231 C195.348629,428.33125 210.370492,451.407346 222.211761,472.881127 C216.349543,458.505062 211.199779,446.941681 206.762468,438.190985 C183.069841,391.467423 163.108285,380 152.394391,346 C138.368158,301.488461 158.400426,304.622231 158.400426,220.794003 C158.400426,180.412844 185.999769,233.521142 202.575189,308.745508 C210.121299,342.992084 204.032571,391.076658 216.677255,441.43024 C221.288963,459.794953 240.264501,491.56724 252.19244,527.57386 C252.487575,528.464776 250.523512,529.206328 246.300252,529.798517 C246.167963,530.387808 245.851749,530.636403 245.339115,530.505889 C245.076029,530.438909 244.800599,530.276348 244.511951,530.024964 C244.33804,530.044914 244.161186,530.064669 243.98139,530.08423 C243.892737,529.838997 243.804185,529.594166 243.715735,529.349736 Z M3.27871807,448.768751 C24.2322765,449.649041 63.4953425,464.946652 85.6704249,486.684604 C107.845507,508.422556 124.248677,523.949854 129.282267,533.242163 C134.315857,542.534472 119.559391,529.162437 100.960914,519.162038 C82.3624368,509.16164 56.0272681,509.000623 31.5624867,484.411447 C7.09770534,459.822272 -2.82169254,448.512463 3.27871807,448.768751 Z M4.79142089,527.913297 C36.253232,526.189391 55.9906642,513.029071 83.0562777,519.507379 C110.121891,525.985688 126.103742,543.344348 114.014277,540.234961 C101.924812,537.125573 78.5361738,536.296045 49.6362756,539.215321 C20.7363773,542.134598 -12.5828119,528.865294 4.79142089,527.913297 Z M488.794468,517.869736 C490.849602,517.185255 492.686185,516.498492 494.304218,515.809446 C506.86514,510.460326 520.331193,502.341301 533.365427,499.794104 C567.106601,493.200284 604.940513,499.263645 625.062152,507.667031 C632.526963,510.784554 613.07965,513.412696 575.424965,521.174578 C537.770281,528.936459 513.910887,513.581265 496.568825,523.038148 C487.321881,528.080644 485.946992,556.598426 472.369342,556.9193 C464.691089,557.100757 462.405586,549.063659 465.512831,532.808006 C464.917429,523.265753 467.708251,509.543719 478.765071,492.925893 C479.243079,489.927966 479.626531,487.16553 479.865605,484.759731 C481.885026,464.438362 459.040165,436.563309 465.644339,393.136573 C472.248513,349.709838 476.187877,330.893794 480.072867,336.424192 C493.416946,355.419887 505.57081,403.322293 500.102476,442.188759 C498.635671,452.614151 496.533365,465.005771 494.099132,477.593408 C495.853356,476.100811 497.685225,474.570139 499.555567,473.024921 C512.243085,428.964352 510.202501,385.06357 518.649182,355.071677 C537.830228,286.964941 564.433152,244.617886 563.760725,275.877334 C562.286095,344.4292 564.778152,346.47495 561.510673,380.476595 C557.576153,421.419526 531.312448,427.009463 508.272697,465.912569 C518.001194,458.039736 527.164493,450.731712 530.473863,447.165062 C564.079037,410.947319 638.04521,415.264735 649.166415,425.846785 C656.211571,432.550393 635.524953,426.625418 617.787063,433.786279 C600.049172,440.947139 571.436183,471.101795 532.012643,479.127106 C511.398356,483.323483 497.882962,501.362136 488.794468,517.869736 Z" id="Combined-Shape" fill="#245FAB"></path>
                    <path d="M193.126221,380 C192.021652,380 191.126221,379.104569 191.126221,378 C191.126221,376.895431 192.021652,376 193.126221,376 C194.230791,376 195.126221,376.895431 195.126221,378 C195.126221,379.104569 194.230791,380 193.126221,380 Z M176.626221,344 C175.797794,344 175.126221,343.328427 175.126221,342.5 C175.126221,341.671573 175.797794,341 176.626221,341 C177.454648,341 178.126221,341.671573 178.126221,342.5 C178.126221,343.328427 177.454648,344 176.626221,344 Z M170.164888,430.383366 C169.294476,431.063407 168.037585,430.90908 167.357544,430.038667 C166.677503,429.168255 166.83183,427.911364 167.702243,427.231323 C168.572655,426.551282 169.829546,426.705609 170.509587,427.576022 C171.189628,428.446434 171.035301,429.703325 170.164888,430.383366 Z M121.155222,411.287524 C120.502412,411.797555 119.559744,411.68181 119.049713,411.029001 C118.539683,410.376191 118.655428,409.433523 119.308237,408.923492 C119.961047,408.413462 120.903715,408.529207 121.413746,409.182016 C121.923776,409.834826 121.808031,410.777494 121.155222,411.287524 Z M140.155222,407.287524 C139.502412,407.797555 138.559744,407.68181 138.049713,407.029001 C137.539683,406.376191 137.655428,405.433523 138.308237,404.923492 C138.961047,404.413462 139.903715,404.529207 140.413746,405.182016 C140.923776,405.834826 140.808031,406.777494 140.155222,407.287524 Z M542.126221,383 C541.021652,383 540.126221,382.104569 540.126221,381 C540.126221,379.895431 541.021652,379 542.126221,379 C543.230791,379 544.126221,379.895431 544.126221,381 C544.126221,382.104569 543.230791,383 542.126221,383 Z M556.626221,347 C555.797794,347 555.126221,346.328427 555.126221,345.5 C555.126221,344.671573 555.797794,344 556.626221,344 C557.454648,344 558.126221,344.671573 558.126221,345.5 C558.126221,346.328427 557.454648,347 556.626221,347 Z M576.308237,434.287524 C575.655428,433.777494 575.539683,432.834826 576.049713,432.182016 C576.559744,431.529207 577.502412,431.413462 578.155222,431.923492 C578.808031,432.433523 578.923776,433.376191 578.413746,434.029001 C577.903715,434.68181 576.961047,434.797555 576.308237,434.287524 Z" id="Combined-Shape" fill="#FFFFFF"></path>
                    <g id="phone" transform="translate(215.904637, 65.000000)">
                        <g id="Group-8">
                            <g id="Rectangle">
                                <use fill="black" fill-opacity="1" filter="url(#filter-3)" xlink:href="#path-2"></use>
                                <use fill="#F6FAFF" fill-rule="evenodd" xlink:href="#path-2"></use>
                            </g>
                            <path d="M30,0.99796334 L220,0.99796334 C236.568542,0.99796334 250,14.4294208 250,30.9979633 L250,56.9979633 L0,56.9979633 L0,30.9979633 C-2.02906125e-15,14.4294208 13.4314575,0.99796334 30,0.99796334 Z" id="Rectangle-Copy-3" fill="#45B8FF"></path>
                            <rect id="Rectangle-Copy" stroke="#000000" stroke-width="12" x="-6" y="-5.00203666" width="262" height="501.002037" rx="40"></rect>
                            <path d="M57,0 L193,0 L193,6 C193,11.5228475 188.522847,16 183,16 L67,16 C61.4771525,16 57,11.5228475 57,6 L57,0 Z" id="Rectangle" fill="#000000"></path>
                            <path d="M106,3 L144,3 C145.104569,3 146,3.8954305 146,5 C146,6.1045695 145.104569,7 144,7 L106,7 C104.895431,7 104,6.1045695 104,5 C104,3.8954305 104.895431,3 106,3 Z M152,3 C153.104569,3 154,3.8954305 154,5 C154,6.1045695 153.104569,7 152,7 C150.895431,7 150,6.1045695 150,5 C150,3.8954305 150.895431,3 152,3 Z" id="Combined-Shape" fill="#1A1A1A"></path>
                            <text id="My-lessons" font-family="Kodchasan-SemiBold, Kodchasan SemiBold" font-size="22" font-weight="500" letter-spacing="-0.077" fill="#FFFFFF">
                                <tspan x="63.664" y="44">My lessons</tspan>
                            </text>
                        </g>
                        <g id="уроки" transform="translate(17.000000, 70.000000)">
                            <g id="Combined-Shape">
                                <use fill="black" fill-opacity="1" filter="url(#filter-5)" xlink:href="#path-4"></use>
                                <use fill="#FFFFFF" fill-rule="evenodd" xlink:href="#path-4"></use>
                            </g>
                            <text id="4.-Help-me!" font-family="Arial-BoldMT, Arial" font-size="16" font-weight="bold" letter-spacing="-0.056" fill="#50525B">
                                <tspan x="22" y="322">4. Help me!</tspan>
                            </text>
                            <text id="2-days-ago" font-family="Arial-BoldMT, Arial" font-size="14" font-weight="bold" letter-spacing="-0.049" fill="#D3DBE7">
                                <tspan x="22" y="343">2 days ago</tspan>
                            </text>
                            <g id="Group" transform="translate(268.000000, 319.000000)">
                                <circle id="Oval-Copy" fill="#AFF265" cx="11" cy="11" r="11"></circle>
                                <circle id="Oval" fill="#FFFFFF" cx="11" cy="11" r="7.33333333"></circle>
                            </g>
                            <text id="3.-And-EASYLANG…" font-family="Arial-BoldMT, Arial" font-size="16" font-weight="bold" letter-spacing="-0.056" fill="#50525B">
                                <tspan x="22" y="226">3. And EASYLANG</tspan>
                                <tspan x="162.800625" y="226" font-family="Kodchasan-SemiBold, Kodchasan SemiBold" font-weight="500">…</tspan>
                            </text>
                            <text id="3-days-ago" font-family="Arial-BoldMT, Arial" font-size="14" font-weight="bold" letter-spacing="-0.049" fill="#D3DBE7">
                                <tspan x="22" y="247">3 days ago</tspan>
                            </text>
                            <g id="Group" transform="translate(263.000000, 233.000000) scale(-1, 1) translate(-263.000000, -233.000000) translate(252.000000, 222.000000)">
                                <circle id="Oval-Copy" fill="#AFF265" cx="11" cy="11" r="11"></circle>
                                <path d="M11,22 C11,17.0751322 11,5.95722933 11,0 C4.92486775,0 0,4.92486775 0,11 C0,17.0751322 4.92486775,22 11,22 Z" id="Oval-Copy-9" fill="#FFEB5D"></path>
                                <circle id="Oval" fill="#FFFFFF" cx="11" cy="11" r="7.33333333"></circle>
                            </g>
                            <text id="2.-And-getting-bette" font-family="Arial-BoldMT, Arial" font-size="16" font-weight="bold" letter-spacing="-0.056" fill="#50525B">
                                <tspan x="22" y="130">2. And getting better…</tspan>
                            </text>
                            <text id="4-days-ago" font-family="Arial-BoldMT, Arial" font-size="14" font-weight="bold" letter-spacing="-0.049" fill="#D3DBE7">
                                <tspan x="22" y="151">4 days ago</tspan>
                            </text>
                            <text id="1.-I-study…" font-family="Arial-BoldMT, Arial" font-size="16" font-weight="bold" letter-spacing="-0.056" fill="#50525B">
                                <tspan x="21" y="34">1. I study…</tspan>
                            </text>
                            <text id="5-days-ago" font-family="Arial-BoldMT, Arial" font-size="14" font-weight="bold" letter-spacing="-0.049" fill="#D3DBE7">
                                <tspan x="21" y="55">5 days ago</tspan>
                            </text>
                            <g id="Group" transform="translate(241.000000, 127.000000)">
                                <circle id="Oval-Copy" fill="#FF9861" cx="11" cy="11" r="11"></circle>
                                <path d="M11,22 C11,22 11,1.42108547e-14 11,1.42108547e-14 C4.92486775,1.42108547e-14 1.33226763e-14,4.92486775 1.33226763e-14,11 C1.33226763e-14,17.0751322 4.92486775,22 11,22 Z" id="Oval-Copy-2" fill="#FFEB5D"></path>
                                <circle id="Oval" fill="#FFFFFF" cx="11" cy="11" r="7.33333333"></circle>
                            </g>
                            <g id="Group-Copy" transform="translate(220.000000, 31.000000)">
                                <circle id="Oval-Copy" fill="#FF9861" cx="11" cy="11" r="11"></circle>
                                <circle id="Oval" fill="#FFFFFF" cx="11" cy="11" r="7.33333333"></circle>
                            </g>
                        </g>
                        <g id="+" transform="translate(173.547873, 417.000000)">
                            <g id="Oval-Copy-2">
                                <use fill="black" fill-opacity="1" filter="url(#filter-7)" xlink:href="#path-6"></use>
                                <use fill="#45B8FF" fill-rule="evenodd" xlink:href="#path-6"></use>
                            </g>
                            <circle id="Oval-Copy-2" fill="#45B8FF" cx="24.7169728" cy="25.4909091" r="22.5818182"></circle>
                            <path d="M25,25 L17,25 L25,25 L25,17 L25,25 Z M25,25 L33,25 L25,25 L25,33 L25,25 Z" id="Combined-Shape" stroke="#FFFFFF" stroke-width="2" stroke-linecap="round" stroke-linejoin="round"></path>
                        </g>
                    </g>
                </g>
            </g>
        </g>
    </g>
</svg>