<?xml version="1.0" encoding="UTF-8"?>
<svg width="1356px" height="701px" viewBox="0 0 1356 701" version="1.1" xmlns="http://www.w3.org/2000/svg" xmlns:xlink="http://www.w3.org/1999/xlink">
    <!-- Generator: Sketch 53.2 (72643) - https://sketchapp.com -->
    <title>1</title>
    <desc>Created with Sketch.</desc>
    <defs>
        <radialGradient cx="50%" cy="82.1202682%" fx="50%" fy="82.1202682%" r="103.437719%" gradientTransform="translate(0.500000,0.821203),scale(0.516224,1.000000),rotate(-90.000000),scale(1.000000,1.120760),translate(-0.500000,-0.821203)" id="radialGradient-1">
            <stop stop-color="#245FAB" offset="0%"></stop>
            <stop stop-color="#142E50" offset="99.9604096%"></stop>
        </radialGradient>
        <radialGradient cx="50%" cy="0%" fx="50%" fy="0%" r="100%" gradientTransform="translate(0.500000,0.000000),scale(0.480088,1.000000),rotate(90.000000),translate(-0.500000,-0.000000)" id="radialGradient-2">
            <stop stop-color="#9BEDFF" offset="0%"></stop>
            <stop stop-color="#9BECFF" stop-opacity="0" offset="100%"></stop>
        </radialGradient>
        <radialGradient cx="50.126639%" cy="100%" fx="50.126639%" fy="100%" r="202.71161%" gradientTransform="translate(0.501266,1.000000),scale(0.245544,1.000000),translate(-0.501266,-1.000000)" id="radialGradient-3">
            <stop stop-color="#225AA2" offset="0%"></stop>
            <stop stop-color="#225AA2" offset="99.9604096%"></stop>
        </radialGradient>
    </defs>
    <g id="landing" stroke="none" stroke-width="1" fill="none" fill-rule="evenodd">
        <g id="1">
            <rect id="Rectangle-Copy-11" fill="url(#radialGradient-1)" transform="translate(678.000000, 350.000000) scale(-1, 1) translate(-678.000000, -350.000000) " x="0" y="0" width="1356" height="700"></rect>
            <polygon id="Triangle-Copy-6" fill="url(#radialGradient-2)" opacity="0.456519717" transform="translate(678.000000, 325.500000) scale(-1, -1) translate(-678.000000, -325.500000) " points="678 0 1356 348.20892 1356 651 2.22290936e-13 651 1.50546242e-13 348.20892"></polygon>
            <path d="M249.845966,700.282334 C248.52409,695.958536 246.893902,691.838825 244.955401,687.923203 C233.933921,665.660668 188.623609,670.499452 153.628435,635.15275 C118.633261,599.806049 96.7223725,581.562963 107.693726,583.833758 C137.267366,589.954759 189.893878,611.717284 221.564995,643.022766 C238.37713,659.640809 249.980688,677.855613 256.37567,697.667178 C251.856963,671.850055 243.802854,625.277546 209.055645,617.125044 C161.595126,605.989706 143.724423,556.35488 124.839991,543.531731 C105.955559,530.708581 78.4517194,530.522575 89.6172667,525.738477 C107.242756,518.186489 199.109471,536.301247 226.191928,584.028011 C233.213085,596.401228 239.398531,611.394856 244.58993,626.754151 C243.66841,622.258312 242.79223,618.194928 241.96139,614.563998 C230.275988,563.496561 215.76635,550.22204 213.433764,505.713649 C210.982202,458.935056 231.879105,477.754804 251.619853,393.226742 C254.443252,381.137207 276.667474,412.931873 274.552112,489.931711 C273.589074,524.986586 255.024801,572.008582 255.112251,623.925473 C255.132053,635.681659 259.149417,652.821668 262.877926,673.180717 C260.63731,636.933394 261.350352,608.351559 265.017051,587.435211 C272.440434,545.089204 302.895179,498.843585 324.584732,483.187308 C330.89942,478.629145 328.762588,499.536273 321.025533,547.006332 C313.288478,594.47639 277.780535,616.424201 272.95231,638.30062 C271.062557,646.862985 270.131082,659.065964 270.157884,674.909557 C274.151683,660.719786 280.654831,646.824783 289.667327,633.224548 C314.712477,595.430365 362.347159,563.38734 390.330659,551.590425 C400.712096,547.213955 382.705979,569.88949 355.182487,612.41844 C348.086867,623.3825 339.783075,631.760709 331.255049,638.581016 C331.446217,653.705074 330.068731,669.793551 326.091475,683.495923 C324.337919,689.537243 322.20744,695.132713 319.700038,700.282334 L311.454182,700.282334 C312.056272,688.64915 307.062208,672.34978 309.280958,653.434478 C292.797552,663.298263 278.855359,670.443382 275.502701,683.27815 C274.083115,688.712662 273.203047,694.380723 272.862496,700.282334 L249.845966,700.282334 Z M340.548522,700.282334 L334.190924,700.282334 C339.227897,678.193073 344.897726,660.847211 351.200409,648.244747 C365.090176,620.471609 397.233719,593.22463 416.759103,585.570487 C422.443716,583.342063 416.746855,597.265138 401.620402,628.479614 C386.493949,659.69409 355.246616,669.720003 347.316586,683.930861 C345.050705,687.991388 342.794684,693.441879 340.548522,700.282334 Z M357.717875,700.282334 L349.121335,700.282334 C353.315776,692.64347 358.811514,685.488889 365.608548,678.818592 C385.471732,659.325776 417.871272,646.542782 435.955904,643.3179 C442.665017,642.121519 428.991581,653.394191 407.02851,675.422502 C389.814031,692.688116 369.245397,693.796539 357.717875,700.282334 Z M158.595823,700.282334 L152.679993,700.282334 C148.687986,690.492604 144.930476,683.097189 141.407459,678.096078 C132.035431,664.791983 99.9112811,658.087228 81.6048915,628.624893 C63.2985018,599.162558 56.1774908,585.91124 62.0638962,587.533253 C82.2823939,593.104507 117.097936,616.842309 133.814698,643.011427 C142.239848,656.20051 150.500223,675.290812 158.595823,700.282334 Z M144.688731,700.282334 L138.776209,700.282334 C128.232498,690.941294 103.884243,695.384001 81.7822484,677.431822 C57.6369069,657.81995 42.8600611,648.038295 49.6574768,648.526828 C67.9801309,649.843685 101.53837,659.169979 123.330295,676.479743 C132.215103,683.537124 139.334581,691.471321 144.688731,700.282334 Z M1083.80798,700.282334 C1083.46743,694.380723 1082.58736,688.712662 1081.16777,683.27815 C1074.71336,658.569136 1029.01148,654.94739 1001.48799,612.41844 C973.964494,569.88949 955.958378,547.213955 966.339815,551.590425 C994.323314,563.38734 1041.958,595.430365 1067.00315,633.224548 C1076.01564,646.824783 1082.51879,660.719786 1086.51259,674.909557 C1086.53939,659.065964 1085.60792,646.862985 1083.71816,638.30062 C1078.88994,616.424201 1043.382,594.47639 1035.64494,547.006332 C1027.90789,499.536273 1025.77105,478.629145 1032.08574,483.187308 C1053.77529,498.843585 1084.23004,545.089204 1091.65342,587.435211 C1094.2002,601.963084 1095.32206,620.189 1095.01898,642.112961 C1095.55109,632.19737 1095.87263,623.788351 1095.98361,616.885905 C1096.81006,565.483756 1088.75349,548.612946 1094.23187,506.449901 C1099.36088,466.975625 1126.94869,438.870266 1138.69667,405.010781 C1154.71123,358.854414 1170.93309,435.165466 1150.53467,507.915248 C1141.24811,541.035248 1118.80047,579.545094 1106.51596,628.961105 C1104.812,635.815501 1104.08244,644.953282 1103.4897,655.663691 C1109.80773,631.333459 1119.03267,604.198804 1130.47855,584.028011 C1157.561,536.301247 1237.75063,504.62965 1255.37612,512.181638 C1266.54167,516.965737 1237.26283,531.150976 1213.67956,549.196078 C1190.09629,567.241179 1190.09629,593.823499 1147.93108,613.892635 C1120.68661,626.860033 1109.67946,663.642128 1103.44697,689.047637 C1110.20788,672.543546 1120.76072,657.201922 1135.10548,643.022766 C1166.7766,611.717284 1219.40311,589.954759 1248.97675,583.833758 C1259.9481,581.562963 1238.03721,599.806049 1203.04204,635.15275 C1202.46534,635.735238 1201.88585,636.306812 1201.30375,636.867775 C1200.19924,643.006796 1198.88684,650.304719 1197.54303,658.583493 C1194.50798,677.281517 1183.98132,689.85545 1176.83411,700.282334 L1164.21058,700.282334 C1164.3779,696.110764 1164.84103,691.838381 1165.59996,687.465184 C1167.49688,676.534606 1171.67191,665.140312 1176.82564,654.510525 C1148.36956,669.733581 1120.10575,670.974694 1111.71507,687.923203 C1109.77657,691.838825 1108.14638,695.958536 1106.82451,700.282334 L1083.80798,700.282334 Z M1016.12195,700.282334 C1013.87579,693.441879 1011.61977,687.991388 1009.35389,683.930861 C1001.42386,669.720003 970.176524,659.69409 955.050072,628.479614 C939.923619,597.265138 934.226758,583.342063 939.91137,585.570487 C959.436754,593.22463 991.580297,620.471609 1005.47006,648.244747 C1011.77275,660.847211 1017.44258,678.193073 1022.47955,700.282334 L1016.12195,700.282334 Z M998.952598,700.282334 C987.425076,693.796539 966.856443,692.688116 949.641964,675.422502 C927.678892,653.394191 914.005457,642.121519 920.71457,643.3179 C938.799201,646.542782 971.198742,659.325776 991.061925,678.818592 C997.85896,685.488889 1003.3547,692.64347 1007.54914,700.282334 L998.952598,700.282334 Z M1198.07465,700.282334 C1206.17025,675.290812 1214.43063,656.20051 1222.85578,643.011427 C1239.57254,616.842309 1274.38808,593.104507 1294.60658,587.533253 C1300.49298,585.91124 1293.37197,599.162558 1275.06558,628.624893 C1256.75919,658.087228 1224.63504,664.791983 1215.26301,678.096078 C1211.74,683.097189 1207.98249,690.492604 1203.99048,700.282334 L1198.07465,700.282334 Z M1211.98174,700.282334 C1217.33589,691.471321 1224.45537,683.537124 1233.34018,676.479743 C1255.1321,659.169979 1288.69034,649.843685 1307.013,648.526828 C1313.81041,648.038295 1299.03357,657.81995 1274.88823,677.431822 C1252.78623,695.384001 1228.43798,690.941294 1217.89426,700.282334 L1211.98174,700.282334 Z" id="Combined-Shape" fill="url(#radialGradient-3)" opacity="0.204186284"></path>
            <g id="человек-и-кот" transform="translate(559.451163, 525.000000)">
                <g id="кот" transform="translate(0.548837, 122.687817)">
                    <polygon id="Rectangle" fill="#45B8FF" points="30 33.3121826 57 33.3121826 58 52.3121826 28 52.3121826"></polygon>
                    <path d="M33.389736,8.92754178 C36.2450448,7.49084857 39.5609449,6.6684602 43.0979299,6.6684602 C46.2341943,6.6684602 49.1966314,7.31506045 51.8182647,8.46319148 L59.0932777,3.51905888 C60.4636263,2.58776364 62.3294772,2.94368669 63.2607724,4.31403525 C63.6411438,4.87373024 63.8211124,5.54558662 63.7714461,6.22047481 L62.5524002,22.785415 L62.4767827,22.7417696 C62.4903671,23.0005728 62.4972333,23.2608979 62.4972333,23.5226163 C62.4972333,32.8309097 53.8118693,40.3767724 43.0979299,40.3767724 C32.5568261,40.3767724 23.9793764,33.0724035 23.7053792,23.9716961 L21.8278489,6.69169011 C21.7470046,5.94763311 21.9472009,5.20022813 22.3891367,4.59620048 C23.3674742,3.2590312 25.2445634,2.96814061 26.5817327,3.94647814 L33.389736,8.92754178 Z" id="Combined-Shape" fill="#45B8FF" transform="translate(43.033923, 21.688386) rotate(-6.000000) translate(-43.033923, -21.688386) "></path>
                    <g id="FACE" transform="translate(46.027793, 20.894979) rotate(-6.000000) translate(-46.027793, -20.894979) translate(34.027793, 17.394979)" fill="#FFFFFF">
                        <path d="M13.8122121,5.44798959 L13.8122121,5.44798959 C14.1517114,5.82344285 14.122565,6.40302646 13.7471117,6.7425258 C13.5786204,6.89488213 13.359554,6.97923959 13.1323938,6.97923959 L11.7227996,6.97923959 C11.2166129,6.97923959 10.8062675,6.56889421 10.8062675,6.06270752 C10.8062675,5.83554729 10.890625,5.61648089 11.0429813,5.44798959 L11.0429813,5.44798959 C11.7344543,4.68328763 12.9149174,4.62392386 13.6796194,5.31539691 C13.7260103,5.35734533 13.7702636,5.40159871 13.8122121,5.44798959 Z" id="Triangle" transform="translate(12.427597, 5.447990) scale(1, -1) translate(-12.427597, -5.447990) "></path>
                        <path d="M3.19682745,5.66673959 C1.66742352,5.66673959 0.427596676,4.49148706 0.427596676,3.04173959 C0.427596676,1.59199212 1.66742352,0.416739589 3.19682745,0.416739589 C4.72623137,0.416739589 5.96605821,1.59199212 5.96605821,3.04173959 C5.96605821,4.49148706 4.72623137,5.66673959 3.19682745,5.66673959 Z M21.1968274,5.66673959 C19.6674235,5.66673959 18.4275967,4.49148706 18.4275967,3.04173959 C18.4275967,1.59199212 19.6674235,0.416739589 21.1968274,0.416739589 C22.7262314,0.416739589 23.9660582,1.59199212 23.9660582,3.04173959 C23.9660582,4.49148706 22.7262314,5.66673959 21.1968274,5.66673959 Z" id="Combined-Shape"></path>
                    </g>
                    <path d="M18.9192011,52.3121826 C16.6014807,48.8683738 16.6014807,45.7292224 18.9192011,42.8947284 C22.7946735,38.1551561 23.3982346,32.2907015 18.4991972,28.2165817 C13.7542955,24.2706436 5.50989175,23.5442287 1.50931859,31.1596823 C-2.49125456,38.7751359 2.55809518,40.7493537 4.06085916,38.8934995 C5.56362314,37.0376454 4.28733906,30.611672 11.1937244,31.3529782 C18.1001097,32.0942845 16.2154363,37.4511745 13.1636142,41.3793297 C10.3739722,44.9700196 11.5987834,49.6024925 12.7102966,52.3121826 C12.7102966,52.3121826 14.7799314,52.3121826 18.9192011,52.3121826 Z" id="Path-14" fill="#45B8FF"></path>
                </g>
                <g id="человек" transform="translate(39.548837, 0.000000)">
                    <path d="M89.9107923,89 C89.9107923,89 89.9107923,89 89.9107923,89 C89.9107923,91.9014587 92.9286766,95.2995845 98.9644453,99.1943775 C106.26201,95.2678776 109.910792,91.8697518 109.910792,89 C109.910792,89 109.910792,89 109.910792,89 L109.910792,89 C126.000726,89 139.044195,102.043468 139.044195,118.133402 C139.044195,118.899343 139.013989,119.664986 138.953648,120.428547 L134.641077,175 L70.3130018,175 L62.3354604,120.943478 C60.0879472,105.714043 70.6118743,91.5461768 85.8413096,89.2986635 C87.1886855,89.0998219 88.5488232,89 89.9107923,89 Z" id="Rectangle" fill="#45B8FF"></path>
                    <path d="M134.787427,102.962629 L90,126 L62.4860281,111.8476 C64.5776331,100.429529 73.7187449,91.0876743 85.8413096,89.2986635 C87.1886855,89.0998219 88.5488232,89 89.9107923,89 C89.9107923,91.9014587 92.9286766,95.2995845 98.9644453,99.1943775 C106.26201,95.2678776 109.910792,91.8697518 109.910792,89 C120.442983,89 129.66983,94.5888445 134.787427,102.962629 Z" id="Combined-Shape" fill="#4EC3FF"></path>
                    <path d="M82.3561726,143.216396 C68.1833274,156.766645 34.6529875,141.622124 34.0392581,130.606522 C33.4255287,119.590919 53.5917729,133.831626 62.0929111,133.708753 C70.5940493,133.58588 96.5290177,129.666147 82.3561726,143.216396 Z" id="Path-3-Copy-3" fill="#5296EF" transform="translate(60.268869, 137.497097) rotate(30.000000) translate(-60.268869, -137.497097) "></path>
                    <path d="M57.4971125,107.341802 L91.7142802,103.062336 C93.3583263,102.856719 94.8577747,104.022796 95.0633919,105.666842 C95.0924872,105.899478 95.0942119,106.134722 95.0685308,106.36776 L89.4904248,156.985082 C89.3383097,158.365417 88.2587362,159.460938 86.88078,159.633276 L52.6636122,163.912742 C51.0195661,164.118359 49.5201178,162.952282 49.3145005,161.308236 C49.2854053,161.0756 49.2836805,160.840355 49.3093616,160.607318 L54.8874677,109.989995 C55.0395827,108.60966 56.1191562,107.51414 57.4971125,107.341802 Z" id="Rectangle" fill="#292C4E" transform="translate(72.188946, 133.487539) scale(-1, 1) rotate(14.000000) translate(-72.188946, -133.487539) "></path>
                    <path d="M117.610967,116.640229 C112.192717,106.001287 119.125815,97.4586104 127.643807,102.042445 C140.041194,108.713919 150.603387,137.288197 134.210928,151.638014 C117.818469,165.98783 84.422691,152.249107 84.6100046,140.250288 C84.7973182,128.251469 102.166721,142.448584 113.191707,141.106386 C124.216693,139.764188 123.029216,127.279172 117.610967,116.640229 Z" id="Path-3" fill="#6DE4FF" transform="translate(113.609220, 129.275601) rotate(35.000000) translate(-113.609220, -129.275601) "></path>
                    <g id="лицо" transform="translate(62.964445, 0.000000)">
                        <path d="M33.0031751,4.02570252 L39.8350105,4.29961775 C58.5976174,5.05188469 73.1978826,20.8718156 72.4456157,39.6344225 C72.4355671,39.8850497 72.4227453,40.135558 72.4071528,40.3859014 L71.7628941,50.7296982 C70.7323343,54.2432327 59.3396441,56 37.5848235,56 C15.8300028,56 4.20310418,54.1791749 2.70412749,50.5375246 L0.909968188,42.8647896 C-3.07089102,25.8406171 7.5028036,8.81267442 24.5269761,4.83181521 C27.3031837,4.18263878 30.1543662,3.91148253 33.0031751,4.02570252 Z" id="Combined-Shape" fill="#9BECFF"></path>
                        <path d="M47.2203222,80.3316496 L47.2203222,90 C47.2203222,95.5228475 42.7431697,100 37.2203222,100 C31.6974747,100 27.2203222,95.5228475 27.2203222,90 L27.2203222,80.4072675 C14.4657092,76.9523988 5.0833346,65.2960228 5.0833346,51.4482759 L5.0833346,41.4482759 C5.0833346,23.7751639 19.4102226,9.44827586 37.0833346,9.44827586 C54.7564466,9.44827586 69.0833346,23.7751639 69.0833346,41.4482759 L69.0833346,51.4482759 C69.0833346,65.1966815 59.8350921,76.7850445 47.2203222,80.3316496 Z" id="Combined-Shape" fill="#FFFFFF" transform="translate(37.083335, 54.724138) scale(-1, 1) translate(-37.083335, -54.724138) "></path>
                        <path d="M33,61 C33.7557756,63 35.0891089,64 37,64 C38.9108911,64 40.2442244,63 41,61" id="Path-4" stroke="#45B8FF" stroke-width="3" stroke-linecap="round" stroke-linejoin="round"></path>
                        <path d="M49,47 C49.4723598,48.3333333 50.3056931,49 51.5,49 C52.6943069,49 53.5276402,48.3333333 54,47" id="Path-4-Copy" stroke="#45B8FF" stroke-width="3" stroke-linecap="round" stroke-linejoin="round" transform="translate(51.500000, 48.000000) scale(1, -1) translate(-51.500000, -48.000000) "></path>
                        <ellipse id="Oval" fill="#45B8FF" cx="22.1166679" cy="47.9310345" rx="3.65" ry="3.72413793"></ellipse>
                        <path d="M74.3977677,33.8039222 C76.4662031,29.5210646 65.9302457,0.0107363972 38.4541611,0.0107363972 C10.9780765,0.0107363972 -0.444031926,36.1231621 3.36176253,36.1231621 C7.16755699,36.1231621 14.0346275,31.3149589 25.0452055,17.8985828 C28.907078,13.1928957 31.7291004,30.1758494 39.7501071,30.1758494 C42.7405326,30.1758494 35.912233,23.7732532 39.7501071,24.5034858 C42.9343491,25.1093518 43.6603076,31.7533948 49.2012989,35.3354333 C56.2904424,39.9182928 72.3293323,38.0867799 74.3977677,33.8039222 Z" id="Path" fill="#9BECFF"></path>
                        <path d="M40,53.2476008 C40,48.2444019 38.6052656,44 37,44 C35.3947344,44 34,48.2444019 34,53.2476008 C34,58.2507997 40,58.2507997 40,53.2476008 Z" id="Oval" fill="#CFEAFF"></path>
                    </g>
                    <path d="M7.23542829,46.5836201 L2.37025452,41.9366963 C1.57149542,41.1737692 1.54244781,39.9077725 2.30537487,39.1090134 C2.72493969,38.669743 3.32140386,38.4449625 3.92652549,38.4980745 L16.1415111,39.5701937 C21.004337,37.3350637 27.157122,36 33.8485067,36 C49.5886221,36 62.3485067,43.3873016 62.3485067,52.5 C62.3485067,61.6126984 49.5886221,69 33.8485067,69 C18.1083913,69 5.3485067,61.6126984 5.3485067,52.5 C5.3485067,50.4149363 6.01652969,48.420203 7.23542615,46.5836234 Z" id="Combined-Shape-Copy-5" fill="#FFFFFF" transform="translate(31.174253, 52.500000) scale(-1, -1) translate(-31.174253, -52.500000) "></path>
                    <path d="M16.501,55.312 L16.753,55.13 C17.070335,54.9433324 17.2943327,54.85 17.425,54.85 C17.7143348,54.85 18.0269984,55.1113307 18.363,55.634 C18.5683344,55.9606683 18.671,56.221999 18.671,56.418 C18.671,56.614001 18.6080007,56.7773327 18.482,56.908 C18.3559994,57.0386673 18.2090009,57.1553328 18.041,57.258 C17.8729992,57.3606672 17.7120008,57.4586662 17.558,57.552 C17.4039993,57.6453338 17.0890024,57.7666659 16.613,57.916 C16.1369977,58.0653341 15.6773356,58.14 15.234,58.14 C14.7906645,58.14 14.342669,58.0816672 13.89,57.965 C13.4373311,57.8483327 12.9706691,57.6523347 12.49,57.377 C12.009331,57.1016653 11.5776686,56.7656687 11.195,56.369 C10.8123315,55.9723314 10.4973346,55.4636698 10.25,54.843 C10.0026655,54.2223302 9.87900003,53.5480036 9.87900003,52.82 C9.87900003,52.0919964 10.0003322,51.4316696 10.243,50.839 C10.4856679,50.2463304 10.7959981,49.7563353 11.174,49.369 C11.5520019,48.9816647 11.9836643,48.6573346 12.469,48.396 C13.3836713,47.8919975 14.3029954,47.64 15.227,47.64 C15.6656689,47.64 16.1113311,47.707666 16.564,47.843 C17.016669,47.978334 17.3596655,48.1159993 17.593,48.256 L17.929,48.452 C18.0970009,48.5546672 18.2276662,48.6386663 18.321,48.704 C18.5636679,48.900001 18.685,49.1216654 18.685,49.369 C18.685,49.6163346 18.587001,49.875332 18.391,50.146 C18.0269982,50.6500025 17.7003348,50.902 17.411,50.902 C17.2429992,50.902 17.0050016,50.7993344 16.697,50.594 C16.3049981,50.2766651 15.7823366,50.118 15.129,50.118 C14.5223303,50.118 13.925003,50.3279979 13.337,50.748 C13.0569986,50.9533344 12.8236676,51.2426648 12.637,51.616 C12.4503324,51.9893352 12.357,52.4116643 12.357,52.883 C12.357,53.3543357 12.4503324,53.7766648 12.637,54.15 C12.8236676,54.5233352 13.0616653,54.8173323 13.351,55.032 C13.9203362,55.4426687 14.512997,55.648 15.129,55.648 C15.4183348,55.648 15.6913321,55.610667 15.948,55.536 C16.204668,55.461333 16.3889995,55.386667 16.501,55.312 Z M20.215,54.318 C20.215,53.1979944 20.6069961,52.2740036 21.391,51.546 C22.1750039,50.8179964 23.070995,50.454 24.079,50.454 C25.0870051,50.454 25.9783295,50.815663 26.753,51.539 C27.5276706,52.2623369 27.915,53.1839944 27.915,54.304 C27.915,55.0786705 27.7143354,55.766997 27.313,56.369 C26.9116647,56.971003 26.4240029,57.4143319 25.85,57.699 C25.2759971,57.9836681 24.6810031,58.126 24.065,58.126 C23.4489969,58.126 22.8516696,57.9743348 22.273,57.671 C21.6943305,57.3676652 21.2066687,56.9196696 20.81,56.327 C20.4133314,55.7343304 20.215,55.0646704 20.215,54.318 Z M23.141,55.326 C23.4396682,55.5500011 23.7429985,55.662 24.051,55.662 C24.3590016,55.662 24.6669985,55.5453345 24.975,55.312 C25.2830016,55.0786655 25.437,54.7333356 25.437,54.276 C25.437,53.8186644 25.2923348,53.4780011 25.003,53.254 C24.7136652,53.0299989 24.4010017,52.918 24.065,52.918 C23.7289983,52.918 23.4163348,53.0346655 23.127,53.268 C22.8376652,53.5013345 22.693,53.8443311 22.693,54.297 C22.693,54.7496689 22.8423319,55.0926655 23.141,55.326 Z M29.445,54.318 C29.445,53.1979944 29.8369961,52.2740036 30.621,51.546 C31.4050039,50.8179964 32.300995,50.454 33.309,50.454 C34.317005,50.454 35.2083295,50.815663 35.983,51.539 C36.7576705,52.2623369 37.145,53.1839944 37.145,54.304 C37.145,55.0786705 36.9443353,55.766997 36.543,56.369 C36.1416647,56.971003 35.6540029,57.4143319 35.08,57.699 C34.5059971,57.9836681 33.9110031,58.126 33.295,58.126 C32.6789969,58.126 32.0816696,57.9743348 31.503,57.671 C30.9243304,57.3676652 30.4366687,56.9196696 30.04,56.327 C29.6433313,55.7343304 29.445,55.0646704 29.445,54.318 Z M32.371,55.326 C32.6696682,55.5500011 32.9729985,55.662 33.281,55.662 C33.5890015,55.662 33.8969985,55.5453345 34.205,55.312 C34.5130015,55.0786655 34.667,54.7333356 34.667,54.276 C34.667,53.8186644 34.5223348,53.4780011 34.233,53.254 C33.9436652,53.0299989 33.6310017,52.918 33.295,52.918 C32.9589983,52.918 32.6463348,53.0346655 32.357,53.268 C32.0676652,53.5013345 31.923,53.8443311 31.923,54.297 C31.923,54.7496689 32.0723318,55.0926655 32.371,55.326 Z M38.885,48.382 C38.885,48.1673323 38.8919999,48.0063339 38.906,47.899 C38.9200001,47.7916661 38.9596663,47.6680007 39.025,47.528 C39.1556673,47.2759987 39.5196637,47.15 40.117,47.15 C40.6863362,47.15 41.0409993,47.2759987 41.181,47.528 C41.255667,47.6680007 41.2999999,47.7939994 41.314,47.906 C41.3280001,48.0180006 41.335,48.1813323 41.335,48.396 L41.335,54.878 C41.335,55.2140017 41.3629997,55.4263329 41.419,55.515 C41.4750003,55.6036671 41.5986657,55.648 41.79,55.648 C41.9813343,55.648 42.1096663,55.6549999 42.175,55.669 C42.2403336,55.6830001 42.3196662,55.7226663 42.413,55.788 C42.5996676,55.9093339 42.693,56.240664 42.693,56.782 C42.693,57.3700029 42.5996676,57.7293327 42.413,57.86 C42.1703321,58.0280008 41.5916712,58.0560006 40.677,57.944 C39.9583297,57.8506662 39.4916677,57.6126686 39.277,57.23 C39.0156653,56.7726644 38.885,56.0446717 38.885,55.046 L38.885,48.382 Z M44.433,55.872 C44.5263338,55.6853324 44.6686657,55.5593337 44.86,55.494 C45.0513343,55.4286663 45.3499979,55.396 45.756,55.396 C46.162002,55.396 46.4559991,55.4846658 46.638,55.662 C46.8200009,55.8393342 46.911,56.1193314 46.911,56.502 L46.911,56.726 C46.911,56.9500011 46.904,57.1156661 46.89,57.223 C46.8759999,57.3303339 46.831667,57.4586659 46.757,57.608 C46.6076659,57.878668 46.2506695,58.014 45.686,58.014 C45.1213305,58.014 44.7480009,57.9230009 44.566,57.741 C44.3839991,57.5589991 44.293,57.2066693 44.293,56.684 C44.293,56.3199982 44.3396662,56.0493342 44.433,55.872 Z M46.309,54.234 C46.1316657,54.2806669 45.8936681,54.304 45.595,54.304 C45.2963318,54.304 45.0583342,54.2806669 44.881,54.234 C44.7036657,54.1873331 44.5800003,54.1033339 44.51,53.982 C44.4399996,53.8606661 44.398,53.7533338 44.384,53.66 C44.3699999,53.5666662 44.363,53.422001 44.363,53.226 L44.363,48.788 C44.363,48.591999 44.3699999,48.4450005 44.384,48.347 C44.398,48.2489995 44.4423329,48.1393339 44.517,48.018 C44.591667,47.8966661 44.7176657,47.8103336 44.895,47.759 C45.0723342,47.7076664 45.3103318,47.682 45.609,47.682 C45.9076681,47.682 46.1456657,47.7076664 46.323,47.759 C46.5003342,47.8103336 46.6239996,47.8989994 46.694,48.025 C46.7640003,48.1510006 46.8059999,48.2629995 46.82,48.361 C46.834,48.4590005 46.841,48.605999 46.841,48.802 L46.841,53.24 C46.841,53.436001 46.834,53.5806662 46.82,53.674 C46.8059999,53.7673338 46.761667,53.8723327 46.687,53.989 C46.6123329,54.1056672 46.4863342,54.1873331 46.309,54.234 Z" id="Cool!" fill="#5296EF" fill-rule="nonzero"></path>
                </g>
                <path d="M131.048837,112 C130.22041,112 129.548837,111.328427 129.548837,110.5 C129.548837,109.671573 130.22041,109 131.048837,109 C131.877264,109 132.548837,109.671573 132.548837,110.5 C132.548837,111.328427 131.877264,112 131.048837,112 Z M123.548837,99 C122.996552,99 122.548837,98.5522847 122.548837,98 C122.548837,97.4477153 122.996552,97 123.548837,97 C124.101122,97 124.548837,97.4477153 124.548837,98 C124.548837,98.5522847 124.101122,99 123.548837,99 Z M169.548837,84 C168.996552,84 168.548837,83.5522847 168.548837,83 C168.548837,82.4477153 168.996552,82 169.548837,82 C170.101122,82 170.548837,82.4477153 170.548837,83 C170.548837,83.5522847 170.101122,84 169.548837,84 Z M96.048837,97 C95.2204099,97 94.548837,96.3284271 94.548837,95.5 C94.548837,94.6715729 95.2204099,94 96.048837,94 C96.8772641,94 97.548837,94.6715729 97.548837,95.5 C97.548837,96.3284271 96.8772641,97 96.048837,97 Z M88.548837,84 C87.9965522,84 87.548837,83.5522847 87.548837,83 C87.548837,82.4477153 87.9965522,82 88.548837,82 C89.1011217,82 89.548837,82.4477153 89.548837,83 C89.548837,83.5522847 89.1011217,84 88.548837,84 Z" id="Combined-Shape" fill="#FFFFFF"></path>
            </g>
        </g>
    </g>
</svg>