<?xml version="1.0" encoding="UTF-8"?>
<svg width="489px" height="559px" viewBox="0 0 489 559" version="1.1" xmlns="http://www.w3.org/2000/svg" xmlns:xlink="http://www.w3.org/1999/xlink">
    <!-- Generator: Sketch 53.2 (72643) - https://sketchapp.com -->
    <title>2</title>
    <desc>Created with Sketch.</desc>
    <g id="Page-4" stroke="none" stroke-width="1" fill="none" fill-rule="evenodd">
        <g id="2" transform="translate(-37.000000, 2.000000)">
            <g id="губы" transform="translate(-0.000000, 0.000000)">
                <g id="конечности" transform="translate(58.180907, 0.211581)" stroke="#D548AF" stroke-linecap="round" stroke-linejoin="round" stroke-width="20">
                    <g id="рука-1" transform="translate(174.750161, 95.000000) scale(-1, 1) rotate(-76.000000) translate(-174.750161, -95.000000) translate(97.250161, 16.000000)">
                        <path d="M126,26.989573 C87.9120355,23.6822476 60.8196826,35.7848027 44.7229415,63.2972383 C28.6262004,90.809674 24.8890299,122.862995 33.5114301,159.4572" id="Path-19-Copy-3" transform="translate(77.500000, 92.957200) scale(-1, 1) rotate(-75.000000) translate(-77.500000, -92.957200) "></path>
                        <path d="M128.4575,29.8642188 L108.858186,10.8642188 L128.4575,29.8642188 Z M129.964615,29.7282469 L149.563929,10.7282469 L129.964615,29.7282469 Z M129.964615,29.7282469 L128.71134,1.86421876 L129.964615,29.7282469 Z" id="Combined-Shape" transform="translate(129.211058, 15.496814) rotate(1.000000) translate(-129.211058, -15.496814) "></path>
                    </g>
                    <g id="рука-1-copy" transform="translate(349.092225, 157.089989) rotate(-16.000000) translate(-349.092225, -157.089989) translate(271.592225, 78.089989)">
                        <path d="M126,26.989573 C87.9120355,23.6822476 60.8196826,35.7848027 44.7229415,63.2972383 C28.6262004,90.809674 24.8890299,122.862995 33.5114301,159.4572" id="Path-19-Copy-3" transform="translate(77.500000, 92.957200) scale(-1, 1) rotate(-75.000000) translate(-77.500000, -92.957200) "></path>
                        <path d="M128.4575,29.8642188 L108.858186,10.8642188 L128.4575,29.8642188 Z M129.964615,29.7282469 L149.563929,10.7282469 L129.964615,29.7282469 Z M129.964615,29.7282469 L128.71134,1.86421876 L129.964615,29.7282469 Z" id="Combined-Shape" transform="translate(129.211058, 15.496814) rotate(1.000000) translate(-129.211058, -15.496814) "></path>
                    </g>
                    <g id="Group" transform="translate(127.000000, 447.634803) rotate(15.000000) translate(-127.000000, -447.634803) translate(17.000000, 370.634803)">
                        <path d="M38.5,-1.42108547e-14 C12.8333333,16.4517438 1.45695396e-14,36.3170781 1.42108547e-14,59.5960028 C1.42108547e-14,82.8749275 12.8333333,108.594969 38.5,136.756128 L14.5,153" id="Path-19-Copy-2"></path>
                        <path d="M219.435218,0.38461955 C193.768551,16.8363634 180.935218,36.7016977 180.935218,59.9806224 C180.935218,83.2595471 193.768551,108.979589 219.435218,137.140747 L195.435218,153.38462" id="Path-19-Copy-7" transform="translate(200.185218, 76.884620) scale(-1, 1) translate(-200.185218, -76.884620) "></path>
                    </g>
                </g>
                <g id="lips" transform="translate(238.987924, 290.368155) rotate(15.000000) translate(-238.987924, -290.368155) translate(23.987924, 170.368155)">
                    <path d="M215,240 C55.4692235,240 21.7355894,142.124709 2.99760377,103.580875 C-15.7403819,65.0370423 57.5273173,43.5322037 107.271096,13.0520181 C140.433615,-7.26810554 176.34325,-3.86158661 215,23.2715749 C253.65675,-3.86158661 289.566385,-7.26810554 322.728904,13.0520181 C372.472683,43.5322037 445.740382,65.0370423 427.002396,103.580875 C408.264411,142.124709 374.530776,240 215,240 Z" id="Combined-Shape" fill="#FF6DAB"></path>
                    <path d="M215.495341,134 C261.959297,134 299.130435,113.512304 299.130435,100.512962 C299.130435,87.5136197 261.959297,97.9896497 215.495341,97.9896497 C169.031385,97.9896497 130.869565,87.5136197 130.869565,100.512962 C130.869565,113.512304 169.031385,134 215.495341,134 Z" id="Oval" fill="#F55898"></path>
                    <path d="M215.647655,168 C276.398977,168 325,144.512304 325,131.512962 C325,118.51362 276.398977,128.98965 215.647655,128.98965 C154.896332,128.98965 105,118.51362 105,131.512962 C105,144.512304 154.896332,168 215.647655,168 Z" id="Oval-Copy" fill="#F55898"></path>
                    <ellipse id="Oval" fill="#F55898" cx="26.173913" cy="92" rx="16.826087" ry="15"></ellipse>
                    <ellipse id="Oval-Copy-16" fill="#F55898" cx="403.826087" cy="92" rx="16.826087" ry="15"></ellipse>
                    <path d="M55.4664053,111.600444 C95.015155,114.533481 115.755768,116.666667 117.688243,118 C120.586957,120 160.38672,152.216068 208.716675,148.55417 C240.936646,146.112905 276.392476,136.594848 315.084167,120 L376.1344,114 C357.401507,96.2524015 332.483168,89.9813607 301.379385,95.1868774 C254.723709,102.995153 239.093862,122 216.889166,120 C194.684471,118 142.491699,95.1868774 120.586957,95.1868774 C105.983795,95.1868774 84.2769444,100.658066 55.4664053,111.600444 Z" id="Path-2" fill="#FFFFFF"></path>
                    <path d="M55.4664053,105.570527 C92.2036694,106.008844 114.96439,106.626694 123.748568,107.424077 C136.924835,108.620152 169.494519,132.787326 217.824475,130.541083 C266.15443,128.29484 281.198336,109.455877 300.874959,106.535188 C313.992708,104.588063 339.079188,104.757145 376.1344,107.042437 C357.401507,96.155893 332.483168,92.3091776 301.379385,95.5022905 C254.723709,100.29196 239.093862,111.949712 216.889166,110.722893 C194.684471,109.496074 142.491699,95.5022905 120.586957,95.5022905 C105.983795,95.5022905 84.2769444,98.8583692 55.4664053,105.570527 Z" id="Path-2-Copy" fill="#F6F6F6"></path>
                    <path d="M215,94 C237.185693,94 283.573632,116.04272 301.379385,116.813123 C350.660624,118.945376 376.398012,105.239102 389.054112,105.619551 C397.491511,105.873184 402.415503,110 403.826087,118" id="Path-16" stroke="#C33F9F" stroke-width="16" stroke-linecap="round" stroke-linejoin="round" transform="translate(309.413043, 106.000000) scale(1, -1) translate(-309.413043, -106.000000) "></path>
                    <path d="M26.173913,94 C48.3596063,94 94.7475451,116.04272 112.553298,116.813123 C161.834537,118.945376 187.571925,105.239102 200.228025,105.619551 C208.665424,105.873184 213.589416,110 215,118" id="Path-16-Copy" stroke="#C33F9F" stroke-width="16" stroke-linecap="round" stroke-linejoin="round" transform="translate(120.586957, 106.000000) scale(-1, -1) translate(-120.586957, -106.000000) "></path>
                    <path d="M214.826087,94 C283.826087,94 286.703701,125.413945 317.971267,125.413945 C362.698764,125.413945 396.115711,127.413945 403.826087,151.413945" id="Path-16-Copy-3" stroke="#C33F9F" stroke-width="16" stroke-linecap="round" stroke-linejoin="round" transform="translate(309.326087, 122.706973) scale(1, -1) translate(-309.326087, -122.706973) "></path>
                    <path d="M26,94 C95,94 97.8776138,125.413945 129.14518,125.413945 C173.872677,125.413945 207.289624,127.413945 215,151.413945" id="Path-16-Copy-4" stroke="#C33F9F" stroke-width="16" stroke-linecap="round" stroke-linejoin="round" transform="translate(120.500000, 122.706973) scale(-1, -1) translate(-120.500000, -122.706973) "></path>
                    <path d="M26.173913,94 C48.3596063,94 94.7475451,116.04272 112.553298,116.813123 C161.834537,118.945376 187.571925,105.239102 200.228025,105.619551 C208.665424,105.873184 213.589416,110 215,118" id="Path-16-Copy-2" stroke="#C33F9F" stroke-width="16" stroke-linecap="round" stroke-linejoin="round" transform="translate(120.586957, 106.000000) scale(-1, -1) translate(-120.586957, -106.000000) "></path>
                    <path d="M301.251107,204.566945 C272.577304,212.786099 245.527957,204.259309 240.834701,185.521826 C236.141444,166.784343 259.702654,177.689644 288.376457,169.470489 C317.05026,161.251335 339.97847,137.020152 344.671727,155.757635 C349.364984,174.495118 329.92491,196.34779 301.251107,204.566945 Z M226.674564,187.671613 C237.447881,210.142103 207.502047,209.226699 202.80879,190.489216 C198.115534,171.751733 215.901246,165.201124 226.674564,187.671613 Z M289.562135,18.1685046 C312.750515,24.8152989 300.890099,58.9816485 277.701719,52.3348542 C254.513339,45.68806 234.799905,57.1404791 239.34544,38.992764 C243.890975,20.8450489 266.373756,11.5217104 289.562135,18.1685046 Z" id="Combined-Shape" fill="#FF80B9"></path>
                </g>
            </g>
            <path d="M486.914834,263.674867 C490.443668,256.064643 495.528754,253.076025 502.170092,254.709012 C508.811431,256.342 512.726345,252.330618 513.914834,242.674867" id="Path-4" stroke="#FF80B9" stroke-width="7" opacity="0.400692894" stroke-linecap="round" transform="translate(500.414834, 253.174867) rotate(13.000000) translate(-500.414834, -253.174867) "></path>
            <path d="M475.384523,252.221798 C478.87894,242.333608 485.042347,237.654493 493.874744,238.184451 C502.707141,238.71441 507.210401,233.060192 507.384523,221.221798" id="Path-4-Copy" stroke="#FF80B9" stroke-width="7" opacity="0.598423549" stroke-linecap="round" transform="translate(491.384523, 236.721798) rotate(13.000000) translate(-491.384523, -236.721798) "></path>
            <path d="M52.3712251,136.821951 C55.9000584,129.211727 60.9851444,126.223109 67.6264831,127.856097 C74.2678218,129.489084 78.1827358,125.477702 79.3712251,115.821951" id="Path-4" stroke="#FF80B9" stroke-width="7" opacity="0.400692894" stroke-linecap="round" transform="translate(65.871225, 126.321951) scale(-1, 1) rotate(-16.000000) translate(-65.871225, -126.321951) "></path>
            <path d="M65.7459193,131.809754 C69.2403361,121.921564 75.4037431,117.242449 84.2361401,117.772408 C93.068537,118.302367 97.5717968,112.648149 97.7459193,100.809754" id="Path-4-Copy" stroke="#FF80B9" stroke-width="7" opacity="0.598423549" stroke-linecap="round" transform="translate(81.745919, 116.309754) scale(-1, 1) rotate(-16.000000) translate(-81.745919, -116.309754) "></path>
            <path d="M320.015982,150.767725 C323.544815,143.157502 328.629901,140.168884 335.27124,141.801871 C341.912579,143.434858 345.827493,139.423476 347.015982,129.767725" id="Path-4-Copy-6" stroke="#FFD77D" stroke-width="7" opacity="0.598423549" stroke-linecap="round"></path>
            <path d="M491.377316,309.938384 C494.90615,302.328161 499.991236,299.339543 506.632574,300.97253 C513.273913,302.605517 517.188827,298.594135 518.377316,288.938384" id="Path-4-Copy-7" stroke="#FFD77D" stroke-width="7" opacity="0.598423549" stroke-linecap="round" transform="translate(504.877316, 299.438384) rotate(36.000000) translate(-504.877316, -299.438384) "></path>
            <path d="M258.931724,119.797749 C262.460557,112.187526 267.545643,109.198908 274.186982,110.831895 C280.828321,112.464882 284.743235,108.4535 285.931724,98.7977494" id="Path-4-Copy-3" stroke="#FF80B9" stroke-width="7" opacity="0.598423549" stroke-linecap="round" transform="translate(272.431724, 109.297749) rotate(-30.000000) translate(-272.431724, -109.297749) "></path>
            <path d="M237.691343,115.50833 C240.639757,107.21501 245.840132,103.290591 253.292467,103.735072 C260.744802,104.179554 264.544427,99.4373064 264.691343,89.5083302" id="Path-4-Copy-2" stroke="#FF80B9" stroke-width="7" opacity="0.598423549" stroke-linecap="round" transform="translate(251.191343, 102.508330) rotate(-30.000000) translate(-251.191343, -102.508330) "></path>
        </g>
    </g>
</svg>