<?xml version="1.0" encoding="UTF-8"?>
<svg width="460px" height="850px" viewBox="0 0 460 850" version="1.1" xmlns="http://www.w3.org/2000/svg" xmlns:xlink="http://www.w3.org/1999/xlink">
    <!-- Generator: Sketch 53.2 (72643) - https://sketchapp.com -->
    <title>рука</title>
    <desc>Created with Sketch.</desc>
    <g id="Page-4" stroke="none" stroke-width="1" fill="none" fill-rule="evenodd">
        <g id="рука" transform="translate(-173.000000, -18.000000)">
            <g id="Group-6" transform="translate(263.181033, 218.342921) scale(-1, 1) rotate(30.000000) translate(-263.181033, -218.342921) translate(25.681033, 103.342921)" stroke-linecap="round" stroke-width="7">
                <path d="M-83.9877532,217.87392 C-80.4589199,210.263697 -75.3738339,207.275079 -68.7324952,208.908066 C-62.0911565,210.541053 -58.1762425,206.529671 -56.9877532,196.87392" id="Path-4" stroke="#FF80B9" opacity="0.400692894" transform="translate(-70.487753, 207.373920) rotate(-155.000000) translate(70.487753, -207.373920) "></path>
                <path d="M-81.0755615,240.844958 C-77.5811447,230.956768 -71.4177377,226.277653 -62.5853407,226.807611 C-53.7529437,227.33757 -49.249684,221.683352 -49.0755615,209.844958" id="Path-4-Copy" stroke="#FF80B9" opacity="0.598423549" transform="translate(-65.075561, 225.344958) rotate(-155.000000) translate(65.075561, -225.344958) "></path>
                <path d="M3,53.3136205 C6.52883329,45.7033972 11.6139193,42.7147791 18.255258,44.3477663 C24.8965966,45.9807534 28.8115107,41.9693715 30,32.3136205" id="Path-4" stroke="#FF80B9" opacity="0.400692894" transform="translate(16.500000, 42.813621) scale(-1, 1) rotate(-16.000000) translate(-16.500000, -42.813621) "></path>
                <path d="M16.3746942,48.3014237 C19.869111,38.4132341 26.0325179,33.7341187 34.8649149,34.2640775 C43.6973119,34.7940363 48.2005717,29.1398184 48.3746942,17.3014237" id="Path-4-Copy" stroke="#FF80B9" opacity="0.598423549" transform="translate(32.374694, 32.801424) scale(-1, 1) rotate(-16.000000) translate(-32.374694, -32.801424) "></path>
                <path d="M270.644757,67.2593947 C274.17359,59.6491714 279.258676,56.6605533 285.900015,58.2935404 C292.541353,59.9265275 296.456267,55.9151456 297.644757,46.2593947" id="Path-4-Copy-6" stroke="#FFD77D" opacity="0.598423549"></path>
                <path d="M-78.7339932,171.693569 C-75.2051599,164.083346 -70.120074,161.094728 -63.4787353,162.727715 C-56.8373966,164.360702 -52.9224826,160.34932 -51.7339932,150.693569" id="Path-4-Copy-7" stroke="#FFD77D" opacity="0.598423549" transform="translate(-65.233993, 161.193569) rotate(-132.000000) translate(65.233993, -161.193569) "></path>
                <path d="M209.560499,36.2894192 C213.089332,28.6791959 218.174418,25.6905778 224.815757,27.3235649 C231.457096,28.956552 235.37201,24.9451701 236.560499,15.2894192" id="Path-4-Copy-3" stroke="#FF80B9" opacity="0.598423549" transform="translate(223.060499, 25.789419) rotate(-30.000000) translate(-223.060499, -25.789419) "></path>
                <path d="M188.320118,32 C191.268532,23.7066797 196.468907,19.7822603 203.921242,20.2267419 C211.373577,20.6712235 215.173202,15.9289762 215.320118,6" id="Path-4-Copy-2" stroke="#FF80B9" opacity="0.598423549" transform="translate(201.820118, 19.000000) rotate(-30.000000) translate(-201.820118, -19.000000) "></path>
            </g>
            <polyline id="Path-19-Copy" stroke="#D548AF" stroke-width="20" stroke-linecap="round" stroke-linejoin="round" transform="translate(513.914611, 669.058651) scale(-1, 1) translate(-513.914611, -669.058651) " points="525.914611 592.558651 525.914611 729.314779 501.914611 745.558651"></polyline>
            <polyline id="Path-19-Copy-2" stroke="#D548AF" stroke-width="20" stroke-linecap="round" stroke-linejoin="round" points="409 593 409 729.756128 385 746"></polyline>
            <g id="Group-16" transform="translate(408.934942, 359.833125) rotate(-11.000000) translate(-408.934942, -359.833125) translate(257.934942, 88.833125)">
                <path d="M193,246.069475 C195.691659,246.163118 198.359389,246.350902 201,246.629634 L201,58.5 C201,42.2075999 214.2076,29 230.5,29 C246.7924,29 260,42.2075999 260,58.5 L260,271.086055 C285.618533,291.801673 302,323.487788 302,359 L302,429 C302,491.408177 251.408177,542 189,542 L113,542 C50.5918233,542 7.64279739e-15,491.408177 0,429 L0,359 C-4.24236386e-16,355.535847 0.155880384,352.108102 0.461009468,348.723396 C0.158088518,347.028025 2.18290146e-16,345.282474 0,343.5 L0,143.5 C-1.99524357e-15,127.2076 13.2075999,114 29.5,114 C45.7924001,114 59,127.2076 59,143.5 L59,259.713303 C61.6062505,258.292813 64.2746226,256.971952 67,255.755836 L67,58.5 C67,42.2075999 80.2075999,29 96.5,29 C112.7924,29 126,42.2075999 126,58.5 L126,246 L134,246 L134,29.5 C134,13.2075999 147.2076,2.99286535e-15 163.5,0 C179.7924,-2.99286535e-15 193,13.2075999 193,29.5 L193,246.069475 Z" id="Combined-Shape" fill="#FFD1A5"></path>
                <path d="M88.0650576,106.666875 L104.673701,106.666875 L88.0650576,106.666875 Z M88.0650576,177.666875 L104.673701,177.666875 L88.0650576,177.666875 Z M26.0650576,183.666875 L33.8808898,183.666875 L26.0650576,183.666875 Z M26.0650576,254.666875 L33.8808898,254.666875 L26.0650576,254.666875 Z M222.065058,106.666875 L238.673701,106.666875 L222.065058,106.666875 Z M222.065058,177.666875 L238.673701,177.666875 L222.065058,177.666875 Z M155.065058,88.666875 L171.673701,88.666875 L155.065058,88.666875 Z M155.065058,161.666875 L171.673701,161.666875 L155.065058,161.666875 Z" id="Combined-Shape" stroke="#F7B685" stroke-width="16" stroke-linecap="round" stroke-linejoin="round"></path>
            </g>
            <ellipse id="Oval" fill="#FFC28D" cx="476.5" cy="411.5" rx="76.5" ry="69.5"></ellipse>
            <g id="карандаш" transform="translate(264.000000, 222.588995)">
                <path d="M289.469249,591.145986 C280.007112,607.146765 259.939259,611.084023 229.26569,602.957761 C179.488696,589.770482 172.236987,595.532935 146.995089,612.646116 C110.202537,637.590262 69.3605903,639.770468 24.4692489,619.186735" id="Path-20" stroke="#FFEB5D" stroke-width="7" stroke-linecap="round" stroke-linejoin="round" transform="translate(156.969249, 612.145986) scale(-1, 1) rotate(-6.000000) translate(-156.969249, -612.145986) "></path>
                <path d="M160.411738,81.3265306 C160.411738,66.0522258 180.161115,-29 190.411738,-29 C200.66236,-29 220.411738,66.0522258 220.411738,81.3265306 C220.411738,246.55102 220.411738,411.77551 220.411738,577 L220.411738,577 C220.411738,593.568542 206.98028,607 190.411738,607 L190.411738,607 C173.843195,607 160.411738,593.568542 160.411738,577 C160.411738,411.77551 160.411738,246.55102 160.411738,81.3265306 Z" id="Rectangle" fill="#FFD86D" transform="translate(190.411738, 289.000000) rotate(-149.000000) translate(-190.411738, -289.000000) "></path>
                <path d="M273.960446,100.023215 C286.214996,100.023215 296.214996,100.023215 303.960446,100.023215 C311.705895,100.023215 321.705895,100.023215 333.960446,100.023215" id="Path-18" stroke="#FFEB5D" stroke-width="16" transform="translate(303.960446, 100.023215) rotate(-149.000000) translate(-303.960446, -100.023215) "></path>
                <rect id="Rectangle" fill="#FFEB5D" transform="translate(186.506949, 268.921415) rotate(-149.000000) translate(-186.506949, -268.921415) " x="180.506949" y="89.4214151" width="12" height="359" rx="6"></rect>
            </g>
            <path d="M432.027285,383.76766 C408.08444,401.339782 429.128132,436.75251 483.481245,412.448777 C498.138682,405.894774 525.645322,420.350311 523.804287,440.009919 C521.412419,465.551631 475.579338,498.625542 503.406643,529.801996 C530.235062,559.859343 577.176633,562.784922 595.314888,500.587565 C608.649101,454.863604 619.663576,424.693839 589.211742,398.013386 C573.264655,384.041305 520.847155,345.279494 499.924355,346.536863 C465.072399,348.631315 455.970131,366.195539 432.027285,383.76766 Z" id="Path-19" fill="#FFD1A5" transform="translate(515.485841, 448.506978) rotate(-11.000000) translate(-515.485841, -448.506978) "></path>
            <path d="M427.076086,422.692063 C434.330213,424.697485 445.324193,417.059881 448.082378,404.389214 C450.840563,391.718547 438.974329,385.57707 432.66598,393.845656 C420.101632,410.314208 419.821959,420.68664 427.076086,422.692063 Z" id="Path-4-Copy-4" fill="#FFDBB8" transform="translate(435.382754, 406.542615) rotate(10.000000) translate(-435.382754, -406.542615) "></path>
        </g>
    </g>
</svg>