<?xml version="1.0" encoding="UTF-8"?>
<svg width="850px" height="81px" viewBox="0 0 850 81" version="1.1" xmlns="http://www.w3.org/2000/svg" xmlns:xlink="http://www.w3.org/1999/xlink">
    <!-- Generator: Sketch 53.2 (72643) - https://sketchapp.com -->
    <title>Combined Shape</title>
    <desc>Created with Sketch.</desc>
    <g id="landing" stroke="none" stroke-width="1" fill="none" fill-rule="evenodd">
        <g id="Apple-TV" transform="translate(-502.000000, -580.000000)" fill="#E6EAFF">
            <g id="Group-3" transform="translate(502.044374, 391.000000)">
                <path d="M848.501882,195.263307 C854.729336,197.409074 841.104461,204.281997 808.562183,218.089355 C776.019904,231.896712 743.193068,218.385611 727.492961,223.961985 C711.792854,229.538359 715.856648,230.937636 705.943423,235.168704 C692.049046,241.09897 718.977258,209.330498 748.297227,197.338467 C777.617196,185.346435 827.11196,187.893071 848.501882,195.263307 Z M816.866893,267.475394 C821.964108,271.745292 804.861878,268.730967 774.411051,266.413971 C743.960225,264.096975 731.416689,243.313399 716.205594,247.060056 C708.094901,249.057808 706.355616,250.058757 698.753834,251.277963 C691.152051,252.49717 694.969554,247.900465 696.607147,247.4221 C698.244741,246.943736 716.762683,233.443291 743.975797,235.815203 C771.188912,238.187114 803.127184,255.965745 816.866893,267.475394 Z M1.75533241,195.263307 C23.1452546,187.893071 72.6400191,185.346435 101.959988,197.338467 C131.279957,209.330498 158.208169,241.09897 144.313792,235.168704 C134.400566,230.937636 138.464361,229.538359 122.764254,223.961985 C107.064147,218.385611 74.2373107,231.896712 41.6950322,218.089355 C9.1527538,204.281997 -4.47212096,197.409074 1.75533241,195.263307 Z M33.3903222,267.475394 C47.1300309,255.965745 79.0683032,238.187114 106.281418,235.815203 C133.494532,233.443291 152.012474,246.943736 153.650068,247.4221 C155.287661,247.900465 159.105164,252.49717 151.503381,251.277963 C143.901599,250.058757 142.162314,249.057808 134.051621,247.060056 C118.840526,243.313399 106.29699,264.096975 75.8461634,266.413971 C45.3953371,268.730967 28.293107,271.745292 33.3903222,267.475394 Z" id="Combined-Shape"></path>
            </g>
        </g>
    </g>
</svg>