<?xml version="1.0" encoding="utf-8"?>
<!-- Generator: Adobe Illustrator 22.1.0, SVG Export Plug-In . SVG Version: 6.00 Build 0)  -->
<svg version="1.1" id="Слой_1" xmlns="http://www.w3.org/2000/svg" xmlns:xlink="http://www.w3.org/1999/xlink" x="0px" y="0px"
	 viewBox="0 0 1717 318" style="enable-background:new 0 0 1717 318;" xml:space="preserve">
<style type="text/css">
	.st0{fill:url(#Rectangle_1_);}
	.st1{opacity:0.5014;fill:#45B8FF;enable-background:new    ;}
	.st2{fill:#FFFFFF;}
</style>
<title>Group 15 Copy</title>
<desc>Created with Sketch.</desc>
<linearGradient id="Rectangle_1_" gradientUnits="userSpaceOnUse" x1="999.9075" y1="10.4147" x2="999.9075" y2="12.082" gradientTransform="matrix(1530 0 0 200 -1529000 -1962)">
	<stop  offset="0" style="stop-color:#245FAB"/>
	<stop  offset="0.9996" style="stop-color:#142E50"/>
</linearGradient>
<rect id="Rectangle" y="118" class="st0" width="1717" height="200"/>
<g id="get-started" transform="translate(587.000000, 169.000000)">
</g>
<path id="Combined-Shape" class="st1" d="M470,317.6c-1.3-4.3-3.1-8.4-5.1-12.4c-11.3-22.3-58.1-17.4-94.2-52.8
	s-58.7-53.6-47.3-51.3c30.5,6.1,84.8,27.9,117.5,59.2c17.3,16.6,29.3,34.8,35.9,54.6c-4.6-25.8-13-72.4-48.8-80.5
	c-49-11.1-67.3-60.8-86.8-73.6c-19.5-12.8-47.9-13-36.3-17.8c18.2-7.6,112.9,10.6,140.9,58.3c7.2,12.4,13.6,27.4,19,42.7
	c-0.9-4.5-1.9-8.6-2.7-12.2c-12.1-51.1-27-64.3-29.4-108.9C430,76.2,451.6,95,471.9,10.5c2.9-12.1,25.8,19.7,23.6,96.7
	c-1,35.1-20.1,82.1-20,134c0,11.8,4.1,28.9,8,49.3c-2.3-36.2-1.5-64.8,2.2-85.7c7.6-42.3,39.1-88.6,61.5-104.2
	c6.5-4.6,4.3,16.3-3.7,63.8c-7.9,47.5-44.6,69.4-49.6,91.3c-2,8.6-2.9,20.8-2.9,36.6c4.1-14.2,10.8-28.1,20.1-41.7
	c25.8-37.8,75-69.8,103.9-81.6c10.7-4.4-7.8,18.3-36.2,60.8c-7.3,11-15.9,19.3-24.6,26.2c0.2,15.1-1.2,31.2-5.4,44.9
	c-1.9,6-4,11.6-6.6,16.8h-8.5c0.6-11.6-4.5-27.9-2.3-46.8c-17,9.9-31.4,17-34.9,29.8c-1.4,5.4-2.4,11.1-2.7,17H470V317.6z
	 M563.6,317.6H557c5.2-22.1,11-39.4,17.5-52c14.3-27.8,47.4-55,67.7-62.7c5.9-2.2,0,11.7-15.6,42.9c-15.6,31.2-47.9,41.2-56,55.5
	C568.3,305.3,565.9,310.7,563.6,317.6z M581.3,317.6h-8.9c4.3-7.6,10-14.8,17-21.5c20.5-19.5,53.9-32.3,72.5-35.5
	c6.9-1.2-7.2,10.1-29.8,32.1C614.4,310,593.2,311.1,581.3,317.6z M376,317.6h-6.1c-4.1-9.8-7.9-17.2-11.7-22.2
	c-9.7-13.3-42.8-20-61.7-49.5s-26.2-42.7-20.1-41.1c20.8,5.6,56.7,29.3,74.1,55.5C359.1,273.5,367.6,292.6,376,317.6z M361.6,317.6
	h-6.1c-10.8-9.3-36-4.9-58.8-22.9c-24.9-19.6-40.1-29.4-33.1-28.9c18.9,1.3,53.5,10.6,76,28C348.7,300.8,356.1,308.7,361.6,317.6z
	 M1241.5,318h-7.5c5.8-29.9,12.3-53.4,19.7-70.4c16.2-37.3,53.9-73.7,76.9-83.8c6.7-2.9,0.1,15.8-17.4,57.7s-54.5,55.1-63.7,74.2
	C1246.9,301.2,1244.2,308.6,1241.5,318z M1261.7,318h-10c5-10.3,11.3-20,19.4-29c23.3-26.1,61.6-43,82.9-47.1
	c7.9-1.5-8.1,13.5-33.9,43C1299.8,308.1,1275.2,309.2,1261.7,318z M1219.6,318h-12.1c-0.6-16-7.3-38.2,0.6-63.4
	c11.1-35.3,15.7-56.2,17.7-48c5.6,22.2,8.8,65.1-0.9,96.9C1223.4,308.6,1221.7,313.4,1219.6,318z M1436.6,229.8
	c5.4-0.1-3.5,9.3-25.5,29.7s-45.2,20.1-61.8,28.2c-16.6,8.1-29.8,19.2-25.2,11.4c4.5-7.8,19.3-20.7,39.1-38.7
	C1383.2,242.4,1418.1,230.1,1436.6,229.8z M1448.2,290.6c15.4,0.1-13.3,12.6-39,11.3c-25.7-1.3-46.2,0.2-56.7,3.3
	c-10.5,3.1,2.7-12.2,26.2-18.7C1402.2,279.9,1420.3,290.3,1448.2,290.6z"/>
<path id="Combined-Shape_1_" class="st2" d="M650.8,177c1.1,0,2.1,0.9,2.1,2s-0.9,2-2.1,2c-1.1,0-2.1-0.9-2.1-2S649.7,177,650.8,177
	z M965.4,150c1.1,0,2.1,0.9,2.1,2s-0.9,2-2.1,2c-1.1,0-2.1-0.9-2.1-2S964.3,150,965.4,150z M1371.8,210c1.1,0,2.1,0.9,2.1,2
	s-0.9,2-2.1,2c-1.1,0-2.1-0.9-2.1-2S1370.6,210,1371.8,210z M1102.1,261c1.4,0,2.6,1.2,2.6,2.5c0,1.4-1.2,2.5-2.6,2.5
	c-1.4,0-2.6-1.2-2.6-2.5C1099.5,262.1,1100.6,261,1102.1,261z"/>
</svg>
