<?xml version="1.0" encoding="UTF-8"?>
<svg width="1273px" height="533px" viewBox="0 0 1273 533" version="1.1" xmlns="http://www.w3.org/2000/svg" xmlns:xlink="http://www.w3.org/1999/xlink">
    <!-- Generator: Sketch 53.2 (72643) - https://sketchapp.com -->
    <title>3</title>
    <desc>Created with Sketch.</desc>
    <defs>
        <linearGradient x1="50%" y1="36.336794%" x2="52.4075307%" y2="167.547999%" id="linearGradient-1">
            <stop stop-color="#245FAB" offset="0%"></stop>
            <stop stop-color="#142E50" offset="99.9604096%"></stop>
        </linearGradient>
        <linearGradient x1="50%" y1="1.47012247%" x2="-59.9937504%" y2="219.180023%" id="linearGradient-2">
            <stop stop-color="#245FAB" offset="0%"></stop>
            <stop stop-color="#142E50" offset="99.9604096%"></stop>
        </linearGradient>
        <linearGradient x1="50%" y1="26.4833772%" x2="77.8724872%" y2="176.522373%" id="linearGradient-3">
            <stop stop-color="#245FAB" offset="0%"></stop>
            <stop stop-color="#142E50" offset="99.9604096%"></stop>
        </linearGradient>
    </defs>
    <g id="Page-3" stroke="none" stroke-width="1" fill="none" fill-rule="evenodd">
        <g id="3" transform="translate(-11.000000, -4.000000)">
            <g id="life" transform="translate(170.355903, 199.916003) scale(-1, 1) rotate(-17.000000) translate(-170.355903, -199.916003) translate(109.855903, 139.416003)" fill="#E6EBFF">
                <path d="M103.356376,2.66957904 C95.4686543,20.8909701 93.5821535,31.2348654 97.6968739,33.7012652 C103.868955,37.4008649 121.14867,22.4870962 120.810911,49.4503731 C120.473152,76.41365 101.573032,53.5833501 95.7820442,58.0310537 C91.9213855,60.9961895 92.8577605,70.5667134 98.5911693,86.7426253 C71.296208,82.8306898 59.0469779,84.9556103 61.8434792,93.117387 C66.0382312,105.360052 72.1329673,117.636554 56.4457577,120.357874 C40.7585481,123.079194 40.8288632,108.275658 43.6105443,95.07898 C45.4649983,86.2811945 31.2136641,83.0350551 0.85654173,85.3405618 C0.394493906,63.2616126 3.86182101,52.696283 11.258523,53.6445732 C22.3535761,55.0670084 31.9295378,62.6592673 29.5114838,45.302754 C27.0934298,27.9462407 23.2487299,33.1191274 12.8521421,35.2120735 C5.92108352,36.607371 3.19961291,26.6196048 4.68773027,5.24877494 C34.5778299,0.00365862814 48.1531502,1.54356137 45.413691,9.86848318 C41.3045023,22.3558659 37.6875124,33.1143388 52.9637001,31.7113535 C68.2398877,30.3083683 59.403323,23.3149273 60.933572,9.86508834 C61.9537379,0.898529062 76.0946727,-1.49997404 103.356376,2.66957904 Z" id="Path-15-Copy-3"></path>
            </g>
            <rect id="Rectangle" fill="url(#linearGradient-1)" transform="translate(450.000000, 318.098202) scale(-1, 1) translate(-450.000000, -318.098202) " x="198" y="100.098202" width="504" height="436"></rect>
            <path d="M346.207384,526.542838 C338.157148,488.087736 340.013826,472.138963 351.777417,478.69652 C364.776929,485.943036 374.343219,484.489269 374.343219,459.214836 C374.343219,433.940404 358.762451,450.352476 349.045592,444.241712 C337.509232,436.986695 340.555999,335.760519 360.901442,335.760519 C381.246884,335.760519 399.632279,353.453996 399.632279,320.5 C399.632279,284.785468 389.701319,293.036112 365.634984,301.878993 C341.56865,310.721873 345.739506,211.737376 351.777417,199.946908 C363.136544,177.76549 399.632279,218.517337 399.632279,183.712651 C399.632279,148.907964 380.72092,152.438234 367.867864,159.640467 C352.68762,168.146744 347.324138,152.040834 351.777417,111.32274" id="Path-2" stroke="#FFFFFF" stroke-width="3" stroke-linecap="round" stroke-linejoin="round"></path>
            <path d="M449.790106,488.709894 C446.51348,451.913609 445.342154,436.98315 461.23507,442.077906 C475.237605,446.566668 499.290106,462.909175 499.290106,421.051198 C499.290106,379.193221 473.6337,416.429816 457.77687,400.468032 C449.865718,392.504517 445.558092,367.17299 447.344859,340.36401 C449.139424,313.438033 457.037757,285.016806 453.34034,268.956298 C445.961572,236.905067 408.556602,288.319339 401.992238,252.483373 C393.334383,205.218691 419.284373,232.476747 444.135353,225.004286 C468.986332,217.531824 445.347072,108.664947 451.433148,94.8955709 C462.88289,68.9912323 499.290106,120.377869 499.290106,79.7315761 C499.290106,39.0852836 479.724647,45.7233509 466.769059,54.1344039 C452.096787,63.6599654 445.724815,53.218405 449.790106,4.29010626" id="Path-2-Copy-3" stroke="#FFFFFF" stroke-width="3" stroke-linecap="round" stroke-linejoin="round" transform="translate(449.790106, 246.500000) scale(-1, -1) rotate(90.000000) translate(-449.790106, -246.500000) "></path>
            <path d="M463.52797,635.380443 C461.323566,603.405829 452.561673,582.96919 438.219974,588.168319 C409.818722,598.464295 398.927152,598.464295 405.192396,566.308542 C411.457641,534.152789 428.232086,562.445552 444.460655,550.490342 C460.689225,538.535131 441.216931,438.268118 447.029515,418.568666 C452.842099,398.869213 494.206366,427.598414 495.960655,394.137668 C498.332705,348.893946 470.221625,382.166706 452.659858,371.24018 C441.940264,364.570695 445.224908,321.889605 447.029515,287.246319 C448.181371,265.133976 445.868998,246.852398 448.233728,241.491528 C459.65236,215.605364 495.960655,266.955948 495.960655,226.338172 C495.960655,185.720396 476.448356,192.353807 463.52797,200.758958 C448.268205,210.685956 442.76872,194.086521 447.029515,150.960655" id="Path-2-Copy-4" stroke="#FFFFFF" stroke-width="3" stroke-linecap="round" stroke-linejoin="round" transform="translate(449.790106, 393.170549) scale(-1, -1) rotate(90.000000) translate(-449.790106, -393.170549) "></path>
            <path d="M531.338343,526.542838 C525.582789,493.512921 528.647598,477.590292 540.532769,478.774953 C564.317408,481.1457 571.708754,481.1457 566.475716,456.188222 C561.242677,431.230743 549.708782,456.351894 533.856062,442.684107 C518.003342,429.01632 520.030341,335.760519 540.532769,335.760519 C561.035197,335.760519 582.982512,352.944605 580.903569,323.460841 C578.665362,291.718396 566.475716,292.408791 545.302836,301.878993 C524.129956,311.349194 538.180615,214.265402 525.948459,199.938345 C513.295388,185.118287 490.623108,217.27044 490.623108,182.19421 C490.623108,147.11798 510.939181,168.362482 523.797853,158.313097 C530.989711,152.692474 532.847918,139.029021 531.338343,111.32274" id="Path-2-Copy" stroke="#FFFFFF" stroke-width="3" stroke-linecap="round" stroke-linejoin="round" transform="translate(535.831864, 318.932789) scale(-1, 1) translate(-535.831864, -318.932789) "></path>
            <path d="M543.811446,243.553975 C544.322786,281.733597 539.106759,300.823408 528.163366,300.823408 C511.748275,300.823408 490.96483,277.596873 490.96483,317.050887 C490.96483,340.918312 493.753417,341.696731 506.958461,339.857623 C514.085102,338.865073 528.086708,334.554693 532.978431,337.740893 C540.350486,342.542645 545.137127,361.683005 547.338355,395.161972 C489.663448,402.630174 460.825994,398.32869 460.825994,382.257521 C460.825994,358.150767 476.305975,346.859047 447.212402,346.859047 C418.11883,346.859047 420.040316,361.871722 423.423516,384.135684 C425.678983,398.978325 399.16668,401.467718 343.886606,391.603863 C342.815734,352.465544 349.515227,333.744609 363.985085,335.441059 C385.689873,337.985733 405.22758,351.288218 400.491167,320.290122 C395.754754,289.292026 386.189442,294.325583 367.497097,300.823408 C355.035535,305.155291 350.19728,288.0237 352.982335,249.428633 C408.527454,238.552755 433.791129,241.197796 428.773358,257.363757 C421.246703,281.612698 410.468441,294.935556 447.212402,296 C477.244117,296.869995 458.591838,280.170492 461.580536,256.150903 C463.573002,240.137843 490.983305,235.938867 543.811446,243.553975 Z" id="Path-15" fill="#FFFFFF" transform="translate(445.557137, 319.294317) scale(-1, 1) translate(-445.557137, -319.294317) "></path>
            <path d="M1015.95973,32.1023583 C1017.79094,71.2376292 1012.83213,90.806369 1001.08331,90.8085778 C983.460068,90.8118909 966.593443,70.4328141 966.58557,107.574078 C966.577696,144.715342 989.107039,116.889844 1001.07625,124.078586 C1009.05573,128.87108 1015.23201,150.073508 1019.60511,187.685869 C952.590357,190.671996 921.667585,185.631709 926.836793,172.565007 C934.590603,152.964955 941.10484,141.147905 913.865374,141.153026 C886.625908,141.158147 882.350799,152.964955 887.470971,175.423187 C890.884419,190.395341 861.957657,192.362067 800.690687,181.323365 C799.720299,141.470893 807.002342,122.400488 822.536815,124.11215 C845.838526,126.679644 859.001654,137.585028 853.360086,107.574078 C847.718518,77.5631274 843.875122,88.1336341 825.883717,90.8415146 C813.889447,92.6467682 808.173843,74.6188644 808.736907,36.7578032 C871.511771,27.2903758 900.022512,30.069898 894.26913,45.09637 C885.639056,67.636078 878.022223,79.0232719 910.105107,76.4908855 C942.187991,73.9584991 923.650004,69.3671825 926.863816,45.0902424 C929.006357,28.9056156 958.704996,24.5763209 1015.95973,32.1023583 Z" id="Path-15-Copy" fill="#FF7575" transform="translate(910.105107, 108.519082) scale(-1, 1) rotate(-17.000000) translate(-910.105107, -108.519082) "></path>
            <path d="M877.258449,123.006278 C875.285105,123.006278 873.527623,122.556116 871.985949,121.655778 C870.444274,120.755441 869.23562,119.534453 868.359949,117.992778 C867.484278,116.451104 867.046449,114.705955 867.046449,112.757278 C867.046449,110.759269 867.478111,108.983286 868.341449,107.429278 C869.204786,105.875271 870.388775,104.66045 871.893449,103.784778 C873.398123,102.909107 875.124772,102.471278 877.073449,102.471278 C878.528789,102.471278 879.860776,102.748776 881.069449,103.303778 C882.278121,103.858781 883.363444,104.691273 884.325449,105.801278 C884.670784,106.195947 884.794116,106.602943 884.695449,107.022278 C884.596782,107.441614 884.325451,107.81161 883.881449,108.132278 C883.536114,108.378946 883.153784,108.459112 882.734449,108.372778 C882.315113,108.286445 881.932784,108.070614 881.587449,107.725278 C880.378776,106.442605 878.874124,105.801278 877.073449,105.801278 C875.815442,105.801278 874.705454,106.091109 873.743449,106.670778 C872.781444,107.250448 872.029118,108.058273 871.486449,109.094278 C870.943779,110.130284 870.672449,111.351271 870.672449,112.757278 C870.672449,114.089285 870.949946,115.273273 871.504949,116.309278 C872.059951,117.345284 872.830777,118.165442 873.817449,118.769778 C874.80412,119.374115 875.951109,119.676278 877.258449,119.676278 C878.121786,119.676278 878.880279,119.571446 879.533949,119.361778 C880.187619,119.152111 880.785779,118.825281 881.328449,118.381278 C881.723117,118.06061 882.130113,117.881779 882.549449,117.844778 C882.968784,117.807778 883.33878,117.924944 883.659449,118.196278 C884.078784,118.541614 884.313115,118.93011 884.362449,119.361778 C884.411782,119.793447 884.263784,120.181943 883.918449,120.527278 C882.14244,122.179953 879.922462,123.006278 877.258449,123.006278 Z M899.897163,123.006278 C898.096487,123.006278 896.480837,122.556116 895.050163,121.655778 C893.619489,120.755441 892.491,119.534453 891.664663,117.992778 C890.838325,116.451104 890.425163,114.705955 890.425163,112.757278 C890.425163,110.808602 890.875325,109.057286 891.775663,107.503278 C892.676001,105.949271 893.896988,104.722116 895.438663,103.821778 C896.980337,102.921441 898.713153,102.471278 900.637163,102.471278 C902.561172,102.471278 904.287822,102.921441 905.817163,103.821778 C907.346504,104.722116 908.561325,105.949271 909.461663,107.503278 C910.362001,109.057286 910.812163,110.808602 910.812163,112.757278 L909.369163,112.757278 C909.369163,114.705955 908.956,116.451104 908.129663,117.992778 C907.303325,119.534453 906.174837,120.755441 904.744163,121.655778 C903.313489,122.556116 901.697838,123.006278 899.897163,123.006278 Z M900.637163,119.676278 C901.895169,119.676278 903.017491,119.374115 904.004163,118.769778 C904.990834,118.165442 905.767827,117.339117 906.335163,116.290778 C906.902499,115.24244 907.186163,114.064618 907.186163,112.757278 C907.186163,111.425272 906.902499,110.235117 906.335163,109.186778 C905.767827,108.13844 904.990834,107.312115 904.004163,106.707778 C903.017491,106.103442 901.895169,105.801278 900.637163,105.801278 C899.403823,105.801278 898.287668,106.103442 897.288663,106.707778 C896.289658,107.312115 895.500332,108.13844 894.920663,109.186778 C894.340993,110.235117 894.051163,111.425272 894.051163,112.757278 C894.051163,114.064618 894.340993,115.24244 894.920663,116.290778 C895.500332,117.339117 896.289658,118.165442 897.288663,118.769778 C898.287668,119.374115 899.403823,119.676278 900.637163,119.676278 Z M908.925163,122.895278 C908.382493,122.895278 907.932331,122.716447 907.574663,122.358778 C907.216994,122.00111 907.038163,121.550948 907.038163,121.008278 L907.038163,115.347278 L907.741163,111.425278 L910.812163,112.757278 L910.812163,121.008278 C910.812163,121.550948 910.633331,122.00111 910.275663,122.358778 C909.917994,122.716447 909.467832,122.895278 908.925163,122.895278 Z M924.940877,122.858278 C923.707537,122.858278 922.597548,122.543782 921.610877,121.914778 C920.624205,121.285775 919.847213,120.428617 919.279877,119.343278 C918.712541,118.25794 918.428877,117.036952 918.428877,115.680278 L918.428877,98.0312785 C918.428877,97.4886091 918.601542,97.0446136 918.946877,96.6992785 C919.292212,96.3539434 919.736207,96.1812785 920.278877,96.1812785 C920.821546,96.1812785 921.265542,96.3539434 921.610877,96.6992785 C921.956212,97.0446136 922.128877,97.4886091 922.128877,98.0312785 L922.128877,115.680278 C922.128877,116.66695 922.400207,117.493275 922.942877,118.159278 C923.485546,118.825282 924.151539,119.158278 924.940877,119.158278 L926.198877,119.158278 C926.642879,119.158278 927.019042,119.330943 927.327377,119.676278 C927.635712,120.021614 927.789877,120.465609 927.789877,121.008278 C927.789877,121.550948 927.586379,121.994943 927.179377,122.340278 C926.772375,122.685614 926.248213,122.858278 925.606877,122.858278 L924.940877,122.858278 Z M916.726877,106.541278 C916.208874,106.541278 915.789545,106.39328 915.468877,106.097278 C915.148208,105.801277 914.987877,105.431281 914.987877,104.987278 C914.987877,104.493943 915.148208,104.09928 915.468877,103.803278 C915.789545,103.507277 916.208874,103.359278 916.726877,103.359278 L925.273877,103.359278 C925.791879,103.359278 926.211208,103.507277 926.531877,103.803278 C926.852545,104.09928 927.012877,104.493943 927.012877,104.987278 C927.012877,105.431281 926.852545,105.801277 926.531877,106.097278 C926.211208,106.39328 925.791879,106.541278 925.273877,106.541278 L916.726877,106.541278 Z M940.919591,123.006278 C939.192915,123.006278 937.595765,122.741114 936.128091,122.210778 C934.660417,121.680443 933.519595,121.008283 932.705591,120.194278 C932.335589,119.79961 932.181424,119.349448 932.243091,118.843778 C932.304758,118.338109 932.545255,117.924947 932.964591,117.604278 C933.457926,117.20961 933.945088,117.043112 934.426091,117.104778 C934.907093,117.166445 935.320256,117.382277 935.665591,117.752278 C936.084926,118.220948 936.757086,118.658776 937.682091,119.065778 C938.607095,119.472781 939.636918,119.676278 940.771591,119.676278 C942.202265,119.676278 943.293754,119.441948 944.046091,118.973278 C944.798428,118.504609 945.186924,117.900282 945.211591,117.160278 C945.236257,116.420275 944.884761,115.778948 944.157091,115.236278 C943.42942,114.693609 942.1036,114.249614 940.179591,113.904278 C937.688245,113.410943 935.88143,112.67095 934.759091,111.684278 C933.636752,110.697607 933.075591,109.488952 933.075591,108.058278 C933.075591,106.800272 933.445587,105.758116 934.185591,104.931778 C934.925594,104.105441 935.875252,103.488781 937.034591,103.081778 C938.19393,102.674776 939.402584,102.471278 940.660591,102.471278 C942.288599,102.471278 943.731584,102.730276 944.989591,103.248278 C946.247597,103.766281 947.246587,104.481607 947.986591,105.394278 C948.331926,105.788947 948.492257,106.20211 948.467591,106.633778 C948.442924,107.065447 948.233259,107.429277 947.838591,107.725278 C947.443922,107.996613 946.97526,108.082946 946.432591,107.984278 C945.889921,107.885611 945.433593,107.663614 945.063591,107.318278 C944.446921,106.726276 943.780928,106.31928 943.065591,106.097278 C942.350254,105.875277 941.523929,105.764278 940.586591,105.764278 C939.501252,105.764278 938.582428,105.949277 937.830091,106.319278 C937.077754,106.68928 936.701591,107.231942 936.701591,107.947278 C936.701591,108.391281 936.818756,108.79211 937.053091,109.149778 C937.287425,109.507447 937.749921,109.82811 938.440591,110.111778 C939.131261,110.395447 940.142584,110.672944 941.474591,110.944278 C943.3246,111.31428 944.786085,111.782942 945.859091,112.350278 C946.932096,112.917615 947.702922,113.577441 948.171591,114.329778 C948.64026,115.082116 948.874591,115.951607 948.874591,116.938278 C948.874591,118.072951 948.572427,119.096607 947.968091,120.009278 C947.363754,120.92195 946.475763,121.649609 945.304091,122.192278 C944.132418,122.734948 942.670933,123.006278 940.919591,123.006278 Z" id="cats" fill="#FFFFFF" fill-rule="nonzero" transform="translate(907.960520, 109.593778) rotate(17.000000) translate(-907.960520, -109.593778) "></path>
            <g id="me" transform="translate(1212.058701, 289.860762) scale(-1, 1) rotate(22.000000) translate(-1212.058701, -289.860762) translate(1142.058701, 209.360762)">
                <path d="M139.759623,2.75009939 C140.94803,31.6589095 137.729891,46.1141304 130.105205,46.115762 C118.668175,46.1182093 110.815004,34.4439842 110.815004,57.6296948 C110.815004,80.8154054 122.332915,65.381717 130.100627,70.6919643 C135.279102,74.2321292 136.333825,88.9506392 133.264794,114.847494 C96.0626112,109.63158 79.367292,112.464808 83.1788362,123.347177 C88.8961525,139.67073 97.2030881,156.039399 75.8219098,159.667826 C54.4407315,163.296252 54.5365688,143.558205 58.3279134,125.962634 C60.8554766,114.232253 41.4313517,109.904068 0.0555389402,112.978076 C-0.57421786,83.5394774 4.15164104,69.4523714 14.2331157,70.7167582 C29.3553276,72.6133385 36.7976814,71.9098924 33.6865379,57.6296948 C30.5753944,43.3494972 30.5753944,43.3494972 16.4051688,46.140092 C6.95835173,48.0004886 3.24907202,34.683467 5.27732965,6.18902725 C46.016605,-0.804461163 64.5193439,1.2487425 60.7855463,12.3486382 C55.18485,28.9984818 53.1571513,34.4439842 70,34.4439842 C86.8428487,34.4439842 79.8529793,30.2772304 81.9386609,12.3441118 C83.3291153,0.388699415 102.602769,-2.80930472 139.759623,2.75009939 Z" id="Path-15-Copy-2" fill="url(#linearGradient-2)" transform="translate(70.000000, 80.103171) scale(-1, 1) translate(-70.000000, -80.103171) "></path>
                <path d="M66.8780352,76.2084909 C66.438033,76.2084909 66.0730366,76.0634924 65.7830352,75.7734909 C65.4930337,75.4834895 65.3480352,75.1184931 65.3480352,74.6784909 L65.3480352,66.0984909 C65.3480352,64.8384846 65.0380383,63.903494 64.4180352,63.2934909 C63.7980321,62.6834879 62.9880402,62.3784909 61.9880352,62.3784909 C60.94803,62.3784909 60.0930385,62.7384873 59.4230352,63.4584909 C58.7530318,64.1784945 58.4180352,65.0984853 58.4180352,66.2184909 L55.9280352,66.2184909 C55.9280352,64.9184844 56.2080324,63.7734959 56.7680352,62.7834909 C57.328038,61.793486 58.1130301,61.0184937 59.1230352,60.4584909 C60.1330402,59.8984881 61.2880287,59.6184909 62.5880352,59.6184909 C63.7280409,59.6184909 64.7380308,59.8684884 65.6180352,60.3684909 C66.4980396,60.8684934 67.1830327,61.6034861 67.6730352,62.5734909 C68.1630376,63.5434958 68.4080352,64.718484 68.4080352,66.0984909 L68.4080352,74.6784909 C68.4080352,75.1184931 68.2680366,75.4834895 67.9880352,75.7734909 C67.7080338,76.0634924 67.3380375,76.2084909 66.8780352,76.2084909 Z M46.8680352,76.2084909 C46.428033,76.2084909 46.0630366,76.0634924 45.7730352,75.7734909 C45.4830337,75.4834895 45.3380352,75.1184931 45.3380352,74.6784909 L45.3380352,61.3284909 C45.3380352,60.8684886 45.4830337,60.4984923 45.7730352,60.2184909 C46.0630366,59.9384895 46.428033,59.7984909 46.8680352,59.7984909 C47.3280375,59.7984909 47.6980338,59.9384895 47.9780352,60.2184909 C48.2580366,60.4984923 48.3980352,60.8684886 48.3980352,61.3284909 L48.3980352,74.6784909 C48.3980352,75.1184931 48.2580366,75.4834895 47.9780352,75.7734909 C47.6980338,76.0634924 47.3280375,76.2084909 46.8680352,76.2084909 Z M56.8880352,76.2084909 C56.448033,76.2084909 56.0830366,76.0634924 55.7930352,75.7734909 C55.5030337,75.4834895 55.3580352,75.1184931 55.3580352,74.6784909 L55.3580352,66.0984909 C55.3580352,64.8384846 55.0480383,63.903494 54.4280352,63.2934909 C53.8080321,62.6834879 52.9980402,62.3784909 51.9980352,62.3784909 C50.95803,62.3784909 50.0980386,62.7384873 49.4180352,63.4584909 C48.7380318,64.1784945 48.3980352,65.0984853 48.3980352,66.2184909 L46.5080352,66.2184909 C46.5080352,64.9184844 46.7680326,63.7734959 47.2880352,62.7834909 C47.8080378,61.793486 48.5280306,61.0184937 49.4480352,60.4584909 C50.3680398,59.8984881 51.4180293,59.6184909 52.5980352,59.6184909 C53.7380409,59.6184909 54.7480308,59.8684884 55.6280352,60.3684909 C56.5080396,60.8684934 57.1930327,61.6034861 57.6830352,62.5734909 C58.1730376,63.5434958 58.4180352,64.718484 58.4180352,66.0984909 L58.4180352,74.6784909 C58.4180352,75.1184931 58.2780366,75.4834895 57.9980352,75.7734909 C57.7180338,76.0634924 57.3480375,76.2084909 56.8880352,76.2084909 Z M76.3792979,66.6384909 L86.3713998,66.6384909 C86.2832402,65.9703746 86.1040242,65.3553778 85.8337495,64.7934909 C85.4537476,64.003487 84.913753,63.3784932 84.2137495,62.9184909 C83.513746,62.4584886 82.6637545,62.2284909 81.6637495,62.2284909 C80.5237438,62.2284909 79.5487535,62.4784884 78.7387495,62.9784909 C77.9287454,63.4784934 77.3137516,64.1634866 76.8937495,65.0334909 C76.6536197,65.5309025 76.4821363,66.0659006 76.3792979,66.6384909 L76.3792979,66.6384909 Z M76.3454567,69.0384909 C76.4560173,69.7223479 76.6787809,70.3523449 77.0137495,70.9284909 C77.513752,71.7884952 78.2037451,72.4684884 79.0837495,72.9684909 C79.9637539,73.4684934 80.9737438,73.7184909 82.1137495,73.7184909 C82.7337526,73.7184909 83.3687462,73.6034921 84.0187495,73.3734909 C84.6687527,73.1434898 85.1937475,72.8784924 85.5937495,72.5784909 C85.893751,72.3584898 86.2187477,72.243491 86.5687495,72.2334909 C86.9187512,72.2234909 87.2237482,72.3284898 87.4837495,72.5484909 C87.8237512,72.8484924 88.0037494,73.1784891 88.0237495,73.5384909 C88.0437496,73.8984927 87.8837512,74.2084896 87.5437495,74.4684909 C86.8637461,75.0084936 86.0187545,75.4484892 85.0087495,75.7884909 C83.9987444,76.1284926 83.0337541,76.2984909 82.1137495,76.2984909 C80.4537412,76.2984909 78.9787559,75.9434945 77.6887495,75.2334909 C76.398743,74.5234874 75.3887531,73.5434972 74.6587495,72.2934909 C73.9287458,71.0434847 73.5637495,69.608499 73.5637495,67.9884909 C73.5637495,66.3484827 73.908746,64.9034972 74.5987495,63.6534909 C75.2887529,62.4034847 76.2437434,61.4234945 77.4637495,60.7134909 C78.6837556,60.0034874 80.0837416,59.6484909 81.6637495,59.6484909 C83.2237573,59.6484909 84.5637439,59.9934875 85.6837495,60.6834909 C86.8037551,61.3734944 87.6587465,62.3234849 88.2487495,63.5334909 C88.8387524,64.743497 89.1337495,66.138483 89.1337495,67.7184909 C89.1337495,68.0984928 89.0037508,68.4134897 88.7437495,68.6634909 C88.4837482,68.9134922 88.1537515,69.0384909 87.7537495,69.0384909 L76.3454567,69.0384909 L76.3454567,69.0384909 Z" fill="#6DE4FF" fill-rule="nonzero" opacity="0.6" transform="translate(67.235892, 67.958491) scale(-1, 1) translate(-67.235892, -67.958491) "></path>
            </g>
            <g id="dogs" transform="translate(985.434194, 383.500467) rotate(11.000000) translate(-985.434194, -383.500467) translate(889.934194, 317.000467)">
                <path d="M166.983292,2.87853438 C156.133152,29.2995513 153.538132,44.2981997 159.198231,47.8744793 C167.688381,53.2388988 191.457897,31.6139342 190.993284,70.7106858 C190.528672,109.807437 164.530171,76.7035024 156.564243,83.1526727 C151.253623,87.4521195 152.541676,101.329379 160.4284,124.784452 C131.360941,135.766951 115.136347,135.682597 111.754619,124.531389 C106.682026,107.804578 118.869944,89.782289 97.2910365,93.7282029 C75.7121294,97.6741169 92.1609617,106.370574 84.0436223,119.037674 C78.6320628,127.482407 59.2799397,128.720336 25.9872532,122.751459 C39.2607816,98.0937488 42.8249409,82.6286308 36.6797311,76.3561053 C27.4619164,66.9473171 -4.04036696,103.101966 0.432212111,62.740201 C4.90479119,22.3784361 22.8314778,60.1134364 33.2005386,50.8007543 C40.1132458,44.5922996 39.4655109,29.8648376 31.257334,6.61836842 C72.3733578,-0.987050223 91.0472063,1.24580876 87.2788794,13.3169454 C81.626389,31.4236503 76.6509542,47.023436 97.6644704,44.9891074 C118.677987,42.9547788 106.522644,32.8142893 108.627614,13.3120229 C110.030927,0.310511906 129.482819,-3.16731759 166.983292,2.87853438 Z" id="Path-15-Copy-4" fill="url(#linearGradient-3)" transform="translate(95.500000, 66.479271) scale(-1, 1) translate(-95.500000, -66.479271) "></path>
                <path d="M60.0820869,77.0940216 C58.4180786,77.0940216 56.9194269,76.7046922 55.5860869,75.9260216 C54.2527469,75.1473511 53.1967575,74.0860284 52.4180869,72.7420216 C51.6394164,71.3980149 51.2500869,69.8833634 51.2500869,68.1980216 C51.2500869,66.5126799 51.6074167,65.0033616 52.3220869,63.6700216 C53.0367572,62.3366816 54.0127474,61.2806922 55.2500869,60.5020216 C56.4874264,59.7233511 57.8847458,59.3340216 59.4420869,59.3340216 C60.7007599,59.3340216 61.8634149,59.5953524 62.9300869,60.1180216 C63.9967589,60.6406909 64.89275,61.3500172 65.6180869,62.2460216 L65.6180869,53.6060216 C65.6180869,53.1153525 65.772752,52.7206898 66.0820869,52.4220216 C66.3914218,52.1233535 66.7807512,51.9740216 67.2500869,51.9740216 C67.740756,51.9740216 68.1354188,52.1233535 68.4340869,52.4220216 C68.7327551,52.7206898 68.8820869,53.1153525 68.8820869,53.6060216 L68.8820869,68.1980216 C68.8820869,69.8833634 68.4927575,71.3980149 67.7140869,72.7420216 C66.9354164,74.0860284 65.8847602,75.1473511 64.5620869,75.9260216 C63.2394136,76.7046922 61.7460952,77.0940216 60.0820869,77.0940216 Z M60.0820869,74.2140216 C61.1700924,74.2140216 62.1407493,73.9526909 62.9940869,73.4300216 C63.8474245,72.9073524 64.5194178,72.1873596 65.0100869,71.2700216 C65.500756,70.3526837 65.7460869,69.328694 65.7460869,68.1980216 C65.7460869,67.0460159 65.500756,66.0220261 65.0100869,65.1260216 C64.5194178,64.2300172 63.8474245,63.5206909 62.9940869,62.9980216 C62.1407493,62.4753524 61.1700924,62.2140216 60.0820869,62.2140216 C59.0154149,62.2140216 58.0500912,62.4753524 57.1860869,62.9980216 C56.3220826,63.5206909 55.6394228,64.2300172 55.1380869,65.1260216 C54.6367511,66.0220261 54.3860869,67.0460159 54.3860869,68.1980216 C54.3860869,69.328694 54.6367511,70.3526837 55.1380869,71.2700216 C55.6394228,72.1873596 56.3220826,72.9073524 57.1860869,73.4300216 C58.0500912,73.9526909 59.0154149,74.2140216 60.0820869,74.2140216 Z M83.5655155,77.0940216 C81.8375069,77.0940216 80.3121888,76.7153588 78.9895155,75.9580216 C77.6668422,75.2006845 76.6268526,74.1553616 75.8695155,72.8220216 C75.1121784,71.4886816 74.7335155,69.9580303 74.7335155,68.2300216 C74.7335155,66.4806796 75.1121784,64.9393616 75.8695155,63.6060216 C76.6268526,62.2726816 77.6668422,61.2273588 78.9895155,60.4700216 C80.3121888,59.7126845 81.8375069,59.3340216 83.5655155,59.3340216 C85.2721907,59.3340216 86.7868422,59.7126845 88.1095155,60.4700216 C89.4321888,61.2273588 90.4721784,62.2726816 91.2295155,63.6060216 C91.9868526,64.9393616 92.3655155,66.4806796 92.3655155,68.2300216 C92.3655155,69.9580303 91.9921859,71.4886816 91.2455155,72.8220216 C90.4988451,74.1553616 89.4641888,75.2006845 88.1415155,75.9580216 C86.8188422,76.7153588 85.2935242,77.0940216 83.5655155,77.0940216 Z M83.5655155,74.2140216 C84.6748544,74.2140216 85.6561779,73.9580242 86.5095155,73.4460216 C87.3628531,72.9340191 88.0295131,72.2300261 88.5095155,71.3340216 C88.9895179,70.4380172 89.2295155,69.4033608 89.2295155,68.2300216 C89.2295155,67.0566824 88.9895179,66.0166928 88.5095155,65.1100216 C88.0295131,64.2033504 87.3628531,63.4940242 86.5095155,62.9820216 C85.6561779,62.4700191 84.6748544,62.2140216 83.5655155,62.2140216 C82.4561766,62.2140216 81.4748531,62.4700191 80.6215155,62.9820216 C79.7681779,63.4940242 79.0961846,64.2033504 78.6055155,65.1100216 C78.1148464,66.0166928 77.8695155,67.0566824 77.8695155,68.2300216 C77.8695155,69.4033608 78.1148464,70.4380172 78.6055155,71.3340216 C79.0961846,72.2300261 79.7681779,72.9340191 80.6215155,73.4460216 C81.4748531,73.9580242 82.4561766,74.2140216 83.5655155,74.2140216 Z M105.512944,77.0940216 C103.912936,77.0940216 102.499617,76.7153588 101.272944,75.9580216 C100.046271,75.2006845 99.0809476,74.1553616 98.3769441,72.8220216 C97.6729406,71.4886816 97.3209441,69.9580303 97.3209441,68.2300216 C97.3209441,66.4806796 97.699607,64.9393616 98.4569441,63.6060216 C99.2142812,62.2726816 100.254271,61.2273588 101.576944,60.4700216 C102.899617,59.7126845 104.424935,59.3340216 106.152944,59.3340216 C107.859619,59.3340216 109.374271,59.7126845 110.696944,60.4700216 C112.019617,61.2273588 113.059607,62.2726816 113.816944,63.6060216 C114.574281,64.9393616 114.952944,66.4806796 114.952944,68.2300216 L113.064944,68.2300216 C113.064944,69.9580303 112.739614,71.4886816 112.088944,72.8220216 C111.438274,74.1553616 110.547616,75.2006845 109.416944,75.9580216 C108.286272,76.7153588 106.984951,77.0940216 105.512944,77.0940216 Z M106.088944,84.2300216 C104.57427,84.2300216 103.155617,83.931358 101.832944,83.3340216 C100.510271,82.7366853 99.390282,81.8620274 98.4729441,80.7100216 C98.1956094,80.3473532 98.0942771,79.9740236 98.1689441,79.5900216 C98.2436112,79.2060197 98.4516091,78.8966895 98.7929441,78.6620216 C99.176946,78.4060204 99.576942,78.3206879 99.9929441,78.4060216 C100.408946,78.4913554 100.744943,78.7046866 101.000944,79.0460216 C101.576947,79.7713586 102.302273,80.3366863 103.176944,80.7420216 C104.051615,81.147357 105.043605,81.3500216 106.152944,81.3500216 C107.176949,81.3500216 108.12094,81.1046908 108.984944,80.6140216 C109.848948,80.1233525 110.536942,79.3980264 111.048944,78.4380216 C111.560947,77.4780168 111.816944,76.3046952 111.816944,74.9180216 L111.816944,70.3740216 L112.872944,67.5580216 L114.952944,68.2300216 L114.952944,75.1420216 C114.952944,76.8273634 114.579615,78.3580148 113.832944,79.7340216 C113.086274,81.1100285 112.046284,82.2033509 110.712944,83.0140216 C109.379604,83.8246924 107.838286,84.2300216 106.088944,84.2300216 Z M106.152944,74.2140216 C107.262283,74.2140216 108.243607,73.9580242 109.096944,73.4460216 C109.950282,72.9340191 110.616942,72.2300261 111.096944,71.3340216 C111.576947,70.4380172 111.816944,69.4033608 111.816944,68.2300216 C111.816944,67.0566824 111.576947,66.0166928 111.096944,65.1100216 C110.616942,64.2033504 109.950282,63.4940242 109.096944,62.9820216 C108.243607,62.4700191 107.262283,62.2140216 106.152944,62.2140216 C105.043605,62.2140216 104.062282,62.4700191 103.208944,62.9820216 C102.355607,63.4940242 101.683613,64.2033504 101.192944,65.1100216 C100.702275,66.0166928 100.456944,67.0566824 100.456944,68.2300216 C100.456944,69.4033608 100.702275,70.4380172 101.192944,71.3340216 C101.683613,72.2300261 102.355607,72.9340191 103.208944,73.4460216 C104.062282,73.9580242 105.043605,74.2140216 106.152944,74.2140216 Z M127.172373,77.0940216 C125.679032,77.0940216 124.297712,76.8646906 123.028373,76.4060216 C121.759033,75.9473527 120.772376,75.3660252 120.068373,74.6620216 C119.748371,74.3206866 119.615039,73.9313572 119.668373,73.4940216 C119.721706,73.0566861 119.929704,72.6993564 120.292373,72.4220216 C120.719042,72.0806866 121.140371,71.936688 121.556373,71.9900216 C121.972375,72.0433552 122.329705,72.23002 122.628373,72.5500216 C122.991041,72.955357 123.572369,73.3340199 124.372373,73.6860216 C125.172377,74.0380234 126.063034,74.2140216 127.044373,74.2140216 C128.281712,74.2140216 129.225703,74.011357 129.876373,73.6060216 C130.527043,73.2006863 130.863039,72.6780248 130.884373,72.0380216 C130.905706,71.3980184 130.601709,70.8433573 129.972373,70.3740216 C129.343036,69.904686 128.196381,69.5206898 126.532373,69.2220216 C124.377695,68.7953528 122.815044,68.1553592 121.844373,67.3020216 C120.873701,66.448684 120.388373,65.4033612 120.388373,64.1660216 C120.388373,63.0780162 120.70837,62.1766919 121.348373,61.4620216 C121.988376,60.7473514 122.809701,60.2140234 123.812373,59.8620216 C124.815044,59.5100199 125.860367,59.3340216 126.948373,59.3340216 C128.35638,59.3340216 129.604367,59.5580194 130.692373,60.0060216 C131.780378,60.4540239 132.64437,61.0726844 133.284373,61.8620216 C133.583041,62.2033567 133.721706,62.5606864 133.700373,62.9340216 C133.679039,63.3073568 133.497708,63.6220204 133.156373,63.8780216 C132.815038,64.1126895 132.409708,64.1873554 131.940373,64.1020216 C131.471037,64.0166879 131.076374,63.8246898 130.756373,63.5260216 C130.223037,63.0140191 129.647042,62.6620226 129.028373,62.4700216 C128.409703,62.2780207 127.695043,62.1820216 126.884373,62.1820216 C125.945701,62.1820216 125.151043,62.34202 124.500373,62.6620216 C123.849703,62.9820232 123.524373,63.4513519 123.524373,64.0700216 C123.524373,64.4540236 123.625705,64.8006868 123.828373,65.1100216 C124.03104,65.4193565 124.431036,65.6966871 125.028373,65.9420216 C125.625709,66.1873562 126.500367,66.4273538 127.652373,66.6620216 C129.252381,66.9820232 130.516368,67.3873525 131.444373,67.8780216 C132.372377,68.3686908 133.039037,68.9393517 133.444373,69.5900216 C133.849708,70.2406916 134.052373,70.992684 134.052373,71.8460216 C134.052373,72.8273599 133.791042,73.7126844 133.268373,74.5020216 C132.745703,75.2913589 131.977711,75.920686 130.964373,76.3900216 C129.951034,76.8593573 128.687047,77.0940216 127.172373,77.0940216 Z" fill="#6DE4FF" fill-rule="nonzero" opacity="0.496478"></path>
            </g>
            <path d="M132.899366,307.674238 C124.946384,328.539439 123.044275,340.38417 127.193039,343.208429 C133.416185,347.444817 150.838867,330.367154 150.498314,361.242634 C150.15776,392.118115 131.101268,365.97528 125.262367,371.068318 C121.369766,374.463677 122.313889,385.422824 128.094734,403.94576 C106.788743,412.618858 94.8963704,412.552242 92.4176164,403.745912 C88.6994854,390.536417 97.6330378,376.303858 81.8160378,379.420024 C65.9990378,382.536191 78.0557735,389.403956 72.1058913,399.407416 C68.1393031,406.076389 53.9545009,407.054006 29.5514846,402.340266 C39.2807724,382.867582 41.8932452,370.654472 37.388903,365.700934 C30.6323896,358.270627 7.54171066,386.822671 10.8200409,354.948184 C14.0983711,323.073697 27.2383508,352.873776 34.8387095,345.519366 C39.9056153,340.616426 39.4308358,328.985857 33.414371,310.627659 C63.5517707,304.621509 77.2394083,306.384842 74.4772839,315.917658 C70.3340972,330.216882 66.6871816,342.536343 82.089759,340.929793 C97.4923364,339.323244 88.5826611,331.315098 90.1255708,315.913771 C91.1541772,305.64622 105.412109,302.899709 132.899366,307.674238 Z" id="Path-15-Copy-5" fill="#E6EBFF" transform="translate(80.503236, 357.901002) scale(-1, 1) rotate(13.000000) translate(-80.503236, -357.901002) "></path>
            <g id="CAT" transform="translate(395.000000, 43.098202)">
                <path d="M73.8715411,71.1027376 L44.7955111,98.3190544" id="Path-16-Copy-2" stroke="#45B8FF" stroke-width="17" stroke-linecap="round" stroke-linejoin="round" transform="translate(59.489693, 84.366436) rotate(-40.000000) translate(-59.489693, -84.366436) "></path>
                <path d="M37.05712,65.3504316 L16.0303906,84.9614333" id="Path-16-Copy-5" stroke="#5296EF" stroke-width="17" stroke-linecap="round" stroke-linejoin="round" transform="translate(26.675272, 75.114130) scale(-1, 1) rotate(-40.000000) translate(-26.675272, -75.114130) "></path>
                <path d="M22.3244016,10.5222613 C28.7251281,7.09253681 36.2648953,5.11381222 44.3364583,5.11381222 C51.6160347,5.11381222 58.4630556,6.72328001 64.4320605,9.55508918 L79.221896,0.843462272 C81.6012369,-0.558036125 84.6662128,0.234661888 86.0677112,2.61400284 C86.5281658,3.39572222 86.7672491,4.28799348 86.7593435,5.19520961 L86.4558961,40.0173012 L86.2921822,39.9227809 C86.3215928,40.483255 86.3364583,41.047025 86.3364583,41.6138122 C86.3364583,61.7722056 67.5324178,78.1138122 44.3364583,78.1138122 C21.1410968,78.1138122 2.33742784,61.7730482 2.33645834,41.6153713 L0.167471625,5.47950058 C0.102652236,4.39959309 0.389840328,3.32779254 0.985929309,2.42497492 C2.50744583,0.120533855 5.60899725,-0.514151892 7.91343832,1.00736462 L22.3244016,10.5222613 Z" id="Combined-Shape" fill="#45B8FF"></path>
                <g id="FACE" transform="translate(17.000000, 36.000000)" fill="#FFFFFF">
                    <path d="M29.9264595,12.4525476 L29.9264595,12.4525476 C30.6885046,13.3416003 30.5855447,14.6800795 29.696492,15.4421246 C29.3122212,15.7714996 28.8228017,15.9525476 28.3166872,15.9525476 L25.5362317,15.9525476 C24.3652802,15.9525476 23.4160365,15.0033039 23.4160365,13.8323524 C23.4160365,13.3262379 23.5970845,12.8368184 23.9264595,12.4525476 L23.9264595,12.4525476 C25.3466203,10.7956934 27.8410338,10.6038154 29.497888,12.0239762 C29.6515073,12.1556498 29.7947858,12.2989284 29.9264595,12.4525476 Z" id="Triangle" transform="translate(26.926459, 12.452548) scale(1, -1) translate(-26.926459, -12.452548) "></path>
                    <path d="M6.92645947,12.9525476 C3.61275097,12.9525476 0.926459466,10.2662561 0.926459466,6.95254763 C0.926459466,3.63883913 3.61275097,0.952547631 6.92645947,0.952547631 C10.240168,0.952547631 12.9264595,3.63883913 12.9264595,6.95254763 C12.9264595,10.2662561 10.240168,12.9525476 6.92645947,12.9525476 Z M45.9264595,12.9525476 C42.612751,12.9525476 39.9264595,10.2662561 39.9264595,6.95254763 C39.9264595,3.63883913 42.612751,0.952547631 45.9264595,0.952547631 C49.240168,0.952547631 51.9264595,3.63883913 51.9264595,6.95254763 C51.9264595,10.2662561 49.240168,12.9525476 45.9264595,12.9525476 Z" id="Combined-Shape"></path>
                </g>
            </g>
            <path d="M244.384,169.098202 C243.767997,169.098202 243.250002,168.888204 242.83,168.468202 C242.409998,168.0482 242.2,167.530205 242.2,166.914202 L242.2,138.480202 C242.2,137.836199 242.409998,137.311204 242.83,136.905202 C243.250002,136.4992 243.767997,136.296202 244.384,136.296202 C245.028003,136.296202 245.552998,136.4992 245.959,136.905202 C246.365002,137.311204 246.568,137.836199 246.568,138.480202 L246.568,150.534202 L266.056,150.534202 L266.056,138.480202 C266.056,137.836199 266.265998,137.311204 266.686,136.905202 C267.106002,136.4992 267.623997,136.296202 268.24,136.296202 C268.884003,136.296202 269.401998,136.4992 269.794,136.905202 C270.186002,137.311204 270.382,137.836199 270.382,138.480202 L270.382,166.914202 C270.382,167.530205 270.186002,168.0482 269.794,168.468202 C269.401998,168.888204 268.884003,169.098202 268.24,169.098202 C267.623997,169.098202 267.106002,168.888204 266.686,168.468202 C266.265998,168.0482 266.056,167.530205 266.056,166.914202 L266.056,154.398202 L246.568,154.398202 L246.568,166.914202 C246.568,167.530205 246.365002,168.0482 245.959,168.468202 C245.552998,168.888204 245.028003,169.098202 244.384,169.098202 Z M282.22,169.098202 C281.603997,169.098202 281.093002,168.895204 280.687,168.489202 C280.280998,168.0832 280.078,167.572205 280.078,166.956202 L280.078,148.266202 C280.078,147.622199 280.280998,147.104204 280.687,146.712202 C281.093002,146.3202 281.603997,146.124202 282.22,146.124202 C282.864003,146.124202 283.381998,146.3202 283.774,146.712202 C284.166002,147.104204 284.362,147.622199 284.362,148.266202 L284.362,166.956202 C284.362,167.572205 284.166002,168.0832 283.774,168.489202 C283.381998,168.895204 282.864003,169.098202 282.22,169.098202 Z M282.22,142.386202 C281.463996,142.386202 280.813003,142.113205 280.267,141.567202 C279.720997,141.021199 279.448,140.370206 279.448,139.614202 C279.448,138.858198 279.720997,138.207205 280.267,137.661202 C280.813003,137.115199 281.463996,136.842202 282.22,136.842202 C282.976004,136.842202 283.626997,137.115199 284.173,137.661202 C284.719003,138.207205 284.992,138.858198 284.992,139.614202 C284.992,140.370206 284.719003,141.021199 284.173,141.567202 C283.626997,142.113205 282.976004,142.386202 282.22,142.386202 Z M293.26,176.364202 C292.923998,176.364202 292.665001,176.252203 292.483,176.028202 C292.300999,175.804201 292.21,175.552204 292.21,175.272202 C292.21,174.712199 292.370998,174.229204 292.693,173.823202 C293.015002,173.4172 293.336998,172.976205 293.659,172.500202 C293.981002,172.0242 294.142,171.450206 294.142,170.778202 C294.142,170.3022 294.030001,169.910204 293.806,169.602202 C293.581999,169.294201 293.330001,169.007204 293.05,168.741202 C292.769999,168.475201 292.518001,168.174204 292.294,167.838202 C292.069999,167.502201 291.958,167.082205 291.958,166.578202 C291.958,165.822198 292.209997,165.192205 292.714,164.688202 C293.218003,164.1842 293.903996,163.932202 294.772,163.932202 C295.836005,163.932202 296.640997,164.296199 297.187,165.024202 C297.733003,165.752206 298.02,166.732196 298.048,167.964202 C298.048,168.860207 297.901001,169.798197 297.607,170.778202 C297.312999,171.758207 296.921002,172.668198 296.431,173.508202 C295.940998,174.348206 295.416003,175.0342 294.856,175.566202 C294.295997,176.098205 293.764003,176.364202 293.26,176.364202 Z" id="Hi," fill="#6DE4FF" fill-rule="nonzero"></path>
            <path d="M452.196,203.266202 C450.011989,203.266202 448.045009,202.755207 446.295,201.733202 C444.544991,200.711197 443.159005,199.318211 442.137,197.554202 C441.114995,195.790193 440.604,193.802213 440.604,191.590202 C440.604,189.378191 441.072995,187.397211 442.011,185.647202 C442.949005,183.897193 444.229992,182.511207 445.854,181.489202 C447.478008,180.467197 449.31199,179.956202 451.356,179.956202 C453.008008,179.956202 454.533993,180.299199 455.934,180.985202 C457.334007,181.671206 458.509995,182.602196 459.462,183.778202 L459.462,172.438202 C459.462,171.794199 459.664998,171.276204 460.071,170.884202 C460.477002,170.4922 460.987997,170.296202 461.604,170.296202 C462.248003,170.296202 462.765998,170.4922 463.158,170.884202 C463.550002,171.276204 463.746,171.794199 463.746,172.438202 L463.746,191.590202 C463.746,193.802213 463.235005,195.790193 462.213,197.554202 C461.190995,199.318211 459.812009,200.711197 458.076,201.733202 C456.339991,202.755207 454.380011,203.266202 452.196,203.266202 Z M452.196,199.486202 C453.624007,199.486202 454.897994,199.143206 456.018,198.457202 C457.138006,197.771199 458.019997,196.826208 458.664,195.622202 C459.308003,194.418196 459.63,193.07421 459.63,191.590202 C459.63,190.078195 459.308003,188.734208 458.664,187.558202 C458.019997,186.382196 457.138006,185.451206 456.018,184.765202 C454.897994,184.079199 453.624007,183.736202 452.196,183.736202 C450.795993,183.736202 449.529006,184.079199 448.395,184.765202 C447.260994,185.451206 446.365003,186.382196 445.707,187.558202 C445.048997,188.734208 444.72,190.078195 444.72,191.590202 C444.72,193.07421 445.048997,194.418196 445.707,195.622202 C446.365003,196.826208 447.260994,197.771199 448.395,198.457202 C449.529006,199.143206 450.795993,199.486202 452.196,199.486202 Z M483.018,203.266202 C480.749989,203.266202 478.748009,202.769207 477.012,201.775202 C475.275991,200.781197 473.911005,199.409211 472.917,197.659202 C471.922995,195.909193 471.426,193.900214 471.426,191.632202 C471.426,189.336191 471.922995,187.313211 472.917,185.563202 C473.911005,183.813193 475.275991,182.441207 477.012,181.447202 C478.748009,180.453197 480.749989,179.956202 483.018,179.956202 C485.258011,179.956202 487.245991,180.453197 488.982,181.447202 C490.718009,182.441207 492.082995,183.813193 493.077,185.563202 C494.071005,187.313211 494.568,189.336191 494.568,191.632202 C494.568,193.900214 494.078005,195.909193 493.098,197.659202 C492.117995,199.409211 490.760009,200.781197 489.024,201.775202 C487.287991,202.769207 485.286011,203.266202 483.018,203.266202 Z M483.018,199.486202 C484.474007,199.486202 485.761994,199.150206 486.882,198.478202 C488.002006,197.806199 488.876997,196.882208 489.507,195.706202 C490.137003,194.530196 490.452,193.17221 490.452,191.632202 C490.452,190.092194 490.137003,188.727208 489.507,187.537202 C488.876997,186.347196 488.002006,185.416206 486.882,184.744202 C485.761994,184.072199 484.474007,183.736202 483.018,183.736202 C481.561993,183.736202 480.274006,184.072199 479.154,184.744202 C478.033994,185.416206 477.152003,186.347196 476.508,187.537202 C475.863997,188.727208 475.542,190.092194 475.542,191.632202 C475.542,193.17221 475.863997,194.530196 476.508,195.706202 C477.152003,196.882208 478.033994,197.806199 479.154,198.478202 C480.274006,199.150206 481.561993,199.486202 483.018,199.486202 Z" id="do" fill="#6DE4FF" fill-rule="nonzero"></path>
            <path d="M601.896,184.178202 C601.615999,184.178202 601.280002,184.094203 600.888,183.926202 C599.655994,183.366199 599.319997,182.484208 599.88,181.280202 L612.69,152.342202 C613.250003,151.166196 614.131994,150.8302 615.336,151.334202 C616.596006,151.866205 616.946003,152.748196 616.386,153.980202 L603.534,182.876202 C603.197998,183.744207 602.652004,184.178202 601.896,184.178202 Z M606.852,173.174202 C606.319997,173.398203 605.823002,173.419203 605.361,173.237202 C604.898998,173.055201 604.528001,172.698205 604.248,172.166202 L594.63,153.896202 C594.349999,153.3642 594.314999,152.853205 594.525,152.363202 C594.735001,151.8732 595.105997,151.516203 595.638,151.292202 C596.170003,151.068201 596.673998,151.047201 597.15,151.229202 C597.626002,151.411203 597.989999,151.7682 598.242,152.300202 L607.44,170.570202 C607.720001,171.102205 607.825,171.6132 607.755,172.103202 C607.685,172.593205 607.384003,172.950201 606.852,173.174202 Z M631.29,174.266202 C629.021989,174.266202 627.020009,173.769207 625.284,172.775202 C623.547991,171.781197 622.183005,170.409211 621.189,168.659202 C620.194995,166.909193 619.698,164.900214 619.698,162.632202 C619.698,160.336191 620.194995,158.313211 621.189,156.563202 C622.183005,154.813193 623.547991,153.441207 625.284,152.447202 C627.020009,151.453197 629.021989,150.956202 631.29,150.956202 C633.530011,150.956202 635.517991,151.453197 637.254,152.447202 C638.990009,153.441207 640.354995,154.813193 641.349,156.563202 C642.343005,158.313211 642.84,160.336191 642.84,162.632202 C642.84,164.900214 642.350005,166.909193 641.37,168.659202 C640.389995,170.409211 639.032009,171.781197 637.296,172.775202 C635.559991,173.769207 633.558011,174.266202 631.29,174.266202 Z M631.29,170.486202 C632.746007,170.486202 634.033994,170.150206 635.154,169.478202 C636.274006,168.806199 637.148997,167.882208 637.779,166.706202 C638.409003,165.530196 638.724,164.17221 638.724,162.632202 C638.724,161.092194 638.409003,159.727208 637.779,158.537202 C637.148997,157.347196 636.274006,156.416206 635.154,155.744202 C634.033994,155.072199 632.746007,154.736202 631.29,154.736202 C629.833993,154.736202 628.546006,155.072199 627.426,155.744202 C626.305994,156.416206 625.424003,157.347196 624.78,158.537202 C624.135997,159.727208 623.814,161.092194 623.814,162.632202 C623.814,164.17221 624.135997,165.530196 624.78,166.706202 C625.424003,167.882208 626.305994,168.806199 627.426,169.478202 C628.546006,170.150206 629.833993,170.486202 631.29,170.486202 Z M660.18,174.308202 C658.24799,174.308202 656.519008,173.895206 654.993,173.069202 C653.466992,172.243198 652.263004,171.03221 651.381,169.436202 C650.498996,167.840194 650.058,165.880214 650.058,163.556202 L650.058,153.224202 C650.058,152.608199 650.260998,152.097204 650.667,151.691202 C651.073002,151.2852 651.583997,151.082202 652.2,151.082202 C652.816003,151.082202 653.326998,151.2852 653.733,151.691202 C654.139002,152.097204 654.342,152.608199 654.342,153.224202 L654.342,163.556202 C654.342,165.12421 654.635997,166.419197 655.224,167.441202 C655.812003,168.463207 656.609995,169.2192 657.618,169.709202 C658.626005,170.199205 659.759994,170.444202 661.02,170.444202 C662.224006,170.444202 663.294995,170.206205 664.233,169.730202 C665.171005,169.2542 665.919997,168.610206 666.48,167.798202 C667.040003,166.986198 667.32,166.076207 667.32,165.068202 L669.966,165.068202 C669.966,166.804211 669.539004,168.372195 668.685,169.772202 C667.830996,171.172209 666.669007,172.278198 665.199,173.090202 C663.728993,173.902206 662.056009,174.308202 660.18,174.308202 Z M669.462,174.098202 C668.845997,174.098202 668.335002,173.895204 667.929,173.489202 C667.522998,173.0832 667.32,172.572205 667.32,171.956202 L667.32,153.224202 C667.32,152.580199 667.522998,152.062204 667.929,151.670202 C668.335002,151.2782 668.845997,151.082202 669.462,151.082202 C670.106003,151.082202 670.623998,151.2782 671.016,151.670202 C671.408002,152.062204 671.604,152.580199 671.604,153.224202 L671.604,171.956202 C671.604,172.572205 671.408002,173.0832 671.016,173.489202 C670.623998,173.895204 670.106003,174.098202 669.462,174.098202 Z" id="you" fill="#6DE4FF" fill-rule="nonzero"></path>
            <path d="M238.24,324.098202 C237.007994,324.098202 235.916005,323.762206 234.964,323.090202 C234.011995,322.418199 233.270003,321.501208 232.738,320.339202 C232.205997,319.177196 231.94,317.84021 231.94,316.328202 L231.94,293.396202 C231.94,292.780199 232.135998,292.276204 232.528,291.884202 C232.920002,291.4922 233.423997,291.296202 234.04,291.296202 C234.656003,291.296202 235.159998,291.4922 235.552,291.884202 C235.944002,292.276204 236.14,292.780199 236.14,293.396202 L236.14,316.328202 C236.14,317.364207 236.335998,318.218199 236.728,318.890202 C237.120002,319.562206 237.623997,319.898202 238.24,319.898202 L239.29,319.898202 C239.850003,319.898202 240.304998,320.0942 240.655,320.486202 C241.005002,320.878204 241.18,321.382199 241.18,321.998202 C241.18,322.614205 240.914003,323.1182 240.382,323.510202 C239.849997,323.902204 239.164004,324.098202 238.324,324.098202 L238.24,324.098202 Z M255.832,324.266202 C253.563989,324.266202 251.562009,323.769207 249.826,322.775202 C248.089991,321.781197 246.725005,320.409211 245.731,318.659202 C244.736995,316.909193 244.24,314.900214 244.24,312.632202 C244.24,310.336191 244.736995,308.313211 245.731,306.563202 C246.725005,304.813193 248.089991,303.441207 249.826,302.447202 C251.562009,301.453197 253.563989,300.956202 255.832,300.956202 C258.072011,300.956202 260.059991,301.453197 261.796,302.447202 C263.532009,303.441207 264.896995,304.813193 265.891,306.563202 C266.885005,308.313211 267.382,310.336191 267.382,312.632202 C267.382,314.900214 266.892005,316.909193 265.912,318.659202 C264.931995,320.409211 263.574009,321.781197 261.838,322.775202 C260.101991,323.769207 258.100011,324.266202 255.832,324.266202 Z M255.832,320.486202 C257.288007,320.486202 258.575994,320.150206 259.696,319.478202 C260.816006,318.806199 261.690997,317.882208 262.321,316.706202 C262.951003,315.530196 263.266,314.17221 263.266,312.632202 C263.266,311.092194 262.951003,309.727208 262.321,308.537202 C261.690997,307.347196 260.816006,306.416206 259.696,305.744202 C258.575994,305.072199 257.288007,304.736202 255.832,304.736202 C254.375993,304.736202 253.088006,305.072199 251.968,305.744202 C250.847994,306.416206 249.966003,307.347196 249.322,308.537202 C248.677997,309.727208 248.356,311.092194 248.356,312.632202 C248.356,314.17221 248.677997,315.530196 249.322,316.706202 C249.966003,317.882208 250.847994,318.806199 251.968,319.478202 C253.088006,320.150206 254.375993,320.486202 255.832,320.486202 Z M281.524883,318.007349 L288.754,302.258202 C289.006001,301.7822 289.390997,301.460203 289.909,301.292202 C290.427003,301.124201 290.951997,301.166201 291.484,301.418202 C291.988003,301.642203 292.323999,301.9922 292.492,302.468202 C292.660001,302.944205 292.632001,303.4202 292.408,303.896202 L283.504,322.670202 C283.083998,323.594207 282.440004,324.056202 281.572,324.056202 C280.703996,324.056202 280.032002,323.594207 279.556,322.670202 L270.652,303.896202 C270.427999,303.4202 270.406999,302.951204 270.589,302.489202 C270.771001,302.0272 271.127997,301.670203 271.66,301.418202 C272.136002,301.166201 272.618998,301.124201 273.109,301.292202 C273.599002,301.460203 273.969999,301.7822 274.222,302.258202 L281.524883,318.007349 L281.524883,318.007349 Z M300.039768,310.742202 L314.02871,310.742202 C313.905287,309.806839 313.654385,308.945844 313.276,308.159202 C312.743997,307.053197 311.988005,306.178205 311.008,305.534202 C310.027995,304.890199 308.838007,304.568202 307.438,304.568202 C305.841992,304.568202 304.477006,304.918199 303.343,305.618202 C302.208994,306.318206 301.348003,307.277196 300.76,308.495202 C300.423818,309.191578 300.183742,309.940576 300.039768,310.742202 L300.039768,310.742202 Z M299.99239,314.102202 C300.147175,315.059602 300.459044,315.941598 300.928,316.748202 C301.628003,317.952208 302.593994,318.904199 303.826,319.604202 C305.058006,320.304206 306.471992,320.654202 308.068,320.654202 C308.936004,320.654202 309.824995,320.493204 310.735,320.171202 C311.645005,319.849201 312.379997,319.478204 312.94,319.058202 C313.360002,318.750201 313.814998,318.589202 314.305,318.575202 C314.795002,318.561202 315.221998,318.708201 315.586,319.016202 C316.062002,319.436204 316.314,319.8982 316.342,320.402202 C316.37,320.906205 316.146002,321.3402 315.67,321.704202 C314.717995,322.460206 313.535007,323.0762 312.121,323.552202 C310.706993,324.028205 309.356006,324.266202 308.068,324.266202 C305.743988,324.266202 303.679009,323.769207 301.873,322.775202 C300.066991,321.781197 298.653005,320.409211 297.631,318.659202 C296.608995,316.909193 296.098,314.900214 296.098,312.632202 C296.098,310.336191 296.580995,308.313211 297.547,306.563202 C298.513005,304.813193 299.849991,303.441207 301.558,302.447202 C303.266009,301.453197 305.225989,300.956202 307.438,300.956202 C309.622011,300.956202 311.497992,301.439197 313.066,302.405202 C314.634008,303.371207 315.830996,304.701194 316.657,306.395202 C317.483004,308.089211 317.896,310.042191 317.896,312.254202 C317.896,312.786205 317.714002,313.2272 317.35,313.577202 C316.985998,313.927204 316.524003,314.102202 315.964,314.102202 L299.99239,314.102202 L299.99239,314.102202 Z" id="love" fill="#6DE4FF" fill-rule="nonzero"></path>
            <path d="M624.796,331.108202 C624.003996,331.108202 623.347003,330.847205 622.825,330.325202 C622.302997,329.8032 622.042,329.146206 622.042,328.354202 C622.042,326.950195 622.401996,325.411211 623.122,323.737202 C623.842004,322.063194 624.957992,320.578209 626.47,319.282202 C627.478005,318.418198 628.404996,317.563206 629.251,316.717202 C630.097004,315.871198 630.780997,314.899208 631.303,313.801202 C631.825003,312.703197 632.086,311.36221 632.086,309.778202 C632.086,308.626196 631.816003,307.546207 631.276,306.538202 C630.735997,305.530197 629.971005,304.711205 628.981,304.081202 C627.990995,303.451199 626.776007,303.136202 625.336,303.136202 C623.571991,303.136202 622.114006,303.460199 620.962,304.108202 C619.809994,304.756205 618.955003,305.656196 618.397,306.808202 C617.838997,307.960208 617.56,309.310194 617.56,310.858202 C617.56,311.650206 617.308003,312.3072 616.804,312.829202 C616.299997,313.351205 615.634004,313.612202 614.806,313.612202 C614.013996,313.612202 613.357003,313.351205 612.835,312.829202 C612.312997,312.3072 612.052,311.650206 612.052,310.858202 C612.052,308.33819 612.600995,306.124212 613.699,304.216202 C614.797005,302.308193 616.34499,300.805208 618.343,299.707202 C620.34101,298.609197 622.671987,298.060202 625.336,298.060202 C627.676012,298.060202 629.754991,298.555197 631.573,299.545202 C633.391009,300.535207 634.830995,301.903193 635.893,303.649202 C636.955005,305.395211 637.486,307.43819 637.486,309.778202 C637.486,311.794212 637.162003,313.540195 636.514,315.016202 C635.865997,316.49221 634.984006,317.815196 633.868,318.985202 C632.751994,320.155208 631.474007,321.316196 630.034,322.468202 C629.097995,323.224206 628.450002,324.205196 628.09,325.411202 C627.729998,326.617208 627.55,327.598198 627.55,328.354202 C627.55,329.146206 627.298003,329.8032 626.794,330.325202 C626.289997,330.847205 625.624004,331.108202 624.796,331.108202 Z M624.796,341.098202 C623.787995,341.098202 622.915004,340.729206 622.177,339.991202 C621.438996,339.253198 621.07,338.380207 621.07,337.372202 C621.07,336.328197 621.438996,335.437206 622.177,334.699202 C622.915004,333.961198 623.787995,333.592202 624.796,333.592202 C625.840005,333.592202 626.730996,333.961198 627.469,334.699202 C628.207004,335.437206 628.576,336.328197 628.576,337.372202 C628.576,338.380207 628.207004,339.253198 627.469,339.991202 C626.730996,340.729206 625.840005,341.098202 624.796,341.098202 Z" id="?" fill="#6DE4FF" fill-rule="nonzero"></path>
            <path d="M633.426,493.108202 C632.633996,493.108202 631.977003,492.829205 631.455,492.271202 C630.932997,491.713199 630.672,491.074206 630.672,490.354202 L630.672,463.732202 C630.672,462.940198 630.932997,462.274205 631.455,461.734202 C631.977003,461.194199 632.633996,460.924202 633.426,460.924202 C634.218004,460.924202 634.874997,461.194199 635.397,461.734202 C635.919003,462.274205 636.18,462.940198 636.18,463.732202 L636.18,490.354202 C636.18,491.110206 635.901003,491.758199 635.343,492.298202 C634.784997,492.838205 634.146004,493.108202 633.426,493.108202 Z M633.426,503.098202 C632.417995,503.098202 631.545004,502.738206 630.807,502.018202 C630.068996,501.298199 629.7,500.416207 629.7,499.372202 C629.7,498.328197 630.068996,497.437206 630.807,496.699202 C631.545004,495.961198 632.417995,495.592202 633.426,495.592202 C634.470005,495.592202 635.351996,495.961198 636.072,496.699202 C636.792004,497.437206 637.152,498.328197 637.152,499.372202 C637.152,500.416207 636.783004,501.298199 636.045,502.018202 C635.306996,502.738206 634.434005,503.098202 633.426,503.098202 Z" id="!" fill="#6DE4FF" fill-rule="nonzero"></path>
            <path d="M414.138,482.098202 C412.737993,482.098202 411.478006,481.741206 410.358,481.027202 C409.237994,480.313199 408.356003,479.340208 407.712,478.108202 C407.067997,476.876196 406.746,475.49021 406.746,473.950202 L406.746,453.916202 C406.746,453.300199 406.941998,452.796204 407.334,452.404202 C407.726002,452.0122 408.229997,451.816202 408.846,451.816202 C409.462003,451.816202 409.965998,452.0122 410.358,452.404202 C410.750002,452.796204 410.946,453.300199 410.946,453.916202 L410.946,473.950202 C410.946,475.070208 411.253997,476.008198 411.87,476.764202 C412.486003,477.520206 413.241996,477.898202 414.138,477.898202 L415.566,477.898202 C416.070003,477.898202 416.496998,478.0942 416.847,478.486202 C417.197002,478.878204 417.372,479.382199 417.372,479.998202 C417.372,480.614205 417.141002,481.1182 416.679,481.510202 C416.216998,481.902204 415.622004,482.098202 414.894,482.098202 L414.138,482.098202 Z M404.814,463.576202 C404.225997,463.576202 403.750002,463.408204 403.386,463.072202 C403.021998,462.736201 402.84,462.316205 402.84,461.812202 C402.84,461.252199 403.021998,460.804204 403.386,460.468202 C403.750002,460.132201 404.225997,459.964202 404.814,459.964202 L414.516,459.964202 C415.104003,459.964202 415.579998,460.132201 415.944,460.468202 C416.308002,460.804204 416.49,461.252199 416.49,461.812202 C416.49,462.316205 416.308002,462.736201 415.944,463.072202 C415.579998,463.408204 415.104003,463.576202 414.516,463.576202 L404.814,463.576202 Z M433.038,482.266202 C430.769989,482.266202 428.768009,481.769207 427.032,480.775202 C425.295991,479.781197 423.931005,478.409211 422.937,476.659202 C421.942995,474.909193 421.446,472.900214 421.446,470.632202 C421.446,468.336191 421.942995,466.313211 422.937,464.563202 C423.931005,462.813193 425.295991,461.441207 427.032,460.447202 C428.768009,459.453197 430.769989,458.956202 433.038,458.956202 C435.278011,458.956202 437.265991,459.453197 439.002,460.447202 C440.738009,461.441207 442.102995,462.813193 443.097,464.563202 C444.091005,466.313211 444.588,468.336191 444.588,470.632202 C444.588,472.900214 444.098005,474.909193 443.118,476.659202 C442.137995,478.409211 440.780009,479.781197 439.044,480.775202 C437.307991,481.769207 435.306011,482.266202 433.038,482.266202 Z M433.038,478.486202 C434.494007,478.486202 435.781994,478.150206 436.902,477.478202 C438.022006,476.806199 438.896997,475.882208 439.527,474.706202 C440.157003,473.530196 440.472,472.17221 440.472,470.632202 C440.472,469.092194 440.157003,467.727208 439.527,466.537202 C438.896997,465.347196 438.022006,464.416206 436.902,463.744202 C435.781994,463.072199 434.494007,462.736202 433.038,462.736202 C431.581993,462.736202 430.294006,463.072199 429.174,463.744202 C428.053994,464.416206 427.172003,465.347196 426.528,466.537202 C425.883997,467.727208 425.562,469.092194 425.562,470.632202 C425.562,472.17221 425.883997,473.530196 426.528,474.706202 C427.172003,475.882208 428.053994,476.806199 429.174,477.478202 C430.294006,478.150206 431.581993,478.486202 433.038,478.486202 Z M461.388,482.266202 C459.119989,482.266202 457.118009,481.769207 455.382,480.775202 C453.645991,479.781197 452.281005,478.409211 451.287,476.659202 C450.292995,474.909193 449.796,472.900214 449.796,470.632202 C449.796,468.336191 450.292995,466.313211 451.287,464.563202 C452.281005,462.813193 453.645991,461.441207 455.382,460.447202 C457.118009,459.453197 459.119989,458.956202 461.388,458.956202 C463.628011,458.956202 465.615991,459.453197 467.352,460.447202 C469.088009,461.441207 470.452995,462.813193 471.447,464.563202 C472.441005,466.313211 472.938,468.336191 472.938,470.632202 C472.938,472.900214 472.448005,474.909193 471.468,476.659202 C470.487995,478.409211 469.130009,479.781197 467.394,480.775202 C465.657991,481.769207 463.656011,482.266202 461.388,482.266202 Z M461.388,478.486202 C462.844007,478.486202 464.131994,478.150206 465.252,477.478202 C466.372006,476.806199 467.246997,475.882208 467.877,474.706202 C468.507003,473.530196 468.822,472.17221 468.822,470.632202 C468.822,469.092194 468.507003,467.727208 467.877,466.537202 C467.246997,465.347196 466.372006,464.416206 465.252,463.744202 C464.131994,463.072199 462.844007,462.736202 461.388,462.736202 C459.931993,462.736202 458.644006,463.072199 457.524,463.744202 C456.403994,464.416206 455.522003,465.347196 454.878,466.537202 C454.233997,467.727208 453.912,469.092194 453.912,470.632202 C453.912,472.17221 454.233997,473.530196 454.878,474.706202 C455.522003,475.882208 456.403994,476.806199 457.524,477.478202 C458.644006,478.150206 459.931993,478.486202 461.388,478.486202 Z" id="too" fill="#6DE4FF" fill-rule="nonzero"></path>
            <path d="M258.781301,472.442629 L270.928,447.472202 C271.376002,446.688198 272.019996,446.296202 272.86,446.296202 C273.476003,446.296202 273.993998,446.4992 274.414,446.905202 C274.834002,447.311204 275.044,447.836199 275.044,448.480202 L275.044,476.914202 C275.044,477.530205 274.827002,478.0482 274.393,478.468202 C273.958998,478.888204 273.448003,479.098202 272.86,479.098202 C272.243997,479.098202 271.726002,478.888204 271.306,478.468202 C270.885998,478.0482 270.676,477.530205 270.676,476.914202 L270.676,456.030263 L260.512,476.746202 C260.035998,477.474206 259.406004,477.838202 258.622,477.838202 C257.697995,477.838202 257.026002,477.404207 256.606,476.536202 L246.568,456.421445 L246.568,476.914202 C246.568,477.530205 246.358002,478.0482 245.938,478.468202 C245.517998,478.888204 245.000003,479.098202 244.384,479.098202 C243.767997,479.098202 243.250002,478.888204 242.83,478.468202 C242.409998,478.0482 242.2,477.530205 242.2,476.914202 L242.2,448.480202 C242.2,447.836199 242.409998,447.311204 242.83,446.905202 C243.250002,446.4992 243.767997,446.296202 244.384,446.296202 C245.224004,446.296202 245.867998,446.688198 246.316,447.472202 L258.781301,472.442629 L258.781301,472.442629 Z M287.085767,465.742202 L301.074709,465.742202 C300.951286,464.806839 300.700384,463.945844 300.321999,463.159202 C299.789996,462.053197 299.034004,461.178205 298.053999,460.534202 C297.073994,459.890199 295.884006,459.568202 294.483999,459.568202 C292.887991,459.568202 291.523005,459.918199 290.388999,460.618202 C289.254993,461.318206 288.394002,462.277196 287.805999,463.495202 C287.469817,464.191578 287.229741,464.940576 287.085767,465.742202 L287.085767,465.742202 Z M287.038389,469.102202 C287.193174,470.059602 287.505043,470.941598 287.973999,471.748202 C288.674003,472.952208 289.639993,473.904199 290.871999,474.604202 C292.104005,475.304206 293.517991,475.654202 295.113999,475.654202 C295.982003,475.654202 296.870994,475.493204 297.780999,475.171202 C298.691004,474.849201 299.425996,474.478204 299.985999,474.058202 C300.406001,473.750201 300.860997,473.589202 301.350999,473.575202 C301.841001,473.561202 302.267997,473.708201 302.631999,474.016202 C303.108001,474.436204 303.359999,474.8982 303.387999,475.402202 C303.415999,475.906205 303.192001,476.3402 302.715999,476.704202 C301.763994,477.460206 300.581006,478.0762 299.166999,478.552202 C297.752992,479.028205 296.402005,479.266202 295.113999,479.266202 C292.789987,479.266202 290.725008,478.769207 288.918999,477.775202 C287.11299,476.781197 285.699004,475.409211 284.676999,473.659202 C283.654994,471.909193 283.143999,469.900214 283.143999,467.632202 C283.143999,465.336191 283.626994,463.313211 284.592999,461.563202 C285.559004,459.813193 286.89599,458.441207 288.603999,457.447202 C290.312008,456.453197 292.271988,455.956202 294.483999,455.956202 C296.66801,455.956202 298.543991,456.439197 300.111999,457.405202 C301.680007,458.371207 302.876995,459.701194 303.702999,461.395202 C304.529003,463.089211 304.941999,465.042191 304.941999,467.254202 C304.941999,467.786205 304.760001,468.2272 304.395999,468.577202 C304.031997,468.927204 303.570002,469.102202 303.009999,469.102202 L287.038389,469.102202 L287.038389,469.102202 Z" id="Me" fill="#6DE4FF" fill-rule="nonzero"></path>
        </g>
    </g>
</svg>