<?xml version="1.0" encoding="UTF-8"?>
<svg width="1279px" height="700px" viewBox="0 0 1279 700" version="1.1" xmlns="http://www.w3.org/2000/svg" xmlns:xlink="http://www.w3.org/1999/xlink">
    <!-- Generator: Sketch 53.2 (72643) - https://sketchapp.com -->
    <title>1</title>
    <desc>Created with Sketch.</desc>
    <defs>
        <linearGradient x1="50%" y1="100%" x2="50%" y2="5.02887235%" id="linearGradient-1">
            <stop stop-color="#245FAB" offset="0%"></stop>
            <stop stop-color="#142E50" offset="99.9604096%"></stop>
        </linearGradient>
        <radialGradient cx="50%" cy="0%" fx="50%" fy="0%" r="87.5554684%" gradientTransform="translate(0.500000,0.000000),scale(0.509773,1.000000),rotate(90.000000),scale(1.000000,0.963428),translate(-0.500000,-0.000000)" id="radialGradient-2">
            <stop stop-color="#D2F9FF" offset="0%"></stop>
            <stop stop-color="#AAF3FF" stop-opacity="0.569301792" offset="58.2163218%"></stop>
            <stop stop-color="#FFFFFF" stop-opacity="0" offset="100%"></stop>
        </radialGradient>
        <radialGradient cx="50%" cy="0%" fx="50%" fy="0%" r="87.5554684%" gradientTransform="translate(0.500000,0.000000),scale(0.509773,1.000000),rotate(90.000000),scale(1.000000,0.963428),translate(-0.500000,-0.000000)" id="radialGradient-3">
            <stop stop-color="#FFFFFF" offset="0%"></stop>
            <stop stop-color="#AAF3FF" stop-opacity="0.569301792" offset="0%"></stop>
            <stop stop-color="#FFFFFF" stop-opacity="0" offset="100%"></stop>
        </radialGradient>
    </defs>
    <g id="Page-2" stroke="none" stroke-width="1" fill="none" fill-rule="evenodd">
        <g id="1" transform="translate(0.000000, -1.000000)">
            <rect id="Rectangle-Copy-11" fill="url(#linearGradient-1)" transform="translate(639.500000, 351.000000) scale(-1, 1) translate(-639.500000, -351.000000) " x="0" y="1" width="1279" height="700"></rect>
            <polygon id="Triangle-Copy" fill="url(#radialGradient-2)" opacity="0.504879" transform="translate(640.500000, 326.000000) scale(-1, -1) translate(-640.500000, -326.000000) " points="640.5 0 1280 348.743803 1280 652 1 652 1 348.743803"></polygon>
            <polygon id="Triangle-Copy-3" fill="url(#radialGradient-3)" opacity="0.504879" transform="translate(640.500000, 326.000000) scale(-1, -1) translate(-640.500000, -326.000000) " points="640.5 0 1280 348.743803 1280 652 1 652 1 348.743803"></polygon>
            <path d="M677.847846,598.26168 C671.377692,597.334249 672.071205,595.202966 674.705371,593.772001 C676.350553,592.878285 678.935941,591.796691 674.710417,589.867371 C669.445097,587.463294 668.017908,584.289954 668.0001,580.519844 C667.960731,572.184774 679.497185,565.766454 693.250543,566.00652 C707.0039,566.246585 717.968738,572.336927 718.000468,580.671931 C718.052764,594.409119 691.306061,600.190777 677.847846,598.26168 Z M683.676101,583.029807 C683.580101,583.093807 683.422102,583.157807 683.202101,583.221807 C682.9821,583.285807 682.748103,583.317807 682.500101,583.317807 C681.972099,583.317807 681.464104,583.141809 680.976101,582.789807 C680.7281,582.605806 680.524102,582.353809 680.364101,582.033807 C680.204101,581.713805 680.124101,581.351809 680.124101,580.947807 C680.124101,580.543805 680.204101,580.181809 680.364101,579.861807 C680.524102,579.541805 680.7241,579.293808 680.964101,579.117807 C681.468104,578.757805 681.980099,578.577807 682.500101,578.577807 C683.060104,578.577807 683.5081,578.713806 683.844101,578.985807 C684.108103,579.161808 684.312101,579.249807 684.456101,579.249807 C684.704103,579.249807 684.9841,579.033809 685.296101,578.601807 C685.464102,578.369806 685.548101,578.147808 685.548101,577.935807 C685.548101,577.723806 685.444102,577.533808 685.236101,577.365807 C685.156101,577.309807 685.044102,577.237807 684.900101,577.149807 L684.612101,576.981807 C684.4121,576.861806 684.118103,576.743808 683.730101,576.627807 C683.342099,576.511806 682.960103,576.453807 682.584101,576.453807 C681.792097,576.453807 681.004105,576.669805 680.220101,577.101807 C679.804099,577.325808 679.434103,577.603805 679.110101,577.935807 C678.7861,578.267809 678.520102,578.687805 678.312101,579.195807 C678.1041,579.70381 678.000101,580.269804 678.000101,580.893807 C678.000101,581.51781 678.1061,582.095804 678.318101,582.627807 C678.530102,583.15981 678.8001,583.595805 679.128101,583.935807 C679.456103,584.275809 679.826099,584.563806 680.238101,584.799807 C680.650103,585.035808 681.050099,585.203807 681.438101,585.303807 C681.826103,585.403808 682.210099,585.453807 682.590101,585.453807 C682.970103,585.453807 683.364099,585.389808 683.772101,585.261807 C684.180103,585.133806 684.450101,585.029807 684.582101,584.949807 C684.714102,584.869807 684.852101,584.785807 684.996101,584.697807 C685.140102,584.609807 685.266101,584.509808 685.374101,584.397807 C685.482102,584.285806 685.536101,584.145808 685.536101,583.977807 C685.536101,583.809806 685.448102,583.585808 685.272101,583.305807 C684.9841,582.857805 684.716103,582.633807 684.468101,582.633807 C684.356101,582.633807 684.164103,582.713806 683.892101,582.873807 L683.676101,583.029807 Z M686.258101,582.177807 C686.258101,582.81781 686.4281,583.391805 686.768101,583.899807 C687.108103,584.40781 687.526099,584.791806 688.022101,585.051807 C688.518104,585.311808 689.030099,585.441807 689.558101,585.441807 C690.086104,585.441807 690.596099,585.319808 691.088101,585.075807 C691.580104,584.831806 691.9981,584.45181 692.342101,583.935807 C692.686103,583.419804 692.858101,582.82981 692.858101,582.165807 C692.858101,581.205802 692.526105,580.41581 691.862101,579.795807 C691.198098,579.175804 690.434106,578.865807 689.570101,578.865807 C688.706097,578.865807 687.938105,579.177804 687.266101,579.801807 C686.594098,580.42581 686.258101,581.217802 686.258101,582.177807 Z M688.766101,583.041807 C688.5101,582.841806 688.382101,582.547809 688.382101,582.159807 C688.382101,581.771805 688.5061,581.477808 688.754101,581.277807 C689.002103,581.077806 689.2701,580.977807 689.558101,580.977807 C689.846103,580.977807 690.1141,581.073806 690.362101,581.265807 C690.610103,581.457808 690.734101,581.749805 690.734101,582.141807 C690.734101,582.533809 690.602103,582.829806 690.338101,583.029807 C690.0741,583.229808 689.810103,583.329807 689.546101,583.329807 C689.2821,583.329807 689.022103,583.233808 688.766101,583.041807 Z M693.568101,582.177807 C693.568101,582.81781 693.7381,583.391805 694.078101,583.899807 C694.418103,584.40781 694.836099,584.791806 695.332101,585.051807 C695.828104,585.311808 696.340099,585.441807 696.868101,585.441807 C697.396104,585.441807 697.906099,585.319808 698.398101,585.075807 C698.890104,584.831806 699.3081,584.45181 699.652101,583.935807 C699.996103,583.419804 700.168101,582.82981 700.168101,582.165807 C700.168101,581.205802 699.836105,580.41581 699.172101,579.795807 C698.508098,579.175804 697.744106,578.865807 696.880101,578.865807 C696.016097,578.865807 695.248105,579.177804 694.576101,579.801807 C693.904098,580.42581 693.568101,581.217802 693.568101,582.177807 Z M696.076101,583.041807 C695.8201,582.841806 695.692101,582.547809 695.692101,582.159807 C695.692101,581.771805 695.8161,581.477808 696.064101,581.277807 C696.312103,581.077806 696.5801,580.977807 696.868101,580.977807 C697.156103,580.977807 697.4241,581.073806 697.672101,581.265807 C697.920103,581.457808 698.044101,581.749805 698.044101,582.141807 C698.044101,582.533809 697.912103,582.829806 697.648101,583.029807 C697.3841,583.229808 697.120103,583.329807 696.856101,583.329807 C696.5921,583.329807 696.332103,583.233808 696.076101,583.041807 Z M701.058101,577.089807 L701.058101,582.801807 C701.058101,583.657811 701.1701,584.281805 701.394101,584.673807 C701.578102,585.001809 701.978098,585.205807 702.594101,585.285807 C703.378105,585.381808 703.8741,585.357808 704.082101,585.213807 C704.242102,585.101806 704.322101,584.79381 704.322101,584.289807 C704.322101,583.825805 704.242102,583.541808 704.082101,583.437807 C704.002101,583.381807 703.934102,583.347807 703.878101,583.335807 C703.822101,583.323807 703.712102,583.317807 703.548101,583.317807 C703.384101,583.317807 703.278102,583.279807 703.230101,583.203807 C703.182101,583.127807 703.158101,582.945808 703.158101,582.657807 L703.158101,577.101807 C703.158101,576.917806 703.152101,576.777808 703.140101,576.681807 C703.128101,576.585807 703.090102,576.477808 703.026101,576.357807 C702.906101,576.141806 702.602104,576.033807 702.114101,576.033807 C701.602099,576.033807 701.290102,576.141806 701.178101,576.357807 C701.122101,576.477808 701.088101,576.583807 701.076101,576.675807 C701.064101,576.767808 701.058101,576.905806 701.058101,577.089807 Z M705.212101,583.509807 C705.132101,583.661808 705.092101,583.893805 705.092101,584.205807 C705.092101,584.653809 705.170101,584.955806 705.326101,585.111807 C705.482102,585.267808 705.802099,585.345807 706.286101,585.345807 C706.770104,585.345807 707.076101,585.229808 707.204101,584.997807 C707.268102,584.869806 707.306101,584.759808 707.318101,584.667807 C707.330101,584.575807 707.336101,584.433808 707.336101,584.241807 L707.336101,584.049807 C707.336101,583.721805 707.258102,583.481808 707.102101,583.329807 C706.946101,583.177806 706.694103,583.101807 706.346101,583.101807 C705.9981,583.101807 705.742102,583.129807 705.578101,583.185807 C705.414101,583.241807 705.292102,583.349806 705.212101,583.509807 Z M706.820101,582.105807 C706.972102,582.065807 707.080101,581.995808 707.144101,581.895807 C707.208102,581.795807 707.246101,581.705807 707.258101,581.625807 C707.270101,581.545807 707.276101,581.421808 707.276101,581.253807 L707.276101,577.449807 C707.276101,577.281806 707.270101,577.155807 707.258101,577.071807 C707.246101,576.987807 707.210102,576.891808 707.150101,576.783807 C707.090101,576.675807 706.984102,576.599807 706.832101,576.555807 C706.680101,576.511807 706.476103,576.489807 706.220101,576.489807 C705.9641,576.489807 705.760102,576.511807 705.608101,576.555807 C705.456101,576.599807 705.348102,576.673807 705.284101,576.777807 C705.220101,576.881808 705.182101,576.975807 705.170101,577.059807 C705.158101,577.143807 705.152101,577.269806 705.152101,577.437807 L705.152101,581.241807 C705.152101,581.409808 705.158101,581.533807 705.170101,581.613807 C705.182101,581.693807 705.218101,581.785807 705.278101,581.889807 C705.338102,581.993808 705.444101,582.065807 705.596101,582.105807 C705.748102,582.145807 705.9521,582.165807 706.208101,582.165807 C706.464103,582.165807 706.668101,582.145807 706.820101,582.105807 Z" id="Combined-Shape" fill="#D7F7FF" opacity="0.703357515"></path>
            <path d="M630.946347,615 C630.946347,615 630.946347,615 630.946347,615 C630.946347,617.901459 633.964231,621.299584 640,625.194377 C647.297565,621.267878 650.946347,617.869752 650.946347,615 C650.946347,615 650.946347,615 650.946347,615 L650.946347,615 C667.036281,615 680.079749,628.043468 680.079749,644.133402 C680.079749,644.899343 680.049543,645.664986 679.989202,646.428547 L675.676631,701 L611.348556,701 L603.371015,646.943478 C601.123502,631.714043 611.647429,617.546177 626.876864,615.298663 C628.22424,615.099822 629.584378,615 630.946347,615 Z" id="Rectangle" fill="#2B547E"></path>
            <path d="M677.387141,631.884032 L640.5,652 L605.011373,632.646695 C608.555612,623.683524 616.656675,616.806928 626.876864,615.298663 C628.22424,615.099822 629.584378,615 630.946347,615 C630.946347,617.901459 633.964231,621.299584 640,625.194377 C647.297565,621.267878 650.946347,617.869752 650.946347,615 C662.660865,615 672.760516,621.914064 677.387141,631.884032 Z" id="Combined-Shape" fill="#9BECFF"></path>
            <path d="M597.126181,638.940618 C597.978514,639.497341 598.220974,640.63804 597.668763,641.493303 L590.325765,652.866121 C589.777311,653.715565 588.644091,653.959566 587.794647,653.411112 C587.791938,653.409363 587.789233,653.407607 587.786534,653.405843 C586.9342,652.849121 586.691741,651.708421 587.243952,650.853158 L594.586949,639.480341 C595.135403,638.630896 596.268623,638.386896 597.118067,638.93535 C597.120777,638.937099 597.123481,638.938855 597.126181,638.940618 Z M636.767626,646.948311 C636.770304,646.946131 636.772988,646.943957 636.775678,646.941791 C637.563418,646.307571 638.716146,646.432023 639.350366,647.219764 L647.83241,657.754978 C648.471283,658.548497 648.349309,659.709019 647.559417,660.352372 C647.556739,660.354553 647.554056,660.356726 647.551366,660.358892 C646.763625,660.993113 645.610898,660.86866 644.976677,660.08092 L636.494634,649.545706 C635.85576,648.752186 635.977734,647.591664 636.767626,646.948311 Z" id="Combined-Shape" fill="#5792E2"></path>
            <path d="M604.772363,629.298708 L636.949303,625.274409 C639.141365,625.000253 641.140629,626.555022 641.414785,628.747084 C641.453579,629.057265 641.455879,629.370924 641.421637,629.681641 L636.068756,678.255214 C635.865935,680.095661 634.426504,681.556355 632.589229,681.786139 L600.412289,685.810438 C598.220227,686.084594 596.220963,684.529825 595.946807,682.337763 C595.908013,682.027582 595.905713,681.713923 595.939955,681.403206 L601.292837,632.829633 C601.495657,630.989186 602.935088,629.528492 604.772363,629.298708 Z" id="Rectangle" fill="#FFFFFF" transform="translate(618.680796, 655.542424) scale(-1, 1) rotate(9.000000) translate(-618.680796, -655.542424) "></path>
            <path d="M597.968372,647.010026 C598.216413,647.294283 598.470131,647.593441 598.729523,647.9075 L610.175992,639.591154 C611.078976,638.935097 612.342829,639.135272 612.998886,640.038256 C613.654942,640.94124 613.454768,642.205093 612.551783,642.86115 L601.198151,651.110046 C601.213386,651.130976 601.228636,651.151947 601.243901,651.172957 C601.463437,651.475122 601.668572,651.777527 601.859306,652.080172 L611.597046,645.00529 C612.500031,644.349233 613.763883,644.549408 614.41994,645.452392 C615.075996,646.355377 614.875822,647.619229 613.972837,648.275286 L603.496087,655.88709 C603.595778,656.318672 603.666567,656.750735 603.708456,657.183279 L611.583668,651.461602 C612.282752,650.953688 613.261219,651.108661 613.769134,651.807746 C614.277048,652.506831 614.122074,653.485297 613.42299,653.993212 L603.19926,661.421186 C603.196072,661.430687 603.19287,661.440188 603.189654,661.44969 L600.00401,663.764195 C595.803332,666.816166 589.924716,665.890656 586.864983,661.695629 C583.812554,657.510617 584.730694,651.643512 588.915706,648.591083 C588.920377,648.587676 588.925051,648.584274 588.929728,648.580876 L589.116388,648.445259 L605.367992,636.637778 C606.270976,635.981721 607.534829,636.181896 608.190885,637.08488 C608.846942,637.987865 608.646767,639.251717 607.743783,639.907774 L597.968372,647.010026 Z M636.880503,655.393114 L626.174682,648.171946 C625.208697,647.520381 624.953809,646.209098 625.605375,645.243112 C626.25694,644.277127 627.568223,644.02224 628.534209,644.673805 L646.34463,656.687086 L646.678265,656.912125 C646.683369,656.915568 646.688471,656.919017 646.69357,656.922469 C651.170717,659.95465 652.342094,666.042162 649.309914,670.519309 C646.27033,675.007388 640.170838,676.187039 635.677032,673.155928 L632.034302,670.698876 C632.030456,670.688983 632.026625,670.67909 632.022809,670.669197 L620.835668,663.123375 C620.087808,662.618937 619.890476,661.60375 620.394914,660.855891 C620.899351,660.108031 621.914538,659.910699 622.662398,660.415136 L631.286043,666.231859 C631.310106,665.776442 631.364755,665.320756 631.449991,664.864799 L619.978632,657.12727 C619.012647,656.475705 618.75776,655.164421 619.409325,654.198436 C620.06089,653.232451 621.372174,652.977563 622.338159,653.629128 L633.00286,660.82256 C633.190412,660.499582 633.393204,660.17647 633.611237,659.853223 C633.626398,659.830746 633.641544,659.808312 633.656676,659.785921 L621.228168,651.402786 C620.262183,650.751221 620.007295,649.439937 620.65886,648.473952 C621.310425,647.507967 622.621709,647.253079 623.587694,647.904645 L636.117537,656.356131 C636.377164,656.019323 636.631486,655.698317 636.880503,655.393114 Z" id="Combined-Shape" fill="#5792E2"></path>
            <path d="M648,669.189214 C653.890168,675.099344 658.96908,676.501095 663.236736,673.394465 C668.661381,669.445609 670.822797,660.647453 669.720984,647" id="Path-2" stroke="#5792E2" stroke-width="8" stroke-linecap="round" stroke-linejoin="round"></path>
            <g id="лицо" transform="translate(604.000000, 526.000000)">
                <path d="M33.0031751,4.02570252 L39.8350105,4.29961775 C58.5976174,5.05188469 73.1978826,20.8718156 72.4456157,39.6344225 C72.4355671,39.8850497 72.4227453,40.135558 72.4071528,40.3859014 L71.7628941,50.7296982 C70.7323343,54.2432327 59.3396441,56 37.5848235,56 C15.8300028,56 4.20310418,54.1791749 2.70412749,50.5375246 L0.909968188,42.8647896 C-3.07089102,25.8406171 7.5028036,8.81267442 24.5269761,4.83181521 C27.3031837,4.18263878 30.1543662,3.91148253 33.0031751,4.02570252 Z" id="Combined-Shape" fill="#9BECFF"></path>
                <path d="M47.2203222,80.3316496 L47.2203222,90 C47.2203222,95.5228475 42.7431697,100 37.2203222,100 C31.6974747,100 27.2203222,95.5228475 27.2203222,90 L27.2203222,80.4072675 C14.4657092,76.9523988 5.0833346,65.2960228 5.0833346,51.4482759 L5.0833346,41.4482759 C5.0833346,23.7751639 19.4102226,9.44827586 37.0833346,9.44827586 C54.7564466,9.44827586 69.0833346,23.7751639 69.0833346,41.4482759 L69.0833346,51.4482759 C69.0833346,65.1966815 59.8350921,76.7850445 47.2203222,80.3316496 Z" id="Combined-Shape" fill="#FFFFFF" transform="translate(37.083335, 54.724138) scale(-1, 1) translate(-37.083335, -54.724138) "></path>
                <path d="M36.7234066,44.2068966 C37.8839608,44.2068966 39.5924545,51.4136845 39.0445151,53.6407044 C38.4965757,55.8677243 34.9946447,56.0482111 34.402298,53.6407044 C33.8099514,51.2331977 35.5628523,44.2068966 36.7234066,44.2068966 Z" id="Triangle" fill="#D4E9FF"></path>
                <path d="M31.8500013,59.1034483 C32.7695283,60.7586207 34.3917505,61.5862069 36.7166679,61.5862069 C39.0415854,61.5862069 40.6638076,60.7586207 41.5833346,59.1034483" id="Path-4" stroke="#71C1F5" stroke-width="2" stroke-linecap="round" stroke-linejoin="round"></path>
                <path d="M49,47 C49.4723598,48.3333333 50.3056931,49 51.5,49 C52.6943069,49 53.5276402,48.3333333 54,47" id="Path-4-Copy" stroke="#71C1F5" stroke-width="3" stroke-linecap="round" stroke-linejoin="round" transform="translate(51.500000, 48.000000) scale(1, -1) translate(-51.500000, -48.000000) "></path>
                <ellipse id="Oval" fill="#71C1F5" cx="22.1166679" cy="47.9310345" rx="3.65" ry="3.72413793"></ellipse>
                <path d="M74.3977677,33.8039222 C76.4662031,29.5210646 65.9302457,0.0107363972 38.4541611,0.0107363972 C10.9780765,0.0107363972 -0.444031926,36.1231621 3.36176253,36.1231621 C7.16755699,36.1231621 14.0346275,31.3149589 25.0452055,17.8985828 C28.907078,13.1928957 31.7291004,30.1758494 39.7501071,30.1758494 C42.7405326,30.1758494 35.912233,23.7732532 39.7501071,24.5034858 C42.9343491,25.1093518 43.6603076,31.7533948 49.2012989,35.3354333 C56.2904424,39.9182928 72.3293323,38.0867799 74.3977677,33.8039222 Z" id="Path" fill="#9BECFF"></path>
            </g>
            <g id="фон" opacity="0.20312" transform="translate(442.821597, 445.763254)">
                <path d="M255.437252,66.1325536 L280.915513,66.1325536 C283.676937,66.1325536 285.915513,68.3711298 285.915513,71.1325536 L285.915513,82.0021188 C285.915513,84.7635425 283.676937,87.0021188 280.915513,87.0021188 L255.437252,87.0021188 C252.675829,87.0021188 250.437252,84.7635425 250.437252,82.0021188 C250.437252,79.1194374 250.437252,76.236756 250.437252,73.3540746 C250.437252,72.6135676 250.437252,71.8730606 250.437252,71.1325536 C250.437252,68.3711298 252.675829,66.1325536 255.437252,66.1325536 Z M259.306818,90.1325536 L277.045948,90.1325536 C277.910394,90.1325536 278.611165,90.8333253 278.611165,91.697771 C278.611165,92.5622167 277.910394,93.2629884 277.045948,93.2629884 L259.306818,93.2629884 C258.442372,93.2629884 257.7416,92.5622167 257.7416,91.697771 C257.7416,90.8333253 258.442372,90.1325536 259.306818,90.1325536 Z M277.567687,64.0455971 C273.533607,64.0455971 270.263339,60.7753291 270.263339,56.7412492 C270.263339,52.7071693 273.533607,49.4369014 277.567687,49.4369014 C281.601767,49.4369014 284.872035,52.7071693 284.872035,56.7412492 C284.872035,60.7753291 281.601767,64.0455971 277.567687,64.0455971 Z M259.828557,64.0455971 C255.21818,64.0455971 251.480731,60.308148 251.480731,55.697771 C251.480731,51.0873939 255.21818,47.3499449 259.828557,47.3499449 C264.438934,47.3499449 268.176383,51.0873939 268.176383,55.697771 C268.176383,60.308148 264.438934,64.0455971 259.828557,64.0455971 Z M245.335591,81.407725 L241.00826,84.2306737 C240.083136,84.8341808 238.843937,84.5734595 238.240429,83.6483363 C238.028406,83.3233225 237.915513,82.9436467 237.915513,82.55559 L237.915513,70.5788363 C237.915513,69.4742668 238.810944,68.5788363 239.915513,68.5788363 C240.30357,68.5788363 240.683246,68.6917288 241.00826,68.9037526 L245.335591,71.7267012 C248.008931,73.470664 248.762341,77.0515961 247.018379,79.724937 C246.580262,80.3965313 246.007185,80.9696083 245.335591,81.407725 Z M277.567687,59.871684 C279.296578,59.871684 280.698122,58.4701406 280.698122,56.7412492 C280.698122,55.0123578 279.296578,53.6108144 277.567687,53.6108144 C275.838796,53.6108144 274.437252,55.0123578 274.437252,56.7412492 C274.437252,58.4701406 275.838796,59.871684 277.567687,59.871684 Z M259.828557,59.871684 C262.133745,59.871684 264.00247,58.0029595 264.00247,55.697771 C264.00247,53.3925824 262.133745,51.5238579 259.828557,51.5238579 C257.523368,51.5238579 255.654644,53.3925824 255.654644,55.697771 C255.654644,58.0029595 257.523368,59.871684 259.828557,59.871684 Z" id="Combined-Shape" fill="#D7F7FF" transform="translate(261.915513, 70.306467) rotate(23.000000) translate(-261.915513, -70.306467) "></path>
                <path d="M107.003122,88.6485204 L136.003122,88.6485204 C139.316831,88.6485204 142.003122,91.3348119 142.003122,94.6485204 L142.003122,120.36852 C142.003122,123.682229 139.316831,126.36852 136.003122,126.36852 L107.003122,126.36852 C103.689414,126.36852 101.003122,123.682229 101.003122,120.36852 L101.003122,94.6485204 C101.003122,91.3348119 103.689414,88.6485204 107.003122,88.6485204 Z M108.704232,92.5988595 C106.495093,92.5988595 104.704232,94.3897205 104.704232,96.5988595 L104.704232,114.838859 C104.704232,117.047998 106.495093,118.838859 108.704232,118.838859 L133.504232,118.838859 C135.713371,118.838859 137.504232,117.047998 137.504232,114.838859 L137.504232,96.5988595 C137.504232,94.3897205 135.713371,92.5988595 133.504232,92.5988595 L108.704232,92.5988595 Z M126.805561,108.203308 L118.942154,112.130724 C117.953982,112.624272 116.752811,112.223299 116.259263,111.235127 C116.120661,110.957619 116.048508,110.651675 116.048508,110.34148 L116.048508,102.486647 C116.048508,101.382077 116.943938,100.486647 118.048508,100.486647 C118.358703,100.486647 118.664647,100.5588 118.942154,100.697403 L126.805561,104.624819 C127.793733,105.118367 128.194706,106.319538 127.701158,107.30771 C127.507533,107.695383 127.193234,108.009683 126.805561,108.203308 Z" id="Combined-Shape" fill="#D7F7FF" transform="translate(121.503122, 107.508520) rotate(-18.000000) translate(-121.503122, -107.508520) "></path>
                <g id="Group" transform="translate(175.692695, 46.663509) rotate(161.000000) translate(-175.692695, -46.663509) translate(151.692695, 25.996843)">
                    <path d="M38.2706086,25.9605508 L30.1015725,35.4823156 C29.3823464,36.3206399 28.1197024,36.4171881 27.2813781,35.697962 C26.8385007,35.3180029 26.5836521,34.7635733 26.5836521,34.1800416 L26.5836521,6.06486676 C26.5836521,4.96029726 27.4790826,4.06486676 28.5836521,4.06486676 C29.1671837,4.06486676 29.7216134,4.31971542 30.1015725,4.76259276 L38.2706086,14.2843576 L44.4532173,14.2843576 C46.1100715,14.2843576 47.4532173,15.6275033 47.4532173,17.2843576 L47.4532173,22.9605508 C47.4532173,24.617405 46.1100715,25.9605508 44.4532173,25.9605508 L38.2706086,25.9605508 Z" id="Combined-Shape" fill="#D7F7FF"></path>
                    <path d="M17.5462844,31.0452876 C12.9086032,29.2798168 10.5897626,25.8131502 10.5897626,20.6452876 C10.5897626,15.477425 12.9086032,12.0107583 17.5462844,10.2452876" id="Path-5" stroke="#D7F7FF" stroke-width="4" stroke-linecap="round" stroke-linejoin="round"></path>
                    <path d="M17.1103318,40.4381979 C6.44366517,37.0430619 1.11033184,30.3763953 1.11033184,20.4381979 C1.11033184,10.5000006 6.44366517,3.83333395 17.1103318,0.438197939" id="Path-5-Copy-2" stroke="#D7F7FF" stroke-width="4" stroke-linecap="round" stroke-linejoin="round"></path>
                    <path d="M20.15498,22.3786209 L20.15498,18.9119542 L20.15498,22.3786209 Z" id="Path-5-Copy" stroke="#D7F7FF" stroke-width="4" stroke-linecap="round" stroke-linejoin="round"></path>
                </g>
                <path d="M271.724495,-57.201422 C272.594907,-57.8814629 273.851798,-57.7271361 274.531839,-56.8567234 C275.21188,-55.9863108 275.057553,-54.7294199 274.18714,-54.049379 C273.316728,-53.3693381 272.059837,-53.5236649 271.379796,-54.3940775 C270.699755,-55.2644902 270.854082,-56.5213811 271.724495,-57.201422 Z M227.139047,-22.0971341 C228.180814,-23.3855004 230.068651,-23.583824 231.355648,-22.5401025 C232.642646,-21.4963809 232.841445,-19.6058502 231.799678,-18.3174839 C230.757911,-17.0291177 228.870074,-16.830794 227.583076,-17.8745155 C226.296079,-18.9182371 226.09728,-20.8087679 227.139047,-22.0971341 Z M255.981569,277.274747 C255.827843,276.180927 256.589939,275.169591 257.683759,275.015864 C258.777579,274.862138 259.788915,275.624234 259.942641,276.718054 C260.096368,277.811874 259.334271,278.82321 258.240451,278.976936 C257.146632,279.130663 256.135295,278.368566 255.981569,277.274747 Z M269.563017,198.342596 C270.604783,197.05423 272.49262,196.855906 273.779618,197.899628 C275.066615,198.943349 275.265414,200.83388 274.223647,202.122246 C273.18188,203.410612 271.294044,203.608936 270.007046,202.565214 C268.720048,201.521493 268.52125,199.630962 269.563017,198.342596 Z M99.9050118,199.142225 C100.775424,198.462184 102.032315,198.616511 102.712356,199.486924 C103.392397,200.357336 103.23807,201.614227 102.367658,202.294268 C101.497245,202.974309 100.240354,202.819982 99.5603132,201.949569 C98.8802724,201.079157 99.0345992,199.822266 99.9050118,199.142225 Z M116.031599,239.353333 C116.902012,238.673292 118.158903,238.827618 118.838944,239.698031 C119.518985,240.568444 119.364658,241.825335 118.494245,242.505376 C117.623833,243.185416 116.366942,243.03109 115.686901,242.160677 C115.00686,241.290264 115.161187,240.033373 116.031599,239.353333 Z M77.1150921,70.427528 C78.2061863,70.599537 78.9499674,71.6233721 78.7763737,72.7143277 C78.60278,73.8052833 77.5775478,74.5502367 76.4864535,74.3782277 C75.3953593,74.2062187 74.6515782,73.1823836 74.8251719,72.091428 C74.9987656,71.0004723 76.0239978,70.2555189 77.1150921,70.427528 Z M73.2106889,212.896217 C73.9052002,212.037306 75.1637579,211.90509 76.0217564,212.600905 C76.8797548,213.296719 77.0122872,214.557073 76.3177759,215.415984 C75.6232646,216.274894 74.3647069,216.40711 73.5067085,215.711296 C72.6487101,215.015481 72.5161776,213.755128 73.2106889,212.896217 Z M94.1908066,79.4122217 C93.6525131,80.9791952 91.9463576,81.8112367 90.3800016,81.2706384 C88.8136457,80.73004 87.9802364,79.0215154 88.5185299,77.4545418 C89.0568234,75.8875683 90.7629789,75.0555268 92.3293349,75.5961252 C93.8956908,76.1367236 94.7291001,77.8452482 94.1908066,79.4122217 Z M93.9193783,188.394409 C94.293249,190.00853 93.2872619,191.618266 91.6724432,191.989855 C90.0576246,192.361443 88.4454733,191.354172 88.0716026,189.740051 C87.6977319,188.12593 88.703719,186.516194 90.3185377,186.144605 C91.9333564,185.773017 93.5455076,186.780288 93.9193783,188.394409 Z M100.566861,47.7239506 C100.816108,48.8000313 100.14545,49.8731885 99.0689044,50.1209143 C97.9923586,50.3686402 96.9175911,49.6971259 96.668344,48.6210453 C96.4190968,47.5449646 97.0897549,46.4718073 98.1663007,46.2240815 C99.2428465,45.9763556 100.317614,46.6478699 100.566861,47.7239506 Z" id="Combined-Shape-Copy-5" fill="#FFFFFF" opacity="0.298312" transform="translate(173.860678, 110.685580) rotate(-87.000000) translate(-173.860678, -110.685580) "></path>
                <path d="M154.697494,158.343098 C156.086517,156.625276 158.603492,156.360731 160.319317,157.75222 C162.035141,159.14371 162.300066,161.664304 160.911043,163.382125 C159.522021,165.099947 157.005045,165.364492 155.289221,163.973003 C153.573396,162.581514 153.308471,160.060919 154.697494,158.343098 Z M135.696589,153.789922 C136.391101,152.931011 137.649589,152.798739 138.507501,153.494483 C139.365413,154.190228 139.497875,155.450525 138.803364,156.309436 C138.108853,157.168347 136.850365,157.300619 135.992453,156.604874 C135.134541,155.90913 135.002078,154.648833 135.696589,153.789922 Z M249.437949,27.7899219 C250.13246,26.9310111 251.390948,26.7987388 252.24886,27.4944833 C253.106772,28.1902279 253.239235,29.450525 252.544723,30.3094358 C251.850212,31.1683466 250.591724,31.300619 249.733812,30.6048744 C248.8759,29.9091299 248.743437,28.6488327 249.437949,27.7899219 Z M127.437949,69.7899219 C128.13246,68.9310111 129.390948,68.7987388 130.24886,69.4944833 C131.106772,70.1902279 131.239235,71.450525 130.544723,72.3094358 C129.850212,73.1683466 128.591724,73.300619 127.733812,72.6048744 C126.8759,71.9091299 126.743437,70.6488327 127.437949,69.7899219 Z M65.4379486,44.7899219 C66.1324599,43.9310111 67.3909478,43.7987388 68.24886,44.4944833 C69.1067722,45.1902279 69.2392347,46.450525 68.5447233,47.3094358 C67.850212,48.1683466 66.5917241,48.300619 65.7338119,47.6048744 C64.8758997,46.9091299 64.7434372,45.6488327 65.4379486,44.7899219 Z M374.437949,31.7899219 C375.13246,30.9310111 376.390948,30.7987388 377.24886,31.4944833 C378.106772,32.1902279 378.239235,33.450525 377.544723,34.3094358 C376.850212,35.1683466 375.591724,35.300619 374.733812,34.6048744 C373.8759,33.9091299 373.743437,32.6488327 374.437949,31.7899219 Z M324.437949,86.7899219 C325.13246,85.9310111 326.390948,85.7987388 327.24886,86.4944833 C328.106772,87.1902279 328.239235,88.450525 327.544723,89.3094358 C326.850212,90.1683466 325.591724,90.300619 324.733812,89.6048744 C323.8759,88.9091299 323.743437,87.6488327 324.437949,86.7899219 Z M239.437949,159.789922 C240.13246,158.931011 241.390948,158.798739 242.24886,159.494483 C243.106772,160.190228 243.239235,161.450525 242.544723,162.309436 C241.850212,163.168347 240.591724,163.300619 239.733812,162.604874 C238.8759,161.90913 238.743437,160.648833 239.437949,159.789922 Z" id="Combined-Shape" fill="#D7F7FF"></path>
            </g>
            <path d="M582,590 C580.895431,590 580,589.104569 580,588 C580,586.895431 580.895431,586 582,586 C583.104569,586 584,586.895431 584,588 C584,589.104569 583.104569,590 582,590 Z M672,613 C670.343146,613 669,611.656854 669,610 C669,608.343146 670.343146,607 672,607 C673.656854,607 675,608.343146 675,610 C675,611.656854 673.656854,613 672,613 Z M605,527 C603.895431,527 603,526.104569 603,525 C603,523.895431 603.895431,523 605,523 C606.104569,523 607,523.895431 607,525 C607,526.104569 606.104569,527 605,527 Z" id="Combined-Shape" fill="#9BECFF"></path>
        </g>
    </g>
</svg>