<?xml version="1.0" encoding="UTF-8"?>
<svg width="1273px" height="543px" viewBox="0 0 1273 543" version="1.1" xmlns="http://www.w3.org/2000/svg" xmlns:xlink="http://www.w3.org/1999/xlink">
    <!-- Generator: Sketch 53.2 (72643) - https://sketchapp.com -->
    <title>3</title>
    <desc>Created with Sketch.</desc>
    <defs>
        <linearGradient x1="50%" y1="36.336794%" x2="52.4094381%" y2="167.651955%" id="linearGradient-1">
            <stop stop-color="#245FAB" offset="0%"></stop>
            <stop stop-color="#142E50" offset="99.9604096%"></stop>
        </linearGradient>
        <linearGradient x1="50%" y1="1.47012247%" x2="-59.9937504%" y2="219.180023%" id="linearGradient-2">
            <stop stop-color="#245FAB" offset="0%"></stop>
            <stop stop-color="#142E50" offset="99.9604096%"></stop>
        </linearGradient>
        <linearGradient x1="50%" y1="26.4833772%" x2="77.8724872%" y2="176.522373%" id="linearGradient-3">
            <stop stop-color="#245FAB" offset="0%"></stop>
            <stop stop-color="#142E50" offset="99.9604096%"></stop>
        </linearGradient>
    </defs>
    <g id="Page-3" stroke="none" stroke-width="1" fill="none" fill-rule="evenodd">
        <g id="3" transform="translate(-11.000000, -4.000000)">
            <g id="life" transform="translate(170.355903, 199.916003) scale(-1, 1) rotate(-17.000000) translate(-170.355903, -199.916003) translate(109.855903, 139.416003)" fill="#E6EBFF">
                <path d="M103.356376,2.66957904 C95.4686543,20.8909701 93.5821535,31.2348654 97.6968739,33.7012652 C103.868955,37.4008649 121.14867,22.4870962 120.810911,49.4503731 C120.473152,76.41365 101.573032,53.5833501 95.7820442,58.0310537 C91.9213855,60.9961895 92.8577605,70.5667134 98.5911693,86.7426253 C71.296208,82.8306898 59.0469779,84.9556103 61.8434792,93.117387 C66.0382312,105.360052 72.1329673,117.636554 56.4457577,120.357874 C40.7585481,123.079194 40.8288632,108.275658 43.6105443,95.07898 C45.4649983,86.2811945 31.2136641,83.0350551 0.85654173,85.3405618 C0.394493906,63.2616126 3.86182101,52.696283 11.258523,53.6445732 C22.3535761,55.0670084 31.9295378,62.6592673 29.5114838,45.302754 C27.0934298,27.9462407 23.2487299,33.1191274 12.8521421,35.2120735 C5.92108352,36.607371 3.19961291,26.6196048 4.68773027,5.24877494 C34.5778299,0.00365862814 48.1531502,1.54356137 45.413691,9.86848318 C41.3045023,22.3558659 37.6875124,33.1143388 52.9637001,31.7113535 C68.2398877,30.3083683 59.403323,23.3149273 60.933572,9.86508834 C61.9537379,0.898529062 76.0946727,-1.49997404 103.356376,2.66957904 Z" id="Path-15-Copy-3"></path>
            </g>
            <rect id="Rectangle" fill="url(#linearGradient-1)" transform="translate(450.000000, 318.098202) scale(-1, 1) translate(-450.000000, -318.098202) " x="198" y="100.098202" width="504" height="436"></rect>
            <path d="M351.777417,546 C340.013826,494.573456 340.013826,472.138963 351.777417,478.69652 C364.776929,485.943036 374.343219,484.489269 374.343219,459.214836 C374.343219,433.940404 358.762451,450.352476 349.045592,444.241712 C337.509232,436.986695 340.555999,335.760519 360.901442,335.760519 C381.246884,335.760519 399.632279,353.453996 399.632279,320.5 C399.632279,284.785468 389.701319,293.036112 365.634984,301.878993 C341.56865,310.721873 345.739506,211.737376 351.777417,199.946908 C363.136544,177.76549 399.632279,218.517337 399.632279,183.712651 C399.632279,148.907964 380.72092,152.438234 367.867864,159.640467 C352.68762,168.146744 347.324138,146.599921 351.777417,95" id="Path-2" stroke="#FFFFFF" stroke-width="3" stroke-linejoin="round"></path>
            <path d="M452.322324,505 C449.045698,468.203715 445.917924,436.40738 461.810839,441.502137 C475.813375,445.990898 499.865876,462.333406 499.865876,420.475428 C499.865876,378.617451 474.209469,415.854046 458.35264,399.892262 C450.441488,391.928748 446.133861,366.59722 447.920629,339.788241 C449.715194,312.862263 457.613527,284.441036 453.91611,268.380528 C446.537342,236.329297 409.132372,287.743569 402.568007,251.907603 C393.910152,204.642921 419.860143,231.900977 444.711122,224.428516 C469.562102,216.956055 445.922841,108.089177 452.008918,94.3198013 C463.458659,68.4154627 499.865876,119.802099 499.865876,79.1558065 C499.865876,38.5095139 480.300416,45.1475813 467.344828,53.5586342 C452.043488,63.4926009 446.931518,41.6397228 452.008918,-12" id="Path-2-Copy-3" stroke="#FFFFFF" stroke-width="3" stroke-linejoin="round" transform="translate(450.365876, 246.500000) scale(-1, -1) rotate(90.000000) translate(-450.365876, -246.500000) "></path>
            <path d="M541.189328,744.05038 C547.788889,693.411779 544.450971,670.540745 531.175574,675.437278 C507.527432,684.159722 489.521919,686.929009 491.882752,655.611091 C494.849379,616.25694 530.909614,661.670342 545.615458,641.504448 C560.909699,620.531694 561.364477,489.028348 531.175574,499.97238 C502.774322,510.268356 491.882752,510.268356 498.147996,478.112603 C504.413241,445.95685 521.187686,474.249613 537.416255,462.294402 C553.644825,450.339192 534.172531,350.072179 539.985115,330.372726 C545.797699,310.673274 587.161966,339.402475 588.916255,305.941729 C591.288305,260.698006 563.177225,293.970767 545.615458,283.044241 C534.895864,276.374756 538.180508,233.693666 539.985115,199.05038 C541.136971,176.938037 538.824598,158.656459 541.189328,153.295589 C552.60796,127.409424 588.916255,178.760009 588.916255,138.142233 C588.916255,97.524457 569.403956,104.157867 556.48357,112.563019 C541.223805,122.490016 536.125724,100.65247 541.189328,47.0503795" id="Path-2-Copy-4" stroke="#FFFFFF" stroke-width="3" stroke-linejoin="round" transform="translate(540.365876, 395.550380) scale(-1, -1) rotate(90.000000) translate(-540.365876, -395.550380) "></path>
            <path d="M531.338343,546 C525.582789,499.998641 528.647598,477.590292 540.532769,478.774953 C564.317408,481.1457 570.825309,478.7051 566.475716,456.188222 C562.126122,433.671343 549.708782,456.351894 533.856062,442.684107 C518.003342,429.01632 520.030341,335.760519 540.532769,335.760519 C561.035197,335.760519 582.982512,352.944605 580.903569,323.460841 C578.665362,291.718396 566.475716,292.408791 545.302836,301.878993 C524.129956,311.349194 538.180615,214.265402 525.948459,199.938345 C513.295388,185.118287 490.623108,217.27044 490.623108,182.19421 C490.623108,147.11798 510.939181,168.362482 523.797853,158.313097 C532.076951,151.842768 534.590448,130.738402 531.338343,95" id="Path-2-Copy" stroke="#FFFFFF" stroke-width="3" stroke-linejoin="round" transform="translate(535.831864, 320.500000) scale(-1, 1) translate(-535.831864, -320.500000) "></path>
            <path d="M544.561935,243.553975 C546.275334,282.275692 541.660336,301.63655 530.716943,301.63655 C514.301852,301.63655 491.715318,280.302431 491.715318,317.050887 C491.715318,340.918312 494.503906,341.696731 507.708949,339.857623 C514.83559,338.865073 533.281532,335.693103 537.189852,338.187024 C544.623247,342.930317 548.222672,362.69888 547.988126,397.492711 C490.380364,403.578415 461.576483,398.585682 461.576483,382.514513 C461.576483,358.407759 473.334976,345.973538 447.962891,345.973538 C422.590805,345.973538 420.13632,363.113476 424.909918,385.335141 C428.092316,400.149585 401.099217,402.418461 343.930622,392.141769 C343.118442,352.053935 349.947281,332.858243 364.417139,334.554693 C386.121926,337.099367 404.857247,350.66219 400.120834,319.664094 C395.384421,288.665998 387.865215,297.9028 367.528027,301.63655 C353.969901,304.125716 348.837335,286.702445 352.130327,249.366737 C410.210306,239.181048 436.572297,241.521445 431.2163,256.387926 C423.182305,278.687649 409.081423,296 447.962891,296 C478.015327,296 458.587784,280.407516 461.576483,256.387926 C463.568948,240.374867 491.230766,236.096883 544.561935,243.553975 Z" id="Path-15" fill="#FFFFFF" transform="translate(445.932382, 320.000000) scale(-1, 1) translate(-445.932382, -320.000000) "></path>
            <path d="M1015.95973,32.1023583 C1017.79094,71.2376292 1012.83213,90.806369 1001.08331,90.8085778 C983.460068,90.8118909 966.593443,70.4328141 966.58557,107.574078 C966.577696,144.715342 989.107039,116.889844 1001.07625,124.078586 C1009.05573,128.87108 1015.23201,150.073508 1019.60511,187.685869 C952.590357,190.671996 921.667585,185.631709 926.836793,172.565007 C934.590603,152.964955 941.10484,141.147905 913.865374,141.153026 C886.625908,141.158147 882.350799,152.964955 887.470971,175.423187 C890.884419,190.395341 861.957657,192.362067 800.690687,181.323365 C799.720299,141.470893 807.002342,122.400488 822.536815,124.11215 C845.838526,126.679644 859.001654,137.585028 853.360086,107.574078 C847.718518,77.5631274 843.875122,88.1336341 825.883717,90.8415146 C813.889447,92.6467682 808.173843,74.6188644 808.736907,36.7578032 C871.511771,27.2903758 900.022512,30.069898 894.26913,45.09637 C885.639056,67.636078 878.022223,79.0232719 910.105107,76.4908855 C942.187991,73.9584991 923.650004,69.3671825 926.863816,45.0902424 C929.006357,28.9056156 958.704996,24.5763209 1015.95973,32.1023583 Z" id="Path-15-Copy" fill="#FF7575" transform="translate(910.105107, 108.519082) scale(-1, 1) rotate(-17.000000) translate(-910.105107, -108.519082) "></path>
            <text id="cats" transform="translate(925.252449, 116.858278) rotate(17.000000) translate(-925.252449, -116.858278) " font-family="Comfortaa-Regular_Bold, Comfortaa" font-size="37" font-weight="bold" line-spacing="38" letter-spacing="1.14171433" fill="#FFFFFF">
                <tspan x="864.752449" y="130.858278">cats</tspan>
            </text>
            <g id="me" transform="translate(1212.058701, 289.860762) scale(-1, 1) rotate(22.000000) translate(-1212.058701, -289.860762) translate(1142.058701, 209.360762)">
                <path d="M139.759623,2.75009939 C140.94803,31.6589095 137.729891,46.1141304 130.105205,46.115762 C118.668175,46.1182093 110.815004,34.4439842 110.815004,57.6296948 C110.815004,80.8154054 122.332915,65.381717 130.100627,70.6919643 C135.279102,74.2321292 136.333825,88.9506392 133.264794,114.847494 C96.0626112,109.63158 79.367292,112.464808 83.1788362,123.347177 C88.8961525,139.67073 97.2030881,156.039399 75.8219098,159.667826 C54.4407315,163.296252 54.5365688,143.558205 58.3279134,125.962634 C60.8554766,114.232253 41.4313517,109.904068 0.0555389402,112.978076 C-0.57421786,83.5394774 4.15164104,69.4523714 14.2331157,70.7167582 C29.3553276,72.6133385 36.7976814,71.9098924 33.6865379,57.6296948 C30.5753944,43.3494972 30.5753944,43.3494972 16.4051688,46.140092 C6.95835173,48.0004886 3.24907202,34.683467 5.27732965,6.18902725 C46.016605,-0.804461163 64.5193439,1.2487425 60.7855463,12.3486382 C55.18485,28.9984818 53.1571513,34.4439842 70,34.4439842 C86.8428487,34.4439842 79.8529793,30.2772304 81.9386609,12.3441118 C83.3291153,0.388699415 102.602769,-2.80930472 139.759623,2.75009939 Z" id="Path-15-Copy-2" fill="url(#linearGradient-2)" transform="translate(70.000000, 80.103171) scale(-1, 1) translate(-70.000000, -80.103171) "></path>
                <text opacity="0.6" transform="translate(66.948749, 66.178491) scale(-1, 1) translate(-66.948749, -66.178491) " font-family="Comfortaa-Regular_Bold, Comfortaa" font-size="30" font-weight="bold" line-spacing="38" letter-spacing="0.925714314" fill="#6DE4FF">
                    <tspan x="42.6380351" y="73.1784909">me</tspan>
                </text>
            </g>
            <g id="dogs" transform="translate(985.434194, 383.500467) rotate(11.000000) translate(-985.434194, -383.500467) translate(889.934194, 317.000467)">
                <path d="M166.983292,2.87853438 C156.133152,29.2995513 153.538132,44.2981997 159.198231,47.8744793 C167.688381,53.2388988 191.457897,31.6139342 190.993284,70.7106858 C190.528672,109.807437 164.530171,76.7035024 156.564243,83.1526727 C151.253623,87.4521195 152.541676,101.329379 160.4284,124.784452 C131.360941,135.766951 115.136347,135.682597 111.754619,124.531389 C106.682026,107.804578 118.869944,89.782289 97.2910365,93.7282029 C75.7121294,97.6741169 92.1609617,106.370574 84.0436223,119.037674 C78.6320628,127.482407 59.2799397,128.720336 25.9872532,122.751459 C39.2607816,98.0937488 42.8249409,82.6286308 36.6797311,76.3561053 C27.4619164,66.9473171 -4.04036696,103.101966 0.432212111,62.740201 C4.90479119,22.3784361 22.8314778,60.1134364 33.2005386,50.8007543 C40.1132458,44.5922996 39.4655109,29.8648376 31.257334,6.61836842 C72.3733578,-0.987050223 91.0472063,1.24580876 87.2788794,13.3169454 C81.626389,31.4236503 76.6509542,47.023436 97.6644704,44.9891074 C118.677987,42.9547788 106.522644,32.8142893 108.627614,13.3120229 C110.030927,0.310511906 129.482819,-3.16731759 166.983292,2.87853438 Z" id="Path-15-Copy-4" fill="url(#linearGradient-3)" transform="translate(95.500000, 66.479271) scale(-1, 1) translate(-95.500000, -66.479271) "></path>
                <text opacity="0.496478" font-family="Comfortaa-Regular_Bold, Comfortaa" font-size="32" font-weight="bold" line-spacing="38" letter-spacing="0.9874286" fill="#6DE4FF">
                    <tspan x="49.4568959" y="76.9476488">dogs</tspan>
                </text>
            </g>
            <path d="M132.899366,307.674238 C124.946384,328.539439 123.044275,340.38417 127.193039,343.208429 C133.416185,347.444817 150.838867,330.367154 150.498314,361.242634 C150.15776,392.118115 131.101268,365.97528 125.262367,371.068318 C121.369766,374.463677 122.313889,385.422824 128.094734,403.94576 C106.788743,412.618858 94.8963704,412.552242 92.4176164,403.745912 C88.6994854,390.536417 97.6330378,376.303858 81.8160378,379.420024 C65.9990378,382.536191 78.0557735,389.403956 72.1058913,399.407416 C68.1393031,406.076389 53.9545009,407.054006 29.5514846,402.340266 C39.2807724,382.867582 41.8932452,370.654472 37.388903,365.700934 C30.6323896,358.270627 7.54171066,386.822671 10.8200409,354.948184 C14.0983711,323.073697 27.2383508,352.873776 34.8387095,345.519366 C39.9056153,340.616426 39.4308358,328.985857 33.414371,310.627659 C63.5517707,304.621509 77.2394083,306.384842 74.4772839,315.917658 C70.3340972,330.216882 66.6871816,342.536343 82.089759,340.929793 C97.4923364,339.323244 88.5826611,331.315098 90.1255708,315.913771 C91.1541772,305.64622 105.412109,302.899709 132.899366,307.674238 Z" id="Path-15-Copy-5" fill="#E6EBFF" transform="translate(80.503236, 357.901002) scale(-1, 1) rotate(13.000000) translate(-80.503236, -357.901002) "></path>
            <g id="CAT" transform="translate(395.000000, 43.098202)">
                <path d="M73.8715411,71.1027376 L44.7955111,98.3190544" id="Path-16-Copy-2" stroke="#45B8FF" stroke-width="17" stroke-linecap="round" stroke-linejoin="round" transform="translate(59.489693, 84.366436) rotate(-40.000000) translate(-59.489693, -84.366436) "></path>
                <path d="M37.05712,65.3504316 L16.0303906,84.9614333" id="Path-16-Copy-5" stroke="#5296EF" stroke-width="17" stroke-linecap="round" stroke-linejoin="round" transform="translate(26.675272, 75.114130) scale(-1, 1) rotate(-40.000000) translate(-26.675272, -75.114130) "></path>
                <path d="M22.3244016,10.5222613 C28.7251281,7.09253681 36.2648953,5.11381222 44.3364583,5.11381222 C51.6160347,5.11381222 58.4630556,6.72328001 64.4320605,9.55508918 L79.221896,0.843462272 C81.6012369,-0.558036125 84.6662128,0.234661888 86.0677112,2.61400284 C86.5281658,3.39572222 86.7672491,4.28799348 86.7593435,5.19520961 L86.4558961,40.0173012 L86.2921822,39.9227809 C86.3215928,40.483255 86.3364583,41.047025 86.3364583,41.6138122 C86.3364583,61.7722056 67.5324178,78.1138122 44.3364583,78.1138122 C21.1410968,78.1138122 2.33742784,61.7730482 2.33645834,41.6153713 L0.167471625,5.47950058 C0.102652236,4.39959309 0.389840328,3.32779254 0.985929309,2.42497492 C2.50744583,0.120533855 5.60899725,-0.514151892 7.91343832,1.00736462 L22.3244016,10.5222613 Z" id="Combined-Shape" fill="#45B8FF"></path>
                <g id="FACE" transform="translate(17.000000, 36.000000)" fill="#FFFFFF">
                    <path d="M29.9264595,12.4525476 L29.9264595,12.4525476 C30.6885046,13.3416003 30.5855447,14.6800795 29.696492,15.4421246 C29.3122212,15.7714996 28.8228017,15.9525476 28.3166872,15.9525476 L25.5362317,15.9525476 C24.3652802,15.9525476 23.4160365,15.0033039 23.4160365,13.8323524 C23.4160365,13.3262379 23.5970845,12.8368184 23.9264595,12.4525476 L23.9264595,12.4525476 C25.3466203,10.7956934 27.8410338,10.6038154 29.497888,12.0239762 C29.6515073,12.1556498 29.7947858,12.2989284 29.9264595,12.4525476 Z" id="Triangle" transform="translate(26.926459, 12.452548) scale(1, -1) translate(-26.926459, -12.452548) "></path>
                    <path d="M6.92645947,12.9525476 C3.61275097,12.9525476 0.926459466,10.2662561 0.926459466,6.95254763 C0.926459466,3.63883913 3.61275097,0.952547631 6.92645947,0.952547631 C10.240168,0.952547631 12.9264595,3.63883913 12.9264595,6.95254763 C12.9264595,10.2662561 10.240168,12.9525476 6.92645947,12.9525476 Z M45.9264595,12.9525476 C42.612751,12.9525476 39.9264595,10.2662561 39.9264595,6.95254763 C39.9264595,3.63883913 42.612751,0.952547631 45.9264595,0.952547631 C49.240168,0.952547631 51.9264595,3.63883913 51.9264595,6.95254763 C51.9264595,10.2662561 49.240168,12.9525476 45.9264595,12.9525476 Z" id="Combined-Shape"></path>
                </g>
            </g>
            <text id="Hi," font-family="Comfortaa-Regular_Bold, Comfortaa" font-size="42" font-weight="bold" line-spacing="38" letter-spacing="1.296" fill="#6DE4FF">
                <tspan x="238" y="173.098202">Hi,</tspan>
            </text>
            <text id="do" font-family="Comfortaa-Regular_Bold, Comfortaa" font-size="42" font-weight="bold" line-spacing="38" letter-spacing="1.296" fill="#6DE4FF">
                <tspan x="438" y="207.098202">do</tspan>
            </text>
            <text id="you" font-family="Comfortaa-Regular_Bold, Comfortaa" font-size="42" font-weight="bold" line-spacing="38" letter-spacing="1.296" fill="#6DE4FF">
                <tspan x="594" y="178.098202">you</tspan>
            </text>
            <text id="love-copy" font-family="Comfortaa-Regular_Bold, Comfortaa" font-size="42" font-weight="bold" line-spacing="38" letter-spacing="1.296" fill="#6DE4FF">
                <tspan x="229" y="328.098202">love</tspan>
            </text>
            <text id="?" font-family="Comfortaa-Regular_Bold, Comfortaa" font-size="54" font-weight="bold" line-spacing="38" letter-spacing="1.666285" fill="#6DE4FF">
                <tspan x="610" y="353.098202">?</tspan>
            </text>
            <text id="!" font-family="Comfortaa-Regular_Bold, Comfortaa" font-size="54" font-weight="bold" line-spacing="38" letter-spacing="1.666285" fill="#6DE4FF">
                <tspan x="627" y="515.098202">!</tspan>
            </text>
            <text id="too" font-family="Comfortaa-Regular_Bold, Comfortaa" font-size="42" font-weight="bold" line-spacing="38" fill="#6DE4FF">
                <tspan x="402" y="486.098202">too</tspan>
            </text>
            <text id="Me-Copy" font-family="Comfortaa-Regular_Bold, Comfortaa" font-size="42" font-weight="bold" line-spacing="38" letter-spacing="1.295999" fill="#6DE4FF">
                <tspan x="238" y="483.098202">Me</tspan>
            </text>
        </g>
    </g>
</svg>