<?xml version="1.0" encoding="utf-8"?>
<!-- Generator: Adobe Illustrator 22.1.0, SVG Export Plug-In . SVG Version: 6.00 Build 0)  -->
<svg version="1.1" id="Слой_1" xmlns="http://www.w3.org/2000/svg" xmlns:xlink="http://www.w3.org/1999/xlink" x="0px" y="0px"
	 viewBox="0 0 1530 310" style="enable-background:new 0 0 1530 310;" xml:space="preserve">
<style type="text/css">
	.st0{fill:url(#Rectangle_1_);}
	.st1{opacity:0.5014;fill:#45B8FF;enable-background:new    ;}
	.st2{fill:#FFFFFF;}
</style>
<title>Group 15 Copy</title>
<desc>Created with Sketch.</desc>
<g id="_x36_" transform="translate(0.000000, -409.000000)">
	<g id="Group-15-Copy" transform="translate(0.000000, 409.000000)">
		
			<linearGradient id="Rectangle_1_" gradientUnits="userSpaceOnUse" x1="459.2" y1="550.7853" x2="459.2" y2="549.118" gradientTransform="matrix(1530 0 0 -200 -701811 110270)">
			<stop  offset="0" style="stop-color:#245FAB"/>
			<stop  offset="0.9996" style="stop-color:#142E50"/>
		</linearGradient>
		<rect id="Rectangle" y="110" class="st0" width="1530" height="200"/>
		<g id="get-started" transform="translate(587.000000, 169.000000)">
		</g>
		<path id="Combined-Shape" class="st1" d="M389.8,309.6c-1.3-4.3-3-8.4-4.9-12.4c-11-22.3-56.3-17.4-91.3-52.8
			s-56.9-53.6-45.9-51.3c29.6,6.1,82.2,27.9,113.9,59.2c16.8,16.6,28.4,34.8,34.8,54.6c-4.5-25.8-12.6-72.4-47.3-80.5
			c-47.5-11.1-65.3-60.8-84.2-73.6c-18.9-12.8-46.4-13-35.2-17.8c17.6-7.6,109.5,10.6,136.6,58.3c7,12.4,13.2,27.4,18.4,42.7
			c-0.9-4.5-1.8-8.6-2.6-12.2c-11.7-51.1-26.2-64.3-28.5-108.9C351,68.2,371.9,87,391.6,2.5c2.8-12.1,25,19.7,22.9,96.7
			c-1,35.1-19.5,82.1-19.4,134c0,11.8,4,28.9,7.8,49.3c-2.2-36.2-1.5-64.8,2.1-85.7c7.4-42.3,37.9-88.6,59.6-104.2
			c6.3-4.6,4.2,16.3-3.6,63.8c-7.7,47.5-43.2,69.4-48.1,91.3c-1.9,8.6-2.8,20.8-2.8,36.6c4-14.2,10.5-28.1,19.5-41.7
			c25-37.8,72.7-69.8,100.7-81.6c10.4-4.4-7.6,18.3-35.1,60.8c-7.1,11-15.4,19.3-23.9,26.2c0.2,15.1-1.2,31.2-5.2,44.9
			c-1.8,6-3.9,11.6-6.4,16.8h-8.2c0.6-11.6-4.4-27.9-2.2-46.8c-16.5,9.9-30.4,17-33.8,29.8c-1.4,5.4-2.3,11.1-2.6,17H389.8z
			 M480.5,309.6h-6.4c5-22.1,10.7-39.4,17-52c13.9-27.8,46-55,65.6-62.7c5.7-2.2,0,11.7-15.1,42.9c-15.1,31.2-46.4,41.2-54.3,55.5
			C485.1,297.3,482.8,302.7,480.5,309.6z M497.7,309.6h-8.6c4.2-7.6,9.7-14.8,16.5-21.5c19.9-19.5,52.3-32.3,70.3-35.5
			c6.7-1.2-7,10.1-28.9,32.1C529.8,302,509.2,303.1,497.7,309.6z M298.6,309.6h-5.9c-4-9.8-7.7-17.2-11.3-22.2
			c-9.4-13.3-41.5-20-59.8-49.5s-25.4-42.7-19.5-41.1c20.2,5.6,55,29.3,71.8,55.5C282.2,265.5,290.5,284.6,298.6,309.6z
			 M284.7,309.6h-5.9c-10.5-9.3-34.9-4.9-57-22.9c-24.1-19.6-38.9-29.4-32.1-28.9c18.3,1.3,51.9,10.6,73.7,28
			C272.2,292.8,279.3,300.7,284.7,309.6z M1137.8,310h-7.3c5.6-29.9,11.9-53.4,19.1-70.4c15.7-37.3,52.3-73.7,74.6-83.8
			c6.5-2.9,0.1,15.8-16.9,57.7s-52.8,55.1-61.8,74.2C1143,293.2,1140.4,300.6,1137.8,310z M1157.4,310h-9.7c4.8-10.3,11-20,18.8-29
			c22.6-26.1,59.7-43,80.4-47.1c7.7-1.5-7.9,13.5-32.9,43C1194.3,300.1,1170.5,301.2,1157.4,310z M1116.6,310h-11.7
			c-0.6-16-7.1-38.2,0.6-63.4c10.8-35.3,15.2-56.2,17.2-48c5.4,22.2,8.5,65.1-0.9,96.9C1120.3,300.6,1118.6,305.4,1116.6,310z
			 M1327,221.8c5.2-0.1-3.4,9.3-24.7,29.7s-43.8,20.1-59.9,28.2c-16.1,8.1-28.9,19.2-24.4,11.4c4.4-7.8,18.7-20.7,37.9-38.7
			C1275.2,234.4,1309,222.1,1327,221.8z M1338.2,282.6c14.9,0.1-12.9,12.6-37.8,11.3s-44.8,0.2-55,3.3c-10.2,3.1,2.6-12.2,25.4-18.7
			C1293.6,271.9,1311.2,282.3,1338.2,282.6z"/>
		<path id="Combined-Shape_1_" class="st2" d="M565.1,169c1.1,0,2,0.9,2,2s-0.9,2-2,2c-1.1,0-2-0.9-2-2S564,169,565.1,169z
			 M870.1,142c1.1,0,2,0.9,2,2s-0.9,2-2,2c-1.1,0-2-0.9-2-2S869,142,870.1,142z M1264.1,202c1.1,0,2,0.9,2,2s-0.9,2-2,2
			c-1.1,0-2-0.9-2-2S1263,202,1264.1,202z M1002.6,253c1.4,0,2.5,1.2,2.5,2.5c0,1.4-1.2,2.5-2.5,2.5c-1.4,0-2.5-1.2-2.5-2.5
			C1000.1,254.1,1001.2,253,1002.6,253z"/>
	</g>
</g>
</svg>
