<?xml version="1.0" encoding="UTF-8"?>
<svg width="651px" height="620px" viewBox="0 0 651 620" version="1.1" xmlns="http://www.w3.org/2000/svg" xmlns:xlink="http://www.w3.org/1999/xlink">
    <!-- Generator: Sketch 53.2 (72643) - https://sketchapp.com -->
    <title>Group 4</title>
    <desc>Created with Sketch.</desc>
    <defs>
        <linearGradient x1="50%" y1="1.47012247%" x2="50%" y2="99.8830213%" id="linearGradient-1">
            <stop stop-color="#245FAB" offset="0%"></stop>
            <stop stop-color="#142E50" offset="99.9604096%"></stop>
        </linearGradient>
        <rect id="path-2" x="0" y="0.99796334" width="250" height="489.002037" rx="40"></rect>
        <filter x="-14.8%" y="-6.7%" width="128.8%" height="114.7%" filterUnits="objectBoundingBox" id="filter-3">
            <feMorphology radius="3" operator="dilate" in="SourceAlpha" result="shadowSpreadOuter1"></feMorphology>
            <feOffset dx="-1" dy="3" in="shadowSpreadOuter1" result="shadowOffsetOuter1"></feOffset>
            <feGaussianBlur stdDeviation="8.5" in="shadowOffsetOuter1" result="shadowBlurOuter1"></feGaussianBlur>
            <feColorMatrix values="0 0 0 0 0.368526519   0 0 0 0 0.489322469   0 0 0 0 0.582257699  0 0 0 0.348776224 0" type="matrix" in="shadowBlurOuter1"></feColorMatrix>
        </filter>
        <path d="M27,288 L285,288 C299.911688,288 312,300.088312 312,315 L312,345 C312,359.911688 299.911688,372 285,372 L27,372 C12.0883118,372 1.82615513e-15,359.911688 0,345 L0,315 C-1.82615513e-15,300.088312 12.0883118,288 27,288 Z M27,192 L269,192 C283.911688,192 296,204.088312 296,219 L296,249 C296,263.911688 283.911688,276 269,276 L27,276 C12.0883118,276 1.82615513e-15,263.911688 0,249 L0,219 C-1.82615513e-15,204.088312 12.0883118,192 27,192 Z M27,96 L253,96 C267.911688,96 280,108.088312 280,123 L280,153 C280,167.911688 267.911688,180 253,180 L27,180 C12.0883118,180 1.82615513e-15,167.911688 0,153 L0,123 C-1.82615513e-15,108.088312 12.0883118,96 27,96 Z M27,0 L237,3.55271368e-15 C251.911688,8.13480987e-16 264,12.0883118 264,27 L264,57 C264,71.9116882 251.911688,84 237,84 L27,84 C12.0883118,84 1.82615513e-15,71.9116882 0,57 L0,27 C-1.82615513e-15,12.0883118 12.0883118,2.73923269e-15 27,0 Z" id="path-4"></path>
        <filter x="-2.2%" y="-1.3%" width="104.5%" height="103.8%" filterUnits="objectBoundingBox" id="filter-5">
            <feMorphology radius="1.5" operator="erode" in="SourceAlpha" result="shadowSpreadOuter1"></feMorphology>
            <feOffset dx="0" dy="2" in="shadowSpreadOuter1" result="shadowOffsetOuter1"></feOffset>
            <feGaussianBlur stdDeviation="3.5" in="shadowOffsetOuter1" result="shadowBlurOuter1"></feGaussianBlur>
            <feColorMatrix values="0 0 0 0 0.666535488   0 0 0 0 0.764391284   0 0 0 0 0.823228034  0 0 0 1 0" type="matrix" in="shadowBlurOuter1"></feColorMatrix>
        </filter>
        <circle id="path-6" cx="25" cy="25" r="25"></circle>
        <filter x="-7.0%" y="-5.0%" width="114.0%" height="114.0%" filterUnits="objectBoundingBox" id="filter-7">
            <feMorphology radius="2.5" operator="erode" in="SourceAlpha" result="shadowSpreadOuter1"></feMorphology>
            <feOffset dx="0" dy="1" in="shadowSpreadOuter1" result="shadowOffsetOuter1"></feOffset>
            <feGaussianBlur stdDeviation="3.5" in="shadowOffsetOuter1" result="shadowBlurOuter1"></feGaussianBlur>
            <feColorMatrix values="0 0 0 0 0.360784314   0 0 0 0 0.466666667   0 0 0 0 0.615686275  0 0 0 1 0" type="matrix" in="shadowBlurOuter1"></feColorMatrix>
        </filter>
    </defs>
    <g id="Page-1" stroke="none" stroke-width="1" fill="none" fill-rule="evenodd">
        <g id="Group-2-Copy-2" transform="translate(-78.000000, -106.000000)">
            <g id="Group-3" transform="translate(34.000000, 0.000000)">
                <g id="Group-4" transform="translate(44.321426, 106.000000)">
                    <ellipse id="Oval" fill="url(#linearGradient-1)" cx="340.678574" cy="310" rx="280" ry="310"></ellipse>
                    <path d="M243.715735,529.349736 L237.314502,531.88215 C233.639103,522.924223 228.943423,515.079838 223.227462,508.348997 C207.147573,489.414091 164.353779,505.070699 121.84697,479.240044 C79.340161,453.40939 53.6667176,441.008925 64.8615304,440.558057 C95.0375111,439.342728 151.365622,447.727307 189.669453,470.440946 C210.002464,482.498139 225.667907,497.36473 236.665781,515.04072 C226.035573,491.083651 206.953795,447.843009 171.266458,448.338783 C122.521837,449.01595 93.1742193,405.178805 71.748535,397.305116 C50.3228508,389.431426 23.5909937,395.904726 33.2674983,388.561546 C48.5424442,376.969892 142.062681,372.321995 179.886823,412.079231 C195.348629,428.33125 210.370492,451.407346 222.211761,472.881127 C216.349543,458.505062 211.199779,446.941681 206.762468,438.190985 C183.069841,391.467423 163.108285,380 152.394391,346 C138.368158,301.488461 158.400426,304.622231 158.400426,220.794003 C158.400426,180.412844 185.999769,233.521142 202.575189,308.745508 C210.121299,342.992084 204.032571,391.076658 216.677255,441.43024 C221.288963,459.794953 240.264501,491.56724 252.19244,527.57386 C252.487575,528.464776 250.523512,529.206328 246.300252,529.798517 C246.167963,530.387808 245.851749,530.636403 245.339115,530.505889 C245.076029,530.438909 244.800599,530.276348 244.511951,530.024964 C244.33804,530.044914 244.161186,530.064669 243.98139,530.08423 C243.892737,529.838997 243.804185,529.594166 243.715735,529.349736 Z M3.27871807,448.768751 C24.2322765,449.649041 63.4953425,464.946652 85.6704249,486.684604 C107.845507,508.422556 124.248677,523.949854 129.282267,533.242163 C134.315857,542.534472 119.559391,529.162437 100.960914,519.162038 C82.3624368,509.16164 56.0272681,509.000623 31.5624867,484.411447 C7.09770534,459.822272 -2.82169254,448.512463 3.27871807,448.768751 Z M4.79142089,527.913297 C36.253232,526.189391 55.9906642,513.029071 83.0562777,519.507379 C110.121891,525.985688 126.103742,543.344348 114.014277,540.234961 C101.924812,537.125573 78.5361738,536.296045 49.6362756,539.215321 C20.7363773,542.134598 -12.5828119,528.865294 4.79142089,527.913297 Z M488.794468,517.869736 C490.849602,517.185255 492.686185,516.498492 494.304218,515.809446 C506.86514,510.460326 520.331193,502.341301 533.365427,499.794104 C567.106601,493.200284 604.940513,499.263645 625.062152,507.667031 C632.526963,510.784554 613.07965,513.412696 575.424965,521.174578 C537.770281,528.936459 513.910887,513.581265 496.568825,523.038148 C487.321881,528.080644 485.946992,556.598426 472.369342,556.9193 C464.691089,557.100757 462.405586,549.063659 465.512831,532.808006 C464.917429,523.265753 467.708251,509.543719 478.765071,492.925893 C479.243079,489.927966 479.626531,487.16553 479.865605,484.759731 C481.885026,464.438362 459.040165,436.563309 465.644339,393.136573 C472.248513,349.709838 476.187877,330.893794 480.072867,336.424192 C493.416946,355.419887 505.57081,403.322293 500.102476,442.188759 C498.635671,452.614151 496.533365,465.005771 494.099132,477.593408 C495.853356,476.100811 497.685225,474.570139 499.555567,473.024921 C512.243085,428.964352 510.202501,385.06357 518.649182,355.071677 C537.830228,286.964941 564.433152,244.617886 563.760725,275.877334 C562.286095,344.4292 564.778152,346.47495 561.510673,380.476595 C557.576153,421.419526 531.312448,427.009463 508.272697,465.912569 C518.001194,458.039736 527.164493,450.731712 530.473863,447.165062 C564.079037,410.947319 638.04521,415.264735 649.166415,425.846785 C656.211571,432.550393 635.524953,426.625418 617.787063,433.786279 C600.049172,440.947139 571.436183,471.101795 532.012643,479.127106 C511.398356,483.323483 497.882962,501.362136 488.794468,517.869736 Z" id="Combined-Shape" fill="#245FAB"></path>
                    <path d="M193.126221,380 C192.021652,380 191.126221,379.104569 191.126221,378 C191.126221,376.895431 192.021652,376 193.126221,376 C194.230791,376 195.126221,376.895431 195.126221,378 C195.126221,379.104569 194.230791,380 193.126221,380 Z M176.626221,344 C175.797794,344 175.126221,343.328427 175.126221,342.5 C175.126221,341.671573 175.797794,341 176.626221,341 C177.454648,341 178.126221,341.671573 178.126221,342.5 C178.126221,343.328427 177.454648,344 176.626221,344 Z M170.164888,430.383366 C169.294476,431.063407 168.037585,430.90908 167.357544,430.038667 C166.677503,429.168255 166.83183,427.911364 167.702243,427.231323 C168.572655,426.551282 169.829546,426.705609 170.509587,427.576022 C171.189628,428.446434 171.035301,429.703325 170.164888,430.383366 Z M121.155222,411.287524 C120.502412,411.797555 119.559744,411.68181 119.049713,411.029001 C118.539683,410.376191 118.655428,409.433523 119.308237,408.923492 C119.961047,408.413462 120.903715,408.529207 121.413746,409.182016 C121.923776,409.834826 121.808031,410.777494 121.155222,411.287524 Z M140.155222,407.287524 C139.502412,407.797555 138.559744,407.68181 138.049713,407.029001 C137.539683,406.376191 137.655428,405.433523 138.308237,404.923492 C138.961047,404.413462 139.903715,404.529207 140.413746,405.182016 C140.923776,405.834826 140.808031,406.777494 140.155222,407.287524 Z M542.126221,383 C541.021652,383 540.126221,382.104569 540.126221,381 C540.126221,379.895431 541.021652,379 542.126221,379 C543.230791,379 544.126221,379.895431 544.126221,381 C544.126221,382.104569 543.230791,383 542.126221,383 Z M556.626221,347 C555.797794,347 555.126221,346.328427 555.126221,345.5 C555.126221,344.671573 555.797794,344 556.626221,344 C557.454648,344 558.126221,344.671573 558.126221,345.5 C558.126221,346.328427 557.454648,347 556.626221,347 Z M576.308237,434.287524 C575.655428,433.777494 575.539683,432.834826 576.049713,432.182016 C576.559744,431.529207 577.502412,431.413462 578.155222,431.923492 C578.808031,432.433523 578.923776,433.376191 578.413746,434.029001 C577.903715,434.68181 576.961047,434.797555 576.308237,434.287524 Z" id="Combined-Shape" fill="#FFFFFF"></path>
                    <g id="phone" transform="translate(215.904637, 65.000000)">
                        <g id="Group-8">
                            <g id="Rectangle">
                                <use fill="black" fill-opacity="1" filter="url(#filter-3)" xlink:href="#path-2"></use>
                                <use fill="#F6FAFF" fill-rule="evenodd" xlink:href="#path-2"></use>
                            </g>
                            <path d="M30,0.99796334 L220,0.99796334 C236.568542,0.99796334 250,14.4294208 250,30.9979633 L250,56.9979633 L0,56.9979633 L0,30.9979633 C-2.02906125e-15,14.4294208 13.4314575,0.99796334 30,0.99796334 Z" id="Rectangle-Copy-3" fill="#45B8FF"></path>
                            <rect id="Rectangle-Copy" stroke="#000000" stroke-width="12" x="-6" y="-5.00203666" width="262" height="501.002037" rx="40"></rect>
                            <path d="M57,0 L193,0 L193,6 C193,11.5228475 188.522847,16 183,16 L67,16 C61.4771525,16 57,11.5228475 57,6 L57,0 Z" id="Rectangle" fill="#000000"></path>
                            <path d="M106,3 L144,3 C145.104569,3 146,3.8954305 146,5 C146,6.1045695 145.104569,7 144,7 L106,7 C104.895431,7 104,6.1045695 104,5 C104,3.8954305 104.895431,3 106,3 Z M152,3 C153.104569,3 154,3.8954305 154,5 C154,6.1045695 153.104569,7 152,7 C150.895431,7 150,6.1045695 150,5 C150,3.8954305 150.895431,3 152,3 Z" id="Combined-Shape" fill="#1A1A1A"></path>
                            <path d="M66.282,44.22 C65.9006648,44.22 65.5963345,44.1173344 65.369,43.912 C65.1416655,43.7066656 65.028,43.4206685 65.028,43.054 L65.028,33.682 C65.028,32.0246584 65.5009953,30.7266714 66.447,29.788 C67.3930047,28.8493286 68.6873251,28.38 70.33,28.38 C71.1660042,28.38 71.9543296,28.5926645 72.695,29.018 C73.4356704,29.4433355 74.0406643,30.0299963 74.51,30.778 C74.9793357,30.0153295 75.580663,29.4250021 76.314,29.007 C77.047337,28.5889979 77.8539956,28.38 78.734,28.38 C80.3913416,28.38 81.685662,28.8493286 82.617,29.788 C83.548338,30.7266714 84.014,32.0246584 84.014,33.682 L84.014,43.054 C84.014,43.4060018 83.9003345,43.6883323 83.673,43.901 C83.4456655,44.1136677 83.1413352,44.22 82.76,44.22 C82.3786648,44.22 82.0743345,44.1173344 81.847,43.912 C81.6196655,43.7066656 81.506,43.4206685 81.506,43.054 L81.506,33.682 C81.506,32.552661 81.2823356,31.7240026 80.835,31.196 C80.3876644,30.6679974 79.6580051,30.404 78.646,30.404 C77.7219954,30.404 77.0106692,30.6899971 76.512,31.262 C76.0133308,31.8340029 75.764,32.6406615 75.764,33.682 L75.764,43.054 C75.764,43.4206685 75.6503345,43.7066656 75.423,43.912 C75.1956655,44.1173344 74.8913352,44.22 74.51,44.22 C74.1286648,44.22 73.8316677,44.1173344 73.619,43.912 C73.4063323,43.7066656 73.3,43.4206685 73.3,43.054 L73.3,33.682 C73.3,32.6553282 73.0433359,31.8523362 72.53,31.273 C72.0166641,30.6936638 71.3126711,30.404 70.418,30.404 C69.3913282,30.404 68.6543356,30.6679974 68.207,31.196 C67.7596644,31.7240026 67.536,32.552661 67.536,33.682 L67.536,43.054 C67.536,43.4060018 67.4223345,43.6883323 67.195,43.901 C66.9676655,44.1136677 66.6633352,44.22 66.282,44.22 Z M91.769,49.5 C90.698328,49.5 89.726671,49.3350016 88.854,49.005 C87.981329,48.6749983 87.3250022,48.2240029 86.885,47.652 C86.7236659,47.4173322 86.643,47.1973344 86.643,46.992 C86.643,46.6693317 86.7969985,46.3833346 87.105,46.134 C87.2956676,46.0019993 87.5009989,45.936 87.721,45.936 C88.0876685,45.936 88.4176652,46.104665 88.711,46.442 C89.0336683,46.7940018 89.4553307,47.0653324 89.976,47.256 C90.4966693,47.4466676 91.0723302,47.542 91.703,47.542 C92.832339,47.542 93.7049969,47.2266698 94.321,46.596 C94.9370031,45.9653302 95.245,45.0706725 95.245,43.912 L95.245,42.79 C94.8636648,43.2153355 94.3723363,43.5526654 93.771,43.802 C93.1696637,44.0513346 92.5536698,44.176 91.923,44.176 C90.1043242,44.176 88.6853384,43.681005 87.666,42.691 C86.6466616,41.7009951 86.137,40.3186755 86.137,38.544 L86.137,34.1 C86.137,33.7919985 86.2543322,33.5316677 86.489,33.319 C86.7236678,33.1063323 87.0243315,33 87.391,33 C87.728335,33 88.0143322,33.1063323 88.249,33.319 C88.4836678,33.5316677 88.601,33.7919985 88.601,34.1 L88.601,38.544 C88.601,39.7173392 88.8943304,40.6303301 89.481,41.283 C90.0676696,41.9356699 90.8816615,42.262 91.923,42.262 C92.9350051,42.262 93.7233305,41.9430032 94.288,41.305 C94.8526695,40.6669968 95.135,39.7686725 95.135,38.61 L95.135,34.32 C95.135,33.9093313 95.2449989,33.5866678 95.465,33.352 C95.6850011,33.1173322 95.992998,33 96.389,33 C96.785002,33 97.0929989,33.1173322 97.313,33.352 C97.5330011,33.5866678 97.643,33.9093313 97.643,34.32 L97.643,43.626 C97.643,45.4446758 97.1186719,46.8783281 96.07,47.927 C95.0213281,48.9756719 93.5876758,49.5 91.769,49.5 Z M107.389,44.22 C107.007665,44.22 106.707001,44.1173344 106.487,43.912 C106.266999,43.7066656 106.157,43.4206685 106.157,43.054 L106.157,28.468 C106.157,28.1013315 106.266999,27.8153344 106.487,27.61 C106.707001,27.4046656 107.007665,27.302 107.389,27.302 C107.770335,27.302 108.070999,27.4046656 108.291,27.61 C108.511001,27.8153344 108.621,28.1013315 108.621,28.468 L108.621,43.054 C108.621,43.4060018 108.507334,43.6883323 108.28,43.901 C108.052666,44.1136677 107.755668,44.22 107.389,44.22 Z M117.168,44.22 C115.90666,44.22 114.810338,43.9963356 113.879,43.549 C112.947662,43.1016644 112.236336,42.4600042 111.745,41.624 C111.253664,40.7879958 111.008,39.7980057 111.008,38.654 C111.008,36.8793245 111.535995,35.4933383 112.592,34.496 C113.648005,33.4986617 115.114657,33 116.992,33 C118.150672,33 119.177329,33.1833315 120.072,33.55 C120.966671,33.9166685 121.663331,34.4263301 122.162,35.079 C122.660669,35.7316699 122.91,36.4759958 122.91,37.312 C122.91,37.98667 122.704669,38.5073315 122.294,38.874 C121.883331,39.2406685 121.304004,39.424 120.556,39.424 L113.428,39.424 C113.428,40.3333379 113.750663,41.0373308 114.396,41.536 C115.041337,42.0346692 115.965327,42.284 117.168,42.284 C117.857337,42.284 118.465997,42.2106674 118.994,42.064 C119.522003,41.9173326 120.013331,41.6826683 120.468,41.36 C120.893335,41.0813319 121.215999,40.942 121.436,40.942 C121.626668,40.942 121.824666,41.0446656 122.03,41.25 C122.264668,41.4700011 122.382,41.7119987 122.382,41.976 C122.382,42.2546681 122.257335,42.4893324 122.008,42.68 C120.775994,43.7066718 119.162677,44.22 117.168,44.22 Z M119.808,37.642 C120.057335,37.642 120.240666,37.5906672 120.358,37.488 C120.475334,37.3853328 120.534,37.2093346 120.534,36.96 C120.534,36.3586637 120.211337,35.8710019 119.566,35.497 C118.920663,35.1229981 118.062672,34.936 116.992,34.936 C115.906661,34.936 115.04867,35.1816642 114.418,35.673 C113.78733,36.1643358 113.472,36.8206626 113.472,37.642 L119.808,37.642 Z M130.005,44.22 C128.802327,44.22 127.772004,44.0330019 126.914,43.659 C126.055996,43.2849981 125.363003,42.7753366 124.835,42.13 C124.658999,41.8806654 124.571,41.6460011 124.571,41.426 C124.571,41.0739982 124.739665,40.7953344 125.077,40.59 C125.282334,40.4726661 125.472999,40.414 125.649,40.414 C125.927668,40.414 126.206332,40.5533319 126.485,40.832 C126.983669,41.3306692 127.493331,41.6936655 128.014,41.921 C128.534669,42.1483345 129.161663,42.262 129.895,42.262 C130.56967,42.262 131.119665,42.1666676 131.545,41.976 C131.970335,41.7853324 132.183,41.5286683 132.183,41.206 C132.183,40.9566654 132.106001,40.7476675 131.952,40.579 C131.797999,40.4103325 131.530335,40.2453341 131.149,40.084 C130.767665,39.9226659 130.173671,39.7100013 129.367,39.446 C127.812326,38.9473308 126.716003,38.4376693 126.078,37.917 C125.439997,37.3963307 125.121,36.7326707 125.121,35.926 C125.121,35.0166621 125.509663,34.3016693 126.287,33.781 C127.064337,33.2603307 128.120327,33 129.455,33 C130.467005,33 131.390996,33.1613317 132.227,33.484 C133.063004,33.8066683 133.678998,34.2319974 134.075,34.76 C134.236334,34.9653344 134.317,35.1853322 134.317,35.42 C134.317,35.7133348 134.163002,35.9626656 133.855,36.168 C133.664332,36.3000007 133.444335,36.366 133.195,36.366 C132.857665,36.366 132.520335,36.2120015 132.183,35.904 C131.522997,35.2733302 130.606339,34.958 129.433,34.958 C128.215661,34.958 127.607,35.2806634 127.607,35.926 C127.607,36.1753346 127.687666,36.3806659 127.849,36.542 C128.010334,36.7033341 128.292665,36.8609992 128.696,37.015 C129.099335,37.1690008 129.755662,37.3926652 130.665,37.686 C131.662338,37.9940015 132.446997,38.3093317 133.019,38.632 C133.591003,38.9546683 134.001665,39.3176646 134.251,39.721 C134.500335,40.1243354 134.625,40.6193304 134.625,41.206 C134.625,42.1153379 134.214337,42.8449972 133.393,43.395 C132.571663,43.9450028 131.442341,44.22 130.005,44.22 Z M141.72,44.22 C140.517327,44.22 139.487004,44.0330019 138.629,43.659 C137.770996,43.2849981 137.078003,42.7753366 136.55,42.13 C136.373999,41.8806654 136.286,41.6460011 136.286,41.426 C136.286,41.0739982 136.454665,40.7953344 136.792,40.59 C136.997334,40.4726661 137.187999,40.414 137.364,40.414 C137.642668,40.414 137.921332,40.5533319 138.2,40.832 C138.698669,41.3306692 139.208331,41.6936655 139.729,41.921 C140.249669,42.1483345 140.876663,42.262 141.61,42.262 C142.28467,42.262 142.834665,42.1666676 143.26,41.976 C143.685335,41.7853324 143.898,41.5286683 143.898,41.206 C143.898,40.9566654 143.821001,40.7476675 143.667,40.579 C143.512999,40.4103325 143.245335,40.2453341 142.864,40.084 C142.482665,39.9226659 141.888671,39.7100013 141.082,39.446 C139.527326,38.9473308 138.431003,38.4376693 137.793,37.917 C137.154997,37.3963307 136.836,36.7326707 136.836,35.926 C136.836,35.0166621 137.224663,34.3016693 138.002,33.781 C138.779337,33.2603307 139.835327,33 141.17,33 C142.182005,33 143.105996,33.1613317 143.942,33.484 C144.778004,33.8066683 145.393998,34.2319974 145.79,34.76 C145.951334,34.9653344 146.032,35.1853322 146.032,35.42 C146.032,35.7133348 145.878002,35.9626656 145.57,36.168 C145.379332,36.3000007 145.159335,36.366 144.91,36.366 C144.572665,36.366 144.235335,36.2120015 143.898,35.904 C143.237997,35.2733302 142.321339,34.958 141.148,34.958 C139.930661,34.958 139.322,35.2806634 139.322,35.926 C139.322,36.1753346 139.402666,36.3806659 139.564,36.542 C139.725334,36.7033341 140.007665,36.8609992 140.411,37.015 C140.814335,37.1690008 141.470662,37.3926652 142.38,37.686 C143.377338,37.9940015 144.161997,38.3093317 144.734,38.632 C145.306003,38.9546683 145.716665,39.3176646 145.966,39.721 C146.215335,40.1243354 146.34,40.6193304 146.34,41.206 C146.34,42.1153379 145.929337,42.8449972 145.108,43.395 C144.286663,43.9450028 143.157341,44.22 141.72,44.22 Z M154.359,44.22 C153.082994,44.22 151.961005,43.9816691 150.993,43.505 C150.024995,43.0283309 149.280669,42.3646709 148.76,41.514 C148.239331,40.6633291 147.979,39.6953388 147.979,38.61 C147.979,37.5246612 148.239331,36.5566709 148.76,35.706 C149.280669,34.8553291 150.024995,34.1916691 150.993,33.715 C151.961005,33.2383309 153.082994,33 154.359,33 C155.635006,33 156.756995,33.2383309 157.725,33.715 C158.693005,34.1916691 159.437331,34.8553291 159.958,35.706 C160.478669,36.5566709 160.739,37.5246612 160.739,38.61 C160.739,39.6953388 160.478669,40.6633291 159.958,41.514 C159.437331,42.3646709 158.693005,43.0283309 157.725,43.505 C156.756995,43.9816691 155.635006,44.22 154.359,44.22 Z M154.359,42.24 C155.547006,42.24 156.492996,41.9173366 157.197,41.272 C157.901004,40.6266634 158.253,39.739339 158.253,38.61 C158.253,37.480661 157.901004,36.5933366 157.197,35.948 C156.492996,35.3026634 155.547006,34.98 154.359,34.98 C153.156327,34.98 152.20667,35.3026634 151.51,35.948 C150.81333,36.5933366 150.465,37.480661 150.465,38.61 C150.465,39.739339 150.81333,40.6266634 151.51,41.272 C152.20667,41.9173366 153.156327,42.24 154.359,42.24 Z M163.61,44.22 C163.228665,44.22 162.928001,44.1173344 162.708,43.912 C162.487999,43.7066656 162.378,43.4206685 162.378,43.054 L162.378,34.166 C162.378,33.7993315 162.484332,33.5133344 162.697,33.308 C162.909668,33.1026656 163.199332,33 163.566,33 C163.947335,33 164.244332,33.1026656 164.457,33.308 C164.669668,33.5133344 164.776,33.7993315 164.776,34.166 L164.776,35.024 C165.861339,33.6746599 167.313324,33 169.132,33 C170.52534,33 171.621663,33.4253291 172.421,34.276 C173.220337,35.1266709 173.62,36.2999925 173.62,37.796 L173.62,43.054 C173.62,43.4206685 173.506334,43.7066656 173.279,43.912 C173.051666,44.1173344 172.747335,44.22 172.366,44.22 C171.984665,44.22 171.687668,44.1173344 171.475,43.912 C171.262332,43.7066656 171.156,43.4206685 171.156,43.054 L171.156,37.796 C171.156,36.8866621 170.936002,36.1900024 170.496,35.706 C170.055998,35.2219976 169.432671,34.98 168.626,34.98 C167.452661,34.98 166.52867,35.3283299 165.854,36.025 C165.17933,36.7216702 164.842,37.6639941 164.842,38.852 L164.842,43.054 C164.842,43.4060018 164.728334,43.6883323 164.501,43.901 C164.273666,44.1136677 163.976669,44.22 163.61,44.22 Z M180.935,44.22 C179.732327,44.22 178.702004,44.0330019 177.844,43.659 C176.985996,43.2849981 176.293003,42.7753366 175.765,42.13 C175.588999,41.8806654 175.501,41.6460011 175.501,41.426 C175.501,41.0739982 175.669665,40.7953344 176.007,40.59 C176.212334,40.4726661 176.402999,40.414 176.579,40.414 C176.857668,40.414 177.136332,40.5533319 177.415,40.832 C177.913669,41.3306692 178.423331,41.6936655 178.944,41.921 C179.464669,42.1483345 180.091663,42.262 180.825,42.262 C181.49967,42.262 182.049665,42.1666676 182.475,41.976 C182.900335,41.7853324 183.113,41.5286683 183.113,41.206 C183.113,40.9566654 183.036001,40.7476675 182.882,40.579 C182.727999,40.4103325 182.460335,40.2453341 182.079,40.084 C181.697665,39.9226659 181.103671,39.7100013 180.297,39.446 C178.742326,38.9473308 177.646003,38.4376693 177.008,37.917 C176.369997,37.3963307 176.051,36.7326707 176.051,35.926 C176.051,35.0166621 176.439663,34.3016693 177.217,33.781 C177.994337,33.2603307 179.050327,33 180.385,33 C181.397005,33 182.320996,33.1613317 183.157,33.484 C183.993004,33.8066683 184.608998,34.2319974 185.005,34.76 C185.166334,34.9653344 185.247,35.1853322 185.247,35.42 C185.247,35.7133348 185.093002,35.9626656 184.785,36.168 C184.594332,36.3000007 184.374335,36.366 184.125,36.366 C183.787665,36.366 183.450335,36.2120015 183.113,35.904 C182.452997,35.2733302 181.536339,34.958 180.363,34.958 C179.145661,34.958 178.537,35.2806634 178.537,35.926 C178.537,36.1753346 178.617666,36.3806659 178.779,36.542 C178.940334,36.7033341 179.222665,36.8609992 179.626,37.015 C180.029335,37.1690008 180.685662,37.3926652 181.595,37.686 C182.592338,37.9940015 183.376997,38.3093317 183.949,38.632 C184.521003,38.9546683 184.931665,39.3176646 185.181,39.721 C185.430335,40.1243354 185.555,40.6193304 185.555,41.206 C185.555,42.1153379 185.144337,42.8449972 184.323,43.395 C183.501663,43.9450028 182.372341,44.22 180.935,44.22 Z" id="Mylessons" fill="#FFFFFF" fill-rule="nonzero"></path>
                        </g>
                        <g id="уроки" transform="translate(17.000000, 70.000000)">
                            <g id="Combined-Shape">
                                <use fill="black" fill-opacity="1" filter="url(#filter-5)" xlink:href="#path-4"></use>
                                <use fill="#FFFFFF" fill-rule="evenodd" xlink:href="#path-4"></use>
                            </g>
                            <text id="4.-Help-me!" font-family="Arial-BoldMT, Arial" font-size="16" font-weight="bold" letter-spacing="-0.056" fill="#50525B">
                                <tspan x="22" y="322">4. Help me!</tspan>
                            </text>
                            <text id="2-days-ago" font-family="Arial-BoldMT, Arial" font-size="14" font-weight="bold" letter-spacing="-0.049" fill="#D3DBE7">
                                <tspan x="22" y="343">2 days ago</tspan>
                            </text>
                            <g id="Group" transform="translate(268.000000, 319.000000)">
                                <circle id="Oval-Copy" fill="#AFF265" cx="11" cy="11" r="11"></circle>
                                <circle id="Oval" fill="#FFFFFF" cx="11" cy="11" r="7.33333333"></circle>
                            </g>
                            <text id="3.-And-EASYLANG…" font-family="Arial-BoldMT, Arial" font-size="16" font-weight="bold" letter-spacing="-0.056" fill="#50525B">
                                <tspan x="22" y="226">3. And EASYLANG</tspan>
                                <tspan x="162.800625" y="226" font-family="Kodchasan-SemiBold, Kodchasan SemiBold" font-weight="500">…</tspan>
                            </text>
                            <text id="3-days-ago" font-family="Arial-BoldMT, Arial" font-size="14" font-weight="bold" letter-spacing="-0.049" fill="#D3DBE7">
                                <tspan x="22" y="247">3 days ago</tspan>
                            </text>
                            <g id="Group" transform="translate(263.000000, 233.000000) scale(-1, 1) translate(-263.000000, -233.000000) translate(252.000000, 222.000000)">
                                <circle id="Oval-Copy" fill="#AFF265" cx="11" cy="11" r="11"></circle>
                                <path d="M11,22 C11,17.0751322 11,5.95722933 11,0 C4.92486775,0 0,4.92486775 0,11 C0,17.0751322 4.92486775,22 11,22 Z" id="Oval-Copy-9" fill="#FFEB5D"></path>
                                <circle id="Oval" fill="#FFFFFF" cx="11" cy="11" r="7.33333333"></circle>
                            </g>
                            <text id="2.-And-getting-bette" font-family="Arial-BoldMT, Arial" font-size="16" font-weight="bold" letter-spacing="-0.056" fill="#50525B">
                                <tspan x="22" y="130">2. And getting better…</tspan>
                            </text>
                            <text id="4-days-ago" font-family="Arial-BoldMT, Arial" font-size="14" font-weight="bold" letter-spacing="-0.049" fill="#D3DBE7">
                                <tspan x="22" y="151">4 days ago</tspan>
                            </text>
                            <text id="1.-I-study…" font-family="Arial-BoldMT, Arial" font-size="16" font-weight="bold" letter-spacing="-0.056" fill="#50525B">
                                <tspan x="21" y="34">1. I study…</tspan>
                            </text>
                            <text id="5-days-ago" font-family="Arial-BoldMT, Arial" font-size="14" font-weight="bold" letter-spacing="-0.049" fill="#D3DBE7">
                                <tspan x="21" y="55">5 days ago</tspan>
                            </text>
                            <g id="Group" transform="translate(241.000000, 127.000000)">
                                <circle id="Oval-Copy" fill="#FF9861" cx="11" cy="11" r="11"></circle>
                                <path d="M11,22 C11,22 11,1.42108547e-14 11,1.42108547e-14 C4.92486775,1.42108547e-14 1.33226763e-14,4.92486775 1.33226763e-14,11 C1.33226763e-14,17.0751322 4.92486775,22 11,22 Z" id="Oval-Copy-2" fill="#FFEB5D"></path>
                                <circle id="Oval" fill="#FFFFFF" cx="11" cy="11" r="7.33333333"></circle>
                            </g>
                            <g id="Group-Copy" transform="translate(220.000000, 31.000000)">
                                <circle id="Oval-Copy" fill="#FF9861" cx="11" cy="11" r="11"></circle>
                                <circle id="Oval" fill="#FFFFFF" cx="11" cy="11" r="7.33333333"></circle>
                            </g>
                        </g>
                        <g id="+" transform="translate(173.547873, 417.000000)">
                            <g id="Oval-Copy-2">
                                <use fill="black" fill-opacity="1" filter="url(#filter-7)" xlink:href="#path-6"></use>
                                <use fill="#45B8FF" fill-rule="evenodd" xlink:href="#path-6"></use>
                            </g>
                            <circle id="Oval-Copy-2" fill="#45B8FF" cx="24.7169728" cy="25.4909091" r="22.5818182"></circle>
                            <path d="M25,25 L17,25 L25,25 L25,17 L25,25 Z M25,25 L33,25 L25,25 L25,33 L25,25 Z" id="Combined-Shape" stroke="#FFFFFF" stroke-width="2" stroke-linecap="round" stroke-linejoin="round"></path>
                        </g>
                    </g>
                </g>
            </g>
        </g>
    </g>
</svg>