<?xml version="1.0" encoding="UTF-8"?>
<svg width="651px" height="620px" viewBox="0 0 651 620" version="1.1" xmlns="http://www.w3.org/2000/svg" xmlns:xlink="http://www.w3.org/1999/xlink">
    <!-- Generator: Sketch 55.2 (78181) - https://sketchapp.com -->
    <title>landingillustration4</title>
    <desc>Created with Sketch.</desc>
    <defs>
        <linearGradient x1="50%" y1="1.47012247%" x2="50%" y2="99.8830213%" id="linearGradient-1">
            <stop stop-color="#245FAB" offset="0%"></stop>
            <stop stop-color="#142E50" offset="99.9604096%"></stop>
        </linearGradient>
    </defs>
    <g id="Page-1" stroke="none" stroke-width="1" fill="none" fill-rule="evenodd">
        <g id="landingillustration4" fill-rule="nonzero">
            <ellipse id="Oval" fill="url(#linearGradient-1)" cx="341" cy="310" rx="280" ry="310"></ellipse>
            <path d="M244.037161,529.349736 L237.635928,531.88215 C233.960529,522.924223 229.264849,515.079838 223.548888,508.348997 C207.468999,489.414091 164.675205,505.070699 122.168396,479.240044 C79.661587,453.40939 53.9881436,441.008925 65.1829564,440.558057 C95.3589371,439.342728 151.687048,447.727307 189.990879,470.440946 C210.32389,482.498139 225.989333,497.36473 236.987207,515.04072 C226.356999,491.083651 207.275221,447.843009 171.587884,448.338783 C122.843263,449.01595 93.4956453,405.178805 72.069961,397.305116 C50.6442768,389.431426 23.9124197,395.904726 33.5889243,388.561546 C48.8638702,376.969892 142.384107,372.321995 180.208249,412.079231 C195.670055,428.33125 210.691918,451.407346 222.533187,472.881127 C216.670969,458.505062 211.521205,446.941681 207.083894,438.190985 C183.391267,391.467423 163.429711,380 152.715817,346 C138.689584,301.488461 158.721852,304.622231 158.721852,220.794003 C158.721852,180.412844 186.321195,233.521142 202.896615,308.745508 C210.442725,342.992084 204.353997,391.076658 216.998681,441.43024 C221.610389,459.794953 240.585927,491.56724 252.513866,527.57386 C252.809001,528.464776 250.844938,529.206328 246.621678,529.798517 C246.489389,530.387808 246.173175,530.636403 245.660541,530.505889 C245.397455,530.438909 245.122025,530.276348 244.833377,530.024964 C244.659466,530.044914 244.482612,530.064669 244.302816,530.08423 C244.214163,529.838997 244.125611,529.594166 244.037161,529.349736 Z M3.60014407,448.768751 C24.5537025,449.649041 63.8167685,464.946652 85.9918509,486.684604 C108.166933,508.422556 124.570103,523.949854 129.603693,533.242163 C134.637283,542.534472 119.880817,529.162437 101.28234,519.162038 C82.6838628,509.16164 56.3486941,509.000623 31.8839127,484.411447 C7.41913134,459.822272 -2.50026654,448.512463 3.60014407,448.768751 Z M5.11284689,527.913297 C36.574658,526.189391 56.3120902,513.029071 83.3777037,519.507379 C110.443317,525.985688 126.425168,543.344348 114.335703,540.234961 C102.246238,537.125573 78.8575998,536.296045 49.9577016,539.215321 C21.0578033,542.134598 -12.2613859,528.865294 5.11284689,527.913297 Z M489.115894,517.869736 C491.171028,517.185255 493.007611,516.498492 494.625644,515.809446 C507.186566,510.460326 520.652619,502.341301 533.686853,499.794104 C567.428027,493.200284 605.261939,499.263645 625.383578,507.667031 C632.848389,510.784554 613.401076,513.412696 575.746391,521.174578 C538.091707,528.936459 514.232313,513.581265 496.890251,523.038148 C487.643307,528.080644 486.268418,556.598426 472.690768,556.9193 C465.012515,557.100757 462.727012,549.063659 465.834257,532.808006 C465.238855,523.265753 468.029677,509.543719 479.086497,492.925893 C479.564505,489.927966 479.947957,487.16553 480.187031,484.759731 C482.206452,464.438362 459.361591,436.563309 465.965765,393.136573 C472.569939,349.709838 476.509303,330.893794 480.394293,336.424192 C493.738372,355.419887 505.892236,403.322293 500.423902,442.188759 C498.957097,452.614151 496.854791,465.005771 494.420558,477.593408 C496.174782,476.100811 498.006651,474.570139 499.876993,473.024921 C512.564511,428.964352 510.523927,385.06357 518.970608,355.071677 C538.151654,286.964941 564.754578,244.617886 564.082151,275.877334 C562.607521,344.4292 565.099578,346.47495 561.832099,380.476595 C557.897579,421.419526 531.633874,427.009463 508.594123,465.912569 C518.32262,458.039736 527.485919,450.731712 530.795289,447.165062 C564.400463,410.947319 638.366636,415.264735 649.487841,425.846785 C656.532997,432.550393 635.846379,426.625418 618.108489,433.786279 C600.370598,440.947139 571.757609,471.101795 532.334069,479.127106 C511.719782,483.323483 498.204388,501.362136 489.115894,517.869736 Z" id="Combined-Shape" fill="#245FAB"></path>
            <path d="M193.447647,380 C192.343078,380 191.447647,379.104569 191.447647,378 C191.447647,376.895431 192.343078,376 193.447647,376 C194.552217,376 195.447647,376.895431 195.447647,378 C195.447647,379.104569 194.552217,380 193.447647,380 Z M176.947647,344 C176.11922,344 175.447647,343.328427 175.447647,342.5 C175.447647,341.671573 176.11922,341 176.947647,341 C177.776074,341 178.447647,341.671573 178.447647,342.5 C178.447647,343.328427 177.776074,344 176.947647,344 Z M170.486314,430.383366 C169.615902,431.063407 168.359011,430.90908 167.67897,430.038667 C166.998929,429.168255 167.153256,427.911364 168.023669,427.231323 C168.894081,426.551282 170.150972,426.705609 170.831013,427.576022 C171.511054,428.446434 171.356727,429.703325 170.486314,430.383366 Z M121.476648,411.287524 C120.823838,411.797555 119.88117,411.68181 119.371139,411.029001 C118.861109,410.376191 118.976854,409.433523 119.629663,408.923492 C120.282473,408.413462 121.225141,408.529207 121.735172,409.182016 C122.245202,409.834826 122.129457,410.777494 121.476648,411.287524 Z M140.476648,407.287524 C139.823838,407.797555 138.88117,407.68181 138.371139,407.029001 C137.861109,406.376191 137.976854,405.433523 138.629663,404.923492 C139.282473,404.413462 140.225141,404.529207 140.735172,405.182016 C141.245202,405.834826 141.129457,406.777494 140.476648,407.287524 Z M542.447647,383 C541.343078,383 540.447647,382.104569 540.447647,381 C540.447647,379.895431 541.343078,379 542.447647,379 C543.552217,379 544.447647,379.895431 544.447647,381 C544.447647,382.104569 543.552217,383 542.447647,383 Z M556.947647,347 C556.11922,347 555.447647,346.328427 555.447647,345.5 C555.447647,344.671573 556.11922,344 556.947647,344 C557.776074,344 558.447647,344.671573 558.447647,345.5 C558.447647,346.328427 557.776074,347 556.947647,347 Z M576.629663,434.287524 C575.976854,433.777494 575.861109,432.834826 576.371139,432.182016 C576.88117,431.529207 577.823838,431.413462 578.476648,431.923492 C579.129457,432.433523 579.245202,433.376191 578.735172,434.029001 C578.225141,434.68181 577.282473,434.797555 576.629663,434.287524 Z" id="Combined-Shape" fill="#FFFFFF"></path>
        </g>
    </g>
</svg>